<?xml version="1.0" encoding="utf-8"?>
<!-- Generator: Adobe Illustrator 24.1.2, SVG Export Plug-In . SVG Version: 6.00 Build 0)  -->
<svg version="1.1" id="Layer_1" xmlns="http://www.w3.org/2000/svg" xmlns:xlink="http://www.w3.org/1999/xlink" x="0px" y="0px"
	 viewBox="0 0 2224 1158" style="enable-background:new 0 0 2224 1158;" xml:space="preserve">
<g transform="translate(0.000000,1158.000000) scale(0.100000,-0.100000)">
	<path d="M0,5790V0h11120h11120v5790v5790H11120H0V5790z M6308,7654c449-256,842-480,872-498s81-47,113-65l57-32V5930V4802l-42-24
		c-24-14-122-70-218-125s-260-149-365-208c-104-59-230-132-280-160c-49-29-285-164-523-300l-433-246l-102,59
		c-173,100-289,166-1034,592l-723,412v1128v1128l733,418c402,230,820,468,927,530s196,113,198,114C5489,8120,5858,7910,6308,7654z
		 M10730,6545v-485h-80h-80l-2,485l-3,485h83h82V6545z M13360,6843v-187l33,31c51,49,92,65,167,65c114,0,192-49,241-149
		c23-46,24-60,27-287c2-131,1-243-1-250c-3-7-30-10-80-8l-76,4l-3,221c-3,190-6,227-21,254c-26,49-62,68-127,68c-47,0-63-5-94-28
		c-63-49-66-61-66-302v-215h-85h-85v485v485h85h85V6843z M8786,6867c23-67,96-275,163-462s121-341,121-342c0-2-40-3-89-3h-89l-32,90
		l-32,90h-208h-208l-31-81c-17-44-31-85-31-90s-40-9-90-9c-49,0-90,2-90,5c0,4,143,405,242,680c22,61,46,130,55,155
		c34,100,17,90,155,90h123L8786,6867z M11258,6738c18-5,55-27,82-49l50-39v40v40h85h85v-334v-334l-75-4c-42-2-80-1-85,0
		c-6,2-10,22-10,44v40l-37-32c-61-54-117-74-204-73c-92,1-163,29-222,88c-50,50-75,101-93,188c-26,123,6,252,82,337
		C10998,6741,11134,6776,11258,6738z M12893,6734c91-30,179-124,201-215c6-26,5-27-71-38c-78-12-92-8-93,25c0,7-17,28-37,48
		c-96,93-238,68-301-55c-19-37-23-56-20-119c3-65,7-81,35-121c42-60,92-83,171-77c71,5,120,37,148,95l18,38l78-9c49-5,78-13,78-21
		c0-32-65-138-105-171c-114-93-294-107-422-34c-195,111-229,409-66,576C12598,6751,12747,6780,12893,6734z M14364,6745
		c56-9,125-47,170-92c59-59,89-133,94-230l5-83h-277h-277l6-22c11-39,59-101,93-121c18-10,58-21,90-24c69-6,135,20,180,72l29,32
		l63-24c35-13,66-26,69-28c8-9-62-102-94-124c-67-45-134-64-235-64c-83-1-103,3-157,27c-106,48-178,141-203,261
		c-32,156,37,314,170,384C14173,6753,14248,6763,14364,6745z M10160,6729c25-11,62-37,83-57l37-36v47v47h80h80l-2-337l-3-336h-75
		h-75l-3,46l-3,47l-33-34c-55-54-118-79-200-80c-140,0-238,59-298,182c-31,63-33,72-33,177c0,92,4,118,22,158c35,76,88,133,156,167
		c52,26,71,30,141,30C10094,6750,10127,6744,10160,6729z M12176,6720c65-32,114-93,133-165c6-23,11-138,11-267v-228h-79h-80l-3,223
		c-2,186-6,227-20,253c-25,45-63,67-123,68c-61,0-109-25-142-74c-22-32-23-41-23-251v-219h-85h-85v335v335h85h85v-36v-35l43,35
		c57,47,80,55,158,55C12105,6750,12128,6745,12176,6720z M9262,6465c49-142,90-261,92-262c4-4,37,88,130,360c30,88,57,161,59,163
		c2,3,41,4,85,2l80-3l-79-220c-44-121-91-251-105-290c-14-38-33-89-41-112l-15-43h-113h-113l-25,73c-14,39-51,142-82,227
		c-32,85-75,204-96,263l-39,108l87-3l86-3L9262,6465z M11010,5335v-485h-80h-80v41v41l-45-40c-57-50-113-66-213-60
		c-123,7-213,68-270,181c-70,140-36,345,74,447c69,63,123,84,224,84c92,0,146-19,203-72l27-26v187v187h80h80V5335z M11301,5791
		c65-66,20-171-73-171c-96,0-140,107-72,175C11193,5832,11261,5830,11301,5791z M8765,5780c112-43,195-157,195-266v-34h-84h-83
		l-6,42c-12,89-85,138-204,138c-87,0-129-15-167-61c-23-27-27-40-23-72c10-71,63-101,222-127c268-44,364-117,366-278
		c1-79-18-135-63-187c-82-94-253-136-423-104c-170,31-277,136-292,285l-6,54h86h87l6-41c9-55,41-99,94-129c38-21,58-25,130-25
		c136,0,203,42,202,127c-1,81-40,107-212,138c-207,37-277,66-333,138c-74,95-58,251,35,338c75,71,152,94,303,90
		C8682,5804,8718,5798,8765,5780z M13815,5796c119-31,235-118,281-208c13-26,24-49,24-52c0-5-161-49-164-44c-1,2-12,19-24,39
		c-48,80-132,121-249,122c-73,0-90-4-147-32c-71-35-112-79-149-158c-31-68-32-227-1-294c30-64,88-125,148-157c45-24,62-27,151-27
		c119,0,168,19,232,88c46,50,67,87,78,135l7,32h-205h-205l-4,66c-1,36-1,68,1,70s134,4,292,4h287l6-22c9-37,7-74-10-155
		c-55-268-285-417-574-374c-195,29-359,181-399,369c-48,229,45,450,230,547c40,21,93,44,118,51C13601,5813,13753,5813,13815,5796z
		 M9300,5636c0-78,3-105,14-109c7-3,43-5,80-4l66,2v-62v-62l-77-3l-78-3v-192c0-187,1-193,23-215c19-19,32-23,82-21l60,1v-63
		c0-62,0-63-31-69c-67-13-153-7-194,15c-45,24-56,37-85,96c-18,39-20,62-20,248v205h-50h-50v60v60l40,1c22,1,46,2,52,3
		c8,1,17,36,26,96c7,52,15,101,17,108c3,8,25,12,65,12h60V5636z M11944,5512c75-35,130-89,165-162c23-49,26-67,26-165
		c0-91-4-118-21-156c-31-67-89-126-158-162c-58-31-66-32-176-32c-103,0-121,3-170,26c-99,48-158,120-186,229c-52,206,64,409,259,450
		C11759,5556,11876,5544,11944,5512z M12628,5531c33-10,76-30,95-45c42-32,77-98,77-144v-32h-72h-73l-17,40c-20,47-63,70-132,70
		c-84,0-125-29-126-88c0-28,5-35,33-47c18-7,68-18,112-24c169-24,249-63,280-138c48-115-16-239-143-277c-81-25-247-19-312,12
		c-77,35-125,101-137,187l-6,45h74h75l14-42c18-52,62-84,129-93c96-13,167,27,159,92c-4,39-49,58-176,76c-193,28-269,92-259,219
		c6,71,30,114,84,152C12387,5550,12519,5565,12628,5531z M15240,5514c70-31,142-103,172-172c30-66,36-190,13-267
		c-32-110-101-183-214-226c-46-17-72-20-152-17c-84,3-104,8-162,36c-120,59-187,174-187,323c0,167,108,308,267,349
		C15044,5557,15173,5544,15240,5514z M16822,5513c72-34,123-88,160-169c19-41,23-66,23-154c0-97-2-110-31-170
		c-59-123-146-182-278-188c-95-5-140,7-201,53l-45,35v-185v-185h-85h-85l2,488l3,487h80h80l3-38l3-37l42,35
		C16577,5557,16704,5568,16822,5513z M14681,5524c5-3,9-39,9-81c0-68-2-74-17-68c-10,4-43,10-73,12c-68,5-110-18-140-76
		c-18-37-20-59-20-251v-210h-85h-85v334c0,383-10,349,100,345l60-2v-39v-40l41,35c22,20,57,40,77,46
		C14584,5539,14662,5536,14681,5524z M9713,5520c4,0,7-100,7-221c0-208,1-224,22-260c42-76,157-86,232-20c46,40,51,66,56,290l5,214
		h75h75l3-336l2-337h-80h-80v35c0,19-3,35-6,35s-24-16-46-35c-54-46-97-58-179-53c-107,8-178,60-225,164c-15,33-19,75-22,272
		c-2,128-2,239,1,245C9557,5524,9601,5526,9713,5520z M11308,5186l2-336h-80h-80v338v337l78-1l77-1L11308,5186z M15690,5295
		c5-235,8-252,48-289c47-42,150-39,199,6c56,51,63,84,63,311v207h80h80v-340v-340h-80h-80v41v41l-46-41c-59-52-100-65-185-59
		c-122,9-215,93-239,217c-15,81-13,468,3,475c6,2,44,4,82,3l70-2L15690,5295z"/>
	<path d="M5465,7821c-6-5-140-84-300-174c-159-91-346-197-415-236c-69-40-293-167-497-284l-373-212v-985v-985l88-49
		c48-27,128-73,177-101c179-104,308-177,735-420c239-136,473-269,520-296s88-49,91-49s138,76,300,168s522,298,802,457l507,290v986
		v985l-37,21c-21,11-148,83-283,160s-409,234-610,348s-434,247-518,296C5498,7831,5482,7838,5465,7821z M5757,6748
		c143-216,426-643,629-948s380-573,394-594l23-39l-154,6c-165,6-252,23-370,72c-93,39-215,123-286,196c-73,75-89,96-191,249
		c-42,63-201,304-355,534c-164,246-277,426-274,435c5,22,309,481,318,481C5494,7140,5614,6963,5757,6748z M5329,5904
		c76-20,127-45,186-89c45-34,125-120,133-143c1-5-26-3-60,4c-35,8-79,14-98,14c-68,0-176-30-257-71c-119-60-182-122-298-298
		l-100-150l-328-1c-260,0-327,3-321,13c47,79,259,387,301,434c62,72,190,171,272,212C4939,5921,5156,5949,5329,5904z"/>
	<path d="M8541,6612c-41-114-77-213-79-220c-4-10,28-13,152-11c86,0,158,4,160,7c4,9-146,432-154,432C8617,6820,8582,6727,8541,6612
		z"/>
	<path d="M11121,6599c-47-19-82-52-107-102c-22-43-25-61-22-118c5-84,40-142,108-177c66-34,154-28,207,14c61,48,85,105,81,191
		c-3,60-8,79-33,115C11304,6595,11198,6630,11121,6599z"/>
	<path d="M14210,6609c-43-13-86-52-111-101l-19-38h190h191l-6,23C14427,6582,14309,6638,14210,6609z"/>
	<path d="M10009,6600c-75-22-128-97-136-190c-5-51-2-67,22-115c36-75,86-108,169-113c91-5,141,24,184,107c35,70,38,97,20,169
		c-14,58-87,135-137,145C10089,6612,10043,6611,10009,6600z"/>
	<path d="M10565,5385c-129-69-156-246-54-354c59-62,153-75,239-31c63,32,94,89,98,180c3,87-16,131-81,184c-33,26-48,31-105,34
		C10614,5400,10586,5396,10565,5385z"/>
	<path d="M11695,5386c-74-33-118-107-118-201c-1-172,162-266,310-180c104,62,123,241,35,338C11875,5395,11764,5416,11695,5386z"/>
	<path d="M14980,5378c-158-80-133-350,38-398c58-16,94-12,148,15c35,17,58,38,79,72c26,42,30,57,30,119c0,61-4,77-30,120
		c-38,61-97,94-170,94C15042,5400,15008,5392,14980,5378z"/>
	<path d="M16549,5377c-29-16-54-40-74-72c-56-91-34-227,47-288c76-56,165-59,237-7c58,42,85,100,86,181c0,56-4,73-30,114
		c-38,62-98,95-170,95C16610,5400,16579,5392,16549,5377z"/>
</g>
</svg>
