<?xml version="1.0" encoding="utf-8"?>
<!-- Generator: Adobe Illustrator 24.1.2, SVG Export Plug-In . SVG Version: 6.00 Build 0)  -->
<svg version="1.1" id="Layer_1" xmlns="http://www.w3.org/2000/svg" xmlns:xlink="http://www.w3.org/1999/xlink" x="0px" y="0px"
	 viewBox="0 0 399.2 100.5" style="enable-background:new 0 0 399.2 100.5;" xml:space="preserve">
<style type="text/css">
	.st0{fill:#DD0332;}
	.st1{fill:#FFFFFF;}
</style>
<g id="wide_black_on_white">
	<g id="logo_5_">
		<g id="ICON">
			<circle id="molecule" class="st0" cx="49" cy="50" r="33.5"/>
			<path id="atom_path" d="M50.2,100.5c26,0,47.3-19.7,50-44.9c2.6-0.4,4.6-2.6,4.6-5.3c0-2.7-2-5-4.6-5.3C97.5,19.7,76.2,0,50.2,0
				C22.5,0,0,22.5,0,50.3C0,78,22.5,100.5,50.2,100.5z M50.2,2c24.9,0,45.3,18.8,48,43c-2.4,0.5-4.2,2.7-4.2,5.3
				c0,2.6,1.8,4.7,4.2,5.3c-2.6,24.2-23.1,43-48,43C23.6,98.5,2,76.9,2,50.3C2,23.6,23.6,2,50.2,2z"/>
			<path id="helmet_shadow" d="M85.2,67.8H49.7c-3.5,0-6.3-1.3-8.1-3.9c-1.9-2.6-2.8-6.2-2.8-11.7s0.9-9.1,2.8-11.7
				c1.9-2.6,4.6-3.9,8.1-3.9h35.5c0.3,0,0.7,0,1,0c-6-13.6-19.8-23.2-35.7-23.2c-7.2,0-10.8,5.7-11.3,10.3
				c-0.8,7.5-3.5,11.8-8.2,12.9c-1.3,0.4-5.1,0.9-11.3,0.9c-6.4,0-8.2,10.6-8.2,14.6c0,4.1,1.8,14.6,8.2,14.6c6.2,0,10,0.5,11.3,0.9
				c4.7,1.1,7.5,5.3,8.2,12.9C39.6,85.4,43.3,91,50.5,91c16,0,29.7-9.5,35.7-23.2C85.9,67.8,85.6,67.8,85.2,67.8z"/>
			<path id="white_helmet" class="st1" d="M85.2,65.9H49.7c-3.5,0-6.3-1.3-8.1-3.9c-1.9-2.6-2.8-6.2-2.8-11.7
				c0-5.5,0.9-9.1,2.8-11.7c1.9-2.6,4.6-3.9,8.1-3.9h35.5c0.3,0,0.7,0,1,0c-6-13.6-19.8-23.2-35.7-23.2c-7.2,0-10.8,5.7-11.3,10.3
				c-0.8,7.5-3.5,11.8-8.2,12.9c-1.3,0.4-5.1,0.9-11.3,0.9c-6.4,0-8.2,10.6-8.2,14.6c0,4.1,1.8,14.6,8.2,14.6c6.2,0,10,0.5,11.3,0.9
				c4.7,1.1,7.5,5.3,8.2,12.9c0.5,4.7,4.1,10.3,11.3,10.3c16,0,29.7-9.5,35.7-23.2C85.9,65.9,85.6,65.9,85.2,65.9z"/>
		</g>
		<g id="CONSID">
			<path d="M225.4,31.2c-4.3-4.4-10.3-6.6-18.1-6.6c-8.1,0-14.5,2.3-19.1,7c-4.6,4.7-6.9,11-6.9,19.1c0,7.7,2.1,13.8,6.4,18.3
				c4.3,4.5,10.3,6.8,18.1,6.8c8.2,0,14.6-2.4,19.1-7.3c4.6-4.9,6.8-11.3,6.8-19.4C231.8,41.6,229.6,35.6,225.4,31.2z M219.9,67.6
				c-2.8,3.7-7.1,5.5-12.9,5.5c-5.9,0-10.4-2-13.5-6.1c-3.1-4-4.6-9.8-4.6-17.4c0-7.4,1.4-13,4.1-16.7c2.7-3.7,7-5.5,13-5.5
				c6.2,0,10.7,2,13.6,5.9c3,4,4.4,9.6,4.4,17C224.1,58.2,222.7,63.9,219.9,67.6z"/>
			<path d="M393.1,31.1c-4.1-3.7-10.2-5.6-18.3-5.6c-2.3,0-4.5,0.1-6.7,0.2c-2.2,0.1-4.4,0.2-6.7,0.2c-2.8,0-5.7,0-8.7-0.1l0.1,1.5
				l4.3,1.4c0.5,0.2,0.8,0.6,0.8,1.2c0,0.8,0,1.6,0.1,2.6c0,1,0,2,0,3.2v28.3c0,1.4,0,2.7,0,3.8c0,1.1,0,2.2-0.1,3.1
				c0,0.5-0.3,0.9-0.9,1.1l-4.3,1.3l0.1,1.5c2.9-0.1,5.8-0.1,8.6-0.1c2.1,0,4.1,0,5.9,0.1c1.8,0.1,3.8,0.1,6,0.1
				c8.2,0,14.6-2.4,19.1-7.1s6.8-11.4,6.8-20C399.2,40.3,397.2,34.8,393.1,31.1z M386.8,66.5c-3.2,3.6-7.9,5.4-14,5.4
				c-1.3,0-2.6,0-4-0.1c-1.3-0.1-2.7-0.2-4-0.4V28.9c1.6-0.1,3-0.2,4.3-0.3c1.3,0,2.4-0.1,3.5-0.1c6.6,0,11.4,1.7,14.5,5.2
				c3,3.5,4.6,8.9,4.6,16.1C391.6,57.3,390,62.9,386.8,66.5z"/>
			<path d="M252.3,74.7l-0.1-1.6l-4.1-1.2c-0.6-0.1-0.8-0.5-0.9-1.2c0-1.8-0.1-4.1-0.1-6.8V35.7l31.3,39.1l2.9-0.3V35.6
				c0-2.3,0-4.3,0.1-5.8c0-0.6,0.3-1,0.8-1.2l4.4-1.4l-0.1-1.5c-2.9,0.1-5.3,0.1-7.1,0.1c-1.8,0-4.2,0-7.2-0.1l0.1,1.6l4.1,1.2
				c0.6,0.2,0.9,0.5,0.9,1.1c0.1,1.6,0.1,3.6,0.1,5.8v26.8L248,25.8c-1.1,0.1-2.1,0.1-3.2,0.1c-1.7,0-4.1,0-7.1-0.1l0.1,1.5l4.3,1.4
				c0.5,0.2,0.8,0.6,0.8,1.2c0,1.5,0.1,3.5,0.1,5.8v28.3c0,2.7,0,5.1-0.1,6.9c0,0.5-0.3,0.9-0.9,1.1l-4.3,1.3l0.1,1.5
				c3-0.1,5.4-0.1,7.2-0.1C247,74.6,249.3,74.6,252.3,74.7z"/>
			<path d="M340.6,32.3c0-1,0-1.9,0.1-2.7c0-0.6,0.3-0.9,0.9-1.1l4.3-1.3l-0.1-1.5c-3,0.1-5.9,0.1-8.6,0.1c-2.8,0-5.6,0-8.6-0.1
				l0.1,1.5l4.3,1.4c0.5,0.2,0.8,0.6,0.8,1.2c0,0.8,0,1.6,0.1,2.6c0,1,0,2,0,3.2v28.3c0,1.4,0,2.7,0,3.8c0,1.1,0,2.2-0.1,3.1
				c0,0.6-0.4,0.9-0.9,1.1l-4.3,1.3l0.1,1.5c3-0.1,5.8-0.1,8.6-0.1c2.8,0,5.6,0,8.6,0.1l-0.1-1.5l-3.9-1.2c-0.8-0.2-1.2-0.6-1.2-1.2
				c0-0.9,0-2-0.1-3.1c0-1.1,0-2.4,0-3.8V35.5C340.5,34.4,340.6,33.3,340.6,32.3z"/>
			<path d="M313.2,70.3c-1.9,1.5-4.6,2.3-8.1,2.3c-2.6,0-5.1-0.5-7.6-1.5l-2.4-9.9l-1.6,0.2l-1.7,11.8l0.2,0.3
				c4.5,1.3,8.6,1.9,12.3,1.9c5.7,0,10.2-1.2,13.5-3.7c3.2-2.4,4.9-6,4.9-10.6c0-1.9-0.4-3.7-1.1-5.1c-0.7-1.5-1.7-2.7-2.9-3.8
				c-1.2-1-2.6-2-4.1-2.7c-1.5-0.8-3.1-1.5-4.7-2.2c-1.5-0.7-2.9-1.3-4.3-2c-1.4-0.7-2.6-1.4-3.7-2.3c-1.1-0.9-1.9-1.9-2.6-3
				c-0.6-1.1-1-2.5-1-4c0-2.6,0.9-4.7,2.7-6.2c1.8-1.5,4.3-2.2,7.3-2.2c2,0,4.3,0.4,6.7,1.2l2.3,8.7l1.4-0.2l2.1-10.9l-0.2-0.2
				c-4-0.9-7.9-1.3-11.5-1.3c-5.2,0-9.4,1.2-12.5,3.5c-3.1,2.3-4.7,5.6-4.7,9.8c0,2.1,0.4,3.9,1.1,5.5c0.7,1.6,1.7,2.9,3,4
				c1.2,1.1,2.6,2,4.2,2.8c1.5,0.8,3.1,1.6,4.7,2.3c1.4,0.7,2.8,1.3,4.2,2c1.3,0.7,2.5,1.4,3.6,2.2c1.1,0.8,1.9,1.8,2.5,2.9
				c0.6,1.1,0.9,2.4,0.9,3.9C316.1,66.6,315.1,68.8,313.2,70.3z"/>
			<path d="M175.4,71l-0.4-1.6c-4.1,1.4-8,2.1-11.7,2.1c-6.6,0-11.7-2-15.4-6.1c-3.7-4-5.6-9.4-5.6-16.2c0-6.3,1.6-11.5,4.9-15.5
				c3.3-4,7.7-6,13.4-6c2.3,0,5,0.4,7.8,1.1l2.5,9.2l1.4-0.2l2.2-11.2l-0.2-0.3c-4.1-0.9-8.1-1.4-12.1-1.4c-8.2,0-14.8,2.3-19.9,7
				c-5.1,4.6-7.6,10.9-7.6,18.9c0,7.5,2.3,13.5,6.9,18.1c4.6,4.6,10.6,6.9,18.1,6.9C165.7,75.8,170.8,74.2,175.4,71z"/>
		</g>
	</g>
</g>
</svg>
