<?xml version="1.0" encoding="utf-8"?>
<!-- Generator: Adobe Illustrator 24.1.2, SVG Export Plug-In . SVG Version: 6.00 Build 0)  -->
<svg version="1.1" xmlns="http://www.w3.org/2000/svg" xmlns:xlink="http://www.w3.org/1999/xlink" x="0px" y="0px"
	 viewBox="0 0 212.6 56.7" style="enable-background:new 0 0 212.6 56.7;" xml:space="preserve">
<style type="text/css">
	.st0{fill:#A71680;}
	.st1{fill:#FFFFFF;}
</style>
<g id="background">
</g>
<g id="Layer_1">
	<path class="st0" d="M212.6,28.3c0,15.7-12.7,28.3-28.3,28.3H28.3C12.7,56.7,0,44,0,28.3l0,0C0,12.7,12.7,0,28.3,0h155.9
		C199.9,0,212.6,12.7,212.6,28.3L212.6,28.3z"/>
	<g>
		<path class="st1" d="M113.8,20.8c0,0,0,7.9,0,7.9c0,4,2,7.2,6.8,7.7c0,0,0,3.2,0,3.2c-6.4,0-10-4.6-10-10.8v-8h-2.5v-3.1h2.5v-5.3
			h3.2v5.3h6.5v3.1H113.8z"/>
		<path class="st1" d="M91.3,21v-3.2c7.6-2,12.8,1.6,14.8,7l5.2,14.2h-3.4l-2.2-5.7c-2.1,4.2-6.5,6.7-10.9,6.6
			c-2.3-0.1-4.6-0.9-6-2.9c-1.1-1.5-1.4-3.6-0.9-5.5c0.7-2.3,2.9-4.1,5.2-4.4c2.3-0.3,10.4-0.1,10.3-0.2C102.2,23.5,99,17.8,91.3,21
			z M91.2,34.8c1.4,2.1,3.8,2.3,6,1.8c3.2-0.8,6.3-3.7,7.4-7c-3.1,0.1-7.7-0.1-10.5,0.2C89.9,30.4,90.7,33.9,91.2,34.8z"/>
		<path class="st1" d="M147.8,20.8c0,0,0,7.9,0,7.9c0,4,2,7.2,6.8,7.7c0,0,0,3.2,0,3.2c-6.4,0-10-4.6-10-10.8v-8h-2.5v-3.1h2.5v-5.3
			h3.2v5.3h6.5v3.1H147.8z"/>
		<path class="st1" d="M174,28.3c0,4.6-3.7,8.2-8.2,8.2c-4.6,0-8.2-3.7-8.2-8.2c0-4.6,3.7-8.2,8.2-8.2C170.3,20.1,174,23.8,174,28.3
			z M165.8,16.9c-6.3,0-11.4,5.1-11.4,11.4c0,6.3,5.1,11.4,11.4,11.4c6.3,0,11.4-5.1,11.4-11.4C177.2,22,172.1,16.9,165.8,16.9z"/>
		<path class="st1" d="M125.2,21v-3.2c7.6-2,12.4,1.4,14.7,6.9l5.4,14.3h-3.4l-2-5.7c-2.1,4.2-6.6,6.7-11.1,6.6
			c-2.3-0.1-4.6-0.9-6-2.9c-1.1-1.5-1.4-3.6-0.9-5.5c0.7-2.3,2.9-4.1,5.2-4.4c2.3-0.3,10.4-0.1,10.3-0.2C137,24,132.9,17.8,125.2,21
			z M125.1,34.8c1.4,2.1,3.8,2.3,6,1.8c3.2-0.8,6.3-3.7,7.4-7c-3.1,0.1-7.7-0.1-10.5,0.2C123.8,30.4,124.6,33.9,125.1,34.8z"/>
		<path class="st1" d="M83.3,6.3v14.1c-2.1-2.2-5-3.5-8.2-3.5c-6.3,0-11.4,5.1-11.4,11.4c0,6.3,5.1,11.4,11.4,11.4
			c6.3,0,11.4-5.1,11.4-11.4v-22H83.3z M75,36.6c-4.6,0-8.2-3.7-8.2-8.2c0-4.6,3.7-8.2,8.2-8.2c4.6,0,8.2,3.7,8.2,8.2
			C83.3,32.9,79.6,36.6,75,36.6z"/>
		<path class="st1" d="M31.2,8.6L31.2,8.6c-0.1,0-0.1,13.9-0.1,14.3C31,22.8,31,22.7,31,22.7c-1.8-2.4-2.3-2.8-3.2-3.6
			c-1.2-1-2.6-1.6-4-1.6c-1.5,0-3.2,0.8-4,1.6l-0.1,0.1c-0.7,0.6-1.4,1.2-3.1,3.5c-0.8,1-2.8,4.3-3.1,4.7l0,0.1l2.7,1.7l0-0.1
			c0.6-1,2.3-3.6,2.9-4.4c1.5-2,2.1-2.5,2.7-3l0.1-0.1c0.4-0.4,1.3-0.8,1.9-0.8c0.8,0,1.5,0.5,1.9,0.8c0.7,0.6,1.1,0.9,2.7,3.1
			c0.9,1.2,2.1,3.2,2.6,4c0,0,0,19.2,0,19.2h1.1c10.9,0,19.7-8.8,19.7-19.7c0-10.9-8.8-19.7-19.7-19.7H31.2z M34.3,11.9
			c6.7,0.8,12.3,5.9,13.9,12.5c0.2,0.6,0.2,1.4,0.2,2.1c0,0.6,0,1.2-0.1,1.7c-0.3,1.5-1.3,3.3-1.7,3.9c-2.5,3.7-4.1,3.6-4.8,3.6
			l-0.2,0c-0.8,0-1.5-0.5-1.9-0.8c-0.7-0.6-1.1-0.9-2.7-3.1c-0.9-1.2-2.1-3.2-2.6-4C34.3,27.8,34.3,12.1,34.3,11.9z M34.3,33.6
			c0.1,0.1,0.1,0.1,0.1,0.1c1.8,2.4,2.3,2.8,3.2,3.6c1.2,1,2.6,1.6,4,1.6c1.5,0,3.2-0.8,4-1.6l0.1-0.1c0.2-0.2,0.4-0.3,0.6-0.6
			c-2.6,4.3-7.1,7.3-12.1,7.9C34.3,44.4,34.3,34,34.3,33.6z"/>
		<path class="st1" d="M179.1,39V24.8c0-4.4,3.5-7.9,7.9-7.9c4.4,0,7.9,3.5,7.9,7.9V39h-3.2V24.8c0-2.6-2.1-4.7-4.7-4.7
			c-2.6,0-4.7,2.1-4.7,4.7V39H179.1z"/>
	</g>
</g>
</svg>
