<?xml version="1.0" encoding="utf-8"?>
<!-- Generator: Adobe Illustrator 24.1.2, SVG Export Plug-In . SVG Version: 6.00 Build 0)  -->
<svg version="1.1" id="Layer_1" xmlns="http://www.w3.org/2000/svg" xmlns:xlink="http://www.w3.org/1999/xlink" x="0px" y="0px"
	 viewBox="0 0 1000 1000" style="enable-background:new 0 0 1000 1000;" xml:space="preserve">
<style type="text/css">
	.st0{fill-rule:evenodd;clip-rule:evenodd;}
</style>
<g>
	<g>
		<path class="st0" d="M500,1C224.9,1,1,224.9,1,500s223.9,499,499,499c275.2,0,499-223.9,499-499C999,224.9,775.2,1,500,1z
			 M500,934.4C260.5,934.4,65.6,739.5,65.6,500C65.6,260.5,260.5,65.6,500,65.6c239.5,0,434.4,194.9,434.4,434.4
			C934.4,739.5,739.5,934.4,500,934.4z M669.5,354.5h3.9v-19.1h7.1V332h-18.1v3.4h7.1L669.5,354.5L669.5,354.5z M686.9,337.1
			L686.9,337.1l6.3,17.3h3.2l6.2-17.3h0.1v17.3h3.7V332h-5.4l-6,17.6h-0.1l-6.2-17.6h-5.5v22.4h3.7V337.1z M573.5,332H328
			l-37.2,59.9H536L573.5,332z M623.7,332.6l-150.1,239H307.2l38.4-59.9h99.8l38.1-59.9H252.8l-38.1,59.9h54.6l-75.8,119.6h316.4
			l116.9-184.3l42.6,64.7H631l-36.4,59.9h113.8l39.5,59.7h72.6L623.7,332.6z"/>
	</g>
</g>
</svg>
