<?xml version="1.0" encoding="utf-8"?>
<!-- Generator: Adobe Illustrator 24.1.2, SVG Export Plug-In . SVG Version: 6.00 Build 0)  -->
<svg version="1.1" id="Layer_1" xmlns="http://www.w3.org/2000/svg" xmlns:xlink="http://www.w3.org/1999/xlink" x="0px" y="0px"
	 viewBox="0 0 912.2 800" style="enable-background:new 0 0 912.2 800;" xml:space="preserve">
<style type="text/css">
	.st0{fill:#1A171B;}
</style>
<path class="st0" d="M652,35.6c-4.4-13.3-14-24.4-26.6-30.6c-12.1-6-26.5-7.5-50.4,0.5L303.7,95.9c-23.9,8-34.6,17.8-40.7,29.9
	c-13.1,26.1-2.5,57.9,23.7,71c12.1,6.1,26.5,7.5,50.5-0.5L608.4,106c23.9-8,34.6-17.8,40.7-29.9C655.4,63.5,656.5,49,652,35.6z"/>
<path class="st0" d="M652,203.1c-4.4-13.3-14-24.3-26.5-30.6c-12.1-6.1-26.5-7.5-50.5,0.5l-271.3,90.4c-23.9,8-34.6,17.8-40.7,29.9
	c-13,26.1-2.4,57.9,23.7,71c12.1,6,26.5,7.5,50.5-0.5l271.2-90.4c23.9-8,34.6-17.8,40.7-29.9C655.4,230.9,656.4,216.4,652,203.1z"/>
<path class="st0" d="M652,370.5c-4.4-13.3-14-24.4-26.5-30.6c-12.1-6.1-26.5-7.5-50.5,0.5l-271.3,90.4c-23.9,8-34.6,17.8-40.7,29.9
	c-13.1,26.1-2.5,57.9,23.7,71c12.1,6.1,26.5,7.5,50.5-0.5l271.2-90.4c23.9-8,34.6-17.8,40.7-29.9C655.4,398.4,656.4,383.8,652,370.5
	z"/>
<polygon class="st0" points="0,666.7 99.4,666.7 99.4,693.8 35.1,693.8 35.1,717.3 96.8,717.3 96.8,745.3 35.1,745.3 35.1,769.5 
	100.5,769.5 100.5,796.8 0,796.8 "/>
<polygon class="st0" points="253.9,666.7 289.3,666.7 289.3,796.8 253.9,796.8 "/>
<path class="st0" d="M418.3,670.9l-2.4,27.8c-28.6-16.5-72.4-11.3-73.1,32.1s45.1,49.7,74.2,35l1.8,28.4
	c-51.4,16-112.8-0.3-112.5-63.4C306.6,669.1,368.5,652,418.3,670.9L418.3,670.9z"/>
<path class="st0" d="M522.5,668.9l-2.4,27.1c-17.8-9.8-51.7-10.1-51.7,5.3c0,22.8,60.3,6.4,60.3,55.2c0,48.1-57.4,48.6-94.7,37.5
	l2.6-28.7c23.3,10.9,56.4,13.3,56.4-5.6c0-20.7-60.6-9-60.6-55.5C432.5,666.1,479.7,655.9,522.5,668.9L522.5,668.9z"/>
<path class="st0" d="M629.2,668.9l-2.3,27.1c-17.8-9.8-51.7-10.1-51.7,5.3c0,22.8,60.3,6.4,60.3,55.2c0,48.1-57.5,48.6-94.7,37.5
	l2.7-28.7c23.3,10.9,56.4,13.3,56.4-5.6c0-20.7-60.6-9-60.6-55.5C539.2,666.1,586.4,655.9,629.2,668.9L629.2,668.9z"/>
<polygon class="st0" points="792,666.7 836.9,666.7 879.6,750.7 879.6,666.7 912.2,666.7 912.2,796.8 869.9,796.8 824.8,711.3 
	824.8,796.8 792,796.8 "/>
<path class="st0" d="M710.5,663.6c36.8,0,64.8,21.5,64.8,68.5c0,44.8-28.2,67.9-64.8,67.9S646,777.5,646,732.1
	C645.9,685.1,673.8,663.6,710.5,663.6z M682.1,732.1c0,19.8,8.5,42.3,28.3,42.2s28.2-22.4,28.3-42.2c0.2-17.9-8.5-42.2-28.3-42.2
	S682.1,712.3,682.1,732.1z"/>
<path class="st0" d="M158.9,721.6h19.4c8.7,0.1,16.6-5.1,16.5-14.7c-0.1-8.5-7-14.5-16-14.4h-19.9V721.6L158.9,721.6z M125.1,666.7
	h63.7c17.3,0,41.4,7.6,41.4,34.6c0,17.3-7.9,27-22.8,31.5c0.7-0.1,8.5,3.3,11.7,13.1c0.1,0.3,18.2,50.8,18.4,50.9h-37.6l-13.4-39.1
	c-2.1-6-6.5-10-12.9-10c-5.5,0-14.2-0.4-14.2,0v49.1h-34.6V666.7H125.1z"/>
</svg>
