<?xml version="1.0" encoding="utf-8"?>
<!-- Generator: Adobe Illustrator 24.1.2, SVG Export Plug-In . SVG Version: 6.00 Build 0)  -->
<svg version="1.1" id="Lager_1" xmlns="http://www.w3.org/2000/svg" xmlns:xlink="http://www.w3.org/1999/xlink" x="0px" y="0px"
	 viewBox="0 0 750.1 176.4" style="enable-background:new 0 0 750.1 176.4;" xml:space="preserve">
<style type="text/css">
	.st0{fill:#03A5E4;}
</style>
<path class="st0" d="M53.8,117.6c11.4-5.6,22.4-11.2,33.5-16.4c6.4-2.9,5.8-6,2.4-11.1c-5.5-8.2-11.1-10-20.2-4.9
	c-9.4,5.3-19.7,8.9-30.1,13.5L24.5,79.1l37.9-16.2C60,51.6,52.6,47.3,43.8,50.7c-10.4,4.1-20.7,8.2-31.5,12.5L0,46.5L130.5,0
	l13.8,11.2l-26.9,11.3c4.5,11,10.9,13.9,20.1,10c6.9-2.9,13.8-5.8,21.1-8.9L175,38.1c-8.9,5.1-18.9,7.2-27,13
	c5.1,12,12.6,15,23.3,10c6.2-2.9,12.4-5.8,18.5-8.7c0.5-0.1,0.9-0.3,1.4-0.3l9.6,8.2l9.8,8.3l-52.4,27.8
	c-9.5-10-19.3-20.4-29.3-30.6s-20.2-20.3-30.3-30.5c-5.4-5.4-16.4-2.8-19.8,6l61.7,64.5l-68.1,36.6L53.8,117.6z"/>
<path class="st0" d="M494,94.5h18.2l0.6,6.6c7.6-6.9,16.5-8.2,25.9-8.4c10-0.2,17.8,3.8,23.6,11.6c8.5,11.3,6.6,31-3.7,41.4
	c-9.9,10-31.6,10.2-45.4,0.1v30.5h-19c-0.1-0.8-0.2-1.7-0.3-2.5C494,147.6,494,121.3,494,94.5z M546.5,123.3
	c-0.1-12.3-5.8-18.6-16.6-18.5c-9.8,0.1-16.3,7.6-16.2,18.8c0.1,11.4,6.9,18.3,17.9,18.2C541.1,141.7,546.6,134.8,546.5,123.3
	L546.5,123.3z"/>
<path class="st0" d="M298.1,139.7v12.2h-59.5V73.7h58.9v11.6h-38.4v19.9h34.7v12.2h-34.7v22.3H298.1z"/>
<path class="st0" d="M670.2,152h-16.5l-0.7-7.3c-11.9,10.4-24.8,11-38.4,5.4c-6.5-2.7-10.6-7.3-10.6-14.8c0-7.8,4.3-12.5,10.9-15.1
	c11.9-4.7,24.3-4.8,37.2-3.9c0.1-6.4-2.7-10.1-8.4-11.4c-10.9-2.4-21,1.4-31.2,5.1V96.3c14.7-3.7,29.5-5.8,44.3-1.3
	c9.2,2.8,13.3,10,13.4,19.5C670.2,126.8,670.2,139.1,670.2,152z M652.3,125.9c-8.7,0.8-17.1-2.1-25,2c-5.8,3-6.7,9.8-1.5,12.7
	c6,3.3,12.3,1.9,18.1-0.9C649.2,137.1,652.2,132.7,652.3,125.9z"/>
<path class="st0" d="M700.6,152h-19V94.6h18.4l0.5,7c9.5-9.7,21.1-9.8,32.7-8.2c9.5,1.4,15.9,7.8,16.5,17.5
	c0.8,13.5,0.2,27.2,0.2,41h-19.6c0-10.6,0.1-21,0-31.4c-0.1-7-0.2-14.2-9.6-15.4c-9.6-1.2-16.5,3.2-18.7,12.5
	C699.4,128.7,701.7,140.1,700.6,152z"/>
<path class="st0" d="M486.4,128.1h-51.1c1.9,15,18.4,18.2,45.3,8.9v12.1c-16.5,5.3-33.1,7.1-49.5-0.8c-11.4-5.5-16.3-15.1-14.9-27.9
	c1.1-12.7,10.2-23.3,22.6-26.4c9.6-2.5,19.7-2.1,29.1,1.2C481.5,100,488.6,112.5,486.4,128.1z M436.1,116.9h31
	c-0.4-7.7-6.9-13.7-14.6-13.5C443.1,103.3,436.9,108.3,436.1,116.9z"/>
<path class="st0" d="M410.8,105.9h-17.4c0,9-0.1,17.7,0,26.3c0.1,7.7,4.2,10.8,11.7,9.5c1.8-0.3,3.6-0.4,5.9-0.7l1,11.5
	c-5.2,0.3-10,1.1-14.7,0.8c-18.1-0.8-23.1-6.3-23.1-24.4c0-7.5,0-14.9,0-23h-12.3V94.6h12.3V82.5l19.2-4.5v16.2h17.4L410.8,105.9z"
	/>
<path class="st0" d="M306,105.9V94.4H321v-12l19.2-4.7v16.6h14.6v11.4h-14.4c0,10.1-0.3,19.5,0.1,29c0.3,6.6,5.5,7,10.7,6.8l6.7-0.3
	v11c-8.5,1.2-17.1,2.1-25.6-0.4c-7.2-2.2-10.9-7.7-11.2-14.9c-0.4-10.1-0.1-20.2-0.1-30.8L306,105.9z"/>
<path class="st0" d="M594.9,152h-18.5V68.1h18.5V152z"/>
</svg>
