<?xml version="1.0" encoding="utf-8"?>
<!-- Generator: Adobe Illustrator 24.1.2, SVG Export Plug-In . SVG Version: 6.00 Build 0)  -->
<svg version="1.1" id="BermanskŠp" xmlns="http://www.w3.org/2000/svg" xmlns:xlink="http://www.w3.org/1999/xlink" x="0px"
	 y="0px" viewBox="0 0 139 93.5" style="enable-background:new 0 0 139 93.5;" xml:space="preserve">
<style type="text/css">
	.st0{fill-rule:evenodd;clip-rule:evenodd;fill:#0072BC;}
	.st1{fill-rule:evenodd;clip-rule:evenodd;fill:#FFE01B;stroke:#000000;stroke-width:0.1577;stroke-miterlimit:3.8637;}
	.st2{fill-rule:evenodd;clip-rule:evenodd;fill:none;stroke:#000000;stroke-width:0.1577;stroke-miterlimit:3.8637;}
	.st3{fill-rule:evenodd;clip-rule:evenodd;fill:none;stroke:#000000;stroke-width:0.1415;stroke-miterlimit:3.8637;}
	.st4{fill-rule:evenodd;clip-rule:evenodd;fill:#0072BC;stroke:#000000;stroke-width:0.1578;stroke-miterlimit:3.8637;}
	.st5{fill-rule:evenodd;clip-rule:evenodd;fill:#E03A3E;stroke:#000000;stroke-width:0.1577;stroke-miterlimit:3.8637;}
	.st6{fill:#0072BC;stroke:#000000;stroke-width:0.1577;stroke-miterlimit:3.8637;}
	.st7{fill:#FFFFFF;stroke:#000000;stroke-width:0.1577;stroke-miterlimit:3.8637;}
	.st8{fill-rule:evenodd;clip-rule:evenodd;fill:#FFFFFF;stroke:#000000;stroke-width:0.1577;stroke-miterlimit:3.8637;}
	.st9{fill:#FFE01B;}
	.st10{fill:#0072BC;}
	.st11{fill-rule:evenodd;clip-rule:evenodd;fill:#FFE01B;}
</style>
<polygon class="st0" points="49.3,64.1 59.4,64.1 59.4,50.1 71.2,50.1 71.2,42.7 59.4,42.7 59.4,36 74.5,36 74.5,28.6 49.3,28.6 "/>
<path class="st0" d="M93.4,35.1c3.9,0,6.2,2.3,6.2,11.4c0,9.5-2.8,11.4-6.2,11.4c-3.5,0-6.2-1.8-6.2-11.4
	C87.2,37.9,89.4,35.1,93.4,35.1z M110.4,46.5c0-11.3-6.4-18.4-17-18.4c-10.6,0-17,7.1-17,18.4c0,11.3,6.4,18.4,17,18.4
	C104,64.9,110.4,57.8,110.4,46.5z"/>
<rect x="115.8" y="28.7" class="st0" width="10.1" height="35.5"/>
<polygon class="st1" points="26.6,83.3 24.6,83.3 23.9,70.9 23.9,10.7 26.6,6.9 29.3,10.7 29.3,70.9 28.6,83.3 "/>
<polygon class="st1" points="24.6,83.3 24.1,84.3 24.7,87.1 28.6,87.1 29.2,84.3 28.6,83.3 "/>
<polygon class="st1" points="23.9,67.3 15,66.2 15,69.4 23.9,70.9 29.2,70.9 38.2,69.4 38.2,66.2 29.2,67.3 "/>
<line class="st2" x1="24" y1="72.2" x2="26.2" y2="70.9"/>
<line class="st2" x1="24.1" y1="74.7" x2="29.2" y2="71.7"/>
<line class="st2" x1="24.2" y1="77.1" x2="29.1" y2="74.3"/>
<line class="st2" x1="24.4" y1="79.6" x2="28.9" y2="76.9"/>
<line class="st2" x1="24.5" y1="82" x2="28.8" y2="79.6"/>
<line class="st2" x1="26.6" y1="83.3" x2="28.7" y2="82.1"/>
<line class="st3" x1="26.6" y1="64.8" x2="26.6" y2="6.9"/>
<polyline class="st2" points="23.9,67.3 26.6,64.8 29.3,67.3 "/>
<line class="st2" x1="23.9" y1="67.3" x2="23.9" y2="70.9"/>
<line class="st2" x1="29.2" y1="67.3" x2="29.3" y2="70.9"/>
<path class="st4" d="M26.6,64.1c-0.3-0.8-2.5-0.9-5.7-1.4C16.8,62,14,61.2,14,57.3l0-22.4h25.3v22.4c0,3.9-2.8,4.7-6.9,5.4
	C29.2,63.3,26.9,63.4,26.6,64.1z"/>
<g>
	<path class="st5" d="M14,27.8c0,0,0.9-1.1,1.5-2.5c0.5-1.1,4.8-3.5,11-3.5c6.2,0,10.5,2.6,11.1,3.5c0.8,1.4,0.4,1.2,1.2,2.5
		l0.3,1.4l-0.9,1.3c0,0-23,0-23,0c0.1,0-1.2-0.7-1.2-0.7L14,27.8z"/>
	<path class="st6" d="M24.9,16.6c0-0.9,0.8-1.7,1.7-1.7c0.9,0,1.7,0.8,1.7,1.7c0,0.9-0.8,1.7-1.7,1.7C25.7,18.3,24.9,17.5,24.9,16.6
		z"/>
	<path class="st6" d="M26.6,16.6"/>
	<path class="st1" d="M26.3,14.9v-0.9c0,0-0.4,0-0.5,0c-0.1,0-0.2,0.1-0.2,0.1l0-0.9c0,0,0.1,0.1,0.2,0.1c0.1,0,0.5,0,0.5,0
		s0-0.4,0-0.5c0-0.1-0.1-0.2-0.1-0.2h0.9c0,0-0.1,0.1-0.1,0.2c0,0.1,0,0.5,0,0.5s0.4,0,0.5,0c0.1,0,0.2-0.1,0.2-0.1l0,0.9
		c0,0-0.1-0.1-0.2-0.1c-0.1,0-0.5,0-0.5,0l0,0.9c0,0-0.2,0-0.3,0C26.5,14.9,26.3,14.9,26.3,14.9z"/>
	<path class="st1" d="M26.6,14.8c0.1,0,0.3,0,0.3,0v1.4h1.3c0,0,0,0.2,0,0.3c0,0.2-0.1,0.3-0.1,0.3c0,0-1.6,0-1.6,0s-1.7,0-1.7,0
		c0,0,0-0.1,0-0.3c0-0.2,0-0.3,0-0.3h1.3v-1.4C26.3,14.9,26.5,14.8,26.6,14.8z"/>
	<path class="st1" d="M14.6,27.1c1.1-3.2,3.6-5.9,6.7-7.3l0.4,0.2c-3.2,1.4-5.7,4-6.8,7.2L14.6,27.1z"/>
	<path class="st1" d="M26.6,18.7c-2.7,0-4.9,2.4-4.9,5.4c0,0.4,0,0.8-0.1,1.1L21,25.7l0.2,0.3l0.9-0.7c0-0.3,0-0.7,0-1.2
		c0-2.8,2-5.1,4.5-5.1L26.6,18.7z"/>
	<path class="st1" d="M26.6,18.7c-2.7,0-4.9,2.4-4.9,5.4c0,0.4,0,0.8-0.1,1.1l-1.8,1.4l-1.2-1.2C18.8,21.6,22.3,18.7,26.6,18.7z"/>
	<polygon class="st1" points="26.6,27 24.9,25.7 24.9,25.3 26.6,26.6 	"/>
	<path class="st1" d="M38.7,27.1c-1.1-3.2-3.6-5.9-6.7-7.3L31.5,20c3.2,1.4,5.7,4,6.8,7.2L38.7,27.1z"/>
	<path class="st1" d="M26.6,18.7c2.7,0,4.9,2.4,4.9,5.4c0,0.4,0,0.8,0.1,1.1l0.6,0.5L32.1,26l-0.9-0.7c0-0.3,0-0.7,0-1.2
		c0-2.8-2-5.1-4.5-5.1L26.6,18.7z"/>
	<path class="st1" d="M26.6,18.7c2.7,0,4.9,2.4,4.9,5.4c0,0.4,0,0.8,0.1,1.1l1.8,1.4l1.2-1.2C34.4,21.6,30.9,18.7,26.6,18.7z"/>
	<polygon class="st1" points="26.6,27 28.3,25.7 28.3,25.3 26.6,26.6 	"/>
	<polygon class="st1" points="26.6,18 25.7,18 24.9,25.3 26.6,26.6 28.3,25.3 27.5,18 	"/>
	<path class="st1" d="M38.4,30.9c0.2,0,0.4,0.2,0.4,0.4c0,0.2-0.2,0.4-0.4,0.4c-0.2,0-23.6,0-23.6,0c-0.2,0-0.4-0.2-0.4-0.4
		c0-0.2,0.2-0.4,0.4-0.4C15,30.9,38.4,30.9,38.4,30.9z"/>
	<rect x="14.8" y="31.7" class="st1" width="23.5" height="2.3"/>
	<polygon class="st1" points="26.6,31.7 28.6,32.8 26.6,33.9 24.7,32.8 	"/>
	<polygon class="st5" points="27.8,32.8 26.6,32.1 25.3,32.8 26.6,33.5 	"/>
	<polygon class="st1" points="14.9,31.7 16.8,32.8 14.9,33.9 14,32.8 	"/>
	<polygon class="st5" points="16.2,32.8 14.6,32 14,32.8 14.7,33.6 	"/>
	<polygon class="st1" points="38.3,31.7 36.4,32.8 38.3,33.9 39.2,32.8 	"/>
	<polygon class="st5" points="37.1,32.8 38.6,32.1 39.2,32.8 38.6,33.6 	"/>
	<path class="st1" d="M31.2,33.7c-0.5,0-0.8-0.4-0.8-0.8c0-0.5,0.4-0.8,0.8-0.8h2.5c0.5,0,0.8,0.4,0.8,0.8c0,0.5-0.4,0.8-0.8,0.8
		C33.3,33.7,31.7,33.7,31.2,33.7z"/>
	<path class="st7" d="M35.1,32.3c0-0.2,0.2-0.4,0.4-0.4c0.2,0,0.4,0.2,0.4,0.4c0,0.2-0.2,0.4-0.4,0.4C35.2,32.7,35.1,32.5,35.1,32.3
		z"/>
	<path class="st7" d="M35.5,32.3"/>
	<path class="st7" d="M35.1,33.4c0-0.2,0.2-0.4,0.4-0.4c0.2,0,0.4,0.2,0.4,0.4c0,0.2-0.2,0.4-0.4,0.4C35.2,33.8,35.1,33.6,35.1,33.4
		z"/>
	<path class="st7" d="M35.5,33.4"/>
	<path class="st7" d="M29,32.3c0-0.2,0.2-0.4,0.4-0.4c0.2,0,0.4,0.2,0.4,0.4c0,0.2-0.2,0.4-0.4,0.4C29.2,32.7,29,32.5,29,32.3z"/>
	<path class="st7" d="M29.4,32.3"/>
	<path class="st7" d="M29,33.4c0-0.2,0.2-0.4,0.4-0.4c0.2,0,0.4,0.2,0.4,0.4c0,0.2-0.2,0.4-0.4,0.4C29.2,33.8,29,33.6,29,33.4z"/>
	<path class="st7" d="M29.5,33.4"/>
	<path class="st1" d="M22,33.7c0.5,0,0.8-0.4,0.8-0.8c0-0.5-0.4-0.8-0.8-0.8h-2.5c-0.5,0-0.8,0.4-0.8,0.8c0,0.5,0.4,0.8,0.8,0.8
		C20,33.7,21.5,33.7,22,33.7z"/>
	<path class="st7" d="M17.3,32.3c0-0.2,0.2-0.4,0.4-0.4c0.2,0,0.4,0.2,0.4,0.4c0,0.2-0.2,0.4-0.4,0.4C17.5,32.7,17.3,32.5,17.3,32.3
		z"/>
	<path class="st7" d="M17.7,32.3"/>
	<path class="st7" d="M17.3,33.4c0-0.2,0.2-0.4,0.4-0.4c0.2,0,0.4,0.2,0.4,0.4c0,0.2-0.2,0.4-0.4,0.4C17.5,33.8,17.3,33.6,17.3,33.4
		z"/>
	<path class="st7" d="M17.7,33.4"/>
	<path class="st7" d="M23.4,32.3c0-0.2,0.2-0.4,0.4-0.4c0.2,0,0.4,0.2,0.4,0.4c0,0.2-0.2,0.4-0.4,0.4C23.5,32.7,23.4,32.5,23.4,32.3
		z"/>
	<path class="st7" d="M23.8,32.3"/>
	<path class="st7" d="M23.4,33.4c0-0.2,0.2-0.4,0.4-0.4c0.2,0,0.4,0.2,0.4,0.4c0,0.2-0.2,0.4-0.4,0.4C23.5,33.8,23.4,33.6,23.4,33.4
		z"/>
	<path class="st7" d="M23.8,33.4"/>
	<path class="st8" d="M32.7,19.3c0-0.3-0.3-0.6-0.6-0.6c-0.3,0-0.6,0.3-0.6,0.6c0,0.3,0.3,0.6,0.6,0.6
		C32.5,19.9,32.7,19.6,32.7,19.3z"/>
	<path class="st8" d="M20.5,19.3c0-0.3,0.3-0.6,0.6-0.6c0.3,0,0.6,0.3,0.6,0.6c0,0.3-0.3,0.6-0.6,0.6C20.8,19.9,20.5,19.6,20.5,19.3
		z"/>
	<path class="st8" d="M26.1,18c0-0.3,0.2-0.5,0.5-0.5c0.3,0,0.5,0.2,0.5,0.5c0,0.3-0.2,0.5-0.5,0.5C26.3,18.5,26.1,18.3,26.1,18z"/>
	<path class="st8" d="M27.3,19.1c0,0.4-0.3,0.7-0.7,0.7c-0.4,0-0.7-0.3-0.7-0.7c0-0.4,0.3-0.7,0.7-0.7C27,18.4,27.3,18.7,27.3,19.1z
		"/>
	<path class="st8" d="M27.4,20.5c0,0.4-0.4,0.8-0.8,0.8c-0.4,0-0.8-0.4-0.8-0.8c0-0.4,0.4-0.8,0.8-0.8
		C27.1,19.7,27.4,20.1,27.4,20.5z"/>
	<path class="st8" d="M27.5,22.2c0,0.5-0.4,0.9-0.9,0.9c-0.5,0-0.9-0.4-0.9-0.9c0-0.5,0.4-0.9,0.9-0.9
		C27.1,21.3,27.5,21.7,27.5,22.2z"/>
	<path class="st8" d="M25.5,24.1c0-0.6,0.5-1.1,1.1-1.1c0.6,0,1.1,0.5,1.1,1.1c0,0.6-0.5,1.1-1.1,1.1C26,25.2,25.5,24.7,25.5,24.1z"
		/>
	<path class="st8" d="M19.2,24.1c0-0.6,0.5-1.1,1.1-1.1c0.6,0,1.1,0.5,1.1,1.1c0,0.6-0.5,1.1-1.1,1.1C19.6,25.1,19.2,24.7,19.2,24.1
		z"/>
	<path class="st8" d="M20.6,23c-0.5,0-1-0.4-1-1c0-0.5,0.4-1,1-1c0.5,0,1,0.4,1,1C21.6,22.6,21.2,23,20.6,23z"/>
	<path class="st8" d="M21.5,21.3c-0.5,0-0.8-0.4-0.8-0.9c0-0.5,0.4-0.9,0.8-0.9c0.5,0,0.9,0.4,0.9,0.9C22.4,20.9,22,21.3,21.5,21.3z
		"/>
	<path class="st8" d="M22.6,20c-0.4,0-0.7-0.3-0.7-0.7s0.3-0.7,0.7-0.7c0.4,0,0.7,0.3,0.7,0.7S23,20,22.6,20z"/>
	<path class="st8" d="M23.7,19.1c-0.4,0-0.6-0.3-0.6-0.6c0-0.4,0.3-0.6,0.6-0.6c0.4,0,0.6,0.3,0.6,0.6
		C24.4,18.9,24.1,19.1,23.7,19.1z"/>
	<path class="st8" d="M24.3,18.1c0-0.3,0.2-0.5,0.5-0.5c0.3,0,0.5,0.2,0.5,0.5c0,0.3-0.2,0.5-0.5,0.5C24.6,18.7,24.3,18.4,24.3,18.1
		z"/>
	<path class="st8" d="M19.9,19.1c0.4,0,0.7,0.3,0.7,0.7c0,0.4-0.3,0.7-0.7,0.7c-0.4,0-0.7-0.3-0.7-0.7
		C19.2,19.4,19.5,19.1,19.9,19.1z"/>
	<path class="st8" d="M18.6,19.7c0.4,0,0.8,0.4,0.8,0.8c0,0.4-0.3,0.8-0.8,0.8c-0.4,0-0.8-0.3-0.8-0.8
		C17.9,20.1,18.2,19.7,18.6,19.7z"/>
	<path class="st8" d="M17.3,20.6c0.5,0,0.9,0.4,0.9,0.9s-0.4,0.9-0.9,0.9c-0.5,0-0.9-0.4-0.9-0.9S16.8,20.6,17.3,20.6z"/>
	<path class="st8" d="M16,21.7c0.5,0,1,0.4,1,1c0,0.5-0.4,1-1,1c-0.5,0-1-0.4-1-1C15,22.2,15.4,21.7,16,21.7z"/>
	<path class="st8" d="M13.6,24.3c0-0.6,0.5-1.1,1.1-1.1c0.6,0,1.1,0.5,1.1,1.1c0,0.6-0.5,1.1-1.1,1.1C14.1,25.4,13.6,24.9,13.6,24.3
		z"/>
	<path class="st8" d="M34,24.1c0-0.6-0.5-1.1-1.1-1.1c-0.6,0-1.1,0.5-1.1,1.1c0,0.6,0.5,1.1,1.1,1.1C33.6,25.1,34,24.7,34,24.1z"/>
	<path class="st8" d="M32.6,23c0.5,0,1-0.4,1-1c0-0.5-0.4-1-1-1c-0.5,0-1,0.4-1,1C31.6,22.6,32.1,23,32.6,23z"/>
	<path class="st8" d="M31.7,21.3c0.5,0,0.9-0.4,0.9-0.9c0-0.5-0.4-0.9-0.9-0.9c-0.5,0-0.9,0.4-0.9,0.9
		C30.9,20.9,31.2,21.3,31.7,21.3z"/>
	<path class="st8" d="M30.6,20c0.4,0,0.7-0.3,0.7-0.7s-0.3-0.7-0.7-0.7c-0.4,0-0.7,0.3-0.7,0.7S30.2,20,30.6,20z"/>
	<path class="st8" d="M29.5,19.1c0.4,0,0.6-0.3,0.6-0.6c0-0.4-0.3-0.6-0.6-0.6c-0.4,0-0.6,0.3-0.6,0.6
		C28.8,18.9,29.1,19.1,29.5,19.1z"/>
	<path class="st8" d="M28.9,18.1c0-0.3-0.2-0.5-0.5-0.5c-0.3,0-0.5,0.2-0.5,0.5c0,0.3,0.2,0.5,0.5,0.5
		C28.6,18.7,28.9,18.4,28.9,18.1z"/>
	<path class="st8" d="M33.3,19.1c-0.4,0-0.7,0.3-0.7,0.7c0,0.4,0.3,0.7,0.7,0.7c0.4,0,0.7-0.3,0.7-0.7C34,19.4,33.7,19.1,33.3,19.1z
		"/>
	<path class="st8" d="M34.6,19.7c-0.4,0-0.8,0.4-0.8,0.8c0,0.4,0.4,0.8,0.8,0.8c0.4,0,0.8-0.3,0.8-0.8C35.4,20.1,35,19.7,34.6,19.7z
		"/>
	<path class="st8" d="M35.9,20.6c-0.5,0-0.9,0.4-0.9,0.9s0.4,0.9,0.9,0.9c0.5,0,0.9-0.4,0.9-0.9S36.4,20.6,35.9,20.6z"/>
	<path class="st8" d="M37.3,21.7c-0.5,0-1,0.4-1,1c0,0.5,0.4,1,1,1c0.5,0,1-0.4,1-1C38.2,22.2,37.8,21.7,37.3,21.7z"/>
	<path class="st8" d="M39.6,24.3c0-0.6-0.5-1.1-1.1-1.1c-0.6,0-1.1,0.5-1.1,1.1c0,0.6,0.5,1.1,1.1,1.1
		C39.1,25.4,39.6,24.9,39.6,24.3z"/>
	<path class="st6" d="M31.3,32.3h2.3c0.3,0,0.5,0.2,0.5,0.5v0c0,0.3-0.2,0.5-0.5,0.5h-2.3c-0.3,0-0.5-0.2-0.5-0.5v0
		C30.8,32.5,31,32.3,31.3,32.3L31.3,32.3z"/>
	<path class="st6" d="M32.5,32.8"/>
	<path class="st6" d="M19.6,32.3h2.3c0.3,0,0.5,0.2,0.5,0.5v0c0,0.3-0.2,0.5-0.5,0.5h-2.3c-0.3,0-0.5-0.2-0.5-0.5v0
		C19.1,32.5,19.3,32.3,19.6,32.3L19.6,32.3z"/>
	<path class="st6" d="M20.8,32.8"/>
	<path class="st1" d="M38.6,34c0.2,0,0.4,0.2,0.4,0.4c0,0.2-0.2,0.4-0.4,0.4c-0.2,0-24,0-24,0c-0.2,0-0.4-0.2-0.4-0.4
		c0-0.2,0.2-0.4,0.4-0.4C14.8,34,38.6,34,38.6,34z"/>
	<circle class="st7" cx="13.5" cy="27.7" r="0.6"/>
	<path class="st7" d="M13.5,27.7"/>
	<path class="st7" d="M39.3,27.7c0-0.3,0.3-0.6,0.6-0.6c0.3,0,0.6,0.3,0.6,0.6c0,0.3-0.3,0.6-0.6,0.6C39.5,28.3,39.3,28,39.3,27.7z"
		/>
	<path class="st7" d="M39.9,27.7"/>
	<path class="st1" d="M14.9,30.9c-0.4-0.1-0.7-0.7-0.7-0.7c-0.3-0.6-0.4-1.5-0.7-2.4c-0.4-1.1-0.5-2-1-2.8c0.5,0,1,0.4,1.3,0.9
		c0-0.2,0-0.6,0-0.9c0.5,0.2,0.6,0.6,0.7,1c0.1,0.3,0.1,0.6,0.1,0.8c0.2-0.2,0.4-0.2,0.5-0.3c0.3-0.1,0.7-0.1,1,0
		c0.3,0.1,0.4,0.3,0.4,0.3c0.1,0-0.3,0.3-0.3,0.3s0.5,0,0.5,0.5c0,0.5-0.5,0.5-0.5,0.5s0.3,0.3,0.3,0.3c0,0-0.1,0.2-0.4,0.3
		c-0.4,0.1-1,0.1-1.5-0.5c-0.1,0.3-0.1,0.5-0.1,0.7c0,0.3,0.4,0.8,1.2,0.9c0.6,0,1.2-0.4,1.4-0.9c0.2,0.5,0.7,0.9,1.4,0.9
		c0.8,0,1.2-0.5,1.2-0.9c0-0.2,0-0.4-0.1-0.7c-0.5,0.6-1.1,0.6-1.5,0.5c-0.3-0.1-0.4-0.3-0.4-0.3c-0.1,0,0.3-0.3,0.3-0.3
		s-0.5,0-0.5-0.5c0-0.5,0.5-0.5,0.5-0.5s-0.3-0.3-0.3-0.3c0,0,0.1-0.2,0.4-0.3c0.3-0.1,0.7-0.2,1,0c-0.2-0.2,0-0.6,0.1-0.9
		c0.1-0.3,0.3-0.4,0.3-0.4c0-0.1,0.3,0.3,0.3,0.3s0-0.5,0.5-0.5c0.5,0,0.5,0.5,0.5,0.5s0.3-0.3,0.3-0.3c0,0,0.2,0.1,0.3,0.4
		c0.1,0.3,0.2,0.7,0,0.9c0.2-0.2,0.7-0.1,1,0c0.3,0.1,0.4,0.3,0.4,0.3c0.1,0-0.3,0.3-0.3,0.3s0.5,0,0.5,0.5c0,0.5-0.5,0.5-0.5,0.5
		s0.3,0.3,0.3,0.3c0,0-0.1,0.2-0.4,0.3c-0.4,0.1-1,0.1-1.5-0.5c-0.1,0.3-0.1,0.5-0.1,0.7c0,0.3,0.4,0.8,1.2,0.9
		c0.6,0,1.2-0.4,1.4-0.9c0.2,0.5,0.8,0.9,1.4,0.9c0.8,0,1.2-0.5,1.2-0.9c0-0.2,0-0.4-0.1-0.7c-0.6,0.6-1.1,0.6-1.5,0.5
		c-0.3-0.1-0.4-0.3-0.4-0.3c-0.1,0,0.3-0.3,0.3-0.3s-0.5,0-0.5-0.5c0-0.5,0.5-0.5,0.5-0.5S24,26.9,24,26.9c0,0,0.1-0.2,0.4-0.3
		c0.3-0.1,0.7-0.2,1,0c-0.2-0.2-0.1-0.6,0-0.9c0.1-0.3,0.3-0.4,0.3-0.4c0-0.1,0.3,0.3,0.3,0.3s0-0.5,0.5-0.5c0.5,0,0.5,0.5,0.5,0.5
		s0.3-0.3,0.3-0.3c0,0,0.2,0.1,0.3,0.4c0.1,0.3,0.2,0.7,0.1,0.9c0.2-0.2,0.7-0.1,1,0c0.3,0.1,0.4,0.3,0.4,0.3c0.1,0-0.3,0.3-0.3,0.3
		s0.5,0,0.5,0.5c0,0.5-0.5,0.5-0.5,0.5s0.3,0.3,0.3,0.3c0,0-0.1,0.2-0.4,0.3c-0.4,0.1-1,0.1-1.5-0.5c-0.1,0.3-0.1,0.5-0.1,0.7
		c0,0.3,0.4,0.8,1.2,0.9c0.6,0,1.2-0.4,1.4-0.9c0.2,0.5,0.8,0.9,1.4,0.9c0.8,0,1.2-0.5,1.2-0.9c0-0.2,0-0.4-0.1-0.7
		c-0.5,0.6-1.1,0.6-1.5,0.5c-0.3-0.1-0.4-0.3-0.4-0.3c-0.1,0,0.3-0.3,0.3-0.3s-0.5,0-0.5-0.5c0-0.5,0.5-0.5,0.5-0.5
		s-0.3-0.3-0.3-0.3c0,0,0.1-0.2,0.4-0.3c0.3-0.1,0.7-0.2,1,0c-0.2-0.2,0-0.6,0.1-0.9c0.1-0.3,0.3-0.4,0.3-0.4c0-0.1,0.3,0.3,0.3,0.3
		s0-0.5,0.5-0.5c0.5,0,0.5,0.5,0.5,0.5s0.3-0.3,0.3-0.3c0,0,0.2,0.1,0.3,0.4c0.1,0.3,0.2,0.7,0,0.9c0.2-0.2,0.7-0.1,1,0
		c0.3,0.1,0.4,0.3,0.4,0.3c0.1,0-0.3,0.3-0.3,0.3s0.5,0,0.5,0.5c0,0.5-0.5,0.5-0.5,0.5s0.3,0.3,0.3,0.3c0,0-0.1,0.2-0.4,0.3
		c-0.4,0.1-1,0.1-1.5-0.5c-0.1,0.3-0.1,0.5-0.1,0.7c0,0.3,0.4,0.8,1.2,0.9c0.6,0,1.2-0.4,1.4-0.9c0.2,0.5,0.8,0.9,1.4,0.9
		c0.8,0,1.2-0.5,1.3-0.9c0-0.2,0-0.4-0.1-0.7c-0.5,0.6-1.1,0.6-1.5,0.5c-0.3-0.1-0.4-0.3-0.4-0.3c-0.1,0,0.3-0.3,0.3-0.3
		s-0.5,0-0.5-0.5c0-0.5,0.5-0.5,0.5-0.5s-0.3-0.3-0.3-0.3c0,0,0.1-0.2,0.4-0.3c0.3-0.1,0.7-0.1,1,0c0.1,0,0.3,0.1,0.5,0.3
		c0-0.2-0.1-0.5,0-0.8c0.1-0.3,0.2-0.7,0.7-1c0,0.3,0,0.7,0,0.9c0.3-0.5,0.8-0.9,1.3-0.9c-0.6,0.8-0.7,1.7-1,2.8
		c-0.3,0.9-0.3,1.5-0.7,2.4c-0.2,0.4-0.7,0.7-0.7,0.7H14.9z"/>
	<path class="st7" d="M26,27.6c0-0.3,0.3-0.6,0.6-0.6c0.3,0,0.6,0.3,0.6,0.6c0,0.3-0.3,0.6-0.6,0.6C26.3,28.2,26,28,26,27.6z"/>
	<path class="st7" d="M26.6,27.6"/>
	<path class="st2" d="M34.8,27.6c0,0-0.6,0-1.1-0.2"/>
	<path class="st2" d="M34.8,27.6c0,0-0.6,0-1.1,0.2"/>
	<path class="st2" d="M32.9,25.7c0,0,0,0.6-0.2,1.1"/>
	<path class="st2" d="M32.9,25.7c0,0,0,0.6,0.2,1.1"/>
	<path class="st7" d="M32.3,27.6c0-0.3,0.3-0.6,0.6-0.6c0.3,0,0.6,0.3,0.6,0.6c0,0.3-0.3,0.6-0.6,0.6C32.6,28.2,32.3,27.9,32.3,27.6
		z"/>
	<path class="st7" d="M32.9,27.6"/>
	<path class="st2" d="M31,27.6c0,0,0.6,0,1.1,0.2"/>
	<path class="st2" d="M31,27.6c0,0,0.6,0,1.1-0.2"/>
	<path class="st2" d="M22.1,27.6c0,0-0.6,0-1.1-0.2"/>
	<path class="st2" d="M22.1,27.6c0,0-0.6,0-1.1,0.2"/>
	<path class="st2" d="M20.2,25.7c0,0,0,0.6-0.2,1.1"/>
	<path class="st2" d="M20.2,25.7c0,0,0,0.6,0.2,1.1"/>
	<path class="st2" d="M18.3,27.6c0,0,0.6,0,1.1,0.2"/>
	<path class="st2" d="M18.3,27.6c0,0,0.6,0,1.1-0.2"/>
	<path class="st2" d="M24.7,27.6c0,0,0.6,0,1.1-0.2"/>
	<path class="st2" d="M24.7,27.6c0,0,0.6,0,1.1,0.2"/>
	<path class="st2" d="M26.6,25.7c0,0,0,0.6,0.2,1.1"/>
	<path class="st2" d="M26.6,25.7c0,0,0,0.6-0.2,1.1"/>
	<path class="st2" d="M28.5,27.6c0,0-0.6,0-1.1,0.2"/>
	<path class="st2" d="M28.5,27.6c0,0-0.6,0-1.1-0.2"/>
	<path class="st2" d="M37.6,27.6c0,0,1,0,1.5,0.2"/>
	<path class="st2" d="M37.6,27.6c0,0,1,0,1.5-0.1"/>
	<path class="st2" d="M15.6,27.6c0,0-1,0-1.5,0.2"/>
	<path class="st2" d="M15.6,27.6c0,0-1,0-1.5-0.1"/>
	<path class="st7" d="M19.6,27.7c0-0.3,0.3-0.6,0.6-0.6c0.3,0,0.6,0.3,0.6,0.6c0,0.3-0.3,0.6-0.6,0.6C19.9,28.3,19.6,28,19.6,27.7z"
		/>
	<path class="st7" d="M20.2,27.7"/>
</g>
<path class="st9" d="M31.6,49.9c0-0.5,2.1-1.1,2.1-4.1c0-2.7-1.8-4-1.6-5.3c-0.3,0.3-0.4,1.1-0.4,1.4c0,1.8-0.8,2.1-0.6,3.8
	c-0.8-1.6-0.1-2.6-0.1-3.8c-0.1-3.5-2.1-3.1-2.3-4.9c-0.6,0.5-0.6,0.9-0.5,1.4c0.4,2.2-0.8,2.5-0.5,4c-1.5-2,1.3-3.3-1.5-6.8
	c0.8,2.7-5.5,6.2-2.9,10.8c-0.4-0.2-1.3-0.6-2-1.8c-0.7-1.2-0.3-2.1-1.2-3.1c0.1,1.9-0.9,2.8-0.7,5.2c0.2,2.4,2,2.6,2,3.2H31.6z"/>
<path class="st10" d="M25.6,45.3c-1.8,1.6-0.5,4-0.5,4l-0.1,0c-0.2-0.2-1-1-0.8-2.4c0.1-0.7,0.8-1.7,1.1-1.9
	c0.5-0.5,0.9-0.8,1.1-1.4c0.1-0.3,0.1-1,0-1.2c1.8,0.7,2.2,2.1,1.9,2.8c-0.3,0.7-0.4,1.3-0.3,1.7c0.7-0.4,1.1-1.6,1.2-1.8
	c1.7,1.7,0.2,4.2-0.7,4.2c0.6-0.4,1.5-2.4,0.8-3.6c-0.1,0.5-0.6,1.3-1.6,1.7c-0.3-0.8-0.1-1.8,0-2.3c0.2-0.6-0.1-1.5-0.8-1.9
	C27,44,26.4,44.6,25.6,45.3z"/>
<path class="st11" d="M22.3,45c0,0-1-0.7-0.8-3c0.1-0.9,0.5-1.1,0.8-2c0.4-1.1,0.2-2.6,0.2-2.6s1.9,1.3,0.8,3.1
	C21.4,43.2,22.3,45,22.3,45z"/>
<polygon class="st9" points="20.8,51 32.3,51 32,50.3 21.2,50.3 "/>
<path class="st11" d="M21.5,51.4h10c0,0-1.2,0.3-2.1,1.1h-5.6C23.8,52.6,23,51.8,21.5,51.4z"/>
<path class="st11" d="M24.4,53l0.9,8.9c0,0,0,0.7,1.2,0.7h0.1c1.2,0,1.2-0.7,1.2-0.7l1-8.9H24.4z"/>
<path class="st0" d="M27.3,54.4c0-0.4-0.2-0.6-0.6-0.7c0,0-0.1,0-0.1,0c0,0,0,0,0,0c-0.2,0-0.4,0.1-0.6,0.2
	c-0.1,0.1-0.2,0.3-0.2,0.5l0.4,6.6c0,0.2,0.1,0.3,0.4,0.3c0.2,0,0.3,0,0.4-0.1l0-0.1c0,0,0,0,0,0l0,0l0-0.1
	C27,61,27.3,54.4,27.3,54.4z M27,54.4c0,0-0.2,6.1-0.3,6.6c0,0.1-0.1,0.1-0.2,0.1c-0.1,0-0.1-0.1-0.1-0.2c0,0-0.3-6.5-0.3-6.5
	c0-0.3,0.1-0.5,0.5-0.5C26.8,53.9,27.1,54,27,54.4z"/>
</svg>
