<?xml version="1.0" encoding="utf-8"?>
<!-- Generator: Adobe Illustrator 24.1.2, SVG Export Plug-In . SVG Version: 6.00 Build 0)  -->
<svg version="1.1" id="Layer_1" xmlns="http://www.w3.org/2000/svg" xmlns:xlink="http://www.w3.org/1999/xlink" x="0px" y="0px"
	 viewBox="0 0 332.8 342.4" style="enable-background:new 0 0 332.8 342.4;" xml:space="preserve">
<g>
	<g>
		<path d="M183.5,99.3l3.1,2.3l2.4-11.8L178.7,76L183.5,99.3z M152.3,211.4l3.5,9.1l5.3-18l-3.5,1.2L152.3,211.4z M154.5,238.1
			l8.9,29.7l6.8,12.9l-7.9-73.3L154.5,238.1z M192.5,154.7l5-17.1l-7.4-2.9L192.5,154.7z M194.5,160.7l24.4-19.4l-0.6-17.7l5.7-28.9
			l-15.4,26.7l-7.7,6.5l0.4,8.6L194.5,160.7z M229.9,97.5l-4.7,3.2l-0.3,24.6l13.5-23L229.9,97.5z M176.5,81.6L171,137l14.7-1.5
			l3.2-5.8l-1.9-10.8l3.1-3.7l-7.9-5.7L176.5,81.6z M162.3,125.3l4.1-12.6l-3.4-9.4l-14,32.9l9.4,31.2L162.3,125.3z M248.7,161.3
			l-23.5,9.1l-13.9,27.8l8.1-1.4l5.5,3.5l23.3-34.4L248.7,161.3z M173.9,73.5l-13.2-24.7l-1.2,33.3l10,28.6L173.9,73.5z
			 M167.4,141.4l-9,42.4l22.6-40L167.4,141.4z M236.4,213.4v-9.3l-21.2-1.8l-12.9,7.8l29.1,8.7L236.4,213.4z M177.8,185.8l14-18.1
			l-3.5-6.1l0.6-10.9l-3.1-6.1L163.4,180l10.5-0.2L177.8,185.8z M255.4,71.1l0.8-14l-5.6-6.3l-18.1,23.8l6.3,21.6L255.4,71.1z
			 M209.2,193.5l-1.3-3.2l-21.4,3L179,197l-0.8,2.4l-7.2,4.4l30,0.3L209.2,193.5z M185,183.2l-12,8l41-3l-7.3-9.8l-4.4-3l-3.2-8.6
			L185,183.2z M215.8,181.3l3.9-15.3l13.3-9.5l-18.6-2.9l-14.8,9.5l6.1,9.2L215.8,181.3z M177.6,63l2.9-20.5L177.1,0l-15.3,21.3
			l4.2,23.4L177.6,63z M182.7,246.7l-9.7,0.2l4.4,27.2l22.3-12.5l24.4-4.6l-39.3-14.7L182.7,246.7z M206.3,245.2v-6.6l-4.8-8.8
			l-13.4-3.4L166,212.7l3,34.3l11.5-8.8L206.3,245.2z M135.7,227.1v-7.4l-9.3-8.8l-20.7,12.7l-18.1,5.2l32.6,17.8L135.7,227.1z
			 M214,249.9l1.7-5.7l12.7-9l-22.5-3.8L214,249.9z M148.9,241.6l-9.6-14.6L119,258.1l35.5,13.3l-2.6-28L148.9,241.6z M291.2,138.3
			l-16.4,13.1l0.7,16.8l21.6-19l2.3-9.7L291.2,138.3z M251.1,169.3l-15.6,21.3l27.2-8.9l9.5-25.9l-16,15.9L251.1,169.3z
			 M166.7,204.9l4.4,6.1l17.8,4.7l9.1,9.4l32.8,7.7l10-4.1l-46-20L166.7,204.9z M151,236.2l1.5-17.6l-8.3-21.3l-10.3,12.8l6.3,11.2
			L151,236.2z M154.5,179l-2.1-10.2l-4.7-5l-3.6-18.9l-10.3-6.6l4.4,24.7L154.5,179z M128.7,200.2l20.2-9l-20.4-10.9l-15.3-6.1
			l2.8,5.7l-3.2,18.2L128.7,200.2z M111.6,134.7l3.5,13.8l3.8,5.8l-7.7-3.1l-0.4,19.1l31.3,11.9l-3.4-6l12,3.6l-17-15.8l-8.7-16.9
			L111.6,134.7z M21.1,178.4l21.5,27.7l37.5,3.3L54,185.3L21.1,178.4z M93.6,207.6l2.5,3.8l10.6,5.4l6.1-8.9l6.2-4.8l-29.9-5.9
			l-15.3-3.4l5.3,9.5L93.6,207.6z M101.3,85.9l10,7.2l-0.9-27.5l-16.9-30l-8.1-8.1l2.2,37.2L101.3,85.9z M102.8,114.1l-1.6,4.8
			l28.8,25.7l-2.5-10l-8.1-18.1l-6.1-14.7l-21.6-13L102.8,114.1z"/>
	</g>
	<g>
		<polygon points="0,342.2 0,311.4 26.6,311.4 24.8,316.2 5.3,316.2 5.3,323.8 17.1,323.8 17.1,328.5 5.3,328.5 5.3,342.2 		"/>
		<path d="M51.7,330.4h-9.2v11.8h-5.3v-30.8h23.7l4,4.1v10.8l-4,4.1H58l8.3,11.8h-6.4L51.7,330.4z M58.2,325.7l1.3-1.4v-6.8
			l-1.3-1.4H42.4v9.5L58.2,325.7L58.2,325.7z"/>
		<path d="M80.9,311.4h21.5l4,4.1v22.7l-4,4.1H80.9l-4-4.1v-22.7L80.9,311.4z M82.3,317.5v18.6l1.4,1.4h16.2l1.3-1.4v-18.6l-1.3-1.4
			H83.6L82.3,317.5z"/>
		<polygon points="121.1,337.5 140,337.5 141.3,336.1 141.3,330 140,328.6 123.1,328.6 119.1,324.6 119.1,315.5 123.1,311.4 
			146.6,311.4 144.7,316.2 125.8,316.2 124.4,317.5 124.4,322.4 125.8,323.7 142.6,323.7 146.6,327.8 146.6,338.2 142.6,342.2 
			119.1,342.2 		"/>
		<polygon points="157.8,311.4 186.4,311.4 184.5,316.2 173.8,316.2 173.8,342.2 168.6,342.2 168.6,316.2 157.8,316.2 		"/>
		<path d="M221.6,311.4l4,4.1v7.3l-2.6,2.7l3.6,3.6v9.1l-4,4.1h-24.9v-30.8h23.9V311.4z M203,323.9h15.9l1.3-1.4v-5.1l-1.3-1.3H203
			V323.9z M203,337.5h16.9l1.3-1.4v-6l-1.6-1.7H203V337.5z"/>
		<rect x="240" y="311.4" width="5.3" height="30.8"/>
		<polygon points="256.6,311.6 285.2,311.6 283.3,316.3 272.6,316.3 272.6,342.4 267.3,342.4 267.3,316.3 256.6,316.3 		"/>
		<polygon points="312.1,328.7 300.3,328.7 300.3,337.7 321.2,337.7 321.2,342.4 295,342.4 295,311.6 321.9,311.6 320,316.3 
			300.3,316.3 300.3,324 312.1,324 		"/>
	</g>
	<g>
		<path d="M325.1,311.6h3.1v0.6h-1.3v3.1h-0.6v-3.1H325L325.1,311.6L325.1,311.6z"/>
		<path d="M332.2,315.2v-2.4l0,0l-1.1,1.9h-0.2l-1.1-1.9l0,0v2.4H329v-3.6h0.6l1.3,2.2l0,0l1.3-2.2h0.6v3.6H332.2z"/>
	</g>
</g>
</svg>
