<?xml version="1.0" encoding="utf-8"?>
<!-- Generator: Adobe Illustrator 24.1.2, SVG Export Plug-In . SVG Version: 6.00 Build 0)  -->
<svg version="1.1" id="Lager_1" xmlns="http://www.w3.org/2000/svg" xmlns:xlink="http://www.w3.org/1999/xlink" x="0px" y="0px"
	 viewBox="0 0 299.1 68.9" style="enable-background:new 0 0 299.1 68.9;" xml:space="preserve">
<path d="M295.1,60c-1.8,0-3.4-1.5-3.1-3.9l0.1-0.6l3.2-20.2c0.8-5.7-1.1-9.3-2.9-11.3c-2.4-2.8-6.1-4.3-10.3-4.3
	c-4.3,0-9,2.5-13.1,7.1c-0.3,0.3-0.6,0.7-0.8,1.1c-0.6-1.7-1.4-3-2.3-3.9c-2.4-2.8-6.1-4.3-10.3-4.3c-4.1,0-8.5,2.2-12.3,6.3
	l0.4-5.1h-7.3L229,66.8h8.3c0.9-5.5,2.6-15.8,3.9-23.8c3.2-11.3,10.9-15.1,14.5-15.1c1.8,0,3.3,0.5,4.1,1.5c1.1,1.3,1.1,3.3,0.9,4.8
	c-1.1,7.6-4.1,25.9-5.3,32.6h8.3c0.9-5.6,2.7-16,3.9-24c3.2-11.1,10.8-14.9,14.4-14.9c1.8,0,3.3,0.5,4.1,1.5
	c1.1,1.3,1.1,3.3,0.9,4.8c-1.1,7.6-2.4,14.9-3.5,21.7s3.1,11.5,9.7,11.5c1.3,0,3-0.3,4.6-0.8l1-7C297.5,60,296.4,60,295.1,60"/>
<path d="M210.1,44.6L210.1,44.6C207,56,199.2,59.9,195.6,59.9c-1.8,0-3.3-0.5-4.1-1.5c-1.1-1.3-1.1-3.3-0.9-4.8
	c1.1-7.6,4.1-25.9,5.3-32.6h-8.3c-1.3,7.6-4,24.1-5.1,31.5c-0.8,5.7,1.1,9.3,2.9,11.3c2.4,2.8,6.1,4.3,10.3,4.3s8.9-2.5,12.8-6.9
	c0.9,3.5,4.5,6.2,9.5,6.2c1.3,0,3-0.3,4.6-0.8l1-7c-1.6,0.5-2.7,0.5-4,0.5c-1.8,0-3.4-1.5-3.1-3.9l5.7-35.2h-8.3
	C212.1,31.9,210.9,39.2,210.1,44.6"/>
<path d="M70.1,59.5c-1.6,0.5-2.7,0.5-4,0.5c-1.8,0-3.4-1.5-3.1-3.9l5.7-35.2h-8.3c-3.5,21.9-4.6,28.7-5.7,35
	c-1.1,6.8,3.1,11.5,9.7,11.5c1.3,0,3-0.3,4.6-0.8L70.1,59.5"/>
<path d="M36.4,0.6c-11.4,0-18.2,7-21.1,22.9c-0.7,3.6-2.5,12.6-3,15.5c-1.7,9.7-2.7,15.6-4.6,17.6c-2.2,2.3-6.3,4.1-7.7,4.6L1.3,65
	l1.3,3.9c4.2-1.4,8.2-2.1,12.8-2.1h29.8l1.5-8.2H16.4c1.8-3.8,2.8-9.4,4.3-18.3c0.5-2.8,2.3-11.8,3-15.4c3-16.2,8.8-16.2,12.7-16.2
	c2.2,0,3.6,1,4.3,1.9c1,1.2,1.5,2.8,1.3,4.1c-1,6-3.8,8.4-11.7,9.1l-1.6,8.3C36.4,31.8,47.7,30,50,16c0.6-3.7-0.5-7.7-3.1-10.8
	C44.4,2.3,40.6,0.6,36.4,0.6"/>
<path d="M66.9,11.7c3.1,0,5.6-2.5,5.6-5.6S70,0.5,66.9,0.5S61.3,3,61.3,6.1C61.3,9.2,63.8,11.7,66.9,11.7"/>
<path d="M91.4,29.1h6.4l1.1-8.2h-6.4c0.1-1.1,0.3-2.2,0.4-3.2c0.4-3.1,1.5-7,4.5-8.7c2.2-1.2,5.2-1,8.4,0.4l1.2-8.3
	c-4.8-1.6-9.7-1.4-13.5,0.7c-3.3,1.8-7.6,5.9-8.7,14.8c-0.2,1.3-0.4,2.7-0.6,4.2h-5.7L77.4,29h5.7c-1.7,12.5-3.9,27.3-5.5,37.7h8.3
	C87.5,56.2,89.7,41.4,91.4,29.1"/>
<path d="M110.2,41c1.8-9.4,8.5-13.7,12.7-13.7c2.7,0,4.2,1.2,5,2.1c1,1.3,1.5,3,1.2,4.6c-1.2,5.7-5.5,8.1-19.2,10.1
	C109.9,43.2,110,42.1,110.2,41L110.2,41z M123.8,59.8c-4.8,0-8.8-1.6-11.2-4.6c-0.7-0.9-1.3-1.9-1.8-2.9c6.6-1,11.7-2.1,15.7-3.9
	c5.8-2.6,9.2-6.8,10.5-12.6c0.8-3.9-0.2-8.2-2.8-11.4c-2.7-3.3-6.7-5.2-11.3-5.2c-8.3,0-18.1,7-20.7,20.3c-2.1,10.7,1.1,17.3,4.1,21
	c4,4.9,10.2,7.6,17.5,7.6c4.1,0,9.1-0.4,14.1-2.9l1.6-11.1C133.5,59.8,127.6,59.8,123.8,59.8L123.8,59.8z"/>
<path d="M168.2,35.3c-3.5-4.1-6.3-7.5-5.5-12.9c0.2-0.8,0.4-1.7,0.6-2.5l-7.9-2c-0.3,1.1-0.5,2.1-0.7,3.1
	c-3.3,14.2-7.4,23.2-11.5,28.9h9.7c2.2-3.8,4.1-8.3,5.9-13.4c1,1.5,2.2,2.8,3.2,4c3.5,4.2,5.6,7,5.1,11c-0.6,5.1-4.2,8.3-9,8.3
	c-3.3,0-5.8-0.4-8-1.5l-1.2,8.3c2.7,0.9,5.6,1.3,9.2,1.3c8.9,0,15.9-6.4,17.1-15.5C176.1,44.8,171.9,39.7,168.2,35.3"/>
</svg>
