<?xml version="1.0" encoding="utf-8"?>
<!-- Generator: Adobe Illustrator 24.1.2, SVG Export Plug-In . SVG Version: 6.00 Build 0)  -->
<svg version="1.1" id="Layer_1" xmlns="http://www.w3.org/2000/svg" xmlns:xlink="http://www.w3.org/1999/xlink" x="0px" y="0px"
	 viewBox="0 0 283.5 121.1" style="enable-background:new 0 0 283.5 121.1;" xml:space="preserve">
<style type="text/css">
	.st0{fill:#949397;}
	.st1{fill:#DD052B;}
	.st2{display:none;fill:#FDEB18;}
	.st3{fill:#020303;}
	.st4{fill:#010202;}
	.st5{fill:#030403;}
	.st6{fill:#010101;}
	.st7{fill:#020202;}
	.st8{fill:#040504;}
	.st9{fill:#050605;}
	.st10{fill:#060706;}
	.st11{fill:#070706;}
	.st12{fill:#070806;}
	.st13{fill:#0B0B07;}
	.st14{fill:#0D0D08;}
	.st15{fill:#090906;}
	.st16{fill:#080806;}
	.st17{fill:#0E0E09;}
	.st18{fill:#13120C;}
	.st19{fill:#17160E;}
	.st20{fill:#10100A;}
	.st21{fill:#090A07;}
	.st22{fill:#11110B;}
	.st23{fill:#272515;}
	.st24{display:none;fill:#F7E710;}
	.st25{display:none;fill:#F6E50E;}
	.st26{display:none;fill:#F4E305;}
	.st27{display:none;fill:#F3E207;}
	.st28{display:none;fill:#F7E509;}
	.st29{display:none;fill:#F1E001;}
</style>
<path class="st0" d="M73.5,6.7h2.6l14.5,17.8h0.1V6.7h2.2v20.8h-2.5L75.7,9.8h-0.1v17.8h-2.2L73.5,6.7L73.5,6.7z"/>
<path class="st0" d="M107.2,6.2c5.9,0,11.3,3.6,11.3,10.9S113.1,28,107.2,28s-11.3-3.6-11.3-10.9S101.2,6.2,107.2,6.2z M107.2,26.1
	c4.6,0,9-2.7,9-8.9s-4.4-8.9-9-8.9s-9,2.7-9,8.9S102.6,26.1,107.2,26.1z"/>
<path class="st0" d="M121.8,6.7h11.3c3.5,0,6.8,1.3,6.8,5.6c0,2.4-1.7,4.5-4.1,5v0.1c2.9,0.5,3.6,2.4,3.7,5.8
	c0.1,1.3,0.2,3.8,0.7,4.3h-2.3c-0.4-0.4-0.5-2-0.6-4.3c-0.1-3.7-1.5-4.9-5-4.9H124v9.1h-2.2V6.7z M124,16.4h9.1c2.4,0,4.5-0.9,4.5-4
	s-2.3-3.6-4.3-3.6H124V16.4z"/>
<path class="st0" d="M143.4,6.7h11.3c3.5,0,6.8,1.3,6.8,5.6c0,2.4-1.7,4.5-4.1,5v0.1c2.9,0.5,3.6,2.4,3.7,5.8
	c0.1,1.3,0.2,3.8,0.7,4.3h-2.3c-0.4-0.4-0.5-2-0.6-4.3c-0.1-3.7-1.5-4.9-5-4.9h-8.4v9.1h-2.1L143.4,6.7z M145.6,16.4h9.1
	c2.4,0,4.5-0.9,4.5-4s-2.3-3.6-4.3-3.6h-9.3V16.4z"/>
<path class="st0" d="M165,6.7h2.1V18l13.4-11.3h3.1l-10.3,8.6l11,12.2h-3.1l-9.6-10.8l-4.6,3.7v7h-2V6.7z"/>
<path class="st0" d="M196.7,6.2c5.9,0,11.3,3.6,11.3,10.9S202.6,28,196.7,28s-11.3-3.6-11.3-10.9S190.8,6.2,196.7,6.2z M196.7,26.1
	c4.6,0,9-2.7,9-8.9s-4.4-8.9-9-8.9s-9,2.7-9,8.9S192.2,26.1,196.7,26.1z M192.4,2.3h2.2v3.2h-2.2V2.3z M198.9,2.3h2.2v3.2h-2.2V2.3z
	"/>
<path class="st0" d="M211.4,6.7h11.2c3.2,0,6.3,1.6,6.3,6c0,3.9-2.6,6.1-7.2,6.1h-8.1v8.7h-2.1L211.4,6.7z M213.6,16.8h8.3
	c3.6,0,4.7-1.7,4.7-4.1c0-3.1-1.7-4-4.2-4h-8.8V16.8z"/>
<path class="st0" d="M231.8,6.7h2.2v20.8h-2.2V6.7z"/>
<path class="st0" d="M238,6.7h2.6l14.5,17.8h0.1V6.7h2.2v20.8h-2.5L240.2,9.8h-0.1v17.8H238V6.7z"/>
<path class="st0" d="M280.7,23.6L280.7,23.6c-1.9,3-5.2,4.7-8.7,4.5c-7,0-10.9-4.4-10.9-10.9c0-6.3,4.2-10.9,11.1-10.9
	c5.8,0,9.5,3.3,10,7.1h-2.3c-0.8-3.5-4-5.1-7.7-5.1c-5.7,0-8.8,3.5-8.8,8.9s2.9,8.9,8.4,8.9c6.2,0,8.2-3.5,8.9-7.3H273v-2h9.6v10.7
	H281L280.7,23.6z"/>
<path class="st0" d="M78.6,45.1c0.1,2.3,1.5,3,3.7,3c1.5,0,3.1-0.5,3.1-2c0-1.7-2.8-2-5.6-2.8s-5.7-2-5.7-5.6c0-4.3,4.3-5.9,7.9-5.9
	c3.9,0,7.8,1.9,7.8,6.3h-5.1c0.1-1.8-1.6-2.3-3.1-2.3c-1.1,0-2.5,0.4-2.5,1.7c0,1.5,2.8,1.8,5.7,2.6s5.7,2.1,5.7,5.6
	c0,4.9-4.2,6.5-8.5,6.5c-4.5,0-8.4-2-8.5-7L78.6,45.1z"/>
<path class="st0" d="M105.8,39.1c-0.3-2-1.8-3-3.9-3c-3.3,0-4.5,2.9-4.5,5.8s1.3,5.8,4.5,5.8c2,0.2,3.7-1.3,3.9-3.3
	c0-0.1,0-0.2,0-0.3h5.1c-0.3,5-4,8-8.9,8c-5.9,0-9.7-4.5-9.7-10.2s3.8-10.2,9.7-10.2c4.2,0,8.8,2.7,8.9,7.4H105.8z"/>
<path class="st0" d="M113.6,32.2h5.1v19.5h-5.1V32.2z"/>
<path class="st0" d="M122.2,32.2h15.5v4.1h-10.5v3.4h9.6v3.9h-9.6v3.7H138v4.4h-15.8V32.2z"/>
<path class="st0" d="M140.8,32.2h5.2l6.8,12h0.1v-12h4.8v19.5h-5.2l-6.8-12.2h-0.1v12.2h-4.8V32.2z"/>
<path class="st0" d="M174,39.1c-0.3-2-1.8-3-3.9-3c-3.3,0-4.5,2.9-4.5,5.8s1.3,5.8,4.5,5.8c2,0.2,3.7-1.3,3.9-3.3c0-0.1,0-0.2,0-0.3
	h5.1c-0.3,5-4,8-8.9,8c-5.9,0-9.7-4.5-9.7-10.2s3.8-10.2,9.7-10.2c4.2,0,8.8,2.7,8.9,7.4H174z"/>
<path class="st0" d="M181.8,32.2h15.5v4.1h-10.5v3.4h9.6v3.9h-9.6v3.7h10.7v4.4h-15.8V32.2H181.8z"/>
<path class="st0" d="M209.1,32.2h9.3c3.6,0,7,1.7,7,6.3c0,4.8-2.8,6.7-7,6.7h-4.2v6.5h-5.1V32.2z M214.2,41.2h3.4
	c1.6,0,2.7-0.7,2.7-2.4s-1.2-2.6-2.7-2.6h-3.4V41.2z"/>
<path class="st0" d="M231.1,32.2h5.2l7.3,19.5h-5.3l-1.2-3.5h-6.8l-1.3,3.5h-5.2L231.1,32.2z M231.4,44.4h4.4l-2.1-6.8h-0.1
	L231.4,44.4z"/>
<path class="st0" d="M245,32.2h10c3.4,0,6.8,1.6,6.8,5.5c0.1,2.1-1.1,4.1-3.1,4.9l0,0c2.1,0.5,2.7,2.8,2.8,4.7
	c0,0.8,0.1,3.7,0.8,4.4h-5c-0.4-1-0.6-2.1-0.6-3.1c-0.1-2-0.5-4-2.8-4H250v7.1h-5V32.2z M250.1,40.6h4.3c1.1,0.1,2.2-0.7,2.3-1.8
	c0-0.2,0-0.3,0-0.5c0-1.5-1.1-2.1-2.6-2.1h-4V40.6z"/>
<path class="st0" d="M264.8,32.2h5.1v7.5l6.4-7.5h6.3l-7.2,7.7l8.1,11.8h-6.3l-5.2-8.2l-2.1,2.2v6h-5.1L264.8,32.2z"/>
<path class="st1" d="M4.4,38.3l1.9-1c-2.1-0.4-4.2-0.9-6.3-1.5v4.8h0.5C2.1,39.5,3.5,38.7,4.4,38.3z"/>
<path class="st1" d="M37.1,30.4C33.5,32,30,33.9,26.6,36c4.1-0.4,8.2-0.9,12.1-1.5s7.5-1,11-1.3c3-0.3,5.9-0.5,8.7-0.6v-2.2
	C51.4,29.6,44.2,29.5,37.1,30.4z"/>
<path class="st1" d="M0.9,42.2L0,42.8v7.3c3.4-0.4,6.8-0.9,10.1-1.6c1.8-2.1,3.5-3.9,4.8-5.2C10.5,42.8,5.8,42.4,0.9,42.2z"/>
<path class="st1" d="M42,28.2c5.5-0.3,11-0.1,16.5,0.5v-5.1C52.8,24.5,47.3,26.1,42,28.2L42,28.2z"/>
<path class="st1" d="M12.9,47.9c3.6-0.8,7.2-1.8,10.6-2.7l1.8-0.5c-2.6-0.4-5.4-0.8-8.3-1.2C15.9,44.6,14.5,46.2,12.9,47.9z"/>
<path class="st1" d="M23.3,36.3c2.7-1.9,5.5-3.6,8.4-5.1c-6.6,0.9-13.1,2.7-19.4,5.1C16,36.5,19.6,36.5,23.3,36.3z"/>
<path class="st1" d="M58.4,48.3v-4.7c-1.2-0.2-2.3-0.3-3.5-0.4c-7.3-0.6-14.6-0.1-21.7,1.4L35,45C42.6,46.4,50.6,48,58.4,48.3z"/>
<path class="st1" d="M9.2,37.7c-1.3,0.6-2.7,1.3-4,2c-0.5,0.3-1.1,0.6-1.7,1c4.5,0.2,8.9,0.6,13,1.2c1.5-1.4,3-2.6,4.4-3.8
	C17,38.2,13.1,38.1,9.2,37.7z"/>
<path class="st1" d="M36,28.8l0.6-0.1c1.5-0.7,3-1.4,4.7-2c5.5-2.2,11.2-3.8,17.1-4.8V0H0v34c2.9,1,5.9,1.6,8.9,2
	C16.7,32.4,24.2,30.5,36,28.8z"/>
<path class="st1" d="M39,36.1c-4.9,0.7-10,1.4-15.1,1.7c-1.8,1.3-3.6,2.7-5.3,4.3c2.6,0.3,5,0.7,7.4,1.1c1,0.2,2.1,0.4,3.1,0.6
	c8.4-2.2,17.1-2.9,25.8-2.3c1.2,0.1,2.3,0.2,3.4,0.4v-7.7c-2.8,0.1-5.6,0.3-8.5,0.6C46.4,35.1,42.8,35.6,39,36.1z"/>
<path class="st1" d="M0,51.8v6.7h2c1.8-2.4,4.1-5.2,6.4-7.9C5.6,51.1,2.8,51.5,0,51.8z"/>
<path class="st1" d="M29.2,45.5l-0.9,0.2l-4.4,1.2C19.8,48,15.5,49.1,11,50c-2.4,2.8-5,5.8-6.9,8.4h54.4v-8.5
	c-7.9-0.3-16.1-1.9-23.7-3.4C32.8,46.2,31,45.8,29.2,45.5z"/>
<path class="st2" d="M58.5,106.8v3.7c-0.1-0.2-0.1-0.4-0.2-0.5c-0.5-0.9-1.5-1.3-2.4-0.9c-0.9,0.3-1.4,1.2-1.3,2.1
	c0.2,1,1,1.7,2,1.7c0.7,0,1.4-0.4,1.7-1c0.1,2.9,0.1,5.9,0,8.8c0,0-0.1,0.1-0.1,0.2c-0.3,0-0.7,0-1,0c0.2-0.2,0.5-0.3,0.6-0.6
	c0.5-0.7,0.4-1.7-0.3-2.2c-0.4-0.3-0.9-0.4-1.4-0.3c-0.7,0.1-1.1,0.7-1.2,1.3c-0.1,0.7,0.3,1.4,0.9,1.7H36.3
	c0.2-0.2,0.4-0.3,0.5-0.5c0.5-0.7,0.5-1.6-0.2-2.2c-0.6-0.5-1.5-0.5-2.2,0c-0.6,0.6-0.7,1.6-0.1,2.2c0.1,0.2,0.3,0.3,0.5,0.4
	c-0.9,0.1-1.7,0.1-2.6,0c0.1-0.1,0.3-0.3,0.4-0.4c0.6-0.7,0.5-1.7-0.1-2.3s-1.7-0.5-2.3,0.1c-0.6,0.7-0.5,1.7,0.1,2.3
	c0.1,0.1,0.3,0.2,0.4,0.3c0.1,0.1,0.3,0.1,0.4,0.2h-3.7c0.2-0.1,0.4-0.2,0.6-0.3c0.6-0.4,0.9-1.2,0.7-1.9c-0.2-0.7-0.8-1.2-1.6-1.2
	c-0.8,0-1.4,0.5-1.6,1.2s0.1,1.5,0.7,1.9c0.1,0.1,0.4,0.1,0.5,0.3h-3.2c0.1-0.3,0.4-0.3,0.6-0.4c0.7-0.6,0.8-1.7,0.2-2.4
	c-0.4-0.5-1-0.7-1.7-0.6c-0.8,0.2-1.3,0.8-1.4,1.6c0,0.6,0.3,1.2,0.8,1.6c-0.8,0.1-1.6,0.1-2.4,0c0.2-0.2,0.4-0.4,0.5-0.6
	c0.4-0.6,0.4-1.4-0.1-2c-0.5-0.5-1.2-0.7-1.9-0.4c-0.6,0.3-1,1-0.9,1.7c0.1,0.5,0.4,1,0.8,1.3H0c0-0.2,0-0.4,0-0.7
	c0-13.8,0-27.7,0-41.6c0-0.2,0-0.4,0-0.7c0.1,0.2,0.3,0.5,0.5,0.7c0.7,0.8,1.9,0.9,2.7,0.2c0.1-0.1,0.2-0.1,0.2-0.2
	c0.3-0.3,0.5-0.8,0.5-1.2l0.3,0.2c0.1,0.9,0.7,1.6,1.6,1.7c0.9,0.2,1.8-0.3,2.3-1.1c0.6-1.2,0-2.4-1.5-3c0.7-0.2,1.3-0.8,1.6-1.5
	c0-0.1,0.1-0.1,0.2-0.1c0.1,0.8,0.7,1.4,1.5,1.5c0,0.4-0.3,0.3-0.5,0.5c-0.8,0.5-1.3,1.5-1,2.4c0.3,1.1,1.3,1.7,2.4,1.5
	c0.8-0.2,1.4-0.9,1.5-1.7c0.2-0.9-0.3-1.8-1.1-2.2c-0.2-0.1-0.5-0.2-0.6-0.4c1.1,0.1,1.4-0.8,1.9-1.5c0.2,0.9,1,1.6,2,1.6
	c1.1,0,2-0.7,2.2-1.8c0.5,1.3,1.3,1.9,2.4,1.7c1-0.1,1.7-1,1.7-2c0.1-1-0.6-1.9-1.6-2.1c-1.1-0.2-2,0.3-2.5,1.6
	c-0.2-0.9-1-1.6-2-1.7s-1.9,0.6-2.2,1.5c-0.3-1-1.4-1.7-2.4-1.5c-0.8,0.1-1.5,0.7-1.6,1.5C8,72.6,8,72.2,7.9,72
	c-0.5-0.7-1.4-1.1-2.3-0.8c-0.9,0.2-1.5,1-1.6,1.8c0,0.8,0.4,1.6,1.2,2c0.2,0.1,0.5,0.1,0.7,0.3c-0.8,0.1-1.5,0.7-1.7,1.6
	c-0.1,0.1-0.1,0.3-0.3,0.3c-0.2-1.1-1.2-1.8-2.3-1.7c-0.1,0-0.2,0-0.3,0.1c-0.6,0.2-1.1,0.7-1.3,1.3v-3.2c0.1,0.2,0.2,0.4,0.4,0.6
	c0.5,0.7,1.5,1,2.4,0.6c1-0.5,1.3-1.6,0.9-2.6c-0.3-0.6-0.9-1-1.6-1.1c-0.9,0-1.7,0.6-2,1.4v-9.1h7.4h11.1c-0.2,0.1-0.4,0.2-0.5,0.3
	c-0.5,0.4-0.5,1.2-0.1,1.7l0.1,0.1c0.5,0.4,1.3,0.4,1.7-0.1c0.4-0.5,0.4-1.3-0.1-1.7c-0.2-0.1-0.3-0.2-0.5-0.3h3.3
	c-0.2,0.2-0.4,0.4-0.5,0.6c-0.3,0.5-0.3,1.2,0.2,1.7c0.4,0.4,1.1,0.5,1.6,0.2s0.8-1,0.6-1.6c-0.1-0.3-0.3-0.6-0.6-0.8
	c1-0.1,2-0.1,3,0c-0.1,0.1-0.3,0.3-0.4,0.4c-0.5,0.5-0.4,1.3,0.1,1.8c0.5,0.4,1.2,0.4,1.8,0c0.5-0.5,0.5-1.3,0.1-1.8
	c-0.1-0.1-0.3-0.3-0.4-0.4h3c-0.2,0.1-0.3,0.3-0.5,0.5c-0.4,0.5-0.3,1.2,0.1,1.7c0.5,0.5,1.3,0.6,1.9,0.1c0.4-0.3,0.5-0.8,0.4-1.3
	c-0.1-0.4-0.3-0.7-0.6-0.9c0.9-0.1,1.7-0.1,2.6,0c-0.2,0.2-0.3,0.4-0.4,0.6c-0.3,0.7,0,1.6,0.7,1.9c0.8,0.3,1.7,0,2-0.8
	c0.2-0.6,0.1-1.4-0.5-1.8h2.6c-0.2,0.1-0.3,0.3-0.4,0.5c-0.4,0.6-0.3,1.3,0.3,1.8s1.4,0.4,1.9-0.2c0.4-0.5,0.4-1.2,0-1.7
	c-0.1-0.1-0.2-0.2-0.3-0.3h3c-0.2,0.1-0.3,0.3-0.5,0.4c-0.4,0.5-0.4,1.3,0.1,1.7c0.5,0.4,1.2,0.4,1.7,0s0.5-1.2,0.1-1.7
	c-0.2-0.2-0.3-0.3-0.5-0.4c1,0,2.1,0,3.2,0c-0.2,0.1-0.3,0.3-0.5,0.5c-0.3,0.5-0.3,1.1,0.1,1.6c0.4,0.4,1,0.6,1.5,0.3
	c0.5-0.3,0.8-0.9,0.7-1.4s-0.4-0.7-0.7-1h3c-0.2,0.1-0.4,0.2-0.5,0.4c-0.4,0.5-0.4,1.3,0.2,1.7c0.5,0.4,1.2,0.4,1.6,0
	c0.5-0.5,0.5-1.2,0-1.7l0,0c-0.2-0.1-0.3-0.3-0.5-0.4h5.7c0,1.9,0,3.8,0,5.6c0,0.3-0.1,0.6,0.1,0.9c0,12,0,24,0,36
	C58.6,106.4,58.6,106.6,58.5,106.8c0-0.2,0-0.5-0.2-0.7c-0.5-0.9-1.5-1.3-2.4-0.9c-1,0.4-1.5,1.5-1.1,2.5c0.3,0.8,1.2,1.3,2.1,1.2
	C57.7,108.6,58.3,108,58.5,106.8z M21,86.1c0.1,1.1,1.1,1.8,2.1,1.7c0,0,0,0,0.1,0c1-0.1,1.8-1,1.8-2c0-1.1-0.7-2-1.8-2.1
	c-1.1-0.1-2.1,0.6-2.2,1.7c-0.5,0.2-0.3-0.3-0.4-0.4c-0.5-1-1.7-1.4-2.7-1c-0.1,0.1-0.2,0.1-0.3,0.2c-0.6,0.5-0.9,1.3-0.7,2.1
	c0.2,0.7,0.9,1.3,1.6,1.4c0.8,0.1,1.7-0.3,2.1-1.1C20.7,86.4,20.5,86,21,86.1z M46.2,102.7c0,1.1,0.9,2,2,2h0.1c1.1,0,2-1,2-2.1l0,0
	c0-1.1-0.8-2-1.9-2c-1.1-0.1-2,0.7-2.1,1.7c0,0.1,0,0.1,0,0.2c-0.4,0-0.3-0.3-0.4-0.6c-0.5-1-1.7-1.4-2.7-1c-0.7,0.3-1.1,1-1.2,1.8
	c0,0.9,0.7,1.7,1.6,1.9c0.9,0.2,1.9-0.3,2.2-1.2C45.9,103,45.8,102.8,46.2,102.7L46.2,102.7z M18.3,96.3c-0.9,0-1.2,0.8-1.7,1.4
	c-0.3-0.9-1.3-1.5-2.2-1.3c-0.8,0.1-1.5,0.7-1.7,1.5L12.4,98c-0.6-1.2-1.3-1.7-2.3-1.6c-1.1,0.1-1.8,1.1-1.7,2.2
	c0.1,0.6,0.5,1.2,1,1.5c1.5,0.7,2.5,0.1,2.9-1.4l0.3,0.2c0.1,0.9,0.7,1.3,1.4,1.6c-0.7,0.3-1.3,0.9-1.6,1.6
	c-0.8-1.2-1.6-1.6-2.6-1.3c-0.9,0.2-1.5,1-1.4,1.9c-0.1,0.9,0.5,1.7,1.3,2c1,0.3,1.8,0,2.7-1.3c1.3,2,2.7,2,4.2,0.1
	c0.3,0.6,0.8,1.1,1.4,1.5c-1.4,1-1.7,2.3-0.7,3.3c0.4,0.4,0.9,0.6,1.4,0.7c0.8,0,1.6-0.5,2-1.2c0.3,0.5,0.7,1,1.2,1.4
	c-1.3,1.1-1.5,2.4-0.6,3.4c0.4,0.4,0.9,0.7,1.5,0.7c0.9,0.1,1.8-0.4,2.2-1.2c0.5,0.5,0.8,1.1,1.5,1.2c0.1,0.3,0,0.3-0.2,0.4
	c-0.4,0.2-0.7,0.6-0.9,1c-0.4,1,0,2.1,1,2.5c0.9,0.4,1.9,0.1,2.4-0.8s0.3-1.9-0.5-2.6c-0.2-0.2-0.6-0.1-0.5-0.5
	c1-0.1,1.4-0.9,1.7-1.7c0.6,1.1,1.3,1.6,2.2,1.4c0.8-0.1,1.5-0.8,1.5-1.7c0.1-1-0.7-2-1.7-2c-0.3,0-0.7,0-1,0.2
	c-0.5,0.3-0.9,0.7-1.1,1.3c-0.1-0.8-0.7-1.2-1.1-1.7c0.6-0.5,1.2-1,1.1-1.8c0.3,0,0.3,0.2,0.4,0.3c0.3,0.8,1.2,1.3,2,1.1
	c0.8-0.2,1.3-0.9,1.2-1.7c0-0.8-0.5-1.5-1.3-1.7c-0.9-0.2-1.7,0.3-2,1.1c-0.1,0.2-0.1,0.4-0.4,0.4c0.1-1-0.6-1.4-1.2-2
	c0.4-0.4,0.9-0.6,1-1.2c0.1-0.1,0.2-0.2,0.3-0.2c0.4,0.9,1.3,1.4,2.3,1.2c0.8-0.2,1.4-1,1.4-1.8c0.1-0.9-0.5-1.6-1.3-1.9
	c-1-0.3-2.1,0.2-2.5,1.2c-0.3-0.1-0.2-0.4-0.4-0.5c-0.1-0.5-0.7-0.7-1-1c0.5-0.3,0.9-0.7,1.2-1.2c0.4,0.8,1.1,1.3,2,1.3
	s1.7-0.6,2.1-1.4c1.3,2,3.1,1.9,4.3-0.2c0.4,0.6,0.7,1.3,1.6,1.4l0.2,0.2c-0.1,0.3-0.4,0.2-0.6,0.3c-1,0.6-1.3,1.8-0.7,2.7
	c0.3,0.6,0.9,0.9,1.5,1c0.9,0.1,1.8-0.5,2-1.4c0.3-1-0.2-2-1.2-2.4c-0.2-0.1-0.5,0-0.3-0.4c0.9-0.1,1.6-0.8,1.7-1.7
	c0.1-0.9-0.5-1.8-1.4-2.1c-1-0.4-1.8,0-2.8,1.3c-0.2-0.9-1.1-1.6-2-1.6c-1-0.1-1.9,0.5-2.2,1.4c-0.5-1.2-1.8-1.7-3-1.2
	c-0.5,0.2-1,0.6-1.2,1.1c-0.5-1.2-1.9-1.7-3.1-1.2c-0.5,0.2-0.9,0.6-1.2,1.1c-0.3-0.6-0.8-1.1-1.5-1.4c1.2-0.8,1.6-1.4,1.3-2.5
	c-0.4-1-1.6-1.5-2.6-1.1c-0.5,0.2-0.9,0.7-1.1,1.2c-0.2,0.9,0.2,1.7,1.4,2.3c-0.7,0.2-1.2,0.7-1.6,1.3c-0.5-0.5-0.8-1.1-1.5-1
	c-0.1-0.5,0.3-0.4,0.5-0.5c0.7-0.5,1-1.3,0.8-2.1c-0.1-0.7-0.7-1.3-1.4-1.4c-0.8-0.2-1.6,0.1-2,0.7c-0.6,0.8-0.4,2,0.4,2.7
	c0.1,0,0.1,0.1,0.2,0.1C18,95.9,18.4,95.8,18.3,96.3L18.3,96.3z M52.4,108.7c1.1,0,2-0.9,2-1.9c0-1.1-0.9-2-2.1-2
	c-1.1,0-1.9,0.9-1.9,2c0,1,0.8,1.9,1.8,1.9C52.3,108.7,52.3,108.7,52.4,108.7L52.4,108.7z M6.1,104.5c1.1-0.2,1.8-1.2,1.7-2.3
	c-0.1-0.8-0.7-1.5-1.5-1.6c-1.1-0.2-2.1,0.4-2.4,1.5s0.4,2.1,1.5,2.4C5.6,104.6,5.9,104.6,6.1,104.5z M21,73.1c0,1.1,0.8,2,1.9,2
	s2-0.8,2-1.9s-0.8-2-1.9-2C22,71.1,21,72,21,73.1L21,73.1z M52.5,100.6c-1.1-0.1-2,0.8-2.1,1.9c0,1.1,0.8,1.9,1.9,2
	c1.1,0,2-0.8,2-1.8C54.4,101.6,53.6,100.7,52.5,100.6L52.5,100.6L52.5,100.6z M14.6,91.9c1,0,1.9-0.9,1.9-1.9c0-1.1-0.9-2-2-2
	s-2,0.8-2,1.9s0.8,2,1.9,2C14.4,91.9,14.5,91.9,14.6,91.9L14.6,91.9z M20.7,89.9c0-1.1-0.9-1.9-1.9-1.9l0,0c-1.1,0-1.9,0.9-1.9,1.9
	s0.9,1.9,1.9,1.9S20.7,91,20.7,89.9C20.7,90,20.7,90,20.7,89.9L20.7,89.9z M8,98.4c0.1-1-0.7-1.9-1.6-1.9c-0.1,0-0.1,0-0.2,0
	c-1-0.1-1.9,0.7-2,1.7v0.1c-0.1,1,0.7,1.9,1.8,2h0.1c1,0.1,1.9-0.7,1.9-1.7C8,98.5,8,98.4,8,98.4z M35.6,100.6c-1.1,0-2,0.8-2,1.9
	l0,0c0,1.1,0.8,2,1.9,2c1.1,0,2-0.8,2-1.9S36.7,100.6,35.6,100.6L35.6,100.6z M27.1,83.8c-1,0-1.9,0.8-1.9,1.8l0,0
	c0,1.1,0.8,1.9,1.9,2c1,0,1.9-0.8,1.9-1.8v-0.1c0.1-1-0.7-1.8-1.7-1.9C27.3,83.8,27.2,83.8,27.1,83.8z M24.8,89.9
	c0-1-0.8-1.9-1.8-1.9c-0.1,0-0.1,0-0.2,0c-1.1,0-1.9,0.9-1.8,2c0,1.1,0.9,1.9,2,1.8C24,91.9,24.9,91,24.8,89.9
	C24.8,90,24.8,89.9,24.8,89.9z M23,67.1c-1-0.1-1.9,0.7-2,1.7v0.1c0,1.1,0.8,1.9,1.9,2c1,0.1,1.9-0.7,2-1.8l0,0c0.1-1-0.6-1.9-1.6-2
	C23.2,67.1,23.1,67,23,67.1z M16.4,94.1c0-1-0.8-1.9-1.8-1.9l0,0c-1,0-1.9,0.8-1.9,1.9c0,0,0,0,0,0.1c0.1,1.1,0.9,1.9,2,1.9
	C15.7,96,16.5,95.1,16.4,94.1z M45.8,98.4c0-1-0.7-1.8-1.7-1.9H44c-1,0-1.9,0.8-1.9,1.8c0,1.1,0.9,2,1.9,2S45.9,99.5,45.8,98.4
	L45.8,98.4z M37.4,85.8c0-1-0.7-1.9-1.7-1.9c0,0,0,0-0.1,0c-1-0.1-1.9,0.7-2,1.7c0,0.1,0,0.1,0,0.2c0,1,0.8,1.9,1.9,1.9
	C36.5,87.6,37.4,86.8,37.4,85.8C37.4,85.7,37.4,85.7,37.4,85.8L37.4,85.8z M16.4,106.8c0-1-0.8-1.9-1.8-1.9l0,0
	c-1.1,0.1-1.9,0.9-1.9,2c0.1,1,1,1.8,2,1.8C15.7,108.7,16.5,107.8,16.4,106.8L16.4,106.8z M18.7,67.1c-1,0-1.8,0.9-1.8,1.9
	s0.9,1.8,1.9,1.8s1.8-0.9,1.8-1.9S19.8,67.1,18.7,67.1L18.7,67.1z M12.2,94.2c0.1-1-0.7-1.9-1.7-2s-1.9,0.7-2,1.7c0,0.1,0,0.2,0,0.3
	c-0.1,1,0.7,1.8,1.7,1.9c0.1,0,0.1,0,0.2,0c1,0,1.8-0.7,1.9-1.7C12.2,94.2,12.2,94.2,12.2,94.2z M22.9,117c1,0,1.9-0.8,1.9-1.9l0,0
	c-0.1-1-0.9-1.8-1.9-1.9c-1,0.1-1.8,0.9-1.8,1.8C21.1,116.1,21.9,117,22.9,117L22.9,117z M10.3,88.1c-1,0-1.8,0.8-1.8,1.8
	s0.7,1.9,1.7,1.9h0.1c1,0,1.9-0.8,1.9-1.9C12.2,88.9,11.4,88.1,10.3,88.1L10.3,88.1L10.3,88.1z M6.1,104.9c-1,0-1.8,0.8-1.8,1.8v0.1
	c0,1,0.8,1.8,1.8,1.8l0,0c1,0,1.9-0.8,1.9-1.8C8,105.7,7.2,104.9,6.1,104.9L6.1,104.9L6.1,104.9z M37.4,115.2c0-1-0.8-1.8-1.9-1.8
	c-1,0-1.8,0.8-1.8,1.8s0.8,1.8,1.8,1.8C36.6,117,37.4,116.2,37.4,115.2L37.4,115.2z M4.3,94.1c0,1,0.8,1.8,1.8,1.9h0.1
	c1,0,1.9-0.8,1.9-1.9c0-1-0.8-1.9-1.9-1.9C5.1,92.3,4.3,93.1,4.3,94.1L4.3,94.1z M14.6,75.5c-1,0-1.9,0.8-1.9,1.8s0.8,1.8,1.8,1.9
	l0,0c1,0,1.8-0.8,1.8-1.8C16.4,76.4,15.6,75.5,14.6,75.5L14.6,75.5z M31.3,87.6c1,0,1.9-0.8,1.9-1.8s-0.8-1.9-1.8-1.9
	s-1.8,0.8-1.9,1.8C29.5,86.7,30.2,87.5,31.3,87.6C31.3,87.6,31.3,87.6,31.3,87.6z M18.8,109.1c-1,0-1.9,0.8-1.9,1.8s0.8,1.9,1.8,1.9
	s1.8-0.8,1.9-1.8C20.6,110,19.8,109.1,18.8,109.1z M31.4,113.3c-1,0-1.8,0.8-1.8,1.8c-0.1,1,0.7,1.8,1.6,1.9h0.1
	c1,0,1.8-0.8,1.9-1.8C33.2,114.2,32.4,113.3,31.4,113.3z M14.6,87.5c1,0,1.8-0.8,1.8-1.8s-0.8-1.8-1.8-1.8s-1.8,0.7-1.8,1.7
	c0,0.1,0,0.1,0,0.2c0,0.9,0.7,1.7,1.7,1.7C14.5,87.5,14.5,87.5,14.6,87.5z M1.9,104.3c1,0,1.8-0.7,1.9-1.7c0-1-0.8-1.8-1.8-1.9
	c-1,0-1.8,0.8-1.8,1.8C0.1,103.5,0.8,104.3,1.9,104.3C1.8,104.3,1.9,104.3,1.9,104.3z M6.1,83.3c1,0,1.8-0.8,1.9-1.8
	c0-1-0.8-1.8-1.8-1.8c-1,0.1-1.7,0.9-1.7,1.9C4.6,82.5,5.3,83.3,6.1,83.3L6.1,83.3z M1.9,100.1c1-0.1,1.7-0.9,1.7-1.9
	c0-0.9-0.7-1.6-1.6-1.7c-1-0.1-1.8,0.6-1.9,1.6s0.6,1.8,1.6,1.9C1.7,100.1,1.8,100.1,1.9,100.1L1.9,100.1z M25.4,94.1
	c0,1,0.8,1.8,1.7,1.8h0.1c1,0,1.7-0.8,1.8-1.8c0-1-0.8-1.7-1.8-1.7l0,0C26.3,92.3,25.4,93,25.4,94.1C25.4,94,25.4,94.1,25.4,94.1
	L25.4,94.1z M18.7,113.4c-0.9,0-1.7,0.8-1.7,1.7l0,0c0,1,0.8,1.8,1.8,1.8s1.8-0.8,1.8-1.8l0,0c0-0.9-0.7-1.7-1.7-1.8
	C18.8,113.4,18.8,113.4,18.7,113.4z M16.3,68.9c0-0.9-0.7-1.7-1.6-1.7h-0.1c-1,0-1.8,0.8-1.8,1.8s0.8,1.8,1.8,1.8
	c0.9,0,1.7-0.7,1.7-1.6C16.3,69,16.3,69,16.3,68.9z M12.1,106.8c0.1-0.9-0.6-1.7-1.5-1.7c-0.1,0-0.1,0-0.2,0c-0.9,0-1.7,0.7-1.7,1.7
	s0.8,1.7,1.7,1.8l0,0C11.3,108.5,12,107.7,12.1,106.8z M28.9,69c0.1-0.9-0.5-1.7-1.4-1.7c-0.1,0-0.2,0-0.3,0c-0.9,0-1.7,0.7-1.8,1.6
	c0,1,0.8,1.8,1.7,1.8C28.1,70.7,28.8,69.9,28.9,69z M27.2,88.3c-0.9,0-1.7,0.7-1.7,1.7l0,0c0,1,0.8,1.8,1.8,1.8
	c0.9,0,1.7-0.8,1.7-1.7l0,0c0-0.9-0.7-1.6-1.5-1.7C27.3,88.3,27.2,88.3,27.2,88.3z M3.6,81.5c0-0.9-0.7-1.7-1.6-1.7c0,0,0,0-0.1,0
	c-0.9,0-1.7,0.7-1.8,1.7c0,0.9,0.8,1.7,1.7,1.7C2.9,83.2,3.6,82.5,3.6,81.5C3.6,81.6,3.6,81.6,3.6,81.5z M2,105.1
	c-0.9,0-1.6,0.7-1.7,1.6c0,0.9,0.7,1.7,1.6,1.7s1.7-0.7,1.7-1.6l0,0C3.6,105.8,2.9,105.1,2,105.1L2,105.1z M38.1,85.7
	c-0.1,0.9,0.6,1.7,1.5,1.7h0.1c0.9,0,1.6-0.7,1.7-1.6c0.1-0.9-0.6-1.7-1.5-1.7h-0.1c-0.9-0.1-1.6,0.6-1.7,1.4
	C38.1,85.6,38.1,85.6,38.1,85.7z M14.6,109.3c-0.9,0-1.7,0.7-1.7,1.6v0.1c0,0.9,0.6,1.6,1.5,1.7c0,0,0,0,0.1,0
	c0.9,0,1.7-0.7,1.8-1.6c0,0,0,0,0-0.1C16.2,110.1,15.5,109.3,14.6,109.3L14.6,109.3z M58.2,115.1c0-0.9-0.8-1.6-1.7-1.6
	s-1.6,0.8-1.6,1.7s0.8,1.6,1.7,1.6C57.5,116.8,58.3,116.1,58.2,115.1z M12,68.9c0-0.9-0.7-1.6-1.6-1.6h-0.1c-0.9,0-1.6,0.7-1.6,1.6
	s0.7,1.7,1.7,1.7C11.3,70.6,12,69.9,12,68.9L12,68.9z M10.4,83.2c0.9,0,1.7-0.7,1.7-1.7s-0.7-1.7-1.7-1.7s-1.7,0.7-1.7,1.7
	S9.4,83.2,10.4,83.2z M46.5,98.3c0,0.9,0.7,1.6,1.6,1.6s1.6-0.7,1.6-1.6s-0.7-1.6-1.6-1.6l0,0C47.3,96.7,46.6,97.4,46.5,98.3
	L46.5,98.3z M18.7,79c0.9,0.1,1.6-0.6,1.7-1.5v-0.1c0-0.9-0.7-1.6-1.6-1.7c-0.9,0-1.7,0.7-1.7,1.6c0,0,0,0,0,0.1
	C17.1,78.3,17.8,79,18.7,79L18.7,79z M8.7,85.8c0,0.9,0.7,1.6,1.5,1.6h0.1c0.9,0,1.7-0.8,1.6-1.7c0-0.9-0.7-1.6-1.6-1.7
	c-0.9,0-1.6,0.7-1.6,1.5C8.7,85.7,8.7,85.7,8.7,85.8L8.7,85.8z M0.3,111c0,0.8,0.7,1.5,1.5,1.6c0.1,0,0.1,0,0.2,0
	c0.9,0,1.6-0.7,1.6-1.6s-0.7-1.7-1.6-1.7s-1.6,0.7-1.7,1.5C0.3,110.9,0.3,110.9,0.3,111z M46.6,106.7c-0.1,0.9,0.5,1.6,1.4,1.7
	c0.1,0,0.1,0,0.2,0c0.9,0,1.6-0.7,1.6-1.6l0,0c0-0.9-0.7-1.6-1.6-1.7C47.4,105.1,46.6,105.8,46.6,106.7L46.6,106.7z M6.2,91.5
	c0.9,0,1.6-0.7,1.6-1.6l0,0C7.7,89,7,88.3,6.1,88.3S4.5,89,4.5,89.9c0,0,0,0,0,0.1c0,0.8,0.6,1.5,1.4,1.5C6,91.5,6.1,91.5,6.2,91.5z
	 M37.2,94.1c0-0.9-0.8-1.6-1.7-1.6c-0.9,0.1-1.5,0.8-1.5,1.7c0,0.9,0.7,1.6,1.5,1.6h0.1C36.5,95.7,37.2,95,37.2,94.1L37.2,94.1
	L37.2,94.1z M33,94.1c0-0.9-0.7-1.6-1.6-1.7c-0.9,0-1.6,0.7-1.6,1.6l0,0c-0.1,0.8,0.6,1.6,1.4,1.6c0.1,0,0.1,0,0.2,0
	C32.3,95.7,33,95,33,94.1C33,94.2,33,94.2,33,94.1L33,94.1z M58.2,102.4c-0.1-0.8-0.7-1.5-1.6-1.4c-0.9,0-1.6,0.7-1.6,1.6
	s0.7,1.6,1.6,1.6c0.9,0,1.6-0.7,1.6-1.5C58.2,102.6,58.2,102.6,58.2,102.4L58.2,102.4z M35.5,91.4c0.9,0,1.6-0.7,1.6-1.6l0,0
	c0-0.9-0.7-1.5-1.6-1.6c-0.9,0-1.6,0.7-1.6,1.6l0,0C34,90.8,34.6,91.5,35.5,91.4C35.5,91.5,35.5,91.5,35.5,91.4L35.5,91.4z
	 M1.9,116.7c0.8,0.1,1.6-0.6,1.6-1.4c0-0.1,0-0.1,0-0.2c0-0.9-0.7-1.6-1.5-1.6l0,0c-0.9,0-1.6,0.6-1.6,1.5v0.1
	C0.3,116,1,116.7,1.9,116.7L1.9,116.7z M41.4,115.2c-0.1-0.9-0.8-1.5-1.7-1.5c-0.8,0.1-1.4,0.7-1.5,1.5c0.1,0.9,0.8,1.5,1.7,1.5
	C40.7,116.6,41.3,116,41.4,115.2z M54,111c0.1-0.9-0.6-1.6-1.4-1.7c-0.9-0.1-1.6,0.6-1.7,1.4c0,0.1,0,0.2,0,0.3
	c0,0.9,0.7,1.5,1.5,1.6l0,0C53.3,112.6,54,111.9,54,111L54,111z M16.2,115.2c0-0.9-0.6-1.6-1.5-1.6l0,0c-0.9,0-1.6,0.7-1.6,1.6l0,0
	c0,0.8,0.6,1.6,1.5,1.6c0.1,0,0.1,0,0.2,0C15.5,116.7,16.1,116,16.2,115.2C16.1,115.2,16.1,115.2,16.2,115.2L16.2,115.2z M7.7,69
	c0-0.9-0.6-1.6-1.5-1.6c0,0,0,0-0.1,0c-0.8-0.1-1.5,0.5-1.6,1.4v0.1c-0.1,0.8,0.6,1.6,1.4,1.7c0.1,0,0.1,0,0.2,0
	C7,70.5,7.7,69.8,7.7,69z M28.7,73.2c0-0.9-0.7-1.6-1.6-1.6s-1.6,0.7-1.6,1.6s0.7,1.6,1.6,1.6C28,74.7,28.7,74,28.7,73.2
	C28.7,73.1,28.7,73.1,28.7,73.2L28.7,73.2z M44,88.4c-0.9,0-1.6,0.7-1.6,1.6c0,0,0,0,0,0.1c0.1,0.9,0.8,1.5,1.7,1.4
	c0.8-0.1,1.4-0.7,1.4-1.4C45.6,89.1,44.9,88.4,44,88.4L44,88.4z M41.4,90c0-0.9-0.7-1.6-1.6-1.6c-0.9,0-1.6,0.7-1.6,1.6
	s0.7,1.6,1.5,1.6l0,0C40.6,91.5,41.3,90.9,41.4,90z M32.9,69c0-0.8-0.6-1.5-1.4-1.6h-0.1c-0.8,0-1.6,0.6-1.6,1.4c0,0,0,0,0,0.1
	c0,0.9,0.7,1.6,1.5,1.6l0,0C32.2,70.6,32.9,69.9,32.9,69L32.9,69z M35.6,67.4c-0.9,0-1.6,0.7-1.6,1.5l0,0c0,0.8,0.7,1.5,1.5,1.5
	c0.9,0,1.6-0.7,1.6-1.5l0,0C37.2,68.1,36.5,67.4,35.6,67.4C35.7,67.4,35.6,67.4,35.6,67.4L35.6,67.4z M24.5,81.5
	c0-0.8-0.6-1.5-1.4-1.5c-0.1,0-0.1,0-0.2,0c-0.8,0-1.5,0.7-1.5,1.5c0,0.9,0.7,1.6,1.6,1.6C23.8,83.1,24.5,82.4,24.5,81.5L24.5,81.5z
	 M48.2,91.5c0.8,0,1.5-0.6,1.6-1.5l0,0c0-0.8-0.6-1.5-1.4-1.5c0,0,0,0-0.1,0c-0.8-0.1-1.6,0.5-1.7,1.4l0,0
	C46.6,90.8,47.3,91.5,48.2,91.5L48.2,91.5z M32.9,90c0.1-0.8-0.5-1.5-1.3-1.6h-0.1c-0.8-0.1-1.6,0.5-1.6,1.3v0.1
	c0,0.9,0.6,1.6,1.5,1.6l0,0C32.2,91.5,32.8,90.9,32.9,90L32.9,90z M7.7,110.9c0-0.8-0.6-1.5-1.5-1.5c0,0,0,0-0.1,0
	c-0.8,0-1.5,0.6-1.5,1.4v0.1c0,0.8,0.6,1.6,1.5,1.6S7.7,111.9,7.7,110.9C7.7,111.1,7.7,111,7.7,110.9L7.7,110.9z M6.2,84.2
	c-0.8-0.1-1.5,0.5-1.5,1.3c0,0.1,0,0.1,0,0.2c-0.1,0.8,0.6,1.6,1.4,1.6s1.6-0.6,1.6-1.4c0-0.1,0-0.2,0-0.2c0.1-0.8-0.5-1.5-1.3-1.5
	C6.3,84.2,6.2,84.2,6.2,84.2z M14.6,80c-0.8,0-1.5,0.6-1.6,1.4c0,0,0,0,0,0.1c0,0.8,0.7,1.5,1.5,1.5s1.5-0.6,1.5-1.4l0,0
	C16.1,80.8,15.5,80.1,14.6,80L14.6,80z M56.6,96.8c-0.8,0-1.5,0.7-1.5,1.5s0.7,1.5,1.5,1.5s1.5-0.6,1.5-1.5v-0.1
	C58.1,97.5,57.4,96.8,56.6,96.8C56.6,96.9,56.6,96.9,56.6,96.8L56.6,96.8z M22.9,75.8c-0.8,0-1.4,0.6-1.4,1.4s0.7,1.5,1.5,1.5
	s1.5-0.7,1.5-1.5C24.5,76.5,23.8,75.8,22.9,75.8C23,75.9,22.9,75.9,22.9,75.8L22.9,75.8z M20.3,81.6c0.1-0.8-0.5-1.5-1.3-1.6h-0.1
	c-0.8,0-1.5,0.6-1.6,1.4c0,0.8,0.6,1.5,1.4,1.6l0,0C19.5,83.1,20.2,82.5,20.3,81.6C20.2,81.7,20.2,81.7,20.3,81.6L20.3,81.6z
	 M2,95.6c0.8,0,1.5-0.6,1.5-1.4S2.9,92.7,2,92.7s-1.5,0.6-1.5,1.5l0,0c0,0.8,0.6,1.5,1.4,1.5C1.9,95.6,2,95.6,2,95.6z M52.4,92.7
	c-0.8,0-1.4,0.6-1.5,1.4l0,0c-0.1,0.8,0.5,1.4,1.2,1.5c0.1,0,0.1,0,0.2,0c0.8,0,1.4-0.6,1.5-1.3c0,0,0,0,0-0.1
	C53.9,93.4,53.3,92.7,52.4,92.7C52.5,92.7,52.4,92.7,52.4,92.7z M52.3,96.9c-0.8,0-1.4,0.7-1.4,1.5l0,0c0,0.8,0.6,1.4,1.4,1.4
	c0.1,0,0.1,0,0.2,0c0.8,0,1.4-0.7,1.4-1.5l0,0C53.8,97.5,53.1,96.9,52.3,96.9z M41.2,94.1c0-0.8-0.6-1.4-1.4-1.4l0,0
	c-0.8,0-1.4,0.6-1.4,1.4c0,0,0,0,0,0.1c0,0.8,0.6,1.5,1.4,1.5h0.1C40.6,95.6,41.2,94.9,41.2,94.1z M45.4,85.7c0-0.8-0.7-1.4-1.5-1.4
	s-1.4,0.6-1.4,1.4s0.5,1.4,1.3,1.5h0.1C44.7,87.2,45.4,86.6,45.4,85.7C45.4,85.8,45.4,85.8,45.4,85.7z M6.1,116.6
	c0.8,0,1.5-0.6,1.5-1.4s-0.7-1.4-1.5-1.4c-0.7,0-1.4,0.5-1.4,1.2c0,0.1,0,0.1,0,0.2c-0.1,0.7,0.5,1.3,1.2,1.4
	C6,116.6,6,116.6,6.1,116.6z M28.6,81.6c0-0.8-0.7-1.4-1.5-1.4s-1.4,0.7-1.4,1.4c0,0.7,0.5,1.4,1.3,1.4c0,0,0,0,0.1,0
	C27.9,83,28.6,82.4,28.6,81.6C28.6,81.6,28.6,81.5,28.6,81.6L28.6,81.6z M37,81.6c0-0.8-0.6-1.4-1.4-1.4c-0.8,0-1.4,0.6-1.4,1.4
	c0,0,0,0,0,0.1c0,0.8,0.6,1.4,1.4,1.4l0,0C36.3,83,37,82.3,37,81.6C37,81.5,37,81.5,37,81.6L37,81.6z M37,111c0-0.8-0.6-1.4-1.4-1.4
	c-0.8,0-1.4,0.6-1.5,1.3s0.6,1.4,1.3,1.5l0,0C36.3,112.4,37,111.8,37,111L37,111z M48.2,95.5c0.8,0,1.4-0.6,1.4-1.3l0,0
	c0-0.8-0.6-1.5-1.3-1.5c-0.8,0-1.5,0.6-1.5,1.3C46.7,94.8,47.3,95.5,48.2,95.5C48.1,95.5,48.1,95.5,48.2,95.5z M39.8,70.3
	c0.8,0,1.4-0.6,1.4-1.4s-0.6-1.4-1.4-1.4c-0.8,0-1.4,0.5-1.4,1.3c0,0.1,0,0.1,0,0.2C38.4,69.8,39,70.4,39.8,70.3L39.8,70.3z
	 M7.5,119.4c0-0.8-0.6-1.4-1.3-1.4l0,0c-0.8,0-1.4,0.6-1.4,1.3c0,0.8,0.6,1.4,1.3,1.4C6.9,120.8,7.5,120.2,7.5,119.4z M3.3,85.8
	c0-0.8-0.6-1.4-1.3-1.4l0,0c-0.7-0.1-1.4,0.5-1.4,1.2v0.1C0.7,86.5,1.3,87,2.1,87C2.7,86.9,3.3,86.4,3.3,85.8L3.3,85.8z M32.7,81.5
	c0-0.8-0.6-1.4-1.3-1.4S30,80.6,30,81.4c0,0.1,0,0.1,0,0.2c0,0.8,0.7,1.4,1.4,1.3C32.2,82.9,32.7,82.2,32.7,81.5z M52.4,91.3
	c0.7,0,1.3-0.6,1.4-1.3c0-0.7-0.5-1.4-1.3-1.4h-0.1c-0.7,0-1.4,0.6-1.4,1.3l0,0C51,90.7,51.6,91.3,52.4,91.3z M39.8,112.3
	c0.7,0,1.3-0.6,1.3-1.3c0-0.7-0.6-1.3-1.3-1.3h-0.1c-0.7,0-1.3,0.6-1.3,1.3v0.1C38.5,111.7,39,112.3,39.8,112.3L39.8,112.3
	L39.8,112.3z M57.9,94.1c0-0.7-0.6-1.3-1.3-1.3h-0.1c-0.7,0-1.3,0.6-1.3,1.3c0,0,0,0,0,0.1c0,0.7,0.6,1.3,1.4,1.3
	C57.4,95.5,57.9,94.8,57.9,94.1z M2,70.3c0.8,0,1.3-0.7,1.3-1.5l0,0c0-0.7-0.6-1.2-1.3-1.2H1.9c-0.7,0-1.3,0.6-1.3,1.3
	c0,0,0,0,0,0.1C0.7,69.7,1.3,70.3,2,70.3z M3.3,119.4c0.1-0.7-0.5-1.3-1.2-1.4c-0.1,0-0.2,0-0.2,0c-0.7,0.1-1.3,0.7-1.2,1.5
	c0.1,0.6,0.6,1.2,1.2,1.2c0.7,0.1,1.3-0.4,1.4-1.1C3.3,119.5,3.3,119.4,3.3,119.4L3.3,119.4z M10.3,112.3c0.7,0,1.3-0.5,1.4-1.2l0,0
	c0.1-0.7-0.4-1.3-1.1-1.4h-0.1c-0.7,0-1.4,0.5-1.4,1.3c0,0,0,0,0,0.1C9,111.7,9.6,112.3,10.3,112.3L10.3,112.3z M31.3,74.4
	c0.7,0,1.3-0.5,1.3-1.2v-0.1c0-0.7-0.5-1.3-1.2-1.3h-0.1c-0.7,0-1.3,0.5-1.3,1.2l0,0C30,73.8,30.5,74.4,31.3,74.4L31.3,74.4
	L31.3,74.4z M41,106.8c0-0.7-0.5-1.3-1.3-1.4l0,0c-0.7,0-1.2,0.5-1.3,1.2l0,0c-0.1,0.7,0.4,1.2,1.1,1.3c0.1,0,0.2,0,0.2,0
	C40.4,108,41,107.5,41,106.8L41,106.8z M15.8,119.4c0-0.7-0.6-1.2-1.3-1.3c-0.7,0-1.3,0.6-1.3,1.4c0,0.7,0.6,1.2,1.3,1.2
	C15.3,120.6,15.8,120.1,15.8,119.4z M2,91.2c0.7,0,1.2-0.5,1.2-1.2S2.7,88.7,2,88.7S0.7,89.3,0.7,90c0,0,0,0,0,0.1
	C0.7,90.7,1.2,91.2,2,91.2L2,91.2z M44,67.7c-0.7,0-1.2,0.5-1.3,1.2c0,0,0,0,0,0.1c-0.1,0.6,0.4,1.2,1.1,1.2c0.1,0,0.1,0,0.2,0
	c0.6,0.1,1.2-0.4,1.3-1.1c0-0.1,0-0.1,0-0.2C45.3,68.2,44.7,67.7,44,67.7C44,67.6,44,67.6,44,67.7z M45.3,94.2
	c0-0.7-0.6-1.3-1.3-1.3s-1.3,0.5-1.3,1.2l0,0c-0.1,0.6,0.4,1.2,1,1.3c0.1,0,0.2,0,0.2,0c0.6,0,1.2-0.5,1.2-1.1
	C45.2,94.2,45.2,94.2,45.3,94.2L45.3,94.2z M49.5,85.7c0-0.7-0.6-1.2-1.3-1.2S47,85.1,47,85.8l0,0c0,0.6,0.5,1.2,1.1,1.2
	c0,0,0,0,0.1,0C48.9,87,49.4,86.5,49.5,85.7C49.4,85.8,49.4,85.7,49.5,85.7L49.5,85.7z M35.6,74.3c0.7,0,1.2-0.5,1.2-1.2
	s-0.5-1.2-1.2-1.3c-0.7,0-1.2,0.5-1.3,1.2v0.1C34.3,73.8,34.9,74.3,35.6,74.3C35.5,74.3,35.6,74.3,35.6,74.3z M41,81.5
	c0-0.7-0.6-1.2-1.3-1.2c-0.6,0-1.1,0.5-1.2,1.1c-0.1,0.7,0.4,1.3,1.1,1.4s1.3-0.4,1.4-1.1C41,81.7,41,81.6,41,81.5z M49.4,68.9
	c0-0.7-0.5-1.2-1.2-1.3c-0.6,0-1.2,0.5-1.2,1.2s0.5,1.2,1.2,1.3C48.9,70.1,49.4,69.6,49.4,68.9L49.4,68.9z M11.5,115.2
	c0-0.6-0.4-1.1-1-1.2c0,0,0,0-0.1,0c-0.6-0.1-1.2,0.4-1.3,1.1c0,0,0,0,0,0.1c0,0.6,0.5,1.2,1.1,1.2
	C10.9,116.4,11.5,115.9,11.5,115.2L11.5,115.2z M27.2,76.2c-0.6,0-1.2,0.5-1.2,1.1s0.5,1.1,1.1,1.2c0.7,0,1.2-0.5,1.2-1.2l0,0
	C28.3,76.7,27.8,76.2,27.2,76.2L27.2,76.2z M11.4,118.9c-0.7-0.7-1.4-0.8-1.9-0.3C9,119,9,119.8,9.4,120.2c0,0,0,0,0.1,0.1
	c0.6,0.5,1.2,0.4,1.9-0.4C11.5,119.5,11.5,119.2,11.4,118.9z M43.9,105.6c-0.6,0-1.1,0.5-1.1,1.1l0,0c0,0.6,0.6,1.1,1.2,1.1l0,0
	c0.6,0,1.1-0.5,1.1-1.1v-0.1c0-0.6-0.4-1-0.9-1.1C44.1,105.6,44,105.6,43.9,105.6L43.9,105.6z M52.4,118.2c-0.6,0-1.1,0.5-1.1,1.1
	l0,0c0,0.6,0.5,1.1,1.1,1.1s1.1-0.5,1.1-1.1S53,118.2,52.4,118.2L52.4,118.2L52.4,118.2z M52.4,70c0.6,0,1.1-0.5,1.1-1.1
	c0,0,0,0,0-0.1c0-0.6-0.5-1.1-1.1-1.1h-0.1c-0.6,0-1.1,0.5-1,1.1C51.2,69.5,51.7,70,52.4,70C52.4,70.1,52.4,70.1,52.4,70L52.4,70z
	 M40.9,119.3c0-0.6-0.5-1.1-1.1-1.1h-0.1c-0.6,0-1.1,0.5-1.1,1.1s0.5,1.1,1.1,1.2C40.4,120.5,40.9,120,40.9,119.3
	C40.9,119.4,40.9,119.4,40.9,119.3L40.9,119.3z M36.6,106.7c0-0.6-0.5-1.1-1.1-1.1s-1.1,0.5-1.1,1.2l0,0c0,0.6,0.5,1.1,1.1,1.1
	C36.2,107.9,36.7,107.4,36.6,106.7C36.7,106.7,36.7,106.7,36.6,106.7L36.6,106.7z M57.6,69.1c0.1-0.6-0.3-1.1-0.9-1.2
	c-0.6-0.1-1.1,0.3-1.2,0.9v0.1c-0.1,0.5,0.2,1.1,0.8,1.2c0.1,0,0.1,0,0.2,0c0.5,0.1,1.1-0.2,1.2-0.8C57.6,69.2,57.6,69.1,57.6,69.1
	L57.6,69.1z M52.4,116.2c0.6,0,1-0.5,1-1.1c-0.1-0.5-0.5-1-1.1-1s-1.1,0.5-1.1,1.1s0.4,1,1,1C52.3,116.2,52.3,116.2,52.4,116.2
	L52.4,116.2z M56.6,63.6c-0.6,0-1.1,0.4-1.1,1l0,0c0,0.6,0.4,1,0.9,1.1c0,0,0,0,0.1,0c0.5,0.1,1.1-0.3,1.1-0.9v-0.1
	C57.7,64.2,57.3,63.7,56.6,63.6C56.7,63.6,56.7,63.6,56.6,63.6L56.6,63.6z M39.8,74.2c0.6,0,1.1-0.5,1.1-1l0,0
	c0-0.6-0.5-1.1-1.1-1.1s-1.1,0.5-1.1,1.1s0.4,1,0.9,1.1C39.7,74.2,39.7,74.2,39.8,74.2z M31.4,78.4c0.6,0,1-0.4,1.1-0.9
	c0-0.1,0-0.1,0-0.2c0-0.6-0.5-1-1.1-1s-1,0.4-1,1C30.3,77.8,30.7,78.3,31.4,78.4C31.3,78.4,31.3,78.4,31.4,78.4L31.4,78.4z
	 M35.6,78.4c0.6,0,1-0.5,1-1.1s-0.5-1-1.1-1s-1,0.4-1,1c0,0,0,0,0,0.1C34.5,78,34.9,78.4,35.6,78.4L35.6,78.4L35.6,78.4z M52.4,86.8
	c0.6,0,1-0.4,1-1s-0.5-1.1-1.1-1.1s-1,0.5-1,1.1C51.3,86.3,51.7,86.7,52.4,86.8C52.3,86.7,52.3,86.7,52.4,86.8L52.4,86.8z M44,80.5
	c-0.6,0-1,0.4-1,1s0.4,1,1,1s1-0.4,1-1S44.6,80.5,44,80.5z M57.5,90c0-0.5-0.3-1-0.8-1h-0.1c-0.5,0-1,0.3-1,0.8s0.4,0.9,0.9,1
	C57,90.9,57.5,90.5,57.5,90z M40.6,77.8c0.1-0.9,0-1.2-0.5-1.4c-0.4-0.1-0.9,0-1.2,0.4c-0.2,0.4-0.1,0.9,0.2,1.2
	C39.6,78.4,39.9,78.4,40.6,77.8z M13.6,64.7c0.3,0.8,0.6,1,1.1,0.9c0.5,0,0.8-0.4,0.8-0.9c0-0.4-0.3-0.8-0.7-0.9
	C14.2,63.7,14,63.9,13.6,64.7L13.6,64.7z M47.3,81.5c0,0.5,0.3,0.9,0.8,0.9c0,0,0,0,0.1,0c0.5,0,0.9-0.4,0.9-0.9s-0.3-0.9-0.8-0.9
	h-0.1C47.7,80.6,47.3,81,47.3,81.5L47.3,81.5z M10.8,65.5c0.5-0.4,0.7-0.8,0.3-1.3c-0.2-0.4-0.7-0.5-1.1-0.3c-0.4,0.2-0.6,0.6-0.4,1
	C9.6,65.4,9.9,65.6,10.8,65.5z M49,110.9c0-0.5-0.4-0.8-0.9-0.8s-0.9,0.4-0.9,0.9c0,0,0,0,0,0.1c0,0.5,0.4,0.8,0.9,0.8
	C48.7,111.8,49.1,111.4,49,110.9C49.1,110.9,49.1,110.9,49,110.9z M44.8,73.1c0-0.5-0.4-0.9-0.9-0.8s-0.9,0.4-0.8,0.9
	c0,0.5,0.4,0.9,0.9,0.8l0,0C44.5,74,44.8,73.6,44.8,73.1z M49,73.1c-0.2-0.5-0.5-0.9-1-0.7c-0.4,0.1-0.6,0.4-0.6,0.7
	c0,0.4,0.3,0.8,0.7,0.8C48.6,74,48.9,73.7,49,73.1L49,73.1z M6.2,63.9c-0.4,0-0.8,0.3-0.8,0.7c0,0.5,0.3,0.8,0.8,0.9l0,0
	c0.4,0,0.8-0.4,0.8-0.8C6.9,64.3,6.6,63.9,6.2,63.9L6.2,63.9z M47.3,119.4c0.2,0.5,0.4,0.8,1,0.7c0.4-0.1,0.7-0.4,0.6-0.8l0,0
	c0-0.4-0.3-0.7-0.7-0.7C47.7,118.5,47.5,118.9,47.3,119.4L47.3,119.4z M51.5,81.6c0.2,0.5,0.5,0.8,1,0.7c0.4-0.1,0.7-0.5,0.6-0.8
	c0-0.3-0.2-0.6-0.6-0.7C52,80.7,51.7,81,51.5,81.6L51.5,81.6z M44,110.2c-0.4,0-0.7,0.3-0.7,0.7l0,0c0,0.4,0.2,0.7,0.6,0.8
	c0.4,0,0.7-0.2,0.8-0.6c0-0.1,0-0.1,0-0.2C44.7,110.6,44.4,110.2,44,110.2z M56.5,85c-0.4,0-0.6,0.3-0.6,0.7l0,0
	c0,0.4,0.4,0.7,0.7,0.7s0.7-0.4,0.7-0.7C57.3,85.3,57,85,56.5,85z M43.4,77.8c0.4,0.3,0.8,0.3,1.1,0c0.2-0.2,0.2-0.6,0-0.9
	s-0.5-0.4-0.8-0.2C43.2,76.9,43.2,77.3,43.4,77.8z M43.3,114.8c-0.1,0.4-0.1,0.8,0.4,0.9c0.3,0.1,0.6,0,0.8-0.3
	c0.2-0.2,0.1-0.6-0.1-0.8C44,114.3,43.7,114.4,43.3,114.8L43.3,114.8z M52.3,72.3c-0.5,0.2-0.8,0.4-0.6,0.9s0.6,0.5,1,0.4
	C53.2,72.9,53.2,72.9,52.3,72.3L52.3,72.3z M48.2,76.6c-0.5,0.1-0.8,0.3-0.7,0.8c0.1,0.3,0.3,0.5,0.6,0.5s0.6-0.2,0.6-0.4
	C48.9,77,48.7,76.8,48.2,76.6L48.2,76.6z M2.6,64.7C2.5,64.3,2.3,64,1.8,64c-0.3,0-0.6,0.3-0.6,0.6s0.2,0.6,0.5,0.6
	C2.2,65.4,2.5,65.2,2.6,64.7z M56,73.2c0.1,0.4,0.4,0.7,0.8,0.6c0.3-0.1,0.5-0.4,0.4-0.7c0-0.3-0.2-0.5-0.5-0.5
	C56.3,72.5,56.1,72.7,56,73.2z M52.8,77c-0.2-0.2-0.5-0.2-0.8-0.1c-0.2,0.3-0.3,0.6-0.1,0.8c0.2,0.2,0.6,0.3,0.8,0l0,0
	C52.9,77.5,52.9,77.2,52.8,77z M48.1,115.8c0.3,0,0.5-0.2,0.6-0.5s-0.1-0.6-0.4-0.6c-0.3-0.1-0.5,0.1-0.6,0.4v0.1
	C47.6,115.5,47.8,115.7,48.1,115.8L48.1,115.8z M56.1,81.1c-0.2,0.4-0.2,0.7,0.2,0.9c0.2,0.1,0.5,0,0.7-0.2c0.2-0.3,0.1-0.6-0.2-0.8
	C56.6,81,56.3,81,56.1,81.1z M43.5,119c-0.1,0.4-0.1,0.8,0.5,0.8c0.2,0,0.4-0.1,0.4-0.4v-0.1C44.4,118.9,44,118.8,43.5,119z
	 M57.1,77.3c-0.5-0.6-0.5-0.6-0.9,0.1C56.6,77.8,56.6,77.8,57.1,77.3z"/>
<path class="st3" d="M22,120.9c-0.5-0.4-0.8-0.9-0.8-1.6c0-0.8,0.6-1.4,1.4-1.6c0.9-0.2,1.8,0.4,2,1.3c0.1,0.6-0.1,1.3-0.6,1.7
	c-0.2,0.2-0.5,0.2-0.6,0.4h-1C22.4,121,22.2,120.9,22,120.9z"/>
<path class="st3" d="M26.7,121.1c-0.1-0.2-0.3-0.2-0.5-0.3c-0.6-0.4-0.9-1.2-0.7-1.9c0.2-0.7,0.9-1.2,1.6-1.2s1.3,0.5,1.6,1.2
	c0.2,0.7-0.1,1.5-0.7,1.9c-0.2,0.1-0.4,0.2-0.6,0.3H26.7z"/>
<path class="st3" d="M31.1,121.1c-0.1-0.1-0.3-0.1-0.4-0.2c-0.8-0.4-1.2-1.3-0.9-2.2c0.4-0.8,1.3-1.2,2.2-0.9
	c0.8,0.4,1.2,1.3,0.9,2.2c-0.1,0.2-0.2,0.3-0.3,0.4s-0.3,0.3-0.4,0.4c-0.2,0.1-0.5-0.1-0.5,0.2L31.1,121.1z"/>
<path class="st4" d="M36.5,63.5c0.5,0.4,0.7,1.2,0.5,1.8c-0.3,0.8-1.2,1.1-2,0.8c-0.7-0.4-1-1.2-0.7-1.9c0.1-0.2,0.3-0.4,0.4-0.6
	c0.1,0,0.3,0,0.3-0.2h1.2C36.1,63.5,36.3,63.4,36.5,63.5z"/>
<path class="st5" d="M40.5,63.5c0.1,0.1,0.2,0.2,0.3,0.3c0.5,0.6,0.4,1.4-0.2,1.9c-0.5,0.4-1.2,0.4-1.7,0s-0.6-1.2-0.3-1.8
	c0.1-0.2,0.3-0.3,0.4-0.5c0.2-0.1,0.5,0,0.6-0.2h0.2C40,63.5,40.3,63.4,40.5,63.5z"/>
<path class="st6" d="M113.1,96.8h4.7l-5.7,23.9h-3.9l-3.5-12.4h-0.2c-1.2,4.1-2.3,8.2-3.5,12.4h-3.9l-5.7-23.9H96l3.3,14.9h0.2
	c1.1-3.9,2-7.9,3-11.8h4.2l3,11.9h0.1L113.1,96.8z"/>
<path class="st6" d="M191.5,120.7l-9.4-15l-0.2,0.1v15h-4.5v-24h4.4l9.4,15.1l0.2-0.1v-15h4.5v23.8L191.5,120.7z"/>
<path class="st6" d="M138.5,120.7v-24h7.3c4.5,0,7.8,2.3,9.2,6.6c1.3,3.8,1.2,8-0.3,11.8c-1,2.9-3.5,5.1-6.6,5.6
	c-0.3,0.1-0.7,0.1-1,0.1H139C138.8,120.7,138.7,120.7,138.5,120.7z M143.1,116.7h2.6c2.2,0.2,4.2-1.3,4.8-3.4
	c0.4-1.1,0.6-2.3,0.6-3.4c0.2-1.9,0-3.8-0.7-5.6c-0.5-1.7-1.9-3-3.7-3.3c-1.2-0.1-2.5-0.1-3.7,0L143.1,116.7z"/>
<path class="st6" d="M128.6,64.2c0.3,0,0.4-0.1,0.6-0.1h3.8c0.1,0.3,0.1,0.7,0.1,1.1c0,4.9,0,9.9,0,14.8c0,0.5,0,1,0.1,1.5
	c0.2,1.3,1.2,2.3,2.5,2.6c0.8,0.2,1.7,0.2,2.6,0c1.4-0.3,2.4-1.5,2.4-2.9c0-0.3,0-0.7,0-1c0-4.9,0-9.9,0-14.8c0-0.4,0-0.7,0.1-1.1
	h4.4c0.2,0.2,0.1,0.5,0.1,0.7c0,5.2,0,10.4,0,15.6c0,1.2-0.2,2.4-0.7,3.5c-1,2.3-3.2,3.9-5.8,4.2c-1.6,0.3-3.2,0.2-4.8-0.2
	c-3.2-0.7-5.5-3.5-5.5-6.8c0-0.7,0-1.5,0-2.2c0-4.7,0-9.3,0-14C128.6,64.7,128.6,64.5,128.6,64.2z"/>
<path class="st6" d="M109.1,80.2l4-0.9c0.2,0.7,0.3,1.3,0.5,2c0.7,2.2,3,3.5,5.2,2.8c0.3-0.1,0.5-0.2,0.8-0.3
	c1.2-0.5,1.8-1.9,1.3-3.2c-0.2-0.4-0.5-0.8-0.9-1.1c-0.7-0.4-1.4-0.8-2.2-1.1c-1.4-0.6-2.8-1.1-4.2-1.7c-1.8-0.7-3.2-2.2-3.6-4.1
	c-0.9-3.7,1.4-7.4,5.2-8.3c0.3-0.1,0.5-0.1,0.8-0.1c1.7-0.3,3.4-0.1,5,0.5c2.6,1.2,3.7,3.3,4,6c0,0.3,0,0.6,0,0.9
	c-1.3,0.4-2.7,0.6-4,0.9c-0.1-0.8-0.3-1.5-0.6-2.3c-0.6-1.6-2.4-2.5-4-1.9c-0.2,0.1-0.5,0.2-0.7,0.3c-1.1,0.6-1.6,1.9-1.1,3.1
	c0.2,0.4,0.5,0.7,0.8,0.9c0.5,0.4,1.1,0.6,1.7,0.9c1.6,0.7,3.3,1.2,4.9,2c2.5,1,4,3.5,3.7,6.2c0,2.7-1.7,5.1-4.2,6
	c-2.6,1.1-5.6,1.1-8.1-0.1C110.5,86.2,108.8,83.2,109.1,80.2z"/>
<path class="st6" d="M83.5,96.6c3.1,0.3,5.6,2.8,5.9,6c0.1,0.5,0.3,1,0.1,1.7l-4,0.8c-0.4-0.8-0.3-1.7-0.7-2.4
	c-0.4-1.2-1.5-2-2.8-1.8c-0.6,0-1.2,0.1-1.8,0.3c-0.8,0.4-1.2,1.2-1.2,2c0,0.9,0.5,1.7,1.3,2.1c1.7,0.8,3.4,1.5,5.1,2.1
	c1.5,0.6,2.8,1.4,3.8,2.6c0.5,0.6,0.8,1.3,0.9,2c0.6,2.3,0,4.8-1.6,6.5c-1,1-2.3,1.7-3.7,2c-2.4,0.7-4.9,0.4-7.1-0.7
	c-1.9-1-3.3-2.8-3.8-4.9c-0.2-0.8-0.2-1.6-0.2-2.4l3.9-0.8c0.5,0.5,0.3,1.2,0.5,1.8c0.3,1.3,1.3,2.4,2.6,2.8
	c1.3,0.5,2.8,0.3,3.9-0.5c1.1-0.7,1.3-2.2,0.6-3.3c-0.2-0.3-0.5-0.5-0.8-0.7c-1.5-0.8-3-1.4-4.6-2c-1.4-0.4-2.6-1.1-3.7-2
	c-1.5-1.4-2.2-3.6-1.7-5.6c0.5-3.1,3.1-5.5,6.3-5.7L83.5,96.6z"/>
<path class="st6" d="M167.4,88.1h-4.8l-1.9-5.7h-7l-1.9,5.7h-4.7l7.9-24c1.5,0,2.9,0,4.4,0.1L167.4,88.1z M157.3,71.5l-2.1,6.6h4.3
	L157.3,71.5z"/>
<path class="st6" d="M124.7,100.8v5.7h6.6v4.1h-6.6v5.9h10.8v4.1h-15.3V96.8h15.3v4H124.7z"/>
<path class="st6" d="M159,96.8h15.3v4.1h-10.8v5.7h6.6v4.1h-6.6v5.9h10.8v4.1H159V96.8z"/>
<path class="st6" d="M82.9,79.9l5-15.8h4.7L84.8,88H81l-7.9-23.8c0.2-0.1,0.4-0.2,0.6-0.2h4L82.9,79.9z"/>
<path class="st6" d="M107.3,67.8h-4.1v16.7h4.1v3.6H94.4v-3.6h4.1V67.8h-4.1v-3.6h12.9V67.8z"/>
<path class="st6" d="M169.8,88.1v-24h4.5V84h8.5v4.1H169.8z"/>
<path class="st4" d="M58.5,111.4c-0.1,0.1-0.2,0.3-0.2,0.5c-0.4,0.6-1,1-1.7,1c-1,0-1.8-0.7-2-1.7c-0.1-0.9,0.4-1.8,1.3-2.1
	c0.9-0.3,2,0.1,2.4,0.9c0.1,0.2,0.2,0.3,0.2,0.5V111.4z"/>
<path class="st4" d="M58.5,106.8c-0.3,1.2-0.8,1.8-1.7,1.9c-1.1,0.2-2-0.6-2.2-1.6c-0.1-0.9,0.4-1.7,1.2-2.1c0.9-0.4,2,0,2.4,0.9
	c0.1,0.2,0.2,0.5,0.3,0.7V106.8z"/>
<path class="st6" d="M83.5,96.6h-2.8C81.7,96.4,82.6,96.4,83.5,96.6z"/>
<path class="st6" d="M12.6,97.8c0.2-0.8,0.9-1.4,1.7-1.5c1-0.1,1.9,0.4,2.2,1.3c0.5-0.6,0.8-1.4,1.7-1.4h1c0.7,0,1,0.6,1.5,1
	c0.4-0.6,0.9-1.1,1.6-1.3c-1.2-0.6-1.6-1.4-1.4-2.3c0.4-1,1.5-1.6,2.5-1.3c0.5,0.2,1,0.6,1.2,1.1c0.3,1,0,1.7-1.3,2.5
	c0.7,0.2,1.2,0.7,1.6,1.4c0.6-1.1,2-1.6,3.2-1c0.5,0.3,0.9,0.7,1.1,1.2c0.5-1.1,1.9-1.6,3-1.1c0.5,0.2,0.9,0.7,1.1,1.2
	c0.3-0.9,1.2-1.5,2.2-1.4c0.9,0,1.8,0.7,2,1.6c1-1.4,1.7-1.7,2.8-1.3c0.9,0.3,1.5,1.2,1.4,2.1s-0.8,1.6-1.7,1.7h-0.8
	c-0.8-0.1-1.2-0.7-1.6-1.4c-1.2,2.1-3,2.2-4.3,0.2c-0.4,0.8-1.2,1.4-2.1,1.4s-1.6-0.6-2-1.3c-0.3,0.5-0.7,0.9-1.2,1.2
	c0.3,0.4,0.8,0.5,1,1c-0.2,0.1-0.3,0.2-0.2,0.4l0.5,0.8l-0.2,0.7c-0.1,0.6-0.6,0.9-1,1.2c0.6,0.6,1.3,1,1.2,2v0.4
	c0.1,0.8-0.5,1.3-1.1,1.8c0.4,0.5,1,0.9,1.1,1.7c0.2-0.5,0.6-1,1.1-1.3c0.9-0.4,2.1,0,2.5,0.9c0.1,0.3,0.2,0.6,0.2,1
	c-0.1,0.9-0.7,1.5-1.5,1.7c-0.9,0.2-1.6-0.3-2.2-1.4c-0.3,0.8-0.7,1.6-1.7,1.7h-1.3c-0.7,0-1-0.6-1.5-1.2c-0.4,0.8-1.3,1.3-2.2,1.2
	c-0.6,0-1.1-0.3-1.5-0.7c-0.9-1-0.7-2.4,0.6-3.4c-0.5-0.4-0.9-0.8-1.2-1.4c-0.4,0.7-1.2,1.2-2,1.2c-0.5,0-1.1-0.3-1.4-0.7
	c-0.9-1-0.6-2.3,0.7-3.3c-0.6-0.3-1.1-0.8-1.4-1.5c-1.4,1.9-2.9,1.8-4.2-0.1c-0.9,1.2-1.7,1.6-2.7,1.3c-0.8-0.3-1.4-1.1-1.3-2
	c0-0.9,0.6-1.7,1.4-1.9c1-0.3,1.8,0.1,2.6,1.3c0.3-0.7,0.9-1.2,1.6-1.6c-0.7-0.3-1.3-0.7-1.4-1.6L12.6,97.8z M15,100.4
	c0.7,0.2,1.3,0.7,1.6,1.4c0.3-0.6,0.7-1.1,1.2-1.5c-0.6-0.3-0.9-0.8-1.3-1.3C16.2,99.7,15.7,100.2,15,100.4z M21.7,104.7l-1-1
	c-0.3,0.6-0.8,0.8-1.2,1.1c0.6,0.2,0.8,0.7,1.2,1.1C21,105.5,21.3,105,21.7,104.7L21.7,104.7z M25,110.1c0.3-0.5,0.6-0.9,1-1.2
	l-1-0.9c-0.3,0.4-0.6,0.7-1,1C24.4,109.3,24.7,109.7,25,110.1z M20.6,101.3l1-0.9l-0.9-0.9c-0.3,0.4-0.7,0.7-1.1,1
	C20,100.7,20.4,100.9,20.6,101.3L20.6,101.3z M25.1,101.4l1.1-1c-0.4-0.3-0.8-0.6-1.1-1.1c-0.2,0.4-0.5,0.8-0.9,1.1
	C24.5,100.7,24.8,101.1,25.1,101.4L25.1,101.4z M26.1,104.6c-0.4-0.3-0.7-0.6-1.1-0.9c-0.2,0.4-0.5,0.7-0.9,1l0.9,0.9
	C25.4,105.2,25.8,104.9,26.1,104.6L26.1,104.6z"/>
<path class="st4" d="M8.4,72.6c0.1-0.8,0.8-1.4,1.6-1.5c1.1-0.2,2.1,0.5,2.5,1.5c0.3-1,1.2-1.6,2.2-1.5s1.8,0.7,2,1.7
	c0.6-1.3,1.4-1.9,2.5-1.6c1,0.2,1.7,1.1,1.6,2.1c0,1-0.7,1.9-1.7,2c-1.1,0.2-1.9-0.4-2.4-1.7c-0.2,1-1.2,1.8-2.2,1.8s-1.8-0.6-2-1.6
	c-0.5,0.7-0.9,1.5-1.9,1.5H9.9c-0.8-0.1-1.4-0.7-1.5-1.5V72.6z"/>
<path class="st4" d="M8.4,72.6v1.1c-0.1,0-0.2,0.1-0.2,0.1c-0.3,0.7-0.9,1.2-1.6,1.5H5.9C5.7,75,5.4,75.1,5.2,75
	C4.4,74.6,4,73.8,4,73c0.1-0.9,0.7-1.6,1.6-1.9c0.9-0.2,1.8,0.1,2.3,0.8C8,72.2,8,72.5,8.4,72.6z"/>
<path class="st4" d="M46.2,102.4c0-1.1,0.9-1.9,2-1.9c0.1,0,0.1,0,0.2,0c1.1,0,1.9,0.9,1.9,2s-0.9,2.1-2,2.1l0,0
	c-1.1,0-2-0.8-2.1-1.9v-0.1L46.2,102.4z"/>
<path class="st4" d="M5.9,75.3h0.7c1.4,0.5,2,1.7,1.4,3c-0.4,0.8-1.3,1.3-2.2,1.1c-0.9-0.1-1.5-0.8-1.6-1.7v-0.9
	C4.3,76,5,75.3,5.9,75.3z"/>
<path class="st4" d="M21,85.4c0.2-1.1,1.2-1.8,2.2-1.7c1,0.2,1.8,1.1,1.8,2.1s-0.8,1.9-1.8,2c-1.1,0.1-2-0.6-2.2-1.7c0,0,0,0,0-0.1
	V85.4z"/>
<path class="st4" d="M9.9,75.1h0.7c0.1,0.2,0.4,0.3,0.6,0.4c0.8,0.4,1.3,1.3,1.1,2.2c-0.1,1.1-1.1,1.9-2.2,1.7
	c-0.8-0.1-1.5-0.7-1.7-1.5c-0.3-0.9,0.2-1.9,1-2.4C9.6,75.4,9.9,75.5,9.9,75.1z"/>
<path class="st4" d="M52.4,108.7c-1,0.1-1.9-0.7-2-1.8c0-0.1,0-0.1,0-0.2c0-1.1,0.9-2,1.9-2c1.1,0,2,0.9,2.1,2
	C54.3,107.9,53.5,108.7,52.4,108.7z"/>
<path class="st4" d="M21,85.4v0.7c-0.5-0.1-0.3,0.4-0.4,0.6c-0.4,0.7-1.2,1.2-2.1,1.1c-0.8-0.1-1.4-0.6-1.6-1.4s0-1.6,0.7-2.1
	c0.9-0.7,2.1-0.5,2.8,0.4c0.1,0.1,0.1,0.2,0.2,0.3C20.7,85.1,20.5,85.5,21,85.4z"/>
<path class="st3" d="M39.3,100.3h0.8c-0.2,0.4,0.1,0.3,0.3,0.4c1,0.3,1.5,1.4,1.2,2.4c-0.2,0.9-1.1,1.5-2,1.4
	c-1.1-0.1-1.9-1.1-1.8-2.2c0.1-0.6,0.4-1.2,1-1.5c0.2-0.1,0.5,0,0.6-0.3L39.3,100.3z"/>
<path class="st3" d="M46.2,102.4v0.3c-0.3,0.1-0.3,0.4-0.4,0.6c-0.4,0.9-1.3,1.4-2.2,1.2c-0.9-0.2-1.6-1-1.6-1.9c0-1.1,1-2,2.1-1.9
	c0.8,0,1.4,0.5,1.8,1.2C45.9,102,45.8,102.3,46.2,102.4z"/>
<path class="st7" d="M6.1,104.5c-1.1,0.2-2.1-0.6-2.3-1.7s0.6-2.1,1.7-2.3c0.2,0,0.5,0,0.7,0c1.1,0.2,1.8,1.3,1.5,2.4
	C7.6,103.8,6.9,104.4,6.1,104.5z"/>
<path class="st4" d="M12.6,97.8v1l-0.3-0.2c-0.4,1.4-1.5,2.1-2.9,1.4c-0.9-0.5-1.3-1.7-0.8-2.6c0.3-0.6,0.9-0.9,1.5-1
	c1-0.2,1.7,0.3,2.3,1.6L12.6,97.8z"/>
<path class="st4" d="M21,73.1c0-1.1,0.9-1.9,2-1.9s1.9,0.9,1.9,2s-0.9,1.9-2,1.9l0,0C21.8,75.1,21,74.2,21,73.1z"/>
<path class="st4" d="M29.2,103.3l0.2-0.7l-0.5-0.8c-0.1-0.2-0.1-0.3,0.2-0.4c0.2,0.1,0.1,0.4,0.4,0.5c0.4-1,1.5-1.5,2.5-1.2
	c0.8,0.3,1.3,1,1.3,1.9s-0.6,1.6-1.4,1.8c-1,0.2-1.9-0.3-2.3-1.2C29.4,103.2,29.3,103.3,29.2,103.3z"/>
<path class="st4" d="M52.5,100.6c1,0,1.9,0.9,1.8,2l0,0c0,1.1-0.9,1.9-2,1.8s-1.9-0.9-1.9-2C50.5,101.4,51.4,100.6,52.5,100.6z"/>
<path class="st4" d="M14.6,91.9c-1.1,0.1-2-0.7-2.1-1.8c-0.1-1.1,0.7-2,1.8-2.1c0.1,0,0.2,0,0.3,0c1.1,0,2,0.9,2,2
	C16.4,91,15.6,91.8,14.6,91.9z"/>
<path class="st4" d="M4.2,76.8v0.9l-0.3-0.2c0,0.4-0.2,0.9-0.5,1.2c-0.7,0.8-1.9,0.9-2.7,0.2c-0.1-0.1-0.2-0.1-0.2-0.2
	C0.3,78.5,0.2,78.2,0,78v-1.1c0.2-0.6,0.7-1,1.3-1.3c1.1-0.3,2.2,0.3,2.5,1.4c0,0.1,0,0.2,0.1,0.3C4.1,77.1,4.1,76.9,4.2,76.8z"/>
<path class="st4" d="M20.7,89.9c0.1,1-0.7,1.9-1.8,2h-0.1c-1.1,0-1.9-0.9-1.9-1.9s0.9-1.9,1.9-1.9l0,0C19.8,88,20.7,88.9,20.7,89.9z
	"/>
<path class="st4" d="M8,98.4c0,1-0.8,1.9-1.8,1.9H6.1c-1,0-1.9-0.8-1.9-1.9v-0.1c0-1,0.9-1.9,1.9-1.8h0.1c1,0,1.8,0.7,1.9,1.7
	C8,98.3,8,98.3,8,98.4z"/>
<path class="st4" d="M35.6,100.6c1.1,0.1,1.9,0.9,1.9,2s-0.9,1.9-2,1.9s-1.9-0.9-1.9-2l0,0C33.7,101.4,34.6,100.6,35.6,100.6
	L35.6,100.6z"/>
<path class="st7" d="M19.3,96.3h-1c0.1-0.4-0.3-0.3-0.5-0.4c-0.9-0.5-1.2-1.7-0.7-2.6c0-0.1,0.1-0.2,0.1-0.2c0.4-0.6,1.2-0.9,2-0.7
	c0.7,0.1,1.3,0.7,1.4,1.4c0.2,0.8-0.1,1.6-0.8,2.1C19.6,95.9,19.2,95.8,19.3,96.3z"/>
<path class="st4" d="M0,73.6v-1c0.3-0.9,1.1-1.4,2-1.4c1.1,0.1,1.9,1,1.8,2.1c0,0.7-0.5,1.3-1.1,1.6c-0.8,0.4-1.8,0.1-2.4-0.6
	C0.2,74.1,0.1,73.8,0,73.6z"/>
<path class="st4" d="M27.1,83.8c1-0.1,1.8,0.7,1.9,1.7c0,0.1,0,0.2,0,0.2c0,1-0.8,1.9-1.8,1.9h-0.1c-1.1-0.1-1.9-0.9-1.9-2
	C25.2,84.6,26.1,83.8,27.1,83.8L27.1,83.8z"/>
<path class="st4" d="M24.8,89.9c0.1,1-0.7,1.9-1.7,2H23c-1.1,0-2-0.8-2-1.9s0.8-2,1.9-2c1-0.1,1.9,0.7,2,1.7
	C24.8,89.8,24.8,89.9,24.8,89.9z"/>
<path class="st7" d="M26.5,113.1h1.3c-0.1,0.4,0.4,0.4,0.5,0.5c0.8,0.6,1,1.7,0.5,2.6s-1.7,1.2-2.6,0.7c-0.8-0.5-1.2-1.5-0.8-2.4
	c0.1-0.4,0.5-0.8,0.9-1C26.4,113.4,26.6,113.3,26.5,113.1z"/>
<path class="st4" d="M23,67.1c1,0,1.8,0.8,1.8,1.8c0,0.1,0,0.1,0,0.2c-0.1,1-0.9,1.9-2,1.8l0,0c-1-0.1-1.9-0.9-1.9-2
	c0-1,0.9-1.8,1.9-1.8C22.9,67,23,67,23,67.1z"/>
<path class="st4" d="M16.4,94.1c0,1-0.8,1.9-1.8,2c-1.1,0-1.9-0.8-2-1.9c0-1,0.8-1.9,1.8-1.9c0,0,0,0,0.1,0
	C15.6,92.3,16.4,93.1,16.4,94.1L16.4,94.1z"/>
<path class="st4" d="M45.8,98.4c0,1-0.8,1.9-1.8,1.9l0,0c-1.1,0-1.9-0.9-1.9-2c0.1-1,0.9-1.8,1.9-1.8S45.8,97.3,45.8,98.4
	C45.8,98.3,45.8,98.3,45.8,98.4z"/>
<path class="st4" d="M37.4,85.8c0,1-0.8,1.9-1.9,1.9c-1,0-1.9-0.8-1.9-1.9l0,0c0-1,0.8-1.9,1.8-1.9c0.1,0,0.1,0,0.2,0
	C36.7,83.9,37.5,84.8,37.4,85.8z"/>
<path class="st4" d="M16.4,106.7c0,1-0.8,1.9-1.8,1.9s-1.9-0.8-2-1.8c0-1.1,0.8-1.9,1.9-2C15.5,104.8,16.4,105.6,16.4,106.7
	C16.4,106.7,16.4,106.7,16.4,106.7z"/>
<path class="st4" d="M18.7,67.1c1,0,1.9,0.8,1.9,1.8s-0.8,1.9-1.8,1.9S16.9,70,16.9,69S17.7,67.1,18.7,67.1L18.7,67.1z"/>
<path class="st4" d="M12.2,94.2c0,1-0.8,1.8-1.8,1.8h-0.1c-1,0-1.8-0.7-1.8-1.7c0-0.1,0-0.1,0-0.2c-0.1-1,0.7-1.9,1.7-2
	s1.9,0.7,2,1.7C12.2,94,12.2,94.1,12.2,94.2z"/>
<path class="st4" d="M22.9,117c-1,0-1.9-0.8-1.9-1.9l0,0c0-1,0.8-1.8,1.8-1.8s1.8,0.8,1.9,1.9C24.8,116.2,24,117,22.9,117L22.9,117z
	"/>
<path class="st4" d="M10.3,88.1c1,0,1.9,0.8,1.9,1.9c0,1-0.8,1.9-1.9,1.9l0,0c-1,0-1.8-0.8-1.8-1.8V90C8.5,88.9,9.3,88.1,10.3,88.1z
	"/>
<path class="st4" d="M6.1,104.9c1,0,1.9,0.8,1.9,1.8s-0.8,1.9-1.8,1.9l0,0c-1,0-1.8-0.8-1.8-1.8l0,0C4.4,105.8,5.1,105,6.1,104.9
	C6,104.9,6.1,104.9,6.1,104.9z"/>
<path class="st4" d="M37.4,115.2c0,1-0.8,1.8-1.9,1.8c-1,0-1.8-0.8-1.8-1.8s0.8-1.8,1.8-1.8C36.6,113.3,37.4,114.2,37.4,115.2z"/>
<path class="st4" d="M4.3,94.1c0-1,0.8-1.8,1.8-1.9c0,0,0,0,0.1,0c1,0,1.9,0.8,1.9,1.9c0,1-0.8,1.9-1.9,1.9l0,0
	C5.2,96,4.4,95.2,4.3,94.1C4.3,94.2,4.3,94.2,4.3,94.1z"/>
<path class="st4" d="M14.6,75.5c1,0,1.8,0.9,1.8,1.9l0,0c0,1-0.8,1.8-1.8,1.8s-1.8-0.8-1.9-1.8l0,0C12.7,76.3,13.6,75.5,14.6,75.5z"
	/>
<path class="st4" d="M31.3,87.6c-1,0-1.8-0.8-1.8-1.8v-0.1c0-1,0.9-1.8,1.9-1.8c1,0,1.8,0.9,1.8,1.9C33.2,86.8,32.4,87.6,31.3,87.6z
	"/>
<path class="st4" d="M18.8,109.1c1,0,1.8,0.9,1.8,1.9c-0.1,1-0.9,1.8-1.9,1.8s-1.8-0.8-1.8-1.9S17.8,109.1,18.8,109.1L18.8,109.1
	L18.8,109.1z"/>
<path class="st4" d="M31.4,113.3c1,0,1.9,0.9,1.8,1.9s-0.9,1.8-1.9,1.8c-1,0-1.8-0.8-1.8-1.8v-0.1C29.5,114.1,30.4,113.3,31.4,113.3
	z"/>
<path class="st4" d="M14.6,87.5c-0.9,0.1-1.7-0.6-1.8-1.6c0-0.1,0-0.1,0-0.2c-0.1-1,0.7-1.8,1.6-1.9c0.1,0,0.1,0,0.2,0
	c1,0,1.8,0.8,1.8,1.8C16.4,86.7,15.6,87.5,14.6,87.5z"/>
<path class="st7" d="M1.9,104.3c-1,0-1.7-0.8-1.7-1.7v-0.1c0-1,0.8-1.8,1.8-1.8c1,0.1,1.8,0.9,1.8,1.9
	C3.7,103.6,2.9,104.4,1.9,104.3z"/>
<path class="st4" d="M6.1,83.3c-1-0.1-1.7-0.9-1.7-1.9c0.1-0.9,0.8-1.6,1.7-1.7c1,0,1.8,0.8,1.9,1.8C8,82.5,7.1,83.3,6.1,83.3z"/>
<path class="st4" d="M1.9,100.1c-1,0.1-1.8-0.7-1.9-1.7s0.7-1.8,1.7-1.9c0.1,0,0.2,0,0.3,0c1,0.1,1.7,1,1.6,1.9
	C3.5,99.4,2.8,100.1,1.9,100.1L1.9,100.1z"/>
<path class="st4" d="M25.4,94.2c0-0.9,0.7-1.7,1.6-1.8c0.1,0,0.1,0,0.2,0c1,0,1.8,0.7,1.8,1.7c0,0,0,0,0,0.1c0,1-0.8,1.8-1.7,1.8
	c-1,0.1-1.8-0.6-1.9-1.6C25.4,94.3,25.4,94.2,25.4,94.2z"/>
<path class="st4" d="M18.7,113.4c0.9-0.1,1.8,0.6,1.8,1.6c0,0.1,0,0.1,0,0.2c0,1-0.8,1.8-1.8,1.8s-1.8-0.8-1.8-1.8
	C17,114.2,17.7,113.4,18.7,113.4L18.7,113.4z"/>
<path class="st4" d="M16.3,68.9c0,0.9-0.7,1.7-1.6,1.8h-0.1c-1,0-1.8-0.8-1.8-1.8s0.8-1.8,1.8-1.8C15.5,67.2,16.2,67.9,16.3,68.9
	C16.3,68.8,16.3,68.9,16.3,68.9z"/>
<path class="st3" d="M12.1,106.8c0,0.9-0.8,1.7-1.7,1.7c-1,0-1.7-0.8-1.7-1.7l0,0c0-0.9,0.8-1.7,1.7-1.7S12.1,105.8,12.1,106.8
	C12.1,106.7,12.1,106.7,12.1,106.8z"/>
<path class="st4" d="M28.9,69c0,0.9-0.8,1.7-1.7,1.7c-1,0-1.7-0.8-1.7-1.8c0-0.9,0.8-1.7,1.8-1.6c0.9-0.1,1.6,0.6,1.7,1.5
	C28.9,68.8,28.9,68.9,28.9,69z"/>
<path class="st3" d="M27.2,88.3c0.9,0,1.6,0.6,1.7,1.5v0.1c0,0.9-0.7,1.7-1.6,1.7l0,0c-1,0-1.8-0.8-1.8-1.8
	C25.4,89,26.2,88.2,27.2,88.3L27.2,88.3z"/>
<path class="st3" d="M29.4,107v-0.4c0.3,0,0.3-0.2,0.4-0.4c0.3-0.8,1.1-1.3,2-1.1c0.8,0.2,1.3,0.9,1.3,1.7c0,0.8-0.5,1.5-1.3,1.7
	s-1.7-0.3-2-1.1C29.7,107.2,29.6,107,29.4,107z"/>
<path class="st4" d="M3.6,81.5c0,0.9-0.7,1.7-1.7,1.7l0,0c-0.9,0-1.7-0.8-1.7-1.7c0-0.9,0.8-1.7,1.8-1.7C2.9,79.8,3.6,80.6,3.6,81.5
	L3.6,81.5z"/>
<path class="st3" d="M2,105.1c0.9,0,1.7,0.8,1.7,1.7l0,0c0,0.9-0.8,1.7-1.7,1.6s-1.7-0.8-1.6-1.7C0.3,105.8,1,105.1,2,105.1z"/>
<path class="st4" d="M38.1,85.7c0-0.9,0.6-1.6,1.5-1.6c0.1,0,0.1,0,0.2,0c0.9,0,1.6,0.7,1.6,1.6v0.1c0,0.9-0.8,1.6-1.7,1.6
	S38.1,86.7,38.1,85.7C38.1,85.8,38.1,85.7,38.1,85.7z"/>
<path class="st4" d="M14.6,109.3c0.9,0,1.7,0.8,1.7,1.7l0,0c0,0.9-0.8,1.6-1.7,1.6l0,0c-0.9,0-1.6-0.7-1.6-1.6c0,0,0,0,0-0.1
	C12.9,110,13.6,109.3,14.6,109.3C14.5,109.3,14.5,109.3,14.6,109.3z"/>
<path class="st4" d="M58.2,115.1c0,0.9-0.7,1.7-1.6,1.7c-0.9,0-1.7-0.7-1.7-1.6l0,0c0-0.9,0.7-1.7,1.6-1.7
	C57.5,113.5,58.2,114.2,58.2,115.1L58.2,115.1z"/>
<path class="st4" d="M12,68.9c0,0.9-0.7,1.7-1.6,1.7l0,0c-0.9,0-1.7-0.8-1.7-1.7c0-0.9,0.7-1.6,1.6-1.6C11.2,67.3,11.9,67.9,12,68.9
	L12,68.9z"/>
<path class="st4" d="M10.4,83.2c-0.9,0-1.7-0.7-1.7-1.7s0.7-1.7,1.7-1.7s1.7,0.7,1.7,1.7S11.3,83.2,10.4,83.2z"/>
<path class="st4" d="M46.5,98.3c0-0.9,0.7-1.6,1.5-1.6c0,0,0,0,0.1,0c0.9,0,1.7,0.7,1.7,1.6s-0.7,1.7-1.6,1.7
	C47.3,100,46.6,99.3,46.5,98.3C46.5,98.4,46.5,98.4,46.5,98.3z"/>
<path class="st4" d="M18.7,79c-0.9,0-1.6-0.7-1.6-1.6l0,0c0-0.9,0.7-1.7,1.6-1.7c0,0,0,0,0.1,0c0.9,0,1.6,0.8,1.6,1.7
	c0,0.9-0.7,1.6-1.6,1.6C18.8,79,18.8,79,18.7,79z"/>
<path class="st4" d="M8.8,85.8c-0.1-0.9,0.6-1.6,1.4-1.7c0.1,0,0.1,0,0.2,0c0.9,0,1.6,0.8,1.6,1.7c0,0.9-0.7,1.6-1.6,1.7
	C9.5,87.4,8.8,86.7,8.8,85.8C8.7,85.8,8.7,85.8,8.8,85.8z"/>
<path class="st3" d="M0.3,111c-0.1-0.9,0.6-1.6,1.5-1.7c0.1,0,0.1,0,0.2,0c0.9,0,1.6,0.8,1.6,1.7c0,0.9-0.7,1.5-1.6,1.6
	c-0.8,0.1-1.6-0.6-1.6-1.4C0.4,111.1,0.3,111.1,0.3,111z"/>
<path class="st3" d="M46.6,106.7c0-0.9,0.8-1.6,1.7-1.6s1.6,0.8,1.6,1.7c0,0.9-0.7,1.6-1.6,1.6l0,0c-0.9,0-1.6-0.7-1.6-1.5
	C46.6,106.8,46.6,106.7,46.6,106.7z"/>
<path class="st3" d="M6.2,91.5c-0.8,0.1-1.5-0.5-1.6-1.3c0-0.1,0-0.1,0-0.2c-0.1-0.9,0.6-1.6,1.5-1.7c0,0,0,0,0.1,0
	c0.9,0,1.6,0.7,1.7,1.6C7.8,90.8,7.1,91.5,6.2,91.5L6.2,91.5z"/>
<path class="st4" d="M19.6,120.9c-0.5,0.1-1.1,0.1-1.6,0c-0.4-0.3-0.7-0.8-0.8-1.3c-0.1-0.7,0.3-1.4,0.9-1.7
	c0.7-0.3,1.4-0.1,1.9,0.4c0.5,0.6,0.5,1.4,0.1,2C19.9,120.5,19.8,120.7,19.6,120.9z"/>
<path class="st3" d="M37.2,94.1c0,0.9-0.7,1.6-1.5,1.6c0,0,0,0-0.1,0c-0.9,0-1.6-0.7-1.6-1.5c0,0,0,0,0-0.1c0-0.9,0.7-1.6,1.6-1.7
	C36.5,92.5,37.2,93.2,37.2,94.1z"/>
<path class="st3" d="M33,94.2c0,0.9-0.7,1.6-1.6,1.6c0,0,0,0-0.1,0c-0.8,0-1.6-0.6-1.6-1.5c0-0.1,0-0.1,0-0.2c0-0.9,0.7-1.6,1.6-1.6
	l0,0C32.3,92.5,33,93.3,33,94.2z"/>
<path class="st3" d="M58.2,102.5c0,0.9-0.6,1.6-1.5,1.6h-0.1c-0.9,0-1.6-0.7-1.6-1.6s0.7-1.6,1.6-1.6
	C57.4,100.9,58.2,101.6,58.2,102.5L58.2,102.5z"/>
<path class="st3" d="M35.6,91.5c-0.9,0-1.6-0.7-1.6-1.5v-0.1c0-0.9,0.7-1.6,1.6-1.6c0.9,0,1.6,0.7,1.6,1.6
	C37.2,90.8,36.5,91.5,35.6,91.5L35.6,91.5z"/>
<path class="st7" d="M36.3,120.9c-0.5,0.1-1,0.1-1.5,0c-0.2-0.1-0.3-0.3-0.5-0.4c-0.6-0.7-0.5-1.6,0.1-2.2c0.6-0.5,1.5-0.5,2.2,0
	c0.6,0.6,0.7,1.6,0.2,2.2C36.6,120.6,36.5,120.8,36.3,120.9z"/>
<path class="st4" d="M1.9,116.7c-0.8,0-1.5-0.6-1.6-1.5v-0.1c0-0.9,0.7-1.6,1.5-1.6h0.1c0.9,0,1.6,0.7,1.6,1.5l0,0
	c0,0.8-0.6,1.5-1.5,1.6C2,116.7,2,116.7,1.9,116.7z"/>
<path class="st3" d="M41.4,115.2c-0.1,0.9-0.8,1.5-1.7,1.5c-0.8-0.1-1.4-0.7-1.5-1.5c0.1-0.9,0.8-1.5,1.7-1.5
	C40.7,113.8,41.3,114.4,41.4,115.2z"/>
<path class="st3" d="M54,111c0,0.9-0.7,1.5-1.6,1.5c-0.9,0-1.6-0.6-1.6-1.5s0.6-1.6,1.5-1.6c0.1,0,0.2,0,0.2,0
	C53.3,109.4,54,110.1,54,111L54,111z"/>
<path class="st4" d="M16.1,115.2c0,0.8-0.6,1.5-1.5,1.6c0,0,0,0-0.1,0c-0.8,0.1-1.6-0.6-1.6-1.4c0-0.1,0-0.1,0-0.2
	c0-0.9,0.7-1.6,1.6-1.6l0,0C15.4,113.6,16.1,114.3,16.1,115.2C16.1,115.1,16.1,115.1,16.1,115.2z"/>
<path class="st4" d="M7.7,69c0,0.9-0.7,1.5-1.6,1.6c-0.8,0-1.5-0.7-1.6-1.5c0-0.1,0-0.1,0-0.2c0-0.8,0.6-1.5,1.5-1.5h0.1
	C7.1,67.4,7.7,68.1,7.7,69L7.7,69z"/>
<path class="st3" d="M57.2,120.9c-0.4,0.1-0.8,0.1-1.3,0c-0.6-0.3-1-1-0.9-1.7c0.1-0.6,0.6-1.2,1.2-1.3c0.8-0.2,1.7,0.3,1.9,1.1
	c0.1,0.5,0,1-0.3,1.4C57.7,120.6,57.4,120.7,57.2,120.9z"/>
<path class="st7" d="M28.7,73.1c0,0.9-0.7,1.6-1.6,1.6l0,0c-0.9,0-1.6-0.7-1.6-1.6s0.7-1.6,1.6-1.6S28.7,72.2,28.7,73.1z"/>
<path class="st3" d="M44,88.4c0.9,0,1.6,0.7,1.6,1.6c-0.1,0.9-0.8,1.5-1.7,1.4c-0.8-0.1-1.4-0.7-1.4-1.4
	C42.5,89.1,43.1,88.4,44,88.4z"/>
<path class="st3" d="M41.4,90c0,0.9-0.7,1.5-1.6,1.5c-0.9,0-1.6-0.7-1.6-1.6l0,0c0-0.9,0.7-1.6,1.6-1.6C40.7,88.4,41.3,89.1,41.4,90
	z"/>
<path class="st4" d="M32.9,69c0,0.9-0.7,1.6-1.6,1.5l0,0c-0.9,0-1.6-0.8-1.5-1.6l0,0c0-0.8,0.7-1.5,1.5-1.5c0,0,0,0,0.1,0
	C32.2,67.4,32.9,68.1,32.9,69L32.9,69z"/>
<path class="st3" d="M35.6,67.4c0.8,0,1.5,0.6,1.6,1.4c0,0.1,0,0.1,0,0.2c0,0.9-0.7,1.5-1.6,1.5l0,0c-0.8,0-1.5-0.7-1.5-1.5
	C34,68.1,34.7,67.4,35.6,67.4C35.5,67.4,35.5,67.4,35.6,67.4z"/>
<path class="st7" d="M24.5,81.5c0,0.8-0.6,1.5-1.4,1.6H23c-0.9,0-1.6-0.7-1.6-1.6c0-0.8,0.7-1.5,1.5-1.5c0.8-0.1,1.5,0.5,1.6,1.3
	C24.5,81.4,24.5,81.4,24.5,81.5z"/>
<path class="st3" d="M48.1,91.5c-0.9-0.1-1.5-0.8-1.5-1.6c0-0.8,0.7-1.5,1.6-1.5h0.1c0.8,0,1.5,0.6,1.5,1.5V90
	C49.7,90.8,49,91.5,48.1,91.5C48.2,91.5,48.2,91.5,48.1,91.5z"/>
<path class="st3" d="M32.9,90c0,0.8-0.7,1.5-1.5,1.5l0,0c-0.9,0-1.5-0.7-1.5-1.6l0,0c0-0.8,0.7-1.5,1.5-1.5h0.1
	C32.3,88.4,32.9,89.1,32.9,90C32.9,89.9,32.9,90,32.9,90z"/>
<path class="st3" d="M7.7,110.9c0.1,0.8-0.5,1.6-1.4,1.7c-0.8,0.1-1.6-0.5-1.7-1.4c0-0.1,0-0.2,0-0.2c0-0.8,0.6-1.5,1.4-1.6h0.1
	C7,109.4,7.6,110,7.7,110.9L7.7,110.9z"/>
<path class="st3" d="M6.2,84.2c0.8,0,1.5,0.6,1.5,1.4v0.1c0.1,0.8-0.6,1.6-1.4,1.6S4.7,86.8,4.6,86c0-0.1,0-0.2,0-0.2
	c0-0.8,0.6-1.5,1.4-1.5C6.1,84.2,6.1,84.2,6.2,84.2z"/>
<path class="st3" d="M14.6,80c0.8,0,1.4,0.7,1.4,1.4v0.1c0,0.8-0.7,1.4-1.5,1.4l0,0c-0.8,0-1.5-0.7-1.5-1.5S13.7,80,14.6,80L14.6,80
	z"/>
<path class="st4" d="M56.6,96.9c0.8,0,1.5,0.6,1.5,1.4l0,0c0,0.8-0.6,1.5-1.5,1.6h-0.1c-0.8,0-1.5-0.7-1.5-1.5
	C55.1,97.5,55.7,96.9,56.6,96.9z"/>
<path class="st4" d="M22.9,75.9c0.8,0,1.5,0.6,1.5,1.3v0.1c0,0.8-0.7,1.5-1.5,1.5s-1.5-0.7-1.5-1.5S22.1,75.9,22.9,75.9L22.9,75.9z"
	/>
<path class="st4" d="M20.2,81.7c0,0.8-0.7,1.4-1.5,1.3l0,0c-0.8,0-1.5-0.8-1.4-1.6c0-0.8,0.8-1.5,1.6-1.4l0,0c0.8,0,1.4,0.7,1.4,1.5
	C20.2,81.6,20.2,81.6,20.2,81.7z"/>
<path class="st7" d="M2,95.6c-0.8,0-1.5-0.6-1.5-1.4v-0.1c0-0.8,0.7-1.5,1.5-1.5s1.5,0.7,1.5,1.5C3.5,95,2.8,95.6,2,95.6L2,95.6z"/>
<path class="st3" d="M52.4,92.7c0.8,0,1.4,0.7,1.4,1.5v0.1c0,0.8-0.6,1.4-1.4,1.4c0,0,0,0-0.1,0c-0.8,0-1.4-0.6-1.4-1.4
	c0-0.1,0-0.1,0-0.2C51,93.3,51.6,92.6,52.4,92.7L52.4,92.7z"/>
<path class="st3" d="M52.3,96.9c0.8,0,1.5,0.6,1.5,1.4c0.1,0.8-0.5,1.5-1.3,1.5l0,0c-0.8,0.1-1.4-0.5-1.5-1.2c0-0.1,0-0.1,0-0.2
	C50.9,97.6,51.5,96.9,52.3,96.9L52.3,96.9z"/>
<path class="st3" d="M41.2,94.1c0,0.8-0.6,1.4-1.4,1.5c-0.8,0-1.5-0.6-1.5-1.4v-0.1c0-0.8,0.6-1.4,1.4-1.4c0,0,0,0,0.1,0
	C40.6,92.7,41.2,93.3,41.2,94.1L41.2,94.1z"/>
<path class="st5" d="M45.4,85.7c0,0.8-0.6,1.4-1.4,1.4c0,0,0,0-0.1,0c-0.8,0-1.4-0.6-1.4-1.4v-0.1c0-0.8,0.6-1.4,1.4-1.4
	C44.7,84.3,45.4,84.9,45.4,85.7z"/>
<path class="st3" d="M6.1,116.6c-0.7,0-1.3-0.5-1.3-1.2c0-0.1,0-0.1,0-0.2c-0.1-0.7,0.5-1.4,1.2-1.4c0.1,0,0.1,0,0.2,0
	c0.8,0,1.4,0.7,1.5,1.5C7.6,116,6.9,116.6,6.1,116.6z"/>
<path class="st3" d="M28.6,81.5c0,0.8-0.7,1.4-1.5,1.4l0,0c-0.7,0-1.3-0.6-1.3-1.4c0,0,0,0,0-0.1c0-0.8,0.6-1.4,1.4-1.4
	C27.9,80.1,28.6,80.7,28.6,81.5z"/>
<path class="st5" d="M37,81.5c0,0.8-0.7,1.4-1.5,1.4s-1.4-0.6-1.4-1.4l0,0c0-0.8,0.6-1.4,1.4-1.4c0,0,0,0,0.1,0
	C36.4,80.1,37,80.8,37,81.5z"/>
<path class="st3" d="M37,111c0,0.8-0.7,1.4-1.4,1.4l0,0c-0.8,0-1.4-0.7-1.3-1.5s0.7-1.4,1.5-1.3C36.4,109.6,37,110.2,37,111z"/>
<path class="st3" d="M48.2,95.5c-0.8,0-1.4-0.6-1.4-1.4s0.6-1.4,1.4-1.4s1.4,0.6,1.4,1.4l0,0C49.6,94.9,49,95.5,48.2,95.5L48.2,95.5
	z"/>
<path class="st5" d="M39.8,70.3c-0.8,0-1.4-0.6-1.4-1.3l0,0c0-0.8,0.5-1.4,1.3-1.4h0.1c0.8,0,1.4,0.6,1.4,1.4
	C41.1,69.7,40.5,70.3,39.8,70.3z"/>
<path class="st3" d="M7.5,119.4c0,0.8-0.7,1.4-1.4,1.3c-0.8,0-1.4-0.6-1.3-1.4c0-0.8,0.6-1.4,1.4-1.3C6.9,118,7.5,118.6,7.5,119.4
	L7.5,119.4z"/>
<path class="st3" d="M3.3,85.8c-0.1,0.8-0.7,1.3-1.5,1.3c-0.7-0.1-1.2-0.6-1.3-1.3c0-0.7,0.5-1.4,1.3-1.4c0.1,0,0.1,0,0.2,0
	C2.8,84.4,3.4,85,3.3,85.8L3.3,85.8z"/>
<path class="st3" d="M32.7,81.5c0,0.8-0.6,1.4-1.3,1.4S30,82.3,30,81.6c-0.1-0.8,0.5-1.4,1.2-1.5c0.8-0.1,1.4,0.5,1.5,1.2
	C32.8,81.3,32.8,81.4,32.7,81.5L32.7,81.5z"/>
<path class="st5" d="M52.4,91.3c-0.7,0-1.3-0.6-1.4-1.3c0-0.7,0.6-1.4,1.3-1.4c0,0,0,0,0.1,0c0.7,0,1.3,0.6,1.4,1.3V90
	C53.7,90.7,53.1,91.3,52.4,91.3z"/>
<path class="st3" d="M39.8,112.3c-0.7,0-1.3-0.5-1.3-1.2c0,0,0,0,0-0.1c-0.1-0.7,0.5-1.3,1.1-1.4h0.1c0.7-0.1,1.4,0.5,1.4,1.2v0.1
	C41.1,111.7,40.5,112.3,39.8,112.3z"/>
<path class="st3" d="M57.9,94.1c0,0.7-0.6,1.3-1.3,1.4c-0.7,0-1.3-0.6-1.4-1.3c0-0.7,0.5-1.3,1.2-1.3c0,0,0,0,0.1,0
	C57.2,92.8,57.9,93.3,57.9,94.1C57.9,94,57.9,94.1,57.9,94.1z"/>
<path class="st5" d="M2,70.3c-0.7,0-1.3-0.6-1.4-1.3c0-0.7,0.5-1.3,1.2-1.4c0,0,0,0,0.1,0c0.7-0.1,1.3,0.4,1.4,1.1v0.1
	C3.3,69.6,2.8,70.2,2,70.3L2,70.3z"/>
<path class="st5" d="M3.3,119.4c0,0.7-0.5,1.3-1.2,1.4c-0.1,0-0.1,0-0.2,0c-0.7-0.1-1.3-0.7-1.2-1.5c0.1-0.6,0.6-1.2,1.2-1.2
	C2.6,118,3.2,118.6,3.3,119.4C3.3,119.3,3.3,119.3,3.3,119.4z"/>
<path class="st3" d="M22.3,63.5c0.4-0.1,0.9-0.1,1.3,0c0.3,0.2,0.5,0.5,0.6,0.8c0.2,0.6-0.1,1.2-0.6,1.6c-0.5,0.3-1.2,0.2-1.6-0.2
	c-0.5-0.4-0.6-1.2-0.2-1.7C21.9,63.8,22.1,63.6,22.3,63.5z"/>
<path class="st5" d="M10.3,112.3c-0.7,0-1.3-0.6-1.3-1.4c0-0.7,0.7-1.3,1.4-1.3l0,0c0.7,0,1.3,0.6,1.2,1.3c0,0,0,0,0,0.1
	C11.7,111.7,11,112.3,10.3,112.3L10.3,112.3z"/>
<path class="st5" d="M30.7,63.5c0.4-0.1,0.9-0.1,1.3,0c0.3,0.2,0.5,0.6,0.6,0.9c0.2,0.7-0.3,1.4-1,1.6c-0.5,0.1-1,0-1.3-0.4
	c-0.4-0.5-0.5-1.2-0.1-1.7C30.4,63.8,30.6,63.6,30.7,63.5z"/>
<path class="st3" d="M31.3,74.4c-0.7,0-1.3-0.5-1.3-1.3V73c0-0.7,0.6-1.3,1.3-1.3l0,0c0.7,0,1.3,0.5,1.3,1.2V73
	C32.6,73.8,32.1,74.4,31.3,74.4L31.3,74.4z"/>
<path class="st3" d="M41.1,106.8c0,0.7-0.6,1.2-1.3,1.2s-1.2-0.5-1.2-1.1c0-0.1,0-0.1,0-0.2c0-0.7,0.5-1.2,1.2-1.3l0,0
	C40.5,105.4,41.1,106,41.1,106.8L41.1,106.8z"/>
<path class="st8" d="M15.8,119.4c0,0.7-0.5,1.3-1.2,1.3s-1.3-0.5-1.3-1.2s0.6-1.3,1.3-1.4C15.2,118.1,15.8,118.7,15.8,119.4z"/>
<path class="st3" d="M2,91.2c-0.7,0.1-1.3-0.5-1.3-1.1c0,0,0,0,0-0.1c0-0.7,0.6-1.3,1.3-1.3c0,0,0,0,0.1,0c0.7,0.1,1.2,0.6,1.2,1.3
	C3.2,90.7,2.7,91.2,2,91.2z"/>
<path class="st3" d="M47.6,63.5c0.4-0.1,0.7-0.1,1.1,0c0.3,0.3,0.6,0.5,0.7,0.9c0.1,0.6-0.2,1.2-0.7,1.4c-0.5,0.2-1.2,0.1-1.5-0.3
	c-0.4-0.4-0.4-1.1-0.1-1.6C47.3,63.8,47.4,63.7,47.6,63.5z"/>
<path class="st4" d="M26.6,63.5c0.4-0.1,0.8-0.1,1.1,0c0.1,0.1,0.3,0.2,0.4,0.4c0.4,0.5,0.4,1.3-0.1,1.8c-0.5,0.4-1.2,0.4-1.8,0
	c-0.5-0.5-0.6-1.3-0.1-1.8C26.3,63.7,26.4,63.6,26.6,63.5z"/>
<path class="st3" d="M44,67.7c0.7,0,1.3,0.5,1.3,1.2l0,0c0,0.7-0.5,1.2-1.1,1.2h-0.1c-0.6,0.1-1.2-0.4-1.2-1c0-0.1,0-0.1,0-0.2
	C42.7,68.2,43.3,67.7,44,67.7C44,67.6,44,67.6,44,67.7z"/>
<path class="st3" d="M43.5,63.5h1c0.2,0.1,0.3,0.3,0.5,0.4c0.4,0.5,0.4,1.3-0.1,1.7c-0.5,0.4-1.2,0.4-1.7,0
	c-0.5-0.5-0.5-1.2-0.1-1.7C43.2,63.8,43.3,63.6,43.5,63.5z"/>
<path class="st3" d="M45.2,94.2c0,0.6-0.5,1.2-1.1,1.2H44c-0.6,0.1-1.2-0.4-1.2-1c0-0.1,0-0.1,0-0.2c0-0.7,0.5-1.3,1.2-1.3l0,0
	C44.7,92.9,45.2,93.5,45.2,94.2z"/>
<path class="st5" d="M49.4,85.7c0,0.7-0.5,1.3-1.2,1.3h-0.1c-0.6,0-1.2-0.5-1.2-1.1c0,0,0,0,0-0.1c-0.1-0.7,0.4-1.3,1.1-1.3
	c0,0,0,0,0.1,0C48.8,84.5,49.4,85,49.4,85.7z"/>
<path class="st8" d="M52,63.5h0.7c0.2,0.1,0.4,0.2,0.5,0.4c0.5,0.5,0.5,1.2,0,1.7l0,0c-0.5,0.5-1.3,0.4-1.7-0.1s-0.4-1.1,0-1.6
	C51.6,63.8,51.8,63.6,52,63.5z"/>
<path class="st8" d="M35.6,74.3c-0.7,0-1.2-0.5-1.2-1.1l0,0c0-0.7,0.5-1.2,1.1-1.3h0.1c0.7,0,1.2,0.6,1.2,1.3
	C36.8,73.8,36.2,74.3,35.6,74.3z"/>
<path class="st8" d="M41,81.5c0,0.7-0.5,1.3-1.2,1.3s-1.3-0.5-1.3-1.2c0-0.1,0-0.1,0-0.2c0.1-0.7,0.7-1.2,1.4-1.1
	C40.5,80.4,41,80.9,41,81.5z"/>
<path class="st8" d="M49.4,68.9c0.1,0.7-0.4,1.3-1.1,1.4s-1.3-0.4-1.4-1.1c0-0.1,0-0.2,0-0.4c0.1-0.7,0.6-1.2,1.3-1.2
	C48.9,67.8,49.4,68.3,49.4,68.9z"/>
<path class="st8" d="M18.5,63.5H19c0.2,0.1,0.3,0.2,0.5,0.3c0.5,0.4,0.6,1.2,0.2,1.7s-1.2,0.6-1.7,0.2s-0.6-1.2-0.2-1.7
	c0-0.1,0.1-0.1,0.1-0.2C18.1,63.7,18.3,63.6,18.5,63.5z"/>
<path class="st3" d="M11.5,115.2c0,0.6-0.5,1.1-1.2,1.1h-0.1c-0.6,0-1.1-0.6-1.1-1.2s0.5-1.2,1.2-1.1h0.1
	C11,114,11.5,114.5,11.5,115.2C11.5,115.1,11.5,115.2,11.5,115.2z"/>
<path class="st9" d="M27.2,76.2c0.6,0,1.1,0.5,1.1,1.2s-0.5,1.2-1.2,1.2l0,0c-0.6,0-1.1-0.5-1.1-1.2S26.5,76.1,27.2,76.2
	C27.2,76.1,27.2,76.1,27.2,76.2z"/>
<path class="st8" d="M11.4,118.9c0.1,0.3,0.1,0.7,0,1c-0.7,0.8-1.3,0.9-1.9,0.4c-0.5-0.4-0.5-1.2-0.1-1.6c0,0,0,0,0.1-0.1
	C10.1,118,10.7,118.1,11.4,118.9z"/>
<path class="st9" d="M43.9,105.6c0.5-0.1,1.1,0.3,1.2,0.8c0,0.1,0,0.2,0,0.3c0.1,0.6-0.4,1.1-1,1.2H44c-0.6,0-1.2-0.5-1.2-1.1l0,0
	C42.8,106.2,43.3,105.7,43.9,105.6L43.9,105.6z"/>
<path class="st5" d="M52.4,118.2c0.6,0,1.1,0.5,1.1,1.1s-0.5,1.1-1.1,1.1s-1.1-0.5-1.1-1.1C51.2,118.8,51.7,118.3,52.4,118.2
	L52.4,118.2z"/>
<path class="st3" d="M52.4,70.1c-0.6,0-1.1-0.5-1.1-1.1l0,0c0-0.6,0.5-1.1,1-1.1c0.6-0.1,1.1,0.4,1.2,0.9v0.1
	C53.5,69.5,53.1,70,52.4,70.1C52.4,70,52.4,70,52.4,70.1z"/>
<path class="st3" d="M40.9,119.3c0,0.6-0.4,1.1-1,1.2c0,0,0,0-0.1,0c-0.6,0-1.1-0.5-1.1-1.2c0-0.6,0.5-1.1,1.1-1.1
	C40.3,118.2,40.8,118.7,40.9,119.3L40.9,119.3z"/>
<path class="st9" d="M36.7,106.7c0,0.6-0.5,1.1-1.1,1.2l0,0c-0.6,0-1.1-0.5-1.1-1.1s0.5-1.1,1.1-1.2l0,0
	C36.2,105.7,36.6,106.1,36.7,106.7z"/>
<path class="st5" d="M57.7,69.1c0,0.6-0.5,1-1.1,0.9h-0.1c-0.6,0-1-0.5-0.9-1.1v-0.1c0-0.6,0.6-1,1.1-1c0.6,0,1,0.6,1,1.1
	C57.7,69,57.7,69,57.7,69.1z"/>
<path class="st9" d="M52.4,116.2c-0.6,0-1-0.4-1.1-0.9v-0.1c0-0.6,0.5-1.1,1.1-1.1c0.5,0,1,0.5,1.1,1
	C53.5,115.7,53,116.2,52.4,116.2L52.4,116.2z"/>
<path class="st3" d="M56.6,63.6c0.6,0,1,0.4,1,1v0.1c0,0.6-0.4,1-1,1c-0.1,0-0.1,0-0.1,0c-0.6,0-1-0.4-1-1c0,0,0,0,0-0.1
	C55.5,64.1,56,63.6,56.6,63.6L56.6,63.6z"/>
<path class="st5" d="M39.8,74.2c-0.6,0-1-0.4-1-1v-0.1c0-0.6,0.5-1.1,1.1-1.1s1.1,0.5,1.1,1.1C40.9,73.7,40.4,74.2,39.8,74.2
	L39.8,74.2z"/>
<path class="st9" d="M31.4,78.4c-0.6,0-1-0.4-1-1v-0.1c0-0.6,0.4-1,1-1s1,0.4,1.1,1c0,0.6-0.4,1-0.9,1.1
	C31.5,78.4,31.4,78.4,31.4,78.4z"/>
<path class="st8" d="M35.6,78.4c-0.5,0.1-1-0.3-1.1-0.9v-0.1c0-0.6,0.4-1,0.9-1.1c0,0,0,0,0.1,0c0.6,0,1.1,0.4,1.1,1
	S36.2,78.4,35.6,78.4L35.6,78.4z"/>
<path class="st10" d="M52.4,86.7c-0.6,0-1-0.4-1-1s0.4-1,1-1.1c0.6,0,1.1,0.5,1.1,1.1C53.5,86.3,53,86.7,52.4,86.7L52.4,86.7z"/>
<path class="st10" d="M44,80.5c0.6,0,1,0.4,1,1s-0.4,1-1,1s-1-0.4-1-1S43.4,80.5,44,80.5z"/>
<path class="st9" d="M57.5,90c0,0.5-0.5,0.9-1,0.9c-0.5-0.1-0.9-0.5-0.9-1s0.5-0.9,1-0.8C57.1,89.1,57.5,89.5,57.5,90z"/>
<path class="st8" d="M40.6,77.8c-0.7,0.5-1,0.6-1.5,0.2c-0.3-0.3-0.4-0.8-0.2-1.2c0.2-0.4,0.7-0.6,1.2-0.4S40.7,77,40.6,77.8z"/>
<path class="st11" d="M13.6,64.7c0.4-0.8,0.6-1,1.2-0.9c0.4,0.1,0.7,0.4,0.7,0.9s-0.3,0.9-0.8,0.9C14.1,65.7,13.9,65.5,13.6,64.7z"
	/>
<path class="st5" d="M47.3,81.5c0-0.5,0.3-0.9,0.8-0.9l0,0c0.5,0,0.9,0.3,0.9,0.8v0.1c0,0.5-0.4,0.9-0.9,0.9
	C47.7,82.4,47.3,82.1,47.3,81.5C47.3,81.6,47.3,81.6,47.3,81.5z"/>
<path class="st9" d="M10.8,65.5c-0.9,0-1.1-0.1-1.2-0.6c-0.1-0.4,0.1-0.8,0.4-1c0.4-0.2,0.9-0.1,1.1,0.3
	C11.4,64.7,11.2,65.1,10.8,65.5z"/>
<path class="st12" d="M49,110.9c0,0.5-0.3,0.9-0.8,0.9s-0.9-0.3-0.9-0.8s0.3-0.9,0.8-0.9c0,0,0,0,0.1,0
	C48.6,110.1,49,110.4,49,110.9z"/>
<path class="st13" d="M44.8,73.1c0,0.5-0.4,0.9-0.8,0.9c-0.5,0-0.9-0.4-0.9-0.8c0-0.5,0.4-0.9,0.8-0.9
	C44.4,72.3,44.8,72.6,44.8,73.1L44.8,73.1L44.8,73.1z"/>
<path class="st14" d="M49,73.1c-0.2,0.6-0.4,0.9-1,0.8c-0.4-0.1-0.7-0.4-0.7-0.8s0.3-0.7,0.6-0.7C48.6,72.2,48.9,72.6,49,73.1z"/>
<path class="st15" d="M6.2,63.9c0.4,0,0.8,0.4,0.7,0.8l0,0c0,0.4-0.3,0.8-0.8,0.8s-0.8-0.4-0.8-0.8l0,0C5.4,64.2,5.7,63.9,6.2,63.9z
	"/>
<path class="st15" d="M47.4,119.4c0.1-0.5,0.4-0.9,1-0.8c0.4,0,0.6,0.3,0.7,0.7c0.1,0.4-0.2,0.8-0.6,0.8l0,0
	C47.8,120.3,47.5,119.9,47.4,119.4z"/>
<path class="st12" d="M51.5,81.6c0.1-0.6,0.4-0.9,1-0.8c0.3,0,0.6,0.3,0.6,0.7c0.1,0.4-0.2,0.8-0.6,0.8C52,82.4,51.7,82.1,51.5,81.6
	z"/>
<path class="st13" d="M44,110.2c0.4,0,0.7,0.3,0.7,0.7c0,0.4-0.2,0.7-0.6,0.8c-0.4,0-0.7-0.2-0.8-0.6c0-0.1,0-0.1,0-0.2
	C43.3,110.5,43.6,110.2,44,110.2L44,110.2z"/>
<path class="st16" d="M56.5,85c0.5,0,0.8,0.2,0.8,0.7c0,0.4-0.3,0.7-0.7,0.7s-0.7-0.3-0.7-0.7C55.8,85.4,56.1,85.1,56.5,85L56.5,85z
	"/>
<path class="st16" d="M43.4,77.8c-0.2-0.5-0.2-0.9,0.3-1.1c0.3-0.1,0.7,0,0.8,0.2c0.2,0.2,0.2,0.6,0,0.9
	C44.2,78.2,43.8,78.1,43.4,77.8z"/>
<path class="st17" d="M43.3,114.8c0.4-0.4,0.7-0.5,1.1-0.2c0.2,0.2,0.3,0.5,0.1,0.8c-0.1,0.3-0.5,0.4-0.8,0.3
	C43.2,115.6,43.3,115.2,43.3,114.8z"/>
<path class="st14" d="M52.3,72.4c0.8,0.5,0.8,0.5,0.4,1.3c-0.4,0.1-0.8,0.1-1-0.4S51.9,72.6,52.3,72.4z"/>
<path class="st18" d="M48.2,76.7c0.5,0.1,0.7,0.4,0.6,0.9c-0.1,0.3-0.3,0.5-0.6,0.4c-0.3,0-0.6-0.2-0.6-0.5
	C47.4,77,47.8,76.8,48.2,76.7z"/>
<path class="st18" d="M2.6,64.7c-0.2,0.5-0.4,0.7-0.9,0.6c-0.3-0.1-0.5-0.3-0.4-0.6c0-0.3,0.2-0.6,0.6-0.6C2.3,64,2.5,64.3,2.6,64.7
	z"/>
<path class="st19" d="M56,73.2c0.1-0.4,0.3-0.7,0.7-0.6c0.3,0,0.5,0.2,0.5,0.5c0.1,0.3-0.1,0.6-0.4,0.7C56.3,73.8,56.1,73.6,56,73.2
	z"/>
<path class="st20" d="M52.8,77c0.1,0.2,0.1,0.5,0,0.7c-0.2,0.2-0.6,0.3-0.8,0l0,0c-0.3-0.3-0.2-0.6,0.1-0.8
	C52.3,76.8,52.6,76.8,52.8,77z"/>
<path class="st21" d="M48.1,115.7c-0.3-0.1-0.5-0.2-0.5-0.6c0-0.3,0.2-0.5,0.5-0.5h0.1c0.3,0,0.5,0.3,0.4,0.6S48.5,115.7,48.1,115.7
	z"/>
<path class="st11" d="M56.2,81.1c0.2-0.2,0.6-0.2,0.8,0.1c0.2,0.2,0.2,0.5,0.1,0.7c-0.2,0.2-0.4,0.3-0.7,0.2
	C56,81.8,56,81.5,56.2,81.1z"/>
<path class="st22" d="M43.5,119c0.5-0.2,0.8-0.2,0.9,0.3c0,0.2-0.1,0.4-0.3,0.5H44C43.5,119.9,43.5,119.5,43.5,119z"/>
<path class="st23" d="M57.1,77.3c-0.4,0.5-0.4,0.5-0.9,0.1C56.5,76.8,56.5,76.8,57.1,77.3z"/>
<path class="st24" d="M15,100.4c0.7-0.2,1.2-0.7,1.5-1.3c0.5,0.4,0.7,1,1.3,1.3c-0.5,0.4-1,0.9-1.2,1.5
	C16.3,101.2,15.7,100.6,15,100.4z"/>
<path class="st25" d="M21.7,104.7c-0.4,0.3-0.7,0.7-1,1.2c-0.4-0.4-0.7-0.8-1.2-1.1c0.5-0.3,1-0.6,1.2-1.1L21.7,104.7z"/>
<path class="st26" d="M25,110.1c-0.3-0.4-0.6-0.8-1-1.1c0.4-0.3,0.7-0.6,1-1l1,0.9C25.6,109.3,25.3,109.6,25,110.1z"/>
<path class="st27" d="M20.7,101.3c-0.3-0.3-0.6-0.6-1-0.9c0.4-0.3,0.8-0.6,1.1-1l0.9,0.9L20.7,101.3z"/>
<path class="st28" d="M25.1,101.4c-0.2-0.4-0.6-0.7-0.9-1c0.3-0.3,0.6-0.7,0.9-1.1c0.3,0.4,0.7,0.8,1.1,1.1L25.1,101.4z"/>
<path class="st29" d="M26.2,104.6c-0.4,0.3-0.7,0.6-1,1l-0.9-0.9c0.3-0.3,0.6-0.6,0.9-1C25.4,104,25.8,104.3,26.2,104.6z"/>
</svg>
