<?xml version="1.0" encoding="utf-8"?>
<!-- Generator: Adobe Illustrator 24.1.2, SVG Export Plug-In . SVG Version: 6.00 Build 0)  -->
<svg version="1.1" id="Layer_1" xmlns="http://www.w3.org/2000/svg" xmlns:xlink="http://www.w3.org/1999/xlink" x="0px" y="0px"
	 viewBox="0 0 793.5 300" style="enable-background:new 0 0 793.5 300;" xml:space="preserve">
<style type="text/css">
	.st0{fill:#FFFFFF;}
	.st1{fill:#F04149;}
	.st2{fill:#25AC61;}
</style>
<path class="st0" d="M240.8,26.8C149.8-20.4,47.3-3.6,12,64.4c-34.9,67.2,8.8,159.3,97.8,207.1c1.1,0.6,2.1,1.2,3.2,1.7
	c23.5,12.2,47.8,20.1,71.5,24c68,11.1,131.1-11.1,157.3-61.6C377.1,167.6,331.9,74.1,240.8,26.8L240.8,26.8z"/>
<path class="st1" d="M240.8,26.8C149.8-20.4,47.3-3.6,12,64.4c-34.9,67.2,8.8,159.3,97.8,207.1c-22.5-44.7-50.7-100.9-62.5-125.2
	c-10.1-20.1-13.4-40.1-10.9-58.2c1.4-10.4,4.3-16.9,4.3-16.9c10-27,34.6-47.5,70.2-54.2c64.8-12.2,141.3,25.8,170.9,85
	c29.7,59.2,1.2,117.1-63.6,129.3c-19.6,3.7-40.3,2.8-60.4-1.9c-8.8-1.8-3.3,8.2-3.3,8.2l29.9,59.6c68,11.1,131.1-11.1,157.3-61.6
	C377.1,167.6,331.9,74.1,240.8,26.8L240.8,26.8z"/>
<path class="st2" d="M203.8,181.4c-12.5,3.9-24.4,4.1-36.8,2.6c-27.5-3.8-51.9-22-64-43.5c-15.3-27.5-11.8-62,22-74.9
	c35-13.4,73.5,7,91.5,35.6c4.7,7.4,8,15.5,9.7,23.4c-0.4-11.1-4.3-22.6-10.9-33.1c-10.5-16.7-28-30.6-47.8-36.6
	c25.7,3.8,49.2,20.4,62.3,41.2C249.5,127.5,245.7,168.3,203.8,181.4L203.8,181.4z M756.9,60.2v11.4h36.4V101h-36.4v116.4h-30.6V101
	h-20.1V71.6h20.1V60.8c0-16.1,5.1-29.6,14.7-39.2c9.4-9.4,22.3-14.3,37.4-14.3h15.1v29.5h-11.6C765.3,36.7,756.9,44.6,756.9,60.2
	L756.9,60.2z M699.8,137.6v79.8h-30.6v-13.7c-0.1,0.9-0.6,1.6-1.6,2.5c-6.7,5.7-19.6,13.7-41.8,13.7c-35.1,0-72.9-24-72.9-76.8
	c0-19.9,7.1-38.4,20-52.1c13.5-14.2,32.6-22,53.8-22C671.1,69,699.8,95.9,699.8,137.6L699.8,137.6z M669.2,135.8
	c0-23.3-15.9-37.3-42.5-37.3c-29.4,0-42.5,23.1-42.5,46c0,27,17.1,45.9,41.7,45.9c15.3,0,26.9-4.9,32.7-9.5
	c8.1-6.4,10.7-12,10.7-22.7v-22.4H669.2z M524.1,91.1c12.9,13.6,20,32.1,20,52.1c0,52.8-37.8,76.8-72.9,76.8
	c-22.2,0-35.1-8.1-41.8-13.7c-1-0.9-1.4-1.6-1.6-2.5v75.4h-30.6V137.6c0-41.7,28.7-68.6,73.1-68.6C491.5,69,510.6,76.8,524.1,91.1
	L524.1,91.1z M512.8,144.6c0-22.9-13.1-46-42.5-46c-26.6,0-42.5,13.9-42.5,37.3v22.5c0,10.7,2.6,16.2,10.7,22.7
	c5.8,4.6,17.4,9.5,32.7,9.5C495.7,190.5,512.8,171.6,512.8,144.6z"/>
</svg>
