<?xml version="1.0" encoding="utf-8"?>
<!-- Generator: Adobe Illustrator 24.1.2, SVG Export Plug-In . SVG Version: 6.00 Build 0)  -->
<svg version="1.1" id="Lager_1" xmlns="http://www.w3.org/2000/svg" xmlns:xlink="http://www.w3.org/1999/xlink" x="0px" y="0px"
	 viewBox="0 0 128.1 51" style="enable-background:new 0 0 128.1 51;" xml:space="preserve">
<style type="text/css">
	.st0{fill:#002B49;}
	.st1{fill:#006B87;}
	.st2{fill:url(#SVGID_1_);}
	.st3{fill:#E11B22;}
	.st4{fill:#F15A29;}
	.st5{fill:#33647E;}
</style>
<polygon class="st0" points="17.6,40.8 0,30.6 17.6,51 "/>
<polygon class="st1" points="17.7,40.8 35.3,30.6 17.6,51 "/>
<radialGradient id="SVGID_1_" cx="17.7" cy="23.58" r="17.57" gradientTransform="matrix(1 0 0 -1 0 52)" gradientUnits="userSpaceOnUse">
	<stop  offset="0" style="stop-color:#FFF203"/>
	<stop  offset="0.12" style="stop-color:#FEED06"/>
	<stop  offset="0.26" style="stop-color:#FCDD10"/>
	<stop  offset="0.43" style="stop-color:#F9C41F"/>
	<stop  offset="0.6" style="stop-color:#F5A135"/>
	<stop  offset="0.67" style="stop-color:#F3903F"/>
	<stop  offset="0.89" style="stop-color:#ED683C"/>
	<stop  offset="1" style="stop-color:#E93E3A"/>
</radialGradient>
<polygon class="st2" points="0,30.6 17.6,20.4 35.3,30.6 17.6,40.8 "/>
<polygon class="st3" points="17.6,0 0,20.4 17.6,30.6 "/>
<polyline class="st4" points="17.6,30.6 17.6,0 35.3,20.4 "/>
<path class="st4" d="M43.8,21.8h-1.1v-6.7h1.1V21.8z"/>
<path class="st4" d="M53.7,16h-3.1v5.8h-1.1V16h-3.1v-0.9h7.3L53.7,16z"/>
<path class="st4" d="M57,18.8h-2.8v-1h2.8L57,18.8z"/>
<path class="st4" d="M66.8,20.5c0,0.9-0.6,1.3-1.9,1.3H60v-6.7h5.4c0.4,0,0.8,0.1,1.1,0.3c0.3,0.3,0.4,0.6,0.3,1v0.8
	c0,0.7-0.4,1.1-1.1,1.1c0.7,0,1.2,0.6,1.2,1.2c0,0,0,0.1,0,0.1L66.8,20.5z M65.6,17.3v-0.7c0-0.2,0-0.4-0.2-0.5
	C65.3,16,65.1,16,64.9,16h-3.9v1.8h3.9C65.4,17.8,65.6,17.6,65.6,17.3z M65.7,20.1v-0.6c0-0.2,0-0.4-0.2-0.6
	c-0.2-0.1-0.4-0.2-0.6-0.2h-3.9v2.1h3.9c0.2,0,0.4,0,0.6-0.2C65.6,20.5,65.7,20.3,65.7,20.1z"/>
<path class="st4" d="M77.7,20.2c0,0.4-0.1,0.9-0.3,1.3c-0.4,0.3-0.8,0.4-1.2,0.3h-4.6c-0.4,0-0.9-0.1-1.2-0.3
	c-0.3-0.4-0.4-0.8-0.3-1.3v-3.5c-0.1-0.4,0.1-0.9,0.3-1.3c0.4-0.3,0.8-0.4,1.2-0.3h4.6c0.4,0,0.9,0.1,1.2,0.3
	c0.3,0.4,0.4,0.8,0.3,1.3L77.7,20.2z M76.6,20.9V16h-5.6v4.9L76.6,20.9z"/>
<path class="st4" d="M87.3,21.8h-6.2v-6.7h1.1v5.8h5.1V21.8z"/>
<path class="st4" d="M98.1,21.8h-1.2L96,20.1h-4.6l-0.9,1.6h-1.1l3.7-6.7h1.2L98.1,21.8z M95.5,19.3l-1.8-3.4l-1.8,3.4H95.5z"/>
<path class="st4" d="M108.1,20.2c0.1,0.4-0.1,0.9-0.3,1.3c-0.4,0.3-0.8,0.4-1.2,0.3h-4.3c-0.4,0-0.9-0.1-1.2-0.3
	c-0.3-0.4-0.4-0.8-0.3-1.3v-3.5c0-0.4,0.1-0.9,0.3-1.3c0.4-0.3,0.8-0.4,1.2-0.3h4.3c0.5-0.1,0.9,0.1,1.3,0.4
	c0.2,0.4,0.3,0.9,0.3,1.3l-1.1,0.2v-1h-5.3v4.9h5.3v-2h-2.7V18h3.8L108.1,20.2z"/>
<path class="st4" d="M117.8,21.8h-6.5v-6.7h6.5V16h-5.3v1.9h3.3v0.9h-3.3v2.1h5.4L117.8,21.8z"/>
<path class="st4" d="M127.3,16h-3.1v5.8h-1.1V16H120v-0.9h7.3L127.3,16z"/>
<path class="st5" d="M52.3,30.4c0.1,0.5-0.1,1-0.5,1.4c-0.4,0.3-1,0.5-1.5,0.4h-5.9v3.6h-1.6v-9.3h7.5c0.5,0,1.1,0.1,1.5,0.4
	c0.4,0.4,0.5,0.9,0.5,1.4V30.4z M50.7,30v-1.3c0-0.3,0-0.6-0.2-0.8c-0.2-0.2-0.5-0.2-0.8-0.2h-5.3V31h5.3c0.3,0,0.6,0,0.8-0.2
	C50.7,30.6,50.8,30.3,50.7,30z"/>
<path class="st5" d="M64.8,35.8h-9v-9.3h9v1.2h-7.4v2.6h4.5v1.2h-4.5v3h7.5V35.8z"/>
<path class="st5" d="M78.7,35.8h-2.3l-3.8-3.6h-2.7v3.6h-1.5v-9.3h7.5c0.5,0,1.1,0.1,1.5,0.4c0.4,0.4,0.5,0.9,0.5,1.4v2.1
	c0.1,0.8-0.3,1.5-1.1,1.7c-0.7,0.1-1.5,0.1-2.3,0.1L78.7,35.8z M76.2,30v-1.3c0-0.3,0-0.5-0.2-0.8c-0.2-0.2-0.5-0.2-0.8-0.2h-5.3V31
	h5.3c0.3,0,0.6,0,0.8-0.2C76.2,30.6,76.3,30.3,76.2,30z"/>
<path class="st5" d="M89.6,35.8h-1.4l-1.4-1.1l-0.8,0.7c-0.1,0.2-0.3,0.3-0.6,0.3c-0.2,0.1-0.4,0.1-0.6,0.1h-2.2
	c-0.7,0-1.2-0.2-1.4-0.5c-0.2-0.5-0.2-1-0.2-1.5c0-0.3,0-0.5,0.2-0.8c0.2-0.2,0.4-0.4,0.6-0.5l1.3-0.8c-0.2-0.2-0.4-0.4-0.5-0.6
	c-0.1-0.3-0.1-0.5-0.1-0.8c0-0.4,0.1-0.8,0.4-1c0.3-0.2,0.7-0.3,1.1-0.2h1.3c0.7,0,1.1,0.1,1.3,0.4c0.2,0.4,0.3,0.9,0.3,1.3L86.2,31
	v-1.1h-2.6v1l3.3,2.7l1.6-1.5l0.6,0.5l-1.5,1.4L89.6,35.8z M86.2,34.1l-2.4-1.9l-1.7,1.2v1.5h3.3L86.2,34.1z"/>
<path class="st5" d="M101.7,30.4c0.1,0.5-0.1,1-0.5,1.4c-0.4,0.3-1,0.5-1.5,0.4h-5.9v3.6h-1.6v-9.3h7.5c0.5,0,1.1,0.1,1.5,0.4
	c0.3,0.4,0.5,0.9,0.5,1.4L101.7,30.4z M100.2,30v-1.3c0-0.3,0-0.6-0.2-0.8c-0.2-0.2-0.5-0.2-0.8-0.2h-5.3V31h5.3
	c0.3,0,0.6,0,0.8-0.2C100.1,30.6,100.2,30.3,100.2,30L100.2,30z"/>
<path class="st5" d="M114.3,35.8h-9v-9.3h8.9v1.2h-7.4v2.6h4.5v1.2h-4.5v3h7.5L114.3,35.8z"/>
<path class="st5" d="M128.1,35.8h-2.3l-3.8-3.6h-2.7v3.6h-1.6v-9.3h7.5c0.5,0,1.1,0.1,1.5,0.4c0.3,0.4,0.5,0.9,0.5,1.4v2.1
	c0.1,0.8-0.3,1.5-1.1,1.7c-0.7,0.1-1.5,0.1-2.3,0.1L128.1,35.8z M125.7,30v-1.3c0-0.3-0.1-0.5-0.2-0.8c-0.2-0.2-0.5-0.2-0.8-0.2
	h-5.3V31h5.3c0.3,0,0.6,0,0.8-0.2C125.6,30.6,125.7,30.3,125.7,30z"/>
</svg>
