<?xml version="1.0" encoding="utf-8"?>
<!-- Generator: Adobe Illustrator 24.1.2, SVG Export Plug-In . SVG Version: 6.00 Build 0)  -->
<svg version="1.1" id="Lager_1" xmlns="http://www.w3.org/2000/svg" xmlns:xlink="http://www.w3.org/1999/xlink" x="0px" y="0px"
	 viewBox="0 0 129 37.2" style="enable-background:new 0 0 129 37.2;" xml:space="preserve">
<style type="text/css">
	.st0{fill:#133250;}
</style>
<g>
	<g>
		<path class="st0" d="M40.4,10.1V8.7c0-5.1,2.9-8.7,9.5-8.7s9.5,3.6,9.5,8.7v0.5c0.1,0.9-0.5,1.7-1.4,1.8c-0.1,0-0.2,0-0.3,0h-1.5
			c-0.9,0.1-1.7-0.5-1.8-1.4c0-0.1,0-0.2,0-0.3V8.8c0-2.6-1.1-4.4-4.5-4.4s-4.5,1.8-4.5,4.4v0.9c0,2.5,1.2,3.9,3.5,5.4l5.8,3.7
			c3,2,4.9,4.5,4.9,8.2v1.6c0,5-3.2,8.6-9.7,8.6s-9.6-3.7-9.6-8.7v-0.8c-0.1-0.9,0.5-1.7,1.4-1.8c0.1,0,0.2,0,0.3,0h1.5
			c0.8-0.1,1.6,0.5,1.7,1.3c0,0.1,0,0.2,0,0.4v0.8c0,2.7,1.3,4.4,4.7,4.4s4.8-1.7,4.8-4.4v-0.7c-0.1-2.6-1-3.8-3.3-5.3l-5.8-3.7
			C42.6,16.7,40.4,13.9,40.4,10.1z"/>
		<g>
			<path class="st0" d="M76.9,2.6l-7,15.5l7.5,16.6c0.5,1.2,0,2-1.3,2h-1.9c-0.9,0.1-1.7-0.5-2-1.3l-7-16c-0.3-0.7-0.3-1.6,0-2.3
				l6.7-15.2c0.3-0.8,1.1-1.4,2-1.3h1.7C76.9,0.6,77.5,1.4,76.9,2.6z"/>
			<path class="st0" d="M82.4,35V2.3c-0.1-0.9,0.5-1.6,1.4-1.7c0.1,0,0.3,0,0.4,0h1.5c0.8-0.1,1.6,0.5,1.7,1.3c0,0.1,0,0.2,0,0.4V35
				c0.1,0.9-0.5,1.7-1.4,1.8c-0.1,0-0.2,0-0.3,0h-1.5c-0.9,0.1-1.7-0.6-1.8-1.6C82.4,35.2,82.4,35.1,82.4,35z"/>
			<path class="st0" d="M108.1,36.7H96.3c-0.9,0.1-1.7-0.5-1.8-1.4c0-0.1,0-0.2,0-0.4V2.3c-0.1-0.9,0.5-1.6,1.4-1.7
				c0.1,0,0.3,0,0.4,0h1.5c0.8-0.1,1.6,0.5,1.7,1.3c0,0.1,0,0.2,0,0.4v30.1h8.6c0.9-0.1,1.6,0.5,1.7,1.4c0,0.1,0,0.3,0,0.4V35
				c0.1,0.8-0.4,1.6-1.2,1.7C108.4,36.7,108.3,36.7,108.1,36.7z"/>
			<path class="st0" d="M127.3,36.7h-11.8c-0.9,0.1-1.7-0.5-1.8-1.4c0-0.1,0-0.2,0-0.4V2.3c-0.1-0.9,0.5-1.6,1.4-1.7
				c0.1,0,0.3,0,0.4,0h1.5c0.8-0.1,1.6,0.5,1.7,1.3c0,0.1,0,0.2,0,0.4v30.1h8.6c0.9-0.1,1.6,0.5,1.7,1.4c0,0.1,0,0.3,0,0.4V35
				c0.1,0.8-0.5,1.6-1.3,1.7C127.6,36.7,127.4,36.7,127.3,36.7z"/>
		</g>
	</g>
	<g>
		<g>
			<g>
				<circle class="st0" cx="16.1" cy="3.8" r="3.2"/>
				<circle class="st0" cx="16.1" cy="33.6" r="3.2"/>
			</g>
			<g>
				<circle class="st0" cx="29.1" cy="11.2" r="3.2"/>
				<circle class="st0" cx="3.2" cy="26.1" r="3.2"/>
			</g>
			<g>
				<circle class="st0" cx="3.2" cy="11.2" r="3.2"/>
				<circle class="st0" cx="29" cy="26.1" r="3.2"/>
			</g>
		</g>
		<path class="st0" d="M24,18.7c0-0.8,0.4-1.5,1-1.9l0,0l1.1-0.9c0.4-0.2,0.6-0.7,0.3-1.1c0,0,0,0,0-0.1l-1.6-2.8
			c-0.2-0.4-0.7-0.6-1.1-0.3c0,0,0,0-0.1,0l-1.4,0.5l0,0c-0.7,0.3-1.5,0.3-2.1-0.1c-0.7-0.4-1.1-1-1.1-1.8l0,0l-0.4-1.5
			c0-0.5-0.4-0.9-0.9-0.9h-3.2c-0.5,0-0.9,0.4-0.9,0.9l-0.2,1.4l0,0c-0.1,0.7-0.5,1.4-1.1,1.8c-0.6,0.4-1.4,0.4-2.1,0.1l0,0
			l-1.4-0.5c-0.4-0.2-0.9-0.1-1.2,0.3L6,14.6c-0.2,0.4-0.1,0.9,0.3,1.2l1.1,0.9l0,0c1,0.7,1.3,2.1,0.6,3.2c-0.2,0.2-0.4,0.4-0.6,0.6
			l0,0l-1.1,0.9c-0.4,0.2-0.6,0.7-0.3,1.1c0,0,0,0,0,0.1l1.6,2.8c0.2,0.4,0.7,0.6,1.1,0.3c0,0,0,0,0.1,0l1.4-0.5l0,0
			c0.7-0.3,1.5-0.3,2.1,0.1c0.7,0.4,1.1,1,1.1,1.8l0,0l0.3,1.4c0,0.5,0.4,0.9,0.9,0.9c0,0,0,0,0,0h3.2c0.5,0,0.9-0.4,0.9-0.9l0,0
			l0.3-1.4l0,0c0.1-0.7,0.5-1.4,1.1-1.8c0.6-0.4,1.4-0.4,2.1-0.1l0,0l1.4,0.5c0.4,0.2,0.9,0.1,1.2-0.3l1.6-2.8
			c0.2-0.4,0.1-0.9-0.3-1.2L25,20.5l0,0C24.4,20.1,24,19.4,24,18.7z M16.1,24.2c-3,0-5.5-2.5-5.5-5.5s2.5-5.5,5.5-5.5
			s5.5,2.5,5.5,5.5c0,3-2.3,5.5-5.3,5.5C16.2,24.2,16.2,24.2,16.1,24.2z"/>
	</g>
</g>
</svg>
