<?xml version="1.0" encoding="utf-8"?>
<!-- Generator: Adobe Illustrator 24.1.2, SVG Export Plug-In . SVG Version: 6.00 Build 0)  -->
<svg version="1.1" id="Layer_1" xmlns="http://www.w3.org/2000/svg" xmlns:xlink="http://www.w3.org/1999/xlink" x="0px" y="0px"
	 viewBox="0 0 841.9 312.5" style="enable-background:new 0 0 841.9 312.5;" xml:space="preserve">
<style type="text/css">
	.st0{fill:#878787;}
	.st1{fill:#3BB392;}
</style>
<g>
	<g>
		<path class="st0" d="M118.6,113.5c4.7,0,8.4-3.7,8.4-8.4c0-4.7-3.7-8.4-8.4-8.4s-8.4,3.7-8.4,8.4
			C109.9,109.8,113.8,113.5,118.6,113.5"/>
		<path class="st0" d="M188.1,105.7c-2.7-1.2-5.7,0.2-6.9,2.9c-0.2,0.4-21.4,47-63.9,47c-42.7,0-61.7-43.1-63.7-48
			c-1.2-2.7-4.1-3.9-6.9-2.9c-2.7,1.2-3.9,4.1-2.9,6.9c2.4,5.5,23.7,54.5,73.5,54.5c50,0,73.3-53.1,73.5-53.5
			C192.1,109.8,190.7,106.9,188.1,105.7"/>
		<path class="st0" d="M354.5,79.2c-24.1,0-38,18-38,49.6c0,22.7,10.4,49.4,39.6,49.4c14.1,0,24.7-6.9,31-20
			c5.3-11.4,5.9-24.3,5.9-29.2C393,87.8,372,79.2,354.5,79.2 M355.9,167.6c-6.9,0-29.2-2.7-29.2-38.8c0-25.9,9.2-39.2,27.6-39.2
			c6.9,0,28,0,28,39.2C382.6,164.9,362.2,167.6,355.9,167.6"/>
		<path class="st0" d="M617,79.4c-2.9,0-5.3,2.4-5.3,5.3v68.6c-1,2.7-10.4,14.5-28.4,14.5c-19.6,0-21.8-17.4-21.8-24.9V88.8
			c0-2.9-2.4-5.3-5.3-5.3h-56.4v-27c0-2.9-2.4-5.3-5.3-5.3s-5.3,2.4-5.3,5.3v27.2h-56.1V65.3c0-2.7,0.6-9.6,6.1-13.9
			c6.3-4.9,17.6-5.5,32.9-1.6c2.7,0.8,5.7-1,6.3-3.7c0.8-2.7-1-5.7-3.7-6.3c-18.8-4.9-32.9-3.7-41.9,3.3
			c-9.2,7.1-10.2,17.8-10.2,22.1v18.2h-28.4c-2.9,0-5.3,2.4-5.3,5.3s2.4,5.3,5.3,5.3h28.4v78.8c0,2.9,2.4,5.3,5.3,5.3
			s5.3-2.4,5.3-5.3v-79h56.3v51.4c0,10.2,3.1,18.4,9.2,23.7c5.3,4.7,12.7,7.1,22,7.1c2.5,0,5.3-0.2,8-0.6c2.9-0.4,4.9-2.9,4.5-5.9
			c-0.4-2.9-2.9-4.9-5.9-4.5c-10,1.2-17.4,0-21.8-3.9c-3.7-3.3-5.7-8.6-5.7-15.9V93.9h51.4v48.6c0,16.3,8.4,35.5,32.1,35.5
			c11.8,0,21.6-4.1,28.4-9.4v4.1c0,2.9,2.4,5.3,5.3,5.3s5.3-2.4,5.3-5.3V84.5C622.3,81.6,619.9,79.4,617,79.4"/>
		<path class="st0" d="M796.3,128.8c0-18.4-4.9-49.6-38.4-49.6c-24.1,0-38,18-38,49.6c0,19.8,10.6,49.4,39.6,49.4
			c14.9,0,26.1-6.7,34.1-20.6c1.4-2.5,0.6-5.7-2-7.1s-5.7-0.6-7.1,2c-6.3,10.6-13.9,15.5-25.1,15.5c-20.4,0-27.4-19.8-28.8-33.7
			h60.6C794,134.1,796.3,131.7,796.3,128.8 M730.5,123.7c1.2-22.5,10.4-33.9,27.4-33.9c17.6,0,26.7,11.2,27.8,33.9H730.5z"/>
		<path class="st0" d="M635.8,131c0,29.6,6.7,49.4,39.6,49.4c13.9,0,24.7-6.9,31-20c5.3-11.4,5.9-24.3,5.9-29.2
			c0-41-21-49.6-38.4-49.6c-11.6,0-20.8,4.1-27.2,12c0.2-25.9,0.6-54.9,0.6-55.5c0-2.9-2.4-5.3-5.1-5.3l0,0c-2.9,0-5.3,2.4-5.3,5.1
			C636.8,38.6,635.8,116.9,635.8,131 M675.4,169.8c-22.5,0-29.2-8.8-29.2-38.8c0-25.9,9.2-39.2,27.6-39.2c6.9,0,28,0,28,39.2
			C701.8,167,681.5,169.8,675.4,169.8"/>
		<path class="st0" d="M260.1,95.1c-16.7-5.5-27.4-14.9-29.4-25.5c-1.2-6.5,1.2-12.7,6.7-17.2c4.1-3.3,20.2-13.5,52.3-0.6
			c2.7,1,5.7-0.2,6.9-2.9c1-2.7-0.2-5.7-2.9-6.9c-25.3-10.2-48.8-9.2-62.7,2.2c-8.4,7.1-12.3,16.9-10.4,27.2
			c2.7,14.5,15.9,26.7,36.5,33.5c20,6.7,33.5,19,36.1,33.3c1.8,8.8-1.4,17.2-8.2,22.9c-13.1,11-36.5,11-64.3,0.4
			c-2.7-1-5.7,0.4-6.7,2.9c-1,2.7,0.4,5.7,2.9,6.7c14.7,5.7,28.6,8.4,40.8,8.4c13.7,0,25.3-3.5,33.7-10.6
			c9.8-8.2,14.1-20.2,11.8-32.9C299.9,118.4,283.8,102.9,260.1,95.1"/>
	</g>
	<g>
		<path class="st1" d="M41.5,280.6h-4.8v11.1h-6.3v-31.9h12.8c5.9,0,10.6,4.7,10.6,10.6c0,4-2.5,7.6-6.2,9.3l7.1,12.1h-6.8
			L41.5,280.6z M36.7,275h6.5c2.4,0,4.3-2.1,4.3-4.7s-2-4.7-4.3-4.7h-6.5V275z"/>
		<path class="st1" d="M68.4,275.7c0-9.4,7.3-16.6,16.6-16.6s16.6,7.3,16.6,16.6c0,9.3-7.4,16.6-16.6,16.6S68.4,285,68.4,275.7z
			 M95.3,275.7c0-6.2-4.5-10.5-10.3-10.5s-10.3,4.3-10.3,10.5c0,6.1,4.5,10.5,10.3,10.5C90.8,286.1,95.3,281.8,95.3,275.7z"/>
		<path class="st1" d="M116.5,275.7c0-9.4,6.9-16.6,16.6-16.6c5.8,0,11,3,13.7,7.5l-5.4,3.1c-1.6-2.8-4.7-4.6-8.3-4.6
			c-6.2,0-10.4,4.3-10.4,10.5c0,6.1,4.1,10.5,10.4,10.5c3.7,0,6.8-1.7,8.3-4.5l5.4,3.1c-2.7,4.6-7.8,7.5-13.7,7.5
			C123.4,292.3,116.5,285,116.5,275.7z"/>
		<path class="st1" d="M180.3,291.6l-11.4-15v15h-6.3v-31.9h6.3v14.1l11-14.1h7.3l-11.8,15.5l12.3,16.4H180.3z"/>
		<path class="st1" d="M247.5,292.7l-2.9-3.1c-2.3,1.7-5.1,2.7-8.6,2.7c-6.5,0-11.2-3.6-11.2-9.5c0-3.7,1.8-7.1,5.3-9.2
			c-0.9-1.5-1.5-3.1-1.5-5.3c0-5.4,4.2-9.2,10-9.2c4.5,0,8.3,2.3,10.2,6.8l-5.4,3.1c-0.8-2.4-2.4-3.8-4.7-3.8
			c-2.2,0-3.8,1.4-3.8,3.4c0,1.9,1.1,3.2,2.6,4.8l6.8,7.5c0.7-1.5,1.2-3.3,1.5-5.3l5.3,3c-0.5,2.3-1.5,4.6-2.8,6.7l4.1,4.5
			L247.5,292.7z M240.7,285.4l-6.9-7.5l-0.1-0.1c-1.8,1.1-2.5,2.8-2.5,4.4c0,2.6,1.7,4.3,5.2,4.3
			C238.1,286.5,239.5,286.1,240.7,285.4z"/>
		<path class="st1" d="M302.7,280.6h-4.8v11.1h-6.3v-31.9h12.8c5.9,0,10.6,4.7,10.6,10.6c0,4-2.5,7.6-6.2,9.3l7.1,12.1h-6.8
			L302.7,280.6z M297.9,275h6.5c2.4,0,4.3-2.1,4.3-4.7s-2-4.7-4.3-4.7h-6.5V275z"/>
		<path class="st1" d="M329.7,275.7c0-9.4,7.3-16.6,16.6-16.6s16.6,7.3,16.6,16.6c0,9.3-7.4,16.6-16.6,16.6S329.7,285,329.7,275.7z
			 M356.5,275.7c0-6.2-4.5-10.5-10.3-10.5s-10.3,4.3-10.3,10.5c0,6.1,4.5,10.5,10.3,10.5C352,286.1,356.5,281.8,356.5,275.7z"/>
		<path class="st1" d="M397.6,285.6v6h-18.5v-31.9h6.3v25.9H397.6z"/>
		<path class="st1" d="M431.6,285.6v6h-18.5v-31.9h6.3v25.9H431.6z"/>
		<path class="st1" d="M468.6,284.4l5.4-3.1c1.1,3,3.4,4.9,7.3,4.9c3.8,0,5.1-1.6,5.1-3.4c0-2.4-2.1-3.3-6.9-4.7
			c-4.9-1.4-9.6-3.5-9.6-9.5s5-9.5,10.5-9.5c5.3,0,9.3,2.7,11.4,7.2l-5.3,3.1c-1.1-2.4-2.9-4.1-6.1-4.1c-2.6,0-4.2,1.4-4.2,3.2
			c0,2,1.2,3,6.1,4.5c5.1,1.6,10.5,3.3,10.5,9.8c0,6-4.8,9.6-11.6,9.6C474.6,292.3,470.3,289.1,468.6,284.4z"/>
		<path class="st1" d="M507,275.7c0-9.4,6.9-16.6,16.6-16.6c5.8,0,11,3,13.7,7.5l-5.4,3.1c-1.6-2.8-4.7-4.6-8.3-4.6
			c-6.2,0-10.4,4.3-10.4,10.5c0,6.1,4.1,10.5,10.4,10.5c3.7,0,6.8-1.7,8.3-4.5l5.4,3.1c-2.7,4.6-7.8,7.5-13.7,7.5
			C513.9,292.3,507,285,507,275.7z"/>
		<path class="st1" d="M559.4,259.7v31.9h-6.3v-31.9H559.4z"/>
		<path class="st1" d="M596.9,285.6v6h-19.8v-31.9h19.5v6h-13.2v6.8h12.1v5.9h-12.1v7.2H596.9z"/>
		<path class="st1" d="M638,259.7v31.9h-4.8l-13.7-19.5v19.5h-6.3v-31.9h4.8l13.7,19.5v-19.5H638z"/>
		<path class="st1" d="M676.9,265.7h-8.6v25.9H662v-25.9h-8.6v-6h23.5V265.7z"/>
		<path class="st1" d="M698.6,259.7v31.9h-6.3v-31.9H698.6z"/>
		<path class="st1" d="M714.2,284.4l5.4-3.1c1.1,3,3.4,4.9,7.3,4.9c3.8,0,5.1-1.6,5.1-3.4c0-2.4-2.1-3.3-6.9-4.7
			c-4.9-1.4-9.6-3.5-9.6-9.5s5-9.5,10.5-9.5c5.3,0,9.3,2.7,11.4,7.2l-5.3,3.1c-1.1-2.4-2.9-4.1-6.1-4.1c-2.6,0-4.2,1.4-4.2,3.2
			c0,2,1.2,3,6.1,4.5c5.1,1.6,10.5,3.3,10.5,9.8c0,6-4.8,9.6-11.6,9.6C720.3,292.3,716,289.1,714.2,284.4z"/>
		<path class="st1" d="M774.3,265.7h-8.6v25.9h-6.3v-25.9h-8.6v-6h23.5L774.3,265.7L774.3,265.7z"/>
		<path class="st1" d="M787.2,284.4l5.4-3.1c1.1,3,3.4,4.9,7.3,4.9c3.8,0,5.1-1.6,5.1-3.4c0-2.4-2.1-3.3-6.9-4.7
			c-4.9-1.4-9.6-3.5-9.6-9.5s5-9.5,10.5-9.5c5.3,0,9.3,2.7,11.4,7.2l-5.3,3.1c-1.1-2.4-2.9-4.1-6.1-4.1c-2.6,0-4.2,1.4-4.2,3.2
			c0,2,1.2,3,6.1,4.5c5.1,1.6,10.5,3.3,10.5,9.8c0,6-4.8,9.6-11.6,9.6C793.2,292.3,788.9,289.1,787.2,284.4z"/>
	</g>
</g>
</svg>
