<?xml version="1.0" encoding="utf-8"?>
<!-- Generator: Adobe Illustrator 24.1.2, SVG Export Plug-In . SVG Version: 6.00 Build 0)  -->
<svg version="1.1" id="Lager_1" xmlns="http://www.w3.org/2000/svg" xmlns:xlink="http://www.w3.org/1999/xlink" x="0px" y="0px"
	 viewBox="0 0 364.7 552.4" style="enable-background:new 0 0 364.7 552.4;" xml:space="preserve">
<style type="text/css">
	.st0{fill:#CC0007;}
	.st1{fill:#F2B601;}
	.st2{fill:#271971;}
	.st3{fill:#008DDF;}
	.st4{fill:#CE006A;}
	.st5{fill:#DC6600;}
	.st6{fill:#010101;}
	.st7{fill:#020202;}
	.st8{fill:#030303;}
	.st9{fill:#050505;}
	.st10{fill:#080808;}
	.st11{fill:#0F0F0F;}
	.st12{fill:#070707;}
	.st13{fill:#0D0D0D;}
	.st14{fill:#595959;}
</style>
<g>
	<path class="st0" d="M182.3,151.4c-12.3-0.1-22.4-10.1-22.5-22.2c0-12.2,10.3-22.6,22.6-22.7c12.2,0,22.4,10.3,22.3,22.8
		C204.7,141.6,194.5,151.5,182.3,151.4z"/>
	<path class="st1" d="M159.8,22.5c0.2-11.7,10-22.7,22.5-22.5c12,0.2,22.4,9.1,22.4,22.9c-0.1,13-9.7,21.9-22.6,22.1
		C170.1,45.1,160,35.2,159.8,22.5z"/>
	<path class="st1" d="M311.6,182.3c0,12-10.3,22.3-22.4,22.4c-12.3,0.1-22.5-9.8-22.5-22.1c0.1-13.6,11.2-22.7,22-22.8
		C300.7,159.6,311.5,170.3,311.6,182.3z"/>
	<path class="st2" d="M204.6,289c0,12.3-10.3,22.4-22.8,22.3c-12-0.1-21.9-10-22-22c-0.1-12.5,10-22.8,22.2-22.8
		C194.3,266.5,204.6,276.7,204.6,289z"/>
	<path d="M289,266.5c12.3,0.1,22.6,10.4,22.5,22.7c-0.1,12.2-10.6,22.3-23,22.1c-12.2-0.2-22-10.4-21.9-22.6
		C266.8,276.5,276.9,266.4,289,266.5z"/>
	<path class="st2" d="M106.7,128.7c0.2-12.1,10.5-22.2,22.5-22.1c12.3,0.1,22.5,10.6,22.3,22.9s-10.5,22.2-23.1,22
		C116.2,151.2,106.5,141.1,106.7,128.7z"/>
	<path class="st3" d="M44.9,182.3c0.1,12.4-10,22.4-22.6,22.4c-12.1,0-22.4-10.2-22.3-22.2c0.1-11.9,10.5-22.5,22.2-22.6
		C34.4,159.7,44.8,170.1,44.9,182.3z"/>
	<path class="st2" d="M128.8,204.6c-12.4-0.1-22.2-10-22.2-22.3c0.1-12.3,10.4-22.6,22.6-22.5s22.4,10.7,22.2,23
		C151.3,195.1,141.2,204.8,128.8,204.6z"/>
	<path class="st4" d="M288.8,53.4c12.4,0,22.6,10.2,22.7,22.5c0.1,12.2-10.3,22.4-22.8,22.3c-12.2-0.1-22.1-10.2-22.1-22.4
		C266.7,63.6,276.8,53.4,288.8,53.4z"/>
	<path class="st0" d="M204.7,182.7c-0.1,12.2-10.1,22.1-22.4,22c-12.3-0.1-22.5-10.1-22.5-22.1c0-12.2,10.4-22.7,22.6-22.7
		C194.5,159.8,204.8,170.3,204.7,182.7z"/>
	<path d="M159.7,342.1c0-12.4,10.3-22.7,22.5-22.6c12.3,0.1,22.4,10.5,22.3,22.8c-0.1,12.1-10.3,22-22.6,22
		C169.8,364.4,159.7,354.3,159.7,342.1z"/>
	<path class="st1" d="M319.8,182.6c0-12.2,10.3-22.9,22.1-22.8c11.6,0,22.4,8.7,22.8,22.5c0.4,12.2-10,22.4-22.7,22.4
		C330.2,204.7,319.8,194.4,319.8,182.6z"/>
	<path d="M128.7,257.9c-12.3-0.1-22.2-10-22.1-22.3c0.1-12.2,10.1-22.3,22.2-22.4c12.4,0,22.6,10.1,22.7,22.4
		C151.6,248,141.4,257.9,128.7,257.9z"/>
	<path class="st0" d="M213.4,129.2c0-12.5,10.1-22.7,22.4-22.6c12.4,0.1,22.3,10.4,22.2,22.9c-0.1,12.2-10.1,22-22.5,21.9
		C223.2,151.4,213.4,141.5,213.4,129.2z"/>
	<path class="st2" d="M182.4,213.2c12.1-0.1,22.2,10,22.3,22.2c0.1,12.4-9.6,22.3-21.9,22.5c-12.6,0.2-22.9-9.7-23-22
		C159.8,223.6,170,213.3,182.4,213.2z"/>
	<path class="st5" d="M182.2,97.9c-12.3,0-22.3-9.7-22.4-21.8c-0.1-12.2,10.2-22.7,22.3-22.7c12.3,0,22.6,10.1,22.6,22.4
		C204.9,88.3,195.1,97.9,182.2,97.9z"/>
	<path class="st4" d="M213.4,182.5c0-12.5,10.1-22.7,22.4-22.7c12.2,0,22.3,10.4,22.2,22.9c-0.1,12.3-10,22-22.4,21.9
		C223.1,204.6,213.4,194.8,213.4,182.5z"/>
	<path class="st3" d="M98,76.2c-0.1,12.5-10.2,22.2-22.9,22C63,97.9,53.5,88.1,53.5,76c0-12.7,9.9-22.6,22.3-22.5
		C88.3,53.5,98.1,63.5,98,76.2z"/>
	<path d="M53.4,288.9c0.1-12.5,10.2-22.6,22.6-22.4c12.3,0.2,22.4,10.6,22.2,22.9c-0.2,12.2-10.3,21.9-22.6,21.9
		S53.3,301.2,53.4,288.9z"/>
	<path class="st2" d="M75.7,204.6c-12.4,0-22.2-9.7-22.3-22c0-12.3,9.8-22.5,21.9-22.7c12.5-0.2,23,10.2,22.9,22.8
		C98,194.9,88.1,204.6,75.7,204.6z"/>
	<path class="st4" d="M235.6,257.8c-12.5,0-22.2-9.6-22.2-22c0-12.6,9.9-22.6,22.4-22.5s22.3,10.1,22.2,22.7
		C257.9,248.3,248.1,257.8,235.6,257.8z"/>
	<path class="st6" d="M80.3,407.9c-3.3,1-5.1,0.7-6.3-3.1c-3.3-10-19.4-13-26.8-5.3c-4.6,4.8-3.4,12.1,2.5,15.1
		c4.4,2.3,9.2,2.7,13.9,3.8c3.1,0.7,6.1,1.5,9.1,2.7c12.9,5.1,11.5,21,4.2,27.2c-8.9,7.6-27,6.7-34.9-2c-2.7-2.9-4.3-6.4-5-10.2
		c-0.2-1.2-1.5-3.3,1.2-3.4c1.8-0.1,3.7-0.9,4.5,2.3c3.1,12,16.1,17.4,27.3,11.7c4.6-2.4,6.8-6.2,6.6-11.4c-0.1-5-3-7.9-7.4-9.6
		c-3.9-1.5-8-2.3-12.1-3.1c-3.6-0.7-7.2-1.6-10.4-3.3c-8.6-4.4-10.5-15.8-3.8-22.8c7.5-7.9,24.8-8,32.5-0.1
		C78.4,399.6,80,403.5,80.3,407.9z"/>
	<path class="st7" d="M76.1,541c2.7-0.6,4.4-0.8,6,2c2.6,4.6,10.1,6.1,16.8,4.1c5.2-1.6,7.9-5.2,8.1-11.2c0.1-2,0-4,0-5.9
		c-0.5-0.1-0.9-0.3-1-0.2c-10.5,10.9-26,7.3-30.6-7.1c-1.7-5.4-1.6-10.8-0.2-16.2c3.3-13.7,20.7-19.7,31.2-7.9
		c1-0.5,0.7-1.4,0.6-2.1c-0.2-2.3,0.5-3.3,3-3.3c2.6,0.1,2.4,1.6,2.4,3.3c0,11.6,0,23.3,0,34.9c0,3,0,6-0.7,8.9
		c-1.1,4.2-3.4,7.6-7.4,9.5c-7.2,3.4-14.5,3.3-21.7-0.1C79.1,548.2,76.8,545.4,76.1,541z M79.7,514.3c-0.1,3.2,0.4,6.4,1.7,9.5
		c2.1,4.9,5.8,7.6,11.2,7.8c5.7,0.2,10.3-1.8,12.7-7.1c3.1-6.9,3.1-14-0.1-20.8c-2.3-4.8-6.5-7-11.7-7c-5.1,0-9,2.3-11.4,6.8
		C80.3,506.7,79.6,510.3,79.7,514.3z"/>
	<path class="st7" d="M239.6,445c-5.4,5.8-11.4,7.5-18.6,5.9c-7.4-1.7-11.5-6.8-13.4-13.9c-1.5-5.6-1.3-11.2,0.6-16.7
		c4.8-13.7,20.3-17,30.2-6.4c0.3,0.3,0.5,0.5,1.2,0.1c0-0.9,0.1-2,0-3c-0.2-2.2,1-2.3,2.7-2.4c2-0.1,2.5,0.7,2.5,2.6
		c-0.1,8.7,0,17.3,0,26c0,4.8,0.1,9.7,0,14.5c-0.2,8.4-4.6,13.7-12.8,15.5c-6,1.3-11.9,0.9-17.4-2.1c-2.1-1.1-3.8-2.8-4.7-5
		c-0.4-1.1-2-2.6-0.3-3.4c1.3-0.7,3.4-1.1,4.4,0.7c3.4,6.4,9.2,6.5,15.1,5.7c7.2-0.9,10.4-4.9,10.6-12.1
		C239.7,448.9,239.6,446.9,239.6,445z M239.9,429.7c-0.1-2.5-0.1-5-0.8-7.4c-2-6.6-6.5-10.2-13.1-10.2c-6.2,0-10.7,3.5-12.6,10
		c-1.7,5.6-1.6,11.2,0.5,16.7c2,5.4,6.2,8.1,11.9,8.2c6,0.1,10.4-2.7,12.6-8C239.6,436,239.9,432.9,239.9,429.7z"/>
	<path class="st8" d="M156.7,524c-1.8,7.9-6.4,12.5-13.5,13.6c-8.4,1.3-15.9-0.5-20.5-8.1c-5.7-9.5-5.6-19.4,0.1-28.8
		c4.4-7.1,11.4-9.3,19.5-8.2c7.7,1.1,11.8,6.2,13.9,13.2c2.9,9.8,2.5,10.3-7.4,10.3c-7.2,0-14.3,0-21.5,0c-1.4,0-3.2-0.5-3,2
		c0.5,5.4,2.1,10.2,6.9,13.2c4.5,2.9,9.4,3,14.3,0.8c2.3-1.1,4.2-2.9,5-5.3C151.7,523.8,153.5,523,156.7,524z M138.1,511.8
		c3.5,0,7-0.2,10.5,0.1c3.2,0.2,3.5-1.2,3-3.8c-1.3-7.3-6.3-11.7-13.4-11.5c-7,0.2-12.9,5.8-13.6,12.9c-0.2,1.7,0.2,2.4,2,2.4
		C130.5,511.7,134.3,511.8,138.1,511.8z"/>
	<path class="st8" d="M325.2,524c-1.9,8.1-6.7,12.7-14.4,13.8c-8.9,1.2-16.6-2.1-20.4-9.4c-4.5-8.7-4.6-17.6,0-26.3
		c4.4-8.4,14-11.9,23.1-8.9c7.5,2.5,13.4,12.5,12.4,20.9c-0.3,2.8-2.2,2-3.6,2c-8.7,0.1-17.3,0.2-26,0c-3.3-0.1-4,0.9-3.4,4
		c1.7,8.9,7.4,14,15.7,13.5c4.7-0.3,8.5-2.2,10.3-6.6C320.3,523.6,322.2,523.1,325.2,524z M320.5,511.8c-0.2-1.4-0.2-2.2-0.4-3
		c-1.6-8.3-5.9-12.3-13.1-12.2c-7,0.1-12.4,5-13.8,12.6c-0.3,1.4-0.8,2.7,1.4,2.7C303.2,511.8,311.8,511.8,320.5,511.8z"/>
	<path class="st7" d="M161.5,439.5c-2.9,9.1-8.1,13.4-16.5,13.9c-9.1,0.5-16.2-3.8-19.5-11.8c-3-7.2-3-14.6,0-21.9
		c3.5-8.6,11.1-13,20.3-12.1c8,0.8,13.6,6.3,15.6,15.2c0.1,0.5,0.2,1,0.3,1.5c1.1,7.1,1.1,7.1-6,7.1c-7.8,0-15.7,0.1-23.5-0.1
		c-3-0.1-3.6,0.8-3.1,3.7c1.8,9.3,7.3,14.2,16,13.6c4.5-0.3,8.2-2.3,10-6.4C156.5,439.3,158.2,438.2,161.5,439.5z M142.6,427.3
		c3.8,0,7.6,0,11.5,0c1.4,0,2.5,0.1,2.6-2c0.1-5.4-4.1-11.4-9.3-12.9c-8.3-2.4-15.6,2.4-17.8,11.4c-0.6,2.5-0.5,3.7,2.6,3.5
		C135.6,427.1,139.1,427.3,142.6,427.3z"/>
	<path class="st7" d="M289.4,439.3c-2.5,8.7-7.3,13.1-15.2,14c-8.4,1-16.2-2.6-19.8-9.7c-4.5-8.9-4.5-18.1,0.4-26.8
		c4.6-8.2,14.6-11.4,23.5-8.1c7.2,2.7,12.8,12.9,11.7,20.9c-0.3,2.5-2,1.8-3.3,1.8c-8.7,0-17.3,0.2-26-0.1c-3.9-0.1-4.4,1.1-3.6,4.6
		c2,8.7,7.1,13.1,15.2,12.9c4.9-0.1,8.6-2.3,10.9-6.7C285,439,285,439,289.4,439.3z M270.5,427.3c3.7,0,7.3-0.1,11,0
		c2.8,0.1,3.4-1,2.9-3.5c-1.3-7.3-5.8-11.7-12.5-12c-7.1-0.3-12.5,4.4-14.3,12c-0.6,2.5-0.4,3.7,2.6,3.5
		C263.5,427.1,267,427.3,270.5,427.3z"/>
	<path class="st7" d="M258.9,515.2c0,15.4-10.2,24.9-24.2,22.5c-0.2,0-0.3,0-0.5-0.1c-11.8-2.4-18.5-15.9-14.8-29.9
		c3.2-12,14.1-18.2,25.8-14.5C253.9,495.9,258.9,504.1,258.9,515.2z M253.6,515.2c0-3.9-0.7-7.6-2.5-11c-2.5-4.8-6.5-7.4-12-7.5
		c-5.4-0.1-9.8,2.1-12.3,6.9c-4.1,7.7-4.2,15.7,0.2,23.3c5.3,9.2,18.5,9,23.8-0.2C252.8,523.1,253.6,519.2,253.6,515.2z"/>
	<path class="st7" d="M326.5,420.2c-2.9,0.9-4.6,0.4-5.9-2.9c-2.5-6.1-13.5-7.4-18.1-2.6c-3,3.1-2.4,7.5,1.4,9.7
		c3.1,1.7,6.6,2.2,10,3.1c2.6,0.7,5.2,1.2,7.6,2.3c7.4,3.3,9.4,13,3.7,18.7c-5.8,5.9-13.1,5.9-20.5,3.9c-6.6-1.8-10.3-6.4-11-13.4
		c3.1-1,5-1,6.3,2.9c2.4,7.2,15.5,9.5,20.8,4c3.7-3.8,2.6-9.9-2.4-11.8c-4.7-1.7-9.6-2.6-14.3-4.2c-6.8-2.3-9.3-6.1-8.6-12.2
		c0.2-1.5,0.7-2.9,1.5-4.2c3.1-4.9,10.9-7.3,18.5-5.6C322.2,409.5,325.7,413.3,326.5,420.2z"/>
	<path class="st9" d="M169.8,499c4.3-4.8,9.4-7.1,15.6-6.6c7.4,0.5,12.3,4.9,12.5,12.2c0.3,9.8,0.1,19.7,0.2,29.5
		c0,2.1-0.6,2.9-2.8,2.9c-2.5,0-2.6-1.3-2.5-3.2c0-8.5,0-17,0-25.5c0-7.9-2.7-11.2-9.2-11.5c-7.5-0.4-13.8,4.7-14,11.8
		c-0.2,8.2,0,16.3-0.1,24.5c0,1.3,0.8,3.3-1.4,3.7c-2.8,0.6-4.2-0.1-4.1-3.5c0.2-12,0.1-24,0.1-36c0-1.8-0.8-4.1,2.6-4.1
		c3.2-0.1,2.9,1.8,2.9,3.9C169.4,497.5,169.6,498,169.8,499z"/>
	<path class="st9" d="M39.7,499.3c4.8-5.9,10.5-7.6,17-6.9c6.4,0.8,10.9,5,11.1,11.5c0.4,10.1,0.1,20.3,0.2,30.5
		c0,2-0.9,2.4-2.7,2.5c-2.3,0.1-2.7-1-2.7-3c0.1-8.5,0-17,0-25.5c0-8.2-2.8-11.5-9.6-11.7c-7.4-0.2-13.4,4.8-13.7,11.7
		c-0.3,8.3-0.1,16.7-0.1,25c0,1.6,0.4,3.3-2.2,3.5c-2.8,0.2-3.3-1-3.3-3.5c0.1-12.2,0-24.3,0.1-36.5c0-1.8-0.5-3.7,2.5-3.8
		c3.1-0.1,3.2,1.5,3,3.7C39.3,497.4,39.5,497.9,39.7,499.3z"/>
	<path class="st8" d="M103.1,447c4.2-12,8.4-23.3,12.1-34.6c1.1-3.4,2.8-4.6,6.1-3.6c0.7,1.2-0.2,2.1-0.6,3.1
		c-4.4,12.2-8.8,24.4-13.2,36.6c-0.8,2.2-1.5,4.1-4.7,4c-2.9-0.1-3.5-1.7-4.3-3.8c-4.6-13.2-9.3-26.3-14-39.5
		c3.8-1.8,5.6-0.6,6.8,3.2C95.2,423.8,99.1,435.1,103.1,447z"/>
	<path class="st10" d="M18.2,506.6c0-9,0.1-18,0-27c0-2.2,0.3-3.2,2.9-3.3c2.8-0.1,2.8,1.3,2.8,3.3c0,18-0.1,35.9,0,53.9
		c0,2.1-0.2,3.4-2.9,3.3c-2.7,0-2.9-1.2-2.8-3.4C18.2,524.6,18.2,515.6,18.2,506.6z"/>
	<path class="st7" d="M211.9,519.2c0,7.6,0.1,15.3,0,22.9c-0.1,5.6-3.6,8.5-9,8.3c-1.3-0.1-2.4-0.2-2.4-1.8c0-1.3-0.4-2.8,1.7-2.9
		c4.3-0.1,4.5-3,4.5-6.2c0-14.1,0-28.2,0-42.4c0-1.9-0.7-4,2.7-4c3.5,0,2.5,2.3,2.6,4.1C211.9,504.5,211.9,511.8,211.9,519.2
		L211.9,519.2z"/>
	<path class="st8" d="M173.9,416.1c3.7-4.3,7-7.5,12-7.7c1.6-0.1,3-0.3,2.9,2.1c-0.1,1.7,0.1,2.9-2.5,3.2c-8,0.9-12.3,5.9-12.5,14.1
		c-0.1,7.2,0,14.3,0,21.5c0,1.7,0.2,3.2-2.4,3.3c-2.7,0.1-2.9-1.3-2.9-3.4c0.1-12.5,0-25,0-37.5c0-1.8,0-3.1,2.5-3.1
		c2.8-0.1,2.9,1.4,2.8,3.4C173.9,412.9,173.9,414,173.9,416.1z"/>
	<path class="st7" d="M270.8,501.1c3.5-4.9,7.1-7.6,12-8.2c1.6-0.2,3-0.2,3,2.1c0,1.7,0.1,2.9-2.4,3.3c-8.7,1.3-12.5,6-12.6,14.9
		c0,7-0.1,14,0,20.9c0,2.1-0.5,2.9-2.7,2.9c-2.5,0-2.6-1.2-2.6-3.1c0-12.5,0.1-24.9,0-37.4c0-2.1,0.1-3.4,2.8-3.3
		c2.5,0.1,2.6,1.3,2.5,3.1C270.7,497.5,270.8,498.6,270.8,501.1z"/>
	<path class="st7" d="M337.7,499.8c3.6-3.8,7.2-6.4,12.2-7c1.8-0.2,3,0.1,2.8,2.3c-0.1,1.5,0.2,2.7-2.1,3.1
		c-9.6,1.8-12.9,5.9-12.9,15.7c0,6.7-0.1,13.3,0,20c0,1.9-0.2,3.1-2.6,3.1s-2.7-1-2.7-3c0.1-12.5,0.1-25,0-37.5
		c0-2.2,0.3-3.3,2.9-3.3c2.7,0,2.4,1.6,2.4,3.3C337.7,497.6,337.7,498.7,337.7,499.8z"/>
	<path class="st11" d="M200.3,430.3c0,6.3-0.1,12.6,0,18.9c0,2.3-0.5,3.3-3.1,3.2c-2.5,0-2.5-1.5-2.5-3.2c0-12.6,0-25.2,0-37.9
		c0-2.1,0.5-2.9,2.8-2.9s2.8,0.9,2.8,2.9C200.2,417.6,200.3,424,200.3,430.3z"/>
	<path class="st9" d="M211.9,480.2c0.1,1.9,0.5,3.8-2.7,3.7c-3.4-0.1-2.4-2.3-2.5-4.1c-0.1-1.8-0.4-3.5,2.5-3.5
		C212.4,476.3,212,478.2,211.9,480.2z"/>
	<path class="st12" d="M234.7,479.5c0.1,2.6,0.6,4.6-2.7,4.5c-3.1-0.1-2.3-2-2.4-3.7c0-1.9-0.6-3.9,2.7-3.8
		C235.4,476.6,234.6,478.5,234.7,479.5z"/>
	<path class="st13" d="M242.7,480.5c0-2-0.6-4.1,2.7-4c3,0,2.5,1.9,2.5,3.6c0,1.8,0.7,4-2.6,3.9
		C242.3,483.9,242.6,482.2,242.7,480.5z"/>
	<path class="st14" d="M194.7,395.9c-0.4-3,0-4.5,2.9-4.5c3.5,0,2.8,2.3,3,4.3c0.2,2.5-0.3,4-3.4,3.9
		C193.5,399.5,195,396.9,194.7,395.9z M199.6,395.7c-0.1-1.4,0.4-3.1-1.9-3.2c-2.3,0-2,1.6-2.1,3.1c0,1.6,0,3,2.2,2.9
		C199.8,398.4,199.5,397,199.6,395.7z"/>
	<path d="M199.6,395.7c-0.1,1.3,0.2,2.7-1.8,2.8c-2.2,0.1-2.3-1.4-2.2-2.9c0-1.5-0.2-3.1,2.1-3.1C200,392.5,199.4,394.3,199.6,395.7
		z"/>
</g>
</svg>
