<?xml version="1.0" encoding="utf-8"?>
<!-- Generator: Adobe Illustrator 24.1.2, SVG Export Plug-In . SVG Version: 6.00 Build 0)  -->
<svg version="1.1" id="cmyk" xmlns="http://www.w3.org/2000/svg" xmlns:xlink="http://www.w3.org/1999/xlink" x="0px" y="0px"
	 viewBox="0 0 851 496" style="enable-background:new 0 0 851 496;" xml:space="preserve">
<polygon points="527.4,120.7 437.2,362.5 347,120.7 268.1,120.7 397.8,468.2 476.6,468.2 606.3,120.7 "/>
<path d="M76.5,365.4l-57.6,41.8c22.4,33.1,67.3,68,127.6,68c67.8,0,120.8-41.5,120.8-106.2c0-42.2-24.6-74.4-75.2-97.6
	c-7-3.2-35.7-16-41.2-18.3c-26.6-11.3-39.6-23.9-39.6-39c0-15.7,12.2-30.9,37.3-30.9c17.5,0,33.6,8.2,49,25.2l54.7-39.7
	c-21.8-33.5-62.4-54.4-105.9-54.4C88.6,114.3,38,151.4,38,213.8c0,43.4,24.6,77,75.1,98.5c14.8,6.3,25.1,10.7,36.8,15.7
	c16.6,7.1,43.5,18.3,43.5,42.1c0,23.8-23.5,36.1-49,36.1C121.5,406.1,97.3,391.6,76.5,365.4z"/>
<path d="M753.1,404.7c-16.8,0-31-10.2-38.5-24.6c-5.7-10.9-5.9-28.3-5.9-43.1V192.7h80.4l26.8-72H708.7V21.4h-73.6v326.8
	c0.1,15.2,0.9,29,6.6,47.2c16,46.4,59.4,79.8,111.4,79.8c29.7,0,60.2-11.4,82.5-32.4l-46.1-52.7
	C779.8,398.6,766.3,404.7,753.1,404.7z"/>
</svg>
