<?xml version="1.0" encoding="utf-8"?>
<!-- Generator: Adobe Illustrator 24.1.2, SVG Export Plug-In . SVG Version: 6.00 Build 0)  -->
<svg version="1.1" id="Lager_1" xmlns="http://www.w3.org/2000/svg" xmlns:xlink="http://www.w3.org/1999/xlink" x="0px" y="0px"
	 viewBox="0 0 225 132.5" style="enable-background:new 0 0 225 132.5;" xml:space="preserve">
<style type="text/css">
	.st0{fill:#1D1D1B;}
	.st1{fill:url(#SVGID_1_);}
	.st2{fill:url(#SVGID_2_);}
	.st3{fill:#42771E;}
	.st4{fill:url(#SVGID_3_);}
	.st5{fill:url(#SVGID_4_);}
	.st6{fill:url(#SVGID_5_);}
	.st7{fill:url(#SVGID_6_);}
	.st8{fill:url(#SVGID_7_);}
	.st9{opacity:7.000000e-02;fill:#3A0200;enable-background:new    ;}
	.st10{fill:url(#SVGID_8_);}
	.st11{fill:url(#SVGID_9_);}
	.st12{fill:url(#SVGID_10_);}
</style>
<path class="st0" d="M42.6,102.4h2l6.6,8.5v-8.5h2.1v12.3h-1.8l-6.8-8.7v8.7h-2.1L42.6,102.4z"/>
<path class="st0" d="M55.9,108.6L55.9,108.6c0.1-3.5,3.1-6.3,6.7-6.2c3.3,0.1,6,2.8,6.2,6.2l0,0c-0.1,3.5-3.1,6.3-6.7,6.2
	C58.7,114.6,56,111.9,55.9,108.6z M66.5,108.6L66.5,108.6c0.1-2.3-1.7-4.3-4-4.4c0,0-0.1,0-0.1,0c-2.3,0-4.1,1.9-4.1,4.2
	c0,0.1,0,0.1,0,0.2l0,0c-0.1,2.3,1.7,4.3,4,4.4c0,0,0.1,0,0.1,0c2.3,0,4.2-1.8,4.2-4.1C66.5,108.7,66.5,108.7,66.5,108.6L66.5,108.6
	z"/>
<path class="st0" d="M71.3,102.4h5.5c1.3-0.1,2.6,0.4,3.5,1.2c0.7,0.7,1,1.7,1,2.6l0,0c0.1,1.8-1.2,3.4-2.9,3.7l3.3,4.6h-2.5l-3-4.3
	h-2.7v4.3h-2.2L71.3,102.4z M76.6,108.5c1.5,0,2.5-0.8,2.5-2l0,0c0-1.3-1-2-2.5-2h-3.1v4.1L76.6,108.5z"/>
<path class="st0" d="M84,102.4h5.5c1.3-0.1,2.6,0.4,3.5,1.2c0.7,0.7,1,1.7,1,2.6l0,0c0.1,1.8-1.2,3.4-2.9,3.7l3.3,4.6h-2.5l-3-4.3
	h-2.7v4.3H84L84,102.4z M89.3,108.5c1.5,0,2.5-0.8,2.5-2l0,0c0-1.3-1-2-2.5-2h-3.1v4.1L89.3,108.5z"/>
<path class="st0" d="M96.7,102.4h2.2v6.2l5.8-6.2h2.6l-5.1,5.3l5.3,7h-2.6l-4.2-5.5l-1.9,2v3.6h-2.2L96.7,102.4z"/>
<path class="st0" d="M108.9,108.6L108.9,108.6c0.1-3.5,3.1-6.3,6.7-6.2c3.3,0.1,6,2.8,6.2,6.2l0,0c-0.1,3.5-3.1,6.3-6.7,6.2
	C111.7,114.6,109,111.9,108.9,108.6z M119.4,108.6L119.4,108.6c0.1-2.3-1.7-4.3-4-4.4c0,0-0.1,0-0.1,0c-2.3,0-4.1,1.9-4.1,4.2
	c0,0.1,0,0.1,0,0.2l0,0c-0.1,2.3,1.7,4.3,4,4.4c0,0,0.1,0,0.1,0c2.3,0,4.1-1.9,4.1-4.2C119.4,108.7,119.4,108.6,119.4,108.6z
	 M112.4,99.3h2.2v2h-2.2V99.3z M116,99.3h2.2v2H116V99.3z"/>
<path class="st0" d="M124.3,102.4h4.8c2.9,0,4.7,1.6,4.7,4.1l0,0c0,2.8-2.2,4.2-4.9,4.2h-2.4v3.9h-2.2L124.3,102.4z M129,108.8
	c1.6,0,2.6-0.9,2.6-2.2l0,0c0-1.4-1-2.2-2.6-2.2h-2.5v4.4L129,108.8z"/>
<path class="st0" d="M136.1,102.4h2.2v12.3h-2.2V102.4z"/>
<path class="st0" d="M141.6,102.4h2l6.6,8.5v-8.5h2.1v12.3h-1.8l-6.8-8.7v8.7h-2.1V102.4z"/>
<path class="st0" d="M154.9,108.6L154.9,108.6c-0.1-3.5,2.7-6.3,6.1-6.3c0.1,0,0.1,0,0.2,0c1.7-0.1,3.4,0.5,4.7,1.7l-1.4,1.6
	c-0.9-0.9-2.2-1.4-3.4-1.3c-2.3,0.1-4.1,2-4,4.3c0,0,0,0,0,0l0,0c-0.2,2.3,1.6,4.2,3.8,4.4c0.1,0,0.2,0,0.4,0c1.1,0,2.1-0.3,3-0.9
	v-2.3h-3.1v-1.9h5.2v5.1c-1.4,1.2-3.2,1.9-5.1,1.9c-3.4,0.1-6.2-2.5-6.3-5.8C154.9,108.9,154.9,108.7,154.9,108.6z"/>
<path class="st0" d="M168.3,112.9l1.3-1.5c1,1,2.4,1.6,3.9,1.6c1.3,0,2.2-0.6,2.2-1.5l0,0c0-0.9-0.5-1.4-2.8-1.9
	c-2.6-0.6-4.1-1.4-4.1-3.7l0,0c0-2.1,1.8-3.6,4.2-3.6c1.6,0,3.2,0.5,4.5,1.5l-1.2,1.6c-0.9-0.8-2.1-1.2-3.3-1.3c-1.3,0-2,0.6-2,1.5
	l0,0c0,1,0.6,1.4,2.9,1.9c2.6,0.6,4,1.6,4,3.6l0,0c0,2.3-1.8,3.7-4.4,3.7C171.6,114.8,169.7,114.1,168.3,112.9z"/>
<path class="st0" d="M0,120h1.5l4.4,10.6l4.4-10.6h1.5l-5.2,12.4H5.3L0,120z"/>
<path class="st0" d="M14.3,120h1.4v12.3h-1.4V120z"/>
<path class="st0" d="M18.5,130.5l0.9-1c1.1,1.1,2.6,1.8,4.2,1.7c1.6,0,2.7-0.9,2.7-2.1l0,0c0-1.1-0.6-1.8-3.2-2.3
	c-2.8-0.6-4.1-1.5-4.1-3.5l0,0c0-1.9,1.7-3.4,4-3.4c1.6,0,3.1,0.5,4.3,1.5l-0.8,1c-1-0.9-2.2-1.3-3.5-1.3c-1.6,0-2.6,0.9-2.6,2l0,0
	c0,1.2,0.6,1.8,3.3,2.4s4,1.6,4,3.5l0,0c0,2.1-1.8,3.5-4.2,3.5C21.6,132.4,19.9,131.7,18.5,130.5z"/>
<path class="st0" d="M30.3,127.1V120h1.4v7c0,2.6,1.4,4.1,3.8,4.1s3.7-1.4,3.7-4V120h1.3v7c0,3.6-2.1,5.4-5.1,5.4
	S30.3,130.6,30.3,127.1z"/>
<path class="st0" d="M48.4,119.9h1.3l5.6,12.4h-1.5l-1.4-3.2h-6.7l-1.5,3.2h-1.4L48.4,119.9z M51.8,127.8l-2.8-6.3l-2.8,6.3H51.8z"
	/>
<path class="st0" d="M57.7,120h1.4v11H66v1.3h-8.3L57.7,120z"/>
<path class="st0" d="M68.6,120H70v12.3h-1.4V120z"/>
<path class="st0" d="M72.8,130.5l0.9-1c1.1,1.1,2.6,1.8,4.2,1.7c1.6,0,2.7-0.9,2.7-2.1l0,0c0-1.1-0.6-1.8-3.2-2.3
	c-2.8-0.6-4.1-1.5-4.1-3.5l0,0c0-1.9,1.7-3.4,4-3.4c1.6,0,3.1,0.5,4.3,1.5l-0.8,1.1c-1-0.9-2.2-1.3-3.5-1.3c-1.6,0-2.6,0.9-2.6,2
	l0,0c0,1.2,0.6,1.8,3.3,2.4s4,1.6,4,3.5l0,0c0,2.1-1.8,3.5-4.2,3.5C75.9,132.5,74.1,131.8,72.8,130.5z"/>
<path class="st0" d="M84.8,120h8.9v1.3h-7.5v4.1h6.7v1.3h-6.7v4.3h7.6v1.3h-9L84.8,120z"/>
<path class="st0" d="M96.6,120h5.3c1.3-0.1,2.5,0.4,3.5,1.2c0.6,0.6,1,1.5,1,2.4l0,0c0,2-1.4,3.2-3.3,3.6l3.8,5H105l-3.5-4.7H98v4.8
	h-1.4L96.6,120z M101.7,126.3c1.8,0,3.2-1,3.2-2.5l0,0c0-1.5-1.2-2.4-3.1-2.4H98v5L101.7,126.3z"/>
<path class="st0" d="M109.4,120h1.4v12.3h-1.4V120z"/>
<path class="st0" d="M114.4,120h1.3l7.7,9.8V120h1.4v12.3h-1.1l-7.9-10.1v10.1h-1.4L114.4,120z"/>
<path class="st0" d="M127.7,126.2L127.7,126.2c-0.1-3.4,2.6-6.2,6-6.3c0.1,0,0.1,0,0.2,0c1.7-0.1,3.3,0.5,4.6,1.6l-0.9,1
	c-1-0.9-2.4-1.4-3.7-1.4c-2.6,0.1-4.7,2.3-4.7,4.9c0,0,0,0.1,0,0.1l0,0c0,2.9,1.9,5.1,4.9,5.1c1.3,0,2.5-0.4,3.5-1.2v-3h-3.7v-1.3
	h5.1v4.9c-1.4,1.2-3.1,1.9-4.9,1.9c-3.3,0.1-6.1-2.4-6.2-5.8C127.7,126.5,127.7,126.4,127.7,126.2z"/>
<path class="st0" d="M141.1,130.5l0.9-1c1.1,1.1,2.6,1.8,4.2,1.7c1.6,0,2.7-0.9,2.7-2.1l0,0c0-1.1-0.6-1.8-3.2-2.3
	c-2.8-0.6-4.1-1.5-4.1-3.5l0,0c0-1.9,1.7-3.4,4-3.4c1.6,0,3.1,0.5,4.3,1.5l-0.8,1.1c-1-0.9-2.2-1.3-3.5-1.3c-1.6,0-2.6,0.9-2.6,2
	l0,0c0,1.2,0.6,1.8,3.3,2.4s4,1.6,4,3.5l0,0c0,2.1-1.8,3.5-4.2,3.5C144.3,132.5,142.5,131.8,141.1,130.5z"/>
<path class="st0" d="M152.6,126.2L152.6,126.2c-0.1-3.4,2.6-6.3,6-6.3c0.1,0,0.1,0,0.2,0c1.8-0.1,3.5,0.7,4.8,2l-1,1
	c-1-1.1-2.4-1.7-3.9-1.7c-2.7,0-4.8,2.2-4.8,4.9c0,0,0,0.1,0,0.1l0,0c-0.1,2.7,1.9,4.9,4.6,5.1c0,0,0.1,0,0.1,0c1.5,0,3-0.6,4-1.8
	l0.9,0.9c-1.2,1.4-3,2.2-4.9,2.2c-3.4,0-6.2-2.7-6.2-6C152.6,126.3,152.6,126.3,152.6,126.2z"/>
<path class="st0" d="M166.1,120h8.9v1.3h-7.5v4.1h6.7v1.3h-6.7v4.3h7.6v1.3h-9L166.1,120z"/>
<path class="st0" d="M177.9,120h1.3l7.7,9.8V120h1.4v12.3h-1.1l-7.9-10.1v10.1h-1.4V120z"/>
<path class="st0" d="M194.9,121.3h-4.1V120h9.7v1.3h-4.1v11H195L194.9,121.3z"/>
<path class="st0" d="M203.1,120h8.9v1.3h-7.5v4.1h6.7v1.3h-6.7v4.3h7.6v1.3h-9L203.1,120z"/>
<path class="st0" d="M214.8,120h5.3c1.3-0.1,2.5,0.4,3.5,1.2c0.6,0.6,1,1.5,1,2.4l0,0c0,2-1.4,3.2-3.3,3.6l3.8,5h-1.7l-3.6-4.8h-3.5
	v4.8h-1.4V120z M220,126.3c1.8,0,3.2-1,3.2-2.5l0,0c0-1.5-1.2-2.4-3.1-2.4h-3.8v5L220,126.3z"/>
<linearGradient id="SVGID_1_" gradientUnits="userSpaceOnUse" x1="279.5633" y1="-108.3504" x2="269.7032" y2="-115.2504" gradientTransform="matrix(1 0 0 -1 -182.5 -96.59)">
	<stop  offset="0" style="stop-color:#009FE3"/>
	<stop  offset="1" style="stop-color:#0076A7"/>
</linearGradient>
<path class="st1" d="M83,13l2.7,2.7l3.7,3.7C96,12.8,105,9,114.4,9.1V0C102.6,0,91.3,4.7,83,13z"/>
<linearGradient id="SVGID_2_" gradientUnits="userSpaceOnUse" x1="263.8855" y1="-143.7875" x2="273.5754" y2="-126.1275" gradientTransform="matrix(1 0 0 -1 -182.5 -96.59)">
	<stop  offset="0" style="stop-color:#579A28"/>
	<stop  offset="1" style="stop-color:#65B32E"/>
</linearGradient>
<path class="st2" d="M114.4,9.1c-9.4,0-18.4,3.7-25,10.4l-3.7-3.7c-7.6,7.6-11.9,17.9-11.9,28.7h14.5c0-6.9,2.8-13.6,7.7-18.5l-3-3
	c5.7-5.7,13.4-8.9,21.5-8.9L114.4,9.1z"/>
<path class="st3" d="M88.3,44.4L88.3,44.4L88.3,44.4H91c0-6.2,2.6-12.1,7-16.4l-2.1-2.1C91,30.8,88.2,37.5,88.3,44.4z"/>
<linearGradient id="SVGID_3_" gradientUnits="userSpaceOnUse" x1="297.5001" y1="-108.5593" x2="311.6801" y2="-110.2793" gradientTransform="matrix(1 0 0 -1 -182.5 -96.59)">
	<stop  offset="0" style="stop-color:#85204C"/>
	<stop  offset="1" style="stop-color:#A61F5E"/>
</linearGradient>
<path class="st4" d="M114.4,3.8V14c8.1,0,15.8,3.2,21.5,8.9l3.6-3.5l3.7-3.7C135.6,8.1,125.2,3.8,114.4,3.8z"/>
<radialGradient id="SVGID_4_" cx="296.86" cy="-112.59" r="22.98" gradientTransform="matrix(1 0 0 -1 -182.5 -96.59)" gradientUnits="userSpaceOnUse">
	<stop  offset="0" style="stop-color:#009FE3"/>
	<stop  offset="1" style="stop-color:#0076A7"/>
</radialGradient>
<path class="st5" d="M114.4,14c-8.1,0-15.8,3.2-21.5,8.9l3,3c10.2-10.2,26.8-10.2,37,0l3-3C130.2,17.2,122.5,14,114.4,14z"/>
<linearGradient id="SVGID_5_" gradientUnits="userSpaceOnUse" x1="278.38" y1="-119.725" x2="315.41" y2="-119.725" gradientTransform="matrix(1 0 0 -1 -182.5 -96.59)">
	<stop  offset="0" style="stop-color:#004461"/>
	<stop  offset="1" style="stop-color:#007399"/>
</linearGradient>
<path class="st6" d="M95.9,25.9L95.9,25.9L98,28c4.3-4.2,10.1-6.6,16.2-6.6c8.1,0,15.5,6,15.8,6.2l3-1.7
	C122.7,15.7,106.2,15.7,95.9,25.9L95.9,25.9z"/>
<radialGradient id="SVGID_6_" cx="255.84" cy="-128.35" r="36.75" gradientTransform="matrix(1 0 0 -1 -182.5 -96.59)" gradientUnits="userSpaceOnUse">
	<stop  offset="0" style="stop-color:#FFE700"/>
	<stop  offset="1" style="stop-color:#FDC300"/>
</radialGradient>
<path class="st7" d="M84,44.4H73.8c0-10.8,4.3-21.1,11.9-28.7L83,13c-8.3,8.3-13,19.6-13,31.4l0,0c0,11.8,4.7,23.1,13,31.4l2.7-2.7
	l3.7-3.7l3.5-3.5C87.2,60.2,84,52.5,84,44.4z"/>
<linearGradient id="SVGID_7_" gradientUnits="userSpaceOnUse" x1="297.1827" y1="-177.9869" x2="309.7127" y2="-176.0069" gradientTransform="matrix(1 0 0 -1 -182.5 -96.59)">
	<stop  offset="0" style="stop-color:#A90F09"/>
	<stop  offset="1" style="stop-color:#C70C0F"/>
</linearGradient>
<path class="st8" d="M143.2,73.2l-3.7-3.7c-6.6,6.6-15.6,10.4-25,10.4v9.1c11.8,0,23.1-4.7,31.4-13L143.2,73.2z"/>
<path class="st9" d="M149.8,44.4h-5c0,8.1-3.2,15.8-8.9,21.5l3.5,3.5l3.7,3.7c7.6-7.6,11.9-18,11.9-28.7H149.8z"/>
<linearGradient id="SVGID_8_" gradientUnits="userSpaceOnUse" x1="269.3407" y1="-168.849" x2="277.2007" y2="-174.509" gradientTransform="matrix(1 0 0 -1 -182.5 -96.59)">
	<stop  offset="0" style="stop-color:#A90F09"/>
	<stop  offset="1" style="stop-color:#C70C0F"/>
</linearGradient>
<path class="st10" d="M85.7,73.2L83,75.9c8.3,8.3,19.6,13,31.4,13v-3.8C103.7,85.1,93.3,80.8,85.7,73.2z"/>
<linearGradient id="SVGID_9_" gradientUnits="userSpaceOnUse" x1="265.7869" y1="-158.6475" x2="253.4369" y2="-156.6375" gradientTransform="matrix(1 0 0 -1 -182.5 -96.59)">
	<stop  offset="0" style="stop-color:#EE7203"/>
	<stop  offset="1" style="stop-color:#EA5B0C"/>
</linearGradient>
<path class="st11" d="M136,66c-5.7,5.7-13.4,8.9-21.5,8.9v-4.3c-14.5,0-26.2-11.7-26.2-26.2c0,0,0,0,0,0H84c0,8.1,3.2,15.8,8.9,21.5
	l-3.5,3.5l-3.7,3.7c7.6,7.6,18,11.9,28.7,11.9v-5.3c9.4,0,18.4-3.7,25-10.4L136,66z"/>
<linearGradient id="SVGID_10_" gradientUnits="userSpaceOnUse" x1="285.1615" y1="-155.389" x2="298.8115" y2="-161.529" gradientTransform="matrix(1 0 0 -1 -182.5 -96.59)">
	<stop  offset="0" style="stop-color:#A51008"/>
	<stop  offset="1" style="stop-color:#B70E0C"/>
</linearGradient>
<path class="st12" d="M88.3,44.5c0,14.4,11.7,26.2,26.2,26.1l-0.3-2.9C101.4,67.8,91,57.4,91,44.6c0,0,0,0,0,0c0,0,0-0.1,0-0.1
	L88.3,44.5z"/>
</svg>
