<?xml version="1.0" encoding="utf-8"?>
<!-- Generator: Adobe Illustrator 24.1.2, SVG Export Plug-In . SVG Version: 6.00 Build 0)  -->
<svg version="1.1" id="Lager_1" xmlns="http://www.w3.org/2000/svg" xmlns:xlink="http://www.w3.org/1999/xlink" x="0px" y="0px"
	 viewBox="0 0 1183.5 260.2" style="enable-background:new 0 0 1183.5 260.2;" xml:space="preserve">
<g>
	<path d="M308.3,0.9c54.8,0,99.1,44.1,98.9,98.7c-0.1,54.6-44.5,98.6-99.3,98.6c-54.3-0.1-98.4-44.4-98.4-98.9
		C209.7,44.6,253.6,0.9,308.3,0.9z M239.5,99.4c0,37.9,30.8,68.8,68.6,68.8c38.3,0,69.2-30.7,69.2-68.8s-31-69-69.2-68.9
		C270.3,30.6,239.5,61.5,239.5,99.4z"/>
	<path d="M826.7,3.8c10.9,0,21-0.2,31.1,0.1c5.3,0.1,7.5,4.4,9.3,8.7c10.7,25.3,21.4,50.6,32.1,75.9c7.7,18.2,15.4,36.5,23.2,54.7
		c0.7,1.7,1.5,3.3,2.6,5.7c2.4-4.2,4.5-7.8,6.5-11.4c23.7-42.3,47.4-84.6,71-126.9c2.5-4.5,5.4-8.1,11.9-6.3c-0.7,1.8-1.2,3.4-1.9,5
		C979.2,89.2,946,169.1,912.7,249c-4,9.6-6.3,11.2-16.5,11.2c-10,0-20,0-30.9,0c1-2.1,1.7-3.6,2.5-5.1c11.9-22.4,23.7-44.7,35.7-67
		c1.6-2.9,1.6-5.2,0.3-8.3c-25-56.8-49.9-113.7-74.9-170.5C828.2,7.7,827.7,6.2,826.7,3.8z"/>
	<path d="M467.7,260.2c5.8-10.9,11-20.8,16.3-30.8c7.3-13.7,14.4-27.4,21.8-41c1.7-3.1,1.8-5.6,0.4-8.8
		C481.4,123.2,456.8,66.8,432,10.3c-0.9-1.9-1.7-3.9-2.7-6.4c11,0,21.5-0.3,31.9,0.1c4.9,0.2,6.9,4.6,8.7,8.7
		c10.4,24.7,20.9,49.4,31.3,74.1c8,19,16.1,38,24.1,57.1c0.6,1.3,1.2,2.6,2.3,4.9c2.2-3.8,3.9-6.9,5.7-10c24-42.9,48-85.8,72-128.7
		c2.5-4.5,5.4-7.5,11.6-5.8c-0.7,1.8-1.3,3.5-2,5.2c-33.2,79.8-66.4,159.7-99.6,239.5c-4.1,9.8-6.3,11.3-16.9,11.3
		C488.6,260.2,478.7,260.2,467.7,260.2z"/>
	<path d="M649.6,175c2.7-4.4,5.1-8.4,7.6-12.4c3.9-6.1,9-7.4,15.4-3.9c5.1,2.8,10,6,15.3,8.5c13.8,6.7,28.2,7.5,42.9,3.9
		c10.6-2.6,18.6-8.8,22.1-19.7c3.8-11.7,1-21.3-9.4-27.8c-6.6-4.1-14-6.9-21.3-9.6c-11.2-4.2-22.7-7.8-34-11.7
		c-1.1-0.4-2.2-0.9-3.2-1.4c-16.8-7.8-28.4-19.8-30-39.1c-1.6-20,5.8-36.3,22.2-48C695,1,715.3-0.9,736.4,1.4
		c11.5,1.3,22.3,5,32.5,10.7c3.4,1.9,4.7,3.8,2.2,7.3c-1.3,1.9-2.2,4.1-3.3,6.1c-3.9,7.2-7.7,8.9-15.6,6.2
		c-12.6-4.4-25.3-7.4-38.7-4.9c-7.7,1.5-14.6,4.6-20.1,10.4c-9.6,10.3-8.7,25.1,2.9,32.9c6.5,4.4,14.1,7.3,21.6,10.2
		c12,4.6,24.4,8,36.2,12.9c6.6,2.8,13.2,6.7,18.5,11.5c15.2,13.6,15.9,31.1,11.1,49.3c-5.9,22.1-21.6,35-42.8,40.6
		c-30.9,8.2-60.1,3.7-86.4-15.5C653,177.9,651.5,176.6,649.6,175z"/>
	<path d="M1047.1,174.9c2.7-4.4,5.1-8.4,7.6-12.3c3.9-6.1,9-7.4,15.4-3.9c5.3,2.9,10.3,6.2,15.7,8.7c14.7,6.8,29.9,7.5,45.3,2.7
		c8.1-2.5,14.3-7.7,18-15.6c5.7-12.3,2.7-24.3-8.8-31.4c-6.2-3.8-13.1-6.4-20-8.9c-12-4.5-24.4-7.9-36.3-12.8
		c-17.9-7.3-30.1-19.6-31.7-40c-1.6-21.6,6.6-39.1,25.3-49.7c30.3-17.1,60.9-14.9,90.9,2c0.6,0.3,1,0.9,1.9,1.6
		c-2.3,4.3-4.4,8.9-7,13c-3,4.8-7.4,5.7-14.2,3.3c-10-3.6-20-6.2-30.7-5.7c-9.4,0.4-18.1,2.8-25.4,9.1
		c-12.5,10.9-11.8,27.4,2.2,36.2c6.4,4,13.8,6.7,20.9,9.3c11.2,4.2,22.8,7.6,33.9,11.9c18,7,31.7,18.4,33.2,39.2
		c1.7,22.6-6,41.3-25.4,54.2c-13.2,8.7-28,11.9-43.7,12.4c-23.5,0.7-44.8-5.6-63.5-20.1C1049.6,177.3,1048.5,176.2,1047.1,174.9z"/>
	<path d="M0,3.9c10.3,0,20.2-0.3,30.1,0.2c4.6,0.2,6.8,4.3,8.4,8.3c14.7,37.3,29.5,74.7,44.3,112c3.3,8.3,6.6,16.6,10.3,26
		c1.8-3,3-4.9,4.1-6.9c25.7-44.4,51.4-88.8,77.2-133.2c3.7-6.4,5.5-7.3,11.8-5.9c-3,7.5-5.9,14.9-8.8,22.3
		c-21.8,54.6-43.7,109.2-65.4,163.8c-1.5,3.8-3.3,5-7.3,4.9c-7.8-0.3-15.7-0.2-23.5,0c-2.8,0.1-4.1-0.9-5.1-3.5
		C51.1,130.3,25.9,68.8,0.9,7.2C0.5,6.3,0.4,5.3,0,3.9z"/>
</g>
</svg>
