<?xml version="1.0" encoding="utf-8"?>
<!-- Generator: Adobe Illustrator 24.1.2, SVG Export Plug-In . SVG Version: 6.00 Build 0)  -->
<svg version="1.1" id="Layer_1" xmlns="http://www.w3.org/2000/svg" xmlns:xlink="http://www.w3.org/1999/xlink" x="0px" y="0px"
	 viewBox="0 0 393.7 59.8" style="enable-background:new 0 0 393.7 59.8;" xml:space="preserve">
<style type="text/css">
	.st0{fill-rule:evenodd;clip-rule:evenodd;}
</style>
<g id="Logo">
	<path class="st0" d="M41.9,0.3L0.8,28.4c-0.8,0.6-1,1.7-0.5,2.5c0.1,0.2,0.3,0.3,0.5,0.5l41.1,28.1c0.8,0.6,2,0.4,2.5-0.5
		c0.2-0.3,0.3-0.7,0.3-1V51c0-0.6-0.3-1.2-0.8-1.5L17.5,31.4c-0.8-0.6-1-1.7-0.5-2.5c0.1-0.2,0.3-0.3,0.5-0.5l26.5-18.1
		c0.5-0.3,0.8-0.9,0.8-1.5V1.8c0-1-0.8-1.8-1.8-1.8C42.5,0,42.2,0.1,41.9,0.3z"/>
	<path class="st0" d="M50.9,49.5c-0.5,0.3-0.8,0.9-0.8,1.5v6.9c0,1,0.8,1.8,1.8,1.8c0.4,0,0.8-0.1,1.1-0.3l10.1-6.9l-2-10L50.9,49.5
		z M94.1,28.4L53,0.3c-0.8-0.6-2-0.4-2.5,0.5c-0.2,0.3-0.3,0.7-0.3,1v6.9c0,0.6,0.3,1.2,0.8,1.5l26.4,18.1c0.8,0.6,1,1.7,0.5,2.5
		c-0.1,0.2-0.3,0.3-0.5,0.5l-4.3,2.9l8.6,5.5l12.3-8.4c0.8-0.6,1-1.7,0.5-2.5C94.4,28.7,94.2,28.5,94.1,28.4z"/>
	<polygon class="st0" points="63.9,33.7 67.2,49.8 70.9,43.9 77.8,42.5 	"/>
</g>
<g id="Text">
	<g id="Lato">
		<path d="M117.9,20.7h4.5c0.4,0,0.8,0.1,1.2,0.4c0.3,0.2,0.5,0.5,0.6,0.8l6.2,21c0.2,0.8,0.3,1.5,0.5,2.2s0.3,1.4,0.4,2.2
			c0.2-0.7,0.4-1.5,0.6-2.2s0.4-1.5,0.7-2.2l6.9-21.1c0.1-0.3,0.3-0.6,0.6-0.9c0.3-0.2,0.6-0.3,1-0.3h2.5c0.7,0,1.4,0.4,1.6,1.1
			l6.7,21.1c0.2,0.8,0.5,1.5,0.6,2.2c0.2,0.7,0.4,1.5,0.5,2.2c0.1-0.7,0.3-1.4,0.4-2.2s0.4-1.5,0.5-2.2l6.4-21
			c0.1-0.3,0.3-0.6,0.6-0.9c0.3-0.2,0.7-0.4,1.1-0.3h4.3l-10.5,32.6h-4.5c-0.6,0-0.9-0.4-1.1-1.1l-7.2-22.1c-0.2-0.5-0.3-1-0.4-1.5
			c-0.1-0.5-0.2-1-0.3-1.5c-0.1,0.5-0.2,1-0.3,1.5c-0.1,0.5-0.3,1-0.4,1.5l-7.3,22c-0.1,0.6-0.7,1.1-1.3,1.1h-4.3L117.9,20.7z"/>
		<path d="M184.3,20.2c1.8,0,3.7,0.3,5.4,1c1.6,0.6,3.1,1.5,4.3,2.8c1.2,1.3,2.2,2.9,2.8,4.6c0.7,2,1,4.1,1,6.2
			c0.1,0.6,0,1.2-0.3,1.8c-0.3,0.3-0.7,0.5-1.1,0.5h-21.7c0,1.8,0.3,3.6,0.8,5.4c0.4,1.4,1.2,2.7,2.1,3.8c0.9,1,2,1.8,3.2,2.3
			c1.3,0.5,2.7,0.8,4.2,0.8c1.3,0,2.5-0.1,3.7-0.5c0.9-0.3,1.8-0.6,2.7-1.1c0.6-0.3,1.3-0.7,1.9-1.1c0.4-0.3,0.8-0.5,1.3-0.5
			c0.4,0,0.8,0.2,1.1,0.5l1.6,2.1c-0.7,0.9-1.6,1.7-2.5,2.3c-1,0.6-2.1,1.2-3.2,1.6c-1.1,0.4-2.3,0.7-3.5,0.9
			c-1.2,0.2-2.4,0.3-3.6,0.3c-2.1,0-4.2-0.4-6.2-1.1c-1.9-0.7-3.5-1.9-4.9-3.3c-1.4-1.6-2.5-3.4-3.2-5.5c-0.8-2.4-1.2-4.9-1.2-7.5
			c0-2.2,0.3-4.3,1-6.4c0.6-1.9,1.7-3.6,3-5.1c1.3-1.5,3-2.6,4.8-3.4C179.9,20.6,182.1,20.2,184.3,20.2z M184.4,24.4
			c-2.4-0.1-4.8,0.7-6.5,2.4c-1.7,1.8-2.8,4.2-3,6.6h17.7c0-1.2-0.2-2.5-0.5-3.6c-0.3-1-0.9-2-1.6-2.8c-0.7-0.8-1.6-1.4-2.6-1.9
			C186.8,24.7,185.6,24.4,184.4,24.4L184.4,24.4z"/>
		<path d="M211,6v27.8h1.5c0.4,0,0.7,0,1.1-0.2c0.4-0.2,0.7-0.4,0.9-0.7l10.3-11c0.3-0.3,0.6-0.6,1-0.8c0.4-0.2,0.8-0.3,1.3-0.3h5.2
			l-12,12.8c-0.3,0.4-0.6,0.7-0.9,1c-0.3,0.3-0.6,0.5-1,0.7c0.4,0.3,0.7,0.6,1,0.9c0.3,0.4,0.6,0.7,0.9,1.1L233,53.3h-5.1
			c-0.4,0-0.8-0.1-1.1-0.3c-0.4-0.2-0.7-0.5-0.9-0.8l-10.7-13.3c-0.2-0.4-0.6-0.7-1-0.9c-0.5-0.2-1-0.2-1.4-0.2H211v15.6h-5.8V6H211
			z"/>
		<path d="M238.8,53.3V20.7h3.4c0.7-0.1,1.4,0.5,1.6,1.2l0.4,3.5c1.4-1.5,3-2.8,4.7-3.8c1.9-1,4-1.5,6.1-1.4c1.6,0,3.2,0.3,4.7,0.9
			c1.3,0.6,2.5,1.4,3.4,2.5c0.9,1.1,1.7,2.5,2.1,3.9c0.5,1.6,0.7,3.3,0.7,5.1v20.7h-5.7V32.6c0.1-2.1-0.5-4.1-1.7-5.7
			c-1.3-1.4-3.2-2.2-5.2-2c-1.7,0-3.3,0.4-4.8,1.2c-1.5,0.9-2.9,2-4.1,3.3v24L238.8,53.3z"/>
		<path d="M287.7,20.2c2.2,0,4.4,0.4,6.4,1.2c1.9,0.7,3.5,1.9,4.9,3.4c1.4,1.5,2.4,3.3,3.1,5.3c0.8,2.2,1.1,4.6,1.1,6.9
			c0,2.4-0.3,4.7-1.1,6.9c-0.7,2-1.7,3.7-3.1,5.3c-1.4,1.5-3,2.6-4.9,3.4c-4.2,1.6-8.7,1.6-12.9,0c-1.9-0.7-3.5-1.9-4.9-3.4
			c-1.4-1.5-2.5-3.3-3.1-5.3c-0.8-2.2-1.1-4.6-1.1-6.9c0-2.4,0.3-4.7,1.1-6.9c0.7-2,1.7-3.8,3.1-5.3c1.4-1.5,3-2.6,4.9-3.4
			C283.3,20.6,285.5,20.2,287.7,20.2z M287.7,49.3c3.2,0,5.6-1.1,7.2-3.2c1.6-2.2,2.4-5.2,2.4-9s-0.8-6.9-2.4-9.1s-4-3.2-7.2-3.2
			c-1.5,0-2.9,0.2-4.2,0.8c-1.2,0.5-2.2,1.4-3,2.4c-0.9,1.2-1.5,2.5-1.8,3.9c-0.4,1.7-0.6,3.4-0.6,5.1c0,1.7,0.2,3.5,0.6,5.2
			c0.3,1.4,0.9,2.7,1.8,3.8c0.8,1,1.8,1.8,3,2.4C284.7,49,286.2,49.3,287.7,49.3z"/>
		<path d="M306,20.7h4.5c0.4,0,0.8,0.1,1.1,0.4c0.3,0.2,0.5,0.5,0.6,0.8l6.2,21c0.2,0.8,0.3,1.5,0.5,2.2s0.3,1.4,0.4,2.2
			c0.2-0.7,0.4-1.5,0.6-2.2s0.4-1.5,0.7-2.2l6.9-21.1c0.1-0.3,0.3-0.6,0.6-0.8c0.3-0.2,0.6-0.3,1-0.3h2.5c0.4,0,0.8,0.1,1.1,0.3
			c0.3,0.2,0.5,0.5,0.6,0.8l6.7,21.1c0.2,0.8,0.4,1.5,0.6,2.2c0.2,0.7,0.4,1.5,0.5,2.2c0.1-0.7,0.2-1.4,0.4-2.2s0.4-1.5,0.5-2.2
			l6.4-21c0.1-0.3,0.3-0.6,0.6-0.9c0.3-0.2,0.7-0.3,1.1-0.3h4.3l-10.5,32.6h-4.5c-0.6,0-0.9-0.4-1.2-1.1l-7.2-22.1
			c-0.2-0.5-0.3-1-0.4-1.5l-0.3-1.5c-0.1,0.5-0.2,1-0.3,1.5c-0.1,0.5-0.2,1-0.4,1.5l-7.3,22c-0.1,0.6-0.7,1.1-1.3,1.1h-4.3L306,20.7
			z"/>
		<path d="M367.1,10.5c0,0.5-0.1,1.1-0.3,1.6c-0.2,0.5-0.5,0.9-0.9,1.3c-0.4,0.4-0.8,0.7-1.3,0.9c-0.5,0.2-1,0.3-1.6,0.3
			c-0.5,0-1.1-0.1-1.5-0.3c-0.5-0.2-0.9-0.5-1.3-0.9c-0.4-0.4-0.7-0.8-0.9-1.3c-0.2-0.5-0.3-1-0.3-1.6c0-0.5,0.1-1.1,0.3-1.6
			c0.4-1,1.2-1.8,2.2-2.2c0.5-0.2,1-0.3,1.5-0.3c0.5,0,1.1,0.1,1.6,0.3c0.5,0.2,0.9,0.5,1.3,0.9c0.4,0.4,0.7,0.8,0.9,1.3
			C367,9.4,367.1,10,367.1,10.5z M365.8,20.7v32.5h-5.7V20.7L365.8,20.7z"/>
		<path d="M385.8,53.8c-2.2,0.1-4.3-0.6-5.9-2.2c-1.5-1.7-2.2-3.9-2.1-6.2V25.5h-3.9c-0.3,0-0.6-0.1-0.9-0.3
			c-0.3-0.2-0.4-0.6-0.4-0.9V22l5.3-0.7l1.3-10.1c0-0.3,0.2-0.6,0.4-0.8c0.3-0.2,0.6-0.3,0.9-0.3h2.9v11.2h9.3v4.1h-9.3v19.5
			c-0.1,1.1,0.3,2.2,1,3c0.7,0.7,1.6,1,2.6,1c0.5,0,1.1-0.1,1.6-0.2c0.4-0.1,0.8-0.3,1.1-0.5c0.3-0.2,0.6-0.4,0.8-0.5
			c0.2-0.1,0.4-0.2,0.6-0.3c0.3,0,0.6,0.2,0.8,0.5l1.7,2.7c-1,1-2.3,1.7-3.6,2.2C388.7,53.5,387.3,53.8,385.8,53.8z"/>
	</g>
</g>
</svg>
