<?xml version="1.0" encoding="utf-8"?>
<!-- Generator: Adobe Illustrator 24.1.2, SVG Export Plug-In . SVG Version: 6.00 Build 0)  -->
<svg version="1.1" id="Layer_1" xmlns="http://www.w3.org/2000/svg" xmlns:xlink="http://www.w3.org/1999/xlink" x="0px" y="0px"
	 viewBox="0 0 511 195" style="enable-background:new 0 0 511 195;" xml:space="preserve">
<style type="text/css">
	.st0{fill:#33383C;}
	.st1{fill:#2EC5F4;}
</style>
<g>
	<g>
		<path class="st0" d="M165.2,183.5h-40.1l-38.6-62.7L48,183.5H10.4l55-85.5L13.9,17.7h38.8l35.7,59.6l35-59.6h37.9l-52,82.2
			L165.2,183.5z"/>
	</g>
	<g>
		<path class="st0" d="M225,119.7h-17.8l-3-18.5h-21.6l-3,18.5h-16.2l17.9-102h25.8L225,119.7z M184.8,87.3h17l-8.5-51.6L184.8,87.3
			z"/>
		<path class="st0" d="M270.5,90.1l12-72.4H307v102h-16.7V46.6l-12.2,73.1h-16.7l-13.1-72.1v72.1H233v-102h24.5L270.5,90.1z"/>
		<path class="st0" d="M337.5,60.7h24.2v14.6h-24.2v29.9h30.4v14.6h-48.1v-102h48.1v14.6h-30.4V60.7z"/>
		<path class="st0" d="M415.7,119.7c-1-2.6-1.6-4.2-1.6-12.5v-16c0-9.5-3.5-13-11.5-13h-6.1v41.5h-17.6v-102h26.6
			c18.3,0,26.1,7.7,26.1,23.4v8c0,10.5-3.7,17.3-11.5,20.7c8.8,3.3,11.7,11.1,11.7,21.7v15.7c0,5,0.2,8.6,1.9,12.4L415.7,119.7
			L415.7,119.7z M396.4,32.3v31.3h6.9c6.6,0,10.6-2.6,10.6-10.8v-10c0-7.3-2.7-10.5-9-10.5H396.4z"/>
		<path class="st0" d="M500.2,119.7h-17.8l-3-18.5h-21.6l-3,18.5h-16.2l17.9-102h25.8L500.2,119.7z M460,87.3h17l-8.5-51.6L460,87.3
			z"/>
	</g>
	<polygon class="st1" points="501.9,139 145.9,139 174.4,182.5 501.9,182.5 	"/>
</g>
</svg>
