<svg id="Lager_1" data-name="Lager 1" xmlns="http://www.w3.org/2000/svg" viewBox="0 0 873.73 343.7"><defs><style>.cls-1{fill:none;}.cls-2{fill:#c9362b;}</style></defs><rect class="cls-1" width="873.73" height="343.7"/><polygon class="cls-2" points="448.07 232.57 467.17 232.57 467.17 124.77 448.07 124.77 448.07 232.57 448.07 232.57"/><path class="cls-2" d="M603.74,232.44h62.31l18.08-22.6V193.08H665.79v10.1l-9.16,12.48H613.4l-9-12.72V184.2h80V154.11l-18.3-29.38H604l-18.22,29.38,0,53.39,18,24.94Zm.61-64.58v-10l9.08-16.3h43l9.4,16.27v10Z"/><polygon class="cls-2" points="365.5 232.58 384.6 232.58 384.6 169.52 409.1 141.75 431.21 141.75 431.21 125.51 404.11 125.51 383.65 147.72 383.65 124.75 365.5 124.75 365.5 232.58 365.5 232.58"/><polygon class="cls-2" points="699.81 232.53 718.91 232.53 718.91 169.47 743.41 141.71 765.51 141.71 765.51 125.46 738.41 125.46 717.96 147.67 717.96 124.7 699.81 124.7 699.81 232.53 699.81 232.53"/><polygon class="cls-2" points="284.11 232.58 303.2 232.58 303.2 169.52 327.7 141.75 349.81 141.75 349.81 125.51 322.71 125.51 302.25 147.72 302.25 124.75 284.11 124.75 284.11 232.58 284.11 232.58"/><polygon class="cls-2" points="485.34 124.77 485.34 232.58 524.74 232.58 588.92 124.77 568.44 124.77 505.31 230.76 504.22 230.76 504.22 124.77 485.34 124.77 485.34 124.77"/><polygon class="cls-2" points="111.83 167.86 106.07 184.24 163.35 184.24 168.95 167.86 111.83 167.86 111.83 167.86"/><polygon class="cls-2" points="183.64 184.24 166.9 232.58 146.6 232.58 163.34 184.24 183.64 184.24 183.64 184.24"/><polygon class="cls-2" points="273.31 232.58 230.5 107.67 189.61 107.67 168.94 167.86 189.24 167.86 209.43 109.34 210.76 109.34 252.99 232.58 273.31 232.58 273.31 232.58"/></svg>