<?xml version="1.0" encoding="utf-8"?>
<!-- Generator: Adobe Illustrator 24.1.2, SVG Export Plug-In . SVG Version: 6.00 Build 0)  -->
<svg version="1.1" id="Lager_1" xmlns="http://www.w3.org/2000/svg" xmlns:xlink="http://www.w3.org/1999/xlink" x="0px" y="0px"
	 viewBox="0 0 622 215.5" style="enable-background:new 0 0 622 215.5;" xml:space="preserve">
<style type="text/css">
	.st0{fill:#FFDD00;}
	.st1{fill:#E73137;}
</style>
<path d="M265.8,23.5h28.9c0.2,0,0.4,0.2,0.4,0.4V149c0,0.2-0.2,0.4-0.4,0.4h-28.9c-0.2,0-0.4-0.2-0.4-0.4V23.8
	C265.4,23.6,265.5,23.5,265.8,23.5z"/>
<path d="M256.1,23.5c0.2,0,0.3,0.3,0.1,0.4L218,85.7c-0.4,0.6-0.4,1.2,0,1.8l38.5,61.3c0.2,0.4,0.1,0.5-0.1,0.5h-35.8
	c-0.3,0-0.6-0.1-0.8-0.5l-23.1-37.7c-0.3-0.4-0.5-0.4-0.7,0l-21.8,37.6c-0.2,0.4-0.5,0.5-0.9,0.5h-33.6c-0.4,0-0.5-0.1-0.3-0.5
	L178.8,84c0.4-0.7,0.4-1.4,0-2.1L144.4,24c-0.1-0.2,0-0.5,0.2-0.5h34.6c0.3,0,0.5,0.2,0.7,0.5l20.9,35.3c0.2,0.4,0.5,0.4,0.7,0
	L223,24c0.2-0.3,0.4-0.4,0.8-0.4L256.1,23.5L256.1,23.5z"/>
<polygon class="st0" points="503.1,-12.4 606.9,149.3 516.8,149.3 482.8,96.4 478.4,96.4 476.1,92.9 435.5,92.9 "/>
<polygon points="496.6,87.6 536.2,149.3 409.7,149.3 449.3,87.6 "/>
<polygon class="st1" points="486.2,87.6 525.8,149.3 399.3,149.3 438.9,87.6 "/>
<path d="M128.9,23.5H102c-0.4,0-0.6,0.2-0.8,0.5L20.6,149c-0.1,0.1,0,0.4,0.1,0.4h32.9c0.3,0,0.5-0.1,0.7-0.3L65.2,132
	c0.2-0.3,0.4-0.3,0.7-0.3h34.4c0.2,0,0.4,0.2,0.4,0.4v16.8c0,0.2,0.1,0.5,0.3,0.5h28c0.2,0,0.3-0.2,0.3-0.5V24
	C129.3,23.7,129.1,23.5,128.9,23.5z M100.7,107c0,0.1-0.1,0.3-0.2,0.3H79.1c-0.1,0-0.2-0.1-0.1-0.3l22.4-36.1c0.1-0.2,0.2-0.1,0.2,0
	L100.7,107z"/>
<path d="M312,149.4c-0.2,0,37.9,0,37.9,0c4.8-0.1,9.7-0.9,14.2-2.4c17.5-5.6,26.8-22.9,26.8-37.7c0-23.7-18.4-31.9-40.5-41.4
	c-3.8-1.7-8.5-3.9-8.5-9c0-5.4,5.1-8,10.7-8h29.9c0.2,0,0.4-0.2,0.4-0.4V23.2c0-0.2-0.2-0.3-0.4-0.3h-31.4
	c-26.2,0-41.6,15.5-41.6,37.3c0,18.9,12.1,28.2,29.6,35.1c12.3,4.8,20.3,7.1,20.3,17c0,5.3-3.1,10.1-9.6,10.1c0,0-37.5,0-37.8,0
	s-0.3,0.3-0.3,0.3c0-0.2,0,26.1,0,26.3C311.7,149.4,312.2,149.4,312,149.4z"/>
<path d="M407.2,22.7c-5.8,0-10.5,4.7-10.5,10.5s4.7,10.5,10.5,10.5s10.5-4.7,10.5-10.5S413,22.7,407.2,22.7z M407.2,42.7
	c-5.3,0-9.5-4.3-9.5-9.5c0-5.3,4.3-9.5,9.5-9.5s9.5,4.3,9.5,9.5S412.5,42.7,407.2,42.7z"/>
<path d="M412.1,39.3l-2.4-5.7c1.4-0.4,2.3-1.7,2.3-3.1c0-1-0.5-2.1-1.3-2.7s-1.8-0.8-2.8-0.8h-4.6v12.3h1.5V34h3.4l2.3,5.3H412.1z
	 M404.8,32.7v-4.4h3.1c0.6,0,1.2,0,1.7,0.4c0.6,0.4,0.9,1,0.9,1.7c0,0.6-0.2,1.2-0.6,1.6c-0.6,0.6-1.3,0.7-2.1,0.7H404.8L404.8,32.7
	z"/>
<path d="M45.8,196.3c-3.5,1.8-6.2,2.4-9.9,2.4c-9.8,0-14.7-6.2-14.7-12.5c0-6.5,5.5-12.6,15.2-12.6c3.5,0,6.7,0.7,9.1,2.1v5.5
	c-2.8-1.5-5.6-2.5-8.7-2.5c-5.4,0-9.1,3.1-9.1,7.4c0,4.4,3.7,7.5,9,7.5c3.3,0,5.5-1,9.1-2.7L45.8,196.3L45.8,196.3z"/>
<path d="M82.1,198.7c-9.2,0-14.5-6.3-14.5-12.6c0-5.9,4.9-12.6,14.5-12.6c9.5,0,14.4,6.7,14.4,12.6
	C96.5,192.4,91.2,198.7,82.1,198.7z M82.1,178.7c-4.8,0-8,3-8,7.5s3.2,7.5,8,7.5s7.9-3,7.9-7.5C90.1,181.7,86.9,178.7,82.1,178.7z"
	/>
<path d="M139.9,173.9h5.5v24.5h-6.3v-15.3l-6.8,7.7h-1l-6.8-7.7v15.3h-6.3v-24.5h5.5l8.1,9.1L139.9,173.9z"/>
<path d="M191.6,173.9h5.5v24.5h-6.3v-15.3l-6.8,7.7h-1l-6.8-7.7v15.3H170v-24.5h5.5l8.1,9.1L191.6,173.9z"/>
<path d="M245.2,173.9v13.9c0,8.1-5.7,10.9-12.6,10.9c-7.3,0-12.6-3.3-12.6-10.9v-13.9h6.3V188c0,3.5,2.6,5.6,6.3,5.6
	c3.3,0,6.4-1.7,6.4-6.1v-13.6H245.2z"/>
<path d="M293.8,198.4h-5.3l-13.9-15.7v15.7h-6.3v-24.5h5.8l13.5,15v-15h6.3L293.8,198.4L293.8,198.4z"/>
<path d="M323.9,198.4h-6.3v-24.5h6.3V198.4z"/>
<path d="M369.2,196.3c-3.5,1.8-6.2,2.4-9.9,2.4c-9.8,0-14.7-6.2-14.7-12.5c0-6.5,5.5-12.6,15.2-12.6c3.5,0,6.6,0.7,9.1,2.1v5.5
	c-2.8-1.5-5.6-2.5-8.7-2.5c-5.4,0-9.1,3.1-9.1,7.4c0,4.4,3.7,7.5,9,7.5c3.3,0,5.5-1,9.1-2.7V196.3L369.2,196.3z"/>
<path d="M414.4,198.4h-6.8l-2.1-4.9h-11.3l-1.9,4.9h-6.7l10.2-24.5h7.3L414.4,198.4z M399.6,179.8l-3.7,9.5h7.8L399.6,179.8z"/>
<path d="M451.1,178.4H442v20h-6.3v-20h-9.1v-4.5h24.5V178.4z"/>
<path d="M476.6,198.4h-6.3v-24.5h6.3V198.4z"/>
<path d="M510.1,198.7c-9.2,0-14.5-6.3-14.5-12.6c0-5.9,5-12.6,14.5-12.6c9.5,0,14.4,6.7,14.4,12.6
	C524.5,192.4,519.2,198.7,510.1,198.7z M510.1,178.7c-4.8,0-8,3-8,7.5s3.2,7.5,8,7.5c4.8,0,8-3,8-7.5S514.9,178.7,510.1,178.7z"/>
<path d="M568.7,198.4h-5.3l-13.9-15.7v15.7h-6.3v-24.5h5.8l13.5,15v-15h6.3L568.7,198.4L568.7,198.4z"/>
<path d="M605.3,180.3c-3.7-1.6-5.8-2.2-8-2.2c-2.3,0-3.7,0.8-3.7,2c0,3.7,12.8,2.7,12.8,11.2c0,4.7-4.1,7.4-9.7,7.4
	c-4.4,0-6.6-1.1-9.1-2.4V191c3.6,2.3,5.8,3.2,8.6,3.2c2.4,0,3.7-0.8,3.7-2.3c0-4-12.8-2.5-12.8-11.4c0-4.2,3.8-7,9.6-7
	c2.8,0,5.4,0.6,8.5,1.9L605.3,180.3L605.3,180.3z"/>
</svg>
