<?xml version="1.0" encoding="utf-8"?>
<!-- Generator: Adobe Illustrator 24.1.2, SVG Export Plug-In . SVG Version: 6.00 Build 0)  -->
<svg version="1.1" id="Gråskala" xmlns="http://www.w3.org/2000/svg" xmlns:xlink="http://www.w3.org/1999/xlink" x="0px" y="0px"
	 viewBox="0 0 620.2 102.7" style="enable-background:new 0 0 620.2 102.7;" xml:space="preserve">
<polygon points="93.2,19.7 73.6,78.5 54,19.7 49.3,19.7 70.1,82.1 77.1,82.1 97.9,19.7 "/>
<path d="M259.2,19.7v9c-4.3-6.2-11.4-10-19-10h-1.5c-9.8,0-18.5,6.1-21.8,15.3c-0.8,2.3-1.8,6.3-1.8,16.8c0,10.6,1,14.7,1.8,16.9
	c3.3,9.2,12,15.3,21.8,15.3h1.5c7.6,0,14.7-3.8,19-10c-0.1,6-0.6,10.1-1.5,12.6c-2.6,7.4-9.7,12.3-17.5,12.3h-1.5
	c-7,0-13.5-3.2-17-8.1h-5.2c3.7,7.5,12.5,12.6,22.3,12.6h1.5c9.8,0,18.5-6.1,21.8-15.3c0.8-2.2,1.8-6.2,1.8-16.9V19.7H259.2z
	 M257.7,66.3c-2.6,7.4-9.7,12.3-17.5,12.3h-1.5c-7.9,0-14.9-4.9-17.5-12.3c-0.4-1.1-1.5-4.3-1.5-15.4c0-9.9,0.9-13.5,1.5-15.4
	c2.6-7.4,9.7-12.3,17.5-12.3h1.5c7.9,0,14.9,4.9,17.5,12.3c0.4,1.1,1.5,4.3,1.5,15.3C259.2,58.4,258.7,63.4,257.7,66.3"/>
<path d="M317,66.7l-0.1,0.3c-2.4,6.8-10.3,11.7-18.9,11.7h-1.5c-7.9,0-14.9-4.9-17.5-12.3c-0.4-1.1-1.5-4.3-1.5-15.4v-0.3h44.1v-2.3
	c-0.1-8.7-1.1-12.3-1.8-14.2c-3.3-9.2-12-15.4-21.9-15.3h-1.5c-9.8,0-18.5,6.1-21.8,15.3c-0.8,2.3-1.8,6.4-1.8,16.8s1,14.7,1.8,16.9
	c3.3,9.2,12,15.3,21.8,15.3h1.5c10.6,0,20.1-6,23.1-14.7l0.6-1.8L317,66.7z M279,35.6c2.6-7.4,9.7-12.3,17.5-12.3h1.5
	c7.9,0,14.9,4.9,17.5,12.3c0.3,0.9,1.2,3.3,1.4,10.5h-39.4C277.8,39.8,278.4,37.1,279,35.6"/>
<path d="M144,66.7l-0.1,0.3c-2.4,6.8-10.3,11.7-18.9,11.7h-1.5c-7.9,0-14.9-4.9-17.5-12.3c-0.4-1.1-1.5-4.3-1.5-15.4v-0.3h44.1v-2.3
	c-0.1-8.7-1.1-12.3-1.8-14.2c-3.3-9.2-12-15.4-21.8-15.3h-1.5c-9.8,0-18.5,6.1-21.8,15.3c-0.8,2.3-1.8,6.4-1.8,16.8s1,14.7,1.8,16.9
	c3.3,9.2,12,15.3,21.8,15.3h1.5c10.6,0,20.1-6,23.2-14.7l0.6-1.8L144,66.7z M105.9,35.6c2.6-7.4,9.7-12.3,17.5-12.3h1.5
	c7.9,0,14.9,4.9,17.5,12.3c0.3,0.9,1.2,3.3,1.4,10.5h-39.5C104.7,39.8,105.4,37.1,105.9,35.6"/>
<path d="M24,46.2c-11.4,0-17.2-3.7-17.2-11c0-5.1,1.7-11.9,16-11.9h1.8c13.1,0,15.6,5.7,16,10.5h4.5c-0.4-7.2-4.5-15.1-20.5-15.1
	h-1.9c-17,0-20.5,8.9-20.5,16.4C2.2,41,5.1,50.7,24,50.7c16.6,0,18.9,7.3,18.9,14.4c0,9-6,13.5-17.7,13.5h-3
	c-11.7,0-17.7-4.6-17.7-13.5H0c0,11.6,7.9,18,22.2,18h3c14.3,0,22.2-6.4,22.2-18.1C47.4,52.4,39.7,46.2,24,46.2"/>
<polygon points="203.9,4.2 203.9,12.1 199.4,12.1 199.4,0 201.8,0 203.9,0 "/>
<polygon points="203.9,27.5 203.9,19.7 201.6,19.7 199.4,19.7 199.4,82.1 203.9,82.1 "/>
<polygon points="561.3,7.8 561.3,12.1 559.1,12.1 556.8,12.1 556.8,0 561.3,0 "/>
<polygon points="561.3,29.5 561.3,19.7 559.1,19.7 556.8,19.7 556.8,82.1 561.3,82.1 "/>
<path d="M189.6,19.5c-1.9-0.5-3.8-0.7-5.8-0.7h-1.5c-7.6,0-14.7,3.8-19,10v-9.1h-4.5v62.5h4.5V49.8c0.1-9.1,0.9-12.5,1.5-14.3
	c2.6-7.4,9.7-12.3,17.5-12.3h1.5c2,0,3.9,0.3,5.8,0.9L189.6,19.5z"/>
<path d="M596.6,83.1h-1.5c-9.8,0-18.5-6.1-21.8-15.3c-0.8-2.2-1.8-6.2-1.8-16.9c0-10.5,0.9-14.5,1.8-16.8c3.3-9.2,12-15.3,21.8-15.3
	h1.5c9.8,0,18.5,6.1,21.8,15.3c0.8,2.3,1.8,6.3,1.8,16.8c0,10.6-1,14.7-1.8,16.9C615.1,77,606.4,83.1,596.6,83.1 M595.1,23.2
	c-7.9,0-14.9,4.9-17.5,12.3c-0.6,1.8-1.5,5.4-1.5,15.3c0,11.1,1.1,14.3,1.5,15.4c2.6,7.4,9.7,12.3,17.5,12.3h1.5
	c7.9,0,14.9-4.9,17.5-12.3c1-2.9,1.5-7.9,1.5-15.4c0-11.1-1.1-14.3-1.5-15.3c-2.6-7.4-9.7-12.3-17.5-12.3L595.1,23.2z"/>
<path d="M540.4,82.1h4.5V0h-4.5v28.7c-4.3-6.2-11.4-10-19-10h-1.5c-9.8,0-18.6,6.1-21.9,15.3c-0.8,2.3-1.8,6.3-1.8,16.8
	c0,10.6,1,14.7,1.8,16.9c3.3,9.2,12,15.3,21.8,15.3h1.5c7.6,0,14.7-3.8,19-10L540.4,82.1z M538.9,66.3c-2.6,7.4-9.7,12.3-17.5,12.3
	h-1.5c-7.9,0-14.9-4.9-17.5-12.3c-0.4-1.1-1.5-4.3-1.5-15.4c0-9.9,0.9-13.5,1.5-15.3c2.6-7.4,9.7-12.3,17.5-12.3h1.5
	c7.9,0,14.9,4.9,17.5,12.3c0.4,1.1,1.5,4.3,1.5,15.3C540.4,58.4,539.9,63.4,538.9,66.3"/>
<path d="M487.1,36.4c0-11.1-7.7-17.8-20.6-17.8h-1.8c-13.3,0-21.2,5.5-21.9,15.1h4.5c0.8-8.7,9.8-10.6,17.4-10.6h1.8
	c6,0,16.1,1.7,16.1,13.3V46h-19.5c-16,0-23.5,5.8-23.5,18.3V65c0,11.7,7.9,18.1,22.2,18.1h1.8c7.6,0,14.6-3.8,18.9-10v9.1h4.5
	L487.1,36.4z M482.6,50.8L482.6,50.8c0,7.5-0.5,12.5-1.5,15.4c-2.6,7.4-9.7,12.3-17.5,12.3h-1.7c-11.8,0-17.7-4.6-17.7-13.6v-0.7
	c0-7.2,2.3-13.8,19-13.8h19.5L482.6,50.8z"/>
<path d="M415.8,35c0-15.8-15.6-14.9-20.4-15.8h22.5c6.5,0,16.8,4.3,16.8,15.8s-8.1,15.8-14.5,15.8h-10.6
	C409.5,50.8,415.8,50.9,415.8,35z"/>
<polygon points="330.6,82.1 357.5,82.1 330.6,54 "/>
<polygon points="359,19.2 384.6,49.8 384.6,19.2 "/>
<polygon points="408.4,50.8 385.5,50.8 411.6,82.1 436.1,82.1 "/>
<path d="M348.9,35c0,11.9,3.8,14.9,8.6,15.8H344c-6.4,0-14.4-4.3-14.4-15.8s8-15.8,14.4-15.8h13.5C352.8,20.1,348.9,23.1,348.9,35z"
	/>
<path d="M367.6,66.5c0-11.8-3.9-14.7-8.7-15.6h13.6c6.5,0,14.5,4.2,14.5,15.6s-8.1,15.6-14.6,15.6h-13.6
	C363.7,81.2,367.6,78.3,367.6,66.5z"/>
</svg>
