<?xml version="1.0" encoding="utf-8"?>
<!-- Generator: Adobe Illustrator 23.0.6, SVG Export Plug-In . SVG Version: 6.00 Build 0)  -->
<svg version="1.1" id="Lager_1" xmlns="http://www.w3.org/2000/svg" xmlns:xlink="http://www.w3.org/1999/xlink" x="0px" y="0px"
	 width="523px" height="121.4px" viewBox="0 0 523 121.4" style="enable-background:new 0 0 523 121.4;" xml:space="preserve">
<style type="text/css">
	.st0{fill:none;}
	.st1{clip-path:url(#SVGID_2_);fill:#8BA8D3;}
	.st2{clip-path:url(#SVGID_4_);fill:#1C5BA3;}
	.st3{clip-path:url(#SVGID_6_);fill:#8BA8D3;}
	.st4{clip-path:url(#SVGID_8_);fill:#0C69B0;}
</style>
<rect x="14" y="0.3" class="st0" width="493.9" height="121.4"/>
<path d="M173.1,28.8l5.8,13.3c1.5,3.6,2.7,7.2,4.1,10.9h0.3c1.4-4,2.8-7.6,4.1-10.9l5.6-13.3h10l-14.7,30.6l14.6,31.4h-10.8l-5.9-14
	c-1.4-3.3-2.6-6.5-4.1-10.6h-0.3c-1.3,3.7-2.7,7-4.1,10.6l-5.8,14h-10l14.7-31.1l-14.3-30.9C162.3,28.8,173.1,28.8,173.1,28.8z"/>
<rect x="14" y="0.3" class="st0" width="493.9" height="121.4"/>
<path d="M208.2,44.8c0-7.3-0.4-11-0.5-16h8.6l0.5,7.7h0.3c2.7-5,7.4-8.7,14-8.7c5.8,0,10.6,2.8,12.9,9.5h0.3c1.7-3.1,3.8-5.5,6.1-7
	c2.4-1.7,5.4-2.4,8.6-2.4c8.3,0,14.9,6.1,14.9,21.9v41.1H264V52c0-8.1-1.2-15.9-8.7-15.9c-4.1,0-7.7,3.5-9.1,9.2
	c-0.3,1.7-0.4,3.6-0.4,5.6v39.8h-9.7V50.2c0-6.9-1.3-14.1-8.6-14.1c-4,0-8.1,3.5-9.2,10c-0.3,1.7-0.4,3.5-0.4,5.4v39.3h-9.7
	L208.2,44.8L208.2,44.8z"/>
<rect x="14" y="0.3" class="st0" width="493.9" height="121.4"/>
<path d="M284.5,44.8c0-5.3-0.4-11.4-0.5-16h8.8l0.5,9.7h0.3c2-5.9,7.3-10.8,13.1-10.8c0.8,0,1.4,0.1,2,0.1v10.1
	c-0.6-0.1-1.3-0.1-2-0.1c-6.3,0-10.9,5.8-11.9,12.9c-0.3,1.7-0.4,3.6-0.4,5.6v34.3h-9.9V44.8z"/>
<rect x="14" y="0.3" class="st0" width="493.9" height="121.4"/>
<path d="M318.6,60.7c0.1,19,7.6,23.1,14.7,23.1c4.2,0,7.8-1,10.2-2.4l1.5,7.3c-3.5,1.9-8.7,2.9-13.6,2.9
	c-14.9,0-22.5-12.2-22.5-31.1c0-20.1,8.5-32.7,20.9-32.7c12.7,0,17.7,13.3,17.7,27.4c0,2.3,0,4-0.1,5.5H318.6z M338.1,53.4
	c0.3-12.4-4.5-17.9-9.2-17.9c-6.4,0-9.7,9.5-10.1,17.9H338.1z"/>
<rect x="14" y="0.3" class="st0" width="493.9" height="121.4"/>
<path d="M388,76.7c0,4.7,0,10.1,0.6,14.1h-9l-0.6-6.5h-0.4c-2.7,4.7-7,7.6-12.3,7.6c-8.3,0-14.7-7-14.7-17.7
	c0-15.5,12.4-22.4,26.4-22.5v-1.9c0-8.3-2.1-14.1-9.9-14.1c-3.8,0-7.3,1.3-10.2,3.2l-2.2-6.9c2.6-1.9,8.3-4.1,14.5-4.1
	c12.4,0,17.8,8.2,17.8,22.2L388,76.7L388,76.7z M378.3,58.8c-5.1,0-17,0.9-17,14.3c0,8.1,4.1,11,7.6,11c4.4,0,8.1-3.2,9.2-9.4
	c0.3-1.2,0.3-2.4,0.3-3.5L378.3,58.8L378.3,58.8z"/>
<rect x="14" y="0.3" class="st0" width="493.9" height="121.4"/>
<rect x="398.9" y="2.2" width="9.9" height="88.6"/>
<rect x="14" y="0.3" class="st0" width="493.9" height="121.4"/>
<path d="M431,12.8c0.1,3.8-2.3,6.4-6,6.4c-3.2,0-5.6-2.6-5.6-6.4s2.6-6.4,5.8-6.4C428.7,6.4,431,9,431,12.8 M420.4,28.8h9.9v62h-9.9
	V28.8z"/>
<rect x="14" y="0.3" class="st0" width="493.9" height="121.4"/>
<path d="M453.1,14.3v14.5H465v7.6h-11.9v36.8c0,8.1,2.9,10.2,6.5,10.2c1.5,0,2.8-0.1,4-0.4l0.4,7.6c-1.8,0.6-4.1,1-7.3,1
	c-3.8,0-7.3-1-9.7-3.7c-2.4-2.8-3.7-7-3.7-15.6V36.4h-7.6v-7.6h7.6V18.3L453.1,14.3z"/>
<rect x="14" y="0.3" class="st0" width="493.9" height="121.4"/>
<path d="M477.2,28.8l8.2,35.6c1.2,4.9,1.8,9,2.6,12.8h0.3c0.6-3.5,1.7-8.2,2.7-12.7l7.3-35.7h9.7l-10.1,39.8
	c-3.8,15.6-8.1,30.6-15.4,40c-4.4,5.5-9,8.5-11.1,9.5l-3.6-8.5c2.8-1.5,5.9-4.2,8.7-7.8c2.6-3.2,4.6-7.4,5.6-10.4
	c0.5-1.5,0.6-2.2,0.6-3.1c0-0.8,0-1.5-0.3-2.3l-15.6-57.3h10.4V28.8L477.2,28.8z"/>
<g>
	<g>
		<defs>
			<rect id="SVGID_1_" x="14" y="0.3" width="493.9" height="121.4"/>
		</defs>
		<clipPath id="SVGID_2_">
			<use xlink:href="#SVGID_1_"  style="overflow:visible;"/>
		</clipPath>
		<polygon class="st1" points="74.7,35.7 87.6,13.2 74.7,0.3 61.8,13.2 		"/>
	</g>
</g>
<g>
	<g>
		<defs>
			<rect id="SVGID_3_" x="14" y="0.3" width="493.9" height="121.4"/>
		</defs>
		<clipPath id="SVGID_4_">
			<use xlink:href="#SVGID_3_"  style="overflow:visible;"/>
		</clipPath>
		<polygon class="st2" points="106,31.6 89.2,61 106,90.5 135.4,61 		"/>
	</g>
</g>
<g>
	<g>
		<defs>
			<rect id="SVGID_5_" x="14" y="0.3" width="493.9" height="121.4"/>
		</defs>
		<clipPath id="SVGID_6_">
			<use xlink:href="#SVGID_5_"  style="overflow:visible;"/>
		</clipPath>
		<polygon class="st3" points="74.7,86.3 61.8,108.9 74.7,121.7 87.6,108.9 		"/>
	</g>
</g>
<g>
	<g>
		<defs>
			<rect id="SVGID_7_" x="14" y="0.3" width="493.9" height="121.4"/>
		</defs>
		<clipPath id="SVGID_8_">
			<use xlink:href="#SVGID_7_"  style="overflow:visible;"/>
		</clipPath>
		<polygon class="st4" points="60.3,61 43.5,31.6 14,61 43.5,90.5 		"/>
	</g>
</g>
</svg>
