<?xml version="1.0" encoding="utf-8"?>
<!-- Generator: Adobe Illustrator 24.1.2, SVG Export Plug-In . SVG Version: 6.00 Build 0)  -->
<svg version="1.1" id="Layer_1" xmlns="http://www.w3.org/2000/svg" xmlns:xlink="http://www.w3.org/1999/xlink" x="0px" y="0px"
	 viewBox="0 0 380 648" style="enable-background:new 0 0 380 648;" xml:space="preserve">
<style type="text/css">
	.st0{clip-path:url(#SVGID_2_);}
	.st1{opacity:0.4;}
	.st2{opacity:0.4;fill:#D6D8E5;enable-background:new    ;}
	.st3{fill:#1C1C1C;}
	.st4{fill:#282828;}
	.st5{fill:#FFAE80;}
	.st6{opacity:0.8;}
	.st7{opacity:0.8;fill:#FFFFFF;enable-background:new    ;}
	.st8{fill:#FF984A;}
	.st9{fill:#F4F6F9;}
	.st10{fill:#FFCEA9;}
	.st11{fill:#EDEDED;}
	.st12{fill:#2B2B2B;}
	.st13{fill:#F4F4F4;}
	.st14{fill:#2B2A30;}
	.st15{fill:#BF4B4B;}
</style>
<g>
	<defs>
		<rect id="SVGID_1_" width="380" height="648"/>
	</defs>
	<clipPath id="SVGID_2_">
		<use xlink:href="#SVGID_1_"  style="overflow:visible;"/>
	</clipPath>
	<g class="st0">
		<g class="st1">
			<path class="st2" d="M341.5,405.8c0,4.8-2.6,9.2-6.7,11.7l-288,166.4c-4.1,2.3-9.2,2.3-13.3,0c-6.5-3.6-8.8-11.9-5.1-18.4
				c1.2-2.1,2.9-3.9,5.1-5.1l287.9-166.3c6.5-3.8,14.6-1.6,18.4,4.9C340.9,401.1,341.5,403.4,341.5,405.8z"/>
		</g>
		<path class="st3" d="M360.4,11.7c0.3-0.1,0.5-0.1,0.8-0.3l0.8-0.1l1-0.1h0.5c0.4,0,0.8,0,1.2,0h0.3c0.5,0,0.9,0.1,1.4,0.1l0.4,0.1
			c0.4,0.1,0.6,0.1,1,0.3l0.4,0.1c0.4,0.1,0.9,0.4,1.3,0.5l-18.9-11h-0.1c-0.3-0.1-0.6-0.4-0.9-0.5h-0.1l-0.3-0.1
			c-0.1,0-0.4-0.1-0.5-0.1l-0.5-0.1l-0.4-0.1h-0.1c-0.4-0.1-0.8-0.1-1.2-0.1h-0.5c-0.3,0-0.6,0-0.9,0h-0.4h-0.5h-0.5l-0.5,0.1
			l-0.8,0.1h-0.4l-0.4,0.1L340.2,1c-0.1,0.1-0.3,0.1-0.5,0.1l-0.3,0.1c-0.8,0.4-1.6,0.8-2.3,1.2L18.9,186.4l18.9,11L356,13.6
			c0.8-0.4,1.6-0.8,2.5-1.2l0.8-0.3L360.4,11.7z"/>
		<path class="st3" d="M19.6,473.8l-0.6-243.6c0-1.2,0.1-2.2,0.3-3.4c0-0.3,0-0.5,0.1-0.8c0-0.5,0.1-1,0.3-1.6
			c0.1-0.5,0.1-0.6,0.3-1c0.1-0.4,0.1-0.6,0.3-0.9c0.1-0.3,0.3-0.9,0.4-1.3l0.3-0.8c0.1-0.5,0.4-1,0.5-1.6c0-0.3,0.1-0.4,0.3-0.6
			c0.3-0.6,0.5-1.4,0.8-2.1c0-0.1,0-0.1,0.1-0.3c0.3-0.6,0.5-1.3,0.9-1.8c0.1-0.1,0.1-0.4,0.3-0.5c0.3-0.5,0.6-1.2,0.9-1.7l0.1-0.4
			c0.4-0.6,0.8-1.3,1.2-1.9l0.4-0.5c0.3-0.5,0.6-0.9,0.9-1.3l0.5-0.8l0.9-1.2l0.8-0.9c0.3-0.3,0.5-0.5,0.8-0.8
			c0.3-0.3,0.8-0.9,1.3-1.3l0.6-0.6c0.9-0.8,1.7-1.6,2.7-2.3l0.5-0.4c0.9-0.8,1.9-1.4,3-2.1l-18.9-11c-1,0.6-2.1,1.3-3,2.1l-0.5,0.4
			c-0.9,0.8-1.8,1.6-2.7,2.3l-0.3,0.1c-0.1,0.1-0.3,0.3-0.4,0.4c-0.4,0.4-0.9,0.9-1.3,1.3c-0.1,0.1-0.3,0.3-0.4,0.4l-0.3,0.4
			c-0.3,0.3-0.5,0.6-0.8,0.9s-0.4,0.4-0.5,0.6c-0.1,0.3-0.3,0.4-0.4,0.5c-0.1,0.1-0.4,0.5-0.5,0.8l-0.4,0.5
			c-0.3,0.3-0.4,0.5-0.5,0.9L7,198.5l-0.1,0.3c-0.4,0.5-0.6,1-1,1.6v0.1l-0.4,0.4c-0.3,0.4-0.4,0.8-0.6,1.2l-0.3,0.5l-0.3,0.5
			c-0.1,0.1-0.1,0.4-0.3,0.5c-0.3,0.4-0.4,0.9-0.6,1.3l-0.1,0.3c-0.3,0.5-0.5,1.2-0.6,1.7c0,0.1,0,0.3-0.1,0.4
			c-0.1,0.1-0.1,0.4-0.3,0.6c-0.1,0.3-0.3,0.5-0.3,0.9c0,0.4-0.1,0.4-0.3,0.6c-0.1,0.3-0.1,0.5-0.3,0.8s-0.1,0.3-0.1,0.4
			c0,0.1-0.1,0.5-0.3,0.9l-0.1,1l-0.1,0.4c0,0.3-0.1,0.5-0.1,0.6c-0.1,0.5-0.1,1-0.3,1.6c0,0.1,0,0.3,0,0.4c0,0.1,0,0.3,0,0.4
			c-0.1,1-0.3,2.2-0.4,3.4l0.6,243.6c0,6,2.1,10.2,5.6,12.2l18.9,11C21.8,484.1,19.6,479.8,19.6,473.8z"/>
		<path class="st4" d="M356,13.6c10.5-6.1,19-1.2,19,10.9l0.6,243.6c0,12.1-8.4,26.7-18.9,32.8L38.6,484.7c-10.5,6.1-19,1.2-19-10.9
			l-0.6-243.6c0-12.1,8.4-26.7,18.9-32.8L356,13.6z"/>
		<path class="st5" d="M346.7,106.8v2.2c-1,2.2-1.8,4.5-2.3,7c-0.6,2.6-1,5.2-1.2,7.8l1.9-1.2v2.9l-7.5,4.3V127l1.9-1.2
			c0.1-2.3,0.6-4.7,1.3-7c0.6-2.6,1.6-5.1,2.6-7.5l-4,2.3v2.5l-2.5,1.4v-5.3L346.7,106.8z"/>
		<path class="st5" d="M336.7,152.8v15l2.1-1.2v2.9l-7.6,4.3v-2.9l2.2-1.2v-12.1L331,159v-2.9L336.7,152.8z"/>
		<path class="st5" d="M352.9,156.4l-1.6,0.9v2.3l1.3-0.8v2.6l-6.2,3.6v-2.6l1.7-1v-2.3l-5.7,3.2c-0.3-0.6-0.5-1.3-0.8-1.8l6.6-14.8
			l3.1-1.8v10.8l1.6-0.9V156.4z M348.1,156.7v-6.2l-3.9,8.4L348.1,156.7z"/>
		<path class="st5" d="M336.3,193.5c1.4-0.8,2.6-1,3.5-0.5c0.9,0.6,1.4,1.7,1.3,2.7c0,0.8-0.1,1.6-0.4,2.3c-0.3,0.8-0.5,1.4-1,2.2
			c-0.4,0.6-1,1.7-2.1,3.1c-1,1.4-1.9,3-2.7,4.5c-0.4,0.6-0.6,1.4-0.8,2.2l4.5-2.6v-2.3l2.5-1.4L341,209l-10,5.7
			c0-1.3,0.1-2.6,0.4-3.9c0.3-1,0.6-2.1,1-3.1c0.6-1.3,1.3-2.6,2.1-3.9c1.2-1.9,1.9-3.2,2.3-4.1c0.4-0.8,0.5-1.6,0.5-2.3
			c0-0.4-0.1-0.8-0.4-1c-0.4-0.3-0.8-0.1-1,0.1c-0.6,0.4-1.2,0.9-1.4,1.7c-0.4,1-0.5,2.1-0.5,3.1l-2.9,1.4c0-1.4,0.1-2.9,0.6-4.3
			c0.4-1,1-2.1,1.8-3C334.7,194.7,335.4,194,336.3,193.5z"/>
		<path class="st5" d="M350.8,185.5v14.9l2.1-1.2v3l-7.5,4.3l-0.1-2.9l2.2-1.2v-12.2l-2.3,1.4v-3L350.8,185.5z"/>
		<path class="st5" d="M335.7,234.7c1.4-0.9,2.6-1,3.5-0.6c0.9,0.6,1.4,1.7,1.3,2.7c0,0.8-0.1,1.6-0.4,2.3c-0.3,0.8-0.5,1.4-1,2.2
			c-0.4,0.6-1,1.7-2.1,3.1c-1,1.4-1.9,2.9-2.7,4.5c-0.3,0.8-0.5,1.6-0.6,2.3l4.5-2.6v-2.5l2.5-1.4l-0.1,5.3l-9.8,5.7
			c0-1.3,0.1-2.6,0.3-3.8c0.3-1,0.6-2.1,1-3.1c0.6-1.3,1.3-2.6,2.1-3.9c0.8-1.3,1.6-2.7,2.3-4.1c0.4-0.6,0.5-1.6,0.5-2.3
			c0-0.4-0.1-0.8-0.4-1.2c-0.4-0.1-0.8-0.1-1,0.1c-0.6,0.4-1,1-1.3,1.7c-0.4,1-0.5,2.1-0.5,3.1l-2.9,1.4c0-1.4,0.1-2.9,0.6-4.3
			c0.4-1,1-2.1,1.8-3C334,235.9,334.8,235.2,335.7,234.7z"/>
		<path class="st5" d="M351.1,234.6c1.8-0.3,2.7,0.6,2.7,2.9c0,1.7-0.5,3.2-1.4,4.5c-1,1.6-2.5,2.9-4,3.8c-1.8,1-3.1,1.3-4,0.8
			c-0.9-0.6-1.4-1.8-1.3-3c0.1-2.2,1-4.4,2.7-6c-1.6-0.1-2.3-1-2.3-2.7c0-1.4,0.5-3,1.3-4.1c0.9-1.4,2.2-2.6,3.6-3.4
			c1.6-0.9,2.9-1.2,3.6-0.8c0.8,0.4,1.3,1.2,1.3,2.6C353.3,231.2,352.4,233,351.1,234.6z M349.9,241.3c0.4-0.8,0.6-1.6,0.6-2.3
			c0.1-0.6-0.1-1.3-0.6-1.7c-0.4-0.3-0.9-0.3-1.6,0.1c-0.6,0.4-1.2,0.9-1.6,1.7c-0.4,0.8-0.6,1.6-0.6,2.3c-0.1,0.6,0.1,1.3,0.6,1.7
			c0.5,0.3,1,0.1,1.6-0.1C349,242.6,349.6,242,349.9,241.3z M347.1,231.6c-0.4,0.6-0.5,1.3-0.5,2.1c0,0.5,0.1,1,0.5,1.4
			c0.4,0.3,0.8,0.3,1.3-0.1c0.5-0.4,1-0.8,1.3-1.4c0.3-0.6,0.5-1.3,0.5-2.1c0-0.5-0.1-1-0.5-1.4c-0.4-0.3-0.8-0.3-1.3,0.1
			C347.7,230.4,347.4,230.9,347.1,231.6z"/>
		<g class="st6">
			<path class="st7" d="M54,275.8l0.1,15l1.9-1.2v2.9l-7.5,4.3v-2.9l2.1-1.2v-12.1l-2.2,1.3v-2.9L54,275.8z"/>
			<path class="st7" d="M99.4,249.4c1.4-0.8,2.6-1,3.5-0.6c0.9,0.6,1.4,1.7,1.3,2.7c0,0.8-0.1,1.6-0.4,2.3c-0.3,0.8-0.5,1.4-1,2.2
				c-0.4,0.6-1,1.7-2.1,3.1c-1,1.4-2.1,2.9-2.9,4.5c-0.3,0.8-0.5,1.6-0.6,2.3l4.5-2.6V261l2.5-1.4l-0.1,5.3l-10,5.7
				c0-1.3,0.1-2.6,0.4-3.8c0.3-1,0.6-2.1,1-3.1c0.6-1.3,1.3-2.6,2.1-3.9c0.9-1.3,1.7-2.7,2.3-4.1c0.4-0.6,0.5-1.4,0.5-2.3
				c0-0.4-0.1-0.8-0.4-1.2c-0.4-0.1-0.8-0.1-1,0.1c-0.6,0.4-1,1-1.3,1.7c-0.4,1-0.5,2.1-0.5,3.1l-2.9,1.4c0-1.4,0.1-2.9,0.6-4.3
				c0.4-1,1-2.1,1.8-3C97.6,250.6,98.3,250,99.4,249.4z"/>
			<path class="st7" d="M147.4,221.6c1.6-0.9,2.7-1.2,3.6-0.8c0.9,0.4,1.3,1.3,1.3,2.7c0,2.1-0.9,4-2.3,5.4c1.9-0.4,2.8,0.5,2.8,2.6
				c0,1.7-0.5,3.4-1.4,4.8c-0.9,1.4-2.2,2.7-3.8,3.6c-3.4,1.9-5.1,1-5.4-2.6l3-2.1c0,2.1,0.8,2.7,2.1,1.9c0.6-0.4,1.2-0.9,1.4-1.7
				c0.4-0.6,0.5-1.4,0.5-2.2c0.1-0.6-0.1-1.2-0.5-1.6c-0.4-0.3-0.9-0.3-1.7,0.1c-0.1,0.1-0.4,0.3-0.6,0.4v-3c0.8-0.4,1.4-1,1.9-1.8
				c0.4-0.6,0.5-1.3,0.6-2.1c0-0.4-0.1-0.9-0.5-1.2c-0.4-0.3-0.9-0.1-1.2,0.1c-1.2,0.6-1.8,1.9-1.7,3.4l-3,1.4
				c0-1.6,0.5-3.1,1.4-4.5C144.8,223.6,146,222.4,147.4,221.6z"/>
			<path class="st7" d="M202,203.3l-1.6,0.9v2.3l1.3-0.8v2.6l-6.2,3.6v-2.6l1.7-1v-2.3l-5.7,3.2c-0.3-0.6-0.5-1.3-0.8-1.8l6.6-14.8
				l3.1-1.8v10.8l1.6-0.9V203.3z M197.3,203.6v-6.2l-3.8,8.4L197.3,203.6z"/>
			<path class="st7" d="M249.9,162.8v4.1l-2.3,1.3l-0.3-1.2l-4,2.3l-0.1,4.4c0.6-1,1.6-1.9,2.6-2.6c1.6-0.9,2.7-1,3.5-0.4
				c0.9,0.9,1.4,2.1,1.3,3.4c0,1.8-0.4,3.5-1.3,5.1c-0.9,1.7-2.3,3.1-4,4.1c-1.6,0.9-2.7,1.2-3.6,0.8c-1-0.5-1.6-1.6-1.6-2.7l3-2.1
				c0.1,1.6,0.9,2.1,2.1,1.4c0.6-0.4,1.2-1,1.6-1.7c0.4-0.8,0.5-1.7,0.5-2.5c0-2.1-0.6-2.7-2.1-1.9c-0.9,0.6-1.6,1.4-1.8,2.5h-2.5
				l0.4-9.3L249.9,162.8z"/>
			<path class="st7" d="M297.7,142.9c0.8,0.5,1.2,1.6,1.3,3.4c0,1.8-0.4,3.8-1.3,5.3c-0.8,1.4-1.9,2.7-3.4,3.5
				c-1.9,1-3.4,1.2-4.3,0.3c-0.9-0.9-1.4-3-1.4-6c-0.1-2.7,0.4-5.6,1.6-8c0.9-1.9,2.3-3.5,4.3-4.7c2.6-1.4,4-0.8,4.4,2.2l-2.7,1.8
				c-0.3-1.3-0.9-1.7-1.8-1.2c-0.8,0.5-1.4,1.4-1.7,2.3c-0.4,1.3-0.6,2.7-0.6,4c0.6-1.2,1.6-2.1,2.7-2.7
				C295.7,142.6,296.8,142.4,297.7,142.9z M295.4,150.9c0.4-0.8,0.5-1.7,0.5-2.6c0.1-0.6-0.1-1.3-0.5-1.8c-0.4-0.3-0.9-0.3-1.3,0.1
				c-0.8,0.5-1.4,1.2-1.9,1.9c-0.1,1.3,0.1,2.5,0.6,3.6c0.4,0.5,0.9,0.5,1.6,0.1C294.7,152,295.3,151.5,295.4,150.9z"/>
			<path class="st7" d="M55.1,324c1.8-0.3,2.7,0.6,2.7,2.9c0,1.7-0.5,3.2-1.4,4.5c-1,1.6-2.5,2.9-4,3.8c-1.8,1-3.1,1.3-4,0.8
				c-1-0.6-1.6-1.8-1.3-3c0-2.2,1-4.4,2.7-6c-1.6-0.1-2.3-1-2.3-2.7c0-1.4,0.5-3,1.3-4.1c0.9-1.4,2.2-2.6,3.6-3.4
				c1.6-0.9,2.9-1.2,3.6-0.8c0.8,0.4,1.3,1.2,1.3,2.6C57.3,320.6,56.5,322.4,55.1,324z M53.9,330.7c0.4-0.8,0.6-1.6,0.6-2.3
				c0.1-0.6-0.1-1.3-0.6-1.7c-0.4-0.3-0.9-0.3-1.6,0.1c-0.6,0.4-1.2,0.9-1.6,1.7c-0.4,0.8-0.6,1.6-0.6,2.3c-0.1,0.6,0.1,1.3,0.6,1.7
				c0.5,0.3,1,0.3,1.6-0.1C53.1,332,53.6,331.4,53.9,330.7z M51,321c-0.4,0.6-0.5,1.3-0.5,2.1c0,0.5,0.1,1,0.5,1.4
				c0.4,0.3,0.8,0.3,1.3-0.1c0.5-0.4,1-0.8,1.3-1.4c0.4-0.6,0.5-1.3,0.5-1.9c0-0.5-0.1-1-0.5-1.4c-0.3-0.3-0.8-0.3-1.3,0.1
				C51.8,319.9,51.3,320.4,51,321z"/>
			<path class="st7" d="M103,289.7c0.9,0.9,1.4,3,1.4,6.2c0,6.1-1.9,10.4-5.7,12.4c-0.9,0.6-2.1,0.9-3.1,0.5
				c-0.8-0.4-1.3-1.3-1.4-2.9l2.6-1.8c0.3,1.3,0.9,1.8,1.8,1.3c1.4-0.8,2.2-3,2.3-6.5c-0.8,1.2-1.7,2.1-2.8,2.7
				c-0.9,0.6-2.1,0.8-3,0.3c-0.8-0.5-1.2-1.7-1.2-3.4c0-1.8,0.4-3.5,1.3-5.1c0.8-1.6,2.1-3,3.6-3.8
				C100.8,288.9,102.1,288.7,103,289.7z M101.2,296.5v-0.1c0-1-0.1-2.2-0.5-3.1c-0.4-0.8-0.9-0.9-1.7-0.4c-0.5,0.4-0.9,0.9-1.2,1.4
				c-0.3,0.8-0.5,1.6-0.5,2.5c0,0.6,0.1,1.3,0.5,1.8c0.4,0.4,0.8,0.4,1.4,0C99.9,298,100.5,297.3,101.2,296.5z"/>
			<path class="st7" d="M142.4,265.3v15l2.1-1.2v2.9l-7.5,4.3v-2.9l2.1-1.2v-12.2l-2.3,1.3v-2.9L142.4,265.3z"/>
			<path class="st7" d="M157.2,258.9c0.9,1,1.3,3.1,1.3,6c0.1,2.6-0.4,5.2-1.3,7.6c-0.8,1.9-2.2,3.6-4,4.7c-1.7,1-3.1,1-4-0.1
				c-0.9-1-1.4-3.1-1.4-6c-0.1-2.6,0.4-5.2,1.3-7.5c0.8-1.9,2.2-3.6,4-4.7C155,257.8,156.3,257.8,157.2,258.9z M154.7,271.3
				c0.1-1.4,0.3-2.9,0.3-4.3c0-1.6-0.1-3-0.4-4.4c-0.3-0.9-0.8-1.2-1.4-0.8c-0.8,0.6-1.3,1.4-1.4,2.5c-0.3,1.6-0.4,3.2-0.4,4.9
				c0,1.6,0.1,3,0.4,4.4c0.3,0.9,0.8,1.2,1.3,0.8C154,273.6,154.6,272.4,154.7,271.3z"/>
			<path class="st7" d="M192,236.1l0.1,14.9l1.9-1.2v2.9l-7.5,4.4v-2.9l2.1-1.3v-12.1l-2.2,1.3l-0.1-2.9L192,236.1z"/>
			<path class="st7" d="M204.6,228.9l0.1,14.9l1.9-1.2v2.9l-7.5,4.4V247l2.2-1.3l-0.1-12.1L199,235v-2.9L204.6,228.9z"/>
			<path class="st7" d="M240.5,208.7v14.9l2.1-1.2v2.9l-7.5,4.4v-2.9l2.1-1.2v-12.2l-2.3,1.3v-2.9L240.5,208.7z"/>
			<path class="st7" d="M251.2,202.2c1.4-0.9,2.7-1,3.5-0.6c0.9,0.6,1.4,1.7,1.3,2.7c0,0.8-0.1,1.6-0.4,2.3
				c-0.3,0.8-0.5,1.4-0.9,2.2c-0.4,0.6-1,1.7-2.1,3.1c-1,1.4-2.1,3-2.7,4.5c-0.4,0.8-0.5,1.6-0.6,2.3l4.5-2.6v-2.3l2.5-1.4l-0.1,5.3
				l-10,5.7c0-1.3,0.1-2.6,0.3-3.8c0.3-1,0.6-2.1,1-3.1c0.6-1.3,1.3-2.6,2.1-3.9c1.2-1.9,1.9-3.2,2.3-4.1c0.4-0.6,0.5-1.4,0.5-2.3
				c0-0.4-0.1-0.8-0.4-1.2c-0.4-0.3-0.8-0.1-1,0.1c-0.6,0.4-1.2,1-1.4,1.7c-0.4,1-0.5,2.1-0.5,3.1l-2.9,1.4c0-1.4,0.1-2.9,0.6-4.3
				c0.4-1,1-2.1,1.8-3C249.4,203.5,250.3,202.7,251.2,202.2z"/>
			<path class="st7" d="M288.8,180.8l0.1,14.9l1.9-1.2v2.9l-7.5,4.4v-2.9l2.1-1.3v-12.1l-2.2,1.3V184L288.8,180.8z"/>
			<path class="st7" d="M299.3,174.4c1-0.8,2.3-1,3.6-0.8c0.8,0.4,1.3,1.3,1.3,2.7c0,2.1-0.9,4-2.3,5.4c1.9-0.4,2.9,0.5,2.9,2.6
				c0,1.7-0.5,3.4-1.4,4.8c-0.9,1.4-2.2,2.7-3.8,3.6c-3.4,1.9-5.1,1-5.3-2.6l3-2.1c0,2.1,0.8,2.7,2.1,1.9c0.6-0.4,1.2-0.9,1.4-1.6
				c0.4-0.6,0.5-1.4,0.5-2.2c0-0.5-0.1-1.2-0.5-1.6c-0.4-0.3-0.9-0.3-1.7,0.3c-0.1,0.1-0.4,0.3-0.6,0.4v-3c0.8-0.4,1.4-1,1.9-1.8
				c0.4-0.6,0.5-1.3,0.5-2.1c0-0.4-0.1-0.9-0.5-1.2c-0.4-0.1-0.9-0.1-1.2,0.1c-1.2,0.6-1.8,1.9-1.7,3.4l-2.9,1.4
				c0-1.6,0.5-3.1,1.4-4.5C296.8,176.3,298,175.2,299.3,174.4z"/>
			<path class="st7" d="M47.4,360.7v14.9l2.1-1.2v2.9l-7.6,4.4v-2.9l2.2-1.3v-12.1l-2.3,1.3v-2.9L47.4,360.7z"/>
			<path class="st7" d="M62.4,351.9v4.1l-2.2,1.3l-0.3-1.2l-4,2.3l-0.1,4.4c0.6-1,1.6-1.9,2.6-2.6c1.6-0.9,2.7-1,3.5-0.4
				c0.9,0.9,1.4,2.1,1.3,3.4c0,1.8-0.4,3.5-1.3,5.1c-0.9,1.7-2.3,3.1-4,4.1c-1.6,0.9-2.7,1.2-3.6,0.8c-0.9-0.5-1.6-1.6-1.7-2.6
				l3-2.1c0.3,1.6,0.9,2.1,2.1,1.4c0.6-0.4,1.2-0.9,1.6-1.7c0.4-0.8,0.5-1.7,0.5-2.5c0-2.1-0.6-2.7-2.1-1.9
				c-0.9,0.6-1.6,1.4-1.8,2.5h-2.5l0.4-9.3L62.4,351.9z"/>
			<path class="st7" d="M94.2,334v14.9l2.1-1.2v2.9l-7.5,4.4v-2.9l2.1-1.3v-12.1l-2.3,1.3v-2.9L94.2,334z"/>
			<path class="st7" d="M109,333.2c0.8,0.5,1.3,1.6,1.3,3.4c0,1.8-0.4,3.6-1.3,5.3c-0.8,1.4-1.9,2.7-3.5,3.5c-1.8,1-3.2,1.2-4.3,0.3
				c-1-0.9-1.4-3-1.4-6c-0.1-2.7,0.4-5.6,1.6-8c0.9-1.9,2.3-3.5,4.3-4.7c2.6-1.6,4-0.8,4.4,2.2l-2.6,1.8c-0.4-1.3-0.9-1.7-1.8-1.2
				c-0.8,0.5-1.4,1.4-1.7,2.3c-0.4,1.3-0.6,2.7-0.6,4c0.6-1.2,1.6-2.1,2.7-2.7C106.9,332.9,108.1,332.8,109,333.2z M106.6,341.2
				c0.4-0.8,0.5-1.7,0.4-2.6c0-0.9-0.1-1.6-0.5-1.8c-0.4-0.3-0.9-0.3-1.3,0c-0.8,0.5-1.4,1.2-1.9,1.9c-0.1,1.3,0.1,2.6,0.6,3.8
				c0.4,0.5,0.9,0.5,1.6,0.1C106,342.1,106.5,341.8,106.6,341.2z"/>
			<path class="st7" d="M142.8,305.9v14.9l2.1-1.2v2.9l-7.6,4.4V324l2.2-1.3l-0.1-12.1l-2.2,1.3v-2.9L142.8,305.9z"/>
			<path class="st7" d="M158.3,296.8v2.2c-1,2.2-1.8,4.5-2.3,7c-0.6,2.6-1.2,5.2-1.2,7.8l1.9-1.2v2.9l-7.5,4.3v-2.9l1.9-1.2
				c0.1-2.3,0.6-4.7,1.3-7c0.6-2.6,1.6-5.1,2.6-7.5l-4,2.3v2.5l-2.5,1.4v-5.3L158.3,296.8z"/>
			<path class="st7" d="M191.4,277.2v15l2.1-1.2v2.9l-7.5,4.4v-2.9l2.1-1.3v-12.1l-2.3,1.3v-2.9L191.4,277.2z"/>
			<path class="st7" d="M204.8,277.9c1.8-0.3,2.7,0.8,2.7,2.9c0,1.7-0.5,3.2-1.4,4.5c-1,1.6-2.5,2.9-4,3.8c-1.8,1-3.1,1.3-4,0.8
				c-0.9-0.6-1.4-1.8-1.3-3c0.1-2.3,1-4.4,2.7-6c-1.6-0.1-2.3-1-2.3-2.7c0-1.4,0.5-3,1.3-4.1c0.9-1.4,2.2-2.6,3.6-3.4
				c1.6-0.9,2.9-1.2,3.6-0.8c0.9,0.5,1.4,1.6,1.3,2.6C207,274.5,206.3,276.4,204.8,277.9z M203.7,284.7c0.4-0.8,0.6-1.6,0.6-2.3
				c0.1-0.6-0.1-1.3-0.5-1.7c-0.5-0.3-1-0.3-1.6,0.1c-0.6,0.4-1.2,0.9-1.6,1.7c-0.4,0.8-0.6,1.6-0.6,2.3c-0.1,0.6,0.1,1.3,0.6,1.7
				c0.4,0.3,0.9,0.3,1.6-0.1C202.9,285.9,203.4,285.4,203.7,284.7z M200.8,274.9c-0.4,0.6-0.5,1.3-0.5,2.1c0,0.5,0.1,1,0.5,1.4
				c0.4,0.3,0.8,0.3,1.3-0.1s1-0.8,1.3-1.4c0.3-0.6,0.5-1.3,0.5-2.1c0.1-0.5-0.1-1-0.5-1.4c-0.3-0.3-0.8-0.3-1.3,0.1
				S201.1,274.4,200.8,274.9z"/>
			<path class="st7" d="M240.5,249.5v14.9l2.1-1.2v2.9l-7.5,4.4v-2.9l2.1-1.3v-12.1l-2.3,1.3v-2.9L240.5,249.5z"/>
			<path class="st7" d="M255,242.9c0.9,0.9,1.4,3,1.4,6.2c0,6.1-1.9,10.4-5.7,12.4c-0.9,0.6-2.1,0.9-3.1,0.5
				c-0.8-0.4-1.3-1.3-1.3-2.9l2.6-1.8c0.4,1.3,0.9,1.7,1.8,1.3c1.4-0.8,2.2-3,2.3-6.5c-0.8,1.2-1.7,2.1-2.9,2.7
				c-0.9,0.6-2.1,0.8-3,0.3c-0.8-0.5-1.3-1.7-1.3-3.4c0-1.8,0.4-3.5,1.3-5.1c0.8-1.7,2.1-3,3.6-3.9
				C252.6,242.1,253.9,242.1,255,242.9z M253,249.9v-0.1c0-1-0.1-2.2-0.5-3.1c-0.4-0.8-0.9-0.9-1.7-0.4c-0.5,0.4-0.9,0.9-1.2,1.4
				c-0.3,0.8-0.4,1.6-0.4,2.5c0,0.6,0.1,1.3,0.5,1.8c0.4,0.4,0.8,0.4,1.4,0C251.9,251.3,252.5,250.6,253,249.9z"/>
			<path class="st7" d="M287.6,222.1c1.4-0.9,2.7-1,3.5-0.6c0.9,0.6,1.4,1.7,1.3,2.7c0,0.8-0.1,1.6-0.4,2.3
				c-0.3,0.8-0.5,1.4-0.9,2.1c-0.4,0.6-1,1.7-2.1,3.1c-1,1.4-2.1,3-2.9,4.5c-0.3,0.8-0.5,1.6-0.6,2.3l4.5-2.6v-2.3l2.5-1.4l-0.1,5.2
				l-9.8,5.7c0-1.3,0.1-2.6,0.3-3.8c0.3-1,0.6-2.1,1-3.1c0.6-1.3,1.3-2.6,2.1-3.9c0.9-1.3,1.7-2.7,2.3-4.1c0.4-0.6,0.5-1.6,0.5-2.3
				c0-0.4-0.1-0.8-0.4-1.2c-0.4-0.1-0.8-0.1-1,0.1c-0.6,0.4-1.2,1-1.4,1.7c-0.4,1-0.5,2.1-0.5,3.1l-2.8,1.4c0-1.4,0.1-2.9,0.6-4.3
				c0.4-1,1-2.1,1.8-3C285.9,223.3,286.7,222.7,287.6,222.1z"/>
			<path class="st7" d="M304.2,214.9c0.9,1,1.3,3.1,1.3,6c0.1,2.6-0.4,5.2-1.3,7.6c-0.8,1.9-2.1,3.5-3.9,4.7c-1.7,1-3.1,1-4-0.1
				c-0.9-1.2-1.4-3.1-1.4-6c-0.1-2.6,0.4-5.2,1.3-7.5c0.8-1.9,2.2-3.6,4-4.7S303.3,213.8,304.2,214.9z M301.7,227.3
				c0.3-1.4,0.3-2.9,0.3-4.3c0-1.6-0.1-3-0.4-4.4c-0.3-0.9-0.8-1.2-1.4-0.8c-0.8,0.6-1.3,1.4-1.4,2.5c-0.3,1.7-0.4,3.2-0.4,4.9
				c0,1.6,0.1,3,0.4,4.4c0.3,0.9,0.8,1.2,1.4,0.8C301.2,229.7,301.7,228.5,301.7,227.3z"/>
			<path class="st7" d="M46.4,401.9c1.6-0.9,2.6-1,3.5-0.6c0.9,0.6,1.4,1.7,1.3,2.7c0,0.8-0.1,1.6-0.4,2.3c-0.3,0.8-0.5,1.4-0.9,2.2
				c-0.4,0.6-1,1.7-2.1,3.1c-1,1.4-2.1,3-2.9,4.5c-0.3,0.8-0.5,1.6-0.6,2.3l4.5-2.6v-2.3l2.5-1.4l-0.1,5.2l-10,5.7
				c0-1.3,0.1-2.6,0.4-3.8c0.3-1,0.6-2.1,1-3.1c0.5-1,1.2-2.3,2.1-3.9c0.8-1.3,1.6-2.6,2.3-4c0.4-0.8,0.5-1.6,0.5-2.3
				c0-0.4-0.1-0.8-0.4-1.2c-0.4-0.1-0.8-0.1-1,0.1c-0.6,0.4-1,1-1.3,1.7c-0.4,1-0.5,2.1-0.5,3.2l-3,1.4c0-1.4,0.1-2.9,0.6-4.3
				c0.4-1,1-2.1,1.8-3C44.7,403.2,45.5,402.4,46.4,401.9z"/>
			<path class="st7" d="M59.1,394.6c1.4-0.8,2.6-1,3.5-0.6c0.9,0.6,1.4,1.7,1.3,2.9c0,0.8-0.1,1.6-0.4,2.3c-0.3,0.8-0.5,1.6-1,2.2
				c-0.4,0.6-1,1.7-2.1,3c-1,1.4-2.1,3-2.9,4.5c-0.3,0.8-0.5,1.6-0.6,2.3l4.5-2.6v-2.3l2.5-1.4l-0.1,5.2l-10,5.7
				c0-1.3,0.1-2.6,0.3-3.8c0.3-1,0.6-2.1,1-3.1c0.6-1.3,1.3-2.6,2.1-3.9c1.2-1.9,1.9-3.2,2.3-4.1c0.4-0.8,0.5-1.6,0.5-2.3
				c0-0.4-0.1-0.8-0.4-1c-0.4-0.3-0.8-0.1-1,0.1c-0.6,0.4-1,0.9-1.3,1.7c-0.4,1-0.5,2.1-0.5,3.2l-2.9,1.4c0-1.4,0.1-2.9,0.6-4.3
				c0.4-1,1-2.1,1.8-3C57.4,395.9,58.2,395.3,59.1,394.6z"/>
			<path class="st7" d="M93.3,375.2c1.4-0.9,2.6-1,3.5-0.6c0.9,0.6,1.4,1.7,1.3,2.7c0,0.8-0.1,1.6-0.4,2.3c-0.3,0.8-0.5,1.4-1,2.2
				c-0.4,0.6-1,1.7-2.1,3.1c-1,1.4-2.1,3-2.9,4.5c-0.3,0.8-0.5,1.4-0.6,2.3l4.5-2.6v-2.3l2.5-1.4l-0.1,5.2l-10,5.7
				c0-1.3,0.1-2.6,0.3-3.8c0.3-1,0.6-2.1,1-3.1c0.6-1.3,1.3-2.6,2.1-3.9c1.2-1.9,1.9-3.2,2.3-4c0.4-0.8,0.5-1.6,0.5-2.3
				c0-0.4-0.1-0.8-0.4-1.2c-0.4-0.3-0.8-0.1-1,0.1c-0.6,0.4-1,1-1.3,1.7c-0.4,1-0.5,2.1-0.5,3.2l-2.9,1.4c0-1.4,0.1-2.9,0.6-4.3
				c0.4-1,0.9-2.1,1.7-2.9C91.5,376.5,92.4,375.7,93.3,375.2z"/>
			<path class="st7" d="M105.6,368.1c1.6-0.9,2.7-1.2,3.5-0.8c0.8,0.4,1.3,1.3,1.3,2.7c0,2.1-0.9,4-2.3,5.4c1.9-0.4,2.8,0.5,2.8,2.6
				c0,1.7-0.5,3.4-1.4,4.8c-0.9,1.4-2.2,2.7-3.8,3.6c-3.4,1.9-5.1,1-5.3-2.6l3-2.1c0,2.1,0.8,2.7,2.1,1.9c0.6-0.4,1.2-0.9,1.4-1.7
				c0.4-0.6,0.5-1.4,0.5-2.2c0.1-0.6-0.1-1.2-0.5-1.6c-0.4-0.3-0.9-0.3-1.7,0.3c-0.1,0.1-0.4,0.3-0.6,0.4v-3.1
				c0.8-0.4,1.4-1,1.9-1.8c0.4-0.6,0.6-1.3,0.6-2.1c0-0.4-0.1-0.9-0.4-1.2c-0.4-0.1-0.9-0.1-1.2,0.1c-1.2,0.6-1.8,1.9-1.7,3.2
				l-3,1.4c0-1.6,0.5-3.1,1.4-4.5C103,370,104.2,368.8,105.6,368.1z"/>
			<path class="st7" d="M141.5,347.1c1.4-0.8,2.6-1,3.5-0.6c0.9,0.6,1.4,1.7,1.3,2.7c0,0.8-0.1,1.6-0.4,2.3
				c-0.3,0.8-0.5,1.4-0.9,2.2c-0.4,0.6-1,1.7-2.1,3.1c-1,1.4-2.1,3-2.9,4.5c-0.3,0.8-0.5,1.6-0.6,2.3l4.5-2.6v-2.3l2.5-1.4l-0.1,5.2
				l-10,5.7c0-1.3,0.1-2.6,0.4-3.8c0.3-1,0.6-2.1,1-3.1c0.6-1.3,1.3-2.6,2.1-3.9c1.2-1.9,1.9-3.2,2.3-4.1c0.4-0.8,0.5-1.6,0.5-2.3
				c0-0.4-0.1-0.8-0.4-1c-0.4-0.1-0.8-0.1-1,0.1c-0.6,0.4-1,1-1.3,1.7c-0.4,1-0.5,2.1-0.5,3.1l-2.9,1.4c0-1.4,0.1-2.9,0.6-4.3
				c0.4-1,1-2.1,1.8-3C139.8,348.2,140.6,347.6,141.5,347.1z"/>
			<path class="st7" d="M159.5,349.9l-1.6,0.9v2.3l1.3-0.8v2.6l-6.2,3.6V356l1.7-1v-2.3l-5.7,3.2c-0.3-0.6-0.5-1.3-0.8-1.8l6.6-14.8
				l3-1.8v10.8l1.6-0.9L159.5,349.9z M154.7,350.2V344l-3.9,8.4L154.7,350.2z"/>
			<path class="st7" d="M190.5,318.6c1.4-0.9,2.6-1,3.5-0.6c0.9,0.6,1.4,1.7,1.3,2.7c0,0.8-0.1,1.6-0.4,2.3c-0.3,0.8-0.5,1.4-1,2.2
				c-0.4,0.6-1,1.7-2.1,3.1c-1,1.4-2.1,3-2.8,4.5c-0.3,0.8-0.5,1.6-0.6,2.3l4.5-2.6v-2.3l2.5-1.4l-0.1,5.2l-10,5.7
				c0-1.3,0.1-2.6,0.3-3.8c0.3-1,0.6-2.1,1-3.1c0.6-1.3,1.3-2.6,2.1-3.9c1.2-1.9,1.9-3.2,2.3-4.1c0.4-0.8,0.5-1.6,0.5-2.3
				c0-0.4-0.1-0.8-0.4-1.2c-0.4-0.1-0.8-0.1-1,0.1c-0.6,0.4-1,1-1.3,1.7c-0.4,1-0.5,2.1-0.5,3.1l-2.9,1.4c0-1.4,0.1-2.9,0.6-4.3
				c0.4-1,1-2.1,1.8-3C188.8,319.7,189.5,319.1,190.5,318.6z"/>
			<path class="st7" d="M207.4,309v4.1l-2.3,1.3l-0.3-1.2l-4,2.3l-0.3,4.4c0.6-1,1.6-1.8,2.6-2.5c1.6-0.9,2.7-1,3.5-0.4
				c0.9,0.9,1.4,2.1,1.3,3.4c0,1.8-0.4,3.6-1.3,5.2c-0.9,1.7-2.3,3.1-4,4c-1.6,0.9-2.7,1.2-3.6,0.8c-1-0.5-1.6-1.6-1.6-2.7l3-2.1
				c0.3,1.6,0.9,2.1,2.1,1.4c0.6-0.4,1.2-1,1.6-1.7c0.4-0.8,0.5-1.7,0.5-2.5c0-2.1-0.6-2.7-2.1-1.9c-0.9,0.6-1.6,1.4-1.8,2.5h-2.5
				l0.4-9.3L207.4,309z"/>
			<path class="st7" d="M239.3,290.8c1.4-0.9,2.6-1,3.5-0.6c0.9,0.6,1.4,1.7,1.3,2.7c0,0.8-0.1,1.6-0.4,2.3c-0.3,0.8-0.5,1.4-1,2.2
				c-0.4,0.6-1,1.7-2.1,3.1c-1,1.4-2.1,3-2.7,4.5c-0.3,0.8-0.5,1.4-0.6,2.3l4.5-2.6v-2.3l2.5-1.4l-0.1,5.3l-10,5.7
				c0-1.3,0.1-2.6,0.4-3.8c0.3-1,0.6-2.1,1-3.1c0.6-1.3,1.3-2.6,2.1-3.9c1.2-1.9,1.9-3.4,2.3-4.1c0.4-0.8,0.5-1.6,0.5-2.3
				c0-0.4-0.1-0.8-0.4-1.2c-0.4-0.1-0.8-0.1-1,0.1c-0.6,0.4-1.2,1-1.4,1.7c-0.4,1-0.5,2.1-0.5,3.1l-2.9,1.4c0-1.4,0.1-2.9,0.6-4.3
				c0.4-1,1-2.1,1.8-2.9C237.6,292.1,238.4,291.3,239.3,290.8z"/>
			<path class="st7" d="M256,289.4c0.8,0.5,1.3,1.6,1.3,3.4c0,1.8-0.4,3.6-1.3,5.3c-0.8,1.4-1.9,2.7-3.5,3.5c-1.8,1-3.2,1.2-4.3,0.3
				c-1-0.9-1.4-3-1.4-6.1c-0.1-2.7,0.4-5.6,1.6-8c0.9-1.9,2.3-3.5,4.3-4.7c2.6-1.6,4-0.8,4.4,2.2l-2.6,1.8c-0.3-1.3-0.9-1.7-1.8-1.2
				c-0.8,0.5-1.4,1.4-1.7,2.3c-0.4,1.3-0.6,2.7-0.6,4c0.6-1.2,1.6-2.1,2.7-2.7C253.9,289,255,288.9,256,289.4z M253.7,297.3
				c0.3-0.8,0.5-1.7,0.5-2.5c0-0.9-0.1-1.6-0.5-1.8c-0.4-0.3-0.9-0.3-1.3,0.1c-0.8,0.5-1.4,1.2-1.9,1.8c-0.1,1.3,0.1,2.6,0.6,3.8
				c0.4,0.5,0.9,0.5,1.6,0.1C253,298.5,253.4,298,253.7,297.3z"/>
			<path class="st7" d="M288,263c1.4-0.9,2.6-1,3.5-0.6c0.9,0.6,1.4,1.7,1.3,2.7c0,0.8-0.1,1.6-0.4,2.3c-0.3,0.8-0.5,1.4-1,2.2
				c-0.4,0.6-1,1.7-2.1,3.1c-1,1.4-2.1,3-2.7,4.5c-0.3,0.8-0.5,1.6-0.6,2.3l4.5-2.6v-2.3l2.5-1.4l-0.1,5.3l-10,5.7
				c0-1.3,0.1-2.6,0.4-3.8c0.3-1,0.6-2.1,1-3.1c0.6-1.3,1.3-2.6,2.1-3.9c0.9-1.3,1.7-2.7,2.3-4.1c0.4-0.6,0.5-1.6,0.5-2.3
				c0-0.4-0.1-0.8-0.4-1.2c-0.4-0.3-0.8-0.1-1,0.1c-0.6,0.4-1,1-1.3,1.7c-0.4,1-0.5,2.1-0.5,3.1l-3,1.4c0-1.4,0.1-2.9,0.6-4.3
				c0.4-1,1-2.1,1.8-3C286.2,264.1,287.1,263.5,288,263z"/>
			<path class="st7" d="M305.5,253.1v2.2c-1,2.2-1.8,4.5-2.3,7c-0.6,2.6-1,5.2-1.2,7.8l1.9-1.2v2.9l-7.5,4.3v-2.9l1.9-1.2
				c0.1-2.3,0.6-4.7,1.3-7c0.6-2.6,1.6-5.1,2.6-7.5l-4,2.3v2.5l-2.5,1.4v-5.3L305.5,253.1z"/>
			<path class="st7" d="M46.4,442.5c1.6-0.9,2.6-1,3.5-0.6c0.9,0.6,1.4,1.7,1.3,2.7c0,0.8-0.1,1.6-0.4,2.3c-0.3,0.8-0.5,1.4-1,2.2
				c-0.4,0.6-1,1.7-2.1,3.1c-1,1.4-2.1,3-2.9,4.5c-0.3,0.8-0.5,1.6-0.6,2.3l4.5-2.6v-2.3l2.5-1.4l-0.1,5.2l-10,5.7
				c0-1.3,0.1-2.6,0.3-3.8c0.3-1,0.6-2.1,1-3.1c0.6-1.3,1.3-2.6,2.1-3.9c1.2-1.9,1.9-3.2,2.3-4c0.4-0.8,0.5-1.6,0.5-2.3
				c0-0.4-0.1-0.8-0.4-1.2c-0.4-0.1-0.8-0.1-1,0c-0.6,0.4-1.2,1-1.4,1.8c-0.4,1-0.5,2.1-0.5,3.1l-2.9,1.4c0-1.4,0.1-2.9,0.6-4.3
				c0.4-1,1-2.1,1.8-3C44.7,443.8,45.5,443,46.4,442.5z"/>
			<path class="st7" d="M62.7,435.2c0.9,0.9,1.4,3,1.4,6.2c0,6.1-1.9,10.2-5.7,12.4c-0.9,0.6-1.9,0.9-3,0.5
				c-0.8-0.4-1.3-1.3-1.3-2.9l2.6-1.8c0.3,1.3,0.9,1.8,1.8,1.3c1.4-0.8,2.2-3,2.3-6.5c-0.8,1.2-1.7,2.1-2.9,2.7
				c-0.9,0.6-1.9,0.8-3,0.3c-0.8-0.5-1.2-1.7-1.3-3.4c0-1.8,0.5-3.5,1.3-5.1c0.9-1.6,2.1-2.9,3.6-3.8
				C60.5,434.4,61.8,434.3,62.7,435.2z M60.9,442.1v-0.1c0-1-0.1-2.2-0.6-3.1c-0.3-0.5-0.8-0.8-1.4-0.6c-0.1,0-0.3,0.1-0.4,0.3
				c-0.5,0.4-0.9,0.9-1.2,1.4c-0.3,0.8-0.5,1.6-0.4,2.5c0,0.6,0.1,1.3,0.5,1.8c0.3,0.4,0.8,0.4,1.4,0
				C59.7,443.6,60.4,442.8,60.9,442.1z"/>
			<path class="st7" d="M93.2,416c1.6-0.9,2.7-1.2,3.5-0.8c0.8,0.4,1.3,1.3,1.3,2.7c0,2.1-0.9,4-2.3,5.4c1.9-0.4,2.9,0.5,2.9,2.6
				c0,1.7-0.5,3.4-1.4,4.8c-0.9,1.4-2.2,2.7-3.8,3.6c-3.4,1.9-5.2,1-5.4-2.6l3-1.9c0,2.1,0.6,2.7,2.1,1.9c0.6-0.4,1.2-0.9,1.4-1.6
				c0.4-0.6,0.5-1.4,0.5-2.2c0.1-0.6-0.1-1.2-0.5-1.6c-0.4-0.3-0.9-0.3-1.7,0.1L92,427v-3.2c0.8-0.4,1.4-1,1.9-1.8
				c0.4-0.6,0.6-1.3,0.6-2.1c0-0.4-0.1-0.9-0.5-1.2c-0.3-0.3-0.6-0.1-1.2,0.1c-1.2,0.6-1.8,1.9-1.7,3.4l-3,1.6
				c0-1.6,0.5-3.1,1.4-4.5C90.6,418,91.7,416.8,93.2,416z"/>
			<path class="st7" d="M110,408.8c0.9,1,1.3,3.1,1.3,6c0.1,2.6-0.4,5.2-1.3,7.6c-0.8,1.9-2.1,3.5-3.9,4.7c-1.7,1-3.1,1-4,0
				c-0.9-1-1.4-3.1-1.4-6c-0.1-2.6,0.4-5.2,1.3-7.5c0.8-1.9,2.2-3.6,4-4.7C107.8,407.6,109.1,407.6,110,408.8z M107.5,421.1
				c0.1-1.4,0.3-2.9,0.3-4.3c0-1.6-0.1-3-0.4-4.5c-0.3-0.9-0.8-1.2-1.4-0.8c-0.8,0.6-1.3,1.4-1.4,2.5c-0.3,1.6-0.4,3.2-0.4,4.9
				c0,1.6,0.1,3,0.4,4.4c0.3,0.9,0.8,1.2,1.3,0.8C106.9,423.4,107.5,422.2,107.5,421.1z"/>
		</g>
		<path class="st8" d="M346.8,28.5c9.8-5.7,17.9-1.2,18,10.2L365,78L29.4,271.9l-0.1-39.3c0-11.4,7.9-25.3,17.9-31L346.8,28.5z"/>
		<path class="st9" d="M195.5,128.4l0.1,34.1l-6.6,3.8v-20.5c0-2.2,0-4.7,0.3-7.5l-0.1,0.1c-0.4,2.3-0.6,4-0.9,5.1l-6.9,27.2
			l-5.4,3.1l-7.1-18.9c-0.4-1.4-0.8-2.9-0.9-4.3l-0.1,0.1c0.1,3.2,0.3,6.2,0.3,8.7v18.9l-6.1,3.5l-0.1-34.1l9.8-5.7l6.1,16.7
			c0.5,1.4,0.9,2.9,1,4.3l0.1-0.1c0.4-2.1,0.8-4,1.2-5.6l6-23.7L195.5,128.4z"/>
		<path class="st9" d="M251.3,96.2l-9.6,27.6v12.2l-6.7,3.9v-12.1l-9.5-16.7l7.6-4.4l4.8,10c0.1,0.3,0.4,1,0.6,2.3
			c0.3-1.3,0.5-2.3,0.8-3.1l4.8-15.7L251.3,96.2z"/>
		<path class="st9" d="M217.8,115.5l10.6,28l-7.3,4.1l-2.1-6.3l-10.5,6.1l-2.1,8.8l-7.3,4.1l10.8-40.4L217.8,115.5z M209.9,140.7
			l7.6-4.4l-3.2-9.6c-0.3-0.9-0.4-1.8-0.5-2.7l-0.1,0.1c-0.1,1.2-0.3,2.2-0.5,3.2L209.9,140.7z"/>
		<path class="st2" d="M328.3,575.3c28.5,0,51.6-13.3,51.6-29.8c0-16.5-23.1-29.8-51.6-29.8c-28.5,0-51.6,13.3-51.6,29.8
			C276.7,561.9,299.8,575.3,328.3,575.3z"/>
		<path class="st10" d="M368,350.3c0,0-1.4,21.9-4.3,25c-2.8,3.1-12.6,5.3-12.6,5.3l-7.5,12.3c0,0,6.9-39.1,8.3-40
			C353.3,352,368,350.3,368,350.3z"/>
		<path class="st11" d="M353.6,326.1c3.8-1.7,8.2-0.4,10.4,3.1c2.7,4.5,5.6,20.2,5.8,22.8c0,0-3.9,5.3-9.7,4.4L353.6,326.1z"/>
		<path class="st3" d="M331.4,544.5c-4,1.2-8.4,0.6-12-1.4c-3,0.1-18.8-6.7-20.9-1c-1.8,4.9,4.9,9.6,8.7,10.5c8,1.9,13.9,6,17.1,6.6
			c2.3,0.5,5.4,0.8,7.4-1C333.7,555.7,333.6,547.4,331.4,544.5z"/>
		<path class="st8" d="M324.2,557.7c-3.2-0.6-9.1-4.7-17.1-6.6c-3.1-0.8-8.3-4.1-8.9-8.2c-0.6,4.5,5.4,8.7,8.9,9.5
			c8,1.9,13.9,6,17.1,6.6c2.3,0.5,5.4,0.8,7.4-1c0.5-0.5,0.9-1.2,1-1.9C330.1,557.9,327,558.6,324.2,557.7z"/>
		<path class="st3" d="M356,536.8c-4,1.2-8.4,0.6-12-1.4c-3,0.1-18.8-6.7-20.9-1c-1.8,5.1,4.9,9.6,8.7,10.5c8,1.9,13.9,6,17.1,6.6
			c2.5,0.5,5.4,0.8,7.4-1C358.5,548.1,358.2,539.8,356,536.8z"/>
		<path class="st8" d="M348.8,550c-3.2-0.6-9.1-4.7-17.1-6.6c-3.1-0.8-8.3-4.1-8.9-8.2c-0.8,4.5,5.4,8.7,8.9,9.5
			c8,1.9,13.9,6,17.1,6.6c2.5,0.5,5.4,0.8,7.4-1c0.5-0.5,0.9-1.2,1-1.9C354.7,550.3,351.6,550.8,348.8,550z"/>
		<path class="st12" d="M357.7,492.2c-0.6-5.8-1.9-11.7-3.6-17.4c0,0,1-14.9,1.7-29.2c0.6-16.1,6.2-30.3,1.8-43.2l-49,10.9
			c0,0,2.3,64.3,3,72.1c0.4,6.1,1.2,12.1,2.2,18c2.3,12.4,4.8,40.3,4.8,40.3c5.2,3.1,13,0.5,13,0.5s0-34.9-0.3-43.9
			c-0.4-11-0.8-10.1-0.8-10.1l1.7-27.3l1-13.6c0,0,1.4,10,2.3,18.9c0.8,7.8,2.6,14.8,4.8,29.3c1.8,12.6,3.8,38.1,3.8,38.1
			c5.2,3.1,12.3,0.9,12.3,0.9S359.1,503.1,357.7,492.2z"/>
		<path class="st10" d="M350.8,326.3c-3.8,0.1-6.6,1.2-7.1,0c-0.4-1.9-0.6-3.9-0.9-6c0.4-1.2,0.8-2.3,0.8-2.3c4.8-3,6.2-8,6.9-14
			c1-10.2-4.4-19.2-14.6-20.2c-9.6-1-16.7,5.7-18.5,15c-1,4.5-3,13.2-0.3,20.7c1.6,4.1,3.5,7.5,5.4,8.2c1.9,0,3.8-0.3,5.7-0.5
			c0,0,0.5,2.9,0.9,4.7c0.4,1.8,0.3,2.7-3.4,5.1c-3.6,2.3,5.4,6.9,11.4,6.4c6-0.5,12.7-4,14.5-7.9
			C353.7,331.3,353.4,326.2,350.8,326.3z"/>
		<path class="st13" d="M345.4,326.9c1,2.6-1.6,5.8-8.7,8c-7.1,2.2-7.8-0.6-7.8-0.6s-10.4,4.8-13.7,7.1c-4.3,3-6.2,11.7-6.7,26.2
			c-0.6,16.8-0.8,41.9-0.1,46.1c0,0,7.9,7.9,18.1,7.1c10.2-0.8,27.3-9.8,31.5-16.8c-0.1-14.8-1.8-17.2,0.5-25.7
			c5.4-19.4,8.4-27.5,5.7-40.4c-2.2-10.6-5.3-12.1-9.5-11.9C351.5,326.1,348.5,326.5,345.4,326.9z"/>
		<path class="st10" d="M317.2,426.6l5.2-58.7l-10.9-5.8l-4.3,3.6l1.3,52.7v1.4l0.1,1.8c0,0-0.3,4.4,8.2,9.7c0,0,0.1-1.4,0.3-2.7
			L317.2,426.6z"/>
		<path class="st11" d="M318.6,337.7c-5.7-0.1-9.2,2.9-10.6,11.7c-1.4,8.8-2.2,15.8-2.2,15.8c2.6,2.9,6.2,4.7,10.1,4.9
			c6.9,0.8,8.8-2.7,8.8-2.7s0.8-9.1,1-15.2S325.5,337.9,318.6,337.7z"/>
		<path class="st8" d="M317.7,297.6c0,0-8.8-13.5,10.2-16.2c13.7-1.9,22.7,6.9,23.7,16.5c1,9.2-4.7,18.8-8.8,22.5
			c-1.9,0.8-6.3,1.2-11.9-1.4c-0.3-2.5-0.3-5.1-0.3-7.5C330.8,311.4,337.5,297.3,317.7,297.6z"/>
		<path class="st2" d="M185.4,648c28.5,0,51.6-13.3,51.6-29.8c0-16.5-23.1-29.8-51.6-29.8c-28.5,0-51.6,13.3-51.6,29.8
			C133.8,634.7,156.9,648,185.4,648z"/>
		<path class="st10" d="M151.7,425.6c-0.5,4.5-6,24-4.8,30.7c1.2,6.7,19.6,17.9,19.6,17.9l2.6-11.4l-10.2-10l2.7-18.9L151.7,425.6z"
			/>
		<path class="st11" d="M166,406.4c-3.8-1.7-8.2-0.4-10.2,3.1c-2.7,4.5-5.6,19.8-5.7,22.5c0,0,3.8,5.2,9.5,4.4L166,406.4z"/>
		<path class="st14" d="M187,623.5c4,1.2,8.3,0.6,11.9-1.4c2.9,0.1,18.4-6.6,20.6-1c1.8,4.9-4.9,9.5-8.6,10.4
			c-7.9,1.9-13.7,5.8-16.8,6.5c-2.3,0.5-5.4,0.8-7.3-1C184.5,634.7,184.8,626.5,187,623.5z"/>
		<path class="st15" d="M194.1,636.5c3.1-0.6,8.9-4.5,16.8-6.5c3-0.8,8.2-4,8.8-7.9c0.6,4.5-5.4,8.6-8.8,9.3
			c-7.9,1.9-13.7,5.8-16.8,6.5c-2.3,0.5-5.4,0.8-7.3-1c-0.5-0.5-0.8-1.2-1-1.9C188.1,636.7,191.2,637.4,194.1,636.5z"/>
		<path class="st14" d="M161.7,612.1c4,1.2,8.3,0.6,11.9-1.4c2.9,0.1,18.4-6.6,20.6-1c1.8,4.9-4.9,9.5-8.6,10.4
			c-7.9,1.9-13.7,5.8-16.8,6.5c-2.3,0.5-5.4,0.8-7.3-1C159.4,623.2,159.5,615.1,161.7,612.1z"/>
		<path class="st15" d="M168.8,625.2c3.1-0.6,8.9-4.5,16.8-6.5c3-0.8,8.2-4,8.7-7.9c0.6,4.5-5.3,8.6-8.7,9.3
			c-7.9,1.9-13.7,5.8-16.8,6.5c-2.3,0.5-5.4,0.8-7.3-1c-0.5-0.5-0.8-1.2-1-1.9C162.9,625.5,166,626,168.8,625.2z"/>
		<path class="st8" d="M161.4,569.9c0.6-5.8,1.9-11.5,3.6-17.1c0,0-1-14.8-1.6-28.6c-0.6-15.8-6.1-29.8-1.8-42.4l48.8,10.9
			c0,0-3,63.1-3.6,70.8c-0.4,6-1,11.9-2.1,17.8c-2.2,12.3-5.8,41.3-5.8,41.3c-5.2,3-11.9,1.3-11.9,1.3s0.4-36.9,0.8-45.7
			c0.4-10.8,0.8-10,0.8-10l-1.7-26.8l-1-13.3c0,0-1.3,9.8-2.2,18.5c-0.8,7.6-2.6,14.5-4.7,28.8c-1.8,12.3-4.7,37.1-4.7,37.1
			c-5.2,3-12.2,0.5-12.2,0.5S160,580.6,161.4,569.9z"/>
		<path class="st10" d="M168.6,406.7c3.8,0.1,6.5,1.2,7,0c0.4-1.9,0.6-3.9,0.9-5.8c-0.4-1-0.8-2.2-0.8-2.2
			c-4.7-2.9-6.2-7.9-6.7-13.7c-1-10.1,4.4-18.8,14.4-20c9.5-1,16.5,5.7,18.3,14.8c1,4.5,3,13,0.3,20.5c-1.6,4.1-3.5,7.4-5.3,8
			c-1.8,0-3.8-0.3-5.6-0.5c0,0-0.5,2.7-0.8,4.5c-0.3,1.8-0.3,2.7,3.4,4.9c3.6,2.2-5.4,6.7-11.3,6.2c-5.8-0.5-12.4-4-14.3-7.8
			C165.8,411.5,166,406.6,168.6,406.7z"/>
		<path class="st13" d="M173.9,407.2c-1,2.6,1.6,5.7,8.6,7.9c7,2.2,7.6-0.6,7.6-0.6s10.2,4.7,13.6,7c4.1,3,6.1,11.4,6.6,25.8
			c0.6,16.6,0.8,41.2,0.1,45.4c0,0-7.8,7.8-17.9,7c-10.1-0.8-26.9-9.7-31-16.6c0.1-14.5,1.8-16.8-0.5-25.3
			c-5.4-19.2-8.2-27.1-5.6-39.8c2.2-10.5,5.2-11.8,9.3-11.7C167.8,406.4,170.9,406.7,173.9,407.2z"/>
		<path class="st10" d="M226.1,460.9c-8.3,2.1-10.2-3.1-11.3-7.4c-2.6-10.4-4-19.8-6-25.7c-2.3-7-4.7-8-8-9.5
			c-4-1.6-7.4,1.8-6.1,10.6c1.6,10.5,3.6,17.9,7.5,30.3c1,3.2,3.4,8.9,6.7,11.8c4.3,3.4,10.6,3.2,20.3,0.9c4.1-1,8.7-3.5,16.5-7.1
			c2.1-1,3.8-1.7,7.8-3.5c4-1.8,7.6-4.5,10.4-8c2.1-3.1,2.3-4.5,1.9-5.2c-0.4-0.6-1.6-0.6-2.6,0.6c-1.7,2.2-3.6,4-6,5.4
			c0,0,2.6-2.7,4-4.4c1.3-1.6,2.3-3.2,3.1-5.1c0.8-1.8-0.8-4.1-1.9-3c-1.2,1.2-1.7,2.6-3.9,5.1c-1.2,1.4-2.3,2.6-3.8,3.6
			c1.3-1.8,2.5-3.6,3.5-5.7c0.9-1.6,1.4-3.4,1.3-5.1c0-0.9-1.4-2.1-2.6-0.3c-1.2,1.8-1.8,4-4.4,6.7c-1.8,1.9-3.5,3.1-3.5,2.6
			c0-0.5,1.2-1.6,1.8-3.9c0.6-2.3,0-4.7-1.3-4.9c-1.3-0.3-1-0.1-2.1,1.9c-1,2.1-2.6,3.8-3.8,6.7c-0.6,2.2-1.8,4.1-3.4,5.8
			C238.4,456.6,233.9,458.9,226.1,460.9z"/>
		<path class="st11" d="M197.7,416.9c5.4-0.8,9.3,1.7,11.8,10c2.5,8.3,4.1,15.2,4.1,15.2c-2.2,3.1-5.4,5.3-9.2,6.1
			c-6.6,1.6-8.9-1.6-8.9-1.6s-1.8-8.7-3-14.6C191.4,426,190.8,418,197.7,416.9z"/>
		<path class="st14" d="M201.1,378.4c0,0,8.7-13.2-10.1-15.9c-13.6-1.9-22.3,6.7-23.3,16.2c-1,9.1,4.7,18.4,8.6,22.2
			c1.9,0.6,6.2,1.2,11.8-1.4c0.3-2.5,0.3-4.9,0.3-7.4C188.3,392,181.8,378.2,201.1,378.4z"/>
	</g>
</g>
</svg>
