<?xml version="1.0" encoding="utf-8"?>
<!-- Generator: Adobe Illustrator 24.1.2, SVG Export Plug-In . SVG Version: 6.00 Build 0)  -->
<svg version="1.0"
	 id="svg2" xmlns:cc="http://creativecommons.org/ns#" xmlns:dc="http://purl.org/dc/elements/1.1/" xmlns:rdf="http://www.w3.org/1999/02/22-rdf-syntax-ns#" xmlns:svg="http://www.w3.org/2000/svg"
	 xmlns="http://www.w3.org/2000/svg" xmlns:xlink="http://www.w3.org/1999/xlink" x="0px" y="0px" viewBox="0 0 1920 1080"
	 style="enable-background:new 0 0 1920 1080;" xml:space="preserve">
<style type="text/css">
	.st0{clip-path:url(#SVGID_2_);}
	.st1{clip-path:url(#SVGID_4_);}
</style>
<g id="g10" transform="matrix(1.3333333,0,0,-1.3333333,0,1080)">
	<g id="g12" transform="scale(0.1)">
		<g id="g14">
			<g>
				<defs>
					<rect id="SVGID_1_" x="4.3" y="4.3" width="1.3" height="1.3"/>
				</defs>
				<clipPath id="SVGID_2_">
					<use xlink:href="#SVGID_1_"  style="overflow:visible;"/>
				</clipPath>
				<g id="g16" class="st0">
				</g>
			</g>
		</g>
		<g id="g22" transform="matrix(14400,0,0,8100,0,1.43331e-4)">
			
				<image style="overflow:visible;enable-background:new    ;" width="1920" height="1080" id="image24" xlink:href="4C10C84.png"  transform="matrix(5.208335e-04 0 0 -9.259261e-04 0 1)">
			</image>
		</g>
		<g id="g26">
			<g>
				<defs>
					<path id="SVGID_3_" d="M948.5,3257.1h-610c-25,0-45,22.5-45,47.5v1655c0,25,20,47.5,45,47.5h610
						c482.5,0,877.5-392.5,877.5-872.5C1826,3649.5,1431,3257.1,948.5,3257.1L948.5,3257.1z M923.5,4639.5h-240V3627h240
						c282.5,0,487.5,222.5,487.5,507.5C1411,4417,1206,4639.5,923.5,4639.5L923.5,4639.5z M2478.5,3257.1h-300
						c-25,0-47.5,22.5-47.5,47.5v1655c0,25,22.5,47.5,47.5,47.5h300c25,0,47.5-22.5,47.5-47.5v-1655
						C2526,3279.5,2503.5,3257.1,2478.5,3257.1z M3818.5,3817c-27.5,0-47.5,20-47.5,45v247.5c0,27.5,20,47.5,47.5,47.5H4321
						c25,0,45-22.5,45-47.5l2.5-672.5c0-12.5-10-32.5-20-40c0,0-257.5-162.5-620-162.5c-497.5,0-897.5,395-897.5,895
						c0,500,400,900,897.5,900c210,0,440-87.5,610-235c22.5-17.5,25-47.5,5-67.5L4146,4517c-20-17.5-47.5-17.5-67.5-2.5
						c-95,87.5-205,120-327.5,120c-272.5,0-492.5-230-492.5-505c0-272.5,222.5-497.5,495-497.5c72.5,0,147.5,10,222.5,40v145
						L3818.5,3817z M5058.5,3257.1h-300c-25,0-47.5,22.5-47.5,47.5v1655c0,25,22.5,47.5,47.5,47.5h300c25,0,47.5-22.5,47.5-47.5
						v-1655C5106,3279.5,5083.5,3257.1,5058.5,3257.1z M6513.4,4639.5h-357.5v-1335c0-25-22.5-47.5-47.5-47.5h-300
						c-25,0-47.5,22.5-47.5,47.5v1335h-357.5c-27.5,0-47.5,22.5-47.5,47.5v272.5c0,25,20,47.5,47.5,47.5h1110
						c27.5,0,47.5-22.5,47.5-47.5V4687C6560.9,4662,6540.9,4639.5,6513.4,4639.5L6513.4,4639.5z M8128.4,3257.1h-277.5
						c-45,0-65,15-87.5,62.5l-90,197.5h-680l-90-200c-12.5-30-40-60-90-60h-275c-37.5,0-57.5,32.5-42.5,65l782.5,1682.5
						c7.5,15,25,27.5,42.5,27.5h25c17.5,0,35-12.5,42.5-27.5L8170.9,3322C8185.9,3289.5,8165.9,3257.1,8128.4,3257.1L8128.4,3257.1z
						 M7333.4,4269.5h-2.5L7143.4,3857h380L7333.4,4269.5z M9363.4,3257.1h-940c-27.5,0-47.5,22.5-47.5,47.5v1655
						c0,25,20,47.5,47.5,47.5h297.5c25,0,47.5-22.5,47.5-47.5v-1335h595c27.5,0,47.5-22.5,47.5-47.5v-272.5
						C9410.9,3279.5,9390.9,3257.1,9363.4,3257.1L9363.4,3257.1z M11023.4,4729.5l-195-202.5c-17.5-17.5-45-17.5-62.5,0
						c-92.5,82.5-215,127.5-337.5,127.5c-282.5,0-490-235-490-515c0-277.5,210-507.5,492.5-507.5c117.5,0,245,42.5,335,120
						c17.5,15,50,15,65-2.5l195-207.5c17.5-17.5,15-50-2.5-67.5c-170-165-385-242.5-607.5-242.5c-500,0-902.5,397.5-902.5,897.5
						c0,500,402.5,902.5,902.5,902.5c250,0,435-77.5,605-232.5C11043.4,4779.5,11043.4,4749.5,11023.4,4729.5z M12730.9,3257.1
						h-277.5c-45.1,0-65.1,15-87.6,62.5l-90,197.5h-679.9l-90-200c-12.5-30-40-60-90-60h-275c-37.5,0-57.5,32.5-42.5,65
						l782.5,1682.5c7.5,15,24.9,27.5,42.5,27.5h24.9c17.6,0,35.1-12.5,42.6-27.5l782.4-1682.5
						C12788.3,3289.5,12768.3,3257.1,12730.9,3257.1z M11935.9,4269.5h-2.5l-187.5-412.5h380L11935.9,4269.5z M13630.8,3892h-262.5
						v-587.5c0-25-22.5-47.5-47.5-47.5h-295c-27.5,0-47.5,22.5-47.5,47.5v1655c0,25,20,47.5,47.5,47.5h602.5
						c307.5,0,560-250,560-552.5C14188.3,4144.5,13935.8,3892,13630.8,3892L13630.8,3892z M13605.8,4639.5h-237.5V4257h237.5
						c107.5,0,197.5,85,197.5,197.5C13803.3,4559.5,13713.3,4639.5,13605.8,4639.5z"/>
				</defs>
				<clipPath id="SVGID_4_">
					<use xlink:href="#SVGID_3_"  style="overflow:visible;"/>
				</clipPath>
				<g id="g28" class="st1">
					<g id="g34" transform="matrix(14400,0,0,8100,0,1.43331e-4)">
						
							<image style="overflow:visible;enable-background:new    ;" width="1920" height="1080" id="image36" xlink:href="4C10C83.png"  transform="matrix(5.208335e-04 0 0 -9.259261e-04 0 1)">
						</image>
					</g>
				</g>
			</g>
		</g>
	</g>
</g>
</svg>
