<?xml version="1.0" encoding="utf-8"?>
<!-- Generator: Adobe Illustrator 24.1.2, SVG Export Plug-In . SVG Version: 6.00 Build 0)  -->
<svg version="1.1" id="Layer_1" xmlns="http://www.w3.org/2000/svg" xmlns:xlink="http://www.w3.org/1999/xlink" x="0px" y="0px"
	 viewBox="0 0 402.5 472.6" style="enable-background:new 0 0 402.5 472.6;" xml:space="preserve">
<style type="text/css">
	.st0{opacity:0.5;fill:#C0C7A9;enable-background:new    ;}
	.st1{opacity:0.5;fill:#FFFFFF;enable-background:new    ;}
	.st2{fill:#DCE1CB;}
	.st3{fill:#3B4850;}
	.st4{fill:#0B1017;}
	.st5{fill:#242E61;}
	.st6{fill:#3A4B77;}
	.st7{fill:#C0C7A9;}
	.st8{fill:#FFFFFF;}
	.st9{fill:#FF984A;}
	.st10{fill:#B24D0D;}
	.st11{fill:#ACCDF4;}
	.st12{fill:#706F6F;}
	.st13{fill:#2D2856;}
	.st14{fill:#44598E;}
	.st15{fill:#D6EEEB;}
	.st16{fill:#FFAE80;}
	.st17{fill:#40274F;}
	.st18{fill:#9D9D9C;}
	.st19{fill:#808080;}
	.st20{fill:#FFD88F;}
	.st21{fill:#291933;}
	.st22{opacity:0.5;fill:#FFD88F;enable-background:new    ;}
	.st23{fill:#1D1D1B;}
	.st24{fill:#3C3C3B;}
	.st25{fill:#232323;}
	.st26{opacity:0.5;fill:#B24D0D;enable-background:new    ;}
	.st27{fill:#A1241D;}
	.st28{fill:#A1D4CD;}
	.st29{fill:#1D71B8;}
	.st30{fill:#F69A62;}
	.st31{fill:#B2B2B2;}
	.st32{fill:#B3B3B3;}
	.st33{fill:#999999;}
	.st34{fill:#F2F2F2;}
	.st35{fill:#C8E6E2;}
	.st36{fill:#6BD8EB;}
	.st37{opacity:0.25;enable-background:new    ;}
	.st38{fill:#575756;}
	.st39{fill:#444443;}
	.st40{fill:#382C2D;}
	.st41{fill:#3D5A55;}
	.st42{opacity:0.1;fill:#1D1D1B;enable-background:new    ;}
	.st43{fill:#4D4D4D;}
	.st44{fill:#7B7B7B;}
	.st45{fill:#666666;}
	.st46{opacity:0.5;fill:#FFBF86;enable-background:new    ;}
	.st47{opacity:0.5;fill:#FFAE80;enable-background:new    ;}
	.st48{fill:#F08534;}
</style>
<path class="st0" d="M204.4,392.2l39.3,22.6l36.7-21.1L241.2,371L204.4,392.2z"/>
<path class="st1" d="M213.1,271.6l36.2,20.8L219,310l-36.2-20.9L213.1,271.6z"/>
<path class="st0" d="M341.4,284.6l39.3,22.6l-83.8,48.4l-39.3-22.8L341.4,284.6z"/>
<path class="st1" d="M81.8,379.5c-11,6.3-11,16.6,0,22.9s28.7,6.3,39.7,0s11-16.6,0-22.9C110.7,373.2,92.9,373.2,81.8,379.5z"/>
<path class="st1" d="M176.6,411.4c-11,6.3-11,16.6,0,22.9s28.7,6.3,39.7,0s11-16.6,0-22.9S187.5,405,176.6,411.4z"/>
<path class="st1" d="M354.6,348.5c-11,6.3-11,16.6,0,22.9s28.7,6.3,39.7,0s11-16.6,0-22.9C383.5,342.1,365.7,342.1,354.6,348.5z"/>
<path class="st1" d="M266.9,438.9c-13.4,7.7-13.4,20.1,0,27.9c13.4,7.7,35.1,7.7,48.3,0c13.4-7.7,13.4-20.1,0-27.9
	C301.9,431.1,280.3,431.1,266.9,438.9z"/>
<path class="st1" d="M24.1,420.1c-11,6.3-11,16.6,0,22.9s28.7,6.3,39.7,0s11-16.6,0-22.9C53,413.7,35.2,413.7,24.1,420.1z"/>
<path class="st1" d="M157.6,347.1c21.6,0,39.1-10.1,39.1-22.5s-17.5-22.5-39.1-22.5s-39.1,10.1-39.1,22.5S136,347.1,157.6,347.1z"/>
<path class="st1" d="M17.7,362.8c-10.1,5.8-10.1,15.3,0,21.1s26.5,5.8,36.6,0s10.1-15.3,0-21.1C44.1,357,27.9,357,17.7,362.8z"/>
<path class="st2" d="M380.7,115.8L243.4,35.9v186.7l137.3,79.9V115.8L380.7,115.8z"/>
<path class="st3" d="M340.3,180.6c12.4-9.3,9.1-34.6-7.4-56.4c-16.4-21.9-39.8-32.1-52.2-22.8s-9.1,34.6,7.4,56.4
	C304.5,179.7,327.9,189.9,340.3,180.6z"/>
<path class="st4" d="M286.1,301.4c0,0-0.7,3.9-0.4,5.5c0.4,1.7,4.7,2.8,4.7,2.8s3.7,4.6,9,4.1c3-0.3,4.1-1.1,4.6-1.9
	c0.4-1,0-2.1-0.6-2.9c-0.6-0.8-4.6-2.3-6.2-4.8c-0.8-1.2-2.1-3.9-2.1-3.9l-0.1-1.4c-0.3-1.9-1.8-3.6-3.9-3.6
	c-2.8-0.1-4.8,2.1-4.7,4.7v0.8L286.1,301.4z"/>
<path class="st4" d="M270.1,309.7c-0.7,1.2-0.7,3.3-0.7,6.3c0.8,1.7,2.1,3,3.6,3.4c0,0,1.1,5.4,8.3,5.5c6.8,0.1,6.6-2.6,6.6-2.5
	c0,0,0-1.5-1.5-2.9c-1-0.8-4.6-3.9-5.4-5s-1.7-2.9-1.7-2.9l-0.3-4.8h-9.1L270.1,309.7z"/>
<path class="st5" d="M294.6,228.7l-13.1,15.6c0.7,5,1.7,14.8,2.9,19.5c-2.3,17.9-0.8,37.5,0.7,38.6c2.1,1.7,9,3.2,11.7-1
	c0,0-2.1-19.7,0.6-40L294.6,228.7z"/>
<path class="st6" d="M294.6,228.7c-0.1,7.2-1.7,10.9-8.8,14.8l-2.3,15.7l-1.7,11c-2.6,20.7-2.8,41.7-2.8,41.7
	c-3,4.3-11.6,2.5-11.9-0.3c-1.2-16.3-1.5-25.7,1.2-40c-1.5-8.6-2.5-18.6-1.7-26.6c-1.5-4.6-1.5-9.5-0.3-15.3c0.1,0,0.6-0.1,0.8-0.3
	c0.1,0,0.4-0.1,0.7-0.1c1-0.3,2.5-0.6,4.1-1c0.6-0.1,1.2-0.3,1.9-0.4c0.7-0.1,1.4-0.3,2.2-0.6c0.4-0.1,0.8-0.3,1.2-0.3
	c2.1-0.6,4.3-1.1,6.5-1.7c2.1-0.6,4-1,5.5-1.4c1.2-0.3,2.3-0.6,3.2-0.8c0.6-0.1,1-0.3,1.1-0.3l0.3-0.1h0.1c0,0.1,0,0.3,0,0.4
	s0,0.1,0,0.3c0,0.7,0,1.2,0.1,1.8C294.6,226.5,294.6,227.6,294.6,228.7z"/>
<path class="st7" d="M16.7,167.5L243.4,35.9v186.7L16.7,354.3V167.5z"/>
<path class="st8" d="M99.8,144.8L39.3,180v107.6l60.4-35.1V144.8H99.8z"/>
<path class="st3" d="M89.3,245.8v-37.4L49,231.7v37.5L89.3,245.8z"/>
<path class="st9" d="M69.1,172.8L49,184.5v35.9l20.1-11.7V172.8z"/>
<path class="st10" d="M93.7,158.7l-20.1,11.7v35.9l20.1-11.7V158.7z"/>
<path class="st8" d="M160.5,113L119,137.1v74.1l41.5-24.1V113z"/>
<path class="st9" d="M126.1,168.7v30.1l27.2-15.7v-30.2L126.1,168.7z"/>
<path class="st11" d="M153.3,146.2v-20.7l-27.2,15.9V162L153.3,146.2z"/>
<path class="st8" d="M219.5,79.9L177.8,104v74.1l41.7-24.2V79.9z"/>
<path class="st11" d="M185,148.5v17.3l27.3-15.9v-17.3L185,148.5z"/>
<path class="st9" d="M196.5,101.6l-11.5,6.6v35.5l11.5-6.6V101.6z"/>
<path class="st3" d="M201.1,99v35.5l11.3-6.6V92.4L201.1,99z"/>
<path class="st12" d="M192.8,293.7c0.6,0,1-0.4,1.1-1l2.8-27.7l18.1-10.4l2.6,23.5c0,0.6,0.6,1,1.1,1s1-0.6,1-1.1l-2.9-26.6
	L194.8,264l-2.8,28.7C191.7,293.1,192.1,293.7,192.8,293.7z"/>
<path class="st9" d="M220.9,212.4c-0.3-0.1-0.6-0.1-1,0.1c-0.7,0.4-1.2,1.2-1.4,2.1L215,248c-0.1,0.7-0.6,1.5-1.2,1.9L195,260.8
	c-1.4,0.8-2.6,2.8-2.6,4.4v0.4l25.1,14.5l23.5-15.7l4.7-37.5L220.9,212.4z"/>
<path class="st13" d="M218,308.3c0.6,0,1-0.4,1.1-1l2.8-27.7l18.1-10.4l2.6,23.5c0,0.6,0.6,1,1.1,1s1-0.6,1-1.1l-2.9-26.6L220,278.6
	l-2.8,28.7C216.9,307.8,217.3,308.2,218,308.3C217.9,308.3,217.9,308.3,218,308.3z"/>
<path class="st10" d="M217.9,280.2l25.1-14.5l3.5-37.7c0.1-1-0.6-1.4-1.4-1c-0.7,0.4-1.2,1.2-1.4,2.1l-3.4,33.4
	c-0.1,0.7-0.6,1.5-1.2,1.9l-18.8,10.9c-1.4,0.8-2.6,2.8-2.6,4.4v0.4h0.2V280.2z"/>
<path class="st4" d="M192.5,296.2c1.2,1.2,1.4,3.6,1,5.9c-1,1.4-1.4,2.1-3,2.5c0,0-1.9,0.7-3.7,1.7c-3.6,3.7-6.9,4.1-8.1,3.7
	c-4.1-1.5,0.3-5.1,1.5-5.9c0.4-0.3,5-4.6,5-4.6l1.1-1.7l-0.1-3.7l5.9-1.8L192.5,296.2z"/>
<path class="st6" d="M180.2,269c0.8,9.4,3.7,16.4,6.1,28.8c1.1,0.8,3.3,1.7,5,1.1c1-0.3,1.7-1,1.9-2.2c0.4-10.6,0.3-18.9-2.6-25.9
	c9-4,20.8-5.2,28.2-11.3c2.9-2.5,5-4.7,5.7-6.9c0.3-1.1,0.3-2.2-0.1-3.3c-0.3-0.6-0.7-1.1-1.1-1.8l-2.3-1.7l-10.1-1.4
	c-1.2,0.7-2.8,1.5-4.3,2.3C195.5,252.8,180.2,263.2,180.2,269z"/>
<path class="st14" d="M190.6,298.6c0,0,0.3,0.1,0.7,0.3c1-0.3,1.7-1,1.9-2.2c0.4-10.6,0.3-18.9-2.6-25.9c9-4,20.8-5.2,28.2-11.3
	c2.9-2.5,5-4.7,5.7-6.9l-0.1-3.3c-0.3-0.6-0.7-1.1-1.1-1.8l-2.3-1.7l-10.1-1.4c-1.2,0.7-2.8,1.5-4.3,2.3
	c-0.8,9.5-9.9,16.1-20.3,22.5C190,277.9,191.1,288,190.6,298.6z"/>
<path class="st4" d="M208.8,305.4c1.2,1.2,1.2,3.5,1,5.9c-1,1.4-2.2,2.2-3.9,2.6c0,0-5.7,5.4-11.2,4.6c-5.4-0.8,0-4.7,0-4.7l6.2-5.4
	l1.2-1.7v-3.6l5.9-1.8L208.8,305.4z"/>
<path class="st6" d="M193.9,275.9c0.8,9.4,6.1,18.5,8.4,30.9c2.1,1.7,4,1.9,5.4,0.1c0.4-0.4,0.8-1.1,1.1-1.8
	c0.4-10.6-0.4-20.1-3.3-27c9-4,16-7.9,23.5-13.9c5-4.3,4.7-11.7,1.2-15.7l-1-0.1h-0.1l-16.4,3.4c-0.8,1-1.8,2.1-2.8,3
	c-1.2,1.4-2.5,2.8-3.6,4.1C200.1,265.7,194.7,272.2,193.9,275.9z"/>
<path class="st14" d="M206.7,307.3l1.1-0.4c0.4-0.4,0.8-1.1,1.1-1.8c0.4-10.6-0.4-20.1-3.3-27c9-4,16-7.9,23.5-13.9
	c5-4.3,4.7-11.7,1.2-15.7l-1-0.1l-19.3,6.5c-1.2,1.4-2.5,2.8-3.6,4.1c2.1,0.3,6.8,0.4,16.4,0.3c-3.5,7.3-11.5,13.4-21.4,17.7
	C205.7,284.6,206.9,295.5,206.7,307.3z"/>
<path class="st13" d="M143.1,315.5c-8.7,5.1-8.7,13.2,0,18.2c8.7,5.1,22.9,5.1,31.6,0c8.7-5.1,8.7-13.2,0-18.2
	C166,310.4,151.9,310.4,143.1,315.5z"/>
<path class="st7" d="M143.1,313.1c-8.7,5.1-8.7,13.2,0,18.2c8.7,5.1,22.9,5.1,31.6,0c8.7-5.1,8.7-13.2,0-18.2
	C166,308.2,151.9,308.2,143.1,313.1z"/>
<path class="st13" d="M154,319.5c-2.8,1.5-2.8,4.1,0,5.7c2.8,1.5,7.2,1.5,9.8,0c2.8-1.5,2.8-4.1,0-5.7
	C161.2,318,156.8,318,154,319.5z"/>
<path class="st7" d="M154,317.7c-2.8,1.5-2.8,4.1,0,5.7c2.8,1.5,7.2,1.5,9.8,0c2.8-1.5,2.8-4.1,0-5.7
	C161.2,316.2,156.8,316.2,154,317.7z"/>
<path class="st13" d="M155.2,317c-2.1,1.2-2.1,3.2,0,4.4c2.1,1.2,5.5,1.2,7.6,0s2.1-3.2,0-4.4C160.6,315.9,157.3,315.9,155.2,317z"
	/>
<path class="st13" d="M164.3,284.3h-10.8v35.2h10.8V284.3z"/>
<path class="st13" d="M127.2,262.5c-17.5,10.1-17.5,26.5,0,36.6s45.8,10.1,63.3,0s17.5-26.5,0-36.6
	C173.2,252.3,144.8,252.3,127.2,262.5z"/>
<path class="st8" d="M127.2,259.9c-17.5,10.1-17.5,26.5,0,36.6s45.8,10.1,63.3,0s17.5-26.5,0-36.6
	C173.2,249.8,144.8,249.8,127.2,259.9z"/>
<path class="st15" d="M183.5,247.9c1.4-0.7,2.2-0.1,2.9,1.4c0.1-0.1,0.4-0.3,0.6-0.3c5-2.9,9.7-6.6,14.4-11l2.5-8.8l3.2-11l1.8-3.3
	l-3.2-2.3c-4.7-0.7-6.2,1.5-7.3,6.6l-4.3,15.5C190.4,237.5,186.8,242.2,183.5,247.9z"/>
<path class="st15" d="M186.8,249c5-2.9,9.7-6.6,14.4-11l2.5-8.8l-3.7-7.5c-1,6.2-3.5,10.5-3.7,16L186.8,249z"/>
<path class="st4" d="M216.1,205.6c9.4,3,7.3,11.9,4.8,18.8l-6.6-6.2L216.1,205.6z"/>
<path class="st15" d="M198.3,235v0.1c0.3,5.4,7.6,4.8,7.6,4.8l2.9,6.5c0.7,9.4,16.8,11.7,21.4,1.9c-3.3-4.6-3.3-4.6-3.6-7.7
	c0.3-0.8,0.4-1.7,0.7-2.5c1.5-6.2,0.8-11-1.9-16.4c-2.6-3.5-8.6-6.9-12.3-8.3l-10.9-0.3l-2.2,8C200.5,231.2,198.2,230.9,198.3,235z"
	/>
<path class="st16" d="M214.9,211.7c0.6,2.1,2.2,5.2,2.6,7.2c0.4,2.3-4,6.1-6.9,5.9c-2.1-0.4-2.6-3.2-2.9-5.5L214.9,211.7z"/>
<path class="st15" d="M213.3,213.2c0,0,1.8,14.4-5.1,13.1c-4.6-0.8-3.6-8.1-3.6-8.1L213.3,213.2z"/>
<path class="st16" d="M209.1,200.1c-6.9,1-9.1,5-8.4,10.5c0.1,4.6,3.9,10.8,6.6,10.6c3.9,0.3,5.7-4.3,9-9
	C218.7,204.4,215.4,199.1,209.1,200.1z"/>
<path class="st4" d="M200.8,210.7c1.4,1.5,3.7,2.3,6.6,3c2.5,1,4.8,1,5.7,2.2l2.8-1.1c2.8-3.3,3-12.6-1.8-14.5
	C206.4,197.2,197.2,205.1,200.8,210.7z"/>
<path class="st16" d="M213.2,214.6c0.4-1.7,1.7-2.8,2.6-1.8c0.4,0.4,0.4,1.2,0,2.3c-0.3,0.8-0.8,1.2-1.5,1.2
	C213.3,216.7,212.8,216,213.2,214.6z"/>
<path class="st15" d="M198.3,235.2c0.3,5.4,7.6,4.8,7.6,4.8l2.9,6.5c0.7,9.4,16.8,11.7,21.4,1.9c-3.3-4.6-3.3-4.6-3.6-7.7
	c0.3-0.8,0.4-1.7,0.7-2.5l-6.5-6.9l-3.7,8.4c-3,6.6-10.2,3.7-10.8-1.5C205.2,239.7,199.8,239.4,198.3,235.2z"/>
<path class="st9" d="M186.2,276.6l20.3-11.6l-13.5-8.1l-14.5-7l-20.8,10.5l15.6,7.7L186.2,276.6z"/>
<path class="st17" d="M174.7,269.4l-1.4-0.4l-1.5-1.1l0.1-0.6l1.2,0.7l1.4,0.8L174.7,269.4z"/>
<path class="st17" d="M171.9,268l-14.4-7v-0.7l14.4,7V268z"/>
<path class="st17" d="M174.6,269.5l11.6,7.9v-0.8l-11.6-7.7V269.5z"/>
<path class="st17" d="M174.6,269.5c0,0.8-2.6-0.7-2.6-1.5v-0.7c0,1,2.6,2.3,2.6,1.4V269.5z"/>
<path class="st17" d="M186.2,277.4v-0.8l20.3-11.6l-0.1,0.7L186.2,277.4z"/>
<path class="st8" d="M159.5,260.1l13.1,6.6l19-9.4l-13.2-6.6L159.5,260.1z"/>
<path class="st16" d="M186.2,248.7c0.4,1.1,0.4,2.3,0.6,3.2l-0.4,1.7l-1,1.7c-0.6,1-1.2,0.4-0.8-0.6l0.7-1.5V252l-2.2,2.3l-1.8,2.9
	c-0.7,0.7-0.8,0.4-1-0.3l-0.7,0.8c-0.6,0.7-1.2,0-1-0.6l-0.3,0.1c-0.6,0.7-1.2,0.1-0.8-0.7l0.3-0.6c-0.7,0.4-0.6-0.3,0-1.2l1.8-3.2
	c0.4-0.7,2.9-3.3,4.1-3.9C184.5,247.4,185.5,247.7,186.2,248.7z"/>
<path class="st16" d="M200.9,259.5c-0.6,1.8-1.7,2.6-3.6,4l-3.6,2.3c-1.1,0.3-1.1-0.1-0.8-0.8l-1.5,1c-1,0.6-1.8,0-1.4-0.8l-1,0.4
	c-1,0.3-1.2-0.3-0.4-1.2l0.6-0.6c-0.8,0.4-1.7,0-0.6-1.1c1.9-2.2,3.6-3.7,5.7-5.2c1.5-0.8,2.8-1,4.6-1.2l3-1l1.5,2.9L200.9,259.5z"
	/>
<path class="st15" d="M225.3,221.8c3.2,2.6,4,5.2,3.4,10.9c-1.4,12.8-6.6,21-6.6,21c-5.5,3-13.2,4.6-21.4,5.8
	c0.1-1.7-0.4-2.9-1.8-3.3c7.3-3.6,15.5-8.4,18.5-8.3c0.1-6.5,1.2-11.7,2.6-17.5C221.2,226.3,222.7,223,225.3,221.8z"/>
<path class="st10" d="M257.6,275.7l39.3,22.6v52.4l-39.3-22.6V275.7z"/>
<path class="st8" d="M341.4,227.3l39.3,22.8l-83.8,48.3l-39.3-22.6L341.4,227.3z"/>
<path class="st9" d="M380.7,302.5v-52.4l-83.8,48.3v52.4L380.7,302.5z"/>
<path class="st10" d="M375.9,253.2l-5-2.8V115.8l5,2.8V253.2z"/>
<path class="st18" d="M380.7,115.8l-4.8,2.8l-5-2.8l5-2.8L380.7,115.8z"/>
<path class="st9" d="M375.9,253.2l4.8-2.8V115.8l-4.8,2.8V253.2z"/>
<path class="st10" d="M154,434.2l-4.8-2.8V244.7l4.8,2.8V434.2z"/>
<path class="st18" d="M159,244.7l-5,2.8l-4.8-2.8l4.8-2.9L159,244.7z"/>
<path class="st9" d="M154,434.2l5-2.8V244.7l-5,2.8V434.2z"/>
<path class="st19" d="M243.4,35.9L16.7,167.5L154,247.4l226.7-131.7L243.4,35.9z M22.9,167.5l220.5-128l131.1,76.3L154,243.9
	L22.9,167.5z"/>
<path class="st8" d="M243.4,0L16.7,131.7L154,211.6L380.7,79.9L243.4,0z M22.9,131.7L243.4,3.6l131.1,76.3L154,208L22.9,131.7z"/>
<path class="st9" d="M380.7,115.8L154,247.4v-35.9L380.7,79.8V115.8L380.7,115.8z"/>
<path class="st8" d="M361.4,115v-10.8L201,197.3v10.8L361.4,115z"/>
<path class="st9" d="M243.4,39.5L53.8,149.6l-30.9-17.9L243.4,3.6V39.5z"/>
<path class="st10" d="M16.7,167.5L154,247.4v-35.9L16.7,131.6C16.7,131.6,16.7,167.5,16.7,167.5z"/>
<path class="st10" d="M243.4,39.5l100.2,58.4L374.5,80L243.4,3.6V39.5z"/>
<path class="st20" d="M356.9,259.3l5-0.6l-0.7-1.4L358,255L356.9,259.3z"/>
<path class="st21" d="M365,267.3l-10.3-17.1l-11,5.2l10.5,17.1L365,267.3z"/>
<path class="st8" d="M353.5,270.6l9.9-4.8l-9.1-14.9l-9.9,4.8L353.5,270.6z"/>
<path class="st16" d="M354.2,254.6l1.9-0.4c0.7,1.5,1.9,2.2,3.2,2.5l1.1,0.4c0.4-1,0.7-1.4,0.8-1.7c-0.1-1.4-1-2.6-1.8-2.9l-3-0.6
	l-3.7,1.4C352.7,254.2,353.1,254.6,354.2,254.6z"/>
<path class="st21" d="M353.1,269.9c0.1,0,0.1,0,0.3,0c0.3-0.1,0.6-0.4,0.6-0.7l-3.2-15c-0.1-0.3-0.4-0.6-0.7-0.6
	c-0.3,0.1-0.6,0.4-0.6,0.7l3.2,15C352.6,269.8,352.9,269.9,353.1,269.9z"/>
<path class="st16" d="M346.4,262.6c-0.1,0.6,0.3,1,0.3,1.4c0,0.1,0,0.4,0,0.7c0,0.1,0,0.4,0,0.6c0,1,2.2,2.3,2.9,2.9l2.9,1.4l3.5,3
	l0.7-1.1l1.7-2.5l-2.5-3c0.1-1.7,0.3-3-0.3-4.3l-1.4-1.7l-2.5-1.2l0.3,1.1c0,0-1-0.7-1.9-1.2c-0.4-0.3-1.2-0.4-1.7,0
	c-0.1,0.1-0.1,0.7-0.3,0.8c-0.1,0.3-0.8,0.6-0.8,0.8c-0.1,0.3,0.1,1,0,1.2C346.9,261.8,346.4,262.1,346.4,262.6z"/>
<path class="st22" d="M351.6,259l2.5,2.1l-2.3-1.4L351.6,259z"/>
<path class="st22" d="M346.5,264.8c0,0.1,0,0.4,0,0.6c0,1,2.2,2.3,2.9,2.9l2.9,1.4l3.5,3l0.7-1.1c-1.5-1-2.8-2.5-3.6-3.6
	C350.4,267.7,347.5,266.8,346.5,264.8z"/>
<path class="st15" d="M365.7,272.2c6.1,3.3,27.6,5.4,29.4-1.1c5.5-18.1,0.4-28.2-3.9-30.1C391.4,241,363.8,272.8,365.7,272.2z"/>
<path class="st4" d="M358,362.5c0-2.5,1.9-3.3,4.7-3.7c2.5,0,5.7,1.1,9.9,2.1l4.8,2.6c1,2.5,1,4.7,0.4,6.8c-1.4,1.2-3.2,1.9-4.7,1.5
	l-5.5-2.3l-0.4-0.8C362.8,368.2,358,366.3,358,362.5z"/>
<path class="st4" d="M375.8,352.7c0-1.9,1.8-2.3,4.4-2.5c4.8,0,5,2.3,9.4,2.3l4.3,2.6c0.8,2.5,0.7,5.2,0.1,7.3
	c-1.2,1.1-3.3,1.4-4.8,1.1l-4.4-2.6l-0.4-0.8C380.3,359.5,375.8,356.5,375.8,352.7z"/>
<path class="st23" d="M391.4,285.1l-16,6.6c0,2.9,0,5.5,0.3,7.5c1,7.3,4,18.5,4,18.5c2.1,9.4,3,21.1,3.4,33.5
	c0.1,4.4,6.8,8.3,10.9,4.1c1.2-15,1.2-29.7-2.3-39.5c1.7-7.6,0.1-16.3-0.4-25.1C391.6,289.7,390.9,285.3,391.4,285.1z"/>
<path class="st24" d="M362.4,307.9c0.6,7.3,2.9,18.5,2.9,18.5l1.7,33.4c-0.3,2.2,0.6,4,2.1,5.1c2.3,1.7,6.1,1.7,8.6-1.2
	c2.1-15,2.9-29.5-0.1-39.2c2.1-7.6,2.1-14.8,2.1-23.6c5-1.9,12.6-4.8,12.1-12.6c-0.1-2.9-0.6-5.8-1.2-8.6c-0.1-0.6-0.3-1.1-0.4-1.5
	c-0.1-0.4-0.3-0.8-0.4-1.2c-2.8,5.4-11.5,8.8-21,7.6c-0.4,0-0.8-0.1-1.2-0.1c-1-0.1-2.1-0.4-3-0.7c0,0-0.1,0.6-0.3,1.5
	c-0.1,0.8-0.3,1.8-0.4,2.9C362.9,293.7,362,302.9,362.4,307.9z"/>
<path class="st25" d="M362.4,307.9c0.6,7.3,2.9,18.5,2.9,18.5l1.7,33.5c-0.3,2.2,0.6,4,2.1,5.1c-1.5-14.1-2.1-27.3,0-37.5
	c-3.2-11.6-3.3-24.8,0.3-33.8c0-3.6-1.7-5.7-1-8.3c-1.4-0.4-2.6-1-4-1.5C364.3,283.7,361.7,300.6,362.4,307.9z"/>
<path class="st9" d="M391.1,277.4c-0.4,1.7-0.4,3.5,0,5.1c0.4,1.6,0.7,3,0.6,4.7c-3.2,4.4-11.2,8.4-19.5,7c-0.4-0.1-1.5-0.4-2.9-0.8
	c-0.1,0-0.1,0-0.3,0c-1-0.3-1.9-0.6-2.9-0.8c-0.1,0-0.3-0.1-0.4-0.1c-0.3-0.1-0.7-0.1-1-0.3c-0.4-0.1-0.7-0.3-1.1-0.3
	c-0.1,0-0.3-0.1-0.4-0.1c-0.1,0-0.3-0.1-0.3-0.1l0.4-6.9c-0.6-5.9-0.6-8.6-0.8-16c0-0.3,0-0.6,0-0.8c0-0.8,0.1-1.7-0.1-2.5
	c-2.6-10.2-0.8-11.3,1.9-13.1c8.8-5.5,15.7-12.7,27.2-11.5C400.1,249.2,391.2,276.6,391.1,277.4z"/>
<path class="st20" d="M368.9,237.4c-0.6-0.7,0.3-2.1,1-2.2c0.8-0.3,1.4,1,1.4,1.7c0.1,1,0,1.7-0.6,2.3c-0.6,0.8-1.5,0-1.8-0.7
	C368.7,238.1,369.3,237.8,368.9,237.4z"/>
<path class="st16" d="M382,241.7l-3.9-6.8l-10.6,5.2l4.1,7.6C375.5,247.7,383.4,244.1,382,241.7z"/>
<path class="st16" d="M371.1,243.4c0,0-1.2,2.5-3.5,0.6s-5.8-8.6-4.6-13.9c1.2-5.2,10.1,1.9,10.1,1.9L371.1,243.4z"/>
<path class="st4" d="M380.3,239c0,0-4.4,1.4-7.6,3.4c-0.8,0.6-1.8,0.4-2.6-0.1l-1.4-1.1l-1-2.9l-2.1-0.8l0.1-2.2
	c-1.2-0.3-2.2-1.2-3.2-2.3c-2.9-5,3.2-10.3,9.7-9.9C380.6,223.6,382.7,232.4,380.3,239z"/>
<path class="st16" d="M366.5,238.3c0-0.3-0.1-0.7,0-1c0-0.3,0.1-0.7,0.4-0.8c0.6-0.3,1.2,0,1.5,0.4c0.3,0.6,0.4,1.1,0.4,1.7
	c0,0.4,0,0.8,0.1,1.2c0,0.4,0,0.7-0.1,1.1c-0.1,0.3-0.4,0.7-0.8,0.7c-0.3,0-0.6-0.1-0.7-0.4c-0.1-0.3-0.3-0.4-0.3-0.7
	C366.8,239.9,366.7,239,366.5,238.3z"/>
<path class="st26" d="M369.3,293.5c-0.1,0-0.1,0-0.3,0c-1-0.3-1.9-0.6-2.9-0.8c-0.1,0-0.3-0.1-0.4-0.1c-0.3-0.1-0.7-0.1-1-0.3
	c-0.4-0.1-0.7-0.3-1.1-0.3c-0.1,0-0.3-0.1-0.4-0.1c-0.1,0-0.3-0.1-0.3-0.1l0.4-6.9c-0.6-5.9-0.6-8.6-0.8-16l7.6-6.3
	C372.5,273,372.5,281.3,369.3,293.5z"/>
<path class="st15" d="M362.1,254.1c-3.7,2.3-4,5-4,10.8l0.3,3.4l-2.8-2.6c-2.8-0.1-4,1.2-3.7,4.7c1,5.8,3.9,12.1,8.6,13.8
	c2.6,1,5.2-0.3,6.6-5.2l3.2-13C370.5,257.4,368.7,252.7,362.1,254.1z"/>
<path class="st15" d="M382.2,241.8l-1.1-1.5c-0.7,1.7-4.3,3.9-10.6,5.5l0.1,2.1C376.6,249,383.6,244.4,382.2,241.8z"/>
<path class="st15" d="M311.9,217.5l-6.2-17.3c-1-6.8-5.1-8.1-8.4-9.2l-2.3,12l2.3,4.7l7,14.4c1,2.2,2.1,4.4,3.3,6.6l6.8-5.7
	C313.4,221.2,312.7,219.3,311.9,217.5z"/>
<path class="st15" d="M304.7,216.8l-2.6-16.7l-5,7.5l7,14.4c1,2.2,2.1,4.4,3.3,6.6l1.5-1.2C307,223.7,305.7,220.1,304.7,216.8z"/>
<path class="st15" d="M302.9,203.8c0,16.7-10.8,27.3-10.8,27.9c-1,0.7-1.9,1.4-2.9,1.9c-16.6,10.5-22.5-4-22.5-4
	c0.7-5.5-1.5-9.4-0.6-17c0-0.3,0.1-0.7,0.1-1c0.8-7.3,5.7-13.2,12.8-15c1.9-0.6,3.7-1.4,5.1-2.8c3.7-3.4,6.6-4,12-3.4
	C300.8,193.1,302.8,197.8,302.9,203.8z"/>
<path class="st15" d="M289.2,233.6c-16.6,10.5-22.5-4-22.5-4c0.7-5.5-1.5-9.4-0.6-17c0.8-5.5,4.4-6.1,9.8-3.9l6.8,13.9L289.2,233.6z
	"/>
<path class="st27" d="M291.3,204.3l1,2.9l1.7-0.6v-3.3l-1.7-1.1L291.3,204.3z"/>
<path class="st9" d="M292.3,207.2c0.4,6.2,0.4,17.8,0,24.3l2.8,2.6l1.9-4.3c-0.4-6.3-1.7-17.3-2.9-23.2L292.3,207.2z"/>
<path class="st16" d="M287.6,190.2c-0.1,0-3.5,4-3.5,4c-4.3,2.5,1.2,11.5,7,10.6l4.8-3.5L287.6,190.2z"/>
<path class="st28" d="M285.1,192.9c-0.8,0.6-2.2,1.5-3.5,2.6c0,0,2.3,11,9.5,11.6c0.6-1.9,1.2-3.5,1.2-3.5
	C288.1,203.2,285.1,196.4,285.1,192.9z"/>
<path class="st28" d="M292.6,203.8l2.6,2.5c0,0,2.5-10.4,0.3-12.6C293.4,191.6,292.6,203.8,292.6,203.8z"/>
<path class="st15" d="M298.8,198.3c0,4.3-1.2,11.9-4.1,11.3c-4.1,0.7-5.7-11.3-4.1-14.6L298.8,198.3z"/>
<path class="st16" d="M294.8,179.3c-5.2,0-8.3,2.5-8.6,8c0.1,5.8,0.4,9.2,3.2,13.2c1.8,2.2,4.1,3.7,6.8,3.6c3.2-0.1,8-7.9,8.4-13.4
	C305.5,185.1,300.7,180.8,294.8,179.3z"/>
<path class="st4" d="M304,194.7c-1.2,2.8-8.1,2.3-11.3-1.1l-0.3,2.1l-2.8-2.3l-2.5,3.2l-0.8-1.2c-2.2-4.6-2.1-11.9,4.3-15.6
	C299,176.2,309.7,186.2,304,194.7z"/>
<path class="st16" d="M288.8,195.7c-0.3-0.6-0.7-1.2-0.7-1.8c0-0.7,0.1-1.4,0.6-1.8c0.6-0.4,1.4-0.6,1.8-0.1
	c0.4,0.3,0.6,0.8,0.6,1.2s-0.1,0.8-0.3,1.4c-0.1,0.4-0.3,0.8-0.4,1.2c-0.1,0.3-0.1,0.6-0.4,0.7s-0.6,0-0.7-0.1
	C289.2,196.3,289,196,288.8,195.7z"/>
<path class="st8" d="M298.1,258.1l15.6-9.1l22.2,12.8l-15.6,9.1L298.1,258.1z"/>
<path class="st23" d="M320.1,268.1l11.3-6.5l0.7,0.4l-11.3,6.5L320.1,268.1z"/>
<path class="st23" d="M318.4,267.2l11.3-6.5l0.4,0.1l-11.3,6.5L318.4,267.2z"/>
<path class="st23" d="M317.3,266.5l11.3-6.5l0.4,0.3l-11.3,6.5L317.3,266.5z"/>
<path class="st23" d="M316.1,265.8l11.3-6.5l0.4,0.3l-11.3,6.5L316.1,265.8z"/>
<path class="st23" d="M313.9,264.6l11.2-6.5l0.4,0.3l-11.2,6.5L313.9,264.6z"/>
<path class="st23" d="M312.8,263.9l11.2-6.5l0.4,0.3l-11.2,6.5L312.8,263.9z"/>
<path class="st23" d="M318.6,259.3l4.3-2.5l0.4,0.1l-4.3,2.5L318.6,259.3z"/>
<path class="st23" d="M310.5,262.6l11.3-6.5l0.4,0.3l-11.3,6.5L310.5,262.6z"/>
<path class="st23" d="M309.4,261.9l11.3-6.5l0.4,0.3l-11.3,6.5L309.4,261.9z"/>
<path class="st23" d="M310.9,259.9l8.7-5l0.4,0.1l-8.7,5L310.9,259.9z"/>
<path class="st23" d="M311.2,255.9l5.1-2.9l0.4,0.1l-5.1,2.9L311.2,255.9z"/>
<path class="st23" d="M310.1,255.2l5.1-2.9l0.4,0.3l-5.1,2.9L310.1,255.2z"/>
<path class="st29" d="M311.2,257.2c0,0.1,0,0.1,0,0.3s0.1,0.4,0.1,0.6c0.1,0.1,0.1,0.4,0.4,0.4c0.1-0.1,0-0.3,0-0.3
	c-0.1-0.1-0.1-0.3-0.3-0.4C311.5,257.5,311.5,257.4,311.2,257.2c0.1-0.3,0.4-0.6,0.8-0.7C311.6,256.7,311.3,256.8,311.2,257.2
	c0-0.1-0.1-0.3-0.1-0.3c-0.6-0.6-1.1-1.1-1.4-1.7c-0.1-0.3,0-0.6,0.1-0.8c0.1-0.2,0.6-0.6,1.1-0.4s0.6,0.6,0.6,0.8
	c-0.1,0.3-0.3,0.6-0.6,0.7c0.4-0.4,1-1,0.4-1.4c-0.3-0.1-0.6-0.3-1-0.1c-0.4,0.2-0.6,0.3-0.7,0.6c-0.3,0.6,0,1.1,0.6,1.7
	c0.3,0.3,0.6,0.6,0.8,0.8C311,257.1,311.2,257.1,311.2,257.2z M311.6,258.1c0.1,0.1,0.3,0.3,0.1,0.6c-0.1,0-0.1-0.1-0.3-0.3
	c0-0.1-0.1-0.1-0.1-0.3c-0.1-0.1-0.1-0.3-0.1-0.6v-0.1C311.5,257.5,311.6,257.8,311.6,258.1z"/>
<path class="st29" d="M306.9,259.3c0.8-0.1,1.2-0.7,1-1.1c-0.1,0-0.1,0-0.3,0c0.1-0.1,0-0.1,0-0.3s0-0.1,0-0.3
	c0.1,0.1,0.3,0.1,0.4,0.3c0.1,0,0.3,0,0.3,0c0-0.1,0-0.3,0-0.3c0.1,0.1,0.4,0.1,0.6,0s0.1-0.3,0-0.4c0.4,0.4,0.8,0.7,1.5,1.1
	c0-0.3-0.1-0.4-0.3-0.6c-0.3-0.3-0.4-0.4-0.6-0.7c-0.1-0.1-0.1-0.3-0.1-0.3c0-0.1-0.1-0.3,0-0.4c0,0.1,0.1,0.3,0.1,0.4
	c0.1,0.1,0.3,0.3,0.4,0.4c0.1,0.1,0.3,0.1,0.4,0.3c0.4,0.1,0.3-0.4,0.1-0.4c-0.1-0.3-0.4-0.4-0.7-0.7c-0.1-0.1-0.3-0.1-0.4,0
	l0.1-0.1c0.1,0,0.3,0,0.4,0.1c0.1,0.1,0.3,0.3,0.4,0.4c0.1,0.1,0.4,0.3,0.1,0.4c0.1-0.1,0.1-0.1,0-0.3c-0.1-0.2-0.3-0.3-0.4-0.4
	c-0.1-0.1-0.4-0.4-0.8-0.3c-0.1,0-0.1,0.1-0.1,0.1l-0.1,0.1c0,0.1,0,0.3,0.1,0.4c0.1,0.1,0.1,0.3,0.3,0.4c0.2,0.1,0.3,0.3,0.4,0.6
	c0.1,0.1,0.3,0.3,0.4,0.6c-0.7-0.4-1.2-0.8-1.7-1.2c0-0.1-0.1-0.1-0.1-0.3c0,0-0.1,0,0,0c0,0.1,0.1,0.1,0.3,0.3
	c0.2,0.2,0.1,0.3,0.1,0.4v0.1c-0.1,0.1-0.4,0-0.6,0c-0.1-0.1-0.3-0.3-0.4-0.4c0,0.1,0.1,0.3,0.3,0.3l0.1,0.1v0.1
	c0,0.1-0.1,0.1-0.3,0c-0.1,0-0.3-0.1-0.4-0.1c0,0.1,0,0.3,0,0.4s-0.3,0-0.3,0s0,0-0.1,0c0.1,0.1,0.4,0.1,0.7,0.1
	C308,258.6,307.6,259,306.9,259.3C306.8,259.3,306.9,259.3,306.9,259.3z M309.2,256.3c0.3-0.1,0.7,0.3,0.8,0.4s0.1,0.1,0.1,0.3v0.1
	c0,0.3-0.3,0.1-0.3,0.1c-0.3-0.1-0.6-0.4-0.7-0.6C309.4,256.6,309.4,256.4,309.2,256.3z"/>
<path class="st30" d="M293.7,253.4l2.1,2.1l3.5-5.4l-3-1.4L293.7,253.4z"/>
<path class="st16" d="M304.6,251.6c-0.3,0.7-0.4,1.5-0.1,2.5l-0.3,0.7l-0.3,0.7l-0.3,1.1c-0.3,0.3-0.6,0.4-1,0.4l-0.6,0.8
	c-0.1,0.1-0.4,0.3-0.8,0.1l-0.6,0.7c-0.4,0.3-1.4,0.1-2.6,0c-0.1,0-2.1-1-2.1-1s-0.7-0.3-0.7-0.7c-0.1-0.7,0-0.8,0-1.1
	c-0.1-0.3-0.6-0.6-0.6-1.2c0-0.8,0.6-0.8,0.6-1.2c0-0.3-0.3-0.4,0-1.2c0.1-0.7,1-0.7,1.2-1.1c0.1-0.3,0.3-1.1,0.8-1.7s1.8,0,1.8,0
	l1.4,0.8l3-0.4l0.3,0.1C304.6,250.1,304.8,250.9,304.6,251.6z"/>
<path class="st16" d="M301,250.2l2.2,0.3c0,0,0,2.3,0,2.2s-0.8-1-1.5-1.7C301.2,250.6,301,250.2,301,250.2z"/>
<path class="st23" d="M305.9,257.9l-8.7-11.3c-0.3-0.3-0.1-0.7,0.1-0.8c0.3-0.3,0.7-0.1,0.8,0.1l8.7,11.3c0.3,0.3,0.7,1.4,0.4,1.7
	C307,259,306.1,258.2,305.9,257.9z"/>
<path class="st16" d="M304.1,254.8l-0.3,0.7l-0.3,1.1c-0.3,0.3-0.6,0.4-1,0.4l-0.6,0.8c-0.1,0.1-0.4,0.3-0.8,0.1l-0.6,0.7
	c-0.4,0.3-1.4,0.1-2.6,0c0.8-1.4,1.4-2.9,1.5-4.4l-1.2-1.9l5,1.7L304.1,254.8z"/>
<path class="st16" d="M297.8,251.5l2.2,1.8l3,1c1.1,0.4,1.7-1,0.6-1.7c-0.1,0-2.3-1-2.3-1l-1.8-2.3
	C298.1,249.2,297.4,250.5,297.8,251.5z"/>
<path class="st16" d="M300.1,250.1l-1.4-0.1l2.3,1.8l-0.6-1.7L300.1,250.1L300.1,250.1z"/>
<path class="st31" d="M307.5,259l-0.3-0.3l0.1-0.1l0.1,0.3C307.6,258.9,307.6,258.9,307.5,259z"/>
<path class="st15" d="M271.3,204.1c4.3,0.3,6.3,2.8,7.6,9.7l4.1,17.4c4.8,4.1,9.1,10.1,14.1,17.9c-1.7,1.2-3,3.2-2.6,5.1
	c-8-4.8-14.6-10.8-19.7-18.6C269.9,222.7,263,208.4,271.3,204.1z"/>
<path class="st16" d="M327.3,247.9c0.4,0.8-0.4,1.7-1,1.1l-0.3-0.1c0.3,0.6-0.6,1.5-1.2,1l-0.8-0.7c0,0.8-0.3,1.2-1.1,0.7l-2.3-2.8
	l-2.8-2.1v1.5l0.8,1.5c0.4,1-0.4,1.8-1,1l-0.7-1.1l-0.4-0.6l-0.6-1.8c0-1,0.1-2.5,0.7-4l-1-0.7l2.8-1.9l1.4,0.8
	c1.5,0.1,4.6,2.3,5.1,3l2.2,3.2c0.7,0.8,0.7,1.8,0,1.4L327.3,247.9z"/>
<path class="st15" d="M307.5,228.7c2.5,4.8,5.5,9.5,8.8,14.1l0.8-1.1c0.8-1.1,1.8-1.8,2.8-1.9c-1-5-3.5-10.8-5.8-16.7L307.5,228.7z"
	/>
<path class="st15" d="M307.5,228.7c2.5,4.8,5.5,9.5,8.8,14.1l0.8-1.1c-3.3-4.8-6.1-9.7-8.3-14.2L307.5,228.7z"/>
<path class="st16" d="M324.8,249.7L324,249c0,0.8-0.3,1.2-1.1,0.7l-2.3-2.8l-2.8-2.1v1.5l0.8,1.5c0.4,1-0.4,1.8-1,1l-0.7-1.1
	c0.4,0.6,0.8,1,1.2,0.8c0.1-0.6-0.3-1.5-0.8-2.3c0.3-0.7,0.3-1.7,0.1-2.8c0.8,1.4,1.9,2.2,3.3,2.3c0.6,1.4,1.4,2.8,2.3,3.5
	c0.4,0,0.6-0.4,0.7-0.8c0.4,0.6,1,1,1.5,0.8l0.6-0.6C326.4,249.4,325.5,250.3,324.8,249.7z"/>
<path class="st8" d="M190.7,208.5c0,5.2-4.3,11.9-9.5,14.9s-9.5,1.2-9.5-4s4.3-11.9,9.5-14.9S190.7,203.3,190.7,208.5z"/>
<path class="st10" d="M241.5,371.5c-0.7-0.4-1.4-0.4-1.8-0.1L211.3,388c0.4-0.3,1.1-0.3,1.8,0.1l27.6,16l28.4-16.6L241.5,371.5z"/>
<path class="st32" d="M217.2,299.9l28.4-16.6c0.1-0.1,0.6-0.1,0.8,0.1L218,300C217.6,299.8,217.3,299.8,217.2,299.9z"/>
<path class="st9" d="M217.9,299.9l28.4-16.6c0.3,0.1,0.6,0.4,0.7,0.8c3.2,5.5,5.9,11.3,8.4,17.4c1.7,4,3,8.1,4.4,12.3
	c2.2,7.2,4,14.4,5.5,21.4c0.8,4,1.5,8,2.2,11.9c1.1,7,1.9,13.7,2.5,19.7c0.4,4,0.7,7.9,0.8,11.3c0.4,6.8,0.6,12.3,0.6,15.9
	L243,410.6c0-3.6-0.1-9.1-0.6-15.9c-0.1-3.5-0.4-7.3-0.8-11.3c-0.6-6.1-1.4-12.7-2.5-19.7c-0.6-3.9-1.4-7.9-2.2-11.9
	c-1.4-7-3.3-14.2-5.5-21.4c-1.2-4.1-2.8-8.1-4.4-12.3c-2.3-6.1-5.2-11.9-8.4-17.4C218.4,300.3,218.2,300.2,217.9,299.9z"/>
<path class="st7" d="M217.9,299.9c0.3,0.1,0.6,0.4,0.7,0.8c3.2,5.5,5.9,11.3,8.4,17.4c1.7,4,3,8.1,4.4,12.3c2.2,7.2,4,14.4,5.5,21.4
	c0.8,4,1.5,8,2.2,11.9c1.1,7,1.9,13.7,2.5,19.7c0.4,4,0.7,7.9,0.8,11.3c0.4,6.8,0.6,12.3,0.6,15.9l-32.6-18.8v-2.2
	c0-1.7,1.1-2.3,2.6-1.5l27.6,16c-0.1-3.6-0.3-7-0.6-10.5c-0.3-3.9-0.6-7.7-0.8-11.3c-0.7-6.9-1.5-13.4-2.3-19.5
	c-0.7-4.1-1.4-8.1-2.2-11.9c-1.7-7.7-3.5-14.6-5.4-20.7c-1.4-4.4-2.9-8.6-4.4-12.3c-1.9-5-4-9.2-6.1-13c-0.7-1.2-1.2-2.3-1.8-3.3
	c-0.1-0.4-0.3-0.7-0.3-1.1C216.9,299.9,217.3,299.6,217.9,299.9z"/>
<path class="st2" d="M231.1,315.8l21.3-12.4l2.8,0.3L233.9,316L231.1,315.8z"/>
<path class="st10" d="M233.9,316l3.6,12.1l-2.1-0.1c-1.2-4.1-2.8-8.1-4.4-12.3L233.9,316z"/>
<path class="st33" d="M240.8,347.9l21.3-12.4l2.6,1.1l-21.3,12.3L240.8,347.9z"/>
<path class="st2" d="M240.8,347.9l21.3-12.4l2.6,1.1l-21.3,12.3L240.8,347.9z"/>
<path class="st10" d="M243.4,348.9l1.7,11.6l-2.1-0.8c-0.6-3.9-1.4-7.9-2.2-11.9L243.4,348.9z"/>
<path class="st33" d="M245.6,380.9l21.3-12.4l2.5,1.2l-21.3,12.4L245.6,380.9z"/>
<path class="st2" d="M245.6,380.9l21.3-12.4l2.5,1.2l-21.3,12.4L245.6,380.9z"/>
<path class="st10" d="M248.1,382.1l0.6,11.2l-2.2-1.1c-0.1-3.5-0.4-7.3-0.8-11.3L248.1,382.1z"/>
<path class="st8" d="M247.8,292.3l-1.4-0.1l-14.2,8.3l7.2,24l1.4,0.1l14.2-8.1L247.8,292.3z"/>
<path class="st34" d="M233.6,300.6l14.2-8.3l7.2,24.1l-14.2,8.1L233.6,300.6z"/>
<path class="st8" d="M260.1,324.5l-1.5-0.6l-14.2,8.3l3.3,23.3l1.5,0.4l14.1-8.1L260.1,324.5z"/>
<path class="st34" d="M245.9,332.6l14.2-8.1l3.2,23.3l-14.1,8.1L245.9,332.6z"/>
<path class="st8" d="M265.9,359.8l-1.8-1l-14.2,8.3l1.2,22.1l1.8,1l14.2-8.3L265.9,359.8z"/>
<path class="st34" d="M251.7,367.9l14.2-8.1l1.2,22.1l-14.2,8.3L251.7,367.9z"/>
<path class="st11" d="M248.1,382.1l21.3-12.4l0.7,11.2l-21.4,12.4L248.1,382.1z"/>
<path class="st11" d="M243.4,348.9l21.3-12.3l1.7,11.6l-21.3,12.4L243.4,348.9z"/>
<path class="st11" d="M233.9,316l21.3-12.4l3.7,12.1l-21.4,12.4L233.9,316z"/>
<path class="st4" d="M194,409c0,0-0.7,3.9-0.4,5.5c0.4,1.7,4.8,2.8,4.8,2.8s6.2,5.8,11.5,5.4c3.2-0.3,4.1-1.1,4.7-1.9
	c0.6-1,0-2.1-0.6-2.9s-7-3.6-8.7-6.2c-0.8-1.2-2.1-3.9-2.1-3.9l-0.6-5l-8.6-0.4l0.4,5.8L194,409z"/>
<path class="st5" d="M186.4,347.5l5.4,27.3c-2.1,10.9-1.5,22.4,1.2,34.2c1.7,4.6,7.6,3.2,11.3,0c-1.1-8.8-1.2-19.2-1.1-30.1l1.1-7.2
	c0,0,0.8-3.7,0.8-17.5c0-7.2-4.1-22.6-4.1-22.6L186.4,347.5z"/>
<path class="st4" d="M175.1,418.6c-0.7,1.2-0.7,3.3-0.7,6.3c0.8,1.7,2.1,3,3.6,3.6c0,0,2.6,6.3,9.8,6.5c6.8,0.1,6.8-2.6,6.8-2.6
	s0-1.5-1.5-2.9c-1-0.8-5.9-4.8-6.9-5.9c-0.8-1.1-1.7-3-1.7-3l-0.3-5h-9.1L175.1,418.6L175.1,418.6z"/>
<path class="st6" d="M191,353.4c0,13.9,0.6,22.1-3.2,29.1c0,0-0.8,5.8-1.8,9.4c-1.1,3.7-0.8,19.9-0.4,29.4c-1.9,3.2-6.3,3.6-9.2,1.7
	c-1.1-0.8-2.1-1.9-2.5-3.4c-2.3-15-4-26.9,1.9-38c-1.9-9.7-1.7-19.2-1.1-29.8c-0.7-6.3,0.1-11.5,1.9-15.9c0.4-1.1,1-2.2,1.7-3.2
	l24.7,5.8C200.4,347.5,195.9,352.3,191,353.4z"/>
<path class="st14" d="M179.8,382.4c-7.6,7.7-5.4,22.8-3.5,40.4c-1.1-0.8-2.1-1.9-2.5-3.4c-2.3-15-4-26.9,1.9-38
	c-1.9-9.7-1.7-19.2-1.1-29.8c-0.7-6.3,0.1-11.5,1.9-15.9l8.6,9.7C176.8,350.9,175.1,369.6,179.8,382.4z"/>
<path class="st16" d="M208.8,337c-0.7,1.7-1.4,3.2-2.1,4.7c-0.6,2.2-1.5,4.3-2.8,6.3c-0.4,1.5,0.4,1.5,1.8,0.7l2.9-4.3
	c0.8,0.7,1.4,1.9,1.8,3.3l-0.8,6.5c0.1,1.2,0.7,1.1,1.4,0.4l1.1-5.9l0.1,6.3c0.4,0.6,0.8,0.4,1.1-0.6l0.4-1.8c0.3,0.7,0.7,0.6,1-0.1
	c0,0,0.3-7.7,0.3-7.9s-2.5-9-2.5-9l-1-1.9l-3.9,1.1L208.8,337z"/>
<path class="st15" d="M196.4,300.2c1.4,5.1,1,11.5,2.8,18.9c2.5,7.5,3.6,11.5,7,20c0.6,0.8,7.2-0.6,6.9-1.4
	c-3.6-16.4-1.5-11-3.7-18.1c-1-5.4-1.1-12.4-1.8-18.9c-0.4-4.3-2.1-6.6-4.3-7.7C198.2,291.2,193.5,295.3,196.4,300.2z"/>
<path class="st15" d="M203.4,328.6c0,0.1,0,0.3,0,0.4c-0.1,1.5-0.3,3.2-0.4,4.8c-0.1,0.7-0.1,1.2-0.3,1.9c0.7,3.4-4.4,6.3-10.1,8
	c-5.1,1.7-10.8,2.2-12.8,1.5c-4.6-1.7-6.1-6.1-6.1-6.1l-1-17.9l-0.1-1.5l-1.8-14.2c2.8-3.5,6.9-7,9.7-8.4c6.8-4.6,13-6.5,21.3-4.1
	C204.5,302,205.1,310.5,203.4,328.6z"/>
<path class="st35" d="M192.1,302.6l3.2,2.2c0,0,2.3-8.1,0.1-10.4C193.2,292.3,192.1,302.6,192.1,302.6z"/>
<path class="st16" d="M182.4,296l3.9-8l9.9,5l-1.4,6.2C192.9,306.5,181.2,302.2,182.4,296z"/>
<path class="st9" d="M193.7,306.9v-3.2l-1.7-1.1l-0.8,2.1l0.8,2.9c0.4,5.9,1.2,15.7,0.7,22.1l2.6,2.5l1.8-4.1
	C196.9,321.8,195,312.7,193.7,306.9z"/>
<path class="st28" d="M183.4,294.1l-2.1,2.5c0,0,3.3,9.5,9.4,9.5c0.8-1.9,1.4-3.5,1.4-3.5C187.7,302,183.4,297.4,183.4,294.1z"/>
<path class="st15" d="M203.3,329c-0.1,1.5-0.3,3.2-0.4,4.8c-0.1,0.7-0.1,1.2-0.3,1.9c0.7,3.4-4.4,6.3-10.1,8
	c-5.1,1.7-10.8,2.2-12.8,1.5c-4.6-1.7-6.1-6.1-6.1-6.1l-1-17.9l9.7-7.2c1.5,6.6,1.1,7.6,2.6,12.6c2.6,1.5,14.1-0.8,18.5,1.9
	C203.3,328.6,203.3,328.7,203.3,329z"/>
<path class="st15" d="M198.2,296.2c0.8,4.3,1.4,10.4-1.2,10.6c-1.7,0-5-3-6.5-8.3c-1.2-4.1-1-7.2-1-7.2L198.2,296.2z"/>
<path class="st16" d="M189.2,292.3l2.5,3.6c0.4,1,1.4,1.5,2.3,1.8c1.9,0.4,3.9,0.4,5.7,0.1c1-0.3,1.5-0.7,1.8-1.5s0.6-4.8,0.6-4.8
	s0.7-0.4,1-0.8c0.1-0.4,0.1-0.8-0.1-1.2c-0.3-0.3-1.8-3.2-1.8-3.2l0.7-2.9c-0.3-4.7-3-8-9.4-9.4c-5.5-1-9.1,1.7-10.2,7.5
	C181,288.7,183.3,291.5,189.2,292.3z"/>
<path class="st4" d="M183.7,291.2c0.8,0.7,1.7,1,2.6,1c0.6,0,1-0.3,1.1-0.8l1-2.8l2.5-0.1c0.4,0,0.7-0.4,0.7-0.8v-1.1
	c0-0.8,0.6-1.4,1.2-1.7c4-0.8,7.7-1.8,8.8-3.4c0.1-0.1,0.1-0.4,0.1-0.7c-1.2-7.6-16.8-12-19.9-0.8
	C180.6,284.4,181.2,288,183.7,291.2z"/>
<path class="st16" d="M187.7,287.2c-0.7,0.3-1.1,1-1.1,1.8c0,0.7,0.4,1.4,0.7,2.1c0.1,0.4,0.4,0.8,0.7,1.1s0.8,0.4,1.2,0.3
	s0.6-0.4,0.7-0.8s0.1-0.7,0.1-1.1c0-0.8,0-1.7-0.4-2.3C189.3,287.5,188.5,286.9,187.7,287.2z"/>
<path class="st16" d="M211.4,320.6c1.2,0.6,2.9,0.4,4.8-0.1l2.3-1.2c0.7,0.4,1.7-0.3,2.8-0.8c0.6-0.7,0.7-1.2,0.1-1.8
	c0.3-0.8,0.1-1.5-0.4-1.8c0.1-0.8,0-1.4-0.7-1.8c0-0.8-0.1-1.5-1-1.8l5.5-3.6c1.2-0.8,0.7-2.1-1-1.2l-10.6,6.1
	c-1.5,0.7-2.9,1.8-4,3.3l-2.5,3.4l3.4,3.7L211.4,320.6z"/>
<path class="st15" d="M212.4,321.8c-2.9,4-18.5,13-24,13c-7-5.4-8.6-6.1-16-14.4c-7.6-11.3-0.4-22.4,8.1-12.4
	c4.8,5.4,8,9.8,10.8,14.2c7.7-3,17.3-6.1,17.4-6.1C208.1,317.7,210.9,321.6,212.4,321.8z"/>
<path class="st16" d="M322.4,373.3l-0.3,3.6l-0.7,2.2l-1.5,2.9c-0.4,0.8-1.2,0.7-1.2-0.1l-0.8,1.4c-0.7,1.1-1.7,0.1-1.1-1l1.1-2.9
	L316,383c-0.8,1.1-1.8,0.4-1.4-1l1.5-4l-1.7,3c-0.6,0.7-1.7,0.3-1.4-1l1.8-5.1c0,0,0.3-1.1-0.1-1.9c-0.3-0.7-2.9,0.7-2.9,0.7
	c-1,0.6-1.8,1-2.3,1.4c-0.8,0.1-1.2-0.1-1.1-0.7l1.8-1.9l2.1-1.8l0.8-0.8c1.5-1,2.9-1.7,4-1.8l0.1-0.4l0.3-0.7l1.9,0.3l2.9,0.4
	l-0.1,2.2l0.1,1.1L322.4,373.3z"/>
<path class="st16" d="M314.4,372.6l4-1l2.1,3.6l-1.8,6.5c0-1.8,0.1-3.9-1-4.3l-1.9-0.3l1.7-1.1l-0.3-1.7l-3.5-0.6L314.4,372.6z"/>
<path class="st11" d="M313.5,324.6l1.2,14.2l1,11.9c0.8,6.9,1.8,12.4,1.2,16c0,0.4,0,0.7,0.1,1c0.3,0.8,1.1,1.7,2.2,2.2
	c0.8,0.4,1.9,0.8,3,1.1c1.7-7,3-13.8,2.5-19.3l-1.1-13.9C323.2,329.7,321.3,323.6,313.5,324.6z"/>
<path class="st16" d="M311.9,370.7l7.2-0.8c-1.1-0.6-1.9-1.2-2.2-2.2l-0.1,0.4c-1.1,0.1-2.5,0.8-4,1.8L311.9,370.7z"/>
<path class="st11" d="M315.7,350.7c0.8,6.9,1.8,12.4,1.2,16c0,0.4,0,0.7,0.1,1c0.3,0.8,1.1,1.7,2.2,2.2c0-0.8,0-1.8,0-2.6
	c0.4-13.2,4.4-24.3-0.1-30.4l-4.4,2.1L315.7,350.7z"/>
<path class="st23" d="M279.3,456.8c0-2.6,2.1-3.6,5-3.9c2.6,0,6.1,1.1,10.8,2.2l5.2,2.9c1,2.8,1,5.1,0.4,7.3
	c-1.5,1.2-3.3,2.1-5.1,1.7l-5.9-2.5l-0.4-0.8C284.5,463,279.3,460.8,279.3,456.8z"/>
<path class="st23" d="M298.5,446.3c0-2.1,1.9-2.5,4.7-2.8c5.1,0,5.4,2.6,10.1,2.5l4.7,2.8c1,2.8,0.7,5.7,0.1,7.9
	c-1.4,1.2-3.6,1.5-5.2,1.2l-4.8-2.8l-0.4-0.8C303.5,453.6,298.5,450.3,298.5,446.3z"/>
<path class="st23" d="M315.5,373.6l-17.1,7.2c0,3,0,5.9,0.3,8c1.1,7.9,4.3,19.9,4.3,19.9c2.3,10.2,3.2,22.8,3.7,36
	c0.1,4.8,7.2,9,11.7,4.4c1.2-16.1,1.2-31.9-2.5-42.4c1.8-8.3,0.1-17.4-0.4-26.9C315.9,379.7,314.9,373.9,315.5,373.6z"/>
<path class="st24" d="M302.6,390.6c0,9.5,0.1,17.1-2.2,25.4c3.2,10.4,2.3,25.9,0.1,42.1c-2.8,3-6.8,3-9.2,1.2
	c-1.7-1.1-2.6-3-2.2-5.5l-1.8-36c0,0-2.5-11.9-3.2-19.9c-0.7-7.9,2.2-25.9,2.2-25.9c1.5,0.4,3,0.7,4.6,1c10.2,1.2,19.6-2.3,22.5-8.1
	c0.1,0.4,0.3,0.8,0.4,1.2c1.1,3.5,1.8,7.2,1.9,10.9C316,385.4,307.9,388.5,302.6,390.6z"/>
<path class="st11" d="M284,342c0.8,5.2,0.8,10.4,1,15.2c0,1.8,0,3.6,0.1,5.4c0.1,3.3,0.4,6.6,1.2,9.7c1.5,0.7,2.9,1.2,4.3,1.7
	c8.8,2.8,16.8,1.4,23.2-7.6c1.5-3.7,5.8-16.4,6.9-29.7c0-6.1-1.9-10.3-7.2-11.7c-9.1,2.2-18.5,7.9-28,16
	C285,341.2,284.5,341.6,284,342z"/>
<path class="st16" d="M293.8,325.3l0.8,8.3c5.4,0,13.7-3.7,12.7-6.6l-2.8-5.4L293.8,325.3z"/>
<path class="st16" d="M291.3,326.4c2.1,2.3,5.4,2.1,8.6,1.2c4.7-2.2,8.1-5.5,7.7-11.6c0.4-4.6-1.7-9.2-9.4-9c-4.8,0.1-9,1.9-9.4,7.2
	C289,314.1,288.7,323.9,291.3,326.4z"/>
<path class="st36" d="M294.3,330.7l-1.9,4.4c9.1-1,17.4-4.4,15.3-8.7l-1.7-1.9C307.3,327.6,298.3,331.2,294.3,330.7z"/>
<path d="M289,312.9c0.4,1.8,1.5,3.2,3.2,4.3c0,0-0.4,4-0.1,4.1s2.3,1.9,2.3,1.9l1.1,3c3.6,2.6,9.1,0.7,10.8-1.8
	c1-1.2,2.1-6.2,1.8-10.9c-0.6-4-3.5-7.9-9.5-8.1C292.1,305.3,288.4,308.7,289,312.9z"/>
<path class="st16" d="M292.5,321.8c-0.6-0.7,0.3-2.2,1-2.3c1-0.3,1.4,1,1.5,1.8c0.1,1,0,1.7-0.6,2.5c-0.7,1-1.7,0-1.9-0.7
	C292.4,322.5,293,322.2,292.5,321.8z"/>
<path class="st37" d="M284.1,398c0.7,7.9,3.2,19.9,3.2,19.9l1.8,36c-0.3,2.3,0.7,4.3,2.2,5.5c-1.5-15.2-2.2-29.4,0-40.3
	c-3.5-12.4-5-25.5-1-35.2c0-3.9-0.4-7.3,0.4-10.1c-1.4-0.4-2.9-1-4.3-1.7C286.2,372.1,283.4,390.1,284.1,398z"/>
<path class="st38" d="M298.9,413.5c0-1.2-0.7-2.8-1.8-3.5l-28.8-18.8c-1.1-0.7-1.9-0.3-2.1,1l-0.4,7.6l-0.8,15
	c0,1.2,0.7,2.8,1.8,3.5l28.8,18.8c1.1,0.7,1.9,0.3,2.1-1l0.8-15L298.9,413.5z"/>
<path class="st38" d="M266.7,391.1l-2.2,1.8l30.4,46.2l2.2-1.7L266.7,391.1z"/>
<path class="st23" d="M296.4,415.4l-1.2,22.8c0,1.2-1,1.7-2.1,1l-28.8-18.8c-1.1-0.7-1.8-2.2-1.8-3.5l1.2-22.8c0-1.2,1-1.7,2.1-1
	l28.8,18.8C295.7,412.5,296.6,414.2,296.4,415.4z"/>
<path class="st39" d="M296.4,415.4L296,423c-0.1,2.5-1.9,3.3-4,2.1l-25.1-16.4c-2.1-1.4-3.6-4.4-3.5-6.9l0.4-7.6c0-1.2,1-1.7,2.1-1
	l28.8,18.8C295.7,412.5,296.6,414.2,296.4,415.4z"/>
<path class="st8" d="M280,421.2l-1.4-0.8c-0.4-0.3-0.8-1-0.8-1.7l0.3-6.3l3,2.1l-0.3,6.3C280.8,421.3,280.4,421.5,280,421.2z"/>
<path class="st8" d="M281.8,417.6l-4.6-2.9c-0.3-0.3-0.6-0.7-0.6-1.1v-1.2c0-0.4,0.3-0.6,0.7-0.3l4.6,2.9c0.3,0.3,0.6,0.7,0.6,1.1
	v1.2C282.5,417.6,282.1,417.7,281.8,417.6z"/>
<path class="st23" d="M277.5,394.4l-0.1,3.7l-1.9-0.1l0.1-2.5c0-0.4,0.3-0.8,0.6-1.2L277.5,394.4z"/>
<path class="st40" d="M277.1,397.7c0.4,0.3,0.3,0.6,0,0.8c-0.4,0.1-1,0.1-1.4-0.1c-0.4-0.2-0.3-0.6,0-0.8
	C276.1,397.5,276.8,397.5,277.1,397.7z"/>
<path class="st40" d="M278.9,398.3l-3-1.9l1.5-2.5l3,2.1L278.9,398.3z"/>
<path class="st41" d="M280.7,396.6c0,0.7-0.6,1.4-1.1,1.7s-1,0-1-0.7s0.6-1.4,1.1-1.7S280.8,395.9,280.7,396.6z"/>
<path class="st23" d="M277.6,394.6c0,0.1,0,0.4-0.1,0.6c-0.1,0.4-0.6,0.8-1,1.1c-0.3,0.1-0.6,0.1-0.7,0c-0.3-0.1-0.3-0.4-0.3-0.7
	c0-0.4,0.3-0.8,0.6-1.2c0.1-0.1,0.4-0.4,0.6-0.4c0.3-0.1,0.6-0.1,0.7,0h0.1C277.6,394.1,277.6,394.3,277.6,394.6z"/>
<path class="st16" d="M277.9,391.8l-2.5,5.2c-0.6,1.7-0.3,2.9,0.7,4c1.1,1.2,3,2.2,5.1,3l3.2-2.1l-0.3-3c1.5-1,1.5-3.2,0.6-5.9
	C282.5,391.4,280.3,390.8,277.9,391.8z"/>
<path class="st42" d="M284.5,397.3l-2.6,2.2l0.7,2.1l1-0.7c0.4,0.7,1,1,1.4,0.7l0.1-0.8L284.5,397.3z"/>
<path class="st43" d="M285.9,402.8l-3-1.9l1.5-2.5l3,2.1L285.9,402.8z"/>
<path class="st43" d="M287.7,401.2c0,0.7-0.6,1.4-1.1,1.7s-1,0-1-0.7s0.6-1.4,1.1-1.7S287.7,400.5,287.7,401.2z"/>
<path class="st23" d="M284.7,399.1c0,0.7-0.6,1.4-1.1,1.7s-1,0-1-0.7s0.6-1.4,1.1-1.7C284.3,398.3,284.7,398.6,284.7,399.1z"/>
<path class="st23" d="M285.9,402.8l-3-1.9l1.5-2.5l3,2.1L285.9,402.8z"/>
<path class="st23" d="M287.7,401.2c0,0.7-0.6,1.4-1.1,1.7s-1,0-1-0.7s0.6-1.4,1.1-1.7S287.7,400.5,287.7,401.2z"/>
<path class="st23" d="M285.8,401l-0.2,3.7l1.9,0.1l0.2-3.7L285.8,401z"/>
<path class="st23" d="M287.3,404.5c0.4,0.3,0.3,0.6,0,0.8c-0.4,0.1-1,0.1-1.4-0.1c-0.4-0.3-0.3-0.6,0-0.8
	C286.3,404.2,286.9,404.2,287.3,404.5z"/>
<path class="st11" d="M295,349.6l2.1,25.4l-9.1,13.2l-1.4-21.8L295,349.6z"/>
<path class="st11" d="M287.7,338.8c-4,2.5-5.8,3.9-5.9,11.7l1,21.1l-4.8,20c0.4,2.2,5.2,3.5,7,2.1c3.2-5.2,4.8-9.8,8.3-18.6
	l1.9-23.2C295.7,343.4,295.9,337.7,287.7,338.8z"/>
<path class="st10" d="M59.3,321.4c0.1,0,0.1-0.1,0.1-0.3c0-0.4-0.3-0.8-0.6-1c-0.1-0.1-0.3-0.1-0.4,0l-25.3,14.6
	c-0.1,0-0.1,0.1-0.1,0.4c0,0.4,0.3,0.8,0.6,1c0.1,0.1,0.3,0.1,0.4,0L59.3,321.4z"/>
<path class="st10" d="M59.3,272.2c0.1,0,0.1-0.1,0.1-0.3c0-0.4-0.3-0.8-0.6-1c-0.1-0.1-0.3-0.1-0.4,0l-25.3,14.6
	c-0.1,0-0.1,0.1-0.1,0.4c0,0.4,0.3,0.8,0.6,1c0.1,0.1,0.3,0.1,0.4,0L59.3,272.2z"/>
<path class="st44" d="M55.1,254.2h-1.8l-19.9,11.5l11,33.4h1.7L66,287.5L55.1,254.2z"/>
<path class="st9" d="M35.2,265.8l19.9-11.6L66,287.5l-19.9,11.6L35.2,265.8z"/>
<path class="st8" d="M37.2,266.5l16.8-9.8l9.9,30.1l-17,9.8L37.2,266.5z"/>
<path class="st13" d="M33.4,265.7l19.9-11.5h1.8l-19.9,11.6L33.4,265.7z"/>
<path class="st13" d="M35.2,265.8l10.9,33.3h-1.7l-11-33.4L35.2,265.8z"/>
<path class="st44" d="M55.1,304.2h-1.8l-19.9,11.5l11,33.4h1.7L66,337.5L55.1,304.2z"/>
<path class="st9" d="M35.2,315.8l19.9-11.6L66,337.5L46.1,349L35.2,315.8z"/>
<path class="st8" d="M37.2,316.4l16.8-9.8l9.9,30.1l-17,9.8L37.2,316.4z"/>
<path class="st13" d="M33.4,315.6l19.9-11.5h1.8l-19.9,11.6L33.4,315.6z"/>
<path class="st13" d="M35.2,315.8l10.9,33.3h-1.7l-11-33.4L35.2,315.8z"/>
<path class="st13" d="M19.4,365.4c-7.5,4.3-7.5,11.3,0,15.7c7.5,4.3,19.6,4.3,27.2,0c7.5-4.3,7.5-11.3,0-15.7
	C39.2,361.2,27,361.2,19.4,365.4z"/>
<path class="st8" d="M19.4,363.5c-7.5,4.3-7.5,11.3,0,15.7c7.5,4.3,19.6,4.3,27.2,0c7.5-4.3,7.5-11.3,0-15.7
	C39.2,359.2,27,359.2,19.4,363.5z"/>
<path class="st13" d="M30.3,370.5c-1.5,0.8-1.5,2.2,0,3s3.9,0.8,5.2,0c1.5-0.8,1.5-2.2,0-3C34.2,369.7,31.9,369.7,30.3,370.5z"/>
<path class="st2" d="M30.3,369.6c-1.5,0.8-1.5,2.2,0,3s3.9,0.8,5.2,0c1.5-0.8,1.5-2.2,0-3C34.2,368.8,31.9,368.8,30.3,369.6z"/>
<path class="st45" d="M31.7,370c-0.8,0.4-0.8,1.1,0,1.7c0.8,0.4,2.1,0.4,2.8,0c0.8-0.4,0.8-1.1,0-1.7
	C33.7,369.6,32.4,369.6,31.7,370z"/>
<path class="st13" d="M31,238.6V371c0,0.3,0.3,0.6,0.6,0.7c0.8,0.4,2.1,0.4,2.8,0c0.3-0.1,0.6-0.4,0.6-0.7V238.6H31z"/>
<path class="st13" d="M31.7,237.8c-0.8,0.4-0.8,1.1,0,1.7c0.8,0.4,2.1,0.4,2.8,0c0.8-0.4,0.8-1.1,0-1.7
	C33.7,237.4,32.4,237.4,31.7,237.8z"/>
<path class="st10" d="M32.6,311.8c0.1,0,0.1-0.1,0.1-0.3c0-0.4-0.3-0.8-0.6-1c-0.1-0.1-0.3-0.1-0.4,0L6.4,325.1
	c-0.1,0-0.1,0.1-0.1,0.4c0,0.4,0.3,0.8,0.6,1c0.1,0.1,0.3,0.1,0.4,0L32.6,311.8z"/>
<path class="st10" d="M32.6,262.5c0.1,0,0.1-0.1,0.1-0.3c0-0.4-0.3-0.8-0.6-1c-0.1-0.1-0.3-0.1-0.4,0L6.4,275.8
	c-0.1,0-0.1,0.1-0.1,0.4c0,0.4,0.3,0.8,0.6,1c0.1,0.1,0.3,0.1,0.4,0L32.6,262.5z"/>
<path class="st44" d="M21.7,297.7h-1.8L0,309.2l10.9,33.4h1.8L32.6,331L21.7,297.7z"/>
<path class="st9" d="M1.8,309.3l19.9-11.6L32.6,331l-19.9,11.6L1.8,309.3z"/>
<path class="st8" d="M3.7,310l17-9.8l9.8,30.1l-17,9.8L3.7,310z"/>
<path class="st13" d="M0,309.1l19.9-11.5h1.8L1.8,309.3L0,309.1z"/>
<path class="st13" d="M1.8,309.3l10.9,33.3h-1.8L0,309.2L1.8,309.3z"/>
<path class="st44" d="M21.7,247.7h-1.8L0,259.2l10.9,33.4h1.8L32.6,281L21.7,247.7z"/>
<path class="st9" d="M1.8,259.3l19.9-11.6L32.6,281l-19.9,11.6L1.8,259.3z"/>
<path class="st8" d="M3.7,260l17-9.8l9.8,30.1l-17,9.8L3.7,260z"/>
<path class="st13" d="M0,259.2l19.9-11.5h1.8L1.8,259.3L0,259.2z"/>
<path class="st13" d="M1.8,259.3l10.9,33.3h-1.8L0,259.2L1.8,259.3z"/>
<path class="st16" d="M52.2,276.6c-0.1,0-0.3,0-0.3,0h-0.3h-0.3l-1.4,0.1l-1.7,0.6c-0.6,0.3-1.2,0.7-1,1.1c0.3,0.7,0.8,0.6,1.4,0.1
	c0.6,0,1,0,1.5-0.3c0.4,0.1,1,0.1,1.5,0c0.1,0,0.4-0.1,0.6-0.1v-0.4v-0.1v-0.4V276.6z"/>
<path class="st16" d="M48.3,282.5c0.3,0.3,0.7,0.3,1.2,0c0.4,0.1,1,0,1.5,0c0.6,0.3,1.2,0.4,1.9,0.4c0.1,0,0.1,0,0.3,0v-0.3v-1.4
	l-1.1-0.1l-1-0.1l-1.7,0.1c-0.7,0.1-1.4,0.6-1.4,1C48.3,282.2,48.3,282.4,48.3,282.5z"/>
<path class="st16" d="M52.2,278.1H50l-1.7,0.4c-0.6,0.3-1.2,0.6-1.1,1c0.1,0.7,0.7,0.6,1.4,0.3c0.6,0,1,0,1.5-0.1
	c0.7,0.1,1.4,0.1,2.1,0V278.1z"/>
<path class="st16" d="M47.9,281.4c0.3,0.1,0.7,0,1.1-0.3c0.1,0,0.3,0,0.4,0c0.4,0,0.7,0,1.1-0.1c0.7,0.1,1.4,0.1,2.1,0v-1.5h-2.2
	l-1,0.1H49h-0.3c-0.7,0.3-1.2,0.7-1.1,1.1C47.6,281.3,47.7,281.4,47.9,281.4z"/>
<path class="st16" d="M52,276.6c-0.1,0.3-0.1,0.6-0.1,1c0,0.3,0,0.6,0,0.8c0,1,0.1,1.9,0.3,2.9c0.1,0.7,0.4,1.2,0.7,1.5
	c0.1,0.1,0.1,0.3,0.3,0.3c1.1,0.8,3,1.1,4.8,1.1c0.8-0.1,1.4-0.4,1.8-0.8l2.6,0.1c-0.4,0-0.7-0.4-1.1-0.8c-0.8-1.2-0.4-3,0.7-3.7
	l-2.3-0.4l-3.3-0.8l-4.1-1.1C52,276.6,52,276.6,52,276.6z"/>
<path class="st16" d="M49.5,282.2c0.6,0.1,1,0.1,1.4-0.1c0.6,0.3,1.1,0.6,1.8,0.6c0.1,0,0.4,0,0.6,0c0,0-0.7-3.7-0.6-3.7
	c0.1,0.1,1,3.9,1.1,4c0.7,0.3,1.5,0.6,2.5,0.6c1.2,0.1,2.2-0.3,3-1.1l1.9,0.3c0.3,0.4,0.7,0.8,1.1,0.8l-2.6-0.1
	c-0.3,0.4-1,0.6-1.8,0.8c-1.8,0-3.7-0.3-4.8-1.1c-0.7,0-1.4-0.3-1.9-0.4c-0.6,0.1-1,0.1-1.5,0c-0.6,0.3-1.1,0.3-1.2,0
	C48.7,282.6,49.3,282.5,49.5,282.2z"/>
<path class="st16" d="M51.7,276.6l4.6,1c0.3,0.6,0.4,1.1,0.7,1.7c0.1,0.4,0,1.4,0.4,1.5c-0.3,0.1-1-0.1-1.1-0.3
	c-0.3-0.1-0.6-0.4-0.7-0.7c-0.3-0.4-0.6-1.2-1-1.5C53.1,277.3,52.2,278.1,51.7,276.6z"/>
<path class="st16" d="M52.3,277.1c0.3,0.1,0.6,0.3,1,0.1h1.1l1,0.4c0,1.4,1.4,2.9,1.9,3.3c0.3,0.1,0.4,0.1,0.7,0.1
	c0.8-0.1,1.5-1.1,1.9-2.5l-0.7-0.7l-2.5-1.9l-2.3-0.3c-0.7,0.3-1.4,0.4-2.2,0.4c-0.3,0-0.4,0.1-0.4,0.4c0,0,0,0.1,0,0.3
	C51.7,276.7,52,277,52.3,277.1z"/>
<path class="st16" d="M52.2,276.6c-0.1,0-0.3,0-0.3,0h-0.3h-0.3l-1.4,0.1l-1.7,0.6c-0.6,0.3-1.2,0.7-1,1.1c0.3,0.7,0.8,0.6,1.4,0.1
	c0.6,0,1,0,1.5-0.3c0.4,0.1,1,0.1,1.5,0c0.1,0,0.4-0.1,0.6-0.1v-0.4v-0.1v-0.4V276.6z"/>
<path class="st16" d="M48.3,282.5c0.3,0.3,0.7,0.3,1.2,0c0.4,0.1,1,0,1.5,0c0.6,0.3,1.2,0.4,1.9,0.4c0.1,0,0.1,0,0.3,0v-0.3v-1.4
	l-1.1-0.1l-1-0.1l-1.7,0.1c-0.7,0.1-1.4,0.6-1.4,1C48.3,282.2,48.3,282.4,48.3,282.5z"/>
<path class="st16" d="M52.2,278.1H50l-1.7,0.4c-0.6,0.3-1.2,0.6-1.1,1c0.1,0.7,0.7,0.6,1.4,0.3c0.6,0,1,0,1.5-0.1
	c0.7,0.1,1.4,0.1,2.1,0V278.1z"/>
<path class="st16" d="M47.9,281.4c0.3,0.1,0.7,0,1.1-0.3c0.1,0,0.3,0,0.4,0c0.4,0,0.7,0,1.1-0.1c0.7,0.1,1.4,0.1,2.1,0v-1.5h-2.2
	l-1,0.1H49h-0.3c-0.7,0.3-1.2,0.7-1.1,1.1C47.6,281.3,47.7,281.4,47.9,281.4z"/>
<path class="st16" d="M52,276.6c-0.1,0.3-0.1,0.6-0.1,1c0,0.3,0,0.6,0,0.8c0,1,0.1,1.9,0.3,2.9c0.1,0.7,0.4,1.2,0.7,1.5
	c0.1,0.1,0.1,0.3,0.3,0.3c1.1,0.8,3,1.1,4.8,1.1c0.8-0.1,1.4-0.4,1.8-0.8l2.6,0.1c-0.4,0-0.7-0.4-1.1-0.8c-0.8-1.2-0.4-3,0.7-3.7
	l-2.3-0.4l-3.3-0.8l-4.1-1.1C52,276.6,52,276.6,52,276.6z"/>
<path class="st46" d="M49.5,282.2c0.6,0.1,1,0.1,1.4-0.1c0.6,0.3,1.1,0.6,1.8,0.6c0.1,0,0.4,0,0.6,0c0,0-0.7-3.7-0.6-3.7
	c0.1,0.1,1,3.9,1.1,4c0.7,0.3,1.5,0.6,2.5,0.6c1.2,0.1,2.2-0.3,3-1.1l1.9,0.3c0.3,0.4,0.7,0.8,1.1,0.8l-2.6-0.1
	c-0.3,0.4-1,0.6-1.8,0.8c-1.8,0-3.7-0.3-4.8-1.1c-0.7,0-1.4-0.3-1.9-0.4c-0.6,0.1-1,0.1-1.5,0c-0.6,0.3-1.1,0.3-1.2,0
	C48.7,282.6,49.3,282.5,49.5,282.2z"/>
<path class="st46" d="M51.7,276.6l4.6,1c0.3,0.6,0.4,1.1,0.7,1.7c0.1,0.4,0,1.4,0.4,1.5c-0.3,0.1-1-0.1-1.1-0.3
	c-0.3-0.1-0.6-0.4-0.7-0.7c-0.3-0.4-0.6-1.2-1-1.5C53.1,277.3,52.2,278.1,51.7,276.6z"/>
<path class="st16" d="M52.3,277.1c0.3,0.1,0.6,0.3,1,0.1h1.1l1,0.4c0,1.4,1.4,2.9,1.9,3.3c0.3,0.1,0.4,0.1,0.7,0.1
	c0.8-0.1,1.5-1.1,1.9-2.5l-0.7-0.7l-2.5-1.9l-2.3-0.3c-0.7,0.3-1.4,0.4-2.2,0.4c-0.3,0-0.4,0.1-0.4,0.4c0,0,0,0.1,0,0.3
	C51.7,276.7,52,277,52.3,277.1z"/>
<path class="st9" d="M112.5,401.2c-4.7-0.3-3.6-8.1-2.3-12.4c0.4-1.5,2.3-2.3,3.9-1.8c1.5,0.6,2.5,3.4,2.5,5.1
	C116.3,393.5,118,401.5,112.5,401.2z"/>
<path class="st16" d="M109.8,392.9c-0.8-6.6,6.5-7.2,5.5,0c-0.3,1.9-1.5,3.3-2.8,3.5C110.8,396.5,110,394.3,109.8,392.9z"/>
<path class="st16" d="M88.3,390.3c-2.1,1.7-4.6,2.5-7.2,2.3c-0.4,0-0.7,0-1-0.3c-0.3-0.4-0.1-1.1,0.1-1.5c2.3-3.9,6.8-7,8.7-11.2
	c0.3-0.4,0.4-1,0.8-1.2c0.6-0.6,1.5-0.4,2.2-0.6s1.4-0.6,2.1-0.3c0.6,0.3,0.7,1.1,0.8,1.8c0.1,0.7,0.6,2.3,0.7,3
	c0.3,0.7,0.4,1.4,0.1,2.1c-0.3,0.8-1,1.5-1.7,1.9s-1.7,0.7-2.3,1.1C90.5,388.2,89.4,389.3,88.3,390.3z"/>
<path class="st9" d="M80.2,392.3c0.3,0.3,0.6,0.3,1,0.3c2.5,0.1,5.1-0.8,7.2-2.3c1.2-1,2.2-2.1,3.4-2.9c0.7-0.4,1.7-0.7,2.3-1.1
	c0.7-0.4,1.5-1.1,1.7-1.9c0.1-0.7,0-1.4-0.1-2.1c-0.1-0.6-0.4-2.2-0.7-2.8c0-0.1,0-0.1-0.1-0.3c-0.1-0.7-0.3-1.4-0.8-1.8
	c-0.6-0.4-1.4,0.1-2.1,0.3s-1.7,0.1-2.2,0.6c-0.4,0.3-0.6,0.8-0.8,1.2c-0.7,1.7-1.9,2.9-3.2,4.1c-1.9,1.9-4.1,4.7-5.5,7
	C80,391.4,79.9,391.9,80.2,392.3z"/>
<path class="st16" d="M84.4,386.1c0,0.3,0,0.6,0.3,0.7c0.1,0.1,0.4,0.1,0.7,0.1c2.2-0.1,4.3-1.5,6.1-3c1-0.7,1.8-1.5,2.5-2.5
	c0.4-0.6,0.8-1.2,1.1-1.9c0-0.1,0-0.1-0.1-0.3c-0.1-0.7-0.1-1.9-0.8-2.3c-0.6-0.4-1.4,0-2.1,0.1c-0.7,0.1-1.8-0.3-2.5,0.3
	c-0.4,0.3-0.3,1.4-0.4,1.9c-0.7,1.7-2.1,3.3-3.3,4.6c-0.4,0.6-0.7,1.1-1.1,1.5C84.7,385.6,84.6,385.9,84.4,386.1z"/>
<path class="st16" d="M86.7,339.9c0,1.1,0.1,2.2,0.3,3.6c0.1,1.2,0.1,2.6,0.3,4c0.1,1.1,0.1,2.3,0.3,3.6c0.8,12.4,1.8,28.2,1.8,28.2
	s0,0,0,0.1c1.1,2.1,5.4,2.6,5.8-0.1c0.4-8.3,1.9-15.5,2.9-22.1c0.4-2.2,0.7-4.4,0.8-6.6c0.1-1.8,0.3-3.6,0.3-5.4
	c0-1.5-0.1-3-0.4-4.6c-0.1-0.4-0.1-0.8-0.3-1.4l-9.7-6.2C88.7,333.3,86.7,339.6,86.7,339.9z"/>
<path class="st16" d="M98,326.2c1.7,8.1,2.5,14.6,3.4,19.6c0.1,0.4,0.1,0.7,0.3,1.1c0.4,1.9,0.8,3.6,1.2,5c0.1,0.3,0.3,0.7,0.3,1
	l0.8,3.9l0.4,1.7l6.2,29.5l0.3,1.1l0.1,1c0,2.3,3.6,1.5,3.7-0.4c0-0.1,0-0.3,0-0.4c0-0.4,0.1-0.8,0.1-1.2c1.9-17.8,1.4-25,0.1-31.7
	c-0.1-0.8-0.3-1.7-0.4-2.6c-0.3-1.2-0.6-2.5-0.8-3.9c0-0.4,0.1-0.8,0.1-1.4c0-0.1,0-0.3,0-0.3v-0.1c1.1-9.2,0.8-16.4,0.6-21.3H97.8
	v-0.6H98z"/>
<path class="st16" d="M98,326.2c1.7,8.1,2.5,14.6,3.4,19.6c0.1,0.4,0.1,0.7,0.3,1.1c0.4,1.9,0.8,3.6,1.2,5c0.1,0.3,0.3,0.7,0.3,1
	l0.8,3.9l0.4,1.7l6.2,29.5l0.3,1.1l0.1,1c0,2.3,3.6,1.5,3.7-0.4c0-0.1,0-0.3,0-0.4c0-0.4,0.1-0.8,0.1-1.2c1.9-17.8,1.4-25,0.1-31.7
	c-0.1-0.8-0.3-1.7-0.4-2.6c-0.3-1.2-0.6-2.5-0.8-3.9c0-0.4,0.1-0.8,0.1-1.4c0-0.1,0-0.3,0-0.3v-0.1c1.1-9.2,0.8-16.4,0.6-21.3H97.8
	v-0.6H98z"/>
<path class="st47" d="M101.4,345.7c0.1,0.4,0.1,0.7,0.3,1.1c0.4,1.9,0.8,3.6,1.2,5c0.1,0.3,0.3,0.7,0.3,1l0.8,3.9l0.4,1.7
	c3.6,0,7.2-0.7,10.8-2.3c-0.1-0.8-0.3-1.7-0.4-2.6c-0.3-1.2-0.6-2.5-0.8-3.9c0-0.4,0.1-0.8,0.1-1.4c0-0.1,0-0.3,0-0.3L101.4,345.7z"
	/>
<path class="st47" d="M86.9,343.5c0.1,1.2,0.1,2.6,0.3,4c0.1,1.1,0.1,2.3,0.3,3.6c2.5,2.6,6.2,5,10.6,6.1c0.4-2.2,0.7-4.4,0.8-6.6
	c0.1-1.8,0.3-3.6,0.3-5.4L86.9,343.5z"/>
<path class="st11" d="M87.1,346.8c1.5,4,21.1,11.9,27.5,5.8l1.8-27.2c1.7-9,0.3-13.5-4.4-17.9c-0.6-0.6-1.1-1-1.8-1.5l-13.8-0.6
	l-5.4-0.3C86.1,320,86,336.5,87.1,346.8z"/>
<path class="st11" d="M90.8,305.1c1.4,3.2,3,5.7,6.6,6.5c3.4,0.8,10.5,0.1,14.5-4.1c4.7,4.3,6.1,9,4.4,17.9l-1.8,27.2
	c-0.6,0.6-1.5,1.2-3,1.8c1.2-9.5-0.1-31.5-2.2-38.9c-11.5,0.4-16.3-2.2-19-8.6L90.8,305.1z"/>
<path class="st15" d="M60.2,278.4c-2.9,0.3-2.5,4.8-0.6,5.4c1.1,0.3,13.2,5.4,21.9,1.9l11.3-5.9l4.4,0.7l-1.5-13.8
	c-4.8,2.3-9.7,5.9-19.5,12.7L60.2,278.4z"/>
<path class="st9" d="M85,291.3c0,2.8,2.6,5.4,5.9,5c0,0.3,0,0.6,0,0.7c0.1,1.7,0.4,3.7,0.4,5.7c0,0.1,0,0.4,0,0.6
	c0,0.6-0.1,1-0.1,1.4c0,0.3-0.1,0.4-0.1,0.7c1.4,3.2,3.2,5.7,6.8,6.6c0.8,0.3,2.1,0.4,3.2,0.3c3.7,0,8.4-1.2,11.6-4.6
	c-0.7-5,1-11.5,2.8-16.8c1.4-4.1,2.8-7.7,3.2-9.5c-3.3-4.1-7.2-7.5-11.3-10.4s-6.1-6.6-10.9-4.8c-4.8,1.8-5.4,11.3-7,15
	C87.3,284.7,85,287.3,85,291.3z"/>
<path class="st26" d="M91.1,304.4c0,0.3-0.1,0.4-0.1,0.7c1.8,5.2,5.1,7.6,9.9,6.9c3.7,0,8.4-1.2,11.6-4.6c-0.7-5,1-11.5,2.8-16.8
	l-4.3-1.1l-4.7,7.5c-3.6,6.1-13.1,5-13.5-1.4L91,296c0,0.3,0,0.4,0,0.7c0,2.5,0.3,4.1,0.4,5.7c0,0.1,0,0.4,0,0.6
	C91.3,303.5,91.2,304,91.1,304.4z"/>
<path class="st15" d="M118.4,281.3c3.9,6.9,6.1,14.6,6.9,23c1.1,6.2-0.1,17.5-2.9,23.6c-0.7-0.8-1.9-1.2-3.9-1
	c-0.4-8.3-1-16.4,0-20.7l-6.3-13.8C107.8,283.1,114.8,276.8,118.4,281.3z"/>
<path class="st16" d="M110.7,333.4c0.3,0.1,0.8,0.3,1.4-0.1c1.1-1.1,2.2-1.9,3.6-1.5c0.3,0.4,0.3,1.1,0.1,1.8v0.1
	c-0.4,1.5-1.4,3.6-2.5,5.5c-0.1,0.3,0,0.6,0.1,0.7c0.3,0.3,0.7,0.3,1,0c0,0.6,0.7,0.8,1.1,0.3l0.7-0.8c0.1,0.7,0.8,0.4,1.1,0
	l1.4-1.7c1-1,1.7-1.9,2.3-3.2c0.1-0.1,0.1-0.4,0.3-0.6c0.7-2.1,1-4,1-6.1c-0.4-1.7-1.9-1.9-3.9-1l-2.3,1.2c-2.2,1.1-3.3,2.6-5.7,4.4
	C110.3,332.9,110.4,333.1,110.7,333.4z"/>
<path class="st16" d="M113.3,339.9c0.3,0.3,0.7,0.3,1,0c0,0.6,0.7,0.8,1.1,0.3l0.7-0.8c0.1,0.7,0.8,0.4,1.1,0l1.4-1.7
	c1-1,1.7-1.9,2.3-3.2c-1.1,0.4-2.3,0.1-3.4-0.4C116.6,336.3,114.8,339.5,113.3,339.9z"/>
<path class="st16" d="M110.7,333.4c0.3,0.1,0.8,0.3,1.4-0.1c1.1-1.1,2.2-1.9,3.6-1.5c0.3,0.4,0.3,1.1,0.1,1.8l0.6-2.5
	C113.7,330.4,111.9,332.9,110.7,333.4z"/>
<path class="st42" d="M87.9,295.7c-0.7-0.3-1.2-0.7-1.9-1.4C86.5,295.1,87.1,295.5,87.9,295.7z"/>
<path class="st16" d="M98.8,271.7l-1,4.1l-3.7,16.8l12.8-18.1L98.8,271.7z"/>
<path class="st8" d="M99.2,270.9l-5.1,21.5l1.5-21L99.2,270.9z"/>
<path class="st23" d="M103.6,265.4c0,3.2,2.6,5.8,5.8,5.8s5.8-2.6,5.8-5.8c0-3.2-2.6-5.8-5.8-5.8S103.6,262.1,103.6,265.4z"/>
<path class="st16" d="M106.4,264.7c0.7,2.2,0.4,4.4,1.2,6.6c0.4,2.5-3.7,5.2-6.8,5c-2.2-0.4-2.1-1.5-2.3-4.1L106.4,264.7z"/>
<path class="st47" d="M105,265.7c0,7.5-2.8,14.1-6.2,12.8c-1.4-0.6-1.5-4.3-1.5-9.4L105,265.7z"/>
<path class="st16" d="M105.7,268.1c-2.2,2.8-4.7,5.1-8.6,4.6c-1.5-0.3-2.8-2.3-2.8-11c0-2.9,1.7-6.5,3-8c1.9-2.3,5.2-3.2,8.4-2.5
	c4.4,1,6.6,4.4,6.1,8.8C110.8,265.8,108.3,268,105.7,268.1z"/>
<path class="st4" d="M107.2,267.6c0,0-1-0.3-1.9-1.7c-0.8-1.4-1-3-1.2-4.8c-4.1-0.4-8.4-3.4-8.4-4.8c0.1-1.9,1.4-3.6,4.8-5
	c3.9-1.5,7.3-0.6,10.1,2.5c4.3,4.7,0.4,13-3.2,14.5L107.2,267.6z"/>
<path class="st23" d="M94.1,263.3c0.8,1.2,2.1,1.7,2.3-0.3c0,0,0,0,0-0.1c0.3,0,0.4,0.3,0.7,0.6c-0.7,3.9,4,4.8,4,2.1
	c0-1.2-1.8-1.5-3.2-2.3c-0.1-0.1-0.6-0.3-0.7,0c-0.3-0.4-0.6-0.6-0.8-0.7c0-0.3-0.1-0.6-0.3-0.7c-1.1-1-1.8-2.3-2.2-1.5
	C93.6,261.4,93.7,262.5,94.1,263.3z M97.3,263.5c0-0.3,0.1-0.4,0.6-0.1c0.4,0.3,1,0.6,1.4,0.7c1.1,0.4,1.7,0.8,1.7,1.4
	c0,0.4-0.1,0.8-0.4,1.1c-0.4,0.3-1,0.4-1.5,0.1c-0.6-0.1-1.1-0.6-1.4-1.1S97.1,264.3,97.3,263.5z M94.1,260.4c0-0.1,0.1-0.1,0.3-0.1
	c0.3,0.1,0.4,0.4,0.8,0.8c0.3,0.3,0.6,0.6,0.8,0.8c0.1,0.1,0.3,0.4,0.3,0.7c0,0.8-0.3,1.7-1,1.4c-0.4-0.1-0.7-0.6-1-1.1
	C93.7,262.2,93.8,261.2,94.1,260.4z"/>
<path class="st23" d="M101,265.5l6.2,0.1l0.1-0.3l-6.5-0.4L101,265.5z"/>
<path class="st16" d="M106.2,266.5c0.3-0.4,0.6-0.8,1-1.2c0.4-0.3,1-0.6,1.4-0.6c0.1,0,0.3,0,0.4,0.1c0.3,0.1,0.4,0.4,0.4,0.8
	c0,0.3-0.1,0.6-0.3,1c-0.3,0.6-0.6,1.1-1,1.5s-1,0.7-1.7,0.7c-0.3,0-0.6,0-0.7-0.1s-0.3-0.3-0.3-0.4
	C105.7,267.6,106,267,106.2,266.5z"/>
<path class="st8" d="M107.6,270.9l-15,24l15.5-15.2l-0.7-3l2.5-1.4V273L107.6,270.9z"/>
<path class="st16" d="M44.7,294.8c-4.6-0.4-6.9,2.8-8.6,7.2c-0.6,2.8,0.6,6.6,2.1,9l5.5,2.3c1.9,0.4,3.6,1.2,4.8,0.8
	c3.4-0.8,3.4-6.8,3.4-11.6C51.6,298.5,49.9,295.2,44.7,294.8z"/>
<path class="st16" d="M47.2,321.3l1.4-8.3l-9.4-3.4l-3,7.9L47.2,321.3z"/>
<path class="st21" d="M49.4,432l-2.2,4.1c-1.1,1.7-1.1,3.6-0.4,5.5c1.7,2.2,4.8,1.8,8.3,1.1c4.4-1.4,6.6-2.3,9.4-3.2
	c4-1.4,3.3-4.7-1-5l-7.2-0.4L54,434l-0.1-2.3L49.4,432z"/>
<path class="st21" d="M24,421.6l-2.3,1.5c-1.1,2.1-1.2,4.4-0.4,5.9c1.8,1.2,3.7,1.2,7-0.6c4-3.3,5.7-3.2,7.2-5.4
	c1.8-2.9-0.8-4.1-3.2-3.7l-4.6,0.7L24,421.6z"/>
<path class="st16" d="M46.1,352.9l-2.5,17c-0.6,1.9-1.2,4-1.8,5.9c-1.9,5.8-4,11.3-5.8,14.6c-0.4,0.8-0.8,1.5-1.2,1.9l-1.8,3.5
	c-0.1,1.4-0.4,2.8-0.7,4.1c-1.4,7.2-3.7,13.8-4.6,19.9l1-0.1c2.8,0.6,3.2,1.4,1.7,2.9c-1.7,1.1-3,2.2-4.7,2.5
	c-2.3,0.4-4.3-0.1-4.1-1.8c0.4-10.9-0.4-20.8,1.5-28.6c0.6-2.2,1.4-4.3,2.6-6.1l1.2-3.2c0-0.8-0.1-1.8-0.1-2.8
	c-0.3-5.9,0-12.3,0.6-17.5c-0.3-6.9,1.5-12.7,4.7-17.8l4.8,1.8l4.1,1.7L46.1,352.9z"/>
<path class="st16" d="M58.6,437.1l-6.8,1.5c-2.2,0.4-4.3-0.8-4.7-2.2c1.8-13.7-3.6-22.1,0-33.9v-4.7l-1.4-6.9l-2.6-13.4l-1.4-1.7
	l-3.7-4.1l2.5-20.7h13.9l2.6,15.7c1.9,7.7,2.9,15.3,2.3,22.6c-0.1,2.5-0.6,5-1.1,7.3l-0.6,5.5l-0.3,2.1c-1.4,8.4-2.2,17.4-2.6,26.1
	c-0.1,1.9,1.2,3.6,3,3.9C61.3,434.7,62.4,435.8,58.6,437.1z"/>
<path class="st14" d="M61,333.3c0,2.9-1.9,5.4-4.7,6.3c-0.8,0.3-1.5,0.4-2.5,0.4c-1.5,0-2.8-0.4-3.9-1.1c-1.9-1.2-3.2-3.3-3.2-5.7
	c0-3.7,3.2-6.8,7.2-6.8c1.7,0,3.2,0.6,4.3,1.4c0.7,0.6,1.4,1.2,1.8,1.9C60.6,330.9,61,332,61,333.3z"/>
<path class="st9" d="M59.2,396.2c-4.1,3.2-28.6,4.8-35.1-8.1l1.9-21.8c1.1-8,1-10.8,5.1-17.4c0.3-0.4,0.6-1,1-1.4
	c2.1-6.2-2.6-11.3-4.3-20.4c-0.3-1.1-0.4-2.3-0.6-3.6c-0.3-2.5,0.3-4.6,1.2-6.3c1.2-2.1,3.7-3.2,6.1-2.9c6.2,0.7,12.6,3,18.2,6.5
	l2.1,1.4L58,328l0.3,2.6l0.4,3.2c-1,1.9-1.9,3.9-2.6,5.9c-1.4,3.7-2.1,7.6-1.5,11.5c1,3,1.8,5.9,2.6,8.8
	C60.3,372.1,61.3,383.8,59.2,396.2z"/>
<path class="st4" d="M37.9,311.5c-1.9-2.5-3-5.4-2.6-8.6c0.6-4.4,2.9-8.8,8.1-9.1c7.5-0.4,11.2,5.5,8.6,12.3c-2.3,2.3-4.1,5-5.7,6.3
	C42.5,315.2,39.9,314.5,37.9,311.5z"/>
<path class="st4" d="M38.9,309.5c0,0-4,4.1-4.8,8c-1.7,7.3,4.1,16.3,4.1,16.3s4.6-9.9,3.6-14.2c-1-4-0.1-10.1-0.1-10.1L38.9,309.5
	L38.9,309.5z"/>
<path class="st16" d="M50.1,306.1c-1.1,0.7-1,4.4-1,4.4l1.4,1l0.7-4.1C51.2,307.3,51.5,305.3,50.1,306.1z"/>
<path class="st48" d="M56.3,339.6c-1.4,3.7-2.1,7.6-1.5,11.5c1,3,2.5,5.9,3.2,8.8c-7.7-7.9-20-6.8-26.6-10.9c0.3-0.4,0.6-1,1-1.4
	c2.1-6.2-2.6-11.3-4.3-20.4c4.7,11.5,15.5,16.8,22.1,11.7c1.8-1.4,3.3-3.4,4.3-6.3l4.4-1.9l1.5-0.7c0.6,1,1,2.1,1,3.3
	C61,336.2,59.1,338.7,56.3,339.6z"/>
<path class="st16" d="M62.1,327.2l-5.4,1l-1-2.3l1.9-2.5l2.9,0.8L62.1,327.2z"/>
<path class="st21" d="M53.8,335.2l10.5-17.1l11,5.2l-10.5,17.3L53.8,335.2z"/>
<path class="st8" d="M65.4,338.5l-9.9-4.8l9.1-14.9l9.9,4.8L65.4,338.5z"/>
<path class="st16" d="M64.7,322.5l-1.9-0.4c-0.7,1.5-1.9,2.2-3.2,2.5l-1.1,0.4c-0.4-1-0.7-1.4-0.8-1.7c0.1-1.4,1-2.6,1.8-2.9l3-0.6
	l3.7,1.4C66.2,322.1,66,322.5,64.7,322.5z"/>
<path class="st21" d="M65.8,338c-0.1,0-0.1,0-0.3,0c-0.3-0.1-0.6-0.4-0.6-0.7l3.3-15.2c0.1-0.3,0.4-0.6,0.7-0.6
	c0.3,0.1,0.6,0.4,0.6,0.7l-3.3,15.2C66.4,337.7,66.1,338,65.8,338z"/>
<path class="st16" d="M72.7,330.5c0.1,0.6-0.3,1-0.3,1.4c0,0.1,0,0.4,0,0.7c0,0.1,0,0.4,0,0.6c0,1-2.2,2.5-3,2.9l-2.9,1.4l-3.4,3
	l-0.7-1.1l-1.7-2.5l2.6-3c-0.1-1.7-0.3-3,0.3-4.3l1.4-1.7l2.5-1.2l-0.3,1.1c0,0,1-0.7,2.1-1.2c0.4-0.3,1.2-0.4,1.7,0
	c0.1,0.1,0.1,0.7,0.3,0.8c0.1,0.3,0.8,0.6,1,0.8s-0.1,1,0,1.2C72.2,329.7,72.6,330,72.7,330.5z"/>
<path class="st16" d="M67.3,326.9l-2.5,2.1l2.3-1.4L67.3,326.9z"/>
<path class="st16" d="M72.4,332.7c0,0.1,0,0.4,0,0.6c0,1-2.2,2.5-3,2.9l-2.9,1.4l-3.4,3l-0.7-1.1c1.5-1,2.8-2.5,3.6-3.6
	C68.7,335.8,71.6,334.7,72.4,332.7z"/>
<path class="st16" d="M54.9,322.1c3.4,1.7,3.9,4.3,3.9,10.1l0.3,6.1l4.4-4.6c2.8-0.1,3.4,0.3,3.2,3.7c-1.7,4.8-4.8,11.9-8,14.8
	c-2.1,1.9-5.2-0.3-6.6-5.4l-2.2-13.1C48.6,326.5,49.7,320.9,54.9,322.1z"/>
</svg>
