<?xml version="1.0" encoding="utf-8"?>
<!-- Generator: Adobe Illustrator 24.1.2, SVG Export Plug-In . SVG Version: 6.00 Build 0)  -->
<svg version="1.1" id="Layer_1" xmlns="http://www.w3.org/2000/svg" xmlns:xlink="http://www.w3.org/1999/xlink" x="0px" y="0px"
	 viewBox="0 0 621 621" style="enable-background:new 0 0 621 621;" xml:space="preserve">
<style type="text/css">
	.st0{opacity:0.5;fill:#C0C7A9;enable-background:new    ;}
	.st1{opacity:0.5;fill:#FFFFFF;enable-background:new    ;}
	.st2{fill:#DCE1CB;}
	.st3{fill:#3B4850;}
	.st4{fill:#0B1017;}
	.st5{fill:#242E61;}
	.st6{fill:#3A4B77;}
	.st7{fill:#C0C7A9;}
	.st8{fill:#FFFFFF;}
	.st9{fill:#FF984A;}
	.st10{fill:#B24D0D;}
	.st11{fill:#ACCDF4;}
	.st12{fill:#706F6F;}
	.st13{fill:#2D2856;}
	.st14{fill:#44598E;}
	.st15{fill:#D6EEEB;}
	.st16{fill:#FFAE80;}
	.st17{fill:#40274F;}
	.st18{fill:#9D9D9C;}
	.st19{fill:#808080;}
	.st20{fill:#FFD88F;}
	.st21{fill:#291933;}
	.st22{opacity:0.5;fill:#FFD88F;enable-background:new    ;}
	.st23{fill:#1D1D1B;}
	.st24{fill:#3C3C3B;}
	.st25{fill:#232323;}
	.st26{opacity:0.5;fill:#B24D0D;enable-background:new    ;}
	.st27{fill:#A1241D;}
	.st28{fill:#A1D4CD;}
	.st29{fill:#1D71B8;}
	.st30{fill:#F69A62;}
	.st31{fill:#B2B2B2;}
	.st32{fill:#B3B3B3;}
	.st33{fill:#999999;}
	.st34{fill:#F2F2F2;}
	.st35{fill:#C8E6E2;}
	.st36{fill:#6BD8EB;}
	.st37{opacity:0.25;enable-background:new    ;}
	.st38{fill:#575756;}
	.st39{fill:#444443;}
	.st40{fill:#382C2D;}
	.st41{fill:#3D5A55;}
	.st42{opacity:0.1;fill:#1D1D1B;enable-background:new    ;}
	.st43{fill:#4D4D4D;}
	.st44{fill:#7B7B7B;}
	.st45{fill:#666666;}
	.st46{opacity:0.5;fill:#FFBF86;enable-background:new    ;}
	.st47{opacity:0.5;fill:#FFAE80;enable-background:new    ;}
	.st48{fill:#F08534;}
</style>
<path class="st0" d="M306.6,450.2l39.3,22.6l36.7-21.1L343.4,429L306.6,450.2z"/>
<path class="st1" d="M315.3,329.6l36.2,20.8L321.2,368L285,347.1L315.3,329.6z"/>
<path class="st0" d="M443.6,342.6l39.3,22.6l-83.8,48.4l-39.3-22.8L443.6,342.6z"/>
<path class="st1" d="M184,437.5c-11,6.3-11,16.6,0,22.9c11,6.3,28.7,6.3,39.7,0c11-6.3,11-16.6,0-22.9
	C212.9,431.2,195.1,431.2,184,437.5z"/>
<path class="st1" d="M278.8,469.4c-11,6.3-11,16.6,0,22.9c11,6.3,28.7,6.3,39.7,0s11-16.6,0-22.9S289.7,463,278.8,469.4z"/>
<path class="st1" d="M456.8,406.5c-11,6.3-11,16.6,0,22.9c11,6.3,28.7,6.3,39.7,0c11-6.3,11-16.6,0-22.9
	C485.7,400.1,467.9,400.1,456.8,406.5z"/>
<path class="st1" d="M369.1,496.9c-13.4,7.7-13.4,20.1,0,27.9c13.4,7.7,35.1,7.7,48.3,0c13.4-7.7,13.4-20.1,0-27.9
	C404.1,489.1,382.5,489.1,369.1,496.9z"/>
<path class="st1" d="M126.3,478.1c-11,6.3-11,16.6,0,22.9c11,6.3,28.7,6.3,39.7,0c11-6.3,11-16.6,0-22.9
	C155.2,471.7,137.4,471.7,126.3,478.1z"/>
<path class="st1" d="M259.8,405.1c21.6,0,39.1-10.1,39.1-22.5s-17.5-22.5-39.1-22.5c-21.6,0-39.1,10.1-39.1,22.5
	S238.2,405.1,259.8,405.1z"/>
<path class="st1" d="M119.9,420.8c-10.1,5.8-10.1,15.3,0,21.1s26.5,5.8,36.6,0c10.1-5.8,10.1-15.3,0-21.1
	C146.3,415,130.1,415,119.9,420.8z"/>
<path class="st2" d="M482.9,173.8L345.6,93.9v186.7l137.3,79.9V173.8z"/>
<path class="st3" d="M442.5,238.6c12.4-9.3,9.1-34.6-7.4-56.4c-16.4-21.9-39.8-32.1-52.2-22.8s-9.1,34.6,7.4,56.4
	C406.7,237.7,430.1,247.9,442.5,238.6z"/>
<path class="st4" d="M388.3,359.4c0,0-0.7,3.9-0.4,5.5c0.4,1.7,4.7,2.8,4.7,2.8s3.7,4.6,9,4.1c3-0.3,4.1-1.1,4.6-1.9
	c0.4-1,0-2.1-0.6-2.9s-4.6-2.3-6.2-4.8c-0.8-1.2-2.1-3.9-2.1-3.9l-0.1-1.4c-0.3-1.9-1.8-3.6-3.9-3.6c-2.8-0.1-4.8,2.1-4.7,4.7v0.8
	L388.3,359.4z"/>
<path class="st4" d="M372.3,367.7c-0.7,1.2-0.7,3.3-0.7,6.3c0.8,1.7,2.1,3,3.6,3.4c0,0,1.1,5.4,8.3,5.5c6.8,0.1,6.6-2.6,6.6-2.5
	c0,0,0-1.5-1.5-2.9c-1-0.8-4.6-3.9-5.4-5s-1.7-2.9-1.7-2.9l-0.3-4.8h-9.1L372.3,367.7z"/>
<path class="st5" d="M396.8,286.7l-13.1,15.6c0.7,5,1.7,14.8,2.9,19.5c-2.3,17.9-0.8,37.5,0.7,38.6c2.1,1.7,9,3.2,11.7-1
	c0,0-2.1-19.7,0.6-40L396.8,286.7z"/>
<path class="st6" d="M396.8,286.7c-0.1,7.2-1.7,10.9-8.8,14.8l-2.3,15.7l-1.7,11c-2.6,20.7-2.8,41.7-2.8,41.7
	c-3,4.3-11.6,2.5-11.9-0.3c-1.2-16.3-1.5-25.7,1.2-40c-1.5-8.6-2.5-18.6-1.7-26.6c-1.5-4.6-1.5-9.5-0.3-15.3c0.1,0,0.6-0.1,0.8-0.3
	c0.1,0,0.4-0.1,0.7-0.1c1-0.3,2.5-0.6,4.1-1c0.6-0.1,1.2-0.3,1.9-0.4s1.4-0.3,2.2-0.6c0.4-0.1,0.8-0.3,1.2-0.3
	c2.1-0.6,4.3-1.1,6.5-1.7c2.1-0.6,4-1,5.5-1.4c1.2-0.3,2.3-0.6,3.2-0.8c0.6-0.1,1-0.3,1.1-0.3l0.3-0.1h0.1c0,0.1,0,0.3,0,0.4
	s0,0.1,0,0.3c0,0.7,0,1.2,0.1,1.8C396.8,284.5,396.8,285.6,396.8,286.7z"/>
<path class="st7" d="M118.9,225.5L345.6,93.9v186.7L118.9,412.3V225.5z"/>
<path class="st8" d="M202,202.8L141.5,238v107.6l60.4-35.1V202.8z"/>
<path class="st3" d="M191.5,303.8v-37.4l-40.3,23.3v37.5L191.5,303.8z"/>
<path class="st9" d="M171.3,230.8l-20.1,11.7v35.9l20.1-11.7V230.8z"/>
<path class="st10" d="M195.9,216.7l-20.1,11.7v35.9l20.1-11.7V216.7z"/>
<path class="st8" d="M262.7,171l-41.5,24.1v74.1l41.5-24.1V171z"/>
<path class="st9" d="M228.3,226.7v30.1l27.2-15.7v-30.2L228.3,226.7z"/>
<path class="st11" d="M255.5,204.2v-20.7l-27.2,15.9V220L255.5,204.2z"/>
<path class="st8" d="M321.7,137.9l-41.7,24.1v74.1l41.7-24.2V137.9z"/>
<path class="st11" d="M287.2,206.5v17.3l27.3-15.9v-17.3L287.2,206.5z"/>
<path class="st9" d="M298.7,159.6l-11.5,6.6v35.5l11.5-6.6V159.6z"/>
<path class="st3" d="M303.3,157v35.5l11.3-6.6v-35.5L303.3,157z"/>
<path class="st12" d="M295,351.7c0.6,0,1-0.4,1.1-1l2.8-27.7l18.1-10.4l2.6,23.5c0,0.6,0.6,1,1.1,1s1-0.6,1-1.1l-2.9-26.6
	l-21.8,12.6l-2.8,28.7C293.9,351.1,294.3,351.7,295,351.7z"/>
<path class="st9" d="M323.1,270.4c-0.3-0.1-0.6-0.1-1,0.1c-0.7,0.4-1.2,1.2-1.4,2.1l-3.5,33.4c-0.1,0.7-0.6,1.5-1.2,1.9l-18.8,10.9
	c-1.4,0.8-2.6,2.8-2.6,4.4v0.4l25.1,14.5l23.5-15.7l4.7-37.5L323.1,270.4z"/>
<path class="st13" d="M320.2,366.3c0.6,0,1-0.4,1.1-1l2.8-27.7l18.1-10.4l2.6,23.5c0,0.6,0.6,1,1.1,1s1-0.6,1-1.1l-2.9-26.6
	l-21.8,12.6l-2.8,28.7C319.1,365.8,319.5,366.2,320.2,366.3C320.1,366.3,320.1,366.3,320.2,366.3z"/>
<path class="st10" d="M320.1,338.2l25.1-14.5l3.5-37.7c0.1-1-0.6-1.4-1.4-1c-0.7,0.4-1.2,1.2-1.4,2.1l-3.4,33.4
	c-0.1,0.7-0.6,1.5-1.2,1.9l-18.8,10.9c-1.4,0.8-2.6,2.8-2.6,4.4v0.4H320.1z"/>
<path class="st4" d="M294.7,354.2c1.2,1.2,1.4,3.6,1,5.9c-1,1.4-1.4,2.1-3,2.5c0,0-1.9,0.7-3.7,1.7c-3.6,3.7-6.9,4.1-8.1,3.7
	c-4.1-1.5,0.3-5.1,1.5-5.9c0.4-0.3,5-4.6,5-4.6l1.1-1.7l-0.1-3.7l5.9-1.8L294.7,354.2z"/>
<path class="st6" d="M282.4,327c0.8,9.4,3.7,16.4,6.1,28.8c1.1,0.8,3.3,1.7,5,1.1c1-0.3,1.7-1,1.9-2.2c0.4-10.6,0.3-18.9-2.6-25.9
	c9-4,20.8-5.2,28.2-11.3c2.9-2.5,5-4.7,5.7-6.9c0.3-1.1,0.3-2.2-0.1-3.3c-0.3-0.6-0.7-1.1-1.1-1.8l-2.3-1.7l-10.1-1.4
	c-1.2,0.7-2.8,1.5-4.3,2.3C297.7,310.8,282.4,321.2,282.4,327z"/>
<path class="st14" d="M292.8,356.6c0,0,0.3,0.1,0.7,0.3c1-0.3,1.7-1,1.9-2.2c0.4-10.6,0.3-18.9-2.6-25.9c9-4,20.8-5.2,28.2-11.3
	c2.9-2.5,5-4.7,5.7-6.9l-0.1-3.3c-0.3-0.6-0.7-1.1-1.1-1.8l-2.3-1.7l-10.1-1.4c-1.2,0.7-2.8,1.5-4.3,2.3
	c-0.8,9.5-9.9,16.1-20.3,22.5C292.2,335.9,293.3,346,292.8,356.6z"/>
<path class="st4" d="M311,363.4c1.2,1.2,1.2,3.5,1,5.9c-1,1.4-2.2,2.2-3.9,2.6c0,0-5.7,5.4-11.2,4.6c-5.4-0.8,0-4.7,0-4.7l6.2-5.4
	l1.2-1.7v-3.6l5.9-1.8L311,363.4z"/>
<path class="st6" d="M296.1,333.9c0.8,9.4,6.1,18.5,8.4,30.9c2.1,1.7,4,1.9,5.4,0.1c0.4-0.4,0.8-1.1,1.1-1.8
	c0.4-10.6-0.4-20.1-3.3-27c9-4,16-7.9,23.5-13.9c5-4.3,4.7-11.7,1.2-15.7l-1-0.1h-0.1l-16.4,3.4c-0.8,1-1.8,2.1-2.8,3
	c-1.2,1.4-2.5,2.8-3.6,4.1C302.3,323.7,296.9,330.2,296.1,333.9z"/>
<path class="st14" d="M308.9,365.3l1.1-0.4c0.4-0.4,0.8-1.1,1.1-1.8c0.4-10.6-0.4-20.1-3.3-27c9-4,16-7.9,23.5-13.9
	c5-4.3,4.7-11.7,1.2-15.7l-1-0.1l-19.3,6.5c-1.2,1.4-2.5,2.8-3.6,4.1c2.1,0.3,6.8,0.4,16.4,0.3c-3.5,7.3-11.5,13.4-21.4,17.7
	C307.9,342.6,309.1,353.5,308.9,365.3z"/>
<path class="st13" d="M245.3,373.5c-8.7,5.1-8.7,13.2,0,18.2c8.7,5.1,22.9,5.1,31.6,0c8.7-5.1,8.7-13.2,0-18.2
	C268.2,368.4,254.1,368.4,245.3,373.5z"/>
<path class="st7" d="M245.3,371.1c-8.7,5.1-8.7,13.2,0,18.2c8.7,5.1,22.9,5.1,31.6,0c8.7-5.1,8.7-13.2,0-18.2
	C268.2,366.2,254.1,366.2,245.3,371.1z"/>
<path class="st13" d="M256.2,377.5c-2.8,1.5-2.8,4.1,0,5.7c2.8,1.5,7.2,1.5,9.8,0c2.8-1.5,2.8-4.1,0-5.7
	C263.4,376,259,376,256.2,377.5z"/>
<path class="st7" d="M256.2,375.7c-2.8,1.5-2.8,4.1,0,5.7c2.8,1.5,7.2,1.5,9.8,0c2.8-1.5,2.8-4.1,0-5.7
	C263.4,374.2,259,374.2,256.2,375.7z"/>
<path class="st13" d="M257.4,375c-2.1,1.2-2.1,3.2,0,4.4c2.1,1.2,5.5,1.2,7.6,0s2.1-3.2,0-4.4C262.8,373.9,259.5,373.9,257.4,375z"
	/>
<path class="st13" d="M266.5,342.3h-10.8v35.2h10.8V342.3z"/>
<path class="st13" d="M229.4,320.5c-17.5,10.1-17.5,26.5,0,36.6s45.8,10.1,63.3,0s17.5-26.5,0-36.6
	C275.4,310.3,247,310.3,229.4,320.5z"/>
<path class="st8" d="M229.4,317.9c-17.5,10.1-17.5,26.5,0,36.6s45.8,10.1,63.3,0s17.5-26.5,0-36.6
	C275.4,307.8,247,307.8,229.4,317.9z"/>
<path class="st15" d="M285.7,305.9c1.4-0.7,2.2-0.1,2.9,1.4c0.1-0.1,0.4-0.3,0.6-0.3c5-2.9,9.7-6.6,14.4-11l2.5-8.8l3.2-11l1.8-3.3
	l-3.2-2.3c-4.7-0.7-6.2,1.5-7.3,6.6l-4.3,15.5C292.6,295.5,289,300.2,285.7,305.9z"/>
<path class="st15" d="M289,307c5-2.9,9.7-6.6,14.4-11l2.5-8.8l-3.7-7.5c-1,6.2-3.5,10.5-3.7,16L289,307z"/>
<path class="st4" d="M318.3,263.6c9.4,3,7.3,11.9,4.8,18.8l-6.6-6.2L318.3,263.6z"/>
<path class="st15" d="M300.5,293v0.1c0.3,5.4,7.6,4.8,7.6,4.8l2.9,6.5c0.7,9.4,16.8,11.7,21.4,1.9c-3.3-4.6-3.3-4.6-3.6-7.7
	c0.3-0.8,0.4-1.7,0.7-2.5c1.5-6.2,0.8-11-1.9-16.4c-2.6-3.5-8.6-6.9-12.3-8.3l-10.9-0.3l-2.2,8C302.7,289.2,300.4,288.9,300.5,293z"
	/>
<path class="st16" d="M317.1,269.7c0.6,2.1,2.2,5.2,2.6,7.2c0.4,2.3-4,6.1-6.9,5.9c-2.1-0.4-2.6-3.2-2.9-5.5L317.1,269.7z"/>
<path class="st15" d="M315.5,271.2c0,0,1.8,14.4-5.1,13.1c-4.6-0.8-3.6-8.1-3.6-8.1L315.5,271.2z"/>
<path class="st16" d="M311.3,258.1c-6.9,1-9.1,5-8.4,10.5c0.1,4.6,3.9,10.8,6.6,10.6c3.9,0.3,5.7-4.3,9-9
	C320.9,262.4,317.6,257.1,311.3,258.1z"/>
<path class="st4" d="M303,268.7c1.4,1.5,3.7,2.3,6.6,3c2.5,1,4.8,1,5.7,2.2l2.8-1.1c2.8-3.3,3-12.6-1.8-14.5
	C308.6,255.2,299.4,263.1,303,268.7z"/>
<path class="st16" d="M315.4,272.6c0.4-1.7,1.7-2.8,2.6-1.8c0.4,0.4,0.4,1.2,0,2.3c-0.3,0.8-0.8,1.2-1.5,1.2
	C315.5,274.7,315,274,315.4,272.6z"/>
<path class="st15" d="M300.5,293.2c0.3,5.4,7.6,4.8,7.6,4.8l2.9,6.5c0.7,9.4,16.8,11.7,21.4,1.9c-3.3-4.6-3.3-4.6-3.6-7.7
	c0.3-0.8,0.4-1.7,0.7-2.5l-6.5-6.9l-3.7,8.4c-3,6.6-10.2,3.7-10.8-1.5C307.4,297.7,302,297.4,300.5,293.2z"/>
<path class="st9" d="M288.4,334.6l20.3-11.6l-13.5-8.1l-14.5-7l-20.8,10.5l15.6,7.7L288.4,334.6z"/>
<path class="st17" d="M276.9,327.4l-1.4-0.4l-1.5-1.1l0.1-0.6l1.2,0.7l1.4,0.8L276.9,327.4z"/>
<path class="st17" d="M274.1,326l-14.4-7v-0.7l14.4,7V326z"/>
<path class="st17" d="M276.8,327.5l11.6,7.9v-0.8l-11.6-7.7V327.5z"/>
<path class="st17" d="M276.8,327.5c0,0.8-2.6-0.7-2.6-1.5v-0.7c0,1,2.6,2.3,2.6,1.4V327.5z"/>
<path class="st17" d="M288.4,335.4v-0.8l20.3-11.6l-0.1,0.7L288.4,335.4z"/>
<path class="st8" d="M261.7,318.1l13.1,6.6l19-9.4l-13.2-6.6L261.7,318.1z"/>
<path class="st16" d="M288.4,306.7c0.4,1.1,0.4,2.3,0.6,3.2l-0.4,1.7l-1,1.7c-0.6,1-1.2,0.4-0.8-0.6l0.7-1.5v-1.2l-2.2,2.3l-1.8,2.9
	c-0.7,0.7-0.8,0.4-1-0.3l-0.7,0.8c-0.6,0.7-1.2,0-1-0.6l-0.3,0.1c-0.6,0.7-1.2,0.1-0.8-0.7l0.3-0.6c-0.7,0.4-0.6-0.3,0-1.2l1.8-3.2
	c0.4-0.7,2.9-3.3,4.1-3.9C286.7,305.4,287.7,305.7,288.4,306.7z"/>
<path class="st16" d="M303.1,317.5c-0.6,1.8-1.7,2.6-3.6,4l-3.6,2.3c-1.1,0.3-1.1-0.1-0.8-0.8l-1.5,1c-1,0.6-1.8,0-1.4-0.8l-1,0.4
	c-1,0.3-1.2-0.3-0.4-1.2l0.6-0.6c-0.8,0.4-1.7,0-0.6-1.1c1.9-2.2,3.6-3.7,5.7-5.2c1.5-0.8,2.8-1,4.6-1.2l3-1l1.5,2.9L303.1,317.5z"
	/>
<path class="st15" d="M327.5,279.8c3.2,2.6,4,5.2,3.4,10.9c-1.4,12.8-6.6,21-6.6,21c-5.5,3-13.2,4.6-21.4,5.8
	c0.1-1.7-0.4-2.9-1.8-3.3c7.3-3.6,15.5-8.4,18.5-8.3c0.1-6.5,1.2-11.7,2.6-17.5C323.4,284.3,324.9,281,327.5,279.8z"/>
<path class="st10" d="M359.8,333.7l39.3,22.6v52.4l-39.3-22.6V333.7z"/>
<path class="st8" d="M443.6,285.3l39.3,22.8l-83.8,48.3l-39.3-22.6L443.6,285.3z"/>
<path class="st9" d="M482.9,360.5v-52.4l-83.8,48.3v52.4L482.9,360.5z"/>
<path class="st10" d="M478.1,311.2l-5-2.8V173.8l5,2.8V311.2z"/>
<path class="st18" d="M482.9,173.8l-4.8,2.8l-5-2.8l5-2.8L482.9,173.8z"/>
<path class="st9" d="M478.1,311.2l4.8-2.8V173.8l-4.8,2.8V311.2z"/>
<path class="st10" d="M256.2,492.2l-4.8-2.8V302.7l4.8,2.8V492.2z"/>
<path class="st18" d="M261.2,302.7l-5,2.8l-4.8-2.8l4.8-2.9L261.2,302.7z"/>
<path class="st9" d="M256.2,492.2l5-2.8V302.7l-5,2.8V492.2z"/>
<path class="st19" d="M345.6,93.9L118.9,225.5l137.3,79.9l226.7-131.7L345.6,93.9z M125.1,225.5L345.6,97.5l131.1,76.3L256.2,301.9
	L125.1,225.5z"/>
<path class="st8" d="M345.6,58L118.9,189.7l137.3,79.9l226.7-131.7L345.6,58z M125.1,189.7L345.6,61.6l131.1,76.3L256.2,266
	L125.1,189.7z"/>
<path class="st9" d="M482.9,173.8L256.2,305.4v-35.9l226.7-131.7V173.8z"/>
<path class="st8" d="M463.6,173v-10.8l-160.4,93.1v10.8L463.6,173z"/>
<path class="st9" d="M345.6,97.5L156,207.6l-30.9-17.9L345.6,61.6V97.5z"/>
<path class="st10" d="M118.9,225.5l137.3,79.9v-35.9l-137.3-79.9V225.5z"/>
<path class="st10" d="M345.6,97.5l100.2,58.4l30.9-17.9L345.6,61.6V97.5z"/>
<path class="st20" d="M459.1,317.3l5-0.6l-0.7-1.4l-3.2-2.3L459.1,317.3z"/>
<path class="st21" d="M467.2,325.3l-10.3-17.1l-11,5.2l10.5,17.1L467.2,325.3z"/>
<path class="st8" d="M455.7,328.6l9.9-4.8l-9.1-14.9l-9.9,4.8L455.7,328.6z"/>
<path class="st16" d="M456.4,312.6l1.9-0.4c0.7,1.5,1.9,2.2,3.2,2.5l1.1,0.4c0.4-1,0.7-1.4,0.8-1.7c-0.1-1.4-1-2.6-1.8-2.9l-3-0.6
	l-3.7,1.4C454.9,312.2,455.3,312.6,456.4,312.6z"/>
<path class="st21" d="M455.3,327.9c0.1,0,0.1,0,0.3,0c0.3-0.1,0.6-0.4,0.6-0.7l-3.2-15c-0.1-0.3-0.4-0.6-0.7-0.6
	c-0.3,0.1-0.6,0.4-0.6,0.7l3.2,15C454.8,327.8,455.1,327.9,455.3,327.9z"/>
<path class="st16" d="M448.6,320.6c-0.1,0.6,0.3,1,0.3,1.4c0,0.1,0,0.4,0,0.7c0,0.1,0,0.4,0,0.6c0,1,2.2,2.3,2.9,2.9l2.9,1.4l3.5,3
	l0.7-1.1l1.7-2.5l-2.5-3c0.1-1.7,0.3-3-0.3-4.3l-1.4-1.7l-2.5-1.2l0.3,1.1c0,0-1-0.7-1.9-1.2c-0.4-0.3-1.2-0.4-1.7,0
	c-0.1,0.1-0.1,0.7-0.3,0.8c-0.1,0.3-0.8,0.6-0.8,0.8c-0.1,0.3,0.1,1,0,1.2C449.1,319.8,448.6,320.1,448.6,320.6z"/>
<path class="st22" d="M453.8,317l2.5,2.1l-2.3-1.4L453.8,317z"/>
<path class="st22" d="M448.7,322.8c0,0.1,0,0.4,0,0.6c0,1,2.2,2.3,2.9,2.9l2.9,1.4l3.5,3l0.7-1.1c-1.5-1-2.8-2.5-3.6-3.6
	C452.6,325.7,449.7,324.8,448.7,322.8z"/>
<path class="st15" d="M467.9,330.2c6.1,3.3,27.6,5.4,29.4-1.1c5.5-18.1,0.4-28.2-3.9-30.1C493.6,299,466,330.8,467.9,330.2z"/>
<path class="st4" d="M460.2,420.5c0-2.5,1.9-3.3,4.7-3.7c2.5,0,5.7,1.1,9.9,2.1l4.8,2.6c1,2.5,1,4.7,0.4,6.8
	c-1.4,1.2-3.2,1.9-4.7,1.5l-5.5-2.3l-0.4-0.8C465,426.2,460.2,424.3,460.2,420.5z"/>
<path class="st4" d="M478,410.7c0-1.9,1.8-2.3,4.4-2.5c4.8,0,5,2.3,9.4,2.3l4.3,2.6c0.8,2.5,0.7,5.2,0.1,7.3
	c-1.2,1.1-3.3,1.4-4.8,1.1l-4.4-2.6l-0.4-0.8C482.5,417.5,478,414.5,478,410.7z"/>
<path class="st23" d="M493.6,343.1l-16,6.6c0,2.9,0,5.5,0.3,7.5c1,7.3,4,18.5,4,18.5c2.1,9.4,3,21.1,3.4,33.5
	c0.1,4.4,6.8,8.3,10.9,4.1c1.2-15,1.2-29.7-2.3-39.5c1.7-7.6,0.1-16.3-0.4-25.1C493.8,347.7,493.1,343.3,493.6,343.1z"/>
<path class="st24" d="M464.6,365.9c0.6,7.3,2.9,18.5,2.9,18.5l1.7,33.4c-0.3,2.2,0.6,4,2.1,5.1c2.3,1.7,6.1,1.7,8.6-1.2
	c2.1-15,2.9-29.5-0.1-39.2c2.1-7.6,2.1-14.8,2.1-23.6c5-1.9,12.6-4.8,12.1-12.6c-0.1-2.9-0.6-5.8-1.2-8.6c-0.1-0.6-0.3-1.1-0.4-1.5
	s-0.3-0.8-0.4-1.2c-2.8,5.4-11.5,8.8-21,7.6c-0.4,0-0.8-0.1-1.2-0.1c-1-0.1-2.1-0.4-3-0.7c0,0-0.1,0.6-0.3,1.5
	c-0.1,0.8-0.3,1.8-0.4,2.9C465.1,351.7,464.2,360.9,464.6,365.9z"/>
<path class="st25" d="M464.6,365.9c0.6,7.3,2.9,18.5,2.9,18.5l1.7,33.5c-0.3,2.2,0.6,4,2.1,5.1c-1.5-14.1-2.1-27.3,0-37.5
	c-3.2-11.6-3.3-24.8,0.3-33.8c0-3.6-1.7-5.7-1-8.3c-1.4-0.4-2.6-1-4-1.5C466.5,341.7,463.9,358.6,464.6,365.9z"/>
<path class="st9" d="M493.3,335.4c-0.4,1.7-0.4,3.5,0,5.1s0.7,3,0.6,4.7c-3.2,4.4-11.2,8.4-19.5,7c-0.4-0.1-1.5-0.4-2.9-0.8
	c-0.1,0-0.1,0-0.3,0c-1-0.3-1.9-0.6-2.9-0.8c-0.1,0-0.3-0.1-0.4-0.1c-0.3-0.1-0.7-0.1-1-0.3c-0.4-0.1-0.7-0.3-1.1-0.3
	c-0.1,0-0.3-0.1-0.4-0.1s-0.3-0.1-0.3-0.1l0.4-6.9c-0.6-5.9-0.6-8.6-0.8-16c0-0.3,0-0.6,0-0.8c0-0.8,0.1-1.7-0.1-2.5
	c-2.6-10.2-0.8-11.3,1.9-13.1c8.8-5.5,15.7-12.7,27.2-11.5C502.3,307.2,493.4,334.6,493.3,335.4z"/>
<path class="st20" d="M471.1,295.4c-0.6-0.7,0.3-2.1,1-2.2c0.8-0.3,1.4,1,1.4,1.7c0.1,1,0,1.7-0.6,2.3c-0.6,0.8-1.5,0-1.8-0.7
	C470.9,296.1,471.5,295.8,471.1,295.4z"/>
<path class="st16" d="M484.2,299.7l-3.9-6.8l-10.6,5.2l4.1,7.6C477.7,305.7,485.6,302.1,484.2,299.7z"/>
<path class="st16" d="M473.3,301.4c0,0-1.2,2.5-3.5,0.6s-5.8-8.6-4.6-13.9c1.2-5.2,10.1,1.9,10.1,1.9L473.3,301.4z"/>
<path class="st4" d="M482.5,297c0,0-4.4,1.4-7.6,3.4c-0.8,0.6-1.8,0.4-2.6-0.1l-1.4-1.1l-1-2.9l-2.1-0.8l0.1-2.2
	c-1.2-0.3-2.2-1.2-3.2-2.3c-2.9-5,3.2-10.3,9.7-9.9C482.8,281.6,484.9,290.4,482.5,297z"/>
<path class="st16" d="M468.7,296.3c0-0.3-0.1-0.7,0-1c0-0.3,0.1-0.7,0.4-0.8c0.6-0.3,1.2,0,1.5,0.4c0.3,0.6,0.4,1.1,0.4,1.7
	c0,0.4,0,0.8,0.1,1.2c0,0.4,0,0.7-0.1,1.1c-0.1,0.3-0.4,0.7-0.8,0.7c-0.3,0-0.6-0.1-0.7-0.4c-0.1-0.3-0.3-0.4-0.3-0.7
	C469,297.9,468.9,297,468.7,296.3z"/>
<path class="st26" d="M471.5,351.5c-0.1,0-0.1,0-0.3,0c-1-0.3-1.9-0.6-2.9-0.8c-0.1,0-0.3-0.1-0.4-0.1c-0.3-0.1-0.7-0.1-1-0.3
	c-0.4-0.1-0.7-0.3-1.1-0.3c-0.1,0-0.3-0.1-0.4-0.1s-0.3-0.1-0.3-0.1l0.4-6.9c-0.6-5.9-0.6-8.6-0.8-16l7.6-6.3
	C474.7,331,474.7,339.3,471.5,351.5z"/>
<path class="st15" d="M464.3,312.1c-3.7,2.3-4,5-4,10.8l0.3,3.4l-2.8-2.6c-2.8-0.1-4,1.2-3.7,4.7c1,5.8,3.9,12.1,8.6,13.8
	c2.6,1,5.2-0.3,6.6-5.2l3.2-13C472.7,315.4,470.9,310.7,464.3,312.1z"/>
<path class="st15" d="M484.4,299.8l-1.1-1.5c-0.7,1.7-4.3,3.9-10.6,5.5l0.1,2.1C478.8,307,485.8,302.4,484.4,299.8z"/>
<path class="st15" d="M414.1,275.5l-6.2-17.3c-1-6.8-5.1-8.1-8.4-9.2l-2.3,12l2.3,4.7l7,14.4c1,2.2,2.1,4.4,3.3,6.6l6.8-5.7
	C415.6,279.2,414.9,277.3,414.1,275.5z"/>
<path class="st15" d="M406.9,274.8l-2.6-16.7l-5,7.5l7,14.4c1,2.2,2.1,4.4,3.3,6.6l1.5-1.2C409.2,281.7,407.9,278.1,406.9,274.8z"/>
<path class="st15" d="M405.1,261.8c0,16.7-10.8,27.3-10.8,27.9c-1,0.7-1.9,1.4-2.9,1.9c-16.6,10.5-22.5-4-22.5-4
	c0.7-5.5-1.5-9.4-0.6-17c0-0.3,0.1-0.7,0.1-1c0.8-7.3,5.7-13.2,12.8-15c1.9-0.6,3.7-1.4,5.1-2.8c3.7-3.4,6.6-4,12-3.4
	C403,251.1,405,255.8,405.1,261.8z"/>
<path class="st15" d="M391.4,291.6c-16.6,10.5-22.5-4-22.5-4c0.7-5.5-1.5-9.4-0.6-17c0.8-5.5,4.4-6.1,9.8-3.9l6.8,13.9L391.4,291.6z
	"/>
<path class="st27" d="M393.5,262.3l1,2.9l1.7-0.6v-3.3l-1.7-1.1L393.5,262.3z"/>
<path class="st9" d="M394.5,265.2c0.4,6.2,0.4,17.8,0,24.3l2.8,2.6l1.9-4.3c-0.4-6.3-1.7-17.3-2.9-23.2L394.5,265.2z"/>
<path class="st16" d="M389.8,248.2c-0.1,0-3.5,4-3.5,4c-4.3,2.5,1.2,11.5,7,10.6l4.8-3.5L389.8,248.2z"/>
<path class="st28" d="M387.3,250.9c-0.8,0.6-2.2,1.5-3.5,2.6c0,0,2.3,11,9.5,11.6c0.6-1.9,1.2-3.5,1.2-3.5
	C390.3,261.2,387.3,254.4,387.3,250.9z"/>
<path class="st28" d="M394.8,261.8l2.6,2.5c0,0,2.5-10.4,0.3-12.6C395.6,249.6,394.8,261.8,394.8,261.8z"/>
<path class="st15" d="M401,256.3c0,4.3-1.2,11.9-4.1,11.3c-4.1,0.7-5.7-11.3-4.1-14.6L401,256.3z"/>
<path class="st16" d="M397,237.3c-5.2,0-8.3,2.5-8.6,8c0.1,5.8,0.4,9.2,3.2,13.2c1.8,2.2,4.1,3.7,6.8,3.6c3.2-0.1,8-7.9,8.4-13.4
	C407.7,243.1,402.9,238.8,397,237.3z"/>
<path class="st4" d="M406.2,252.7c-1.2,2.8-8.1,2.3-11.3-1.1l-0.3,2.1l-2.8-2.3l-2.5,3.2l-0.8-1.2c-2.2-4.6-2.1-11.9,4.3-15.6
	C401.2,234.2,411.9,244.2,406.2,252.7z"/>
<path class="st16" d="M391,253.7c-0.3-0.6-0.7-1.2-0.7-1.8c0-0.7,0.1-1.4,0.6-1.8c0.6-0.4,1.4-0.6,1.8-0.1c0.4,0.3,0.6,0.8,0.6,1.2
	s-0.1,0.8-0.3,1.4c-0.1,0.4-0.3,0.8-0.4,1.2c-0.1,0.3-0.1,0.6-0.4,0.7s-0.6,0-0.7-0.1S391.2,254,391,253.7z"/>
<path class="st8" d="M400.3,316.1l15.6-9.1l22.2,12.8l-15.6,9.1L400.3,316.1z"/>
<path class="st23" d="M422.3,326.1l11.3-6.5l0.7,0.4l-11.3,6.5L422.3,326.1z"/>
<path class="st23" d="M420.6,325.2l11.3-6.5l0.4,0.1l-11.3,6.5L420.6,325.2z"/>
<path class="st23" d="M419.5,324.5l11.3-6.5l0.4,0.3l-11.3,6.5L419.5,324.5z"/>
<path class="st23" d="M418.3,323.8l11.3-6.5l0.4,0.3l-11.3,6.5L418.3,323.8z"/>
<path class="st23" d="M416.1,322.6l11.2-6.5l0.4,0.3l-11.2,6.5L416.1,322.6z"/>
<path class="st23" d="M415,321.9l11.2-6.5l0.4,0.3l-11.2,6.5L415,321.9z"/>
<path class="st23" d="M420.8,317.3l4.3-2.5l0.4,0.1l-4.3,2.5L420.8,317.3z"/>
<path class="st23" d="M412.7,320.6l11.3-6.5l0.4,0.3l-11.3,6.5L412.7,320.6z"/>
<path class="st23" d="M411.6,319.9l11.3-6.5l0.4,0.3l-11.3,6.5L411.6,319.9z"/>
<path class="st23" d="M413.1,317.9l8.7-5l0.4,0.1l-8.7,5L413.1,317.9z"/>
<path class="st23" d="M413.4,313.9l5.1-2.9l0.4,0.1l-5.1,2.9L413.4,313.9z"/>
<path class="st23" d="M412.3,313.2l5.1-2.9l0.4,0.3l-5.1,2.9L412.3,313.2z"/>
<path class="st29" d="M413.4,315.2c0,0.1,0,0.1,0,0.3s0.1,0.4,0.1,0.6c0.1,0.1,0.1,0.4,0.4,0.4c0.1-0.1,0-0.3,0-0.3
	c-0.1-0.1-0.1-0.3-0.3-0.4C413.7,315.5,413.7,315.4,413.4,315.2c0.1-0.3,0.4-0.6,0.8-0.7C413.8,314.7,413.5,314.8,413.4,315.2
	c0-0.1-0.1-0.3-0.1-0.3c-0.6-0.6-1.1-1.1-1.4-1.7c-0.1-0.3,0-0.6,0.1-0.8s0.6-0.6,1.1-0.4s0.6,0.6,0.6,0.8c-0.1,0.3-0.3,0.6-0.6,0.7
	c0.4-0.4,1-1,0.4-1.4c-0.3-0.1-0.6-0.3-1-0.1s-0.6,0.3-0.7,0.6c-0.3,0.6,0,1.1,0.6,1.7c0.3,0.3,0.6,0.6,0.8,0.8
	C413.2,315.1,413.4,315.1,413.4,315.2z M413.8,316.1c0.1,0.1,0.3,0.3,0.1,0.6c-0.1,0-0.1-0.1-0.3-0.3c0-0.1-0.1-0.1-0.1-0.3
	c-0.1-0.1-0.1-0.3-0.1-0.6v-0.1C413.7,315.5,413.8,315.8,413.8,316.1z"/>
<path class="st29" d="M409.1,317.3c0.8-0.1,1.2-0.7,1-1.1c-0.1,0-0.1,0-0.3,0c0.1-0.1,0-0.1,0-0.3s0-0.1,0-0.3
	c0.1,0.1,0.3,0.1,0.4,0.3c0.1,0,0.3,0,0.3,0c0-0.1,0-0.3,0-0.3c0.1,0.1,0.4,0.1,0.6,0s0.1-0.3,0-0.4c0.4,0.4,0.8,0.7,1.5,1.1
	c0-0.3-0.1-0.4-0.3-0.6c-0.3-0.3-0.4-0.4-0.6-0.7c-0.1-0.1-0.1-0.3-0.1-0.3c0-0.1-0.1-0.3,0-0.4c0,0.1,0.1,0.3,0.1,0.4
	c0.1,0.1,0.3,0.3,0.4,0.4s0.3,0.1,0.4,0.3c0.4,0.1,0.3-0.4,0.1-0.4c-0.1-0.3-0.4-0.4-0.7-0.7c-0.1-0.1-0.3-0.1-0.4,0l0.1-0.1
	c0.1,0,0.3,0,0.4,0.1s0.3,0.3,0.4,0.4s0.4,0.3,0.1,0.4c0.1-0.1,0.1-0.1,0-0.3s-0.3-0.3-0.4-0.4s-0.4-0.4-0.8-0.3
	c-0.1,0-0.1,0.1-0.1,0.1l-0.1,0.1c0,0.1,0,0.3,0.1,0.4s0.1,0.3,0.3,0.4s0.3,0.3,0.4,0.6c0.1,0.1,0.3,0.3,0.4,0.6
	c-0.7-0.4-1.2-0.8-1.7-1.2c0-0.1-0.1-0.1-0.1-0.3c0,0-0.1,0,0,0c0,0.1,0.1,0.1,0.3,0.3s0.1,0.3,0.1,0.4v0.1c-0.1,0.1-0.4,0-0.6,0
	c-0.1-0.1-0.3-0.3-0.4-0.4c0,0.1,0.1,0.3,0.3,0.3l0.1,0.1v0.1c0,0.1-0.1,0.1-0.3,0c-0.1,0-0.3-0.1-0.4-0.1c0,0.1,0,0.3,0,0.4
	s-0.3,0-0.3,0s0,0-0.1,0c0.1,0.1,0.4,0.1,0.7,0.1C410.2,316.6,409.8,317,409.1,317.3C409,317.3,409.1,317.3,409.1,317.3z
	 M411.4,314.3c0.3-0.1,0.7,0.3,0.8,0.4s0.1,0.1,0.1,0.3v0.1c0,0.3-0.3,0.1-0.3,0.1c-0.3-0.1-0.6-0.4-0.7-0.6
	C411.6,314.6,411.6,314.4,411.4,314.3z"/>
<path class="st30" d="M395.9,311.4l2.1,2.1l3.5-5.4l-3-1.4L395.9,311.4z"/>
<path class="st16" d="M406.8,309.6c-0.3,0.7-0.4,1.5-0.1,2.5l-0.3,0.7l-0.3,0.7l-0.3,1.1c-0.3,0.3-0.6,0.4-1,0.4l-0.6,0.8
	c-0.1,0.1-0.4,0.3-0.8,0.1l-0.6,0.7c-0.4,0.3-1.4,0.1-2.6,0c-0.1,0-2.1-1-2.1-1s-0.7-0.3-0.7-0.7c-0.1-0.7,0-0.8,0-1.1
	c-0.1-0.3-0.6-0.6-0.6-1.2c0-0.8,0.6-0.8,0.6-1.2c0-0.3-0.3-0.4,0-1.2c0.1-0.7,1-0.7,1.2-1.1c0.1-0.3,0.3-1.1,0.8-1.7s1.8,0,1.8,0
	l1.4,0.8l3-0.4l0.3,0.1C406.8,308.1,407,308.9,406.8,309.6z"/>
<path class="st16" d="M403.2,308.2l2.2,0.3c0,0,0,2.3,0,2.2s-0.8-1-1.5-1.7C403.4,308.6,403.2,308.2,403.2,308.2z"/>
<path class="st23" d="M408.1,315.9l-8.7-11.3c-0.3-0.3-0.1-0.7,0.1-0.8c0.3-0.3,0.7-0.1,0.8,0.1l8.7,11.3c0.3,0.3,0.7,1.4,0.4,1.7
	C409.2,317,408.3,316.2,408.1,315.9z"/>
<path class="st16" d="M406.3,312.8l-0.3,0.7l-0.3,1.1c-0.3,0.3-0.6,0.4-1,0.4l-0.6,0.8c-0.1,0.1-0.4,0.3-0.8,0.1l-0.6,0.7
	c-0.4,0.3-1.4,0.1-2.6,0c0.8-1.4,1.4-2.9,1.5-4.4l-1.2-1.9l5,1.7L406.3,312.8z"/>
<path class="st16" d="M400,309.5l2.2,1.8l3,1c1.1,0.4,1.7-1,0.6-1.7c-0.1,0-2.3-1-2.3-1l-1.8-2.3C400.3,307.2,399.6,308.5,400,309.5
	z"/>
<path class="st16" d="M402.3,308.1l-1.4-0.1l2.3,1.8l-0.6-1.7H402.3z"/>
<path class="st31" d="M409.7,317l-0.3-0.3l0.1-0.1l0.1,0.3C409.8,316.9,409.8,316.9,409.7,317z"/>
<path class="st15" d="M373.5,262.1c4.3,0.3,6.3,2.8,7.6,9.7l4.1,17.4c4.8,4.1,9.1,10.1,14.1,17.9c-1.7,1.2-3,3.2-2.6,5.1
	c-8-4.8-14.6-10.8-19.7-18.6C372.1,280.7,365.2,266.4,373.5,262.1z"/>
<path class="st16" d="M429.5,305.9c0.4,0.8-0.4,1.7-1,1.1l-0.3-0.1c0.3,0.6-0.6,1.5-1.2,1l-0.8-0.7c0,0.8-0.3,1.2-1.1,0.7l-2.3-2.8
	L420,303v1.5l0.8,1.5c0.4,1-0.4,1.8-1,1l-0.7-1.1l-0.4-0.6l-0.6-1.8c0-1,0.1-2.5,0.7-4l-1-0.7l2.8-1.9l1.4,0.8
	c1.5,0.1,4.6,2.3,5.1,3l2.2,3.2c0.7,0.8,0.7,1.8,0,1.4L429.5,305.9z"/>
<path class="st15" d="M409.7,286.7c2.5,4.8,5.5,9.5,8.8,14.1l0.8-1.1c0.8-1.1,1.8-1.8,2.8-1.9c-1-5-3.5-10.8-5.8-16.7L409.7,286.7z"
	/>
<path class="st15" d="M409.7,286.7c2.5,4.8,5.5,9.5,8.8,14.1l0.8-1.1c-3.3-4.8-6.1-9.7-8.3-14.2L409.7,286.7z"/>
<path class="st16" d="M427,307.7l-0.8-0.7c0,0.8-0.3,1.2-1.1,0.7l-2.3-2.8l-2.8-2.1v1.5l0.8,1.5c0.4,1-0.4,1.8-1,1l-0.7-1.1
	c0.4,0.6,0.8,1,1.2,0.8c0.1-0.6-0.3-1.5-0.8-2.3c0.3-0.7,0.3-1.7,0.1-2.8c0.8,1.4,1.9,2.2,3.3,2.3c0.6,1.4,1.4,2.8,2.3,3.5
	c0.4,0,0.6-0.4,0.7-0.8c0.4,0.6,1,1,1.5,0.8l0.6-0.6C428.6,307.4,427.7,308.3,427,307.7z"/>
<path class="st8" d="M292.9,266.5c0,5.2-4.3,11.9-9.5,14.9c-5.2,3-9.5,1.2-9.5-4c0-5.2,4.3-11.9,9.5-14.9S292.9,261.3,292.9,266.5z"
	/>
<path class="st10" d="M343.7,429.5c-0.7-0.4-1.4-0.4-1.8-0.1l-28.4,16.6c0.4-0.3,1.1-0.3,1.8,0.1l27.6,16l28.4-16.6L343.7,429.5z"/>
<path class="st32" d="M319.4,357.9l28.4-16.6c0.1-0.1,0.6-0.1,0.8,0.1L320.2,358C319.8,357.8,319.5,357.8,319.4,357.9z"/>
<path class="st9" d="M320.1,357.9l28.4-16.6c0.3,0.1,0.6,0.4,0.7,0.8c3.2,5.5,5.9,11.3,8.4,17.4c1.7,4,3,8.1,4.4,12.3
	c2.2,7.2,4,14.4,5.5,21.4c0.8,4,1.5,8,2.2,11.9c1.1,7,1.9,13.7,2.5,19.7c0.4,4,0.7,7.9,0.8,11.3c0.4,6.8,0.6,12.3,0.6,15.9
	l-28.4,16.6c0-3.6-0.1-9.1-0.6-15.9c-0.1-3.5-0.4-7.3-0.8-11.3c-0.6-6.1-1.4-12.7-2.5-19.7c-0.6-3.9-1.4-7.9-2.2-11.9
	c-1.4-7-3.3-14.2-5.5-21.4c-1.2-4.1-2.8-8.1-4.4-12.3c-2.3-6.1-5.2-11.9-8.4-17.4C320.6,358.3,320.4,358.2,320.1,357.9z"/>
<path class="st7" d="M320.1,357.9c0.3,0.1,0.6,0.4,0.7,0.8c3.2,5.5,5.9,11.3,8.4,17.4c1.7,4,3,8.1,4.4,12.3c2.2,7.2,4,14.4,5.5,21.4
	c0.8,4,1.5,8,2.2,11.9c1.1,7,1.9,13.7,2.5,19.7c0.4,4,0.7,7.9,0.8,11.3c0.4,6.8,0.6,12.3,0.6,15.9l-32.6-18.8v-2.2
	c0-1.7,1.1-2.3,2.6-1.5l27.6,16c-0.1-3.6-0.3-7-0.6-10.5c-0.3-3.9-0.6-7.7-0.8-11.3c-0.7-6.9-1.5-13.4-2.3-19.5
	c-0.7-4.1-1.4-8.1-2.2-11.9c-1.7-7.7-3.5-14.6-5.4-20.7c-1.4-4.4-2.9-8.6-4.4-12.3c-1.9-5-4-9.2-6.1-13c-0.7-1.2-1.2-2.3-1.8-3.3
	c-0.1-0.4-0.3-0.7-0.3-1.1C319.1,357.9,319.5,357.6,320.1,357.9z"/>
<path class="st2" d="M333.3,373.8l21.3-12.4l2.8,0.3L336.1,374L333.3,373.8z"/>
<path class="st10" d="M336.1,374l3.6,12.1l-2.1-0.1c-1.2-4.1-2.8-8.1-4.4-12.3L336.1,374z"/>
<path class="st33" d="M343,405.9l21.3-12.4l2.6,1.1l-21.3,12.3L343,405.9z"/>
<path class="st2" d="M343,405.9l21.3-12.4l2.6,1.1l-21.3,12.3L343,405.9z"/>
<path class="st10" d="M345.6,406.9l1.7,11.6l-2.1-0.8c-0.6-3.9-1.4-7.9-2.2-11.9L345.6,406.9z"/>
<path class="st33" d="M347.8,438.9l21.3-12.4l2.5,1.2l-21.3,12.4L347.8,438.9z"/>
<path class="st2" d="M347.8,438.9l21.3-12.4l2.5,1.2l-21.3,12.4L347.8,438.9z"/>
<path class="st10" d="M350.3,440.1l0.6,11.2l-2.2-1.1c-0.1-3.5-0.4-7.3-0.8-11.3L350.3,440.1z"/>
<path class="st8" d="M350,350.3l-1.4-0.1l-14.2,8.3l7.2,24l1.4,0.1l14.2-8.1L350,350.3z"/>
<path class="st34" d="M335.8,358.6l14.2-8.3l7.2,24.1l-14.2,8.1L335.8,358.6z"/>
<path class="st8" d="M362.3,382.5l-1.5-0.6l-14.2,8.3l3.3,23.3l1.5,0.4l14.1-8.1L362.3,382.5z"/>
<path class="st34" d="M348.1,390.6l14.2-8.1l3.2,23.3l-14.1,8.1L348.1,390.6z"/>
<path class="st8" d="M368.1,417.8l-1.8-1l-14.2,8.3l1.2,22.1l1.8,1l14.2-8.3L368.1,417.8z"/>
<path class="st34" d="M353.9,425.9l14.2-8.1l1.2,22.1l-14.2,8.3L353.9,425.9z"/>
<path class="st11" d="M350.3,440.1l21.3-12.4l0.7,11.2l-21.4,12.4L350.3,440.1z"/>
<path class="st11" d="M345.6,406.9l21.3-12.3l1.7,11.6l-21.3,12.4L345.6,406.9z"/>
<path class="st11" d="M336.1,374l21.3-12.4l3.7,12.1l-21.4,12.4L336.1,374z"/>
<path class="st4" d="M296.2,467c0,0-0.7,3.9-0.4,5.5c0.4,1.7,4.8,2.8,4.8,2.8s6.2,5.8,11.5,5.4c3.2-0.3,4.1-1.1,4.7-1.9
	c0.6-1,0-2.1-0.6-2.9s-7-3.6-8.7-6.2c-0.8-1.2-2.1-3.9-2.1-3.9l-0.6-5l-8.6-0.4l0.4,5.8L296.2,467z"/>
<path class="st5" d="M288.6,405.5l5.4,27.3c-2.1,10.9-1.5,22.4,1.2,34.2c1.7,4.6,7.6,3.2,11.3,0c-1.1-8.8-1.2-19.2-1.1-30.1l1.1-7.2
	c0,0,0.8-3.7,0.8-17.5c0-7.2-4.1-22.6-4.1-22.6L288.6,405.5z"/>
<path class="st4" d="M277.3,476.6c-0.7,1.2-0.7,3.3-0.7,6.3c0.8,1.7,2.1,3,3.6,3.6c0,0,2.6,6.3,9.8,6.5c6.8,0.1,6.8-2.6,6.8-2.6
	s0-1.5-1.5-2.9c-1-0.8-5.9-4.8-6.9-5.9c-0.8-1.1-1.7-3-1.7-3l-0.3-5h-9.1V476.6z"/>
<path class="st6" d="M293.2,411.4c0,13.9,0.6,22.1-3.2,29.1c0,0-0.8,5.8-1.8,9.4c-1.1,3.7-0.8,19.9-0.4,29.4
	c-1.9,3.2-6.3,3.6-9.2,1.7c-1.1-0.8-2.1-1.9-2.5-3.4c-2.3-15-4-26.9,1.9-38c-1.9-9.7-1.7-19.2-1.1-29.8c-0.7-6.3,0.1-11.5,1.9-15.9
	c0.4-1.1,1-2.2,1.7-3.2l24.7,5.8C302.6,405.5,298.1,410.3,293.2,411.4z"/>
<path class="st14" d="M282,440.4c-7.6,7.7-5.4,22.8-3.5,40.4c-1.1-0.8-2.1-1.9-2.5-3.4c-2.3-15-4-26.9,1.9-38
	c-1.9-9.7-1.7-19.2-1.1-29.8c-0.7-6.3,0.1-11.5,1.9-15.9l8.6,9.7C279,408.9,277.3,427.6,282,440.4z"/>
<path class="st16" d="M311,395c-0.7,1.7-1.4,3.2-2.1,4.7c-0.6,2.2-1.5,4.3-2.8,6.3c-0.4,1.5,0.4,1.5,1.8,0.7l2.9-4.3
	c0.8,0.7,1.4,1.9,1.8,3.3l-0.8,6.5c0.1,1.2,0.7,1.1,1.4,0.4l1.1-5.9l0.1,6.3c0.4,0.6,0.8,0.4,1.1-0.6l0.4-1.8c0.3,0.7,0.7,0.6,1-0.1
	c0,0,0.3-7.7,0.3-7.9s-2.5-9-2.5-9l-1-1.9l-3.9,1.1L311,395z"/>
<path class="st15" d="M298.6,358.2c1.4,5.1,1,11.5,2.8,18.9c2.5,7.5,3.6,11.5,7,20c0.6,0.8,7.2-0.6,6.9-1.4
	c-3.6-16.4-1.5-11-3.7-18.1c-1-5.4-1.1-12.4-1.8-18.9c-0.4-4.3-2.1-6.6-4.3-7.7C300.4,349.2,295.7,353.3,298.6,358.2z"/>
<path class="st15" d="M305.6,386.6c0,0.1,0,0.3,0,0.4c-0.1,1.5-0.3,3.2-0.4,4.8c-0.1,0.7-0.1,1.2-0.3,1.9c0.7,3.4-4.4,6.3-10.1,8
	c-5.1,1.7-10.8,2.2-12.8,1.5c-4.6-1.7-6.1-6.1-6.1-6.1l-1-17.9l-0.1-1.5l-1.8-14.2c2.8-3.5,6.9-7,9.7-8.4c6.8-4.6,13-6.5,21.3-4.1
	C306.7,360,307.3,368.5,305.6,386.6z"/>
<path class="st35" d="M294.3,360.6l3.2,2.2c0,0,2.3-8.1,0.1-10.4C295.4,350.3,294.3,360.6,294.3,360.6z"/>
<path class="st16" d="M284.6,354l3.9-8l9.9,5l-1.4,6.2C295.1,364.5,283.4,360.2,284.6,354z"/>
<path class="st9" d="M295.9,364.9v-3.2l-1.7-1.1l-0.8,2.1l0.8,2.9c0.4,5.9,1.2,15.7,0.7,22.1l2.6,2.5l1.8-4.1
	C299.1,379.8,297.2,370.7,295.9,364.9z"/>
<path class="st28" d="M285.6,352.1l-2.1,2.5c0,0,3.3,9.5,9.4,9.5c0.8-1.9,1.4-3.5,1.4-3.5C289.9,360,285.6,355.4,285.6,352.1z"/>
<path class="st15" d="M305.5,387c-0.1,1.5-0.3,3.2-0.4,4.8c-0.1,0.7-0.1,1.2-0.3,1.9c0.7,3.4-4.4,6.3-10.1,8
	c-5.1,1.7-10.8,2.2-12.8,1.5c-4.6-1.7-6.1-6.1-6.1-6.1l-1-17.9l9.7-7.2c1.5,6.6,1.1,7.6,2.6,12.6c2.6,1.5,14.1-0.8,18.5,1.9
	C305.5,386.6,305.5,386.7,305.5,387z"/>
<path class="st15" d="M300.4,354.2c0.8,4.3,1.4,10.4-1.2,10.6c-1.7,0-5-3-6.5-8.3c-1.2-4.1-1-7.2-1-7.2L300.4,354.2z"/>
<path class="st16" d="M291.4,350.3l2.5,3.6c0.4,1,1.4,1.5,2.3,1.8c1.9,0.4,3.9,0.4,5.7,0.1c1-0.3,1.5-0.7,1.8-1.5s0.6-4.8,0.6-4.8
	s0.7-0.4,1-0.8c0.1-0.4,0.1-0.8-0.1-1.2c-0.3-0.3-1.8-3.2-1.8-3.2l0.7-2.9c-0.3-4.7-3-8-9.4-9.4c-5.5-1-9.1,1.7-10.2,7.5
	C283.2,346.7,285.5,349.5,291.4,350.3z"/>
<path class="st4" d="M285.9,349.2c0.8,0.7,1.7,1,2.6,1c0.6,0,1-0.3,1.1-0.8l1-2.8l2.5-0.1c0.4,0,0.7-0.4,0.7-0.8v-1.1
	c0-0.8,0.6-1.4,1.2-1.7c4-0.8,7.7-1.8,8.8-3.4c0.1-0.1,0.1-0.4,0.1-0.7c-1.2-7.6-16.8-12-19.9-0.8
	C282.8,342.4,283.4,346,285.9,349.2z"/>
<path class="st16" d="M289.9,345.2c-0.7,0.3-1.1,1-1.1,1.8c0,0.7,0.4,1.4,0.7,2.1c0.1,0.4,0.4,0.8,0.7,1.1s0.8,0.4,1.2,0.3
	s0.6-0.4,0.7-0.8s0.1-0.7,0.1-1.1c0-0.8,0-1.7-0.4-2.3C291.5,345.5,290.7,344.9,289.9,345.2z"/>
<path class="st16" d="M313.6,378.6c1.2,0.6,2.9,0.4,4.8-0.1l2.3-1.2c0.7,0.4,1.7-0.3,2.8-0.8c0.6-0.7,0.7-1.2,0.1-1.8
	c0.3-0.8,0.1-1.5-0.4-1.8c0.1-0.8,0-1.4-0.7-1.8c0-0.8-0.1-1.5-1-1.8l5.5-3.6c1.2-0.8,0.7-2.1-1-1.2l-10.6,6.1
	c-1.5,0.7-2.9,1.8-4,3.3l-2.5,3.4l3.4,3.7L313.6,378.6z"/>
<path class="st15" d="M314.6,379.8c-2.9,4-18.5,13-24,13c-7-5.4-8.6-6.1-16-14.4c-7.6-11.3-0.4-22.4,8.1-12.4
	c4.8,5.4,8,9.8,10.8,14.2c7.7-3,17.3-6.1,17.4-6.1C310.3,375.7,313.1,379.6,314.6,379.8z"/>
<path class="st16" d="M424.6,431.3l-0.3,3.6l-0.7,2.2l-1.5,2.9c-0.4,0.8-1.2,0.7-1.2-0.1l-0.8,1.4c-0.7,1.1-1.7,0.1-1.1-1l1.1-2.9
	l-1.9,3.6c-0.8,1.1-1.8,0.4-1.4-1l1.5-4l-1.7,3c-0.6,0.7-1.7,0.3-1.4-1l1.8-5.1c0,0,0.3-1.1-0.1-1.9c-0.3-0.7-2.9,0.7-2.9,0.7
	c-1,0.6-1.8,1-2.3,1.4c-0.8,0.1-1.2-0.1-1.1-0.7l1.8-1.9l2.1-1.8l0.8-0.8c1.5-1,2.9-1.7,4-1.8l0.1-0.4l0.3-0.7l1.9,0.3l2.9,0.4
	l-0.1,2.2l0.1,1.1L424.6,431.3z"/>
<path class="st16" d="M416.6,430.6l4-1l2.1,3.6l-1.8,6.5c0-1.8,0.1-3.9-1-4.3l-1.9-0.3l1.7-1.1l-0.3-1.7l-3.5-0.6L416.6,430.6z"/>
<path class="st11" d="M415.7,382.6l1.2,14.2l1,11.9c0.8,6.9,1.8,12.4,1.2,16c0,0.4,0,0.7,0.1,1c0.3,0.8,1.1,1.7,2.2,2.2
	c0.8,0.4,1.9,0.8,3,1.1c1.7-7,3-13.8,2.5-19.3l-1.1-13.9C425.4,387.7,423.5,381.6,415.7,382.6z"/>
<path class="st16" d="M414.1,428.7l7.2-0.8c-1.1-0.6-1.9-1.2-2.2-2.2l-0.1,0.4c-1.1,0.1-2.5,0.8-4,1.8L414.1,428.7z"/>
<path class="st11" d="M417.9,408.7c0.8,6.9,1.8,12.4,1.2,16c0,0.4,0,0.7,0.1,1c0.3,0.8,1.1,1.7,2.2,2.2c0-0.8,0-1.8,0-2.6
	c0.4-13.2,4.4-24.3-0.1-30.4l-4.4,2.1L417.9,408.7z"/>
<path class="st23" d="M381.5,514.8c0-2.6,2.1-3.6,5-3.9c2.6,0,6.1,1.1,10.8,2.2l5.2,2.9c1,2.8,1,5.1,0.4,7.3
	c-1.5,1.2-3.3,2.1-5.1,1.7l-5.9-2.5l-0.4-0.8C386.7,521,381.5,518.8,381.5,514.8z"/>
<path class="st23" d="M400.7,504.3c0-2.1,1.9-2.5,4.7-2.8c5.1,0,5.4,2.6,10.1,2.5l4.7,2.8c1,2.8,0.7,5.7,0.1,7.9
	c-1.4,1.2-3.6,1.5-5.2,1.2l-4.8-2.8l-0.4-0.8C405.7,511.6,400.7,508.3,400.7,504.3z"/>
<path class="st23" d="M417.7,431.6l-17.1,7.2c0,3,0,5.9,0.3,8c1.1,7.9,4.3,19.9,4.3,19.9c2.3,10.2,3.2,22.8,3.7,36
	c0.1,4.8,7.2,9,11.7,4.4c1.2-16.1,1.2-31.9-2.5-42.4c1.8-8.3,0.1-17.4-0.4-26.9C418.1,437.7,417.1,431.9,417.7,431.6z"/>
<path class="st24" d="M404.8,448.6c0,9.5,0.1,17.1-2.2,25.4c3.2,10.4,2.3,25.9,0.1,42.1c-2.8,3-6.8,3-9.2,1.2
	c-1.7-1.1-2.6-3-2.2-5.5l-1.8-36c0,0-2.5-11.9-3.2-19.9c-0.7-7.9,2.2-25.9,2.2-25.9c1.5,0.4,3,0.7,4.6,1c10.2,1.2,19.6-2.3,22.5-8.1
	c0.1,0.4,0.3,0.8,0.4,1.2c1.1,3.5,1.8,7.2,1.9,10.9C418.2,443.4,410.1,446.5,404.8,448.6z"/>
<path class="st11" d="M386.2,400c0.8,5.2,0.8,10.4,1,15.2c0,1.8,0,3.6,0.1,5.4c0.1,3.3,0.4,6.6,1.2,9.7c1.5,0.7,2.9,1.2,4.3,1.7
	c8.8,2.8,16.8,1.4,23.2-7.6c1.5-3.7,5.8-16.4,6.9-29.7c0-6.1-1.9-10.3-7.2-11.7c-9.1,2.2-18.5,7.9-28,16
	C387.2,399.2,386.7,399.6,386.2,400z"/>
<path class="st16" d="M396,383.3l0.8,8.3c5.4,0,13.7-3.7,12.7-6.6l-2.8-5.4L396,383.3z"/>
<path class="st16" d="M393.5,384.4c2.1,2.3,5.4,2.1,8.6,1.2c4.7-2.2,8.1-5.5,7.7-11.6c0.4-4.6-1.7-9.2-9.4-9c-4.8,0.1-9,1.9-9.4,7.2
	C391.2,372.1,390.9,381.9,393.5,384.4z"/>
<path class="st36" d="M396.5,388.7l-1.9,4.4c9.1-1,17.4-4.4,15.3-8.7l-1.7-1.9C409.5,385.6,400.5,389.2,396.5,388.7z"/>
<path d="M391.2,370.9c0.4,1.8,1.5,3.2,3.2,4.3c0,0-0.4,4-0.1,4.1s2.3,1.9,2.3,1.9l1.1,3c3.6,2.6,9.1,0.7,10.8-1.8
	c1-1.2,2.1-6.2,1.8-10.9c-0.6-4-3.5-7.9-9.5-8.1C394.3,363.3,390.6,366.7,391.2,370.9z"/>
<path class="st16" d="M394.7,379.8c-0.6-0.7,0.3-2.2,1-2.3c1-0.3,1.4,1,1.5,1.8c0.1,1,0,1.7-0.6,2.5c-0.7,1-1.7,0-1.9-0.7
	C394.6,380.5,395.2,380.2,394.7,379.8z"/>
<path class="st37" d="M386.3,456c0.7,7.9,3.2,19.9,3.2,19.9l1.8,36c-0.3,2.3,0.7,4.3,2.2,5.5c-1.5-15.2-2.2-29.4,0-40.3
	c-3.5-12.4-5-25.5-1-35.2c0-3.9-0.4-7.3,0.4-10.1c-1.4-0.4-2.9-1-4.3-1.7C388.4,430.1,385.6,448.1,386.3,456z"/>
<path class="st38" d="M401.1,471.5c0-1.2-0.7-2.8-1.8-3.5l-28.8-18.8c-1.1-0.7-1.9-0.3-2.1,1l-0.4,7.6l-0.8,15
	c0,1.2,0.7,2.8,1.8,3.5l28.8,18.8c1.1,0.7,1.9,0.3,2.1-1l0.8-15L401.1,471.5z"/>
<path class="st38" d="M368.9,449.1l-2.2,1.8l30.4,46.2l2.2-1.7L368.9,449.1z"/>
<path class="st23" d="M398.6,473.4l-1.2,22.8c0,1.2-1,1.7-2.1,1l-28.8-18.8c-1.1-0.7-1.8-2.2-1.8-3.5l1.2-22.8c0-1.2,1-1.7,2.1-1
	l28.8,18.8C397.9,470.5,398.8,472.2,398.6,473.4z"/>
<path class="st39" d="M398.6,473.4l-0.4,7.6c-0.1,2.5-1.9,3.3-4,2.1l-25.1-16.4c-2.1-1.4-3.6-4.4-3.5-6.9l0.4-7.6c0-1.2,1-1.7,2.1-1
	l28.8,18.8C397.9,470.5,398.8,472.2,398.6,473.4z"/>
<path class="st8" d="M382.2,479.2l-1.4-0.8c-0.4-0.3-0.8-1-0.8-1.7l0.3-6.3l3,2.1l-0.3,6.3C383,479.3,382.6,479.5,382.2,479.2z"/>
<path class="st8" d="M384,475.6l-4.6-2.9c-0.3-0.3-0.6-0.7-0.6-1.1v-1.2c0-0.4,0.3-0.6,0.7-0.3l4.6,2.9c0.3,0.3,0.6,0.7,0.6,1.1v1.2
	C384.7,475.6,384.3,475.7,384,475.6z"/>
<path class="st23" d="M379.7,452.4l-0.1,3.7l-1.9-0.1l0.1-2.5c0-0.4,0.3-0.8,0.6-1.2L379.7,452.4z"/>
<path class="st40" d="M379.3,455.7c0.4,0.3,0.3,0.6,0,0.8c-0.4,0.1-1,0.1-1.4-0.1s-0.3-0.6,0-0.8C378.3,455.5,379,455.5,379.3,455.7
	z"/>
<path class="st40" d="M381.1,456.3l-3-1.9l1.5-2.5l3,2.1L381.1,456.3z"/>
<path class="st41" d="M382.9,454.6c0,0.7-0.6,1.4-1.1,1.7s-1,0-1-0.7s0.6-1.4,1.1-1.7S383,453.9,382.9,454.6z"/>
<path class="st23" d="M379.8,452.6c0,0.1,0,0.4-0.1,0.6c-0.1,0.4-0.6,0.8-1,1.1c-0.3,0.1-0.6,0.1-0.7,0c-0.3-0.1-0.3-0.4-0.3-0.7
	c0-0.4,0.3-0.8,0.6-1.2c0.1-0.1,0.4-0.4,0.6-0.4c0.3-0.1,0.6-0.1,0.7,0h0.1C379.8,452.1,379.8,452.3,379.8,452.6z"/>
<path class="st16" d="M380.1,449.8l-2.5,5.2c-0.6,1.7-0.3,2.9,0.7,4c1.1,1.2,3,2.2,5.1,3l3.2-2.1l-0.3-3c1.5-1,1.5-3.2,0.6-5.9
	C384.7,449.4,382.5,448.8,380.1,449.8z"/>
<path class="st42" d="M386.7,455.3l-2.6,2.2l0.7,2.1l1-0.7c0.4,0.7,1,1,1.4,0.7l0.1-0.8L386.7,455.3z"/>
<path class="st43" d="M388.1,460.8l-3-1.9l1.5-2.5l3,2.1L388.1,460.8z"/>
<path class="st43" d="M389.9,459.2c0,0.7-0.6,1.4-1.1,1.7s-1,0-1-0.7s0.6-1.4,1.1-1.7S389.9,458.5,389.9,459.2z"/>
<path class="st23" d="M386.9,457.1c0,0.7-0.6,1.4-1.1,1.7s-1,0-1-0.7s0.6-1.4,1.1-1.7C386.5,456.3,386.9,456.6,386.9,457.1z"/>
<path class="st23" d="M388.1,460.8l-3-1.9l1.5-2.5l3,2.1L388.1,460.8z"/>
<path class="st23" d="M389.9,459.2c0,0.7-0.6,1.4-1.1,1.7s-1,0-1-0.7s0.6-1.4,1.1-1.7S389.9,458.5,389.9,459.2z"/>
<path class="st23" d="M388,459l-0.2,3.7l1.9,0.1l0.2-3.7L388,459z"/>
<path class="st23" d="M389.5,462.5c0.4,0.3,0.3,0.6,0,0.8c-0.4,0.1-1,0.1-1.4-0.1c-0.4-0.3-0.3-0.6,0-0.8
	C388.5,462.2,389.1,462.2,389.5,462.5z"/>
<path class="st11" d="M397.2,407.6l2.1,25.4l-9.1,13.2l-1.4-21.8L397.2,407.6z"/>
<path class="st11" d="M389.9,396.8c-4,2.5-5.8,3.9-5.9,11.7l1,21.1l-4.8,20c0.4,2.2,5.2,3.5,7,2.1c3.2-5.2,4.8-9.8,8.3-18.6
	l1.9-23.2C397.9,401.4,398.1,395.7,389.9,396.8z"/>
<path class="st10" d="M161.5,379.4c0.1,0,0.1-0.1,0.1-0.3c0-0.4-0.3-0.8-0.6-1c-0.1-0.1-0.3-0.1-0.4,0l-25.3,14.6
	c-0.1,0-0.1,0.1-0.1,0.4c0,0.4,0.3,0.8,0.6,1c0.1,0.1,0.3,0.1,0.4,0L161.5,379.4z"/>
<path class="st10" d="M161.5,330.2c0.1,0,0.1-0.1,0.1-0.3c0-0.4-0.3-0.8-0.6-1c-0.1-0.1-0.3-0.1-0.4,0l-25.3,14.6
	c-0.1,0-0.1,0.1-0.1,0.4c0,0.4,0.3,0.8,0.6,1c0.1,0.1,0.3,0.1,0.4,0L161.5,330.2z"/>
<path class="st44" d="M157.3,312.2h-1.8l-19.9,11.5l11,33.4h1.7l19.9-11.6L157.3,312.2z"/>
<path class="st9" d="M137.4,323.8l19.9-11.6l10.9,33.3l-19.9,11.6L137.4,323.8z"/>
<path class="st8" d="M139.4,324.5l16.8-9.8l9.9,30.1l-17,9.8L139.4,324.5z"/>
<path class="st13" d="M135.6,323.7l19.9-11.5h1.8l-19.9,11.6L135.6,323.7z"/>
<path class="st13" d="M137.4,323.8l10.9,33.3h-1.7l-11-33.4L137.4,323.8z"/>
<path class="st44" d="M157.3,362.2h-1.8l-19.9,11.5l11,33.4h1.7l19.9-11.6L157.3,362.2z"/>
<path class="st9" d="M137.4,373.8l19.9-11.6l10.9,33.3L148.3,407L137.4,373.8z"/>
<path class="st8" d="M139.4,374.4l16.8-9.8l9.9,30.1l-17,9.8L139.4,374.4z"/>
<path class="st13" d="M135.6,373.6l19.9-11.5h1.8l-19.9,11.6L135.6,373.6z"/>
<path class="st13" d="M137.4,373.8l10.9,33.3h-1.7l-11-33.4L137.4,373.8z"/>
<path class="st13" d="M121.6,423.4c-7.5,4.3-7.5,11.3,0,15.7c7.5,4.3,19.6,4.3,27.2,0c7.5-4.3,7.5-11.3,0-15.7
	C141.4,419.2,129.2,419.2,121.6,423.4z"/>
<path class="st8" d="M121.6,421.5c-7.5,4.3-7.5,11.3,0,15.7c7.5,4.3,19.6,4.3,27.2,0c7.5-4.3,7.5-11.3,0-15.7
	C141.4,417.2,129.2,417.2,121.6,421.5z"/>
<path class="st13" d="M132.5,428.5c-1.5,0.8-1.5,2.2,0,3c1.5,0.8,3.9,0.8,5.2,0c1.5-0.8,1.5-2.2,0-3
	C136.4,427.7,134.1,427.7,132.5,428.5z"/>
<path class="st2" d="M132.5,427.6c-1.5,0.8-1.5,2.2,0,3c1.5,0.8,3.9,0.8,5.2,0c1.5-0.8,1.5-2.2,0-3
	C136.4,426.8,134.1,426.8,132.5,427.6z"/>
<path class="st45" d="M133.9,428c-0.8,0.4-0.8,1.1,0,1.7c0.8,0.4,2.1,0.4,2.8,0c0.8-0.4,0.8-1.1,0-1.7
	C135.9,427.6,134.6,427.6,133.9,428z"/>
<path class="st13" d="M133.2,296.6V429c0,0.3,0.3,0.6,0.6,0.7c0.8,0.4,2.1,0.4,2.8,0c0.3-0.1,0.6-0.4,0.6-0.7V296.6H133.2z"/>
<path class="st13" d="M133.9,295.8c-0.8,0.4-0.8,1.1,0,1.7c0.8,0.4,2.1,0.4,2.8,0c0.8-0.4,0.8-1.1,0-1.7
	C135.9,295.4,134.6,295.4,133.9,295.8z"/>
<path class="st10" d="M134.8,369.8c0.1,0,0.1-0.1,0.1-0.3c0-0.4-0.3-0.8-0.6-1c-0.1-0.1-0.3-0.1-0.4,0l-25.3,14.6
	c-0.1,0-0.1,0.1-0.1,0.4c0,0.4,0.3,0.8,0.6,1c0.1,0.1,0.3,0.1,0.4,0L134.8,369.8z"/>
<path class="st10" d="M134.8,320.5c0.1,0,0.1-0.1,0.1-0.3c0-0.4-0.3-0.8-0.6-1c-0.1-0.1-0.3-0.1-0.4,0l-25.3,14.6
	c-0.1,0-0.1,0.1-0.1,0.4c0,0.4,0.3,0.8,0.6,1c0.1,0.1,0.3,0.1,0.4,0L134.8,320.5z"/>
<path class="st44" d="M123.9,355.7h-1.8l-19.9,11.5l10.9,33.4h1.8l19.9-11.6L123.9,355.7z"/>
<path class="st9" d="M104,367.3l19.9-11.6l10.9,33.3l-19.9,11.6L104,367.3z"/>
<path class="st8" d="M105.9,368l17-9.8l9.8,30.1l-17,9.8L105.9,368z"/>
<path class="st13" d="M102.2,367.1l19.9-11.5h1.8L104,367.3L102.2,367.1z"/>
<path class="st13" d="M104,367.3l10.9,33.3h-1.8l-10.9-33.4L104,367.3z"/>
<path class="st44" d="M123.9,305.7h-1.8l-19.9,11.5l10.9,33.4h1.8l19.9-11.6L123.9,305.7z"/>
<path class="st9" d="M104,317.3l19.9-11.6l10.9,33.3l-19.9,11.6L104,317.3z"/>
<path class="st8" d="M105.9,318l17-9.8l9.8,30.1l-17,9.8L105.9,318z"/>
<path class="st13" d="M102.2,317.2l19.9-11.5h1.8L104,317.3L102.2,317.2z"/>
<path class="st13" d="M104,317.3l10.9,33.3h-1.8l-10.9-33.4L104,317.3z"/>
<path class="st16" d="M154.4,334.6c-0.1,0-0.3,0-0.3,0h-0.3h-0.3l-1.4,0.1l-1.7,0.6c-0.6,0.3-1.2,0.7-1,1.1c0.3,0.7,0.8,0.6,1.4,0.1
	c0.6,0,1,0,1.5-0.3c0.4,0.1,1,0.1,1.5,0c0.1,0,0.4-0.1,0.6-0.1v-0.4v-0.1v-0.4L154.4,334.6z"/>
<path class="st16" d="M150.5,340.5c0.3,0.3,0.7,0.3,1.2,0c0.4,0.1,1,0,1.5,0c0.6,0.3,1.2,0.4,1.9,0.4c0.1,0,0.1,0,0.3,0v-0.3v-1.4
	l-1.1-0.1l-1-0.1l-1.7,0.1c-0.7,0.1-1.4,0.6-1.4,1C150.5,340.2,150.5,340.4,150.5,340.5z"/>
<path class="st16" d="M154.4,336.1h-2.2l-1.7,0.4c-0.6,0.3-1.2,0.6-1.1,1c0.1,0.7,0.7,0.6,1.4,0.3c0.6,0,1,0,1.5-0.1
	c0.7,0.1,1.4,0.1,2.1,0V336.1z"/>
<path class="st16" d="M150.1,339.4c0.3,0.1,0.7,0,1.1-0.3c0.1,0,0.3,0,0.4,0c0.4,0,0.7,0,1.1-0.1c0.7,0.1,1.4,0.1,2.1,0v-1.5h-2.2
	l-1,0.1h-0.4h-0.3c-0.7,0.3-1.2,0.7-1.1,1.1C149.8,339.3,149.9,339.4,150.1,339.4z"/>
<path class="st16" d="M154.2,334.6c-0.1,0.3-0.1,0.6-0.1,1c0,0.3,0,0.6,0,0.8c0,1,0.1,1.9,0.3,2.9c0.1,0.7,0.4,1.2,0.7,1.5
	c0.1,0.1,0.1,0.3,0.3,0.3c1.1,0.8,3,1.1,4.8,1.1c0.8-0.1,1.4-0.4,1.8-0.8l2.6,0.1c-0.4,0-0.7-0.4-1.1-0.8c-0.8-1.2-0.4-3,0.7-3.7
	l-2.3-0.4l-3.3-0.8l-4.1-1.1C154.2,334.6,154.2,334.6,154.2,334.6z"/>
<path class="st16" d="M151.7,340.2c0.6,0.1,1,0.1,1.4-0.1c0.6,0.3,1.1,0.6,1.8,0.6c0.1,0,0.4,0,0.6,0c0,0-0.7-3.7-0.6-3.7
	c0.1,0.1,1,3.9,1.1,4c0.7,0.3,1.5,0.6,2.5,0.6c1.2,0.1,2.2-0.3,3-1.1l1.9,0.3c0.3,0.4,0.7,0.8,1.1,0.8l-2.6-0.1
	c-0.3,0.4-1,0.6-1.8,0.8c-1.8,0-3.7-0.3-4.8-1.1c-0.7,0-1.4-0.3-1.9-0.4c-0.6,0.1-1,0.1-1.5,0c-0.6,0.3-1.1,0.3-1.2,0
	C150.9,340.6,151.5,340.5,151.7,340.2z"/>
<path class="st16" d="M153.9,334.6l4.6,1c0.3,0.6,0.4,1.1,0.7,1.7c0.1,0.4,0,1.4,0.4,1.5c-0.3,0.1-1-0.1-1.1-0.3
	c-0.3-0.1-0.6-0.4-0.7-0.7c-0.3-0.4-0.6-1.2-1-1.5C155.3,335.3,154.4,336.1,153.9,334.6z"/>
<path class="st16" d="M154.5,335.1c0.3,0.1,0.6,0.3,1,0.1h1.1l1,0.4c0,1.4,1.4,2.9,1.9,3.3c0.3,0.1,0.4,0.1,0.7,0.1
	c0.8-0.1,1.5-1.1,1.9-2.5l-0.7-0.7l-2.5-1.9l-2.3-0.3c-0.7,0.3-1.4,0.4-2.2,0.4c-0.3,0-0.4,0.1-0.4,0.4c0,0,0,0.1,0,0.3
	C153.9,334.7,154.2,335,154.5,335.1z"/>
<path class="st16" d="M154.4,334.6c-0.1,0-0.3,0-0.3,0h-0.3h-0.3l-1.4,0.1l-1.7,0.6c-0.6,0.3-1.2,0.7-1,1.1c0.3,0.7,0.8,0.6,1.4,0.1
	c0.6,0,1,0,1.5-0.3c0.4,0.1,1,0.1,1.5,0c0.1,0,0.4-0.1,0.6-0.1v-0.4v-0.1v-0.4L154.4,334.6z"/>
<path class="st16" d="M150.5,340.5c0.3,0.3,0.7,0.3,1.2,0c0.4,0.1,1,0,1.5,0c0.6,0.3,1.2,0.4,1.9,0.4c0.1,0,0.1,0,0.3,0v-0.3v-1.4
	l-1.1-0.1l-1-0.1l-1.7,0.1c-0.7,0.1-1.4,0.6-1.4,1C150.5,340.2,150.5,340.4,150.5,340.5z"/>
<path class="st16" d="M154.4,336.1h-2.2l-1.7,0.4c-0.6,0.3-1.2,0.6-1.1,1c0.1,0.7,0.7,0.6,1.4,0.3c0.6,0,1,0,1.5-0.1
	c0.7,0.1,1.4,0.1,2.1,0V336.1z"/>
<path class="st16" d="M150.1,339.4c0.3,0.1,0.7,0,1.1-0.3c0.1,0,0.3,0,0.4,0c0.4,0,0.7,0,1.1-0.1c0.7,0.1,1.4,0.1,2.1,0v-1.5h-2.2
	l-1,0.1h-0.4h-0.3c-0.7,0.3-1.2,0.7-1.1,1.1C149.8,339.3,149.9,339.4,150.1,339.4z"/>
<path class="st16" d="M154.2,334.6c-0.1,0.3-0.1,0.6-0.1,1c0,0.3,0,0.6,0,0.8c0,1,0.1,1.9,0.3,2.9c0.1,0.7,0.4,1.2,0.7,1.5
	c0.1,0.1,0.1,0.3,0.3,0.3c1.1,0.8,3,1.1,4.8,1.1c0.8-0.1,1.4-0.4,1.8-0.8l2.6,0.1c-0.4,0-0.7-0.4-1.1-0.8c-0.8-1.2-0.4-3,0.7-3.7
	l-2.3-0.4l-3.3-0.8l-4.1-1.1C154.2,334.6,154.2,334.6,154.2,334.6z"/>
<path class="st46" d="M151.7,340.2c0.6,0.1,1,0.1,1.4-0.1c0.6,0.3,1.1,0.6,1.8,0.6c0.1,0,0.4,0,0.6,0c0,0-0.7-3.7-0.6-3.7
	c0.1,0.1,1,3.9,1.1,4c0.7,0.3,1.5,0.6,2.5,0.6c1.2,0.1,2.2-0.3,3-1.1l1.9,0.3c0.3,0.4,0.7,0.8,1.1,0.8l-2.6-0.1
	c-0.3,0.4-1,0.6-1.8,0.8c-1.8,0-3.7-0.3-4.8-1.1c-0.7,0-1.4-0.3-1.9-0.4c-0.6,0.1-1,0.1-1.5,0c-0.6,0.3-1.1,0.3-1.2,0
	C150.9,340.6,151.5,340.5,151.7,340.2z"/>
<path class="st46" d="M153.9,334.6l4.6,1c0.3,0.6,0.4,1.1,0.7,1.7c0.1,0.4,0,1.4,0.4,1.5c-0.3,0.1-1-0.1-1.1-0.3
	c-0.3-0.1-0.6-0.4-0.7-0.7c-0.3-0.4-0.6-1.2-1-1.5C155.3,335.3,154.4,336.1,153.9,334.6z"/>
<path class="st16" d="M154.5,335.1c0.3,0.1,0.6,0.3,1,0.1h1.1l1,0.4c0,1.4,1.4,2.9,1.9,3.3c0.3,0.1,0.4,0.1,0.7,0.1
	c0.8-0.1,1.5-1.1,1.9-2.5l-0.7-0.7l-2.5-1.9l-2.3-0.3c-0.7,0.3-1.4,0.4-2.2,0.4c-0.3,0-0.4,0.1-0.4,0.4c0,0,0,0.1,0,0.3
	C153.9,334.7,154.2,335,154.5,335.1z"/>
<path class="st9" d="M214.7,459.2c-4.7-0.3-3.6-8.1-2.3-12.4c0.4-1.5,2.3-2.3,3.9-1.8c1.5,0.6,2.5,3.4,2.5,5.1
	C218.5,451.5,220.2,459.5,214.7,459.2z"/>
<path class="st16" d="M212,450.9c-0.8-6.6,6.5-7.2,5.5,0c-0.3,1.9-1.5,3.3-2.8,3.5C213,454.5,212.2,452.3,212,450.9z"/>
<path class="st16" d="M190.5,448.3c-2.1,1.7-4.6,2.5-7.2,2.3c-0.4,0-0.7,0-1-0.3c-0.3-0.4-0.1-1.1,0.1-1.5c2.3-3.9,6.8-7,8.7-11.2
	c0.3-0.4,0.4-1,0.8-1.2c0.6-0.6,1.5-0.4,2.2-0.6s1.4-0.6,2.1-0.3c0.6,0.3,0.7,1.1,0.8,1.8c0.1,0.7,0.6,2.3,0.7,3
	c0.3,0.7,0.4,1.4,0.1,2.1c-0.3,0.8-1,1.5-1.7,1.9c-0.7,0.4-1.7,0.7-2.3,1.1C192.7,446.2,191.6,447.3,190.5,448.3z"/>
<path class="st9" d="M182.4,450.3c0.3,0.3,0.6,0.3,1,0.3c2.5,0.1,5.1-0.8,7.2-2.3c1.2-1,2.2-2.1,3.4-2.9c0.7-0.4,1.7-0.7,2.3-1.1
	c0.7-0.4,1.5-1.1,1.7-1.9c0.1-0.7,0-1.4-0.1-2.1c-0.1-0.6-0.4-2.2-0.7-2.8c0-0.1,0-0.1-0.1-0.3c-0.1-0.7-0.3-1.4-0.8-1.8
	c-0.6-0.4-1.4,0.1-2.1,0.3s-1.7,0.1-2.2,0.6c-0.4,0.3-0.6,0.8-0.8,1.2c-0.7,1.7-1.9,2.9-3.2,4.1c-1.9,1.9-4.1,4.7-5.5,7
	C182.2,449.4,182.1,449.9,182.4,450.3z"/>
<path class="st16" d="M186.6,444.1c0,0.3,0,0.6,0.3,0.7c0.1,0.1,0.4,0.1,0.7,0.1c2.2-0.1,4.3-1.5,6.1-3c1-0.7,1.8-1.5,2.5-2.5
	c0.4-0.6,0.8-1.2,1.1-1.9c0-0.1,0-0.1-0.1-0.3c-0.1-0.7-0.1-1.9-0.8-2.3c-0.6-0.4-1.4,0-2.1,0.1c-0.7,0.1-1.8-0.3-2.5,0.3
	c-0.4,0.3-0.3,1.4-0.4,1.9c-0.7,1.7-2.1,3.3-3.3,4.6c-0.4,0.6-0.7,1.1-1.1,1.5C186.9,443.6,186.8,443.9,186.6,444.1z"/>
<path class="st16" d="M188.9,397.9c0,1.1,0.1,2.2,0.3,3.6c0.1,1.2,0.1,2.6,0.3,4c0.1,1.1,0.1,2.3,0.3,3.6
	c0.8,12.4,1.8,28.2,1.8,28.2s0,0,0,0.1c1.1,2.1,5.4,2.6,5.8-0.1c0.4-8.3,1.9-15.5,2.9-22.1c0.4-2.2,0.7-4.4,0.8-6.6
	c0.1-1.8,0.3-3.6,0.3-5.4c0-1.5-0.1-3-0.4-4.6c-0.1-0.4-0.1-0.8-0.3-1.4l-9.7-6.2C190.9,391.3,188.9,397.6,188.9,397.9z"/>
<path class="st16" d="M200.2,384.2c1.7,8.1,2.5,14.6,3.4,19.6c0.1,0.4,0.1,0.7,0.3,1.1c0.4,1.9,0.8,3.6,1.2,5c0.1,0.3,0.3,0.7,0.3,1
	l0.8,3.9l0.4,1.7l6.2,29.5l0.3,1.1l0.1,1c0,2.3,3.6,1.5,3.7-0.4c0-0.1,0-0.3,0-0.4c0-0.4,0.1-0.8,0.1-1.2c1.9-17.8,1.4-25,0.1-31.7
	c-0.1-0.8-0.3-1.7-0.4-2.6c-0.3-1.2-0.6-2.5-0.8-3.9c0-0.4,0.1-0.8,0.1-1.4c0-0.1,0-0.3,0-0.3v-0.1c1.1-9.2,0.8-16.4,0.6-21.3h-16.6
	V384.2z"/>
<path class="st16" d="M200.2,384.2c1.7,8.1,2.5,14.6,3.4,19.6c0.1,0.4,0.1,0.7,0.3,1.1c0.4,1.9,0.8,3.6,1.2,5c0.1,0.3,0.3,0.7,0.3,1
	l0.8,3.9l0.4,1.7l6.2,29.5l0.3,1.1l0.1,1c0,2.3,3.6,1.5,3.7-0.4c0-0.1,0-0.3,0-0.4c0-0.4,0.1-0.8,0.1-1.2c1.9-17.8,1.4-25,0.1-31.7
	c-0.1-0.8-0.3-1.7-0.4-2.6c-0.3-1.2-0.6-2.5-0.8-3.9c0-0.4,0.1-0.8,0.1-1.4c0-0.1,0-0.3,0-0.3v-0.1c1.1-9.2,0.8-16.4,0.6-21.3h-16.6
	V384.2z"/>
<path class="st47" d="M203.6,403.7c0.1,0.4,0.1,0.7,0.3,1.1c0.4,1.9,0.8,3.6,1.2,5c0.1,0.3,0.3,0.7,0.3,1l0.8,3.9l0.4,1.7
	c3.6,0,7.2-0.7,10.8-2.3c-0.1-0.8-0.3-1.7-0.4-2.6c-0.3-1.2-0.6-2.5-0.8-3.9c0-0.4,0.1-0.8,0.1-1.4c0-0.1,0-0.3,0-0.3L203.6,403.7z"
	/>
<path class="st47" d="M189.1,401.5c0.1,1.2,0.1,2.6,0.3,4c0.1,1.1,0.1,2.3,0.3,3.6c2.5,2.6,6.2,5,10.6,6.1c0.4-2.2,0.7-4.4,0.8-6.6
	c0.1-1.8,0.3-3.6,0.3-5.4L189.1,401.5z"/>
<path class="st11" d="M189.3,404.8c1.5,4,21.1,11.9,27.5,5.8l1.8-27.2c1.7-9,0.3-13.5-4.4-17.9c-0.6-0.6-1.1-1-1.8-1.5l-13.8-0.6
	l-5.4-0.3C188.3,378,188.2,394.5,189.3,404.8z"/>
<path class="st11" d="M193,363.1c1.4,3.2,3,5.7,6.6,6.5c3.4,0.8,10.5,0.1,14.5-4.1c4.7,4.3,6.1,9,4.4,17.9l-1.8,27.2
	c-0.6,0.6-1.5,1.2-3,1.8c1.2-9.5-0.1-31.5-2.2-38.9c-11.5,0.4-16.3-2.2-19-8.6L193,363.1z"/>
<path class="st15" d="M162.4,336.4c-2.9,0.3-2.5,4.8-0.6,5.4c1.1,0.3,13.2,5.4,21.9,1.9l11.3-5.9l4.4,0.7l-1.5-13.8
	c-4.8,2.3-9.7,5.9-19.5,12.7L162.4,336.4z"/>
<path class="st9" d="M187.2,349.3c0,2.8,2.6,5.4,5.9,5c0,0.3,0,0.6,0,0.7c0.1,1.7,0.4,3.7,0.4,5.7c0,0.1,0,0.4,0,0.6
	c0,0.6-0.1,1-0.1,1.4c0,0.3-0.1,0.4-0.1,0.7c1.4,3.2,3.2,5.7,6.8,6.6c0.8,0.3,2.1,0.4,3.2,0.3c3.7,0,8.4-1.2,11.6-4.6
	c-0.7-5,1-11.5,2.8-16.8c1.4-4.1,2.8-7.7,3.2-9.5c-3.3-4.1-7.2-7.5-11.3-10.4s-6.1-6.6-10.9-4.8c-4.8,1.8-5.4,11.3-7,15
	C189.5,342.7,187.2,345.3,187.2,349.3z"/>
<path class="st26" d="M193.3,362.4c0,0.3-0.1,0.4-0.1,0.7c1.8,5.2,5.1,7.6,9.9,6.9c3.7,0,8.4-1.2,11.6-4.6c-0.7-5,1-11.5,2.8-16.8
	l-4.3-1.1l-4.7,7.5c-3.6,6.1-13.1,5-13.5-1.4l-1.8,0.4c0,0.3,0,0.4,0,0.7c0,2.5,0.3,4.1,0.4,5.7c0,0.1,0,0.4,0,0.6
	C193.5,361.5,193.4,362,193.3,362.4z"/>
<path class="st15" d="M220.6,339.3c3.9,6.9,6.1,14.6,6.9,23c1.1,6.2-0.1,17.5-2.9,23.6c-0.7-0.8-1.9-1.2-3.9-1
	c-0.4-8.3-1-16.4,0-20.7l-6.3-13.8C210,341.1,217,334.8,220.6,339.3z"/>
<path class="st16" d="M212.9,391.4c0.3,0.1,0.8,0.3,1.4-0.1c1.1-1.1,2.2-1.9,3.6-1.5c0.3,0.4,0.3,1.1,0.1,1.8v0.1
	c-0.4,1.5-1.4,3.6-2.5,5.5c-0.1,0.3,0,0.6,0.1,0.7c0.3,0.3,0.7,0.3,1,0c0,0.6,0.7,0.8,1.1,0.3l0.7-0.8c0.1,0.7,0.8,0.4,1.1,0
	l1.4-1.7c1-1,1.7-1.9,2.3-3.2c0.1-0.1,0.1-0.4,0.3-0.6c0.7-2.1,1-4,1-6.1c-0.4-1.7-1.9-1.9-3.9-1l-2.3,1.2c-2.2,1.1-3.3,2.6-5.7,4.4
	C212.5,390.9,212.6,391.1,212.9,391.4z"/>
<path class="st16" d="M215.5,397.9c0.3,0.3,0.7,0.3,1,0c0,0.6,0.7,0.8,1.1,0.3l0.7-0.8c0.1,0.7,0.8,0.4,1.1,0l1.4-1.7
	c1-1,1.7-1.9,2.3-3.2c-1.1,0.4-2.3,0.1-3.4-0.4C218.8,394.3,217,397.5,215.5,397.9z"/>
<path class="st16" d="M212.9,391.4c0.3,0.1,0.8,0.3,1.4-0.1c1.1-1.1,2.2-1.9,3.6-1.5c0.3,0.4,0.3,1.1,0.1,1.8l0.6-2.5
	C215.9,388.4,214.1,390.9,212.9,391.4z"/>
<path class="st42" d="M190.1,353.7c-0.7-0.3-1.2-0.7-1.9-1.4C188.7,353.1,189.3,353.5,190.1,353.7z"/>
<path class="st16" d="M201,329.7l-1,4.1l-3.7,16.8l12.8-18.1L201,329.7z"/>
<path class="st8" d="M201.4,328.9l-5.1,21.5l1.5-21L201.4,328.9z"/>
<path class="st23" d="M205.8,323.4c0,3.2,2.6,5.8,5.8,5.8s5.8-2.6,5.8-5.8c0-3.2-2.6-5.8-5.8-5.8S205.8,320.1,205.8,323.4z"/>
<path class="st16" d="M208.6,322.7c0.7,2.2,0.4,4.4,1.2,6.6c0.4,2.5-3.7,5.2-6.8,5c-2.2-0.4-2.1-1.5-2.3-4.1L208.6,322.7z"/>
<path class="st47" d="M207.2,323.7c0,7.5-2.8,14.1-6.2,12.8c-1.4-0.6-1.5-4.3-1.5-9.4L207.2,323.7z"/>
<path class="st16" d="M207.9,326.1c-2.2,2.8-4.7,5.1-8.6,4.6c-1.5-0.3-2.8-2.3-2.8-11c0-2.9,1.7-6.5,3-8c1.9-2.3,5.2-3.2,8.4-2.5
	c4.4,1,6.6,4.4,6.1,8.8C213,323.8,210.5,326,207.9,326.1z"/>
<path class="st4" d="M209.4,325.6c0,0-1-0.3-1.9-1.7c-0.8-1.4-1-3-1.2-4.8c-4.1-0.4-8.4-3.4-8.4-4.8c0.1-1.9,1.4-3.6,4.8-5
	c3.9-1.5,7.3-0.6,10.1,2.5c4.3,4.7,0.4,13-3.2,14.5L209.4,325.6z"/>
<path class="st23" d="M196.3,321.3c0.8,1.2,2.1,1.7,2.3-0.3c0,0,0,0,0-0.1c0.3,0,0.4,0.3,0.7,0.6c-0.7,3.9,4,4.8,4,2.1
	c0-1.2-1.8-1.5-3.2-2.3c-0.1-0.1-0.6-0.3-0.7,0c-0.3-0.4-0.6-0.6-0.8-0.7c0-0.3-0.1-0.6-0.3-0.7c-1.1-1-1.8-2.3-2.2-1.5
	C195.8,319.4,195.9,320.5,196.3,321.3z M199.5,321.5c0-0.3,0.1-0.4,0.6-0.1c0.4,0.3,1,0.6,1.4,0.7c1.1,0.4,1.7,0.8,1.7,1.4
	c0,0.4-0.1,0.8-0.4,1.1c-0.4,0.3-1,0.4-1.5,0.1c-0.6-0.1-1.1-0.6-1.4-1.1S199.3,322.3,199.5,321.5z M196.3,318.4
	c0-0.1,0.1-0.1,0.3-0.1c0.3,0.1,0.4,0.4,0.8,0.8c0.3,0.3,0.6,0.6,0.8,0.8c0.1,0.1,0.3,0.4,0.3,0.7c0,0.8-0.3,1.7-1,1.4
	c-0.4-0.1-0.7-0.6-1-1.1C195.9,320.2,196,319.2,196.3,318.4z"/>
<path class="st23" d="M203.2,323.5l6.2,0.1l0.1-0.3l-6.5-0.4L203.2,323.5z"/>
<path class="st16" d="M208.4,324.5c0.3-0.4,0.6-0.8,1-1.2c0.4-0.3,1-0.6,1.4-0.6c0.1,0,0.3,0,0.4,0.1c0.3,0.1,0.4,0.4,0.4,0.8
	c0,0.3-0.1,0.6-0.3,1c-0.3,0.6-0.6,1.1-1,1.5s-1,0.7-1.7,0.7c-0.3,0-0.6,0-0.7-0.1s-0.3-0.3-0.3-0.4
	C207.9,325.6,208.2,325,208.4,324.5z"/>
<path class="st8" d="M209.8,328.9l-15,24l15.5-15.2l-0.7-3l2.5-1.4V331L209.8,328.9z"/>
<path class="st16" d="M146.9,352.8c-4.6-0.4-6.9,2.8-8.6,7.2c-0.6,2.8,0.6,6.6,2.1,9l5.5,2.3c1.9,0.4,3.6,1.2,4.8,0.8
	c3.4-0.8,3.4-6.8,3.4-11.6C153.8,356.5,152.1,353.2,146.9,352.8z"/>
<path class="st16" d="M149.4,379.3l1.4-8.3l-9.4-3.4l-3,7.9L149.4,379.3z"/>
<path class="st21" d="M151.6,490l-2.2,4.1c-1.1,1.7-1.1,3.6-0.4,5.5c1.7,2.2,4.8,1.8,8.3,1.1c4.4-1.4,6.6-2.3,9.4-3.2
	c4-1.4,3.3-4.7-1-5l-7.2-0.4l-2.3-0.1l-0.1-2.3L151.6,490z"/>
<path class="st21" d="M126.2,479.6l-2.3,1.5c-1.1,2.1-1.2,4.4-0.4,5.9c1.8,1.2,3.7,1.2,7-0.6c4-3.3,5.7-3.2,7.2-5.4
	c1.8-2.9-0.8-4.1-3.2-3.7l-4.6,0.7L126.2,479.6z"/>
<path class="st16" d="M148.3,410.9l-2.5,17c-0.6,1.9-1.2,4-1.8,5.9c-1.9,5.8-4,11.3-5.8,14.6c-0.4,0.8-0.8,1.5-1.2,1.9l-1.8,3.5
	c-0.1,1.4-0.4,2.8-0.7,4.1c-1.4,7.2-3.7,13.8-4.6,19.9l1-0.1c2.8,0.6,3.2,1.4,1.7,2.9c-1.7,1.1-3,2.2-4.7,2.5
	c-2.3,0.4-4.3-0.1-4.1-1.8c0.4-10.9-0.4-20.8,1.5-28.6c0.6-2.2,1.4-4.3,2.6-6.1l1.2-3.2c0-0.8-0.1-1.8-0.1-2.8
	c-0.3-5.9,0-12.3,0.6-17.5c-0.3-6.9,1.5-12.7,4.7-17.8l4.8,1.8l4.1,1.7L148.3,410.9z"/>
<path class="st16" d="M160.8,495.1l-6.8,1.5c-2.2,0.4-4.3-0.8-4.7-2.2c1.8-13.7-3.6-22.1,0-33.9v-4.7l-1.4-6.9l-2.6-13.4l-1.4-1.7
	l-3.7-4.1l2.5-20.7h13.9l2.6,15.7c1.9,7.7,2.9,15.3,2.3,22.6c-0.1,2.5-0.6,5-1.1,7.3l-0.6,5.5l-0.3,2.1c-1.4,8.4-2.2,17.4-2.6,26.1
	c-0.1,1.9,1.2,3.6,3,3.9C163.5,492.7,164.6,493.8,160.8,495.1z"/>
<path class="st14" d="M163.2,391.3c0,2.9-1.9,5.4-4.7,6.3c-0.8,0.3-1.5,0.4-2.5,0.4c-1.5,0-2.8-0.4-3.9-1.1
	c-1.9-1.2-3.2-3.3-3.2-5.7c0-3.7,3.2-6.8,7.2-6.8c1.7,0,3.2,0.6,4.3,1.4c0.7,0.6,1.4,1.2,1.8,1.9C162.8,388.9,163.2,390,163.2,391.3
	z"/>
<path class="st9" d="M161.4,454.2c-4.1,3.2-28.6,4.8-35.1-8.1l1.9-21.8c1.1-8,1-10.8,5.1-17.4c0.3-0.4,0.6-1,1-1.4
	c2.1-6.2-2.6-11.3-4.3-20.4c-0.3-1.1-0.4-2.3-0.6-3.6c-0.3-2.5,0.3-4.6,1.2-6.3c1.2-2.1,3.7-3.2,6.1-2.9c6.2,0.7,12.6,3,18.2,6.5
	l2.1,1.4l3.2,5.8l0.3,2.6l0.4,3.2c-1,1.9-1.9,3.9-2.6,5.9c-1.4,3.7-2.1,7.6-1.5,11.5c1,3,1.8,5.9,2.6,8.8
	C162.5,430.1,163.5,441.8,161.4,454.2z"/>
<path class="st4" d="M140.1,369.5c-1.9-2.5-3-5.4-2.6-8.6c0.6-4.4,2.9-8.8,8.1-9.1c7.5-0.4,11.2,5.5,8.6,12.3
	c-2.3,2.3-4.1,5-5.7,6.3C144.7,373.2,142.1,372.5,140.1,369.5z"/>
<path class="st4" d="M141.1,367.5c0,0-4,4.1-4.8,8c-1.7,7.3,4.1,16.3,4.1,16.3s4.6-9.9,3.6-14.2c-1-4-0.1-10.1-0.1-10.1H141.1z"/>
<path class="st16" d="M152.3,364.1c-1.1,0.7-1,4.4-1,4.4l1.4,1l0.7-4.1C153.4,365.3,153.7,363.3,152.3,364.1z"/>
<path class="st48" d="M158.5,397.6c-1.4,3.7-2.1,7.6-1.5,11.5c1,3,2.5,5.9,3.2,8.8c-7.7-7.9-20-6.8-26.6-10.9c0.3-0.4,0.6-1,1-1.4
	c2.1-6.2-2.6-11.3-4.3-20.4c4.7,11.5,15.5,16.8,22.1,11.7c1.8-1.4,3.3-3.4,4.3-6.3l4.4-1.9l1.5-0.7c0.6,1,1,2.1,1,3.3
	C163.2,394.2,161.3,396.7,158.5,397.6z"/>
<path class="st16" d="M164.3,385.2l-5.4,1l-1-2.3l1.9-2.5l2.9,0.8L164.3,385.2z"/>
<path class="st21" d="M156,393.2l10.5-17.1l11,5.2L167,398.6L156,393.2z"/>
<path class="st8" d="M167.6,396.5l-9.9-4.8l9.1-14.9l9.9,4.8L167.6,396.5z"/>
<path class="st16" d="M166.9,380.5l-1.9-0.4c-0.7,1.5-1.9,2.2-3.2,2.5l-1.1,0.4c-0.4-1-0.7-1.4-0.8-1.7c0.1-1.4,1-2.6,1.8-2.9l3-0.6
	l3.7,1.4C168.4,380.1,168.2,380.5,166.9,380.5z"/>
<path class="st21" d="M168,396c-0.1,0-0.1,0-0.3,0c-0.3-0.1-0.6-0.4-0.6-0.7l3.3-15.2c0.1-0.3,0.4-0.6,0.7-0.6
	c0.3,0.1,0.6,0.4,0.6,0.7l-3.3,15.2C168.6,395.7,168.3,396,168,396z"/>
<path class="st16" d="M174.9,388.5c0.1,0.6-0.3,1-0.3,1.4c0,0.1,0,0.4,0,0.7c0,0.1,0,0.4,0,0.6c0,1-2.2,2.5-3,2.9l-2.9,1.4l-3.4,3
	l-0.7-1.1l-1.7-2.5l2.6-3c-0.1-1.7-0.3-3,0.3-4.3l1.4-1.7l2.5-1.2l-0.3,1.1c0,0,1-0.7,2.1-1.2c0.4-0.3,1.2-0.4,1.7,0
	c0.1,0.1,0.1,0.7,0.3,0.8c0.1,0.3,0.8,0.6,1,0.8s-0.1,1,0,1.2C174.4,387.7,174.8,388,174.9,388.5z"/>
<path class="st16" d="M169.5,384.9L167,387l2.3-1.4L169.5,384.9z"/>
<path class="st16" d="M174.6,390.7c0,0.1,0,0.4,0,0.6c0,1-2.2,2.5-3,2.9l-2.9,1.4l-3.4,3l-0.7-1.1c1.5-1,2.8-2.5,3.6-3.6
	C170.9,393.8,173.8,392.7,174.6,390.7z"/>
<path class="st16" d="M157.1,380.1c3.4,1.7,3.9,4.3,3.9,10.1l0.3,6.1l4.4-4.6c2.8-0.1,3.4,0.3,3.2,3.7c-1.7,4.8-4.8,11.9-8,14.8
	c-2.1,1.9-5.2-0.3-6.6-5.4l-2.2-13.1C150.8,384.5,151.9,378.9,157.1,380.1z"/>
</svg>
