<svg width="621" height="621" viewBox="0 0 621 621" fill="none" xmlns="http://www.w3.org/2000/svg">
<path opacity="0.5" d="M319.608 422.418L358.938 445.05L395.646 423.936L356.454 401.166L319.608 422.418Z" fill="#C0C7A9"/>
<path opacity="0.5" d="M328.302 301.806L364.458 322.644L334.236 340.17L298.08 319.332L328.302 301.806Z" fill="white"/>
<path opacity="0.5" d="M456.642 314.778L495.972 337.41L412.206 385.848L372.876 363.078L456.642 314.778Z" fill="#C0C7A9"/>
<path opacity="0.5" d="M197.064 409.722C186.024 416.07 186.024 426.282 197.064 432.63C208.104 438.978 225.768 438.978 236.808 432.63C247.848 426.282 247.848 416.07 236.808 409.722C225.906 403.374 208.104 403.374 197.064 409.722Z" fill="white"/>
<path opacity="0.5" d="M291.87 441.6C280.83 447.948 280.83 458.16 291.87 464.508C302.91 470.856 320.574 470.856 331.614 464.508C342.654 458.16 342.654 447.948 331.614 441.6C320.574 435.252 302.772 435.252 291.87 441.6Z" fill="white"/>
<path opacity="0.5" d="M469.89 378.672C458.85 385.02 458.85 395.232 469.89 401.58C480.93 407.928 498.594 407.928 509.634 401.58C520.674 395.232 520.674 385.02 509.634 378.672C498.732 372.324 480.93 372.324 469.89 378.672Z" fill="white"/>
<path opacity="0.5" d="M382.122 469.062C368.736 476.79 368.736 489.21 382.122 496.938C395.508 504.666 417.174 504.666 430.422 496.938C443.808 489.21 443.808 476.79 430.422 469.062C417.174 461.334 395.508 461.334 382.122 469.062Z" fill="white"/>
<path opacity="0.5" d="M139.38 450.294C128.34 456.642 128.34 466.854 139.38 473.202C150.42 479.55 168.084 479.55 179.124 473.202C190.164 466.854 190.164 456.642 179.124 450.294C168.222 443.946 150.42 443.946 139.38 450.294Z" fill="white"/>
<path opacity="0.5" d="M272.826 377.292C294.395 377.292 311.88 367.221 311.88 354.798C311.88 342.375 294.395 332.304 272.826 332.304C251.257 332.304 233.772 342.375 233.772 354.798C233.772 367.221 251.257 377.292 272.826 377.292Z" fill="white"/>
<path opacity="0.5" d="M132.894 393.024C122.82 398.82 122.82 408.342 132.894 414.138C142.968 419.934 159.39 419.934 169.464 414.138C179.538 408.342 179.538 398.82 169.464 393.024C159.39 387.228 143.106 387.228 132.894 393.024Z" fill="white"/>
<path d="M495.972 146.004L358.662 66.102V252.816L495.972 332.718V146.004Z" fill="#DCE1CB"/>
<path d="M455.506 210.768C467.871 201.468 464.562 176.202 448.115 154.335C431.668 132.468 408.312 122.28 395.947 131.58C383.582 140.88 386.891 166.146 403.338 188.014C419.785 209.881 443.141 220.068 455.506 210.768Z" fill="#3B4850"/>
<path d="M401.304 331.614C401.304 331.614 400.614 335.478 400.89 337.134C401.304 338.79 405.582 339.894 405.582 339.894C405.582 339.894 409.308 344.448 414.552 344.034C417.588 343.758 418.692 342.93 419.106 342.102C419.52 341.136 419.106 340.032 418.554 339.204C418.002 338.376 414 336.858 412.344 334.374C411.516 333.132 410.274 330.51 410.274 330.51L410.136 329.13C409.86 327.198 408.342 325.542 406.272 325.542C403.512 325.404 401.442 327.612 401.58 330.234V331.062L401.304 331.614Z" fill="#0B1017"/>
<path d="M385.296 339.894C384.606 341.136 384.606 343.206 384.606 346.242C385.434 347.898 386.676 349.278 388.194 349.692C388.194 349.692 389.298 355.074 396.474 355.212C403.236 355.35 403.098 352.59 403.098 352.728C403.098 352.728 403.098 351.21 401.58 349.83C400.614 349.002 397.026 345.966 396.198 344.862C395.37 343.758 394.542 341.964 394.542 341.964L394.266 337.134H385.158L385.296 339.894Z" fill="#0B1017"/>
<path d="M409.86 258.888L396.75 274.482C397.44 279.45 398.406 289.248 399.648 293.94C397.302 311.88 398.82 331.476 400.338 332.58C402.408 334.236 409.308 335.754 412.068 331.614C412.068 331.614 409.998 311.88 412.62 291.594L409.86 258.888Z" fill="#242E61"/>
<path d="M409.86 258.888C409.722 266.064 408.204 269.79 401.028 273.654L398.682 289.386L397.026 300.426C394.404 321.126 394.266 342.102 394.266 342.102C391.23 346.38 382.674 344.586 382.398 341.826C381.156 325.542 380.88 316.158 383.64 301.806C382.122 293.25 381.156 283.176 381.984 275.172C380.466 270.618 380.466 265.65 381.708 259.854C381.846 259.854 382.26 259.716 382.536 259.578C382.674 259.578 382.95 259.44 383.226 259.44C384.192 259.164 385.71 258.888 387.366 258.474C387.918 258.336 388.608 258.198 389.298 258.06C389.988 257.922 390.678 257.784 391.506 257.508C391.92 257.37 392.334 257.232 392.748 257.232C394.818 256.68 397.026 256.128 399.234 255.576C401.304 255.024 403.236 254.61 404.754 254.196C405.996 253.92 407.1 253.644 407.928 253.368C408.48 253.23 408.894 253.092 409.032 253.092L409.308 252.954H409.446C409.446 253.092 409.446 253.23 409.446 253.368C409.446 253.506 409.446 253.506 409.446 253.644C409.446 254.334 409.446 254.886 409.584 255.438C409.86 256.68 409.86 257.784 409.86 258.888Z" fill="#3A4B77"/>
<path d="M131.928 197.754L358.662 66.102V252.816L131.928 384.468V197.754Z" fill="#C0C7A9"/>
<path d="M215.004 174.984L154.56 210.174V317.814L215.004 282.762V174.984Z" fill="white"/>
<path d="M204.516 276V238.602L164.22 261.924V299.46L204.516 276Z" fill="#3B4850"/>
<path d="M184.368 202.998L164.22 214.728V250.608L184.368 238.878V202.998Z" fill="#FF984A"/>
<path d="M208.932 188.922L188.784 200.652V236.532L208.932 224.802V188.922Z" fill="#B24D0D"/>
<path d="M275.724 143.244L234.186 167.394V241.5L275.724 217.35V143.244Z" fill="white"/>
<path d="M241.362 198.858V228.942L268.548 213.21V182.988L241.362 198.858Z" fill="#FF984A"/>
<path d="M268.548 176.364V155.664L241.362 171.534V192.234L268.548 176.364Z" fill="#ACCDF4"/>
<path d="M334.788 110.124L293.112 134.274V208.38L334.788 184.23V110.124Z" fill="white"/>
<path d="M300.288 178.71V195.96L327.612 180.09V162.84L300.288 178.71Z" fill="#ACCDF4"/>
<path d="M311.742 131.79L300.288 138.414V173.88L311.742 167.256V131.79Z" fill="#FF984A"/>
<path d="M316.296 129.168V164.634L327.612 158.01V122.544L316.296 129.168Z" fill="#3B4850"/>
<path d="M308.016 323.886C308.568 323.886 308.982 323.472 309.12 322.92L311.88 295.182L329.958 284.832L332.58 308.292C332.58 308.844 333.132 309.258 333.684 309.258C334.236 309.258 334.65 308.706 334.65 308.154L331.752 281.52L309.948 294.078L307.188 322.782C306.912 323.334 307.326 323.886 308.016 323.886Z" fill="#706F6F"/>
<path d="M336.168 242.604C335.892 242.466 335.616 242.466 335.202 242.742C334.512 243.156 333.96 243.984 333.822 244.812L330.372 278.208C330.234 278.898 329.82 279.726 329.13 280.14L310.362 291.042C308.982 291.87 307.74 293.802 307.74 295.458V295.872L332.856 310.362L356.316 294.63L361.008 257.094L336.168 242.604Z" fill="#FF984A"/>
<path d="M333.27 338.514C333.822 338.514 334.236 338.1 334.374 337.548L337.134 309.81L355.212 299.46L357.834 322.92C357.834 323.472 358.386 323.886 358.938 323.886C359.49 323.886 359.904 323.334 359.904 322.782L357.006 296.148L335.202 308.706L332.442 337.41C332.166 337.962 332.58 338.376 333.27 338.514C333.132 338.514 333.132 338.514 333.27 338.514Z" fill="#2D2856"/>
<path d="M333.132 310.362L358.248 295.872L361.698 258.198C361.836 257.232 361.146 256.818 360.318 257.232C359.628 257.646 359.076 258.474 358.938 259.302L355.488 292.698C355.35 293.388 354.936 294.216 354.246 294.63L335.478 305.532C334.098 306.36 332.856 308.292 332.856 309.948V310.362H333.132Z" fill="#B24D0D"/>
<path d="M307.74 326.37C308.982 327.612 309.12 329.958 308.706 332.304C307.74 333.684 307.326 334.374 305.67 334.788C305.67 334.788 303.738 335.478 301.944 336.444C298.356 340.17 295.044 340.584 293.802 340.17C289.662 338.652 294.078 335.064 295.32 334.236C295.734 333.96 300.288 329.682 300.288 329.682L301.392 328.026L301.254 324.3L307.188 322.506L307.74 326.37Z" fill="#0B1017"/>
<path d="M295.458 299.184C296.286 308.568 299.184 315.606 301.53 328.026C302.634 328.854 304.842 329.682 306.498 329.13C307.464 328.854 308.154 328.164 308.43 326.922C308.844 316.296 308.706 308.016 305.808 300.978C314.778 296.976 326.646 295.734 333.96 289.662C336.858 287.178 338.928 284.97 339.618 282.762C339.894 281.658 339.894 280.554 339.48 279.45C339.204 278.898 338.79 278.346 338.376 277.656L336.03 276L325.956 274.62C324.714 275.31 323.196 276.138 321.678 276.966C310.776 283.038 295.458 293.388 295.458 299.184Z" fill="#3A4B77"/>
<path d="M305.808 328.854C305.808 328.854 306.084 328.992 306.498 329.13C307.464 328.854 308.154 328.164 308.43 326.922C308.844 316.296 308.706 308.016 305.808 300.978C314.778 296.976 326.646 295.734 333.96 289.662C336.858 287.178 338.928 284.97 339.618 282.762L339.48 279.45C339.204 278.898 338.79 278.346 338.376 277.656L336.03 276L325.956 274.62C324.714 275.31 323.196 276.138 321.678 276.966C320.85 286.488 311.742 293.112 301.392 299.46C305.256 308.154 306.36 318.228 305.808 328.854Z" fill="#44598E"/>
<path d="M324.024 335.616C325.266 336.858 325.266 339.066 324.99 341.55C324.024 342.93 322.782 343.758 321.126 344.172C321.126 344.172 315.468 349.554 309.948 348.726C304.566 347.898 309.948 344.034 309.948 344.034L316.158 338.652L317.4 336.996V333.408L323.334 331.614L324.024 335.616Z" fill="#0B1017"/>
<path d="M309.12 306.084C309.948 315.468 315.192 324.576 317.538 336.996C319.608 338.652 321.54 338.928 322.92 337.134C323.334 336.72 323.748 336.03 324.024 335.34C324.438 324.714 323.61 315.192 320.712 308.292C329.682 304.29 336.72 300.426 344.172 294.354C349.14 290.076 348.864 282.624 345.414 278.622L344.448 278.484H344.31L327.888 281.934C327.06 282.9 326.094 284.004 325.128 284.97C323.886 286.35 322.644 287.73 321.54 289.11C315.33 295.872 309.948 302.358 309.12 306.084Z" fill="#3A4B77"/>
<path d="M321.954 337.548L323.058 337.134C323.472 336.72 323.886 336.03 324.162 335.34C324.576 324.714 323.748 315.192 320.85 308.292C329.82 304.29 336.858 300.426 344.31 294.354C349.278 290.076 349.002 282.624 345.552 278.622L344.586 278.484L325.266 284.97C324.024 286.35 322.782 287.73 321.678 289.11C323.748 289.386 328.44 289.524 338.1 289.386C334.65 296.7 326.646 302.772 316.71 307.05C320.988 314.778 322.092 325.68 321.954 337.548Z" fill="#44598E"/>
<path d="M258.336 345.69C249.642 350.796 249.642 358.938 258.336 363.906C267.03 369.012 281.244 369.012 289.938 363.906C298.632 358.8 298.632 350.658 289.938 345.69C281.244 340.584 267.168 340.584 258.336 345.69Z" fill="#2D2856"/>
<path d="M258.336 343.344C249.642 348.45 249.642 356.592 258.336 361.56C267.03 366.666 281.244 366.666 289.938 361.56C298.632 356.454 298.632 348.312 289.938 343.344C281.244 338.376 267.168 338.376 258.336 343.344Z" fill="#C0C7A9"/>
<path d="M269.238 349.692C266.478 351.21 266.478 353.832 269.238 355.35C271.998 356.868 276.414 356.868 279.036 355.35C281.796 353.832 281.796 351.21 279.036 349.692C276.414 348.174 271.998 348.174 269.238 349.692Z" fill="#2D2856"/>
<path d="M269.238 347.898C266.478 349.416 266.478 352.038 269.238 353.556C271.998 355.074 276.414 355.074 279.036 353.556C281.796 352.038 281.796 349.416 279.036 347.898C276.414 346.38 271.998 346.38 269.238 347.898Z" fill="#C0C7A9"/>
<path d="M270.48 347.208C268.41 348.45 268.41 350.382 270.48 351.624C272.55 352.866 276 352.866 278.07 351.624C280.14 350.382 280.14 348.45 278.07 347.208C275.862 346.104 272.55 346.104 270.48 347.208Z" fill="#2D2856"/>
<path d="M279.588 314.502H268.824V349.692H279.588V314.502Z" fill="#2D2856"/>
<path d="M242.466 292.698C224.94 302.772 224.94 319.194 242.466 329.268C259.992 339.342 288.282 339.342 305.808 329.268C323.334 319.194 323.334 302.772 305.808 292.698C288.42 282.486 259.992 282.486 242.466 292.698Z" fill="#2D2856"/>
<path d="M242.466 290.076C224.94 300.15 224.94 316.572 242.466 326.646C259.992 336.72 288.282 336.72 305.808 326.646C323.334 316.572 323.334 300.15 305.808 290.076C288.42 280.002 259.992 280.002 242.466 290.076Z" fill="white"/>
<path d="M298.77 278.07C300.15 277.38 300.978 277.932 301.668 279.45C301.806 279.312 302.082 279.174 302.22 279.174C307.188 276.276 311.88 272.55 316.572 268.134L319.056 259.302L322.23 248.262L324.024 244.95L320.85 242.604C316.158 241.914 314.64 244.122 313.536 249.228L309.258 264.684C305.67 267.72 302.082 272.412 298.77 278.07Z" fill="#D6EEEB"/>
<path d="M302.082 279.174C307.05 276.276 311.742 272.55 316.434 268.134L318.918 259.302L315.192 251.85C314.226 258.06 311.742 262.338 311.466 267.858L302.082 279.174Z" fill="#D6EEEB"/>
<path d="M331.338 235.842C340.722 238.878 338.652 247.71 336.168 254.61L329.544 248.4L331.338 235.842Z" fill="#0B1017"/>
<path d="M313.536 265.236V265.374C313.812 270.756 321.126 270.204 321.126 270.204L324.024 276.69C324.714 286.074 340.86 288.42 345.414 278.622C342.102 274.068 342.102 274.068 341.826 270.894C342.102 270.066 342.24 269.238 342.516 268.41C344.034 262.2 343.344 257.37 340.584 251.988C337.962 248.538 332.028 245.088 328.302 243.708L317.4 243.432L315.192 251.436C315.744 261.372 313.398 261.096 313.536 265.236Z" fill="#D6EEEB"/>
<path d="M330.096 241.914C330.648 243.984 332.304 247.158 332.718 249.09C333.132 251.436 328.716 255.162 325.818 255.024C323.748 254.61 323.196 251.85 322.92 249.504L330.096 241.914Z" fill="#FFAE80"/>
<path d="M328.578 243.432C328.578 243.432 330.372 257.784 323.473 256.542C318.919 255.714 319.885 248.4 319.885 248.4L328.578 243.432Z" fill="#D6EEEB"/>
<path d="M324.3 230.322C317.4 231.288 315.192 235.29 315.882 240.81C316.02 245.364 319.746 251.574 322.506 251.436C326.37 251.712 328.164 247.158 331.476 242.466C333.96 234.6 330.648 229.356 324.3 230.322Z" fill="#FFAE80"/>
<path d="M316.02 240.948C317.4 242.466 319.746 243.294 322.644 243.984C325.128 244.95 327.474 244.95 328.302 246.192L331.062 245.088C333.822 241.776 334.098 232.53 329.268 230.598C321.678 227.424 312.432 235.29 316.02 240.948Z" fill="#0B1017"/>
<path d="M328.44 244.812C328.854 243.156 330.096 242.052 331.062 243.018C331.476 243.432 331.476 244.26 331.062 245.364C330.786 246.192 330.234 246.606 329.544 246.606C328.578 246.882 328.026 246.192 328.44 244.812Z" fill="#FFAE80"/>
<path d="M313.536 265.374C313.812 270.756 321.126 270.204 321.126 270.204L324.024 276.69C324.714 286.074 340.86 288.42 345.414 278.622C342.102 274.068 342.102 274.068 341.826 270.894C342.102 270.066 342.24 269.238 342.516 268.41L336.03 261.51L332.304 269.928C329.268 276.552 322.092 273.654 321.54 268.41C320.436 269.928 315.054 269.652 313.536 265.374Z" fill="#D6EEEB"/>
<path d="M301.392 306.774L321.678 295.182L308.154 287.04L293.664 280.002L272.826 290.49L288.42 298.218L301.392 306.774Z" fill="#FF984A"/>
<path d="M289.938 299.598L288.558 299.184L287.04 298.08L287.178 297.528L288.42 298.218L289.8 299.046L289.938 299.598Z" fill="#40274F"/>
<path d="M287.178 298.218L272.826 291.18V290.49L287.178 297.528V298.218Z" fill="#40274F"/>
<path d="M289.8 299.736L301.392 307.602V306.774L289.8 299.046V299.736Z" fill="#40274F"/>
<path d="M289.8 299.736C289.8 300.564 287.178 299.046 287.178 298.218V297.528C287.178 298.494 289.8 299.874 289.8 298.908V299.736Z" fill="#40274F"/>
<path d="M301.392 307.602V306.774L321.678 295.182L321.54 295.872L301.392 307.602Z" fill="#40274F"/>
<path d="M274.758 290.352L287.868 296.976L306.912 287.592L293.664 280.968L274.758 290.352Z" fill="white"/>
<path d="M301.392 278.898C301.806 280.002 301.806 281.244 301.944 282.072L301.53 283.728L300.564 285.384C300.012 286.35 299.322 285.798 299.736 284.832L300.426 283.314V282.072L298.218 284.418L296.424 287.316C295.734 288.006 295.597 287.73 295.459 287.04L294.769 287.868C294.217 288.558 293.526 287.868 293.802 287.316L293.526 287.454C292.974 288.144 292.285 287.592 292.699 286.764L292.975 286.212C292.285 286.626 292.423 285.936 292.975 284.97L294.769 281.796C295.183 281.106 297.666 278.484 298.908 277.932C299.736 277.656 300.702 277.932 301.392 278.898Z" fill="#FFAE80"/>
<path d="M316.158 289.662C315.606 291.456 314.502 292.284 312.57 293.664L308.982 296.01C307.878 296.286 307.878 295.872 308.154 295.182L306.636 296.148C305.67 296.7 304.842 296.148 305.256 295.32L304.29 295.734C303.324 296.01 303.048 295.458 303.876 294.492L304.428 293.94C303.6 294.354 302.772 293.94 303.876 292.836C305.808 290.628 307.464 289.11 309.534 287.592C311.052 286.764 312.294 286.626 314.088 286.35L317.124 285.384L318.642 288.282L316.158 289.662Z" fill="#FFAE80"/>
<path d="M340.584 251.988C343.758 254.61 344.586 257.232 344.034 262.89C342.654 275.724 337.41 283.866 337.41 283.866C331.89 286.902 324.162 288.42 316.02 289.662C316.158 288.006 315.606 286.764 314.226 286.35C321.54 282.762 329.682 277.932 332.718 278.07C332.856 271.584 333.96 266.34 335.34 260.544C336.444 256.542 337.962 253.23 340.584 251.988Z" fill="#D6EEEB"/>
<path d="M372.876 305.946L412.206 328.578V381.018L372.876 358.386V305.946Z" fill="#B24D0D"/>
<path d="M456.642 257.508L495.972 280.278L412.206 328.578L372.876 305.946L456.642 257.508Z" fill="white"/>
<path d="M495.973 332.718V280.278L412.207 328.578V381.018L495.973 332.718Z" fill="#FF984A"/>
<path d="M491.142 283.452L486.174 280.692V146.004L491.142 148.764V283.452Z" fill="#B24D0D"/>
<path d="M495.972 146.004L491.142 148.764L486.174 146.004L491.142 143.244L495.972 146.004Z" fill="#9D9D9C"/>
<path d="M491.143 283.452L495.973 280.692V146.004L491.143 148.764V283.452Z" fill="#FF984A"/>
<path d="M269.238 464.37L264.408 461.61V274.896L269.238 277.656V464.37Z" fill="#B24D0D"/>
<path d="M274.206 274.896L269.238 277.656L264.408 274.896L269.238 271.998L274.206 274.896Z" fill="#9D9D9C"/>
<path d="M269.238 464.37L274.206 461.61V274.896L269.238 277.656V464.37Z" fill="#FF984A"/>
<path d="M358.662 66.102L131.928 197.754L269.238 277.656L495.972 146.004L358.662 66.102ZM138.138 197.754L358.662 69.69L489.762 146.004L269.238 274.068L138.138 197.754Z" fill="#808080"/>
<path d="M358.662 30.222L131.928 161.874L269.238 241.776L495.972 110.124L358.662 30.222ZM138.138 161.874L358.662 33.81L489.762 110.124L269.238 238.188L138.138 161.874Z" fill="white"/>
<path d="M495.972 146.004L269.238 277.656V241.776L495.972 110.124V146.004Z" fill="#FF984A"/>
<path d="M476.652 145.176V134.412L316.296 227.562V238.326L476.652 145.176Z" fill="white"/>
<path d="M358.662 69.69L169.05 179.814L138.138 161.874L358.662 33.81V69.69Z" fill="#FF984A"/>
<path d="M131.928 197.754L269.238 277.656V241.776L131.928 161.874V197.754Z" fill="#B24D0D"/>
<path d="M358.662 69.69L458.85 128.064L489.762 110.124L358.662 33.81V69.69Z" fill="#B24D0D"/>
<path d="M472.098 289.524L477.066 288.972L476.376 287.592L473.202 285.246L472.098 289.524Z" fill="#FFD88F"/>
<path d="M480.24 297.528L469.89 280.416L458.85 285.66L469.338 302.772L480.24 297.528Z" fill="#291933"/>
<path d="M468.786 300.84L478.722 296.01L469.614 281.106L459.678 285.936L468.786 300.84Z" fill="white"/>
<path d="M469.476 284.832L471.408 284.418C472.098 285.936 473.34 286.626 474.582 286.902L475.686 287.316C476.1 286.35 476.376 285.936 476.514 285.66C476.376 284.28 475.548 283.038 474.72 282.762L471.684 282.21L467.958 283.59C467.958 284.418 468.372 284.832 469.476 284.832Z" fill="#FFAE80"/>
<path d="M468.372 300.15C468.51 300.15 468.51 300.15 468.648 300.15C468.924 300.012 469.2 299.736 469.2 299.46L466.026 284.418C465.888 284.142 465.612 283.866 465.336 283.866C465.06 284.004 464.784 284.28 464.784 284.556L467.958 299.598C467.82 300.012 468.096 300.15 468.372 300.15Z" fill="#291933"/>
<path d="M461.61 292.836C461.472 293.388 461.886 293.802 461.886 294.216C461.886 294.354 461.886 294.63 461.886 294.906C461.886 295.044 461.886 295.32 461.886 295.458C461.886 296.424 464.094 297.804 464.784 298.356L467.682 299.736L471.132 302.772L471.822 301.668L473.478 299.184L470.994 296.148C471.132 294.492 471.27 293.112 470.718 291.87L469.338 290.214L466.854 288.972L467.13 290.076C467.13 290.076 466.164 289.386 465.198 288.834C464.784 288.558 463.956 288.42 463.542 288.834C463.404 288.972 463.404 289.524 463.266 289.662C463.128 289.938 462.438 290.214 462.438 290.49C462.3 290.766 462.576 291.456 462.438 291.732C462.162 292.008 461.61 292.284 461.61 292.836Z" fill="#FFAE80"/>
<path opacity="0.5" d="M466.854 289.248L469.338 291.318L466.992 289.938L466.854 289.248Z" fill="#FFD88F"/>
<path opacity="0.5" d="M461.748 295.044C461.748 295.182 461.748 295.458 461.748 295.596C461.748 296.562 463.956 297.942 464.646 298.494L467.544 299.874L470.994 302.91L471.684 301.806C470.166 300.84 468.924 299.322 468.096 298.218C465.612 297.942 462.714 296.976 461.748 295.044Z" fill="#FFD88F"/>
<path d="M480.93 302.358C487.002 305.67 508.53 307.74 510.324 301.254C515.844 283.176 510.738 273.102 506.46 271.17C506.598 271.17 478.998 303.048 480.93 302.358Z" fill="#D6EEEB"/>
<path d="M473.202 392.748C473.202 390.264 475.134 389.436 477.894 389.022C480.378 389.022 483.552 390.126 487.83 391.092L492.66 393.714C493.626 396.198 493.626 398.406 493.074 400.476C491.694 401.718 489.9 402.408 488.382 401.994L482.862 399.648L482.448 398.82C478.032 398.406 473.202 396.474 473.202 392.748Z" fill="#0B1017"/>
<path d="M491.004 382.95C491.004 381.018 492.798 380.604 495.42 380.466C500.25 380.466 500.388 382.812 504.804 382.812L509.082 385.434C509.91 387.918 509.772 390.678 509.22 392.748C507.978 393.852 505.908 394.128 504.39 393.852L499.974 391.23L499.56 390.402C495.558 389.712 491.004 386.676 491.004 382.95Z" fill="#0B1017"/>
<path d="M506.598 315.33L490.59 321.954C490.59 324.852 490.59 327.474 490.866 329.406C491.832 336.72 494.868 347.898 494.868 347.898C496.938 357.282 497.904 369.012 498.318 381.432C498.456 385.848 505.08 389.712 509.22 385.572C510.462 370.53 510.462 355.902 506.874 346.104C508.53 338.514 507.012 329.82 506.46 320.988C506.874 319.884 506.184 315.468 506.598 315.33Z" fill="#1D1D1B"/>
<path d="M477.618 338.1C478.17 345.414 480.516 356.592 480.516 356.592L482.172 389.988C481.896 392.196 482.724 393.99 484.242 395.094C486.588 396.75 490.314 396.75 492.798 393.852C494.868 378.81 495.696 364.32 492.66 354.66C494.73 347.07 494.73 339.894 494.73 331.062C499.698 329.13 507.288 326.232 506.874 318.504C506.736 315.606 506.322 312.708 505.632 309.948C505.494 309.396 505.356 308.844 505.218 308.43C505.08 308.016 504.942 307.602 504.804 307.188C502.044 312.57 493.35 316.02 483.828 314.778C483.414 314.778 483 314.64 482.586 314.64C481.62 314.502 480.516 314.226 479.55 313.95C479.55 313.95 479.412 314.502 479.274 315.468C479.136 316.296 478.998 317.262 478.86 318.366C478.17 323.886 477.204 333.132 477.618 338.1Z" fill="#3C3C3B"/>
<path d="M477.618 338.1C478.17 345.414 480.516 356.592 480.516 356.592L482.172 390.126C481.896 392.334 482.724 394.128 484.242 395.232C482.724 381.156 482.172 367.908 484.242 357.696C481.068 346.104 480.93 332.856 484.518 323.886C484.518 320.298 482.862 318.228 483.552 315.606C482.172 315.192 480.93 314.64 479.55 314.088C479.55 313.95 476.928 330.786 477.618 338.1Z" fill="#232323"/>
<path d="M506.322 307.602C505.908 309.258 505.908 311.052 506.322 312.708C506.736 314.364 507.012 315.744 506.874 317.4C503.7 321.816 495.696 325.818 487.416 324.438C487.002 324.3 485.898 324.024 484.518 323.61C484.38 323.61 484.38 323.61 484.242 323.61C483.276 323.334 482.31 323.058 481.344 322.782C481.206 322.782 481.068 322.644 480.93 322.644C480.654 322.506 480.24 322.506 479.964 322.368C479.55 322.23 479.274 322.092 478.86 322.092C478.722 322.092 478.584 321.954 478.446 321.954C478.308 321.954 478.17 321.816 478.17 321.816L478.584 314.916C478.032 308.982 478.032 306.36 477.756 298.908C477.756 298.632 477.756 298.356 477.756 298.08C477.756 297.252 477.894 296.424 477.618 295.596C474.996 285.384 476.79 284.28 479.55 282.486C488.382 276.966 495.282 269.79 506.736 271.032C515.292 279.45 506.46 306.774 506.322 307.602Z" fill="#FF984A"/>
<path d="M484.104 267.582C483.552 266.892 484.38 265.512 485.07 265.374C485.898 265.098 486.45 266.34 486.45 267.03C486.588 267.996 486.45 268.686 485.898 269.376C485.346 270.204 484.38 269.376 484.104 268.686C483.966 268.272 484.518 267.996 484.104 267.582Z" fill="#FFD88F"/>
<path d="M497.214 271.86L493.35 265.098L482.724 270.342L486.864 277.932C490.728 277.932 498.594 274.344 497.214 271.86Z" fill="#FFAE80"/>
<path d="M486.312 273.654C486.312 273.654 485.07 276.138 482.862 274.206C480.654 272.274 477.066 265.65 478.308 260.268C479.55 255.024 488.382 262.2 488.382 262.2L486.312 273.654Z" fill="#FFAE80"/>
<path d="M495.558 269.238C495.558 269.238 491.142 270.618 487.968 272.688C487.14 273.24 486.174 273.102 485.346 272.55L483.966 271.446L483 268.548L480.93 267.72L481.068 265.512C479.826 265.236 478.86 264.27 477.894 263.166C474.996 258.198 481.068 252.816 487.554 253.23C495.834 253.782 497.904 262.614 495.558 269.238Z" fill="#0B1017"/>
<path d="M481.758 268.548C481.758 268.272 481.62 267.858 481.758 267.582C481.758 267.306 481.896 266.892 482.172 266.754C482.724 266.478 483.414 266.754 483.69 267.168C483.966 267.72 484.104 268.272 484.104 268.824C484.104 269.238 484.104 269.652 484.242 270.066C484.242 270.48 484.242 270.756 484.104 271.17C483.966 271.446 483.69 271.86 483.276 271.86C483 271.86 482.724 271.722 482.586 271.446C482.448 271.17 482.31 271.032 482.31 270.756C482.034 270.066 481.896 269.238 481.758 268.548Z" fill="#FFAE80"/>
<path opacity="0.5" d="M484.518 323.748C484.38 323.748 484.38 323.748 484.242 323.748C483.276 323.472 482.31 323.196 481.344 322.92C481.206 322.92 481.068 322.782 480.93 322.782C480.654 322.644 480.24 322.644 479.964 322.506C479.55 322.368 479.274 322.23 478.86 322.23C478.722 322.23 478.584 322.092 478.446 322.092C478.308 322.092 478.17 321.954 478.17 321.954L478.584 315.054C478.032 309.12 478.032 306.498 477.756 299.046L485.346 292.698C487.692 303.186 487.692 311.466 484.518 323.748Z" fill="#B24D0D"/>
<path d="M477.342 284.28C473.616 286.626 473.34 289.248 473.34 295.044L473.616 298.494L470.856 295.872C468.096 295.734 466.854 297.114 467.13 300.564C468.096 306.36 470.994 312.708 475.686 314.364C478.308 315.33 480.93 314.088 482.31 309.12L485.484 296.148C485.76 287.592 483.966 282.9 477.342 284.28Z" fill="#D6EEEB"/>
<path d="M497.49 271.998L496.386 270.48C495.696 272.136 492.108 274.344 485.76 276L485.898 278.07C491.832 279.174 498.87 274.62 497.49 271.998Z" fill="#D6EEEB"/>
<path d="M427.11 247.71L420.9 230.46C419.934 223.698 415.794 222.318 412.482 221.214L410.136 233.22L412.482 237.912L419.52 252.264C420.486 254.472 421.59 256.68 422.832 258.888L429.594 253.23C428.628 251.436 427.938 249.504 427.11 247.71Z" fill="#D6EEEB"/>
<path d="M419.934 247.02L417.312 230.322L412.344 237.774L419.382 252.126C420.348 254.334 421.452 256.542 422.694 258.75L424.212 257.508C422.28 253.92 420.9 250.332 419.934 247.02Z" fill="#D6EEEB"/>
<path d="M418.14 234.048C418.14 250.746 407.376 261.372 407.376 261.924C406.41 262.614 405.444 263.304 404.478 263.856C387.918 274.344 381.984 259.854 381.984 259.854C382.674 254.334 380.466 250.47 381.432 242.88C381.432 242.604 381.57 242.19 381.57 241.914C382.398 234.6 387.228 228.666 394.404 226.872C396.336 226.32 398.13 225.492 399.51 224.112C403.236 220.662 406.134 220.11 411.516 220.662C416.07 223.284 418.002 227.976 418.14 234.048Z" fill="#D6EEEB"/>
<path d="M404.478 263.856C387.918 274.344 381.984 259.854 381.984 259.854C382.674 254.334 380.466 250.47 381.432 242.88C382.26 237.36 385.848 236.808 391.23 239.016L397.992 252.954L404.478 263.856Z" fill="#D6EEEB"/>
<path d="M406.548 234.462L407.514 237.36L409.17 236.808V233.496L407.514 232.392L406.548 234.462Z" fill="#A1241D"/>
<path d="M407.514 237.36C407.928 243.57 407.928 255.162 407.514 261.648L410.274 264.27L412.206 259.992C411.792 253.644 410.55 242.742 409.308 236.808L407.514 237.36Z" fill="#FF984A"/>
<path d="M402.822 220.386C402.684 220.386 399.372 224.388 399.372 224.388C395.094 226.872 400.614 235.842 406.41 235.014L411.24 231.564L402.822 220.386Z" fill="#FFAE80"/>
<path d="M400.338 223.146C399.51 223.698 398.13 224.664 396.888 225.768C396.888 225.768 399.234 236.808 406.41 237.36C406.962 235.428 407.652 233.91 407.652 233.91C403.374 233.358 400.338 226.596 400.338 223.146Z" fill="#A1D4CD"/>
<path d="M407.791 234.048L410.412 236.532C410.412 236.532 412.896 226.182 410.689 223.974C408.619 221.766 407.791 234.048 407.791 234.048Z" fill="#A1D4CD"/>
<path d="M414 228.528C414 232.806 412.758 240.396 409.86 239.844C405.72 240.534 404.202 228.528 405.72 225.216L414 228.528Z" fill="#D6EEEB"/>
<path d="M409.998 209.484C404.754 209.484 401.718 211.968 401.442 217.488C401.58 223.284 401.856 226.734 404.616 230.736C406.41 232.944 408.756 234.462 411.378 234.324C414.552 234.186 419.382 226.458 419.796 220.938C420.762 215.28 415.932 211.002 409.998 209.484Z" fill="#FFAE80"/>
<path d="M419.244 224.94C418.002 227.7 411.102 227.286 407.928 223.836L407.652 225.906L404.892 223.56L402.408 226.734L401.58 225.492C399.372 220.938 399.51 213.624 405.858 209.898C414.276 206.448 424.902 216.384 419.244 224.94Z" fill="#0B1017"/>
<path d="M404.064 225.906C403.788 225.354 403.374 224.664 403.374 224.112C403.374 223.422 403.512 222.732 403.926 222.318C404.478 221.904 405.306 221.766 405.72 222.18C406.134 222.456 406.272 223.008 406.272 223.422C406.272 223.836 406.134 224.25 405.996 224.802C405.858 225.216 405.72 225.63 405.582 226.044C405.444 226.32 405.444 226.596 405.168 226.734C404.892 226.872 404.616 226.734 404.478 226.596C404.34 226.458 404.202 226.182 404.064 225.906Z" fill="#FFAE80"/>
<path d="M413.31 288.282L428.904 279.174L451.122 292.008L435.528 301.116L413.31 288.282Z" fill="white"/>
<path d="M435.39 298.356L446.706 291.87L447.396 292.284L436.08 298.77L435.39 298.356Z" fill="#1D1D1B"/>
<path d="M433.596 297.39L444.912 290.904L445.326 291.042L434.01 297.528L433.596 297.39Z" fill="#1D1D1B"/>
<path d="M432.492 296.7L443.808 290.214L444.222 290.49L432.906 296.976L432.492 296.7Z" fill="#1D1D1B"/>
<path d="M431.388 296.01L442.704 289.524L443.118 289.8L431.802 296.286L431.388 296.01Z" fill="#1D1D1B"/>
<path d="M429.18 294.768L440.358 288.282L440.772 288.558L429.594 295.044L429.18 294.768Z" fill="#1D1D1B"/>
<path d="M428.076 294.078L439.254 287.592L439.668 287.868L428.49 294.354L428.076 294.078Z" fill="#1D1D1B"/>
<path d="M433.872 289.524L438.15 287.04L438.564 287.178L434.286 289.662L433.872 289.524Z" fill="#1D1D1B"/>
<path d="M425.73 292.836L437.046 286.35L437.46 286.626L426.144 293.112L425.73 292.836Z" fill="#1D1D1B"/>
<path d="M424.626 292.146L435.942 285.66L436.356 285.936L425.04 292.422L424.626 292.146Z" fill="#1D1D1B"/>
<path d="M426.144 290.076L434.838 285.108L435.252 285.246L426.558 290.214L426.144 290.076Z" fill="#1D1D1B"/>
<path d="M426.42 286.074L431.526 283.176L431.94 283.314L426.834 286.212L426.42 286.074Z" fill="#1D1D1B"/>
<path d="M425.316 285.384L430.422 282.486L430.836 282.762L425.73 285.66L425.316 285.384Z" fill="#1D1D1B"/>
<path d="M426.42 287.454C426.42 287.592 426.42 287.592 426.42 287.73C426.42 287.868 426.558 288.144 426.558 288.282C426.696 288.42 426.696 288.696 426.972 288.696C427.11 288.558 426.972 288.42 426.972 288.42C426.834 288.282 426.834 288.144 426.696 288.006C426.696 287.73 426.696 287.592 426.42 287.454C426.558 287.178 426.834 286.902 427.248 286.764C426.834 286.902 426.558 287.04 426.42 287.454C426.42 287.316 426.282 287.178 426.282 287.178C425.73 286.626 425.178 286.074 424.902 285.522C424.764 285.246 424.902 284.97 425.04 284.694C425.178 284.418 425.592 284.142 426.144 284.28C426.696 284.418 426.696 284.832 426.696 285.108C426.558 285.384 426.42 285.66 426.144 285.798C426.558 285.384 427.11 284.832 426.558 284.418C426.282 284.28 426.006 284.142 425.592 284.28C425.178 284.418 425.04 284.556 424.902 284.832C424.626 285.384 424.902 285.936 425.454 286.488C425.73 286.764 426.006 287.04 426.282 287.316C426.282 287.316 426.42 287.316 426.42 287.454ZM426.834 288.282C426.972 288.42 427.11 288.558 426.972 288.834C426.834 288.834 426.834 288.696 426.696 288.558C426.696 288.42 426.558 288.42 426.558 288.282C426.42 288.144 426.42 288.006 426.42 287.73V287.592C426.696 287.73 426.834 288.006 426.834 288.282Z" fill="#1D71B8"/>
<path d="M422.142 289.524C422.97 289.386 423.384 288.834 423.108 288.42C422.97 288.42 422.97 288.42 422.832 288.42C422.97 288.282 422.832 288.282 422.832 288.144C422.832 288.006 422.832 288.006 422.832 287.868C422.97 288.006 423.108 288.006 423.246 288.144C423.384 288.144 423.522 288.144 423.522 288.144C423.522 288.006 423.522 287.868 423.522 287.868C423.66 288.006 423.936 288.006 424.074 287.868C424.212 287.73 424.212 287.592 424.074 287.454C424.488 287.868 424.902 288.144 425.592 288.558C425.592 288.282 425.454 288.144 425.316 288.006C425.04 287.73 424.902 287.592 424.764 287.316C424.626 287.178 424.626 287.04 424.626 287.04C424.626 286.902 424.488 286.764 424.626 286.626C424.626 286.764 424.764 286.902 424.764 287.04C424.902 287.178 425.04 287.316 425.178 287.454C425.316 287.592 425.454 287.592 425.592 287.73C426.006 287.868 425.868 287.316 425.73 287.316C425.592 287.04 425.316 286.902 425.04 286.626C424.902 286.488 424.764 286.488 424.626 286.626L424.764 286.488C424.902 286.488 425.04 286.488 425.178 286.626C425.316 286.764 425.454 286.902 425.592 287.04C425.73 287.178 426.006 287.316 425.73 287.454C425.868 287.316 425.868 287.316 425.73 287.178C425.592 287.04 425.454 286.902 425.316 286.764C425.178 286.626 424.902 286.35 424.488 286.488C424.35 286.488 424.35 286.626 424.35 286.626L424.212 286.764C424.212 286.902 424.212 287.04 424.35 287.178C424.488 287.316 424.488 287.454 424.626 287.592C424.764 287.73 424.902 287.868 425.04 288.144C425.178 288.282 425.316 288.42 425.454 288.696C424.764 288.282 424.212 287.868 423.798 287.454C423.798 287.316 423.66 287.316 423.66 287.178C423.66 287.178 423.522 287.178 423.66 287.178C423.66 287.316 423.798 287.316 423.936 287.454C424.074 287.592 424.074 287.73 424.074 287.868V288.006C423.936 288.144 423.66 288.006 423.522 288.006C423.384 287.868 423.246 287.73 423.108 287.592C423.108 287.73 423.246 287.868 423.384 287.868L423.522 288.006V288.144C423.522 288.282 423.384 288.282 423.246 288.144C423.108 288.144 422.97 288.006 422.832 288.006C422.832 288.144 422.832 288.282 422.832 288.42C422.832 288.558 422.556 288.42 422.556 288.42C422.556 288.42 422.556 288.42 422.418 288.42C422.556 288.558 422.832 288.558 423.108 288.558C423.246 288.834 422.832 289.248 422.142 289.524C422.004 289.524 422.142 289.524 422.142 289.524ZM424.488 286.488C424.764 286.35 425.178 286.764 425.316 286.902C425.454 287.04 425.454 287.04 425.454 287.178V287.316C425.454 287.592 425.178 287.454 425.178 287.454C424.902 287.316 424.626 287.04 424.488 286.902C424.626 286.764 424.626 286.626 424.488 286.488Z" fill="#1D71B8"/>
<path d="M408.894 283.59L410.964 285.66L414.414 280.278L411.378 278.898L408.894 283.59Z" fill="#F69A62"/>
<path d="M419.796 281.796C419.52 282.486 419.382 283.314 419.658 284.28L419.382 284.97L419.106 285.66L418.83 286.764C418.554 287.04 418.278 287.178 417.864 287.178L417.312 288.006C417.174 288.144 416.898 288.282 416.484 288.144L415.932 288.834C415.518 289.11 414.552 288.972 413.31 288.834C413.172 288.834 411.24 287.868 411.24 287.868C411.24 287.868 410.55 287.592 410.55 287.178C410.412 286.488 410.55 286.35 410.55 286.074C410.412 285.798 409.998 285.522 409.998 284.832C409.998 284.004 410.55 284.004 410.55 283.59C410.55 283.314 410.274 283.176 410.55 282.348C410.688 281.658 411.516 281.658 411.792 281.244C411.93 280.968 412.068 280.14 412.62 279.588C413.172 279.036 414.414 279.588 414.414 279.588L415.794 280.416L418.83 280.002L419.106 280.14C419.796 280.278 420.072 281.106 419.796 281.796Z" fill="#FFAE80"/>
<path d="M416.208 280.416L418.416 280.692C418.416 280.692 418.416 283.038 418.416 282.9C418.416 282.762 417.588 281.934 416.898 281.244C416.484 280.83 416.208 280.416 416.208 280.416Z" fill="#FFAE80"/>
<path d="M421.176 288.144L412.482 276.828C412.206 276.552 412.344 276.138 412.62 276C412.896 275.724 413.31 275.862 413.448 276.138L422.142 287.454C422.418 287.73 422.832 288.834 422.556 289.11C422.28 289.248 421.314 288.42 421.176 288.144Z" fill="#1D1D1B"/>
<path d="M419.382 284.97L419.106 285.66L418.83 286.764C418.554 287.04 418.278 287.178 417.864 287.178L417.312 288.006C417.174 288.144 416.898 288.282 416.484 288.144L415.932 288.834C415.518 289.11 414.552 288.972 413.31 288.834C414.138 287.454 414.69 285.936 414.828 284.418L413.586 282.486L418.554 284.142L419.382 284.97Z" fill="#FFAE80"/>
<path d="M413.034 281.658L415.242 283.452L418.278 284.418C419.382 284.832 419.934 283.452 418.83 282.762C418.692 282.762 416.484 281.796 416.484 281.796L414.69 279.45C413.31 279.45 412.62 280.692 413.034 281.658Z" fill="#FFAE80"/>
<path d="M415.38 280.278L414 280.14L416.346 281.934L415.794 280.278H415.38Z" fill="#FFAE80"/>
<path d="M422.694 289.248L422.418 288.972L422.556 288.834L422.694 289.11C422.832 289.11 422.832 289.11 422.694 289.248Z" fill="#B2B2B2"/>
<path d="M386.538 234.324C390.816 234.6 392.886 237.084 394.128 243.984L398.268 261.372C403.098 265.512 407.376 271.446 412.344 279.312C410.688 280.554 409.308 282.486 409.722 284.418C401.718 279.588 395.094 273.654 389.988 265.788C385.158 252.954 378.258 238.602 386.538 234.324Z" fill="#D6EEEB"/>
<path d="M442.566 278.07C442.98 278.898 442.152 279.726 441.6 279.174L441.324 279.036C441.6 279.588 440.772 280.554 440.082 280.002L439.254 279.312C439.254 280.14 438.978 280.554 438.15 280.002L435.804 277.242L433.044 275.172V276.69L433.872 278.208C434.286 279.174 433.458 280.002 432.906 279.174L432.216 278.07L431.802 277.518L431.25 275.724C431.25 274.758 431.388 273.24 431.94 271.722L430.974 271.032L433.734 269.1L435.114 269.928C436.632 270.066 439.668 272.274 440.22 272.964L442.428 276.138C443.118 276.966 443.118 277.932 442.428 277.518L442.566 278.07Z" fill="#FFAE80"/>
<path d="M422.694 258.888C425.178 263.718 428.214 268.41 431.526 272.964L432.354 271.86C433.182 270.756 434.148 270.066 435.114 269.928C434.148 264.96 431.664 259.164 429.318 253.23L422.694 258.888Z" fill="#D6EEEB"/>
<path d="M422.694 258.888C425.178 263.718 428.214 268.41 431.526 272.964L432.354 271.86C429.042 267.03 426.282 262.2 424.074 257.646L422.694 258.888Z" fill="#D6EEEB"/>
<path d="M440.082 279.864L439.254 279.174C439.254 280.002 438.978 280.416 438.15 279.864L435.804 277.104L433.044 275.034V276.552L433.872 278.07C434.286 279.036 433.458 279.864 432.906 279.036L432.216 277.932C432.63 278.484 433.044 278.898 433.458 278.76C433.596 278.208 433.182 277.242 432.63 276.414C432.906 275.724 432.906 274.758 432.768 273.654C433.596 275.034 434.7 275.862 436.08 276C436.632 277.38 437.46 278.76 438.426 279.45C438.84 279.45 438.978 279.036 439.116 278.622C439.53 279.174 440.082 279.588 440.634 279.45L441.186 278.898C441.6 279.588 440.772 280.554 440.082 279.864Z" fill="#FFAE80"/>
<path d="M305.946 238.74C305.946 243.984 301.668 250.608 296.424 253.644C291.18 256.68 286.902 254.886 286.902 249.642C286.902 244.398 291.18 237.774 296.424 234.738C301.668 231.702 305.946 233.496 305.946 238.74Z" fill="white"/>
<path d="M356.73 401.718C356.04 401.304 355.35 401.304 354.936 401.58L326.508 418.14C326.922 417.864 327.612 417.864 328.302 418.278L355.902 434.286L384.33 417.726L356.73 401.718Z" fill="#B24D0D"/>
<path d="M332.442 330.096L360.87 313.536C361.008 313.398 361.422 313.398 361.698 313.674L333.27 330.234C332.856 329.958 332.58 329.958 332.442 330.096Z" fill="#B3B3B3"/>
<path d="M333.132 330.096L361.56 313.536C361.836 313.674 362.112 313.95 362.25 314.364C365.424 319.884 368.184 325.68 370.668 331.752C372.324 335.754 373.704 339.894 375.084 344.034C377.292 351.21 379.086 358.386 380.604 365.424C381.432 369.426 382.122 373.428 382.812 377.292C383.916 384.33 384.744 390.954 385.296 397.026C385.71 401.028 385.986 404.892 386.124 408.342C386.538 415.104 386.676 420.624 386.676 424.212L358.248 440.772C358.248 437.184 358.11 431.664 357.696 424.902C357.558 421.452 357.282 417.588 356.868 413.586C356.316 407.514 355.488 400.89 354.384 393.852C353.832 389.988 353.004 385.986 352.176 381.984C350.796 374.946 348.864 367.77 346.656 360.594C345.414 356.454 343.896 352.452 342.24 348.312C339.894 342.24 336.996 336.444 333.822 330.924C333.684 330.51 333.408 330.372 333.132 330.096Z" fill="#FF984A"/>
<path d="M333.132 330.096C333.408 330.234 333.684 330.51 333.822 330.924C336.996 336.444 339.756 342.24 342.24 348.312C343.896 352.314 345.276 356.454 346.656 360.594C348.864 367.77 350.658 374.946 352.176 381.984C353.004 385.986 353.694 389.988 354.384 393.852C355.488 400.89 356.316 407.514 356.868 413.586C357.282 417.588 357.558 421.452 357.696 424.902C358.11 431.664 358.248 437.184 358.248 440.772L325.68 422.004V419.796C325.68 418.14 326.784 417.45 328.302 418.278L355.902 434.286C355.764 430.698 355.626 427.248 355.35 423.798C355.074 419.934 354.798 416.07 354.522 412.482C353.832 405.582 353.004 399.096 352.176 393.024C351.486 388.884 350.796 384.882 349.968 381.156C348.312 373.428 346.518 366.528 344.586 360.456C343.206 356.04 341.688 351.9 340.17 348.174C338.238 343.206 336.168 338.928 334.098 335.202C333.408 333.96 332.856 332.856 332.304 331.89C332.166 331.476 332.028 331.2 332.028 330.786C332.166 330.096 332.58 329.82 333.132 330.096Z" fill="#C0C7A9"/>
<path d="M346.38 345.966L367.632 333.546L370.392 333.822L349.14 346.242L346.38 345.966Z" fill="#DCE1CB"/>
<path d="M349.14 346.242L352.728 358.386L350.658 358.248C349.416 354.108 347.898 350.106 346.242 345.966L349.14 346.242Z" fill="#B24D0D"/>
<path d="M356.04 378.12L377.292 365.7L379.914 366.804L358.662 379.086L356.04 378.12Z" fill="#999999"/>
<path d="M356.04 378.12L377.292 365.7L379.914 366.804L358.662 379.086L356.04 378.12Z" fill="#DCE1CB"/>
<path d="M358.662 379.086L360.318 390.678L358.248 389.85C357.696 385.986 356.868 381.984 356.04 377.982L358.662 379.086Z" fill="#B24D0D"/>
<path d="M360.87 411.102L382.122 398.682L384.606 399.924L363.354 412.344L360.87 411.102Z" fill="#999999"/>
<path d="M360.87 411.102L382.122 398.682L384.606 399.924L363.354 412.344L360.87 411.102Z" fill="#DCE1CB"/>
<path d="M363.354 412.344L363.906 423.522L361.698 422.418C361.56 418.968 361.284 415.104 360.87 411.102L363.354 412.344Z" fill="#B24D0D"/>
<path d="M363.078 322.506L361.698 322.368L347.484 330.648L354.66 354.66L356.04 354.798L370.254 346.656L363.078 322.506Z" fill="white"/>
<path d="M348.864 330.786L363.078 322.506L370.254 346.656L356.04 354.798L348.864 330.786Z" fill="#F2F2F2"/>
<path d="M375.36 354.66L373.842 354.108L359.628 362.388L362.94 385.71L364.458 386.124L378.534 377.982L375.36 354.66Z" fill="white"/>
<path d="M361.146 362.802L375.36 354.66L378.534 377.982L364.458 386.124L361.146 362.802Z" fill="#F2F2F2"/>
<path d="M381.156 389.988L379.362 389.022L365.148 397.302L366.39 419.382L368.184 420.348L382.398 412.068L381.156 389.988Z" fill="white"/>
<path d="M366.942 398.13L381.156 389.988L382.398 412.068L368.184 420.348L366.942 398.13Z" fill="#F2F2F2"/>
<path d="M363.354 412.344L384.606 399.924L385.296 411.102L363.906 423.522L363.354 412.344Z" fill="#ACCDF4"/>
<path d="M358.662 379.086L379.914 366.804L381.57 378.396L360.318 390.816L358.662 379.086Z" fill="#ACCDF4"/>
<path d="M349.14 346.242L370.392 333.822L374.118 345.966L352.728 358.386L349.14 346.242Z" fill="#ACCDF4"/>
<path d="M309.258 439.254C309.258 439.254 308.568 443.118 308.844 444.774C309.258 446.43 313.674 447.534 313.674 447.534C313.674 447.534 319.884 453.33 325.128 452.916C328.302 452.64 329.268 451.812 329.82 450.984C330.372 450.018 329.82 448.914 329.268 448.086C328.716 447.258 322.23 444.498 320.574 441.876C319.746 440.634 318.504 438.012 318.504 438.012L317.952 433.044L309.396 432.63L309.81 438.426L309.258 439.254Z" fill="#0B1017"/>
<path d="M301.668 377.706L307.05 405.03C304.98 415.932 305.532 427.386 308.292 439.254C309.948 443.808 315.882 442.428 319.608 439.254C318.504 430.422 318.366 420.072 318.504 409.17L319.608 401.994C319.608 401.994 320.436 398.268 320.436 384.468C320.436 377.292 316.296 361.836 316.296 361.836L301.668 377.706Z" fill="#242E61"/>
<path d="M290.352 448.776C289.662 450.018 289.662 452.088 289.662 455.124C290.49 456.78 291.732 458.16 293.25 458.712C293.25 458.712 295.872 465.06 303.048 465.198C309.81 465.336 309.81 462.576 309.81 462.576C309.81 462.576 309.81 461.058 308.292 459.678C307.326 458.85 302.358 454.848 301.392 453.744C300.564 452.64 299.736 450.708 299.736 450.708L299.46 445.74H290.352V448.776Z" fill="#0B1017"/>
<path d="M306.222 383.64C306.222 397.578 306.774 405.72 303.048 412.758C303.048 412.758 302.22 418.554 301.254 422.142C300.15 425.868 300.426 442.014 300.84 451.536C298.908 454.71 294.492 455.124 291.594 453.192C290.49 452.364 289.524 451.26 289.11 449.742C286.764 434.7 285.108 422.832 291.042 411.792C289.11 402.132 289.386 392.61 289.938 381.984C289.248 375.636 290.076 370.53 291.87 366.114C292.284 365.01 292.836 363.906 293.526 362.94L318.228 368.736C315.606 377.706 311.19 382.536 306.222 383.64Z" fill="#3A4B77"/>
<path d="M295.044 412.62C287.454 420.348 289.662 435.39 291.594 453.054C290.49 452.226 289.524 451.122 289.11 449.604C286.764 434.562 285.108 422.694 291.042 411.654C289.11 401.994 289.386 392.472 289.938 381.846C289.248 375.498 290.076 370.392 291.87 365.976L300.426 375.636C292.008 381.156 290.352 399.786 295.044 412.62Z" fill="#44598E"/>
<path d="M324.024 367.218C323.334 368.874 322.644 370.392 321.954 371.91C321.402 374.118 320.436 376.188 319.194 378.258C318.78 379.776 319.608 379.776 320.988 378.948L323.886 374.67C324.714 375.36 325.266 376.602 325.68 377.982L324.852 384.468C324.99 385.71 325.542 385.572 326.232 384.882L327.336 378.948L327.474 385.296C327.888 385.848 328.302 385.71 328.578 384.744L328.992 382.95C329.268 383.64 329.682 383.502 329.958 382.812C329.958 382.812 330.234 375.084 330.234 374.946C330.234 374.808 327.75 365.976 327.75 365.976L326.784 364.044L322.92 365.148L324.024 367.218Z" fill="#FFAE80"/>
<path d="M311.604 330.372C312.984 335.478 312.57 341.826 314.364 349.278C316.848 356.73 317.952 360.732 321.402 369.288C321.954 370.116 328.578 368.736 328.302 367.908C324.714 351.486 326.784 356.868 324.576 349.83C323.61 344.448 323.472 337.41 322.782 330.924C322.368 326.646 320.712 324.3 318.504 323.196C313.398 321.402 308.706 325.542 311.604 330.372Z" fill="#D6EEEB"/>
<path d="M318.642 358.8C318.642 358.938 318.642 359.076 318.642 359.214C318.504 360.732 318.366 362.388 318.228 364.044C318.09 364.734 318.09 365.286 317.952 365.976C318.642 369.426 313.536 372.324 307.878 373.98C302.772 375.636 297.114 376.188 295.044 375.498C290.49 373.842 288.972 369.426 288.972 369.426L288.006 351.486L287.868 349.968L286.074 335.754C288.834 332.304 292.974 328.716 295.734 327.336C302.496 322.782 308.706 320.85 316.986 323.196C319.746 332.166 320.298 340.722 318.642 358.8Z" fill="#D6EEEB"/>
<path d="M307.326 332.856L310.5 335.064C310.5 335.064 312.846 326.922 310.638 324.714C308.43 322.506 307.326 332.856 307.326 332.856Z" fill="#C8E6E2"/>
<path d="M297.666 326.232L301.53 318.228L311.466 323.196L310.086 329.406C308.154 336.72 296.424 332.442 297.666 326.232Z" fill="#FFAE80"/>
<path d="M308.982 337.134V333.96L307.326 332.856L306.498 334.926L307.326 337.824C307.74 343.758 308.568 353.556 308.016 359.904L310.638 362.388L312.432 358.248C312.156 352.038 310.224 342.93 308.982 337.134Z" fill="#FF984A"/>
<path d="M298.632 324.3L296.562 326.784C296.562 326.784 299.874 336.306 305.946 336.306C306.774 334.374 307.326 332.856 307.326 332.856C302.91 332.166 298.632 327.612 298.632 324.3Z" fill="#A1D4CD"/>
<path d="M318.504 359.214C318.366 360.732 318.228 362.388 318.09 364.044C317.952 364.734 317.952 365.286 317.814 365.976C318.504 369.426 313.398 372.324 307.74 373.98C302.634 375.636 296.976 376.188 294.906 375.498C290.352 373.842 288.834 369.426 288.834 369.426L287.868 351.486L297.528 344.31C299.046 350.934 298.632 351.9 300.15 356.868C302.772 358.386 314.226 356.04 318.642 358.8C318.504 358.8 318.504 358.938 318.504 359.214Z" fill="#D6EEEB"/>
<path d="M313.398 326.37C314.226 330.648 314.778 336.72 312.156 336.996C310.5 336.996 307.188 333.96 305.67 328.716C304.428 324.576 304.704 321.54 304.704 321.54L313.398 326.37Z" fill="#D6EEEB"/>
<path d="M304.428 322.506L306.912 326.094C307.326 327.06 308.292 327.612 309.258 327.888C311.19 328.302 313.122 328.302 314.916 328.026C315.882 327.75 316.434 327.336 316.71 326.508C316.986 325.68 317.262 321.678 317.262 321.678C317.262 321.678 317.952 321.264 318.228 320.85C318.366 320.436 318.366 320.022 318.09 319.608C317.814 319.332 316.296 316.434 316.296 316.434L316.986 313.536C316.71 308.844 313.95 305.532 307.602 304.152C302.082 303.186 298.494 305.808 297.39 311.604C296.286 318.918 298.494 321.678 304.428 322.506Z" fill="#FFAE80"/>
<path d="M298.908 321.402C299.736 322.092 300.564 322.368 301.53 322.368C302.082 322.368 302.496 322.092 302.634 321.54L303.6 318.78L306.084 318.642C306.498 318.642 306.774 318.228 306.774 317.814V316.71C306.774 315.882 307.326 315.33 308.016 315.054C312.018 314.226 315.744 313.26 316.848 311.604C316.986 311.466 316.986 311.19 316.986 310.914C315.744 303.324 300.15 298.908 297.114 310.086C295.872 314.64 296.424 318.228 298.908 321.402Z" fill="#0B1017"/>
<path d="M302.91 317.4C302.22 317.676 301.806 318.366 301.806 319.194C301.806 319.884 302.22 320.574 302.496 321.264C302.634 321.678 302.91 322.092 303.186 322.368C303.462 322.644 304.014 322.782 304.428 322.644C304.842 322.506 304.98 322.23 305.118 321.816C305.256 321.402 305.256 321.126 305.256 320.712C305.256 319.884 305.256 319.056 304.842 318.366C304.566 317.676 303.738 317.124 302.91 317.4Z" fill="#FFAE80"/>
<path d="M326.646 350.796C327.888 351.348 329.544 351.21 331.476 350.658L333.822 349.416C334.512 349.83 335.478 349.14 336.582 348.588C337.134 347.898 337.272 347.346 336.72 346.794C336.996 345.966 336.858 345.276 336.306 345C336.444 344.172 336.306 343.62 335.616 343.206C335.616 342.378 335.478 341.688 334.65 341.412L340.17 337.824C341.412 336.996 340.86 335.754 339.204 336.582L328.578 342.654C327.06 343.344 325.68 344.448 324.576 345.966L322.092 349.416L325.542 353.142L326.646 350.796Z" fill="#FFAE80"/>
<path d="M327.612 352.038C324.714 356.04 309.12 365.01 303.6 365.01C296.562 359.628 295.044 358.938 287.592 350.658C280.002 339.342 287.178 328.302 295.734 338.238C300.564 343.62 303.738 348.036 306.498 352.452C314.226 349.416 323.748 346.38 323.886 346.38C323.334 347.898 326.094 351.762 327.612 352.038Z" fill="#D6EEEB"/>
<path d="M437.598 403.512L437.322 407.1L436.632 409.308L435.114 412.206C434.7 413.034 433.872 412.896 433.872 412.068L433.044 413.448C432.354 414.552 431.388 413.586 431.94 412.482L433.044 409.584L431.112 413.172C430.284 414.276 429.318 413.586 429.732 412.206L431.25 408.204L429.594 411.24C429.042 411.93 427.938 411.516 428.214 410.274L430.008 405.168C430.008 405.168 430.284 404.064 429.87 403.236C429.594 402.546 426.972 403.926 426.972 403.926C426.006 404.478 425.178 404.892 424.626 405.306C423.798 405.444 423.384 405.168 423.522 404.616L425.316 402.684L427.386 400.89L428.214 400.062C429.732 399.096 431.112 398.406 432.216 398.268L432.354 397.854L432.63 397.164L434.562 397.44L437.46 397.854L437.322 400.062L437.46 401.166L437.598 403.512Z" fill="#FFAE80"/>
<path d="M429.594 402.822L433.596 401.856L435.666 405.444L433.872 411.93C433.872 410.136 434.01 408.066 432.906 407.652L430.974 407.376L432.63 406.272L432.354 404.616L428.904 404.064L429.594 402.822Z" fill="#FFAE80"/>
<path d="M428.766 354.798L430.008 369.012L430.974 380.88C431.802 387.78 432.768 393.3 432.216 396.888C432.216 397.302 432.216 397.578 432.354 397.854C432.63 398.682 433.458 399.51 434.562 400.062C435.39 400.476 436.494 400.89 437.598 401.166C439.254 394.128 440.634 387.366 440.082 381.846L438.978 367.908C438.426 359.904 436.494 353.832 428.766 354.798Z" fill="#ACCDF4"/>
<path d="M427.11 400.89L434.286 400.062C433.182 399.51 432.354 398.82 432.078 397.854L431.94 398.268C430.836 398.406 429.456 399.096 427.938 400.062L427.11 400.89Z" fill="#FFAE80"/>
<path d="M430.974 380.88C431.802 387.78 432.768 393.3 432.216 396.888C432.216 397.302 432.216 397.578 432.354 397.854C432.63 398.682 433.458 399.51 434.562 400.062C434.562 399.234 434.562 398.268 434.562 397.44C434.976 384.192 438.978 373.152 434.424 367.08L430.008 369.15L430.974 380.88Z" fill="#ACCDF4"/>
<path d="M394.542 487.002C394.542 484.38 396.612 483.414 399.51 483.138C402.132 483.138 405.582 484.242 410.274 485.346L415.518 488.244C416.484 491.004 416.484 493.35 415.932 495.558C414.414 496.8 412.62 497.628 410.826 497.214L404.892 494.73L404.478 493.902C399.786 493.212 394.542 491.004 394.542 487.002Z" fill="#1D1D1B"/>
<path d="M413.724 476.514C413.724 474.444 415.656 474.03 418.416 473.754C423.522 473.754 423.798 476.376 428.49 476.238L433.182 478.998C434.148 481.758 433.872 484.656 433.32 486.864C431.94 488.106 429.732 488.382 428.076 488.106L423.246 485.346L422.832 484.518C418.692 483.828 413.724 480.516 413.724 476.514Z" fill="#1D1D1B"/>
<path d="M430.698 403.788L413.586 410.964C413.586 414 413.586 416.898 413.862 418.968C414.966 426.834 418.14 438.84 418.14 438.84C420.486 449.052 421.314 461.61 421.866 474.858C422.004 479.688 429.042 483.828 433.596 479.274C434.838 463.128 434.838 447.396 431.112 436.908C432.906 428.628 431.25 419.52 430.698 409.998C431.112 409.86 430.146 404.064 430.698 403.788Z" fill="#1D1D1B"/>
<path d="M417.864 420.762C417.864 430.284 418.002 437.874 415.656 446.154C418.83 456.504 418.002 472.098 415.794 488.244C413.034 491.28 409.032 491.28 406.548 489.486C404.892 488.382 403.926 486.45 404.34 483.966L402.546 447.948C402.546 447.948 400.062 436.08 399.372 428.076C398.682 420.21 401.58 402.132 401.58 402.132C403.098 402.546 404.616 402.822 406.134 403.098C416.346 404.34 425.73 400.752 428.628 394.956C428.766 395.37 428.904 395.784 429.042 396.198C430.146 399.648 430.836 403.374 430.974 407.1C431.25 415.656 423.108 418.692 417.864 420.762Z" fill="#3C3C3B"/>
<path d="M399.234 372.186C400.062 377.43 400.062 382.536 400.2 387.366C400.2 389.16 400.2 390.954 400.338 392.748C400.476 396.06 400.752 399.372 401.58 402.408C403.098 403.098 404.478 403.65 405.858 404.064C414.69 406.824 422.694 405.444 429.042 396.474C430.56 392.748 434.838 380.052 435.942 366.804C435.942 360.732 434.01 356.454 428.766 355.074C419.658 357.282 410.274 362.94 400.752 371.082C400.2 371.358 399.786 371.772 399.234 372.186Z" fill="#ACCDF4"/>
<path d="M409.032 355.488L409.86 363.768C415.242 363.768 423.522 360.042 422.556 357.144L419.796 351.762L409.032 355.488Z" fill="#FFAE80"/>
<path d="M406.548 356.592C408.618 358.938 411.93 358.662 415.104 357.834C419.796 355.626 423.246 352.314 422.832 346.242C423.246 341.688 421.176 336.996 413.448 337.272C408.618 337.41 404.478 339.204 404.064 344.448C404.202 344.31 403.926 354.108 406.548 356.592Z" fill="#FFAE80"/>
<path d="M409.584 360.87L407.652 365.286C416.76 364.32 425.04 360.87 422.97 356.592L421.314 354.66C422.556 357.834 413.586 361.422 409.584 360.87Z" fill="#6BD8EB"/>
<path d="M404.202 343.068C404.616 344.862 405.72 346.242 407.376 347.346C407.376 347.346 406.962 351.348 407.238 351.486C407.514 351.624 409.584 353.418 409.584 353.418L410.688 356.454C414.276 359.076 419.796 357.144 421.452 354.66C422.418 353.418 423.522 348.45 423.246 343.758C422.694 339.756 419.796 335.892 413.724 335.616C407.376 335.478 403.65 338.928 404.202 343.068Z" fill="black"/>
<path d="M407.79 352.038C407.238 351.348 408.066 349.83 408.756 349.692C409.722 349.416 410.136 350.658 410.274 351.486C410.412 352.452 410.274 353.142 409.722 353.97C409.032 354.936 408.066 353.97 407.79 353.28C407.652 352.728 408.204 352.452 407.79 352.038Z" fill="#FFAE80"/>
<path opacity="0.25" d="M399.372 428.214C400.062 436.08 402.546 448.086 402.546 448.086L404.34 484.104C404.064 486.45 405.03 488.382 406.548 489.624C405.03 474.444 404.34 460.23 406.548 449.328C403.098 436.908 401.58 423.798 405.582 414.138C405.582 410.274 405.168 406.824 405.996 404.064C404.616 403.65 403.098 403.098 401.718 402.408C401.442 402.27 398.682 420.348 399.372 428.214Z" fill="black"/>
<path d="M414.138 443.67C414.138 442.428 413.448 440.91 412.344 440.22L383.502 421.452C382.398 420.762 381.57 421.176 381.432 422.418L381.018 430.008L380.19 445.05C380.19 446.292 380.88 447.81 381.984 448.5L410.826 467.268C411.93 467.958 412.758 467.544 412.896 466.302L413.724 451.26L414.138 443.67Z" fill="#575756"/>
<path d="M381.984 421.314L379.776 423.108L410.136 469.338L412.344 467.682L381.984 421.314Z" fill="#575756"/>
<path d="M411.654 445.602L410.412 468.372C410.412 469.614 409.446 470.028 408.342 469.338L379.5 450.57C378.396 449.88 377.706 448.362 377.706 447.12L378.948 424.35C378.948 423.108 379.914 422.694 381.018 423.384L409.86 442.152C410.964 442.704 411.792 444.36 411.654 445.602Z" fill="#1D1D1B"/>
<path d="M411.654 445.602L411.24 453.192C411.102 455.676 409.308 456.504 407.238 455.262L382.122 438.84C380.052 437.46 378.534 434.424 378.672 431.94L379.086 424.35C379.086 423.108 380.052 422.694 381.156 423.384L409.998 442.152C410.964 442.704 411.792 444.36 411.654 445.602Z" fill="#444443"/>
<path d="M395.232 451.398L393.852 450.57C393.438 450.294 393.024 449.604 393.024 448.914L393.3 442.566L396.336 444.636L396.06 450.984C396.06 451.536 395.646 451.674 395.232 451.398Z" fill="white"/>
<path d="M397.026 447.81L392.472 444.912C392.196 444.636 391.92 444.222 391.92 443.808V442.566C391.92 442.152 392.196 442.014 392.61 442.29L397.164 445.188C397.44 445.464 397.716 445.878 397.716 446.292V447.534C397.716 447.81 397.302 447.948 397.026 447.81Z" fill="white"/>
<path d="M392.748 424.626L392.61 428.352L390.678 428.214L390.816 425.73C390.816 425.316 391.092 424.902 391.368 424.488L392.748 424.626Z" fill="#1D1D1B"/>
<path d="M392.334 427.938C392.748 428.214 392.61 428.49 392.334 428.766C391.92 428.904 391.368 428.904 390.954 428.628C390.54 428.352 390.678 428.076 390.954 427.8C391.368 427.662 392.058 427.662 392.334 427.938Z" fill="#382C2D"/>
<path d="M394.128 428.49L391.092 426.558L392.61 424.074L395.646 426.144L394.128 428.49Z" fill="#382C2D"/>
<path d="M395.922 426.834C395.922 427.524 395.37 428.214 394.818 428.49C394.266 428.766 393.852 428.49 393.852 427.8C393.852 427.11 394.404 426.42 394.956 426.144C395.508 425.868 396.06 426.144 395.922 426.834Z" fill="#3D5A55"/>
<path d="M392.886 424.764C392.886 424.902 392.886 425.178 392.748 425.316C392.61 425.73 392.196 426.144 391.782 426.42C391.506 426.558 391.23 426.558 391.092 426.42C390.816 426.282 390.816 426.006 390.816 425.73C390.816 425.316 391.092 424.902 391.368 424.488C391.506 424.35 391.782 424.074 391.92 424.074C392.196 423.936 392.472 423.936 392.61 424.074H392.748C392.886 424.35 392.886 424.488 392.886 424.764Z" fill="#1D1D1B"/>
<path d="M393.162 422.004L390.678 427.248C390.126 428.904 390.402 430.146 391.368 431.25C392.472 432.492 394.404 433.458 396.474 434.286L399.648 432.216L399.372 429.18C400.89 428.214 400.89 426.006 399.924 423.246C397.716 421.59 395.508 421.038 393.162 422.004Z" fill="#FFAE80"/>
<path opacity="0.1" d="M399.786 427.524L397.164 429.732L397.854 431.802L398.82 431.112C399.234 431.802 399.786 432.078 400.2 431.802L400.338 430.974L399.786 427.524Z" fill="#1D1D1B"/>
<path d="M401.166 433.044L398.13 431.112L399.648 428.628L402.684 430.698L401.166 433.044Z" fill="#4D4D4D"/>
<path d="M402.96 431.388C402.96 432.078 402.408 432.768 401.856 433.044C401.304 433.32 400.89 433.044 400.89 432.354C400.89 431.664 401.442 430.974 401.994 430.698C402.546 430.422 402.96 430.698 402.96 431.388Z" fill="#4D4D4D"/>
<path d="M399.924 429.318C399.924 430.008 399.372 430.698 398.82 430.974C398.268 431.25 397.854 430.974 397.854 430.284C397.854 429.594 398.406 428.904 398.958 428.628C399.51 428.49 399.924 428.766 399.924 429.318Z" fill="#1D1D1B"/>
<path d="M401.166 433.044L398.13 431.112L399.648 428.628L402.684 430.698L401.166 433.044Z" fill="#1D1D1B"/>
<path d="M402.96 431.388C402.96 432.078 402.408 432.768 401.856 433.044C401.304 433.32 400.89 433.044 400.89 432.354C400.89 431.664 401.442 430.974 401.994 430.698C402.546 430.422 402.96 430.698 402.96 431.388Z" fill="#1D1D1B"/>
<path d="M401.009 431.255L400.813 434.976L402.743 435.077L402.938 431.356L401.009 431.255Z" fill="#1D1D1B"/>
<path d="M402.546 434.7C402.96 434.976 402.822 435.252 402.546 435.528C402.132 435.666 401.58 435.666 401.166 435.39C400.752 435.114 400.89 434.838 401.166 434.562C401.58 434.424 402.132 434.424 402.546 434.7Z" fill="#1D1D1B"/>
<path d="M410.274 379.776L412.344 405.168L403.236 418.416L401.856 396.612L410.274 379.776Z" fill="#ACCDF4"/>
<path d="M402.96 369.012C398.958 371.496 397.164 372.876 397.026 380.742L397.992 401.856L393.162 421.866C393.576 424.074 398.406 425.316 400.2 423.936C403.374 418.692 405.03 414.138 408.48 405.306L410.412 382.122C410.964 373.566 411.102 367.908 402.96 369.012Z" fill="#ACCDF4"/>
<path d="M174.57 351.624C174.708 351.624 174.708 351.486 174.708 351.348C174.708 350.934 174.432 350.52 174.156 350.382C174.018 350.244 173.88 350.244 173.742 350.382L148.488 365.01C148.35 365.01 148.35 365.148 148.35 365.424C148.35 365.838 148.626 366.252 148.902 366.39C149.04 366.528 149.178 366.528 149.316 366.39L174.57 351.624Z" fill="#B24D0D"/>
<path d="M174.57 302.358C174.708 302.358 174.708 302.22 174.708 302.082C174.708 301.668 174.432 301.254 174.156 301.116C174.018 300.978 173.88 300.978 173.742 301.116L148.488 315.744C148.35 315.744 148.35 315.882 148.35 316.158C148.35 316.572 148.626 316.986 148.902 317.124C149.04 317.262 149.178 317.262 149.316 317.124L174.57 302.358Z" fill="#B24D0D"/>
<path d="M170.292 284.418H168.498L148.626 295.872L159.666 329.268H161.322L181.194 317.676L170.292 284.418Z" fill="#7B7B7B"/>
<path d="M150.42 296.01L170.292 284.418L181.194 317.676L161.322 329.268L150.42 296.01Z" fill="#FF984A"/>
<path d="M152.49 296.7L169.326 286.902L179.262 316.986L162.288 326.784L152.49 296.7Z" fill="white"/>
<path d="M148.626 295.872L168.498 284.418H170.292L150.42 296.01L148.626 295.872Z" fill="#2D2856"/>
<path d="M150.42 296.01L161.322 329.268H159.666L148.626 295.872L150.42 296.01Z" fill="#2D2856"/>
<path d="M170.292 334.374H168.498L148.626 345.828L159.666 379.224H161.322L181.194 367.632L170.292 334.374Z" fill="#7B7B7B"/>
<path d="M150.42 345.966L170.292 334.374L181.194 367.632L161.322 379.224L150.42 345.966Z" fill="#FF984A"/>
<path d="M152.49 346.656L169.326 336.858L179.262 366.942L162.288 376.74L152.49 346.656Z" fill="white"/>
<path d="M148.626 345.828L168.498 334.374H170.292L150.42 345.966L148.626 345.828Z" fill="#2D2856"/>
<path d="M150.42 345.966L161.322 379.224H159.666L148.626 345.828L150.42 345.966Z" fill="#2D2856"/>
<path d="M134.688 395.646C127.236 399.924 127.236 406.962 134.688 411.378C142.14 415.656 154.284 415.656 161.874 411.378C169.326 407.1 169.326 400.062 161.874 395.646C154.422 391.368 142.278 391.368 134.688 395.646Z" fill="#2D2856"/>
<path d="M134.688 393.714C127.236 397.992 127.236 405.03 134.688 409.446C142.14 413.724 154.284 413.724 161.874 409.446C169.326 405.168 169.326 398.13 161.874 393.714C154.422 389.436 142.278 389.436 134.688 393.714Z" fill="white"/>
<path d="M145.59 400.752C144.072 401.58 144.072 402.96 145.59 403.788C147.108 404.616 149.454 404.616 150.834 403.788C152.352 402.96 152.352 401.58 150.834 400.752C149.454 399.924 147.108 399.924 145.59 400.752Z" fill="#2D2856"/>
<path d="M145.59 399.786C144.072 400.614 144.072 401.994 145.59 402.822C147.108 403.65 149.454 403.65 150.834 402.822C152.352 401.994 152.352 400.614 150.834 399.786C149.454 398.958 147.108 398.958 145.59 399.786Z" fill="#DCE1CB"/>
<path d="M146.97 400.2C146.142 400.614 146.142 401.304 146.97 401.856C147.798 402.27 149.04 402.27 149.73 401.856C150.558 401.442 150.558 400.752 149.73 400.2C148.902 399.786 147.66 399.786 146.97 400.2Z" fill="#666666"/>
<path d="M146.28 268.824V401.166C146.28 401.442 146.556 401.718 146.832 401.856C147.66 402.27 148.902 402.27 149.592 401.856C149.868 401.718 150.144 401.442 150.144 401.166V268.824H146.28Z" fill="#2D2856"/>
<path d="M146.97 267.996C146.142 268.41 146.142 269.1 146.97 269.652C147.798 270.066 149.04 270.066 149.73 269.652C150.558 269.238 150.558 268.548 149.73 267.996C148.902 267.582 147.66 267.582 146.97 267.996Z" fill="#2D2856"/>
<path d="M147.798 341.964C147.936 341.964 147.936 341.826 147.936 341.688C147.936 341.274 147.66 340.86 147.384 340.722C147.246 340.584 147.108 340.584 146.97 340.722L121.716 355.35C121.578 355.35 121.578 355.488 121.578 355.764C121.578 356.178 121.854 356.592 122.13 356.73C122.268 356.868 122.406 356.868 122.544 356.73L147.798 341.964Z" fill="#B24D0D"/>
<path d="M147.798 292.698C147.936 292.698 147.936 292.56 147.936 292.422C147.936 292.008 147.66 291.594 147.384 291.456C147.246 291.318 147.108 291.318 146.97 291.456L121.716 306.084C121.578 306.084 121.578 306.222 121.578 306.498C121.578 306.912 121.854 307.326 122.13 307.464C122.268 307.602 122.406 307.602 122.544 307.464L147.798 292.698Z" fill="#B24D0D"/>
<path d="M136.896 327.888H135.102L115.23 339.342L126.132 372.738H127.926L147.798 361.146L136.896 327.888Z" fill="#7B7B7B"/>
<path d="M117.024 339.48L136.896 327.888L147.798 361.146L127.926 372.738L117.024 339.48Z" fill="#FF984A"/>
<path d="M118.956 340.17L135.93 330.372L145.728 360.456L128.754 370.254L118.956 340.17Z" fill="white"/>
<path d="M115.23 339.342L135.102 327.888H136.896L117.024 339.48L115.23 339.342Z" fill="#2D2856"/>
<path d="M117.024 339.48L127.926 372.738H126.132L115.23 339.342L117.024 339.48Z" fill="#2D2856"/>
<path d="M136.896 277.932H135.102L115.23 289.386L126.132 322.782H127.926L147.798 311.19L136.896 277.932Z" fill="#7B7B7B"/>
<path d="M117.024 289.524L136.896 277.932L147.798 311.19L127.926 322.782L117.024 289.524Z" fill="#FF984A"/>
<path d="M118.956 290.214L135.93 280.416L145.728 310.5L128.754 320.298L118.956 290.214Z" fill="white"/>
<path d="M115.23 289.386L135.102 277.932H136.896L117.024 289.524L115.23 289.386Z" fill="#2D2856"/>
<path d="M117.024 289.524L127.926 322.782H126.132L115.23 289.386L117.024 289.524Z" fill="#2D2856"/>
<path d="M167.394 306.774C167.256 306.774 167.118 306.774 167.118 306.774H166.842H166.566L165.186 306.912L163.53 307.464C162.978 307.74 162.288 308.154 162.564 308.568C162.84 309.258 163.392 309.12 163.944 308.706C164.496 308.706 164.91 308.706 165.462 308.43C165.876 308.568 166.428 308.568 166.98 308.43C167.118 308.43 167.394 308.292 167.532 308.292V307.878V307.74V307.326L167.394 306.774Z" fill="#FFAE80"/>
<path d="M163.53 312.708C163.806 312.984 164.22 312.984 164.772 312.708C165.186 312.846 165.738 312.708 166.29 312.708C166.842 312.984 167.532 313.122 168.222 313.122C168.36 313.122 168.36 313.122 168.498 313.122V312.846V311.466L167.394 311.328L166.428 311.19L164.772 311.328C164.082 311.466 163.392 311.88 163.392 312.294C163.53 312.432 163.53 312.57 163.53 312.708Z" fill="#FFAE80"/>
<path d="M167.394 308.292H165.186L163.53 308.706C162.978 308.982 162.288 309.258 162.426 309.672C162.564 310.362 163.116 310.224 163.806 309.948C164.358 309.948 164.772 309.948 165.324 309.81C166.014 309.948 166.704 309.948 167.394 309.81V308.292Z" fill="#FFAE80"/>
<path d="M163.116 311.604C163.392 311.742 163.806 311.604 164.22 311.328C164.358 311.328 164.496 311.328 164.634 311.328C165.048 311.328 165.324 311.328 165.738 311.19C166.428 311.328 167.118 311.328 167.808 311.19V309.672H165.6L164.634 309.81H164.22H163.944C163.254 310.086 162.702 310.5 162.84 310.914C162.84 311.466 162.978 311.604 163.116 311.604Z" fill="#FFAE80"/>
<path d="M167.256 306.774C167.118 307.05 167.118 307.326 167.118 307.74C167.118 308.016 167.118 308.292 167.118 308.568C167.118 309.534 167.256 310.5 167.394 311.466C167.532 312.156 167.808 312.708 168.084 312.984C168.222 313.122 168.222 313.26 168.36 313.26C169.464 314.088 171.396 314.364 173.19 314.364C174.018 314.226 174.57 313.95 174.984 313.536L177.606 313.674C177.192 313.674 176.916 313.26 176.502 312.846C175.674 311.604 176.088 309.81 177.192 309.12L174.846 308.706L171.534 307.878L167.394 306.774C167.256 306.774 167.256 306.774 167.256 306.774Z" fill="#FFAE80"/>
<path d="M164.772 312.432C165.324 312.57 165.738 312.57 166.152 312.294C166.704 312.57 167.256 312.846 167.946 312.846C168.084 312.846 168.36 312.846 168.498 312.846C168.498 312.846 167.808 309.12 167.946 309.12C168.084 309.258 168.912 312.984 169.05 313.122C169.74 313.398 170.568 313.674 171.534 313.674C172.776 313.812 173.742 313.398 174.57 312.57L176.502 312.846C176.778 313.26 177.192 313.674 177.606 313.674L174.984 313.536C174.708 313.95 174.018 314.088 173.19 314.364C171.396 314.364 169.464 314.088 168.36 313.26C167.67 313.26 166.98 312.984 166.428 312.846C165.876 312.984 165.462 312.984 164.91 312.846C164.358 313.122 163.806 313.122 163.668 312.846C163.944 312.846 164.496 312.708 164.772 312.432Z" fill="#FFAE80"/>
<path d="M166.98 306.774L171.534 307.74C171.81 308.292 171.948 308.844 172.224 309.396C172.362 309.81 172.224 310.776 172.638 310.914C172.362 311.052 171.672 310.776 171.534 310.638C171.258 310.5 170.982 310.224 170.844 309.948C170.568 309.534 170.292 308.706 169.878 308.43C168.36 307.464 167.394 308.292 166.98 306.774Z" fill="#FFAE80"/>
<path d="M167.532 307.326C167.808 307.464 168.084 307.602 168.498 307.464H169.602L170.568 307.878C170.568 309.258 171.948 310.776 172.5 311.19C172.776 311.328 172.914 311.328 173.19 311.328C174.018 311.19 174.708 310.224 175.122 308.844L174.432 308.154L171.948 306.222L169.602 305.946C168.912 306.222 168.222 306.36 167.394 306.36C167.118 306.36 166.98 306.498 166.98 306.774C166.98 306.774 166.98 306.912 166.98 307.05C166.98 306.912 167.256 307.188 167.532 307.326Z" fill="#FFAE80"/>
<path d="M167.394 306.774C167.256 306.774 167.118 306.774 167.118 306.774H166.842H166.566L165.186 306.912L163.53 307.464C162.978 307.74 162.288 308.154 162.564 308.568C162.84 309.258 163.392 309.12 163.944 308.706C164.496 308.706 164.91 308.706 165.462 308.43C165.876 308.568 166.428 308.568 166.98 308.43C167.118 308.43 167.394 308.292 167.532 308.292V307.878V307.74V307.326L167.394 306.774Z" fill="#FFAE80"/>
<path d="M163.53 312.708C163.806 312.984 164.22 312.984 164.772 312.708C165.186 312.846 165.738 312.708 166.29 312.708C166.842 312.984 167.532 313.122 168.222 313.122C168.36 313.122 168.36 313.122 168.498 313.122V312.846V311.466L167.394 311.328L166.428 311.19L164.772 311.328C164.082 311.466 163.392 311.88 163.392 312.294C163.53 312.432 163.53 312.57 163.53 312.708Z" fill="#FFAE80"/>
<path d="M167.394 308.292H165.186L163.53 308.706C162.978 308.982 162.288 309.258 162.426 309.672C162.564 310.362 163.116 310.224 163.806 309.948C164.358 309.948 164.772 309.948 165.324 309.81C166.014 309.948 166.704 309.948 167.394 309.81V308.292Z" fill="#FFAE80"/>
<path d="M163.116 311.604C163.392 311.742 163.806 311.604 164.22 311.328C164.358 311.328 164.496 311.328 164.634 311.328C165.048 311.328 165.324 311.328 165.738 311.19C166.428 311.328 167.118 311.328 167.808 311.19V309.672H165.6L164.634 309.81H164.22H163.944C163.254 310.086 162.702 310.5 162.84 310.914C162.84 311.466 162.978 311.604 163.116 311.604Z" fill="#FFAE80"/>
<path d="M167.256 306.774C167.118 307.05 167.118 307.326 167.118 307.74C167.118 308.016 167.118 308.292 167.118 308.568C167.118 309.534 167.256 310.5 167.394 311.466C167.532 312.156 167.808 312.708 168.084 312.984C168.222 313.122 168.222 313.26 168.36 313.26C169.464 314.088 171.396 314.364 173.19 314.364C174.018 314.226 174.57 313.95 174.984 313.536L177.606 313.674C177.192 313.674 176.916 313.26 176.502 312.846C175.674 311.604 176.088 309.81 177.192 309.12L174.846 308.706L171.534 307.878L167.394 306.774C167.256 306.774 167.256 306.774 167.256 306.774Z" fill="#FFAE80"/>
<path opacity="0.5" d="M164.772 312.432C165.324 312.57 165.738 312.57 166.152 312.294C166.704 312.57 167.256 312.846 167.946 312.846C168.084 312.846 168.36 312.846 168.498 312.846C168.498 312.846 167.808 309.12 167.946 309.12C168.084 309.258 168.912 312.984 169.05 313.122C169.74 313.398 170.568 313.674 171.534 313.674C172.776 313.812 173.742 313.398 174.57 312.57L176.502 312.846C176.778 313.26 177.192 313.674 177.606 313.674L174.984 313.536C174.708 313.95 174.018 314.088 173.19 314.364C171.396 314.364 169.464 314.088 168.36 313.26C167.67 313.26 166.98 312.984 166.428 312.846C165.876 312.984 165.462 312.984 164.91 312.846C164.358 313.122 163.806 313.122 163.668 312.846C163.944 312.846 164.496 312.708 164.772 312.432Z" fill="#FFBF86"/>
<path opacity="0.5" d="M166.98 306.774L171.534 307.74C171.81 308.292 171.948 308.844 172.224 309.396C172.362 309.81 172.224 310.776 172.638 310.914C172.362 311.052 171.672 310.776 171.534 310.638C171.258 310.5 170.982 310.224 170.844 309.948C170.568 309.534 170.292 308.706 169.878 308.43C168.36 307.464 167.394 308.292 166.98 306.774Z" fill="#FFBF86"/>
<path d="M167.532 307.326C167.808 307.464 168.084 307.602 168.498 307.464H169.602L170.568 307.878C170.568 309.258 171.948 310.776 172.5 311.19C172.776 311.328 172.914 311.328 173.19 311.328C174.018 311.19 174.708 310.224 175.122 308.844L174.432 308.154L171.948 306.222L169.602 305.946C168.912 306.222 168.222 306.36 167.394 306.36C167.118 306.36 166.98 306.498 166.98 306.774C166.98 306.774 166.98 306.912 166.98 307.05C166.98 306.912 167.256 307.188 167.532 307.326Z" fill="#FFAE80"/>
<path d="M227.7 431.388C223.008 431.112 224.112 423.246 225.354 418.968C225.768 417.45 227.7 416.622 229.218 417.174C230.736 417.726 231.702 420.624 231.702 422.28C231.564 423.66 233.22 431.664 227.7 431.388Z" fill="#FF984A"/>
<path d="M225.078 423.108C224.25 416.484 231.564 415.932 230.598 423.108C230.322 425.04 229.08 426.42 227.838 426.558C226.044 426.696 225.216 424.488 225.078 423.108Z" fill="#FFAE80"/>
<path d="M203.55 420.486C201.48 422.142 198.996 422.97 196.374 422.832C195.96 422.832 195.684 422.832 195.408 422.556C195.132 422.142 195.27 421.452 195.546 421.038C197.892 417.174 202.308 414 204.24 409.86C204.516 409.446 204.654 408.894 205.068 408.618C205.62 408.066 206.586 408.204 207.276 408.066C207.966 407.928 208.656 407.514 209.346 407.79C209.898 408.066 210.036 408.894 210.174 409.584C210.312 410.274 210.726 411.93 210.864 412.62C211.14 413.31 211.278 414 211.002 414.69C210.726 415.518 210.036 416.208 209.346 416.622C208.656 417.036 207.69 417.312 207 417.726C205.758 418.416 204.654 419.52 203.55 420.486Z" fill="#FFAE80"/>
<path d="M195.408 422.556C195.684 422.832 195.96 422.832 196.374 422.832C198.858 422.97 201.48 422.004 203.55 420.486C204.792 419.52 205.758 418.416 207 417.588C207.69 417.174 208.656 416.898 209.346 416.484C210.036 416.07 210.864 415.38 211.002 414.552C211.14 413.862 211.002 413.172 210.864 412.482C210.726 411.93 210.45 410.274 210.174 409.722C210.174 409.584 210.174 409.584 210.036 409.446C209.898 408.756 209.76 408.066 209.208 407.652C208.656 407.238 207.828 407.79 207.138 407.928C206.448 408.066 205.482 408.066 204.93 408.48C204.516 408.756 204.378 409.308 204.102 409.722C203.412 411.378 202.17 412.62 200.928 413.862C198.996 415.794 196.788 418.554 195.408 420.9C195.27 421.59 195.132 422.142 195.408 422.556Z" fill="#FF984A"/>
<path d="M199.687 416.346C199.687 416.622 199.687 416.898 199.963 417.036C200.101 417.174 200.377 417.174 200.653 417.174C202.861 417.036 204.931 415.656 206.725 414.138C207.691 413.448 208.519 412.62 209.209 411.654C209.623 411.102 210.037 410.412 210.313 409.722C210.313 409.584 210.313 409.584 210.175 409.446C210.037 408.756 210.037 407.514 209.347 407.1C208.795 406.686 207.967 407.1 207.277 407.238C206.587 407.376 205.483 406.962 204.793 407.514C204.379 407.79 204.517 408.894 204.379 409.446C203.689 411.102 202.309 412.758 201.067 414C200.653 414.552 200.377 415.104 199.963 415.518C199.963 415.794 199.825 416.07 199.687 416.346Z" fill="#FFAE80"/>
<path d="M201.895 370.116C201.895 371.22 202.033 372.324 202.171 373.704C202.309 374.946 202.309 376.326 202.447 377.706C202.585 378.81 202.585 380.052 202.723 381.294C203.551 393.714 204.517 409.446 204.517 409.446C204.517 409.446 204.517 409.446 204.517 409.584C205.621 411.654 209.899 412.206 210.313 409.446C210.727 401.166 212.245 393.99 213.211 387.366C213.625 385.158 213.901 382.95 214.039 380.742C214.177 378.948 214.315 377.154 214.315 375.36C214.315 373.842 214.177 372.324 213.901 370.806C213.763 370.392 213.763 369.978 213.625 369.426L203.965 363.216C203.965 363.492 201.895 369.84 201.895 370.116Z" fill="#FFAE80"/>
<path d="M213.21 356.454C214.866 364.596 215.694 371.082 216.66 376.05C216.798 376.464 216.798 376.74 216.936 377.154C217.35 379.086 217.764 380.742 218.178 382.122C218.316 382.398 218.454 382.812 218.454 383.088L219.282 386.952L219.696 388.608L225.906 418.14L226.182 419.244L226.32 420.21C226.32 422.556 229.908 421.728 230.046 419.796C230.046 419.658 230.046 419.52 230.046 419.382C230.046 418.968 230.184 418.554 230.184 418.14C232.116 400.338 231.564 393.162 230.322 386.4C230.184 385.572 230.046 384.744 229.908 383.778C229.632 382.536 229.356 381.294 229.08 379.914C229.08 379.5 229.218 379.086 229.218 378.534C229.218 378.396 229.218 378.258 229.218 378.258V378.12C230.322 368.874 230.046 361.698 229.77 356.868H213.21V356.454Z" fill="#FFAE80"/>
<path d="M213.21 356.454C214.866 364.596 215.694 371.082 216.66 376.05C216.798 376.464 216.798 376.74 216.936 377.154C217.35 379.086 217.764 380.742 218.178 382.122C218.316 382.398 218.454 382.812 218.454 383.088L219.282 386.952L219.696 388.608L225.906 418.14L226.182 419.244L226.32 420.21C226.32 422.556 229.908 421.728 230.046 419.796C230.046 419.658 230.046 419.52 230.046 419.382C230.046 418.968 230.184 418.554 230.184 418.14C232.116 400.338 231.564 393.162 230.322 386.4C230.184 385.572 230.046 384.744 229.908 383.778C229.632 382.536 229.356 381.294 229.08 379.914C229.08 379.5 229.218 379.086 229.218 378.534C229.218 378.396 229.218 378.258 229.218 378.258V378.12C230.322 368.874 230.046 361.698 229.77 356.868H213.21V356.454Z" fill="#FFAE80"/>
<path opacity="0.5" d="M216.66 375.912C216.798 376.326 216.798 376.602 216.936 377.016C217.35 378.948 217.764 380.604 218.178 381.984C218.316 382.26 218.454 382.674 218.454 382.95L219.282 386.814L219.696 388.47C223.284 388.47 226.872 387.78 230.46 386.124C230.322 385.296 230.184 384.468 230.046 383.502C229.77 382.26 229.494 381.018 229.218 379.638C229.218 379.224 229.356 378.81 229.356 378.258C229.356 378.12 229.356 377.982 229.356 377.982L216.66 375.912Z" fill="#FFAE80"/>
<path opacity="0.5" d="M202.17 373.704C202.308 374.946 202.308 376.326 202.446 377.706C202.584 378.81 202.584 380.052 202.722 381.294C205.206 383.916 208.932 386.262 213.348 387.366C213.762 385.158 214.038 382.95 214.176 380.742C214.314 378.948 214.452 377.154 214.452 375.36L202.17 373.704Z" fill="#FFAE80"/>
<path d="M202.308 377.016C203.826 381.018 223.422 388.884 229.77 382.812L231.564 355.626C233.22 346.656 231.84 342.102 227.148 337.686C226.596 337.134 226.044 336.72 225.354 336.168L211.554 335.616L206.172 335.34C201.342 350.244 201.204 366.666 202.308 377.016Z" fill="#ACCDF4"/>
<path d="M206.034 335.34C207.414 338.514 209.07 340.998 212.658 341.826C216.108 342.654 223.146 341.964 227.148 337.686C231.84 341.964 233.22 346.656 231.564 355.626L229.77 382.812C229.218 383.364 228.252 384.054 226.734 384.606C227.976 375.084 226.596 353.142 224.526 345.69C213.072 346.104 208.242 343.482 205.482 337.134L206.034 335.34Z" fill="#ACCDF4"/>
<path d="M175.398 308.568C172.5 308.844 172.914 313.398 174.846 313.95C175.95 314.226 188.094 319.332 196.788 315.882L208.104 309.948L212.52 310.638L211.002 296.838C206.172 299.184 201.342 302.772 191.544 309.534L175.398 308.568Z" fill="#D6EEEB"/>
<path d="M200.238 321.54C200.238 324.3 202.86 326.922 206.172 326.508C206.172 326.784 206.172 327.06 206.172 327.198C206.31 328.854 206.586 330.924 206.586 332.856C206.586 332.994 206.586 333.27 206.586 333.408C206.586 333.96 206.448 334.374 206.448 334.788C206.448 335.064 206.31 335.202 206.31 335.478C207.69 338.652 209.484 341.136 213.072 342.102C213.9 342.378 215.142 342.516 216.246 342.378C219.972 342.378 224.664 341.136 227.838 337.824C227.148 332.856 228.804 326.37 230.598 320.988C231.978 316.848 233.358 313.26 233.772 311.466C230.46 307.326 226.596 304.014 222.456 301.116C218.316 298.218 216.384 294.492 211.554 296.286C206.724 298.08 206.172 307.602 204.516 311.328C202.584 314.916 200.238 317.538 200.238 321.54Z" fill="#FF984A"/>
<path opacity="0.5" d="M206.31 334.65C206.31 334.926 206.172 335.064 206.172 335.34C207.966 340.584 211.278 342.93 216.108 342.24C219.834 342.24 224.526 340.998 227.7 337.686C227.01 332.718 228.666 326.232 230.46 320.85L226.182 319.746L221.49 327.198C217.902 333.27 208.38 332.166 207.966 325.818L206.172 326.232C206.172 326.508 206.172 326.646 206.172 326.922C206.172 329.406 206.448 331.062 206.586 332.58C206.586 332.718 206.586 332.994 206.586 333.132C206.586 333.684 206.448 334.236 206.31 334.65Z" fill="#B24D0D"/>
<path d="M233.634 311.466C237.498 318.366 239.706 326.094 240.534 334.512C241.638 340.722 240.396 352.038 237.636 358.11C236.946 357.282 235.704 356.868 233.772 357.144C233.358 348.864 232.806 340.722 233.772 336.444L227.424 322.644C223.008 313.26 230.046 307.05 233.634 311.466Z" fill="#D6EEEB"/>
<path d="M225.906 363.63C226.182 363.768 226.734 363.906 227.286 363.492C228.39 362.388 229.494 361.56 230.874 361.974C231.15 362.388 231.15 363.078 231.012 363.768V363.906C230.598 365.424 229.632 367.494 228.528 369.426C228.39 369.702 228.528 369.978 228.666 370.116C228.942 370.392 229.356 370.392 229.632 370.116C229.632 370.668 230.322 370.944 230.736 370.392L231.426 369.564C231.564 370.254 232.254 369.978 232.53 369.564L233.91 367.908C234.876 366.942 235.566 365.976 236.256 364.734C236.394 364.596 236.394 364.32 236.532 364.182C237.222 362.112 237.498 360.18 237.498 358.11C237.084 356.454 235.566 356.178 233.634 357.144L231.288 358.386C229.08 359.49 227.976 361.008 225.63 362.802C225.492 363.078 225.63 363.354 225.906 363.63Z" fill="#FFAE80"/>
<path d="M228.528 370.116C228.804 370.392 229.218 370.392 229.494 370.116C229.494 370.668 230.184 370.944 230.598 370.392L231.288 369.564C231.426 370.254 232.116 369.978 232.392 369.564L233.772 367.908C234.738 366.942 235.428 365.976 236.118 364.734C235.014 365.148 233.772 364.872 232.668 364.32C231.84 366.528 230.046 369.702 228.528 370.116Z" fill="#FFAE80"/>
<path d="M225.906 363.63C226.182 363.768 226.734 363.906 227.286 363.492C228.39 362.388 229.494 361.56 230.874 361.974C231.15 362.388 231.15 363.078 231.012 363.768L231.564 361.284C228.942 360.594 227.148 363.078 225.906 363.63Z" fill="#FFAE80"/>
<path opacity="0.1" d="M203.136 325.956C202.446 325.68 201.894 325.266 201.204 324.576C201.756 325.266 202.308 325.68 203.136 325.956Z" fill="#1D1D1B"/>
<path d="M214.038 301.944L213.072 306.084L209.346 322.92L222.18 304.842L214.038 301.944Z" fill="#FFAE80"/>
<path d="M214.452 301.116L209.346 322.644L210.864 301.668L214.452 301.116Z" fill="white"/>
<path d="M218.868 295.596C218.868 298.77 221.49 301.392 224.664 301.392C227.838 301.392 230.46 298.77 230.46 295.596C230.46 292.422 227.838 289.8 224.664 289.8C221.49 289.8 218.868 292.284 218.868 295.596Z" fill="#1D1D1B"/>
<path d="M221.628 294.906C222.318 297.114 222.042 299.322 222.87 301.53C223.284 304.014 219.144 306.774 216.108 306.498C213.9 306.084 214.038 304.98 213.762 302.358L221.628 294.906Z" fill="#FFAE80"/>
<path opacity="0.5" d="M220.248 295.872C220.248 303.324 217.488 309.948 214.038 308.706C212.658 308.154 212.52 304.428 212.52 299.322L220.248 295.872Z" fill="#FFAE80"/>
<path d="M220.938 298.356C218.73 301.116 216.246 303.462 212.382 302.91C210.864 302.634 209.622 300.564 209.622 291.87C209.622 288.972 211.278 285.384 212.658 283.866C214.59 281.52 217.902 280.692 221.076 281.382C225.492 282.348 227.7 285.798 227.148 290.214C226.044 296.01 223.56 298.218 220.938 298.356Z" fill="#FFAE80"/>
<path d="M222.456 297.804C222.456 297.804 221.49 297.528 220.524 296.148C219.696 294.768 219.558 293.112 219.282 291.318C215.142 290.904 210.864 287.868 210.864 286.488C211.002 284.556 212.244 282.9 215.694 281.52C219.558 280.002 223.008 280.968 225.768 284.004C230.046 288.696 226.182 296.976 222.594 298.494L222.456 297.804Z" fill="#0B1017"/>
<path d="M209.346 293.526C210.174 294.768 211.416 295.182 211.692 293.25C211.692 293.25 211.692 293.25 211.692 293.112C211.968 293.112 212.106 293.388 212.382 293.664C211.692 297.528 216.384 298.494 216.384 295.734C216.384 294.492 214.59 294.216 213.21 293.388C213.072 293.25 212.658 293.112 212.52 293.388C212.244 292.974 211.968 292.836 211.692 292.698C211.692 292.422 211.554 292.146 211.416 292.008C210.312 291.042 209.622 289.662 209.208 290.49C208.794 291.594 208.932 292.698 209.346 293.526ZM212.52 293.664C212.52 293.388 212.658 293.25 213.072 293.526C213.486 293.802 214.038 294.078 214.452 294.216C215.556 294.63 216.108 295.044 216.108 295.596C216.108 296.01 215.97 296.424 215.694 296.7C215.28 296.976 214.728 297.114 214.176 296.838C213.624 296.7 213.072 296.286 212.796 295.734C212.52 295.182 212.382 294.492 212.52 293.664ZM209.346 290.628C209.346 290.49 209.484 290.49 209.622 290.49C209.898 290.628 210.036 290.904 210.45 291.318C210.726 291.594 211.002 291.87 211.278 292.146C211.416 292.284 211.554 292.56 211.554 292.836C211.554 293.664 211.278 294.492 210.588 294.216C210.174 294.078 209.898 293.664 209.622 293.112C208.932 292.422 209.07 291.456 209.346 290.628Z" fill="#1D1D1B"/>
<path d="M216.246 295.734L222.456 295.872L222.594 295.596L216.108 295.182L216.246 295.734Z" fill="#1D1D1B"/>
<path d="M221.49 296.7C221.766 296.286 222.042 295.872 222.456 295.458C222.87 295.182 223.422 294.906 223.836 294.906C223.974 294.906 224.112 294.906 224.25 295.044C224.526 295.182 224.664 295.458 224.664 295.872C224.664 296.148 224.526 296.424 224.388 296.838C224.112 297.39 223.836 297.942 223.422 298.356C223.008 298.77 222.456 299.046 221.766 299.046C221.49 299.046 221.214 299.046 221.076 298.908C220.938 298.77 220.8 298.632 220.8 298.494C220.938 297.804 221.214 297.252 221.49 296.7Z" fill="#FFAE80"/>
<path d="M222.87 301.116L207.828 325.128L223.284 309.948L222.594 306.912L225.078 305.532V303.186L222.87 301.116Z" fill="white"/>
<path d="M159.942 324.99C155.388 324.576 153.042 327.75 151.386 332.166C150.834 334.926 151.938 338.79 153.456 341.136L158.976 343.482C160.908 343.896 162.564 344.724 163.806 344.31C167.256 343.482 167.256 337.548 167.256 332.718C166.842 328.716 165.186 325.404 159.942 324.99Z" fill="#FFAE80"/>
<path d="M162.426 351.486L163.806 343.206L154.422 339.756L151.386 347.622L162.426 351.486Z" fill="#FFAE80"/>
<path d="M164.634 462.162L162.426 466.302C161.322 467.958 161.322 469.89 162.012 471.822C163.668 474.03 166.842 473.616 170.292 472.926C174.708 471.546 176.916 470.58 179.676 469.752C183.678 468.372 182.988 465.06 178.71 464.784L171.534 464.37L169.188 464.232L169.05 461.886L164.634 462.162Z" fill="#291933"/>
<path d="M139.242 451.812L136.896 453.33C135.792 455.4 135.654 457.746 136.482 459.264C138.276 460.506 140.208 460.506 143.52 458.712C147.522 455.4 149.178 455.538 150.696 453.33C152.49 450.432 149.868 449.19 147.522 449.604L142.968 450.294L139.242 451.812Z" fill="#291933"/>
<path d="M161.322 383.088L158.838 400.062C158.286 401.994 157.596 404.064 157.044 405.996C155.112 411.792 153.042 417.312 151.248 420.624C150.834 421.452 150.42 422.142 150.006 422.556L148.212 426.006C148.074 427.386 147.798 428.766 147.522 430.146C146.142 437.322 143.796 443.946 142.968 450.018L143.934 449.88C146.694 450.432 147.108 451.26 145.59 452.778C143.934 453.882 142.554 454.986 140.898 455.262C138.552 455.676 136.62 455.124 136.758 453.468C137.172 442.566 136.344 432.63 138.276 424.902C138.828 422.694 139.656 420.624 140.898 418.83L142.14 415.656C142.14 414.828 142.002 413.862 142.002 412.896C141.726 406.962 142.002 400.614 142.554 395.37C142.278 388.47 144.072 382.674 147.246 377.568L152.076 379.362L156.216 381.018L161.322 383.088Z" fill="#FFAE80"/>
<path d="M173.88 467.268L167.118 468.786C164.91 469.2 162.84 467.958 162.426 466.578C164.22 452.916 158.838 444.498 162.426 432.63V427.938L161.046 421.038L158.424 407.652L157.044 405.996L153.318 401.856L155.802 381.156H169.74L172.362 396.888C174.294 404.616 175.26 412.206 174.708 419.52C174.57 422.004 174.156 424.488 173.604 426.834L173.052 432.354L172.776 434.424C171.396 442.842 170.568 451.812 170.154 460.506C170.016 462.438 171.396 464.094 173.19 464.37C176.502 464.922 177.606 466.026 173.88 467.268Z" fill="#FFAE80"/>
<path d="M176.226 363.492C176.226 366.39 174.294 368.874 171.534 369.84C170.706 370.116 170.016 370.254 169.05 370.254C167.532 370.254 166.29 369.84 165.186 369.15C163.254 367.908 162.012 365.838 162.012 363.492C162.012 359.766 165.186 356.73 169.188 356.73C170.844 356.73 172.362 357.282 173.466 358.11C174.156 358.662 174.846 359.352 175.26 360.042C175.812 361.146 176.226 362.25 176.226 363.492Z" fill="#44598E"/>
<path d="M174.432 426.42C170.292 429.594 145.866 431.25 139.38 418.278L141.312 396.474C142.416 388.47 142.278 385.71 146.418 379.086C146.694 378.672 146.97 378.12 147.384 377.706C149.454 371.496 144.762 366.39 143.106 357.282C142.83 356.178 142.692 354.936 142.554 353.694C142.278 351.21 142.83 349.14 143.796 347.346C145.038 345.276 147.522 344.172 149.868 344.448C156.078 345.138 162.426 347.484 168.084 350.934L170.154 352.314L173.328 358.11L173.604 360.732L174.018 363.906C173.052 365.838 172.086 367.77 171.396 369.84C170.016 373.566 169.326 377.43 169.878 381.294C170.844 384.33 171.672 387.228 172.5 390.126C175.536 402.27 176.502 414 174.432 426.42Z" fill="#FF984A"/>
<path d="M153.18 341.688C151.248 339.204 150.144 336.306 150.558 333.132C151.11 328.716 153.456 324.3 158.7 324.024C166.152 323.61 169.878 329.544 167.256 336.306C164.91 338.652 163.116 341.274 161.598 342.654C157.734 345.414 155.112 344.724 153.18 341.688Z" fill="#0B1017"/>
<path d="M154.146 339.756C154.146 339.756 150.144 343.896 149.316 347.76C147.66 355.074 153.456 364.044 153.456 364.044C153.456 364.044 158.01 354.108 157.044 349.83C156.078 345.828 156.906 339.756 156.906 339.756H154.146Z" fill="#0B1017"/>
<path d="M165.324 336.306C164.22 336.996 164.358 340.722 164.358 340.722L165.738 341.688L166.428 337.548C166.428 337.548 166.704 335.478 165.324 336.306Z" fill="#FFAE80"/>
<path d="M171.534 369.84C170.154 373.566 169.464 377.43 170.016 381.294C170.982 384.33 172.5 387.228 173.19 390.126C165.462 382.26 153.18 383.364 146.556 379.224C146.832 378.81 147.108 378.258 147.522 377.844C149.592 371.634 144.9 366.528 143.244 357.42C147.936 368.874 158.7 374.256 165.324 369.15C167.118 367.77 168.636 365.7 169.602 362.802L174.018 360.87L175.536 360.18C176.088 361.146 176.502 362.25 176.502 363.492C176.226 366.39 174.294 368.874 171.534 369.84Z" fill="#F08534"/>
<path d="M177.33 357.42L171.948 358.386L170.982 356.04L172.914 353.556L175.812 354.384L177.33 357.42Z" fill="#FFAE80"/>
<path d="M169.05 365.424L179.538 348.312L190.578 353.556L180.09 370.806L169.05 365.424Z" fill="#291933"/>
<path d="M180.642 368.736L170.706 363.906L179.814 349.002L189.75 353.832L180.642 368.736Z" fill="white"/>
<path d="M179.952 352.728L178.02 352.314C177.33 353.832 176.088 354.522 174.846 354.798L173.742 355.212C173.328 354.246 173.052 353.832 172.914 353.556C173.052 352.176 173.88 350.934 174.708 350.658L177.744 350.106L181.47 351.486C181.47 352.314 181.194 352.728 179.952 352.728Z" fill="#FFAE80"/>
<path d="M181.056 368.184C180.918 368.184 180.918 368.184 180.78 368.184C180.504 368.046 180.228 367.77 180.228 367.494L183.54 352.314C183.678 352.038 183.954 351.762 184.23 351.762C184.506 351.9 184.782 352.176 184.782 352.452L181.47 367.632C181.608 367.908 181.332 368.184 181.056 368.184Z" fill="#291933"/>
<path d="M187.956 360.732C188.094 361.284 187.68 361.698 187.68 362.112C187.68 362.25 187.68 362.526 187.68 362.802C187.68 362.94 187.68 363.216 187.68 363.354C187.68 364.32 185.472 365.838 184.644 366.252L181.746 367.632L178.296 370.668L177.606 369.564L175.95 367.08L178.572 364.044C178.434 362.388 178.296 361.008 178.848 359.766L180.228 358.11L182.712 356.868L182.436 357.972C182.436 357.972 183.402 357.282 184.506 356.73C184.92 356.454 185.748 356.316 186.162 356.73C186.3 356.868 186.3 357.42 186.438 357.558C186.576 357.834 187.266 358.11 187.404 358.386C187.542 358.662 187.266 359.352 187.404 359.628C187.404 359.904 187.818 360.18 187.956 360.732Z" fill="#FFAE80"/>
<path d="M182.574 357.144L180.09 359.214L182.436 357.834L182.574 357.144Z" fill="#FFAE80"/>
<path d="M187.68 362.94C187.68 363.078 187.68 363.354 187.68 363.492C187.68 364.458 185.472 365.976 184.644 366.39L181.746 367.77L178.296 370.806L177.606 369.702C179.124 368.736 180.366 367.218 181.194 366.114C183.954 365.976 186.852 364.872 187.68 362.94Z" fill="#FFAE80"/>
<path d="M170.154 352.314C173.604 353.97 174.018 356.592 174.018 362.388L174.294 368.46L178.71 363.906C181.47 363.768 182.16 364.182 181.884 367.632C180.228 372.462 177.054 379.5 173.88 382.398C171.81 384.33 168.636 382.122 167.256 377.016L165.048 363.906C163.806 356.73 164.91 351.072 170.154 352.314Z" fill="#FFAE80"/>
</svg>
