<?xml version="1.0" encoding="utf-8"?>
<!-- Generator: Adobe Illustrator 16.0.0, SVG Export Plug-In . SVG Version: 6.00 Build 0)  -->
<!DOCTYPE svg PUBLIC "-//W3C//DTD SVG 1.1//EN" "http://www.w3.org/Graphics/SVG/1.1/DTD/svg11.dtd">
<svg version="1.1" id="Layer_1" xmlns="http://www.w3.org/2000/svg" xmlns:xlink="http://www.w3.org/1999/xlink" x="0px" y="0px"
	 width="1368.138px" height="1056.105px" viewBox="-94.395 237.237 1368.138 1056.105"
	 enable-background="new -94.395 237.237 1368.138 1056.105" xml:space="preserve">
<rect x="198.074" y="412.7" fill="#EC6610" width="364.407" height="364.407"/>
<rect x="624.685" y="412.7" fill="#3B484F" width="364.407" height="364.407"/>
<path fill="#FFFFFF" d="M79.803,1135.383c-0.587-0.585-0.896-1.392-0.858-2.219v-113.723c-0.034-0.832,0.275-1.642,0.858-2.236
	c0.588-0.581,1.392-0.893,2.217-0.857h22.091c1.5-0.062,2.902,0.74,3.611,2.062l22.778,36.825c0.555,0.803,1.127,0.803,1.7,0
	l22.933-36.825c0.688-1.334,2.095-2.141,3.593-2.062h22.13c1.623-0.076,3.001,1.178,3.077,2.802
	c0.005,0.098,0.005,0.195-0.001,0.294v113.723c0.038,0.827-0.273,1.634-0.859,2.219c-0.591,0.576-1.392,0.889-2.217,0.858h-22.244
	c-0.825,0.028-1.627-0.282-2.217-0.858c-0.586-0.585-0.897-1.392-0.86-2.219v-66.885c0-0.573-0.172-0.917-0.516-1.031
	c-0.345-0.113-0.631,0.114-0.859,0.688l-13.894,22.474c-0.719,1.312-2.117,2.104-3.611,2.045h-10.436
	c-1.494,0.062-2.895-0.73-3.61-2.045l-13.874-22.55c-0.229-0.573-0.497-0.803-0.841-0.688c-0.345,0.115-0.517,0.459-0.517,1.032
	v66.886c0.037,0.826-0.273,1.633-0.859,2.218c-0.596,0.583-1.404,0.894-2.235,0.858H82.02
	C81.204,1136.219,80.404,1135.934,79.803,1135.383z"/>
<path fill="#FFFFFF" d="M284.739,1039.812c-0.595,0.583-1.404,0.895-2.236,0.859h-52.495c-0.586-0.079-1.123,0.332-1.203,0.918
	c-0.014,0.095-0.014,0.189,0,0.285v20.37c-0.079,0.587,0.332,1.125,0.917,1.204c0.097,0.015,0.191,0.015,0.286,0h33.062
	c1.623-0.074,3.001,1.182,3.076,2.803c0.005,0.094,0.005,0.185,0,0.274v18.061c0.087,1.623-1.159,3.009-2.782,3.095
	c-0.098,0.006-0.196,0.006-0.294,0.001h-33.062c-0.586-0.079-1.124,0.331-1.203,0.917c-0.014,0.096-0.014,0.189,0,0.287v21.919
	c-0.08,0.573,0.319,1.104,0.896,1.188c0.104,0.017,0.207,0.015,0.311-0.003h52.398c1.623-0.086,3.01,1.159,3.096,2.782
	c0.007,0.104,0.007,0.209,0,0.312v18.155c0.038,0.826-0.272,1.632-0.858,2.217c-0.596,0.582-1.404,0.896-2.236,0.859h-78.943
	c-0.83,0.034-1.641-0.277-2.234-0.859c-0.586-0.585-0.897-1.391-0.86-2.217v-113.8c-0.086-1.623,1.159-3.01,2.782-3.096
	c0.104-0.008,0.209-0.008,0.312,0h78.943c1.623-0.088,3.01,1.156,3.096,2.779c0.007,0.104,0.007,0.21,0,0.314v18.153
	C285.562,1038.408,285.285,1039.211,284.739,1039.812z"/>
<path fill="#FFFFFF" d="M300.026,1135.383c-0.585-0.585-0.897-1.392-0.859-2.219v-113.723c-0.034-0.832,0.277-1.642,0.859-2.236
	c0.585-0.586,1.39-0.896,2.217-0.857h42.691c8.119-0.153,16.178,1.423,23.64,4.624c6.467,2.775,11.994,7.362,15.919,13.205
	c3.837,5.84,5.834,12.694,5.732,19.684v44.87c0.103,6.993-1.896,13.854-5.732,19.702c-3.917,5.845-9.447,10.426-15.919,13.186
	c-7.467,3.185-15.523,4.739-23.64,4.567h-42.653C301.449,1136.25,300.63,1135.957,300.026,1135.383z M328.691,1111.914h17.295
	c4.259,0.142,8.353-1.649,11.141-4.873c3.01-3.692,4.59-8.347,4.453-13.107v-35.277c0.249-4.756-1.308-9.432-4.356-13.09
	c-2.897-3.265-7.104-5.061-11.467-4.893h-17.198c-0.574-0.08-1.106,0.318-1.188,0.895c-0.014,0.104-0.014,0.207,0.003,0.312v68.796
	c-0.18,0.541,0.113,1.125,0.654,1.305c0.264,0.087,0.552,0.064,0.798-0.062h-0.134V1111.914z"/>
<path fill="#FFFFFF" d="M405.895,1135.383c-0.578-0.588-0.884-1.395-0.841-2.219v-113.723c-0.098-1.612,1.131-2.998,2.741-3.095
	c0.111-0.008,0.225-0.008,0.335-0.001h22.264c0.826-0.033,1.629,0.277,2.218,0.857c0.583,0.597,0.895,1.404,0.859,2.236v113.723
	c0.075,1.624-1.181,3.002-2.803,3.077c-0.093,0.004-0.184,0.004-0.274,0h-22.264C407.299,1136.275,406.49,1135.966,405.895,1135.383
	z"/>
<path fill="#FFFFFF" d="M534.697,1039.812c-0.591,0.578-1.393,0.889-2.218,0.859h-52.418c-0.586-0.079-1.125,0.332-1.205,0.918
	c-0.013,0.095-0.013,0.189,0,0.285v20.37c-0.078,0.587,0.332,1.125,0.918,1.204c0.096,0.015,0.19,0.015,0.287,0h33.061
	c0.826-0.033,1.63,0.278,2.218,0.86c0.577,0.59,0.889,1.392,0.858,2.217v18.061c0.033,0.832-0.276,1.641-0.858,2.234
	c-0.589,0.581-1.392,0.895-2.218,0.859h-33.061c-0.586-0.079-1.125,0.331-1.205,0.917c-0.013,0.096-0.013,0.191,0,0.287v21.919
	c-0.08,0.573,0.319,1.104,0.896,1.188c0.103,0.016,0.207,0.016,0.31-0.003h52.42c1.623-0.076,3,1.179,3.076,2.803
	c0.006,0.1,0.004,0.195,0,0.294v18.154c0.037,0.827-0.274,1.632-0.859,2.217c-0.592,0.577-1.393,0.891-2.217,0.859h-78.963
	c-0.832,0.034-1.642-0.277-2.235-0.859c-0.579-0.589-0.884-1.393-0.841-2.217v-113.8c-0.099-1.612,1.13-2.998,2.742-3.096
	c0.11-0.008,0.223-0.009,0.334,0h78.963c1.623-0.076,3,1.178,3.076,2.802c0.006,0.098,0.004,0.194,0,0.294v18.154
	C535.59,1038.424,535.278,1039.224,534.697,1039.812z"/>
<path fill="#FFFFFF" d="M637.126,1017.206c0.566,0.604,0.87,1.407,0.841,2.235v18.326c0.087,1.612-1.148,2.99-2.764,3.076
	c-0.104,0.006-0.209,0.006-0.312,0h-28.664c-0.576-0.08-1.106,0.318-1.188,0.895c-0.015,0.104-0.015,0.207,0.004,0.312v91.116
	c0.036,0.825-0.273,1.632-0.859,2.217c-0.602,0.558-1.399,0.847-2.218,0.803h-22.226c-1.624,0.076-3.001-1.179-3.077-2.803
	c-0.004-0.091-0.004-0.185,0-0.273v-91.06c0.079-0.585-0.331-1.124-0.917-1.204c-0.095-0.013-0.189-0.013-0.287,0h-27.574
	c-1.624,0.076-3.001-1.179-3.076-2.803c-0.005-0.092-0.005-0.185,0-0.273v-18.326c-0.033-0.831,0.275-1.642,0.859-2.234
	c0.585-0.586,1.391-0.897,2.217-0.859h87.008C635.722,1016.311,636.531,1016.625,637.126,1017.206z"/>
<path fill="#FFFFFF" d="M734.568,1039.812c-0.588,0.582-1.393,0.893-2.217,0.859h-52.418c-0.576-0.08-1.107,0.318-1.189,0.895
	c-0.014,0.104-0.014,0.207,0.004,0.312v20.37c-0.092,0.573,0.302,1.11,0.875,1.201c0.104,0.018,0.207,0.019,0.312,0.002h33.059
	c0.832-0.031,1.644,0.277,2.236,0.86c0.564,0.597,0.867,1.396,0.842,2.217v18.061c0.029,0.827-0.272,1.633-0.842,2.234
	c-0.596,0.582-1.404,0.896-2.236,0.859h-33.059c-0.576-0.081-1.107,0.318-1.189,0.896c-0.014,0.104-0.014,0.207,0.004,0.311v21.919
	c-0.094,0.562,0.289,1.093,0.853,1.185c0.108,0.021,0.223,0.021,0.334,0h52.418c0.824-0.031,1.629,0.278,2.217,0.86
	c0.582,0.595,0.896,1.404,0.859,2.236v18.152c0.073,1.623-1.181,3.001-2.804,3.076c-0.092,0.005-0.184,0.005-0.272,0H653.39
	c-1.624,0.076-3.001-1.179-3.076-2.803c-0.004-0.091-0.004-0.183,0-0.272v-113.801c-0.033-0.832,0.276-1.642,0.859-2.234
	c0.585-0.586,1.391-0.897,2.217-0.859h78.963c0.826-0.033,1.629,0.278,2.217,0.859c0.582,0.595,0.896,1.402,0.859,2.234v18.154
	C735.461,1038.424,735.15,1039.224,734.568,1039.812z"/>
<path fill="#FFFFFF" d="M749.99,1135.383c-0.586-0.585-0.897-1.392-0.858-2.219v-113.723c-0.088-1.623,1.157-3.009,2.78-3.095
	c0.099-0.006,0.197-0.006,0.295-0.001h22.281c1.625-0.076,3.002,1.178,3.078,2.802c0.004,0.098,0.004,0.195,0,0.294v42.806
	c0,0.573,0.172,0.918,0.516,1.032c0.345,0.115,0.688-0.058,1.031-0.516l33.558-44.526c0.896-1.21,2.315-1.92,3.821-1.911h25.304
	c1.7,0,2.561,0.631,2.561,1.911c0.004,0.698-0.24,1.375-0.688,1.911l-35.966,47.946c-0.33,0.514-0.393,1.15-0.174,1.721
	l37.857,62.681c0.299,0.527,0.475,1.115,0.516,1.722c0,1.354-0.859,2.044-2.58,2.044h-25.166c-1.477,0.003-2.842-0.774-3.594-2.044
	l-26.221-44.546c-0.191-0.318-0.488-0.562-0.841-0.688c-0.344-0.09-0.631,0.083-0.858,0.516l-8.562,11.657
	c-0.369,0.42-0.557,0.971-0.516,1.528v30.576c0.037,0.827-0.273,1.632-0.859,2.217c-0.59,0.578-1.393,0.889-2.217,0.86h-22.283
	C751.365,1136.342,750.564,1135.994,749.99,1135.383z"/>
<path fill="#FFFFFF" d="M858.228,1135.383c-0.586-0.585-0.898-1.392-0.859-2.219v-113.723c-0.088-1.623,1.158-3.01,2.781-3.096
	c0.104-0.008,0.209-0.008,0.312,0h21.021c1.5-0.077,2.904,0.729,3.594,2.062l37.685,63.713c0.229,0.458,0.518,0.63,0.858,0.518
	c0.347-0.114,0.519-0.459,0.519-1.032l-0.172-62.164c-0.033-0.832,0.276-1.643,0.858-2.236c0.584-0.586,1.39-0.896,2.218-0.857
	h21.958c1.622-0.088,3.01,1.158,3.096,2.779c0.008,0.104,0.008,0.209,0,0.314v113.723c0.037,0.827-0.273,1.633-0.859,2.219
	c-0.594,0.582-1.401,0.895-2.233,0.858H927.98c-1.475,0.036-2.854-0.714-3.631-1.969l-37.646-64.647
	c-0.229-0.572-0.534-0.804-0.936-0.688c-0.402,0.115-0.611,0.459-0.611,1.032l0.345,63.194c0.073,1.624-1.181,3.002-2.804,3.077
	c-0.092,0.004-0.184,0.004-0.272,0h-21.959C859.631,1136.275,858.824,1135.966,858.228,1135.383z"/>
<path fill="#FFFFFF" d="M969.906,1135.383c-0.586-0.585-0.897-1.392-0.858-2.219v-113.723c-0.035-0.832,0.276-1.642,0.858-2.236
	c0.588-0.581,1.392-0.893,2.217-0.857h22.265c1.623-0.087,3.01,1.158,3.096,2.781c0.006,0.104,0.006,0.209,0,0.312v113.723
	c0.039,0.827-0.273,1.633-0.859,2.219c-0.596,0.583-1.403,0.895-2.235,0.858h-22.263
	C971.297,1136.274,970.494,1135.965,969.906,1135.383z"/>
<path fill="#FFFFFF" d="M1015.292,1135.383c-0.586-0.585-0.896-1.392-0.858-2.219v-113.723c-0.033-0.832,0.274-1.642,0.858-2.236
	c0.589-0.581,1.392-0.893,2.218-0.857h22.264c1.623-0.087,3.01,1.158,3.096,2.781c0.006,0.104,0.006,0.209,0,0.312v42.806
	c0,0.573,0.172,0.918,0.517,1.032c0.346,0.114,0.67,0,1.014-0.516l33.576-44.526c0.893-1.215,2.313-1.927,3.822-1.911h25.356
	c1.701,0,2.562,0.631,2.562,1.911c0.002,0.698-0.24,1.375-0.688,1.911l-35.965,47.946c-0.328,0.514-0.393,1.15-0.172,1.72
	l37.855,62.681c0.299,0.528,0.475,1.115,0.516,1.723c0,1.354-0.859,2.044-2.578,2.044h-25.15c-1.475,0.007-2.844-0.771-3.592-2.044
	l-26.219-44.546c-0.197-0.314-0.492-0.559-0.842-0.688c-0.345-0.09-0.631,0.082-0.859,0.517l-8.562,11.656
	c-0.368,0.42-0.557,0.971-0.516,1.528v30.576c0.039,0.827-0.272,1.632-0.859,2.217c-0.596,0.583-1.403,0.894-2.235,0.86h-22.34
	C1016.667,1136.344,1015.865,1136,1015.292,1135.383z"/>
<path fill="#FFFFFF" d="M208.298,961.805c-4.325-2.171-7.931-5.55-10.376-9.729c-2.505-4.416-3.766-9.429-3.649-14.504V908.43
	c-0.113-5.076,1.146-10.088,3.649-14.505c2.438-4.169,6.046-7.531,10.376-9.669c4.848-2.361,10.187-3.534,15.575-3.423
	c5.332-0.101,10.616,1.031,15.44,3.308c4.29,2.037,7.895,5.276,10.377,9.326c2.483,4.208,3.748,9.023,3.648,13.912
	c0,0.781-0.592,1.261-1.758,1.413l-10.032,0.593h-0.479c-0.938,0-1.414-0.19-1.414-0.593v-0.706c0.185-4.169-1.373-8.227-4.3-11.199
	c-3.088-2.91-7.228-4.44-11.466-4.242c-4.269-0.198-8.436,1.331-11.562,4.242c-2.972,2.949-4.562,7.016-4.376,11.199v30.076
	c-0.162,4.146,1.426,8.169,4.376,11.084c6.656,5.617,16.393,5.617,23.047,0c2.931-2.946,4.489-6.987,4.3-11.141
	c0.01-0.403,0.207-0.778,0.535-1.013c0.396-0.275,0.885-0.379,1.356-0.287l9.918,0.459c1.242,0.172,1.911,0.363,1.911,0.592v0.593
	c0.106,4.941-1.155,9.816-3.649,14.084c-2.468,4.075-6.075,7.337-10.377,9.384c-4.824,2.273-10.107,3.405-15.44,3.308
	C218.52,965.367,213.156,964.193,208.298,961.805z"/>
<path fill="#FFFFFF" d="M267.539,962.456v-78.771c-0.148-0.905,0.464-1.761,1.37-1.91c0.179-0.03,0.361-0.03,0.541,0h9.918
	c0.919-0.137,1.774,0.497,1.911,1.415c0.023,0.164,0.023,0.331,0,0.495v78.771c0.148,0.905-0.464,1.763-1.37,1.91
	c-0.179,0.029-0.362,0.029-0.541,0h-9.918c-0.895,0.162-1.749-0.43-1.911-1.321C267.504,962.848,267.504,962.649,267.539,962.456z"
	/>
<path fill="#FFFFFF" d="M317.664,962.801l-24.402-78.866c-0.089-0.227-0.128-0.466-0.114-0.707c0-0.956,0.535-1.414,1.644-1.414
	h10.739c0.984-0.076,1.882,0.569,2.121,1.528l17.447,60.961c0.152,0.324,0.324,0.478,0.534,0.478c0.212,0,0.325-0.15,0.401-0.478
	l17.354-60.847c0.139-1.036,1.083-1.769,2.12-1.645h10.491c0.524-0.05,1.036,0.174,1.356,0.592c0.27,0.464,0.332,1.02,0.172,1.529
	l-24.843,78.886c-0.193,0.989-1.121,1.658-2.121,1.528h-10.854C318.743,964.39,317.884,963.74,317.664,962.801z"/>
<path fill="#FFFFFF" d="M369.433,962.456v-78.771c-0.138-0.918,0.497-1.773,1.416-1.91c0.164-0.022,0.331-0.022,0.495,0h9.898
	c0.919-0.137,1.774,0.497,1.911,1.415c0.023,0.164,0.023,0.331,0,0.495v78.771c0.148,0.905-0.464,1.763-1.37,1.91
	c-0.179,0.029-0.362,0.029-0.541,0h-9.898c-0.905,0.149-1.763-0.464-1.911-1.369C369.404,962.817,369.404,962.635,369.433,962.456z"
	/>
<path fill="#FFFFFF" d="M399.857,962.456v-78.771c-0.137-0.918,0.497-1.773,1.415-1.91c0.164-0.022,0.331-0.022,0.496,0h9.897
	c0.919-0.137,1.774,0.497,1.911,1.415c0.024,0.164,0.024,0.331,0,0.495v68.146c-0.058,0.332,0.165,0.648,0.498,0.706
	c0.069,0.014,0.14,0.014,0.209,0h38.928c0.905-0.147,1.763,0.465,1.91,1.37c0.029,0.181,0.029,0.361,0,0.541v8.026
	c0.162,0.893-0.43,1.748-1.322,1.911c-0.194,0.035-0.395,0.035-0.588,0h-51.464c-0.907,0.14-1.757-0.481-1.896-1.39
	C399.823,962.817,399.824,962.635,399.857,962.456z"/>
<path fill="#FFFFFF" d="M466.722,962.456v-78.771c-0.137-0.918,0.497-1.773,1.416-1.91c0.164-0.022,0.331-0.022,0.495,0h9.897
	c0.919-0.137,1.773,0.497,1.911,1.415c0.023,0.164,0.023,0.331,0,0.495v78.771c0.148,0.905-0.465,1.763-1.369,1.91
	c-0.18,0.029-0.361,0.029-0.542,0h-9.897c-0.905,0.149-1.763-0.464-1.911-1.369C466.692,962.817,466.692,962.635,466.722,962.456z"
	/>
<path fill="#FFFFFF" d="M497.146,962.456v-78.771c-0.138-0.918,0.496-1.773,1.416-1.91c0.164-0.022,0.33-0.022,0.494,0h9.439
	c0.974-0.074,1.896,0.437,2.352,1.299l33.021,54.006c0.151,0.307,0.323,0.438,0.534,0.345c0.211-0.098,0.287-0.27,0.287-0.573
	v-53.164c-0.138-0.918,0.496-1.771,1.416-1.91c0.164-0.022,0.33-0.022,0.494,0h9.897c0.919-0.137,1.773,0.497,1.911,1.415
	c0.024,0.164,0.024,0.331,0,0.495v78.771c0.149,0.905-0.464,1.763-1.37,1.91c-0.18,0.029-0.36,0.029-0.541,0h-9.669
	c-0.97,0.083-1.896-0.421-2.351-1.278l-33.062-54.312c-0.151-0.325-0.344-0.438-0.534-0.362s-0.286,0.286-0.286,0.594l0.113,53.508
	c0.149,0.906-0.464,1.762-1.369,1.911c-0.18,0.028-0.361,0.028-0.541,0h-9.784c-0.907,0.134-1.753-0.495-1.887-1.403
	C497.104,962.834,497.108,962.641,497.146,962.456z"/>
<path fill="#FFFFFF" d="M587.001,961.805c-4.35-2.203-7.955-5.631-10.378-9.861c-2.486-4.464-3.747-9.509-3.649-14.618v-28.551
	c-0.109-5.13,1.148-10.196,3.649-14.677c2.44-4.2,6.046-7.604,10.378-9.803c9.808-4.601,21.148-4.601,30.957,0
	c4.237,2.092,7.812,5.318,10.318,9.323c2.471,4.021,3.736,8.661,3.65,13.377v0.479c0.148,0.906-0.464,1.762-1.369,1.911
	c-0.182,0.027-0.362,0.027-0.541,0h-9.785c-0.472,0.021-0.939-0.082-1.355-0.307c-0.315-0.123-0.526-0.426-0.535-0.766v-0.936
	c0.117-3.954-1.444-7.773-4.301-10.513c-3.132-2.823-7.252-4.301-11.466-4.106c-4.277-0.199-8.452,1.354-11.562,4.3
	c-2.964,3.021-4.542,7.14-4.355,11.37v29.485c-0.181,4.273,1.491,8.419,4.586,11.371c3.254,2.948,7.537,4.5,11.926,4.317
	c4.054,0.229,8.041-1.104,11.141-3.727c2.785-2.635,4.273-6.357,4.071-10.188v-7.204c0.045-0.346-0.199-0.661-0.544-0.707
	c-0.056-0.008-0.109-0.008-0.164,0H603.76c-0.919,0.138-1.773-0.497-1.911-1.416c-0.023-0.163-0.023-0.331,0-0.495v-7.776
	c-0.137-0.918,0.497-1.773,1.415-1.91c0.164-0.023,0.331-0.023,0.496,0h26.295c0.906-0.148,1.763,0.464,1.911,1.369
	c0.028,0.18,0.028,0.36,0,0.541v14.619c0,9.046-2.65,16.085-7.95,21.116s-12.435,7.549-21.403,7.549
	C597.197,965.469,591.84,964.241,587.001,961.805z"/>
<path fill="#FFFFFF" d="M699.978,893.584h-39.614c-0.333-0.059-0.648,0.166-0.707,0.497c-0.014,0.069-0.014,0.142,0,0.209v21.823
	c-0.046,0.348,0.197,0.662,0.543,0.707c0.056,0.008,0.109,0.008,0.164,0h26.409c0.906-0.148,1.762,0.464,1.912,1.37
	c0.029,0.18,0.029,0.362,0,0.541v8.026c0.137,0.919-0.498,1.772-1.416,1.91c-0.164,0.023-0.33,0.023-0.496,0h-26.409
	c-0.333-0.059-0.648,0.164-0.707,0.498c-0.014,0.068-0.014,0.141,0,0.209v22.513c-0.059,0.333,0.165,0.647,0.498,0.707
	c0.068,0.012,0.141,0.012,0.209,0h39.614c0.92-0.139,1.773,0.497,1.912,1.415c0.022,0.165,0.022,0.331,0,0.494v8.025
	c0.147,0.906-0.465,1.762-1.369,1.911c-0.182,0.03-0.363,0.03-0.543,0h-52.15c-0.894,0.163-1.749-0.43-1.911-1.322
	c-0.034-0.192-0.034-0.394,0-0.589v-78.848c-0.147-0.905,0.465-1.763,1.369-1.91c0.181-0.03,0.362-0.03,0.542,0h52.133
	c0.918-0.137,1.772,0.497,1.909,1.415c0.025,0.164,0.025,0.331,0,0.495v8.008c0.125,0.92-0.52,1.768-1.438,1.892
	C700.281,893.603,700.126,893.603,699.978,893.584z"/>
<path fill="#FFFFFF" d="M715.304,962.456v-78.771c-0.138-0.918,0.496-1.773,1.416-1.91c0.164-0.022,0.33-0.022,0.494,0h9.44
	c0.974-0.074,1.896,0.437,2.351,1.299l33.021,54.006c0.154,0.307,0.326,0.438,0.535,0.345c0.211-0.098,0.287-0.27,0.287-0.573
	v-53.164c-0.137-0.918,0.496-1.771,1.416-1.91c0.164-0.022,0.33-0.022,0.494,0h9.897c0.92-0.137,1.775,0.497,1.912,1.415
	c0.023,0.164,0.023,0.331,0,0.495v78.771c0.148,0.905-0.465,1.763-1.369,1.91c-0.18,0.029-0.362,0.029-0.543,0h-9.668
	c-0.971,0.083-1.896-0.421-2.352-1.278l-33.062-54.312c-0.153-0.325-0.344-0.438-0.535-0.362c-0.188,0.075-0.286,0.286-0.286,0.594
	l0.114,53.508c0.148,0.906-0.465,1.762-1.371,1.911c-0.178,0.028-0.358,0.028-0.541,0h-9.764c-0.908,0.145-1.76-0.475-1.904-1.381
	C715.261,962.848,715.267,962.649,715.304,962.456z"/>
<path fill="#FFFFFF" d="M800.974,962.035c-4.199-2.015-7.738-5.184-10.203-9.135c-2.484-4.125-3.75-8.869-3.65-13.683v-4.474
	c-0.137-0.919,0.496-1.772,1.416-1.91c0.164-0.023,0.33-0.023,0.494,0h9.898c0.92-0.138,1.772,0.496,1.91,1.416
	c0.024,0.164,0.024,0.33,0,0.494v4.474c-0.154,3.894,1.395,7.66,4.241,10.317c6.449,5.274,15.722,5.274,22.168,0
	c2.853-2.657,4.398-6.426,4.242-10.317v-55.534c-0.137-0.918,0.498-1.773,1.416-1.91c0.164-0.023,0.332-0.023,0.496,0h9.898
	c0.918-0.137,1.772,0.497,1.91,1.415c0.024,0.164,0.024,0.331,0,0.495v55.534c0.1,4.812-1.166,9.558-3.648,13.683
	c-2.467,3.951-6.006,7.12-10.205,9.135c-9.641,4.33-20.67,4.33-30.309,0H800.974L800.974,962.035z"/>
<path fill="#FFFFFF" d="M873.095,961.922c-4.449-2.288-8.127-5.838-10.566-10.204c-2.549-4.688-3.826-9.956-3.709-15.288v-26.812
	c-0.088-5.264,1.23-10.456,3.822-15.039c2.465-4.323,6.129-7.842,10.549-10.129c9.898-4.815,21.461-4.815,31.359,0
	c4.42,2.292,8.09,5.811,10.565,10.129c2.584,4.586,3.902,9.776,3.822,15.039v26.89c0.1,5.345-1.219,10.618-3.822,15.286
	c-2.463,4.353-6.133,7.896-10.565,10.205c-9.927,4.79-21.492,4.79-31.418,0L873.095,961.922z M872.676,870.555
	c-2.75-3.008-2.75-7.617,0-10.625c1.461-1.329,3.396-2.02,5.369-1.911c1.916-0.102,3.786,0.591,5.18,1.911
	c2.672,3.038,2.672,7.587,0,10.625c-1.394,1.319-3.264,2.011-5.18,1.911C876.072,872.575,874.136,871.886,872.676,870.555z
	 M900.691,949.078c3.064-3.274,4.678-7.65,4.471-12.135v-27.439c0.218-4.524-1.395-8.945-4.471-12.271
	c-3.16-3.127-7.484-4.79-11.924-4.587c-4.398-0.185-8.676,1.479-11.791,4.587c-3.078,3.323-4.689,7.744-4.476,12.271v27.479
	c-0.204,4.482,1.408,8.858,4.476,12.135c3.108,3.121,7.389,4.792,11.791,4.605c4.442,0.206,8.77-1.465,11.924-4.605V949.078z
	 M894.345,870.555c-2.672-3.038-2.672-7.587,0-10.625c1.428-1.338,3.342-2.029,5.293-1.911c4.037-0.207,7.479,2.896,7.686,6.936
	c0.205,4.037-2.897,7.479-6.938,7.686c-0.248,0.013-0.498,0.013-0.746,0C897.662,872.713,895.744,871.956,894.345,870.555z"/>
<path fill="#FFFFFF" d="M978.047,962.915l-15.459-33.711c0-0.323-0.347-0.478-0.822-0.478h-13.797
	c-0.347-0.046-0.662,0.198-0.707,0.543c-0.008,0.055-0.008,0.107,0,0.164v33.021c0.147,0.906-0.465,1.764-1.369,1.911
	c-0.18,0.029-0.361,0.029-0.541,0h-9.898c-0.905,0.149-1.762-0.464-1.911-1.37c-0.029-0.179-0.029-0.359,0-0.541v-78.902
	c-0.148-0.906,0.465-1.764,1.368-1.911c0.181-0.03,0.363-0.03,0.543,0h31.951c4.435-0.09,8.816,0.94,12.746,3
	c3.623,1.94,6.607,4.888,8.601,8.483c2.092,3.861,3.146,8.201,3.057,12.595c0.143,4.955-1.326,9.821-4.185,13.874
	c-2.823,3.835-6.866,6.598-11.467,7.835c-0.217,0.057-0.395,0.213-0.479,0.421c-0.084,0.182-0.027,0.396,0.133,0.516l16.264,33.729
	l0.229,0.956c0,0.857-0.535,1.279-1.644,1.279h-10.319C979.342,964.442,978.394,963.858,978.047,962.915z M947.261,894.118v23.22
	c-0.045,0.346,0.196,0.661,0.543,0.707c0.055,0.008,0.108,0.008,0.164,0h17.58c3.371,0.152,6.659-1.053,9.137-3.346
	c2.34-2.312,3.602-5.502,3.477-8.79c0.328-6.578-4.737-12.176-11.313-12.504c-0.432-0.021-0.865-0.02-1.297,0.006h-17.582
	c-0.344-0.051-0.664,0.188-0.715,0.531c-0.013,0.077-0.011,0.156,0.008,0.233L947.261,894.118L947.261,894.118z"/>
</svg>
