<?xml version="1.0" encoding="utf-8"?>
<!-- Generator: Adobe Illustrator 24.1.2, SVG Export Plug-In . SVG Version: 6.00 Build 0)  -->
<svg version="1.1" id="Layer_1" xmlns="http://www.w3.org/2000/svg" xmlns:xlink="http://www.w3.org/1999/xlink" x="0px" y="0px"
	 viewBox="0 0 1033 724" style="enable-background:new 0 0 1033 724;" xml:space="preserve">
<style type="text/css">
	.st0{fill:#EC6610;}
	.st1{fill:#3B484F;}
	.st2{fill:#FFFFFF;}
</style>
<path class="st0" d="M483.5,0H119.1v364.4h364.4V0z"/>
<path class="st1" d="M910.2,0H545.7v364.4h364.4V0z"/>
<path class="st2" d="M0.9,722.7c-0.6-0.6-0.9-1.4-0.9-2.2c0.8-2.1-1.6-114.5,0.9-116c-0.3-1.8,23.4-0.4,24.3-0.9
	c1.5-0.1,2.9,0.7,3.6,2.1c1.2,0.2,22.7,40.4,24.5,36.8c0,0,22.9-36.8,22.9-36.8c1.1-4.2,22.8-1.2,25.7-2.1c1.7-0.1,3.2,1.4,3.1,3.1
	c0,0,0,113.7,0,113.7c0.1,1.7-1.4,3.2-3.1,3.1c0,0-22.2,0-22.2,0c-7.4,2.1-0.5-69.2-3.6-71c-3.3,1.6-13.5,26.1-18.4,25.2
	c-2.9-0.6-12.6,1.6-14-2c-0.3,0.5-15.4-27.9-15.2-22.2c0,0,0,66.9,0,66.9c0,0.8-0.3,1.6-0.9,2.2c-0.2,1.8-23.2,0.4-24.5,0.9
	C2.3,723.5,1.5,723.2,0.9,722.7z"/>
<path class="st2" d="M205.8,627.1c-0.7,2.6-55.2-1-55.9,1.8c-0.1,0.2,0.1,20.4,0,20.7c-1.7,2.6,33.9,0.6,34.3,1.2
	c1.6-0.1,3,1.2,3.1,2.8c0,30.3,4.7,19.5-36.1,21.4c-2.6-1.5-0.6,22.6-1.2,23.1c-0.1,0.7,0.5,1.3,1.2,1.2c0,0,52.4,0,52.4,0
	c1.7-0.1,3.2,1.4,3.1,3.1c-0.3,1.2,0.9,20-0.9,20.4c-0.6,0.6-1.4,0.9-2.2,0.9h-78.9c-1.7,0.1-3.2-1.4-3.1-3.1c0,0,0-113.8,0-113.8
	c-0.1-1.7,1.4-3.2,3.1-3.1c1.4,1.3,85-3.2,82,2.8C206.3,608.3,207.4,626,205.8,627.1z"/>
<path class="st2" d="M221.1,722.7c-0.6-0.6-0.9-1.4-0.9-2.2c0.8-2.1-1.6-114.5,0.9-116c0.6-0.6,1.4-0.9,2.2-0.9H266
	c8.1-0.2,16.2,1.4,23.6,4.6c13,5.4,22,18.8,21.7,32.9c-1.5,14.4,4.2,52.5-5.7,64.6c-8.5,12.9-24.7,18-39.6,17.8c0,0-42.7,0-42.7,0
	C222.5,723.5,221.7,723.3,221.1,722.7z M249.7,699.2c7.7-0.8,23.1,2.7,28.4-4.9c8-7.6,3.2-38.6,4.5-48.4c0.2-20.9-18.2-18.2-33-18
	c-3.2,0.4-0.2,68.2-1.2,70c-0.3,0.8,0.7,1.7,1.5,1.2L249.7,699.2L249.7,699.2L249.7,699.2z"/>
<path class="st2" d="M327,722.7c-2.4-1.6,0-113.7-0.8-115.9c-0.1-1.6,1.1-3,2.7-3.1c0.4-0.2,22.2,0.1,22.6,0
	c1.7-0.1,3.2,1.4,3.1,3.1c0,0,0,113.7,0,113.7c0.1,1.6-1.2,3-2.8,3.1C350.1,723.3,327.5,724.4,327,722.7z"/>
<path class="st2" d="M455.8,627.1c-0.7,2.6-55.2-1-55.8,1.8c-0.1,0.2,0.1,20.4,0,20.7c-1.7,2.6,33.9,0.6,34.3,1.2
	c1.7-0.1,3.2,1.4,3.1,3.1c0.1,30.1,4.3,19.2-36.1,21.2c-2.6-1.5-0.6,22.6-1.2,23.1c-0.1,0.7,0.5,1.3,1.2,1.2c0,0,52.4,0,52.4,0
	c1.7-0.1,3.2,1.4,3.1,3.1c-0.3,1.2,0.9,20-0.9,20.4c-0.6,0.6-1.4,0.9-2.2,0.9h-79c-1.7,0.1-3.2-1.4-3.1-3.1c0,0,0-113.8,0-113.8
	c-0.1-1.7,1.3-3.2,3.1-3.1c1.4,1.3,85.1-3.3,82,2.8C456.3,608.4,457.5,626,455.8,627.1z"/>
<path class="st2" d="M558.2,604.5c1.7,0.4,0.5,19.3,0.8,20.6c0.1,1.6-1.1,3-2.8,3.1c-0.2-0.1-28.7,0.1-29,0
	c-0.7-0.1-1.3,0.5-1.2,1.2c0,0,0,91.1,0,91.1c0,0.8-0.3,1.6-0.9,2.2c0.1,1.8-23.4,0.4-24.4,0.8c-1.7,0.1-3.2-1.4-3.1-3.1
	c-1.1-1.3,2.2-92.6-1.2-92.3c-34.6-1.8-30.7,8.6-30.7-21.4c-0.1-1.7,1.4-3.2,3.1-3.1c0,0,87,0,87,0
	C556.8,603.6,557.6,603.9,558.2,604.5z"/>
<path class="st2" d="M655.6,627.1c-0.5,2.6-55.2-1-55.8,1.8c-0.1,0.3,0.1,20.4,0,20.7c-1.7,2.6,33.9,0.6,34.2,1.2
	c1.7-0.1,3.2,1.4,3.1,3.1c0.1,30.1,4.3,19.2-36.1,21.2c-0.7-0.1-1.3,0.5-1.2,1.2c0.5,0.5-1.1,23.8,0.9,23.1c0.3,0,52.4,0,52.8,0
	c1.7-0.1,3.2,1.4,3.1,3.1c0,0,0,18.2,0,18.2c0.1,1.6-1.2,3-2.8,3.1c-0.1,0.2-79.1-0.2-79.2,0c-1.7,0.1-3.2-1.4-3.1-3.1
	c0,0,0-113.8,0-113.8c-0.1-1.7,1.4-3.2,3.1-3.1c0,0,79,0,79,0c0.8,0,1.6,0.3,2.2,0.9c1.7,0.3,0.5,19.1,0.9,20.4
	C656.5,625.7,656.2,626.5,655.6,627.1z"/>
<path class="st2" d="M671,722.7c-2.4-1.6,0-113.7-0.9-115.9c-0.1-1.7,1.4-3.2,3.1-3.1c0,0,22.3,0,22.3,0c1.7-0.1,3.2,1.4,3.1,3.1
	c0,0,0,42.8,0,42.8c2.1,5.2,35.1-49.6,38.9-45.9c1.4,0.9,29.1-2.1,27.9,1.9c-0.5,4.4-37.3,47.7-36.8,51.6
	c-1.8,0.5,47.5,70.3,35.8,66.4c-3-0.7-27.6,2-28.8-2c-1.8-1-25.3-47.1-27.9-44.7c0,0-8.6,11.7-8.6,11.7c-0.4,0.4-0.6,1-0.5,1.5v30.6
	c0.1,1.7-1.4,3.2-3.1,3.1C694.4,723.4,671.1,724.5,671,722.7z"/>
<path class="st2" d="M779.3,722.7c-2.5-1.6,0-113.7-0.9-115.9c-0.1-1.7,1.4-3.2,3.1-3.1c0,0,21,0,21,0c3.7-4.8,40.4,70.8,42.7,65.3
	c0,0-0.2-62.2-0.2-62.2c0-0.8,0.3-1.6,0.9-2.2c0.2-1.8,22.9-0.4,24.2-0.9c1.7-0.1,3.2,1.4,3.1,3.1c0,0,0,113.7,0,113.7
	c0.1,1.7-1.4,3.2-3.1,3.1c0,0-21,0-21,0c-2.4,4.4-40.2-66.3-41.3-66.6c-0.4-1.2-1.6-0.8-1.5,0.3c-1.3,1.3,3.6,69.3-2.5,66.3
	C802.2,723.3,779.8,724.4,779.3,722.7z"/>
<path class="st2" d="M891,722.7c-2.4-1.6,0-113.7-0.9-115.9c-0.1-1.7,1.4-3.2,3.1-3.1c0,0,22.3,0,22.3,0c1.7-0.1,3.2,1.4,3.1,3.1
	c-0.8,2.2,1.6,114.4-0.9,115.9c0,1.8-23.4,0.5-24.5,0.9C892.4,723.6,891.6,723.3,891,722.7z"/>
<path class="st2" d="M936.3,722.7c-0.6-0.6-0.9-1.4-0.9-2.2c0.8-2.1-1.6-114.5,0.9-116c-0.3-1.8,23.5-0.4,24.5-0.9
	c1.7-0.1,3.2,1.4,3.1,3.1c0,0,0,42.8,0,42.8c1.7,5.6,35.3-49.8,38.9-45.9c0,0,25.4,0,25.4,0c2.7-0.2,3.2,2.2,1.9,3.8
	c0,0-36,47.9-36,47.9c-0.3,0.5-0.4,1.2-0.2,1.7c0.5,1.7,38.7,62.5,38.4,64.4c1.7,4.2-26.4,1.2-27.7,2c-4,2.5-27.9-46.4-30.7-47.3
	c-0.5-0.7-9,12-9.4,12.2c-0.4,0.4-0.6,1-0.5,1.5v30.6c0.1,1.7-1.4,3.2-3.1,3.1C959.7,723.4,936.4,724.5,936.3,722.7z"/>
<path class="st2" d="M129.4,549.1c-9-4.4-14.3-14.4-14-24.2c0.9-10.3-2.6-34.7,3.6-43.6c10.4-17.6,41-17.7,51.8-0.5
	c1.7,3.3,6.4,13.5,1.9,15.3c-1.3-0.3-11.5,1.5-11.9,0c1.6-14.5-17.6-21.4-27.3-11.9c-7.9,6.1-3.2,32.9-4.4,41.3
	c-0.8,14.1,17.8,19.9,27.4,11.1c5.1-3.6,3-13.1,6.2-12.4c1.1,0.4,12.4-0.5,11.8,1.6C175.6,548.7,147.4,558.5,129.4,549.1z"/>
<path class="st2" d="M188.6,549.8V471c-0.1-0.9,0.5-1.8,1.4-1.9c0.2,0,0.4,0,0.5,0h9.9c1.1-0.2,2.1,0.8,1.9,1.9c0,0,0,78.8,0,78.8
	c0.1,0.9-0.5,1.8-1.4,1.9c-0.2,0-0.4,0-0.5,0h-9.9C189.4,551.9,188.4,550.9,188.6,549.8z"/>
<path class="st2" d="M238.7,550.1c-0.1-0.9-24.6-78.7-24.5-79.6c-0.6-2.8,11.2-0.9,12.4-1.4c1-0.1,1.9,0.6,2.1,1.5l17.4,61
	c1.9,2.7,17.4-60.8,18.3-60.8c0.1-1,1.1-1.8,2.1-1.6c0.8,0.2,11.6-0.6,11.8,0.6c1.4,1.4-24.8,78.9-24.7,80.4c-0.1,3-11.3,1-13,1.5
	C239.8,551.7,238.9,551,238.7,550.1z"/>
<path class="st2" d="M290.5,549.8V471c-0.1-0.9,0.5-1.8,1.4-1.9c1.6,0.5,12.4-1.3,12.3,1.4c0,0.4,0,78.8,0,79.3
	c0.9,3.5-10.3,1.4-11.8,1.9C291.3,551.9,290.3,550.9,290.5,549.8z"/>
<path class="st2" d="M320.9,549.8V471c-0.1-0.9,0.5-1.8,1.4-1.9c0.2,0,0.3,0,0.5,0h9.9c1.1-0.2,2.1,0.8,1.9,1.9
	c0.5,0.7-0.9,68.7,0.5,68.9c0.1,0,39,0,39.1,0c1.1-0.2,2.1,0.8,1.9,1.9c-0.6,1.6,1.6,10.6-1.9,9.9
	C373.3,550.7,318.6,554.1,320.9,549.8z"/>
<path class="st2" d="M387.8,549.8V471c-0.1-0.9,0.5-1.8,1.4-1.9c1.6,0.5,12.4-1.3,12.3,1.4c0,0.4,0,78.8,0,79.3
	c1,3.5-10.3,1.4-11.8,1.9C388.6,551.9,387.6,550.9,387.8,549.8z"/>
<path class="st2" d="M418.2,549.8c0,0,0-78.8,0-78.8c-0.8-3.5,9.8-1.4,11.3-1.9c1-0.1,1.9,0.4,2.4,1.3c0.8-0.2,32.9,56.8,33.8,53.8
	c1-0.5-2.3-58,1.9-55.1c1.5,0.5,11.8-1.4,11.8,1.4c0,0.4,0,78.8,0,79.3c0.2,1.1-0.8,2.1-1.9,1.9c-2-0.6-11,1.3-12-1.3
	c0,0-33.1-54.3-33.1-54.3c-2.3-2.1,0.1,53.5-0.7,53.7c0.2,1.1-0.8,2.1-1.9,1.9c0,0-9.8,0-9.8,0C419,551.9,418,550.9,418.2,549.8z"/>
<path class="st2" d="M508.1,549.1c-9.1-4.4-14.3-14.5-14-24.5c0.9-10.4-2.5-34.2,3.6-43.2c12.9-22.5,56.1-15.2,55.3,12.9
	c0.1,1-0.2,2.2-1.4,2.4c-1.6-0.4-11.8,1.1-12.2-1.1c1.5-14.3-18-20.6-27.3-11.3c-7.8,6.2-3.2,32.4-4.4,40.9
	c-1.5,19.2,32.3,21.8,31.7,1.8c-0.2-0.6,0.6-8-0.5-7.9c-0.2,0.1-13.9,0-14.1,0c-3.4,0.6-1.4-8-1.9-9.7c-0.2-1.1,0.8-2.1,1.9-1.9
	c0,0,26.3,0,26.3,0c1.1-0.2,2.1,0.8,1.9,1.9c0.1,11.4,1.3,28.5-8,35.7C536.6,553.6,519.4,555,508.1,549.1z"/>
<path class="st2" d="M621,480.9c-0.7,0.5-40.2-0.9-40.3,0.5c-0.1,0.2,0.1,21.9,0,22c-0.4,2.6,31.3-1.9,29,2.6
	c-0.5,1.6,1.3,9.8-1.4,9.9c-0.5,0-26.4,0-26.9,0c-0.4-0.1-0.8,0.3-0.7,0.7c0,0,0,22.5,0,22.5c-0.1,0.3,0.2,0.6,0.5,0.7
	c1,0.9,44.1-2.2,41.7,1.9c-0.5,1.4,1.2,9.8-1.4,9.9c-0.6,0.2-52.1-0.2-52.7,0c-1.1,0.2-2.1-0.8-1.9-1.9c0,0,0-78.8,0-78.8
	c-2.7-4.3,53.4-0.9,54-1.9c3.4-0.6,1.4,8.3,1.9,9.9C623.1,480.1,622.1,481,621,480.9z"/>
<path class="st2" d="M636.4,549.8V471c-0.8-3.5,9.8-1.4,11.3-1.9c1-0.1,1.9,0.4,2.4,1.3c0.8-0.2,32.9,56.8,33.8,53.8
	c1-0.5-2.3-58,1.9-55.1c1.5,0.5,11.8-1.4,11.8,1.4c0,0.4,0,78.8,0,79.3c0.2,1.1-0.8,2.1-1.9,1.9c-2-0.6-11,1.3-12-1.3
	c0,0-33.1-54.3-33.1-54.3c-2.3-2.1,0.1,53.5-0.7,53.7c0.2,1.1-0.8,2.1-1.9,1.9c0,0-9.8,0-9.8,0C637.1,551.9,636.1,550.9,636.4,549.8
	z"/>
<path class="st2" d="M722,549.3c-10.5-4.7-14.9-16.4-13.9-27.3c-0.2-1.1,0.8-2.1,1.9-1.9c1.7,0.5,12.7-1.5,11.8,1.9
	c-2.9,15.8,14.5,24.3,26.4,14.8c8.3-4.7,2.7-58,4.2-65.9c-0.8-3.5,10.2-1.4,11.8-1.9c4.4-2.3,0.8,56.6,1.9,57.4
	C767.2,549.1,739.8,558.1,722,549.3z"/>
<path class="st2" d="M794.2,549.2c-18.9-8.4-13.6-36-14.3-52.3c-1.3-23.5,26.6-35.4,45.7-25.2c18.9,8.3,13.8,35.8,14.4,52.1
	C841.4,547.5,813.5,559.6,794.2,549.2L794.2,549.2z M793.7,457.9c-6.6-7,3.6-17.1,10.5-10.6C810.8,454.3,800.8,464.3,793.7,457.9z
	 M821.7,536.4c3.1-3.3,4.7-7.6,4.5-12.1c-1.1-9,3.3-32.8-4.5-39.7c-6.2-6.2-17.5-6.3-23.7,0c-7.8,6.8-3.4,30.8-4.5,39.8
	C792.3,539,811.8,546.7,821.7,536.4L821.7,536.4z M815.4,457.9c-8.7-10.8,11.2-18.9,13-5.6C828.9,459,820,462.5,815.4,457.9z"/>
<path class="st2" d="M899.1,550.2l-15.5-33.7c0-0.3-0.3-0.5-0.8-0.5H869c-0.4-0.1-0.8,0.3-0.7,0.7c0,0,0,33,0,33
	c0.2,1.1-0.8,2.1-1.9,1.9c0,0-9.9,0-9.9,0c-1.1,0.2-2.1-0.8-1.9-1.9c0,0,0-78.9,0-78.9c-0.2-1.1,0.8-2.1,1.9-1.9
	c20.1,0.8,56.6-7,56.4,24.1c0.6,10.3-6.6,19.2-16.1,22.1c0,0.6,16.2,33.6,16.4,34.2c0.4,1.1,0.3,2.3-1.4,2.2
	C909.8,551.1,899.8,553,899.1,550.2z M868.3,481.4v23.2c-0.9,1.6,18,0.3,18.3,0.7c15.7,1.2,17-24.1,1.3-24.6
	C887.5,481.2,867.8,479.7,868.3,481.4L868.3,481.4z"/>
</svg>
