<svg width="1033" height="724" viewBox="0 0 1033 724" fill="none" xmlns="http://www.w3.org/2000/svg">
<path d="M483.539 0H119.132V364.407H483.539V0Z" fill="#EC6610"/>
<path d="M910.15 0H545.743V364.407H910.15V0Z" fill="#3B484F"/>
<path d="M0.861134 722.683C0.274134 722.098 -0.0348676 721.291 0.00313244 720.464V606.741C-0.0308676 605.909 0.278134 605.099 0.861134 604.505C1.44913 603.924 2.25313 603.612 3.07813 603.648H25.1691C26.6691 603.586 28.0711 604.388 28.7801 605.71L51.5581 642.535C52.1131 643.338 52.6851 643.338 53.2581 642.535L76.1911 605.71C76.8791 604.376 78.2861 603.569 79.7841 603.648H101.914C103.537 603.572 104.915 604.826 104.991 606.45C104.996 606.548 104.996 606.645 104.99 606.744V720.467C105.028 721.294 104.717 722.101 104.131 722.686C103.54 723.262 102.739 723.575 101.914 723.544H79.6701C78.8451 723.572 78.0431 723.262 77.4531 722.686C76.8671 722.101 76.5561 721.294 76.5931 720.467V653.582C76.5931 653.009 76.4211 652.665 76.0771 652.551C75.7321 652.438 75.4461 652.665 75.2181 653.239L61.3241 675.713C60.6051 677.025 59.2071 677.817 57.7131 677.758H47.2771C45.7831 677.82 44.3821 677.028 43.6671 675.713L29.7931 653.163C29.5641 652.59 29.2961 652.36 28.9521 652.475C28.6071 652.59 28.4351 652.934 28.4351 653.507V720.393C28.4721 721.219 28.1621 722.026 27.5761 722.611C26.9801 723.194 26.1721 723.505 25.3411 723.469H3.07813C2.26213 723.519 1.46213 723.234 0.861134 722.683Z" fill="white"/>
<path d="M205.797 627.112C205.202 627.695 204.393 628.007 203.561 627.971H151.066C150.48 627.892 149.943 628.303 149.863 628.889C149.849 628.984 149.849 629.078 149.863 629.174V649.544C149.784 650.131 150.195 650.669 150.78 650.748C150.877 650.763 150.971 650.763 151.066 650.748H184.128C185.751 650.674 187.129 651.93 187.204 653.551C187.209 653.645 187.209 653.736 187.204 653.825V671.886C187.291 673.509 186.045 674.895 184.422 674.981C184.324 674.987 184.226 674.987 184.128 674.982H151.066C150.48 674.903 149.942 675.313 149.863 675.899C149.849 675.995 149.849 676.088 149.863 676.186V698.105C149.783 698.678 150.182 699.209 150.759 699.293C150.863 699.31 150.966 699.308 151.07 699.29H203.468C205.091 699.204 206.478 700.449 206.564 702.072C206.571 702.176 206.571 702.281 206.564 702.384V720.539C206.602 721.365 206.292 722.171 205.706 722.756C205.11 723.338 204.302 723.652 203.47 723.615H124.527C123.697 723.649 122.886 723.338 122.293 722.756C121.707 722.171 121.396 721.365 121.433 720.539V606.739C121.347 605.116 122.592 603.729 124.215 603.643C124.319 603.635 124.424 603.635 124.527 603.643H203.47C205.093 603.555 206.48 604.799 206.566 606.422C206.573 606.526 206.573 606.632 206.566 606.736V624.889C206.62 625.708 206.343 626.511 205.797 627.112Z" fill="white"/>
<path d="M221.084 722.683C220.499 722.098 220.187 721.291 220.225 720.464V606.741C220.191 605.909 220.502 605.099 221.084 604.505C221.669 603.919 222.474 603.609 223.301 603.648H265.992C274.111 603.495 282.17 605.071 289.632 608.272C296.099 611.047 301.626 615.634 305.551 621.477C309.388 627.317 311.385 634.171 311.283 641.161V686.031C311.386 693.024 309.387 699.885 305.551 705.733C301.634 711.578 296.104 716.159 289.632 718.919C282.165 722.104 274.109 723.658 265.992 723.486H223.339C222.507 723.55 221.688 723.257 221.084 722.683ZM249.749 699.214H267.044C271.303 699.356 275.397 697.565 278.185 694.341C281.195 690.649 282.775 685.994 282.638 681.234V645.957C282.887 641.201 281.33 636.525 278.282 632.867C275.385 629.602 271.178 627.806 266.815 627.974H249.617C249.043 627.894 248.511 628.292 248.429 628.869C248.415 628.973 248.415 629.076 248.432 629.181V697.977C248.252 698.518 248.545 699.102 249.086 699.282C249.35 699.369 249.638 699.346 249.884 699.22H249.75V699.214H249.749Z" fill="white"/>
<path d="M326.953 722.683C326.375 722.095 326.069 721.288 326.112 720.464V606.741C326.014 605.129 327.243 603.743 328.853 603.646C328.964 603.638 329.078 603.638 329.188 603.645H351.452C352.278 603.612 353.081 603.922 353.67 604.502C354.253 605.099 354.565 605.906 354.529 606.738V720.461C354.604 722.085 353.348 723.463 351.726 723.538C351.633 723.542 351.542 723.542 351.452 723.538H329.188C328.357 723.575 327.548 723.266 326.953 722.683Z" fill="white"/>
<path d="M455.755 627.112C455.164 627.69 454.362 628.001 453.537 627.971H401.119C400.533 627.892 399.994 628.303 399.914 628.889C399.901 628.984 399.901 629.078 399.914 629.174V649.544C399.836 650.131 400.246 650.669 400.832 650.748C400.928 650.763 401.022 650.763 401.119 650.748H434.18C435.006 650.715 435.81 651.026 436.398 651.608C436.975 652.198 437.287 653 437.256 653.825V671.886C437.289 672.718 436.98 673.527 436.398 674.12C435.809 674.701 435.006 675.015 434.18 674.979H401.119C400.533 674.9 399.994 675.31 399.914 675.896C399.901 675.992 399.901 676.087 399.914 676.183V698.102C399.834 698.675 400.233 699.206 400.81 699.29C400.913 699.306 401.017 699.306 401.12 699.287H453.54C455.163 699.211 456.54 700.466 456.616 702.09C456.622 702.19 456.62 702.285 456.616 702.384V720.538C456.653 721.365 456.342 722.17 455.757 722.755C455.165 723.332 454.364 723.646 453.54 723.614H374.577C373.745 723.648 372.935 723.337 372.342 722.755C371.763 722.166 371.458 721.362 371.501 720.538V606.738C371.402 605.126 372.631 603.74 374.243 603.642C374.353 603.634 374.466 603.633 374.577 603.642H453.54C455.163 603.566 456.54 604.82 456.616 606.444C456.622 606.542 456.62 606.638 456.616 606.738V624.892C456.648 625.724 456.336 626.524 455.755 627.112Z" fill="white"/>
<path d="M558.184 604.506C558.75 605.11 559.054 605.913 559.025 606.741V625.067C559.112 626.679 557.877 628.057 556.261 628.143C556.157 628.149 556.052 628.149 555.949 628.143H527.285C526.709 628.063 526.179 628.461 526.097 629.038C526.082 629.142 526.082 629.245 526.101 629.35V720.466C526.137 721.291 525.828 722.098 525.242 722.683C524.64 723.241 523.843 723.53 523.024 723.486H500.798C499.174 723.562 497.797 722.307 497.721 720.683C497.717 720.592 497.717 720.498 497.721 720.41V629.35C497.8 628.765 497.39 628.226 496.804 628.146C496.709 628.133 496.615 628.133 496.517 628.146H468.943C467.319 628.222 465.942 626.967 465.867 625.343C465.862 625.251 465.862 625.158 465.867 625.07V606.744C465.834 605.913 466.142 605.102 466.726 604.51C467.311 603.924 468.117 603.613 468.943 603.651H555.951C556.78 603.611 557.589 603.925 558.184 604.506Z" fill="white"/>
<path d="M655.626 627.112C655.038 627.694 654.233 628.005 653.409 627.971H600.991C600.415 627.891 599.884 628.289 599.802 628.866C599.788 628.97 599.788 629.073 599.806 629.178V649.548C599.714 650.121 600.108 650.658 600.681 650.749C600.785 650.767 600.888 650.768 600.993 650.751H634.052C634.884 650.72 635.696 651.028 636.288 651.611C636.852 652.208 637.155 653.007 637.13 653.828V671.889C637.159 672.716 636.858 673.522 636.288 674.123C635.692 674.705 634.884 675.019 634.052 674.982H600.993C600.417 674.901 599.886 675.3 599.804 675.878C599.79 675.982 599.79 676.085 599.808 676.189V698.108C599.714 698.67 600.097 699.201 600.661 699.293C600.769 699.314 600.884 699.314 600.995 699.293H653.413C654.237 699.262 655.042 699.571 655.63 700.153C656.212 700.748 656.526 701.557 656.489 702.389V720.541C656.562 722.164 655.308 723.542 653.685 723.617C653.593 723.622 653.501 723.622 653.413 723.617H574.448C572.824 723.693 571.447 722.438 571.372 720.814C571.368 720.723 571.368 720.631 571.372 720.542V606.741C571.339 605.909 571.648 605.099 572.231 604.507C572.816 603.921 573.622 603.61 574.448 603.648H653.411C654.237 603.615 655.04 603.926 655.628 604.507C656.21 605.102 656.524 605.909 656.487 606.741V624.895C656.519 625.724 656.208 626.524 655.626 627.112Z" fill="white"/>
<path d="M671.048 722.683C670.462 722.098 670.151 721.291 670.19 720.464V606.741C670.102 605.118 671.347 603.732 672.97 603.646C673.069 603.64 673.167 603.64 673.265 603.645H695.546C697.171 603.569 698.548 604.823 698.624 606.447C698.628 606.545 698.628 606.642 698.624 606.741V649.547C698.624 650.12 698.796 650.465 699.14 650.579C699.485 650.694 699.828 650.521 700.171 650.063L733.729 605.537C734.625 604.327 736.044 603.617 737.55 603.626H762.854C764.554 603.626 765.415 604.257 765.415 605.537C765.419 606.235 765.175 606.912 764.727 607.448L728.761 655.394C728.431 655.908 728.368 656.544 728.587 657.115L766.444 719.796C766.743 720.323 766.919 720.911 766.96 721.518C766.96 722.872 766.101 723.562 764.38 723.562H739.214C737.737 723.565 736.372 722.788 735.62 721.518L709.399 676.972C709.208 676.654 708.911 676.41 708.558 676.284C708.214 676.194 707.927 676.367 707.7 676.8L699.138 688.457C698.769 688.877 698.581 689.428 698.622 689.985V720.561C698.659 721.388 698.349 722.193 697.763 722.778C697.173 723.356 696.37 723.667 695.546 723.638H673.263C672.423 723.642 671.622 723.294 671.048 722.683Z" fill="white"/>
<path d="M779.286 722.683C778.7 722.098 778.388 721.291 778.427 720.464V606.741C778.339 605.118 779.585 603.731 781.208 603.645C781.312 603.637 781.417 603.637 781.52 603.645H802.541C804.041 603.568 805.445 604.374 806.135 605.707L843.82 669.42C844.049 669.878 844.338 670.05 844.678 669.938C845.025 669.824 845.197 669.479 845.197 668.906L845.025 606.742C844.992 605.91 845.301 605.099 845.883 604.506C846.467 603.92 847.273 603.61 848.101 603.649H870.059C871.681 603.561 873.069 604.807 873.155 606.428C873.163 606.532 873.163 606.637 873.155 606.742V720.465C873.192 721.292 872.882 722.098 872.296 722.684C871.702 723.266 870.895 723.579 870.063 723.542H849.038C847.563 723.578 846.184 722.828 845.407 721.573L807.761 656.926C807.532 656.354 807.227 656.122 806.825 656.238C806.423 656.353 806.214 656.697 806.214 657.27L806.559 720.464C806.632 722.088 805.378 723.466 803.755 723.541C803.663 723.545 803.571 723.545 803.483 723.541H781.524C780.689 723.575 779.882 723.266 779.286 722.683Z" fill="white"/>
<path d="M890.964 722.683C890.378 722.098 890.067 721.291 890.106 720.464V606.741C890.071 605.909 890.382 605.099 890.964 604.505C891.552 603.924 892.356 603.612 893.181 603.648H915.446C917.069 603.561 918.456 604.806 918.542 606.429C918.548 606.533 918.548 606.638 918.542 606.741V720.464C918.581 721.291 918.269 722.097 917.683 722.683C917.087 723.266 916.28 723.578 915.448 723.541H893.185C892.355 723.574 891.552 723.265 890.964 722.683Z" fill="white"/>
<path d="M936.35 722.683C935.764 722.098 935.454 721.291 935.492 720.464V606.741C935.459 605.909 935.766 605.099 936.35 604.505C936.939 603.924 937.742 603.612 938.568 603.648H960.832C962.455 603.561 963.842 604.806 963.928 606.429C963.934 606.533 963.934 606.638 963.928 606.741V649.547C963.928 650.12 964.1 650.465 964.445 650.579C964.791 650.693 965.115 650.579 965.459 650.063L999.035 605.537C999.928 604.322 1001.35 603.61 1002.86 603.626H1028.21C1029.91 603.626 1030.78 604.257 1030.78 605.537C1030.78 606.235 1030.54 606.912 1030.09 607.448L994.122 655.394C993.794 655.908 993.729 656.544 993.95 657.114L1031.81 719.795C1032.1 720.323 1032.28 720.91 1032.32 721.518C1032.32 722.872 1031.46 723.562 1029.74 723.562H1004.59C1003.12 723.569 1001.75 722.791 1001 721.518L974.782 676.972C974.585 676.658 974.29 676.413 973.94 676.284C973.595 676.194 973.309 676.366 973.081 676.801L964.519 688.457C964.151 688.877 963.962 689.428 964.003 689.985V720.561C964.042 721.388 963.731 722.193 963.144 722.778C962.548 723.361 961.741 723.672 960.909 723.638H938.569C937.725 723.644 936.923 723.3 936.35 722.683Z" fill="white"/>
<path d="M129.356 549.105C125.031 546.934 121.425 543.555 118.98 539.376C116.475 534.96 115.214 529.947 115.331 524.872V495.73C115.218 490.654 116.477 485.642 118.98 481.225C121.418 477.056 125.026 473.694 129.356 471.556C134.204 469.195 139.543 468.022 144.931 468.133C150.263 468.032 155.547 469.164 160.371 471.441C164.661 473.478 168.266 476.717 170.748 480.767C173.231 484.975 174.496 489.79 174.396 494.679C174.396 495.46 173.804 495.94 172.638 496.092L162.606 496.685H162.127C161.189 496.685 160.713 496.495 160.713 496.092V495.386C160.898 491.217 159.34 487.159 156.413 484.187C153.325 481.277 149.185 479.747 144.947 479.945C140.678 479.747 136.511 481.276 133.385 484.187C130.413 487.136 128.823 491.203 129.009 495.386V525.462C128.847 529.608 130.435 533.631 133.385 536.546C140.041 542.163 149.778 542.163 156.432 536.546C159.363 533.6 160.921 529.559 160.732 525.405C160.742 525.002 160.939 524.627 161.267 524.392C161.663 524.117 162.152 524.013 162.623 524.105L172.541 524.564C173.783 524.736 174.452 524.927 174.452 525.156V525.749C174.558 530.69 173.297 535.565 170.803 539.833C168.335 543.908 164.728 547.17 160.426 549.217C155.602 551.49 150.319 552.622 144.986 552.525C139.578 552.667 134.214 551.493 129.356 549.105Z" fill="white"/>
<path d="M188.597 549.756V470.985C188.449 470.08 189.061 469.224 189.967 469.075C190.146 469.045 190.328 469.045 190.508 469.075H200.426C201.345 468.938 202.2 469.572 202.337 470.49C202.36 470.654 202.36 470.821 202.337 470.985V549.756C202.485 550.661 201.873 551.519 200.967 551.666C200.788 551.695 200.605 551.695 200.426 551.666H190.508C189.613 551.828 188.759 551.236 188.597 550.345C188.562 550.148 188.562 549.949 188.597 549.756Z" fill="white"/>
<path d="M238.722 550.101L214.32 471.235C214.231 471.008 214.192 470.769 214.206 470.528C214.206 469.572 214.741 469.114 215.85 469.114H226.589C227.573 469.038 228.471 469.683 228.71 470.642L246.157 531.603C246.309 531.927 246.481 532.081 246.691 532.081C246.903 532.081 247.016 531.931 247.092 531.603L264.446 470.756C264.585 469.72 265.529 468.987 266.566 469.111H277.057C277.581 469.061 278.093 469.285 278.413 469.703C278.683 470.167 278.745 470.723 278.585 471.232L253.742 550.118C253.549 551.107 252.621 551.776 251.621 551.646H240.767C239.801 551.69 238.942 551.04 238.722 550.101Z" fill="white"/>
<path d="M290.491 549.756V470.985C290.353 470.067 290.988 469.212 291.907 469.075C292.071 469.053 292.238 469.053 292.402 469.075H302.3C303.219 468.938 304.074 469.572 304.211 470.49C304.234 470.654 304.234 470.821 304.211 470.985V549.756C304.359 550.661 303.747 551.519 302.841 551.666C302.662 551.695 302.479 551.695 302.3 551.666H292.402C291.497 551.815 290.639 551.202 290.491 550.297C290.462 550.117 290.462 549.935 290.491 549.756Z" fill="white"/>
<path d="M320.915 549.756V470.985C320.778 470.067 321.412 469.212 322.33 469.075C322.494 469.053 322.661 469.053 322.826 469.075H332.723C333.642 468.938 334.497 469.572 334.634 470.49C334.658 470.654 334.658 470.821 334.634 470.985V539.131C334.576 539.463 334.799 539.779 335.132 539.837C335.201 539.851 335.272 539.851 335.341 539.837H374.269C375.174 539.69 376.032 540.302 376.179 541.207C376.208 541.388 376.208 541.568 376.179 541.748V549.774C376.341 550.667 375.749 551.522 374.857 551.685C374.663 551.72 374.462 551.72 374.269 551.685H322.805C321.898 551.825 321.048 551.204 320.909 550.295C320.881 550.117 320.882 549.935 320.915 549.756Z" fill="white"/>
<path d="M387.78 549.756V470.985C387.643 470.067 388.277 469.212 389.196 469.075C389.36 469.053 389.527 469.053 389.691 469.075H399.588C400.507 468.938 401.361 469.572 401.499 470.49C401.522 470.654 401.522 470.821 401.499 470.985V549.756C401.647 550.661 401.034 551.519 400.13 551.666C399.95 551.695 399.769 551.695 399.588 551.666H389.691C388.786 551.815 387.928 551.202 387.78 550.297C387.75 550.117 387.75 549.935 387.78 549.756Z" fill="white"/>
<path d="M418.204 549.756V470.985C418.066 470.067 418.7 469.212 419.62 469.075C419.784 469.053 419.95 469.053 420.114 469.075H429.553C430.527 469.001 431.449 469.512 431.905 470.374L464.926 524.38C465.077 524.687 465.249 524.818 465.46 524.725C465.671 524.627 465.747 524.455 465.747 524.152V470.988C465.609 470.07 466.243 469.217 467.163 469.078C467.327 469.056 467.493 469.056 467.657 469.078H477.554C478.473 468.941 479.327 469.575 479.465 470.493C479.489 470.657 479.489 470.824 479.465 470.988V549.759C479.614 550.664 479.001 551.522 478.095 551.669C477.915 551.698 477.735 551.698 477.554 551.669H467.885C466.915 551.752 465.989 551.248 465.534 550.391L432.472 496.079C432.321 495.754 432.128 495.641 431.938 495.717C431.748 495.793 431.652 496.003 431.652 496.311L431.765 549.819C431.914 550.725 431.301 551.581 430.396 551.73C430.216 551.758 430.035 551.758 429.855 551.73H420.071C419.164 551.864 418.318 551.235 418.184 550.327C418.162 550.134 418.166 549.941 418.204 549.756Z" fill="white"/>
<path d="M508.059 549.105C503.709 546.902 500.104 543.474 497.681 539.244C495.195 534.78 493.934 529.735 494.032 524.626V496.075C493.923 490.945 495.18 485.879 497.681 481.398C500.121 477.198 503.727 473.794 508.059 471.595C517.867 466.994 529.207 466.994 539.016 471.595C543.253 473.687 546.828 476.913 549.334 480.918C551.805 484.939 553.07 489.579 552.984 494.295V494.774C553.132 495.68 552.52 496.536 551.615 496.685C551.433 496.712 551.253 496.712 551.074 496.685H541.289C540.817 496.706 540.35 496.603 539.934 496.378C539.619 496.255 539.408 495.952 539.399 495.612V494.676C539.516 490.722 537.955 486.903 535.098 484.163C531.966 481.34 527.846 479.862 523.632 480.057C519.355 479.858 515.18 481.411 512.07 484.357C509.106 487.378 507.528 491.497 507.715 495.727V525.212C507.534 529.485 509.206 533.631 512.301 536.583C515.555 539.531 519.838 541.083 524.227 540.9C528.281 541.129 532.268 539.796 535.368 537.173C538.153 534.538 539.641 530.816 539.439 526.985V519.781C539.484 519.435 539.24 519.12 538.895 519.074C538.839 519.066 538.786 519.066 538.731 519.074H524.818C523.899 519.212 523.045 518.577 522.907 517.658C522.884 517.495 522.884 517.327 522.907 517.163V509.387C522.77 508.469 523.404 507.614 524.322 507.477C524.486 507.454 524.653 507.454 524.818 507.477H551.113C552.019 507.329 552.876 507.941 553.024 508.846C553.052 509.026 553.052 509.206 553.024 509.387V524.006C553.024 533.052 550.374 540.091 545.074 545.122C539.774 550.153 532.639 552.671 523.671 552.671C518.255 552.769 512.898 551.541 508.059 549.105Z" fill="white"/>
<path d="M621.036 480.884H581.422C581.089 480.825 580.774 481.05 580.715 481.381C580.701 481.45 580.701 481.523 580.715 481.59V503.413C580.669 503.761 580.912 504.075 581.258 504.12C581.314 504.128 581.367 504.128 581.422 504.12H607.831C608.737 503.972 609.593 504.584 609.743 505.49C609.772 505.67 609.772 505.852 609.743 506.031V514.057C609.88 514.976 609.245 515.829 608.327 515.967C608.163 515.99 607.997 515.99 607.831 515.967H581.422C581.089 515.908 580.774 516.131 580.715 516.465C580.701 516.533 580.701 516.606 580.715 516.674V539.187C580.656 539.52 580.88 539.834 581.213 539.894C581.281 539.906 581.354 539.906 581.422 539.894H621.036C621.956 539.755 622.809 540.391 622.948 541.309C622.97 541.474 622.97 541.64 622.948 541.803V549.828C623.095 550.734 622.483 551.59 621.579 551.739C621.397 551.769 621.216 551.769 621.036 551.739H568.886C567.992 551.902 567.137 551.309 566.975 550.417C566.941 550.225 566.941 550.023 566.975 549.828V470.98C566.828 470.075 567.44 469.217 568.344 469.07C568.525 469.04 568.706 469.04 568.886 469.07H621.019C621.937 468.933 622.791 469.567 622.928 470.485C622.953 470.649 622.953 470.816 622.928 470.98V478.988C623.053 479.908 622.408 480.756 621.49 480.88C621.339 480.903 621.184 480.903 621.036 480.884Z" fill="white"/>
<path d="M636.362 549.756V470.985C636.224 470.067 636.858 469.212 637.778 469.075C637.942 469.053 638.108 469.053 638.272 469.075H647.712C648.686 469.001 649.608 469.512 650.063 470.374L683.084 524.38C683.238 524.687 683.41 524.818 683.619 524.725C683.83 524.627 683.906 524.455 683.906 524.152V470.988C683.769 470.07 684.402 469.217 685.322 469.078C685.486 469.056 685.652 469.056 685.816 469.078H695.713C696.633 468.941 697.488 469.575 697.625 470.493C697.648 470.657 697.648 470.824 697.625 470.988V549.759C697.773 550.664 697.16 551.522 696.256 551.669C696.076 551.698 695.894 551.698 695.713 551.669H686.045C685.074 551.752 684.149 551.248 683.693 550.391L650.631 496.079C650.478 495.754 650.287 495.641 650.096 495.717C649.908 495.792 649.81 496.003 649.81 496.311L649.924 549.819C650.072 550.725 649.459 551.581 648.553 551.73C648.375 551.758 648.195 551.758 648.012 551.73H638.248C637.34 551.875 636.488 551.255 636.344 550.349C636.319 550.148 636.325 549.949 636.362 549.756Z" fill="white"/>
<path d="M722.032 549.335C717.833 547.32 714.294 544.151 711.829 540.2C709.345 536.075 708.079 531.331 708.179 526.517V522.043C708.042 521.124 708.675 520.271 709.595 520.133C709.759 520.11 709.925 520.11 710.089 520.133H719.987C720.907 519.995 721.759 520.629 721.897 521.549C721.921 521.713 721.921 521.879 721.897 522.043V526.517C721.743 530.411 723.292 534.177 726.138 536.834C732.587 542.108 741.86 542.108 748.306 536.834C751.159 534.177 752.704 530.408 752.548 526.517V470.983C752.411 470.065 753.046 469.21 753.964 469.073C754.128 469.05 754.296 469.05 754.46 469.073H764.358C765.276 468.936 766.13 469.57 766.268 470.488C766.292 470.652 766.292 470.819 766.268 470.983V526.517C766.368 531.329 765.102 536.075 762.62 540.2C760.153 544.151 756.614 547.32 752.415 549.335C742.774 553.665 731.745 553.665 722.106 549.335H722.032Z" fill="white"/>
<path d="M794.153 549.222C789.704 546.934 786.026 543.384 783.587 539.018C781.038 534.33 779.761 529.062 779.878 523.73V496.918C779.79 491.654 781.108 486.462 783.7 481.879C786.165 477.556 789.829 474.037 794.249 471.75C804.147 466.935 815.71 466.935 825.608 471.75C830.028 474.042 833.698 477.561 836.173 481.879C838.757 486.465 840.075 491.655 839.995 496.918V523.808C840.095 529.153 838.776 534.426 836.173 539.094C833.71 543.447 830.04 546.99 825.608 549.299C815.681 554.089 804.116 554.089 794.19 549.299L794.153 549.222ZM793.734 457.855C790.984 454.847 790.984 450.238 793.734 447.23C795.195 445.901 797.13 445.21 799.103 445.319C801.019 445.217 802.889 445.91 804.283 447.23C806.955 450.268 806.955 454.817 804.283 457.855C802.889 459.174 801.019 459.866 799.103 459.766C797.13 459.875 795.194 459.186 793.734 457.855ZM821.749 536.378C824.813 533.104 826.427 528.728 826.22 524.243V496.804C826.438 492.28 824.825 487.859 821.749 484.533C818.589 481.406 814.265 479.743 809.825 479.946C805.427 479.761 801.149 481.425 798.034 484.533C794.956 487.856 793.345 492.277 793.558 496.804V524.283C793.354 528.765 794.966 533.141 798.034 536.418C801.142 539.539 805.423 541.21 809.825 541.023C814.267 541.229 818.595 539.558 821.749 536.418V536.378ZM815.403 457.855C812.731 454.817 812.731 450.268 815.403 447.23C816.831 445.892 818.745 445.201 820.696 445.319C824.733 445.112 828.175 448.215 828.382 452.255C828.587 456.292 825.485 459.734 821.444 459.941C821.196 459.954 820.946 459.954 820.698 459.941C818.72 460.013 816.802 459.256 815.403 457.855Z" fill="white"/>
<path d="M899.105 550.215L883.646 516.504C883.646 516.181 883.299 516.026 882.824 516.026H869.027C868.68 515.98 868.365 516.224 868.32 516.569C868.312 516.624 868.312 516.676 868.32 516.733V549.754C868.467 550.66 867.855 551.518 866.951 551.665C866.771 551.694 866.59 551.694 866.41 551.665H856.512C855.607 551.814 854.75 551.201 854.601 550.295C854.572 550.116 854.572 549.936 854.601 549.754V470.852C854.453 469.946 855.066 469.088 855.969 468.941C856.15 468.911 856.332 468.911 856.512 468.941H888.463C892.898 468.851 897.279 469.881 901.209 471.941C904.832 473.881 907.816 476.829 909.81 480.424C911.902 484.285 912.956 488.625 912.867 493.019C913.01 497.974 911.541 502.84 908.682 506.893C905.859 510.728 901.816 513.491 897.215 514.728C896.998 514.785 896.82 514.941 896.736 515.149C896.652 515.331 896.709 515.545 896.869 515.665L913.133 549.394L913.362 550.35C913.362 551.207 912.827 551.629 911.718 551.629H901.399C900.4 551.742 899.452 551.158 899.105 550.215ZM868.319 481.418V504.638C868.274 504.984 868.515 505.299 868.862 505.345C868.917 505.353 868.97 505.353 869.026 505.345H886.606C889.977 505.497 893.265 504.292 895.743 501.999C898.083 499.687 899.345 496.497 899.22 493.209C899.548 486.631 894.483 481.033 887.907 480.705C887.475 480.684 887.042 480.685 886.61 480.711H869.028C868.684 480.66 868.364 480.899 868.313 481.242C868.3 481.319 868.302 481.398 868.321 481.475L868.319 481.418Z" fill="white"/>
</svg>
