<?xml version="1.0" encoding="utf-8"?>
<!-- Generator: Adobe Illustrator 24.1.2, SVG Export Plug-In . SVG Version: 6.00 Build 0)  -->
<svg version="1.1" id="Layer_1" xmlns="http://www.w3.org/2000/svg" xmlns:xlink="http://www.w3.org/1999/xlink" x="0px" y="0px"
	 viewBox="0 0 34 46" style="enable-background:new 0 0 34 46;" xml:space="preserve">
<style type="text/css">
	.st0{fill:#3B4850;}
	.st1{fill:#EC6611;}
</style>
<g id="mtd_2">
	<path id="g_3" class="st0" d="M29.5,19.4V8.6h4.1l0,32.9h-4.1v0h0L29.5,19.4L29.5,19.4z"/>
	<path id="g_2" class="st0" d="M23.7,19.4V8.6h4.1v10.9v21.9h-4.1L23.7,19.4L23.7,19.4z"/>
	<path id="g_1" class="st0" d="M22,8.6v10.9v21.9h-4.1V19.4V8.6H22z"/>
	<path id="o_3" class="st1" d="M14.1,0.4c2.1,0,2.1,2.1,2.1,2.1v17v24.1c0,0,0,2.1-2.1,2.1c-2.1,0-2.1-2.1-2.1-2.1V22.4V2.4
		C12.1,2.4,12.1,0.4,14.1,0.4z"/>
	<path id="o_2" class="st1" d="M8.3,4.5c2.1,0,2.1,2.1,2.1,2.1v17v17.9c0,0,0,2.1-2.1,2.1s-2.1-2.1-2.1-2.1v-15V6.5
		C6.3,6.5,6.3,4.5,8.3,4.5z"/>
	<path id="o_1" class="st1" d="M2.5,8.6c2.1,0,2.1,2.1,2.1,2.1v17v11.7c0,0,0,2.1-2.1,2.1c-2.1,0-2.1-2.1-2.1-2.1v-8.8V10.6
		C0.5,10.6,0.5,8.6,2.5,8.6z"/>
</g>
</svg>
