<?xml version="1.0" encoding="utf-8"?>
<!-- Generator: Adobe Illustrator 24.1.2, SVG Export Plug-In . SVG Version: 6.00 Build 0)  -->
<svg version="1.1" id="Layer_1" xmlns="http://www.w3.org/2000/svg" xmlns:xlink="http://www.w3.org/1999/xlink" x="0px" y="0px"
	 viewBox="0 0 68.5 95.9" style="enable-background:new 0 0 68.5 95.9;" xml:space="preserve">
<style type="text/css">
	.st0{fill:#FFFFFF;}
	.st1{fill:#CC8C46;}
	.st2{fill:#BC7A39;}
	.st3{fill:#D89C55;}
	.st4{fill:#E8B470;}
	.st5{fill:#F2C38B;}
	.st6{fill:#E0E0E0;}
	.st7{fill:#000206;}
	.st8{fill:#333333;}
	.st9{fill:#FFAD97;}
	.st10{fill:#1E1E1E;}
	.st11{fill:#C1C1C1;}
	.st12{fill:#FFC5B3;}
	.st13{fill:#DDDDDD;}
</style>
<ellipse class="st0" cx="34.2" cy="81" rx="34.2" ry="14.9"/>
<g>
	<g>
		<g>
			<polygon class="st1" points="30.8,17 44.8,28.9 44.8,74.4 30.8,66.4 			"/>
			<polygon class="st2" points="30.8,24.9 30.8,66.4 12.7,76.9 12.7,35.3 			"/>
			<polygon class="st3" points="23.8,41.1 47.6,27.3 47.6,72.7 44.8,74.4 44.8,32.9 26.7,43.3 26.7,84.9 23.8,86.5 			"/>
			<polygon class="st1" points="9.8,29.1 23.8,41.1 23.8,86.5 9.8,78.5 			"/>
			<g>
				<polygon class="st4" points="9.8,29.1 13.9,26.8 42.5,30.2 23.8,41.1 				"/>
				<polygon class="st5" points="33.5,15.4 47.6,27.3 42.5,30.2 13.9,26.8 				"/>
			</g>
		</g>
		<g>
			<polygon class="st0" points="19.2,21.8 28.2,16.6 40.3,26.9 31.1,32 			"/>
			<polygon class="st6" points="20.8,21.8 28.1,17.4 31.2,20 23.7,24.4 			"/>
			<polygon class="st6" points="24.3,24.8 31.7,20.4 32.4,21 25,25.4 			"/>
			<polygon class="st6" points="25.8,26.1 33.1,21.7 33.9,22.3 26.5,26.7 			"/>
			<polygon class="st6" points="27.2,27.3 34.6,22.9 35.4,23.6 28,27.9 			"/>
			<polygon class="st6" points="28.7,28.6 36.1,24.2 36.8,24.8 29.4,29.2 			"/>
			<polygon class="st6" points="30.2,30 37.5,25.6 38.3,26.2 30.9,30.6 			"/>
		</g>
		<g>
			<polygon class="st0" points="16.2,26.5 25.2,21.2 37.3,31.6 28.1,36.7 			"/>
			<polygon class="st6" points="17.7,26.5 25.1,22.1 28.1,24.7 20.7,29 			"/>
			<polygon class="st6" points="21.3,29.4 28.7,25.1 29.4,25.7 22,30.1 			"/>
			<polygon class="st6" points="22.8,30.7 30.1,26.4 30.9,27 23.5,31.4 			"/>
			<polygon class="st6" points="24.2,32 31.6,27.6 32.3,28.2 25,32.6 			"/>
			<polygon class="st6" points="25.7,33.3 33.1,28.9 33.8,29.5 26.4,33.9 			"/>
			<polygon class="st6" points="27.2,34.6 34.5,30.3 35.3,30.9 27.9,35.3 			"/>
		</g>
		<g>
			<path class="st7" d="M19.1,34.3c0.2,0.6,1,1,1.9,0.7c0.9-0.3,1.4-1,1.2-1.6s-1-1-1.9-0.7C19.5,33,18.9,33.7,19.1,34.3z"/>
			
				<rect x="21.9" y="33.2" transform="matrix(-1 -1.224647e-16 1.224647e-16 -1 44.2167 66.837)" class="st7" width="0.4" height="0.4"/>
			
				<rect x="19.1" y="33.7" transform="matrix(-1 -1.224647e-16 1.224647e-16 -1 38.62 67.7705)" class="st7" width="0.4" height="0.4"/>
			<path class="st8" d="M19.1,33.9c0.2,0.6,1,1,1.9,0.7c0.9-0.3,1.4-1,1.2-1.6c-0.2-0.6-1-1-1.9-0.7C19.5,32.5,18.9,33.3,19.1,33.9z
				"/>
			<path class="st7" d="M20.5,33.5c0,0.1,0.2,0.2,0.4,0.1c0.2,0,0.3-0.2,0.2-0.3c0-0.1-0.2-0.2-0.4-0.1
				C20.5,33.2,20.4,33.3,20.5,33.5z"/>
			<g>
				<path class="st7" d="M21.1,33.3c0,0,0-5.1,0-7.8c0-2.7,0.3-4.2,1.2-5.1c0.9-1,3.9-2.7,3.9-2.8l-0.3-0.5
					c-0.1,0.1-3.1,1.8-4.1,2.9c-1,1.1-1.3,2.6-1.3,5.5c0,2.7,0,7.7,0,7.8L21.1,33.3z"/>
			</g>
			<path class="st7" d="M25.5,17.6c0.2,0.4,0.9,0.4,1.4,0.1c0.6-0.3,0.9-0.9,0.7-1.3c-0.2-0.4-0.9-0.4-1.4-0.1
				C25.6,16.7,25.3,17.2,25.5,17.6z"/>
		</g>
	</g>
	<g>
		<path class="st9" d="M45.7,16.3c0,0-2.3-1.2-3.8-0.9c-1.5,0.3-0.5,3.4,1.9,4.4C46.2,20.8,45.7,16.3,45.7,16.3z"/>
		<path class="st10" d="M40.4,86.1c0,0-4.2-1.9-6.3-2c-2.1-0.1-2.3,2.3,0,4.2c2.3,1.9,4,2.1,5.9,2.9c1.7,0.7,2.3,0.7,3.6-0.1
			c1.8-1.2,0.4-4.2,0.4-4.2L40.4,86.1z"/>
		<path class="st10" d="M52.6,78.9c0,0-3.3-1.4-5.4-1.5c-2.1-0.1-2.8,1.7-0.5,3.6c2.3,1.9,3.7,2.3,5.6,3.1c1.7,0.7,2.3,0.7,3.6-0.1
			c1.8-1.2,0.4-4.2,0.4-4.2L52.6,78.9z"/>
		<path d="M40,38.6c-2,6.5-3.5,18.8-3.5,25c0,11,0.1,22.5,0.1,22.5s1.8,1.9,3.6,1.9c4,0,4.4-2,4.4-2s0.1-13.1,0.4-19
			c0.2-4.1,0.5-9.9,2.1-14.7c0,4.9,0,6.5,0.4,11.9c0.3,4,1.9,14.6,2,15.3c1.3,1.5,5.2,2.6,7.1,0.3c-0.2-1.7-1.3-14-1.1-20.4
			c0.1-5.8,1.6-19.7-1.7-22.4C51,34.6,42.3,35.9,40,38.6z"/>
		<path class="st11" d="M54.2,15.7c2.5,2.4,4.4,8.5,1.1,14.9c-2.1,4.1-3.8-9.5-3.8-9.5l-1.9-6.2C49.6,14.9,52.1,13.7,54.2,15.7z"/>
		<path class="st12" d="M45,1.4c2.7-0.5,6.2,1.1,6.8,4.3c-0.4,4.7-1.6,4.7-1.8,7.4c-0.1,2.2,0.6,3.4,0.6,3.4s0,0-1.9,0.8
			c-1.9,0.8-3.8,0-3.8,0L45,14c0,0-2-0.3-2.4-0.6c-0.8-0.8-1.6-3.5-1.2-6.5C41.9,2.5,43.3,1.7,45,1.4z"/>
		<path class="st13" d="M40.7,27.8c-1.1-2.3-0.2-7,0.5-8.5c0.7-1.5,3.6-2.8,3.6-2.8l6.8-1c0,0,4.1,2.4,4.5,5.4
			c0.3,2.2,0,9.1-0.1,14.6c-0.1,3.7,0.6,4.7-0.9,6.3c-2.4,2.5-7.2,2.9-10.4,2.9c-2.2,0-5-2.1-6.2-3.6C37.2,39.4,43,32.6,40.7,27.8z"
			/>
		<path class="st11" d="M44.9,15.5c0,0,2.7,0.8,4.3-0.4c2.3-1.8,2.5,0.6,2.5,0.6s-1,1.4-2.8,2c-1.9,0.6-3.6,0.5-5.5-0.4
			C43.4,16.1,44.9,15.5,44.9,15.5z"/>
		<path class="st12" d="M28.5,21.3c0.2,0.1,1.3,0.5,1.7,0.6c0.8,0.2,1-1.6,1.2-1.7c0.9-0.5,0.4,1.9,0.8,2.7c0.5,1.1,1.5,1.9,1.5,1.9
			l-1.7,1.4c0,0-4.2-0.3-6.4-2.5C23.4,21.4,27.2,20.9,28.5,21.3z"/>
		<path class="st13" d="M33.1,24L33.1,24c-0.5-0.3-1.2-0.5-2.1,0.3c-0.9,0.8-0.8,1.6-0.5,2.1c0,0,1.1,2.8,1.8,2.2l2.2-2.2
			C35.1,25.8,33.8,24.5,33.1,24z"/>
		<path class="st11" d="M33.2,24.4c1.7,0.3,3.4,1.9,4.7,3c1-4.4,2-7.8,4.1-8.5c1.2-0.4,3.7,2.3,3.4,5.2c-0.4,3.8-2.1,7-4.1,10
			c-0.9,1.6-1.6,2-4.8,0.3c-2.5-1.3-5.1-5-5.9-6.8C30,26.4,31.6,24.1,33.2,24.4z"/>
		<path class="st3" d="M40,2.1c0,0,0.7,2.2,2.5,4c1.1,1,3.1,3.9,3.7,5.5c0.4,1.2,0.6,1.1,1.1,1.8c0.4,0.6,1.9,1.4,1.9,1.4
			s1.7-1.6,2.6-4.2C52.6,8,53.4,3.2,52,1.9c-1.9-1.7-4.5-2.2-6.8-1.7c-0.9,0.2-3.5,1-4.6,1.1c0.3,0.3,0.4,0.3,1.2,0.5
			C41.4,2.1,40.9,2.1,40,2.1z"/>
		<path class="st12" d="M44.1,8.4c0,0,0.6-0.7,1.3-0.2c0.8,0.5,0.7,2-0.4,2.6C43.9,11.5,44.1,8.4,44.1,8.4z"/>
	</g>
</g>
</svg>
