<?xml version="1.0" encoding="utf-8"?>
<!-- Generator: Adobe Illustrator 24.1.2, SVG Export Plug-In . SVG Version: 6.00 Build 0)  -->
<svg version="1.1" id="Layer_1" xmlns="http://www.w3.org/2000/svg" xmlns:xlink="http://www.w3.org/1999/xlink" x="0px" y="0px"
	 viewBox="0 0 87.8 99.6" style="enable-background:new 0 0 87.8 99.6;" xml:space="preserve">
<style type="text/css">
	.st0{fill:#FFFFFF;}
	.st1{fill:#FF984A;}
	.st2{fill:#FFAE80;}
	.st3{fill:#FFBB7D;}
	.st4{opacity:0.5;fill:#FF984A;}
	.st5{fill:#0B1017;}
	.st6{fill:#F4F4F4;}
	.st7{fill:#EDEDED;}
	.st8{opacity:0.15;fill:#1D1D1B;}
	.st9{opacity:0.15;}
	.st10{opacity:0.1;fill:#1D1D1B;}
	.st11{opacity:0.5;fill:#FFAE80;}
	.st12{fill:#FFC197;}
	.st13{fill:#9B9B9B;}
	.st14{fill:#A8A8A8;}
	.st15{fill:#AFAFAF;}
	.st16{fill:#FFD5B8;}
</style>
<ellipse class="st0" cx="23.3" cy="92" rx="23.3" ry="7.5"/>
<ellipse class="st0" cx="64.5" cy="76.1" rx="23.3" ry="7.5"/>
<g>
	<g>
		<g>
			<path class="st1" d="M70.4,79.9c-2.5-0.2-1.9-4.4-1.3-6.6c0.2-0.8,1.2-1.2,2-1c0.8,0.3,1.3,1.8,1.3,2.7
				C72.5,75.8,73.4,80.1,70.4,79.9z"/>
			<path class="st2" d="M69.1,75.6c-0.4-3.5,3.5-3.8,2.9,0c-0.1,1-0.8,1.8-1.4,1.8C69.6,77.4,69.2,76.3,69.1,75.6z"/>
			<g>
				<g>
					<path class="st2" d="M57.6,74.2c-1.1,0.9-2.4,1.3-3.8,1.3c-0.2,0-0.4,0-0.5-0.2c-0.2-0.2-0.1-0.6,0.1-0.8
						c1.2-2,3.6-3.8,4.6-5.9c0.1-0.2,0.2-0.5,0.4-0.7c0.3-0.3,0.8-0.2,1.2-0.3c0.4-0.1,0.8-0.3,1.1-0.1c0.3,0.2,0.4,0.6,0.5,0.9
						c0.1,0.4,0.3,1.3,0.4,1.6c0.1,0.4,0.2,0.8,0.1,1.1c-0.1,0.5-0.5,0.8-0.9,1c-0.4,0.2-0.8,0.3-1.2,0.6
						C58.8,73,58.2,73.7,57.6,74.2z"/>
					<path class="st1" d="M53.3,75.3c0.1,0.1,0.3,0.2,0.5,0.2c1.4,0,2.7-0.4,3.8-1.3c0.6-0.5,1.2-1.1,1.9-1.5
						c0.4-0.2,0.8-0.4,1.2-0.6c0.4-0.2,0.8-0.6,0.9-1c0.1-0.4,0-0.8-0.1-1.1c-0.1-0.3-0.2-1.2-0.3-1.5c0,0,0-0.1,0-0.1
						c-0.1-0.3-0.2-0.8-0.5-0.9c-0.3-0.2-0.7,0.1-1.1,0.1c-0.4,0.1-0.8,0-1.2,0.3c-0.2,0.2-0.3,0.4-0.4,0.7c-0.4,0.9-1,1.5-1.7,2.2
						c-1,1-2.2,2.5-2.9,3.7C53.3,74.7,53.1,75.1,53.3,75.3z"/>
					<path class="st2" d="M55.6,71.9c0,0.1,0,0.3,0.1,0.4c0.1,0.1,0.2,0.1,0.3,0.1c1.2-0.1,2.3-0.8,3.2-1.6c0.5-0.4,1-0.8,1.3-1.3
						c0.2-0.3,0.4-0.6,0.6-1c0,0,0-0.1,0-0.1c-0.1-0.3-0.1-1.1-0.4-1.2c-0.3-0.2-0.8,0-1.1,0.1c-0.4,0.1-1-0.1-1.3,0.1
						c-0.2,0.2-0.1,0.7-0.2,1c-0.4,0.9-1.1,1.8-1.7,2.4c-0.2,0.3-0.4,0.6-0.6,0.8C55.7,71.7,55.6,71.8,55.6,71.9z"/>
				</g>
				<path class="st2" d="M56.7,47.4c0,0.6,0.1,1.2,0.1,1.9c0,0.7,0.1,1.4,0.1,2.2c0,0.6,0.1,1.3,0.1,1.9c0.4,6.6,1,14.9,1,15
					c0,0,0,0,0,0c0.6,1.1,2.9,1.4,3.1,0c0.2-4.4,1-8.2,1.6-11.7c0.2-1.2,0.3-2.4,0.4-3.5c0.1-1,0.1-1.9,0.1-2.8v-0.1
					c0-0.8-0.1-1.6-0.2-2.4c0-0.2-0.1-0.5-0.1-0.7l-5.1-3.3C57.9,43.9,56.7,47.2,56.7,47.4z"/>
			</g>
			<g>
				<g>
					<path class="st2" d="M62.7,40.1c0.8,4.3,1.3,7.8,1.8,10.4c0,0.2,0.1,0.4,0.1,0.6c0.2,1,0.4,1.9,0.7,2.6
						c0.1,0.2,0.1,0.3,0.2,0.5l0.4,2l0.2,0.9l3.3,15.7l0.1,0.6l0.1,0.5c0,1.2,1.9,0.8,2-0.2c0-0.1,0-0.2,0-0.2
						c0-0.2,0.1-0.5,0.1-0.7c1-9.5,0.7-13.3,0.1-16.9c-0.1-0.5-0.2-0.9-0.3-1.4c-0.1-0.7-0.3-1.3-0.4-2.1c0-0.2,0.1-0.5,0.1-0.7
						c0-0.1,0-0.1,0-0.2c0,0,0-0.1,0-0.1c0.6-4.9,0.4-8.7,0.3-11.3H62.7z"/>
				</g>
				<g>
					<path class="st3" d="M62.7,40.1c0.8,4.3,1.3,7.8,1.8,10.4c0,0.2,0.1,0.4,0.1,0.6c0.2,1,0.4,1.9,0.7,2.6
						c0.1,0.2,0.1,0.3,0.2,0.5l0.4,2l0.2,0.9l3.3,15.7l0.1,0.6l0.1,0.5c0,1.2,1.9,0.8,2-0.2c0-0.1,0-0.2,0-0.2
						c0-0.2,0.1-0.5,0.1-0.7c1-9.5,0.7-13.3,0.1-16.9c-0.1-0.5-0.2-0.9-0.3-1.4c-0.1-0.7-0.3-1.3-0.4-2.1c0-0.2,0.1-0.5,0.1-0.7
						c0-0.1,0-0.1,0-0.2c0,0,0-0.1,0-0.1c0.6-4.9,0.4-8.7,0.3-11.3H62.7z"/>
				</g>
			</g>
		</g>
		<path class="st2" d="M64.6,50.5c0,0.2,0.1,0.4,0.1,0.6c0.2,1,0.4,1.9,0.7,2.6c0.1,0.2,0.1,0.3,0.2,0.5l0.4,2l0.2,0.9
			c1.9,0,3.8-0.3,5.7-1.3c-0.1-0.5-0.2-0.9-0.3-1.4c-0.1-0.7-0.3-1.3-0.4-2.1c0-0.2,0.1-0.5,0.1-0.7c0-0.1,0-0.1,0-0.2L64.6,50.5z"
			/>
		<path class="st2" d="M56.9,49.3c0,0.7,0.1,1.4,0.1,2.2c0,0.6,0.1,1.3,0.1,1.9c1.3,1.4,3.3,2.6,5.6,3.3c0.2-1.2,0.3-2.4,0.4-3.5
			c0.1-1,0.1-1.9,0.1-2.8L56.9,49.3z"/>
		<path class="st1" d="M57,51c0.8,2.1,11.2,6.3,14.6,3l1-14.5c0.9-4.8,0.1-7.2-2.4-9.5c-0.3-0.3-0.6-0.5-1-0.8L61.8,29L59,28.9
			C56.5,36.8,56.4,45.5,57,51z"/>
		<path class="st4" d="M59,28.9c0.7,1.7,1.6,3,3.5,3.5c1.9,0.5,5.6,0.1,7.7-2.2c2.5,2.3,3.3,4.7,2.4,9.5l-1,14.5
			c-0.3,0.3-0.8,0.6-1.6,0.9c0.7-5.1-0.1-16.7-1.2-20.7c-6.1,0.2-8.7-1.2-10.1-4.6L59,28.9z"/>
		<circle class="st5" cx="68.9" cy="7.7" r="3.1"/>
		<path class="st6" d="M44.5,26.2l1,1.8c0.4-0.1,0.7-0.2,1.1-0.3c3.3-1,6.6-2.6,9.8-4.5l5.2-6.4l0.9-1.1l-0.8-7.3
			c-2,0-5,5.6-8.2,11.6L44.5,26.2z"/>
		<path class="st7" d="M46.6,27.7c3.3-1,6.6-2.6,9.8-4.5l5.2-6.4c-0.3-0.7-0.8-2.2-0.8-2c0.1,0.4-5,7.5-5,7.9L46.6,27.7z"/>
		<path class="st2" d="M38.8,31.1c-0.1,0.4,0,0.6,0.6,0.4l0.4-0.2c-0.1,0.2,0,0.3,0.3,0.2c0,0,0.1,0,0.1,0l4.9-2.5
			c0.5-0.3,0.7-0.6,0.8-1c0.1-0.4,0.1-0.8-0.1-1.3c0,0-1-2-3.4,0.1c-1.3,1.1-2.1,1.8-2.6,2.1c0,0-0.1,0.1-0.1,0.1
			c-0.3,0.2-0.4,0.3-0.4,0.3c-0.3,0.4-0.3,0.6,0,0.7l-0.5,0.4C38.5,30.9,38.5,31,38.8,31.1z"/>
		<path class="st8" d="M39.7,29.2c0,0,0.4,2.4,0.4,2.4c0,0,0.1,0,0.1,0l4.9-2.5c0.5-0.3,0.7-0.6,0.8-1c-1,0.4-1.5-0.3-2-0.9
			c-0.5-0.8-3.5,1.4-4.1,1.9C39.8,29.1,39.7,29.2,39.7,29.2z"/>
		<polygon class="st7" points="42.3,20.8 44.7,34.7 37.5,39.1 35,24.6 		"/>
		<path class="st2" d="M45.4,27.8c0,0-0.9,0.9-2.4,0.4l-1.5,0.4c-1,0.2-0.9-0.6-0.2-0.8c0,0,2.2-0.9,2.8-1.6L45.4,27.8z"/>
		<path class="st6" d="M55.9,21.5c0,1.5,1.4,2.8,3.2,2.6c0,0.1,0,0.3,0,0.4c0,0.9,0.2,2,0.2,3c0,0.1,0,0.2,0,0.3
			c0,0.3,0,0.5-0.1,0.8c0,0.1-0.1,0.2-0.1,0.3c0.7,1.7,1.7,3,3.6,3.5c0.5,0.1,1.1,0.2,1.7,0.2c2,0,4.5-0.7,6.1-2.4
			c-0.4-2.7,0.5-6.1,1.5-8.9c0.7-2.2,1.5-4.1,1.7-5c-1.7-2.2-3.8-4-6-5.5s-3.2-3.5-5.8-2.6c-2.5,0.9-2.8,6-3.8,8
			C57.1,18.1,55.9,19.4,55.9,21.5z"/>
		<path class="st0" d="M59.1,28.5c0,0.1-0.1,0.2-0.1,0.3c1,2.8,2.8,4,5.3,3.7c2,0,4.5-0.7,6.1-2.4c-0.4-2.7,0.5-6.1,1.5-8.9
			l-2.3-0.6l-2.5,4c-1.9,3.3-7,2.6-7.2-0.7L59,24.2c0,0.1,0,0.2,0,0.3c0,1.3,0.2,2.2,0.2,3c0,0.1,0,0.2,0,0.3
			C59.2,28,59.2,28.3,59.1,28.5z"/>
		<g>
			<path class="st6" d="M73.6,16.2c2.1,3.6,3.3,7.8,3.6,12.3c0.6,3.3,0,9.3-1.5,12.5c-0.4-0.5-1-0.7-2.1-0.5c-0.2-4.4-0.5-8.7,0-11
				l-3.3-7.3C68,17.1,71.7,13.8,73.6,16.2z"/>
			<path class="st2" d="M69.5,43.9c0.2,0.1,0.5,0.1,0.7-0.1c0.6-0.6,1.1-1,1.9-0.8c0.1,0.2,0.1,0.6,0.1,1l0,0.1
				c-0.2,0.8-0.8,1.9-1.3,3c-0.1,0.2,0,0.3,0.1,0.4c0.1,0.1,0.3,0.1,0.5,0c0,0.3,0.4,0.4,0.6,0.1l0.4-0.4c0,0.3,0.5,0.2,0.6,0
				l0.7-0.9c0.5-0.5,0.9-1.1,1.3-1.7c0-0.1,0.1-0.2,0.1-0.3c0.3-1.1,0.5-2.2,0.5-3.2c-0.3-0.9-1.1-1-2.1-0.5l-1.2,0.6
				c-1.2,0.6-1.7,1.4-3,2.4C69.3,43.6,69.4,43.8,69.5,43.9z"/>
			<path class="st9" d="M70.9,47.4c0.1,0.1,0.3,0.1,0.5,0c0,0.3,0.4,0.4,0.6,0.1l0.4-0.4c0,0.3,0.5,0.2,0.6,0l0.7-0.9
				c0.5-0.5,0.9-1.1,1.3-1.7c-0.6,0.2-1.2,0.1-1.8-0.3C72.7,45.5,71.7,47.2,70.9,47.4z"/>
			<path class="st9" d="M69.5,43.9c0.2,0.1,0.4,0.1,0.7-0.1c0.6-0.6,1.1-1,1.9-0.8c0.1,0.2,0.1,0.6,0.1,1l0.3-1.3
				C71.2,42.3,70.2,43.6,69.5,43.9z"/>
		</g>
		<path class="st10" d="M57.4,23.9c-0.3-0.2-0.7-0.4-1-0.7C56.7,23.5,57,23.8,57.4,23.9z"/>
		<path class="st2" d="M67.3,7.4c0.3,1.2,0.6,2.8,1.1,3.9c0.3,1.4-2.3,4.1-3.9,3.9c-1.2-0.2-1.2-2.5-1.3-3.9L67.3,7.4z"/>
		<path class="st11" d="M67,7.4c0,3.9-1.8,9.6-4.2,8.6c-1.7-0.7,0-3.6,0-6.3L67,7.4z"/>
		<g>
			<path class="st2" d="M66.9,9.3c-1.2,1.5-2.5,2.8-4.6,2.4c-0.8-0.1-1.5-1.3-1.4-5.9c0-1.6,0.9-3.4,1.6-4.3c1-1.2,2.8-1.7,4.4-1.3
				c2.4,0.5,3.5,2.4,3.2,4.7C69.6,8,68.3,9.2,66.9,9.3z"/>
			<path class="st5" d="M67.7,9c0,0-0.5-0.1-1-0.9c-0.5-0.7-0.5-1.6-0.6-2.6c-2.2-0.2-4.5-1.8-4.5-2.5c0.1-1,0.7-1.9,2.6-2.7
				c2.1-0.8,3.9-0.3,5.3,1.3c2.3,2.5,0.2,6.9-1.7,7.7L67.7,9z"/>
			<path class="st2" d="M67.2,8.4c0.1-0.2,0.3-0.5,0.5-0.6c0.2-0.2,0.5-0.3,0.8-0.3c0.1,0,0.1,0,0.2,0.1c0.1,0.1,0.2,0.3,0.2,0.4
				c0,0.2,0,0.3-0.1,0.5c-0.1,0.3-0.3,0.6-0.5,0.8c-0.2,0.2-0.5,0.4-0.9,0.4c-0.1,0-0.3,0-0.3-0.1c-0.1-0.1-0.1-0.2-0.1-0.3
				C66.8,8.9,67,8.6,67.2,8.4z"/>
		</g>
	</g>
	<polygon class="st2" points="33.9,31.2 33.9,33.6 37.5,33.5 37,30.6 	"/>
	<path class="st2" d="M35.7,29.5l1.4-0.8l1.9,1.1c0.5,0.3,0.6,1-0.1,0.8l-1.3-0.3c0.1,0.9-0.1,1.2-0.6,1.8l-0.7,0.6l-2.3,0l-0.3-1.4
		L35.7,29.5z"/>
	<path class="st12" d="M27.3,31.6l6.6-0.5c1.2,0.5,1.4,1.9,0.9,3l-6,2.5L27.3,31.6z"/>
	<g>
		<path class="st5" d="M34.1,90.5c0-1.3-1-1.8-2.5-1.9c-1.3,0-3,0.6-5.3,1.1l-2.6,1.4c-0.5,1.3-0.5,2.5-0.2,3.6
			c0.7,0.6,1.7,1,2.5,0.8l2.9-1.2l0.2-0.4C31.5,93.5,34.1,92.5,34.1,90.5z"/>
		<path class="st5" d="M24.6,85.3c0-1.1-0.9-1.2-2.4-1.3c-2.5,0-2.7,1.3-5,1.2L15,86.6c-0.5,1.3-0.4,2.8-0.1,3.9
			c0.7,0.6,1.8,0.7,2.6,0.6l2.4-1.4l0.2-0.4C22.2,88.9,24.6,87.3,24.6,85.3z"/>
		<path class="st13" d="M16.3,49.4l8.5,3.5c0,1.5,0,2.9-0.2,4c-0.5,3.9-2.1,9.8-2.1,9.8c-1.1,5-1.6,11.2-1.9,17.8
			c0,2.4-3.6,4.4-5.8,2.2c-0.6-8-0.6-15.8,1.2-20.9c-0.9-4.1-0.1-8.6,0.2-13.3C16,52.4,16.5,49.5,16.3,49.4z"/>
		<path class="st14" d="M22.6,57.8c0,4.7,0,8.5,1.1,12.5c-1.6,5.1-1.2,12.8-0.1,20.8c1.4,1.5,3.4,1.5,4.6,0.6
			c0.8-0.6,1.3-1.5,1.1-2.7l0.9-17.8c0,0,1.2-5.9,1.6-9.8c0.3-3.9-1.1-12.8-1.1-12.8c-0.8,0.2-1.5,0.4-2.3,0.4
			c-5,0.6-9.7-1.2-11.1-4c-0.1,0.2-0.1,0.4-0.2,0.6c-0.5,1.7-0.9,3.5-0.9,5.4C16,55.2,20,56.7,22.6,57.8z"/>
		<path class="st0" d="M31.8,33.8c-0.4,2.6-0.4,5.1-0.5,7.5c0,0.9,0,1.8-0.1,2.7c-0.1,1.7-0.2,3.3-0.6,4.7c-0.7,0.3-1.4,0.6-2.1,0.8
			c-4.4,1.4-8.3,0.7-11.5-3.8c-0.7-1.9-2.8-8.1-3.4-14.7c0-3,1-5.1,3.5-5.8c4.5,1.1,9.1,3.9,13.8,7.9C31.3,33.3,31.5,33.5,31.8,33.8
			z"/>
		<path class="st2" d="M26.9,25.5l-0.4,4.1c-2.6,0-6.8-1.8-6.2-3.3l1.4-2.7L26.9,25.5z"/>
		<path class="st2" d="M28.2,26c-1,1.2-2.6,1-4.2,0.6c-2.3-1.1-4-2.7-3.8-5.8c-0.2-2.2,0.8-4.5,4.6-4.4c2.4,0.1,4.5,1,4.6,3.5
			C29.4,20,29.5,24.8,28.2,26z"/>
		<path class="st1" d="M26.7,28.2l1,2.2c-4.5-0.5-8.6-2.2-7.6-4.3l0.8-1C20.3,26.6,24.7,28.4,26.7,28.2z"/>
		<path class="st5" d="M29.3,19.3c-0.2,0.9-0.8,1.6-1.5,2.1c0,0,0.2,2,0.1,2c-0.1,0-1.2,0.9-1.2,0.9L26.2,26
			c-1.8,1.3-4.5,0.3-5.3-0.9c-0.5-0.6-1-3.1-0.9-5.4c0.3-2,1.7-3.9,4.7-4C27.7,15.6,29.6,17.3,29.3,19.3z"/>
		<path class="st2" d="M27.6,23.8c0.3-0.3-0.2-1.1-0.5-1.2c-0.5-0.1-0.7,0.5-0.7,0.9c-0.1,0.5,0,0.9,0.3,1.2c0.3,0.5,0.8,0,0.9-0.4
			C27.6,24.1,27.4,24,27.6,23.8z"/>
		<path class="st15" d="M31.7,61.5c-0.3,3.9-1.6,9.8-1.6,9.8L29.3,89c0.2,1.2-0.3,2.1-1.1,2.7c0.8-7.5,1.1-14.5,0-19.9
			c1.7-6.2,2.4-12.6,0.5-17.4c0-1.9,0.2-3.6-0.2-5c0.7-0.2,1.4-0.5,2.1-0.8C30.7,48.7,32,57.6,31.7,61.5z"/>
		<polygon class="st16" points="26.3,37.5 25.3,50.1 29.8,56.6 30.5,45.8 		"/>
		<path class="st2" d="M34.3,57.7L32,57l-0.1-0.1l-0.1,0.3c-0.1,0.2-0.8,3.9-0.7,3.9c0.1,1,0.6,2,1.2,3l1.9,1.3c0,0,1,0.4,1.1-0.2
			l-0.6-0.9l0.4-1.4l0.3-0.7l0.4,0.9c0.6,1.4,1.6,1.2,1.4,0.6l-0.6-1.3L36,60.2L34.3,57.7z"/>
		<path class="st0" d="M29.9,32.1c2,1.2,2.9,2.1,3,5.9l-0.5,10.5l2.4,9.9c-0.2,1.1-2.6,1.7-3.5,1c-1.6-2.6-2.4-4.9-4.1-9.2
			l-0.9-11.5C26,34.5,25.9,31.5,29.9,32.1z"/>
	</g>
</g>
</svg>
