<?xml version="1.0" encoding="utf-8"?>
<!-- Generator: Adobe Illustrator 24.1.2, SVG Export Plug-In . SVG Version: 6.00 Build 0)  -->
<svg version="1.0" id="Layer_1" xmlns="http://www.w3.org/2000/svg" xmlns:xlink="http://www.w3.org/1999/xlink" x="0px" y="0px"
	 viewBox="0 0 140 92" style="enable-background:new 0 0 140 92;" xml:space="preserve">
<style type="text/css">
	.st0{opacity:0.5;fill:#040404;enable-background:new    ;}
	.st1{fill:#FFFFFF;}
	.st2{fill:#FF984A;}
	.st3{fill:#F4A490;}
	.st4{fill:#FFB9A4;}
	.st5{fill:#FFC9B6;}
	.st6{fill:#FFD8CC;}
	.st7{fill:#FFA364;}
	.st8{fill:#F77B28;}
	.st9{fill:#EF863F;}
	.st10{fill:#FFB27D;}
	.st11{fill:#FFBC8F;}
	.st12{fill:#DB6F26;}
	.st13{fill:#CCBCBC;}
	.st14{fill:#F4EBEA;}
	.st15{fill:#262626;}
	.st16{fill:#060606;}
	.st17{fill:#313131;}
	.st18{fill:none;stroke:#FF984A;stroke-width:0.5;stroke-linecap:round;}
</style>
<path class="st0" d="M53,76.8c-7.4,0-13.4,3.2-13.4,7.1S45.6,91,53,91s13.4-3.2,13.4-7.1C66.3,80,60.4,76.8,53,76.8z"/>
<path class="st0" d="M122.2,62.3L82.9,85L19.2,48.1l39.3-22.7L122.2,62.3z"/>
<path class="st1" d="M120.4,61.3L83,82.9l-60.5-35l37.4-21.6L120.4,61.3z"/>
<path d="M62.3,31L31,49.1l-2-1.2l31.3-18L62.3,31z"/>
<path d="M66.3,33.4l-31.2,18L34,50.8l31.3-18.1L66.3,33.4z"/>
<path d="M68.9,34.8L37.6,52.9l-1-0.6l31.2-18.1L68.9,34.8z"/>
<path d="M71.4,36.3L40.2,54.4l-1.1-0.7l31.3-18L71.4,36.3z"/>
<path d="M63.1,42.8L41.7,55.2l1,0.6l21.5-12.3L63.1,42.8z"/>
<path d="M79.5,41L48.2,59l-1-0.6l31.2-18L79.5,41z"/>
<path d="M82.1,42.4L50.8,60.5l-1.1-0.6L81,41.8L82.1,42.4z"/>
<path d="M77,47.1L52.3,61.3l1.1,0.7l24.7-14.3L77,47.1z"/>
<path d="M90.1,47.1l-31.3,18l-1-0.6l31.2-18L90.1,47.1z"/>
<path d="M92.6,48.6l-31.2,18L60.3,66l31.3-18.1L92.6,48.6z"/>
<path d="M90,65.4l-15.4,8.8l1.1,0.7L91.1,66L90,65.4z"/>
<path d="M87.6,53.2L62.9,67.5l1,0.6l24.8-14.3L87.6,53.2z"/>
<path class="st2" d="M86.7,54.6c-0.1,0.1-2,5.5-2.4,6.8c-0.4,1.3-0.2,2.2-0.2,2.5c0.1,0.4,0.6-0.1,0.8-0.9c0.2-0.8,2.8-8.4,2.8-8.4
	H86.7z"/>
<path class="st3" d="M91.1,50.2c0,0,1.2,1.5,2.7,0.1c0.5-0.5,1.1-2.4,1.1-2.4s2.1-0.3,3.6-1.2c0.8,0.9,1.1,2.6,4,3.2
	c3.5,0.8,0.3-8.2,0.3-8.2l-7.9-0.4l-5,5.5L91.1,50.2z"/>
<path class="st4" d="M86.8,52.3c0,0,2.3,1,3.8,0s1.7-4.7,1.7-4.7s1.6-0.3,2.4-1.2c0.8-1,1.3-1.4,1.3-1.4s1.7,0.9,3.6,0.6
	c0.3,0.6,1.8,3.8,3.3,4.9c1.5,1.1,4.2-8.1,4.2-8.1L97,38.5c0,0-6.2,1.3-6.5,1.7c-0.3,0.4-3.2,5.8-3.2,5.8L86.8,52.3z"/>
<path class="st5" d="M129.2,52.6c-3.4-1.2-6.2-2.6-7.8-4c-2.8-2.5-6.4-6.7-9.7-9.4c-2-1.7-3.5-2.9-4.7-3.7c-2.5-1.5-3.9-0.4-5-0.6
	c-3-0.8-4,0.7-5.1,1.7c-1.5,0-4.9,0.3-5.8,1.6c-1.4,1.9-5.9,4.8-6.2,7.3c-0.4,2.5-0.6,5.1-1.2,7.6c-0.2,0.8-0.5,1.2,0.1,1.3
	c0.1,0,0.8,0,0.9,0c-0.5,0.8-0.7,1.7-0.5,2.5c0.3,1.1,2.4,0.5,3.3,0.7c1.7,0.2,3.5-0.3,5.5,0.4c0.7,0.3,3.1,1,6.6,2.3
	c3.7,1.4,8.5,0.7,11.9-0.3c1.8,1.3,10.1,5,11.9,6C125.5,63.4,129.3,54.3,129.2,52.6z M94.7,43.3c2.6,1.1,5,0.6,5,0.6
	c0.6,1.1,2,2.9,2.2,4c0.4,1.9-0.5,2.8-2.1,3.5c-2,0.9-5.6,1-6.8,0.9c-2.1-0.2-3.4-0.3-4.5,0.2c0.4-0.9,1.3-2.8,1-5.2
	C92.9,46.5,93.7,45,94.7,43.3z"/>
<path class="st4" d="M121.8,62c0,3.5,2.1,5.1,4.7,3.6c2.6-1.5,4.7-5.5,4.7-9s-2.1-5.1-4.7-3.6C123.9,54.5,121.8,58.6,121.8,62z"/>
<path class="st4" d="M114,53.4c0,0-1.4,1-2,2.4c-0.6,1.5,0,2.8,0,2.8s0.2-2,0.6-2.8C113,55.1,114,53.4,114,53.4z"/>
<path class="st6" d="M87.6,54.9c-1.6,0.2-2.7,0.8-2.9,2c-0.2,1.1,1.7,0.7,2.7,0.6C87.8,56.4,87.6,54.9,87.6,54.9z"/>
<path class="st7" d="M139.3,4c-0.2-0.2-0.4-0.4-0.7-0.6c0.3,0,0.6,0,0.9,0c0.1,0,0.2-1-0.1-1.4c-0.4-0.1-0.8-0.2-1.3-0.2
	c0,0,0.4-0.6,0.6-0.8c-0.1-0.2-0.3-0.3-0.5-0.4c-2.3,0.1-4.6,1.4-6.8,2.8c0.6-0.9,1.1-2,1.6-2.9c-0.2,0.1-0.4,0.2-0.6,0.3
	c-0.7,0.4-1,1-1.6,1.5c0.1-0.5,0.2-0.9,0.4-1.5c-1.5,1.2-3.9,3.7-4.8,5.6c-0.2-0.9,0.1-2.3,0.5-3.3c-0.9,0.6-1.7,1.2-2.5,2
	c-0.9,0.9-1.5,2-2.2,3c0.2-1.5,0.4-2.6,0.8-3.5c-1,0.6-2,1.2-2.9,1.8c-0.9,0.7-1.4,1.6-2.1,2.4c0-0.4,0-0.9,0-1.3
	c-0.2,0-0.5,0.1-0.8,0.2c-1.7,2.5-2.9,6-3.3,7.2c-0.8-1.3-0.5-3.1-0.3-4c-1.3,1.9-2.3,4.2-2.9,7.2c-0.7-0.4-1.2-4.7-0.8-5.8
	c-2,2.9-3.5,5.9-4.1,9.4c-0.7-2.6-0.2-5.8,1.1-8.4c-0.6,0.4-1.1,0.8-1.6,1.3c-2.9,2.9-4.3,7.1-5.6,11.1c0-0.6,0-1.2,0.1-1.8
	c0.1-1.1,0.9-5,1.7-6.5c-0.5,0.1-1.2,0.6-1.9,1.2c-1.9,4.2-1.6,8.9-0.4,13.3c-1.3-1.2-2.4-4.2-2.6-6.6c-1.3,2.9-1.8,5.8-1.3,9.1
	c-1.4-1.9-1.9-4.6-1.6-7.4c-0.2,0.4-0.3,0.9-0.4,1.3c-0.9,3.9-1.2,8-0.6,11.6c-1.2-2.3-1.8-5.3-0.5-9.6c0-0.1-0.1-0.1-0.2-0.1
	c-2.8,4.8-1.9,8.6-0.7,12.4c-0.6-0.7-2.4-6.2-2.4-8.4c0-0.1-0.1-0.1-0.1,0c-1,3.9,0.4,7.5,2.6,10.9c0.1,0.2,3,0.4,4.3,0.2
	c1.7-0.3,3.3-0.7,4.8-1.6c0.9-0.6,1.7-1.2,2.4-2c-2.5,0.2-5.8-1.5-6.4-2.5c2.4-0.1,4.9-0.3,7.1-1.1c-1.8,0.2-4.3-1.2-5.2-1.6
	c3.1-0.1,6.1-0.3,9-1.4c0.1-0.2,0.2-0.4,0.3-0.6c-0.6-0.1-2.3-0.4-3.4-0.5c2.4-0.6,4.7-1.6,6.5-3.4c1.7-1.7,2.9-3.7,4.5-5.4
	c0.2-0.2,0.3-0.4,0.5-0.6c-2.1-0.4-5.6-1.2-6.9-1.5c2.8-0.8,5.7-1,7.5-1c-1.7-0.7-4.1-1-5.5-1.5c2.1-0.7,5.4-1,7.4-0.4
	c-1.2-0.9-2.4-1.6-3.7-2.3c1.9,0.4,4.4,0.9,6.3,1.8c0.5-0.5,0.9-0.8,1-0.9c0-0.3-0.7-0.9-0.8-1.1c0.2,0,1.1,0.5,1.2,0.5
	c0.7-0.6,2.9-2.3,3.5-2.7c0.1,0,0.1-0.1,0.2-0.1c-2.2-0.6-4.7-1.7-6.4-2.3c2.4-0.1,5.3-0.1,7.5-0.2c-1.6-0.6-3.4-1.6-4.7-2.3
	c2.9-0.2,5.7,0.5,8.5,0.2c0.7-0.7,1.1-1.2,1.3-1.4c-0.4-0.4-0.8-0.9-1.2-1.3c2.1,0.4,4.4-0.2,6-1.6C138.3,5.8,139.1,4.8,139.3,4z"/>
<path class="st8" d="M127.5,12.9c-2.2,0.2-5,0.2-7.5,0.2c1.8,0.6,4.2,1.7,6.4,2.3c1.5-1.2,3.5-3.2,4.9-4.5c-2.8,0.2-5.7-0.4-8.5-0.2
	C124.2,11.3,125.9,12.3,127.5,12.9z"/>
<path class="st8" d="M118.8,20.3c-2-0.6-5.3-0.3-7.4,0.4c1.5,0.5,3.8,0.8,5.5,1.5c-1.8,0-4.7,0.2-7.5,1c1.3,0.3,4.8,1,6.9,1.5
	c1.5-1.6,3.7-3.6,5-4.8c-1.9-0.9-4.4-1.4-6.3-1.8C116.4,18.7,117.6,19.4,118.8,20.3z"/>
<path class="st9" d="M98.8,36.6c0.9,0.4,3.4,1.7,5.2,1.6c-2.2,0.7-4.7,0.9-7.1,1.1c0.6,1,3.9,2.7,6.4,2.5c1.8-1.9,3.2-4.2,4.5-6.5
	C104.9,36.2,101.9,36.5,98.8,36.6z"/>
<path class="st10" d="M122.3,8c0.7-1,1.3-2.1,2.2-3c0.8-0.8,1.6-1.4,2.5-2c-0.4,1-0.7,2.4-0.5,3.3c0.9-1.8,3.3-4.3,4.8-5.6
	c-1.6-0.1-5.3,2.1-7.5,3.4c-0.2,0.1-0.4,0.2-0.6,0.4C122.7,5.5,122.5,6.6,122.3,8z"/>
<path class="st10" d="M138.2,0.5c-1-0.6-2.7-0.6-3.9-0.4c-0.4,0.1-0.9,0.2-1.3,0.3c-0.5,0.9-1.1,1.9-1.6,2.9
	C133.7,1.9,135.9,0.6,138.2,0.5z"/>
<path class="st10" d="M105.8,21.8c0.6-3.6,2.1-6.5,4.1-9.4c-0.4,1.1,0.1,5.4,0.8,5.8c0.6-3,1.6-5.3,2.9-7.2c-0.1,0.9-0.5,2.7,0.3,4
	c0.4-1.3,1.7-4.7,3.3-7.2c-1.7,0.7-5,2.7-7.2,3.8c-1.1,0.6-2.2,1.2-3.3,1.9C105.6,16,105.1,19.1,105.8,21.8z"/>
<path class="st11" d="M95.5,34.3c-0.5-3.2,0-6.2,1.3-9.1c0.2,2.4,1.3,5.4,2.6,6.6c-1.2-4.3-1.5-9.1,0.4-13.3c-1.5,1.3-3.3,3.2-4.2,5
	c-0.5,1-1.2,2.2-1.6,3.3C93.6,29.7,94.1,32.5,95.5,34.3z"/>
<path class="st2" d="M138.1,1.9c-11.1,3.3-21,10.5-29,18.8c-4.2,4.3-7.9,9-11.3,14c-2.6,3.8-5.3,7.8-7.4,12
	c-0.2,0.5-2.7,5.4-2.8,6.3c0.3,0,0.5-0.2,1.1-0.4c0.2-1,2.2-5.2,2.5-5.7c0.7-1.4,1.4-2.7,2.2-4c1.5-2.7,3.2-5.3,4.9-7.9
	c3.3-4.8,6.9-9.4,10.9-13.6c8.3-8.7,18-15.1,29.1-19.4C138.2,2,138.1,1.9,138.1,1.9z"/>
<path class="st1" d="M96.6,23.1c-1.5,2.4-3,5.3-2,8.2h0.1C94.3,28.3,95.4,25.8,96.6,23.1z"/>
<path class="st1" d="M98.1,29.1c-0.4-2.4-0.8-4.8-0.1-7.3c0,0-0.1-0.1-0.1,0C97,24.2,97.3,26.7,98.1,29.1
	C98,29.2,98.1,29.2,98.1,29.1z"/>
<path class="st1" d="M105.3,15.7c0-0.1-0.1-0.2-0.1-0.1c-2.1,3.1-3.3,6.8-3.5,10.5c0,0.1,0.1,0.1,0.1,0
	C102.5,22.5,103.6,19.1,105.3,15.7z"/>
<path class="st1" d="M108.9,12.7C108.9,12.7,108.9,12.6,108.9,12.7c-1.5,1.3-2.6,3.3-2.6,5.3c0,0.1,0.1,0.1,0.1,0
	C107,16,107.6,14.4,108.9,12.7z"/>
<path class="st1" d="M112.6,11.1C112.6,11,112.5,11,112.6,11.1c-1.2,1.2-2,3-2.1,4.7c0,0.1,0.2,0.2,0.2,0
	C111,14,111.5,12.5,112.6,11.1z"/>
<path class="st1" d="M121.8,5.8c-1.2,1.1-2,2.6-2.2,4.3c0,0,0,0.1,0.1,0C120.2,8.5,120.8,7.2,121.8,5.8z"/>
<path class="st1" d="M124.3,4.4c-0.6,0.6-1.2,1.4-1.4,2.3c0,0.1,0.1,0.1,0.1,0C123.5,5.9,123.8,5.1,124.3,4.4
	C124.3,4.3,124.4,4.4,124.3,4.4z"/>
<path class="st1" d="M129.2,1.8c-0.9,0.6-1.8,1.4-2.1,2.5c0,0.1,0.1,0.2,0.1,0.1C127.8,3.4,128.4,2.6,129.2,1.8
	C129.2,1.8,129.3,1.8,129.2,1.8z"/>
<path class="st1" d="M135.5,0.5c-0.9,0.2-1.6,0.6-2.2,1.2c0,0,0,0.1,0.1,0.1C133.9,1.3,134.7,0.9,135.5,0.5
	C135.5,0.5,135.5,0.6,135.5,0.5z"/>
<path class="st12" d="M99.8,42.6c-0.7,0.2-1.5,0.4-2.3,0.4s-1.5-0.1-2.3-0.2c-0.2,0-0.3,0.3-0.1,0.3C96.6,43.7,98.5,43.5,99.8,42.6
	C99.8,42.6,99.9,42.6,99.8,42.6z"/>
<path class="st12" d="M109.7,29.8c-0.9,0.3-1.8,0.5-2.7,0.6s-1.8-0.1-2.8-0.1c-0.1,0-0.2,0.1-0.1,0.2c1.7,0.7,4,0.4,5.6-0.5
	C109.9,29.9,109.8,29.8,109.7,29.8z"/>
<path class="st12" d="M109.7,28c-1.4,0.8-3.1,1-4.7,0.8c-0.1,0-0.2,0.2-0.1,0.2c1.7,0.7,3.5,0.2,4.8-0.9
	C109.8,28,109.7,27.9,109.7,28z"/>
<path class="st12" d="M123.1,15.8c-1.8-0.3-3.6-0.4-5.3-0.9c-0.1,0-0.1,0.1,0,0.1c1.4,0.9,3.7,1.1,5.4,1
	C123.2,16,123.2,15.8,123.1,15.8z"/>
<path class="st12" d="M136.1,5.7c-1.3,0.2-2.5,0-3.7,0c-0.1,0-0.1,0.2,0,0.2c1.2,0.5,2.6,0.3,3.8,0C136.3,6,136.3,5.7,136.1,5.7z"/>
<path class="st12" d="M95.4,36.5c-0.3-0.5-0.7-0.9-1-1.4c-0.3-0.6-0.4-1.2-0.4-1.8c0-0.2-0.3-0.3-0.3,0c-0.1,1.1,0.3,3,1.5,3.5
	C95.3,36.8,95.4,36.6,95.4,36.5z"/>
<path class="st12" d="M98.1,32.7c-0.2-0.6-0.5-1.1-0.7-1.7c-0.2-0.7-0.3-1.3-0.4-2c0-0.2-0.3-0.1-0.2,0c0.1,1.2,0.2,3,1.1,3.8
	C98,32.9,98.1,32.8,98.1,32.7z"/>
<path class="st12" d="M104,24.2c0-0.8-0.1-1.6,0.1-2.4c0.1-0.8,0.4-1.5,0.7-2.3c0-0.1,0-0.1-0.1-0.1c-1,1.3-1.3,3.2-0.9,4.8
	C103.8,24.4,104,24.3,104,24.2z"/>
<path class="st13" d="M22.5,47.9l14-8.4c0,0,2.1,5.9-2.6,8.4C29.3,50.4,24.4,48.8,22.5,47.9z"/>
<path class="st14" d="M22.5,47.9c0,0,5.7,1.8,10.2-0.5c0.5-0.3,1.5-1.5,1.8-1.9c2-3.4-1.2-8.4-9.3-6C17.1,41.9,9,38.7,6.3,37.1
	c-4-2.4-6.3-5.2-6.3-5.2L33,13c0,0,13.2,5.1,26.2,5.1c4.2,0,8.3,4.9,7.8,8.2c-0.6,3.6-2.5,5.4-5.6,7.2c-5.8,3.5-19,11.8-28.7,15.6
	C27.6,51.1,22.5,47.9,22.5,47.9z"/>
<path d="M41.8,73.5v9.8c0,3.3,5,6,11.2,6s11.2-2.7,11.2-6v-9.8H41.8z"/>
<path class="st15" d="M53,67.5c-6.2,0-11.2,2.7-11.2,6s5,6,11.2,6s11.2-2.7,11.2-6S59.2,67.5,53,67.5z"/>
<path class="st16" d="M53,67.5c-3.9,0-7.1,1.7-7.1,3.8c0,2.1,3.2,3.8,7.1,3.8s7.1-1.7,7.1-3.8C60.1,69.2,56.9,67.5,53,67.5z"/>
<path d="M48.2,64.7v5.5c0,1.4,2.2,2.6,4.8,2.6c2.7,0,4.8-1.1,4.8-2.6v-5.5H48.2z"/>
<path class="st15" d="M53,61.1c-3.1,0-5.5,1.4-5.5,3.1c0,1.7,2.5,3.1,5.5,3.1c3.1,0,5.5-1.4,5.5-3.1C58.5,62.5,56,61.1,53,61.1z"/>
<path d="M53,65.9c2.2,0,4-1,4-2.2c0-1.2-1.8-2.2-4-2.2s-4,1-4,2.2C49,64.9,50.8,65.9,53,65.9z"/>
<path class="st1" d="M45.2,69.9c-0.9,0.2-1.7,1-2.1,1.7c-0.4,0.7-0.9,2.1-0.4,2.9c0.1,0.2,0.3,0.1,0.3-0.1c0.1-1,0.2-1.8,0.8-2.6
	c0.4-0.6,0.9-1.1,1.5-1.7C45.5,70,45.4,69.9,45.2,69.9z"/>
<path class="st1" d="M42.9,77C42.9,77,42.8,77,42.9,77c-0.4,1.2-0.5,6.3-0.2,7.5c0,0.1,0.2,0.1,0.3,0C43.2,83.3,43.2,78.2,42.9,77z"
	/>
<path class="st17" d="M63.1,82.2c0-0.1-0.2-0.1-0.2,0c0,0.2,0.1,0.5,0.1,0.7c0,0.3-0.1,0.5-0.1,0.7c0,0.2,0.2,0.3,0.3,0.1
	C63.4,83.4,63.4,82.7,63.1,82.2z"/>
<path class="st17" d="M60.9,84.8c-0.1,0-0.1,0.1-0.1,0.2c0.2,0.1,0.4,0.2,0.6,0.4c0.2,0.2,0.3,0.4,0.5,0.6c0.1,0.1,0.4,0,0.3-0.2
	C62,85.2,61.4,84.8,60.9,84.8z"/>
<path d="M62.2,71.4C62.1,71.4,62.1,71.4,62.2,71.4c0,0.3,0.2,0.4,0.3,0.6c0.1,0.2,0.2,0.5,0.3,0.7c0.1,0.2,0.4,0.1,0.4-0.1
	C63.2,72.2,62.7,71.5,62.2,71.4z"/>
<path d="M60.6,72c-0.1,0-0.1,0.2,0,0.2c0.5,0,1,0.1,1.4,0.3c0.1,0,0.2,0,0.3,0l0.1-0.1c0-0.1,0-0.2-0.1-0.3
	C61.8,71.9,61.2,71.9,60.6,72z"/>
<path d="M58.4,76.9c-0.2-0.1-0.4,0.2-0.5,0.3c-0.2,0.2-0.3,0.5-0.4,0.8c-0.1,0.2,0.3,0.4,0.4,0.2c0.1-0.3,0.2-0.6,0.4-0.9
	C58.4,77.2,58.5,76.9,58.4,76.9z"/>
<path d="M60,77.3c-0.2,0-0.3,0.1-0.4,0.2c-0.2,0.1-0.3,0.1-0.5,0.2c0,0-0.4,0.1-0.4,0.2c0.1,0.2,0.5,0.1,0.7,0.1
	c0.3-0.1,0.6-0.2,0.7-0.4C60.1,77.3,60,77.3,60,77.3z"/>
<path class="st17" d="M60.8,86.5c-0.1-0.4-0.4-0.9-0.7-1.1c-0.1-0.1-0.2,0-0.1,0.1c0.1,0.4,0.3,0.8,0.5,1.2
	C60.5,86.8,60.8,86.7,60.8,86.5z"/>
<path class="st17" d="M63.2,77.4c-0.1,0.4-0.3,0.7-0.4,1.1c0,0.1,0,0.1,0,0.2c0,0,0,0,0.1,0c0.1,0,0.2,0,0.2-0.1
	c0.3-0.3,0.3-0.8,0.3-1.2C63.4,77.3,63.2,77.3,63.2,77.4z"/>
<path class="st17" d="M57.1,69.6c0-0.1-0.2-0.1-0.2,0c0,0.3-0.1,0.5-0.1,0.8c-0.1,0.2-0.2,0.4-0.2,0.6c0,0.1,0.1,0.2,0.2,0.1
	C57.1,70.9,57.2,70.1,57.1,69.6z"/>
<path class="st17" d="M56.2,70.6c-0.2,0.2-0.4,0.4-0.7,0.5c-0.2,0.1-0.5,0.2-0.6,0.4c-0.1,0.1,0,0.3,0.1,0.3c0.3,0,0.6-0.2,0.8-0.4
	c0.2-0.2,0.4-0.4,0.5-0.7C56.4,70.6,56.3,70.5,56.2,70.6z"/>
<path class="st17" d="M56.7,67c-0.3,0.2-0.6,0.2-0.9,0.4v0.1c0.3,0.2,0.8,0,1.1-0.2C57,67.2,56.9,66.9,56.7,67z"/>
<path class="st18" d="M76.5,72.2c-0.7-1-1.4-2.1-2-3.2"/>
<path class="st18" d="M74.4,68.8c0.3,0.2,0.7,0.3,1.1,0.4c1,0.2,2,0.3,2.9,0.5"/>
<path class="st18" d="M78.4,69.6c-0.1-0.3-0.3-0.5-0.5-0.7c-0.3-0.3-0.5-0.7-0.8-1.1"/>
<path class="st18" d="M77.1,67.6c1.6,0.5,3.1,1.1,4.7,1.4"/>
<path class="st18" d="M81.3,66.1c0.6,0.6,1.4,1.2,2.1,1.8"/>
<path class="st18" d="M80,66.9c0.4-0.3,0.8-0.7,1.2-0.9c0.6-0.3,1.2-0.7,1.8-0.9"/>
<path class="st18" d="M84.3,64.6c0.4,0.4,0.8,0.8,1.2,1.2c0.3,0.3,0.6,0.7,0.9,1"/>
</svg>
