<?xml version="1.0" encoding="utf-8"?>
<!-- Generator: Adobe Illustrator 24.1.2, SVG Export Plug-In . SVG Version: 6.00 Build 0)  -->
<svg version="1.1" id="Layer_1" xmlns="http://www.w3.org/2000/svg" xmlns:xlink="http://www.w3.org/1999/xlink" x="0px" y="0px"
	 viewBox="0 0 352 711" style="enable-background:new 0 0 352 711;" xml:space="preserve">
<style type="text/css">
	.st0{fill:#FF984A;}
	.st1{fill:#FC9F6A;}
	.st2{fill:#FFAE80;}
	.st3{fill:#656565;}
	.st4{fill:#EA8B49;}
	.st5{opacity:0.5;}
	.st6{fill:#B77649;}
	.st7{fill:#585858;}
	.st8{fill:#DCE1CB;}
	.st9{fill:#373737;}
	.st10{fill:#FFFFFF;}
	.st11{fill:#B34F4F;}
	.st12{fill:#535353;}
	.st13{fill:#333332;}
	.st14{fill:#686868;}
	.st15{fill:#0C0C0C;}
	.st16{clip-path:url(#SVGID_2_);}
</style>
<path d="M150.6,223.2c13.9,2,16.6,18.8,21.8,28.7C192.8,236.4,178.3,205.7,150.6,223.2z"/>
<path class="st0" d="M133.6,544c2.7,6.6,7,12.4,12.4,17c6.8,5.5,13.1,8.9,18.5,8.1c5.2-2,4.9-6.3,2.9-12.3
	c-4.1-6.9-9.9-12.7-16.8-16.9c0,0-8-6.9-8-7.2C142.5,532.5,133.6,544,133.6,544z"/>
<path class="st1" d="M171.3,473.7c-7.8,20.7-16.9,40.9-27.4,60.4c0,0,14.2,12.4,8.4,16.9c-8.7,6.6-19.8-14.3-19.8-14.3L149,479
	L171.3,473.7z"/>
<path class="st0" d="M122.6,554.8l-0.3,0.8c-2.5,0-5.7,8.4-4.6,14.6c3.6,9.8,0,16.9,1.3,27.6c0.2,2.9,1,5.8,2.4,8.3
	c1.5,2.5,3.5,4.7,5.9,6.3c8.7,5.2,15.1,6.1,16.1-1.2c0.8-6,0-12.1-2.3-17.7l-4.1-20.5L122.6,554.8z"/>
<path class="st2" d="M134.9,595.5c-11.9,1.5-13.8-13.1-13.9-26.1c0-3.9,0-7.6,0-10.7c10.5-26.5-8.1-50.3,4.9-73.4l-1.7-9.5
	l-4.3-25.3l30.6-3.7l5.5,28l1.9,16.7c-3.4,22.3-18.3,47.3-21.3,71.1C135.7,573.7,142,594.7,134.9,595.5z"/>
<path class="st2" d="M138.2,489.4c-14.2,11.2-1.6,58.3-17.2,80c0-3.9,0-7.6,0-10.7c10.5-26.5-8.1-50.3,4.9-73.4l-1.7-9.5
	C130.4,481.8,138.2,489.4,138.2,489.4z"/>
<path class="st3" d="M180.6,404.4c0.9,32.7-8.5,37.2-7.7,60c0,1.9-0.2,3.8-0.6,5.6c-0.8,4-2.5,7.8-4.9,11c-2.4,3.3-5.5,6-9,8
	c-0.6,0.3-1.3,0.5-2,0.7c-6.3,1.1-12.7,1.1-18.9,0c-3.1-0.5-6-1.9-8.5-3.8c-2.5-2-4.4-4.6-5.6-7.5c0-24.4-18.1-41.3-20.1-73.2
	c-0.7-6.5-0.1-13,1.8-19.2c1.9-6.2,5.1-12,9.3-16.9h10.7l53.2-0.8L180.6,404.4z"/>
<g>
	<path class="st3" d="M138.2,489.4h-0.7c-3.1-0.5-6-1.9-8.5-3.8c-2.5-2-4.4-4.6-5.6-7.5c0-24.4-18.1-41.3-20.1-73.2
		c-0.7-6.5-0.1-13,1.8-19.2c1.9-6.2,5.1-12,9.3-16.9h10.7l29.6,16C98.9,390.3,131.1,477.8,138.2,489.4z"/>
</g>
<path d="M144.2,235.8c-19.5-1.6-27.6,11.9-29.2,24.1c-1.2,5.5-1.2,11.1,0,16.6c1.2,5.5,3.6,10.6,6.9,15c4.6,5.8,9.7,11.2,15.4,16
	c6.8-31.8-8.7-50.5-2.9-59.9c2.5-3.3,5.9-5.9,9.7-7.4L144.2,235.8z"/>
<path class="st0" d="M114.7,338.2c5.2,11.8,5.4,24.4-2.8,33c9,11.8,27.8,16.5,50.3,12.2c4.1-0.4,7.9-2.1,10.8-5
	c2.9-2.9,4.8-6.7,5.2-10.7c-4.2-11.5-5.4-23.8-3.5-35.8c10.2-0.8,16-6.5,15.9-15.3c-0.1-8.8-6.6-16-9.1-28.8
	c-0.4-1.9-0.6-3.7-0.8-5.6c0-0.4,0-0.9,0-1.3c2.2-11.3-4.5-26.4-12.9-27.7l-28.2,10.7c-12.7,2.8-23.9,11.9-34.7,22.9
	c-0.9,10.1-0.4,20.2,1.6,30.1C108.2,324.4,110.9,331.6,114.7,338.2z"/>
<g>
	<path class="st4" d="M179,367.5c-0.4,4.1-2.3,7.9-5.2,10.8c-2.9,2.9-6.8,4.6-10.9,5c-22.5,4.2-41.3-0.5-50.3-12.3
		c8.1-8.4,8-21.2,2.8-33c-3.9-6.6-6.7-13.8-8.2-21.3l13.1-0.4c8,17.3,11.5,34.1,28.5,31.2c11.7-2.2,15.4-12,12.7-23.9
		c3.4,4.4,8.5,7.3,14.1,8C173.6,343.7,174.8,356,179,367.5z"/>
</g>
<path class="st2" d="M126.9,268.9c3.5-6.1,5.5-13,5.8-20l22.4,1.9l-0.2,16C163.2,289.9,129.1,283.8,126.9,268.9z"/>
<g class="st5">
	<path class="st2" d="M141,254c1.6,13.2,6.3,33,18.2,26.8c6.9-3.7,4.4-14.6,3-24.4L141,254z"/>
</g>
<path class="st2" d="M132.2,253c-12.5-21.1-6.1-39.4,11-43.4c18.7-4.4,31.2,9.1,31.3,25.6c0.5,17.3-3.9,29.6-10.4,30.7
	c-4.3,1.1-8.8,0.6-12.8-1.3c-4-1.9-7.2-5.1-9.1-9.1L132.2,253z"/>
<path d="M129.4,255.9l-0.5,9.2c3.5-9.8,8.6-10.2,9.1-13.1l0.8-5.5l4.9,2.1c10.1,0.5,11.9-17.2,30.8-14.9c1.7-16.9-11-26.2-26.4-26
	c-18.7,1.6-24.7,12.5-24,25.9C123.9,241.3,125.8,249,129.4,255.9z"/>
<path class="st2" d="M143.9,254.3c0.9-2.6,1.2-2.3,0.8-3.5c-1.2-3.4-3.2-5.9-5.3-5.4c-2,0.5-2.9,0.6-3.5,1.9
	c-0.2,0.8-0.3,1.7-0.2,2.5c0.1,0.8,0.4,1.6,0.8,2.4c0.4,1.1,1,2.2,1.8,3.1c0.4,0.5,0.9,0.8,1.4,1c0.5,0.2,1.1,0.3,1.7,0.2
	c0.6-0.1,1.1-0.4,1.6-0.8C143.3,255.4,143.7,254.9,143.9,254.3z"/>
<g>
	<path class="st3" d="M172.4,469.9c-0.8,4-2.5,7.8-4.9,11c-2.4,3.3-5.5,6-9,8c0.7-2.1,1.3-4.3,1.6-6.6c2.1-16-4.5-30.1-1.7-39.4
		c0.7,5.6,2.3,11.1,4.6,16.2C165.3,463.4,168.5,467.1,172.4,469.9z"/>
</g>
<path class="st6" d="M17.6,493l0.4,171.4L97.9,711l-0.5-171.4L17.6,493z"/>
<path class="st0" d="M97.4,539.6L97.9,711l236.5-136.7l-0.4-171.4L97.4,539.6z"/>
<path class="st7" d="M17.6,493l79.7,46.6l236.6-136.7l-79.8-46.6L17.6,493z"/>
<path class="st6" d="M0,489.2l0,17.1l97.5,56.9l0-17.1L0,489.2z"/>
<path class="st6" d="M97.5,546.1l0,17.1l254.4-147l0-17.2L97.5,546.1z"/>
<path class="st8" d="M0,489.2l97.5,56.9l254.4-147l-97.5-56.9L0,489.2z"/>
<path class="st6" d="M31.5,151v335.5c-0.1,0.4-0.3,0.7-0.5,1.1c-0.3,0.3-0.6,0.6-0.9,0.7c-1.1,0.6-2.3,0.8-3.5,0.8
	c-1.2,0-2.4-0.3-3.5-0.8c-0.3-0.2-0.6-0.4-0.9-0.7c-0.2-0.3-0.4-0.7-0.5-1.1V151H31.5z"/>
<path class="st6" d="M250.1,24.9v335.5c-0.2,0.8-0.8,1.4-1.5,1.8c-1.1,0.6-2.3,0.8-3.5,0.8c-1.2,0-2.4-0.3-3.5-0.8
	c-0.4-0.2-0.7-0.4-0.9-0.7c-0.2-0.3-0.4-0.7-0.5-1.1V24.9H250.1z"/>
<path class="st6" d="M260.6,0l8.9,5.2l0.3,104.3l-254.4,147l-8.9-5.2L6.1,147L260.6,0z"/>
<path class="st9" d="M15.1,152.2l0.3,104.3l254.4-147L269.5,5.2L15.1,152.2z"/>
<path class="st0" d="M15.1,152.2l0.3,104.3l254.4-147L269.5,5.2L15.1,152.2z"/>
<path class="st10" d="M36.1,164.3l0.1,21.1l149.2-86.2l-0.2-21L36.1,164.3z"/>
<path class="st6" d="M36.1,197.5l0.1,10.5l149.2-86.2l-0.2-10.5L36.1,197.5z"/>
<path class="st6" d="M54.3,204.9l130.9-75.6l0.2,10.5L54.3,215.5V204.9z"/>
<path class="st10" d="M194.2,102.2c0,16.8,13.6,22.5,30.3,12.8c16.7-9.7,30.4-31.1,30.4-47.8s-13.6-22.5-30.4-12.8
	S194.2,85.4,194.2,102.2z"/>
<path class="st2" d="M256.2,212.8l6.3-9.1c-1.5-4.5-2.3-9.1-2.3-13.9c0.1-3-0.2-6.1-1.1-9c-0.8-3.8,1.9-5.5,3.5-1.8
	c1.6,3.7,1.6,5.6,2.4,8.4c0.3,0.5,0.8,0.9,1.3,1.3c0.5,0.3,1.1,0.6,1.7,0.7c1.8-1.2,3.3-2.9,4.3-4.9l2.5-7.7l1.5-5.9
	c0.6-2.6,3.4-2.4,3.3,0.8l-0.8,6.5l-2.5,7.6l3.5-3.7l3.1-7.1c0.9-2.5,3.4-2,2.9,1.2l-3,8.3l-3.7,5.6l4.2-4.4l2.9-3.9
	c2-2.3,3.6-0.4,2,2.3l-3.5,6c1.7-2,3.1,0.3,0.8,3.5l-5.4,7.6l-3.7,4.9l-5.2,3.9l-11.1,16L256.2,212.8z"/>
<path class="st0" d="M183.1,254l37.9-14.6l41.4-35.8c0.9,1.8,2.2,3.4,3.8,4.7c1.6,1.3,3.4,2.2,5.4,2.7c-3.6,5.5-7.6,10.9-11.8,16.2
	c-10.1,12.8-21.7,24.3-34.6,34.1c-15.6,10-31.9,19-48.7,26.7l-3.7-32.5C176.2,255.3,179.7,254.8,183.1,254z"/>
<g class="st5">
	<path class="st11" d="M179,280.6c0.2,1.9,0.4,3.8,0.8,5.6c15.5-7.6,30.6-16,45.3-25.2c12.9-9.9,24.6-21.3,34.6-34.1l-37.3,28.7
		C215.6,262.8,197.6,272.3,179,280.6z"/>
</g>
<path class="st2" d="M176.9,390.8c-0.4,0.5-0.9,0.8-1.5,1c-0.6,0.2-1.2,0.1-1.8-0.1c-3.4-1.6-6.8-2.5-9.7,0c0,1.6,0.5,3.1,1.5,4.3
	v0.3c3.3,3.9,7,7.4,11.1,10.4c0.3,0.2,0.4,0.5,0.5,0.9c0.1,0.3,0,0.7-0.1,1c-0.2,0.4-0.5,0.7-0.9,0.9c-0.4,0.2-0.8,0.2-1.3,0.1
	c0.6,1.3-0.8,2.4-2.4,1.8l-2.4-1.2c0.4,1.6-1.5,1.9-2.5,1l-4.9-2.6c-3.1-1.3-6-3-8.5-5.2l-1.1-1c-3.4-3.9-6.1-8.3-8-13.1
	c-0.5-4.3,2.7-6.3,8.1-6l6.5,0.6c5.9,0.9,11.6,2.6,17.2,4.9C177.5,389.1,177.4,390,176.9,390.8z"/>
<path class="st2" d="M177.1,408.5c-0.2,0.4-0.5,0.7-0.9,0.9c-0.4,0.2-0.8,0.2-1.3,0.1c0.6,1.3-0.8,2.4-2.4,1.8L170,410
	c0.4,1.6-1.5,1.9-2.5,1l-4.9-2.6c-3.1-1.3-6-3-8.5-5.2c1.5-0.1,3-0.6,4.3-1.3c1.3-0.8,2.4-1.8,3.3-3
	C166.3,403.2,173.4,408.9,177.1,408.5z"/>
<path class="st2" d="M176.9,390.8c-0.4,0.5-0.9,0.8-1.5,1c-0.6,0.2-1.2,0.1-1.8-0.1c-3.4-1.6-6.8-2.5-9.7,0c0,1.6,0.5,3.1,1.5,4.3
	l-3.7-5.2C167.2,387,173.6,390.8,176.9,390.8z"/>
<path class="st2" d="M176.9,390.8c-0.4,0.5-0.9,0.8-1.5,1c-0.6,0.2-1.2,0.1-1.8-0.1c-3.4-1.6-6.8-2.5-9.7,0c0,1.6,0.5,3.1,1.5,4.3
	v0.3c3.3,3.9,7,7.4,11.1,10.4c0.3,0.2,0.4,0.5,0.5,0.9c0.1,0.3,0,0.7-0.1,1c-0.2,0.4-0.5,0.7-0.9,0.9c-0.4,0.2-0.8,0.2-1.3,0.1
	c0.6,1.3-0.8,2.4-2.4,1.8l-2.4-1.2c0.4,1.6-1.5,1.9-2.5,1l-4.9-2.6c-3.1-1.3-6-3-8.5-5.2l-1.1-1c-3.4-3.9-6.1-8.3-8-13.1
	c-0.5-4.3,2.7-6.3,8.1-6l6.5,0.6c5.9,0.9,11.6,2.6,17.2,4.9C177.5,389.1,177.4,390,176.9,390.8z"/>
<path class="st2" d="M177.1,408.5c-0.2,0.4-0.5,0.7-0.9,0.9c-0.4,0.2-0.8,0.2-1.3,0.1c0.6,1.3-0.8,2.4-2.4,1.8L170,410
	c0.4,1.6-1.5,1.9-2.5,1l-4.9-2.6c-3.1-1.3-6-3-8.5-5.2c1.5-0.1,3-0.6,4.3-1.3c1.3-0.8,2.4-1.8,3.3-3
	C166.3,403.2,173.4,408.9,177.1,408.5z"/>
<path class="st2" d="M176.9,390.8c-0.4,0.5-0.9,0.8-1.5,1c-0.6,0.2-1.2,0.1-1.8-0.1c-3.4-1.6-6.8-2.5-9.7,0c0,1.6,0.5,3.1,1.5,4.3
	l-3.7-5.2C167.2,387,173.6,390.8,176.9,390.8z"/>
<path class="st0" d="M105,286.7c-9.1,12.9-6.1,58.8-3.1,69.6c12.5,14.7,27.7,27,44.7,36.1c-0.8-4.9-2.4-8.4,5.5-9.4l-32.2-38.5
	c3.4-10.4,3.1-21.8,4.1-37.2C121.7,276.5,106.5,284.1,105,286.7z"/>
<path class="st9" d="M316.6,391.1l-17.3-70c-0.3-1.3-1.2-2.5-2.3-3.3c-0.2-0.1-0.5-0.2-0.8-0.3c-0.2-0.1-0.3-0.1-0.5-0.1
	c-0.2,0-0.3,0-0.5,0.1l-40.9,23.8c-0.6,0.3-0.9,1.3-0.6,2.6l9.1,36.8l-22,12.8c-0.3,0.2-0.5,0.4-0.6,0.7c-0.1,0.3-0.2,0.6-0.1,0.9
	c0,0.9,0.3,1.7,0.7,2.4c0.4,0.7,1,1.4,1.7,1.8l30.9,17.9c0.3,0.2,0.6,0.3,1,0.3c0.4,0,0.7-0.1,1-0.3c-0.1,0-0.2,0-0.2,0l40.9-23.8
	h0.2c0.3-0.3,0.4-0.7,0.5-1.1C316.8,391.9,316.8,391.5,316.6,391.1z"/>
<path class="st6" d="M283.4,370c-0.3-0.1-0.6-0.2-0.9-0.2s-0.6,0.1-0.9,0.2l-40.9,23.8c0.3-0.2,0.6-0.2,0.9-0.2s0.6,0.1,0.9,0.2
	l27.4,15.9l40.9-23.8L283.4,370z"/>
<path class="st0" d="M316.6,391.1l-17.3-70c-0.3-1.3-1.2-2.5-2.3-3.3c-0.2-0.1-0.5-0.2-0.8-0.3c-0.2-0.1-0.3-0.1-0.5-0.1
	c-0.2,0-0.3,0-0.5,0.1l-40.9,23.8c0.3-0.1,0.7-0.1,1,0c0.3,0.1,0.5,0.2,0.8,0.3c1.2,0.8,2,1.9,2.3,3.3l17.3,70
	c0.2,0.4,0.2,0.8,0.1,1.2c-0.1,0.4-0.2,0.8-0.5,1.1c-0.1,0-0.2,0-0.2,0l40.9-23.8h0.2c0.3-0.3,0.4-0.7,0.5-1.2
	C316.8,391.9,316.8,391.5,316.6,391.1z"/>
<path d="M264,343.5c-0.1-0.3-0.1-0.6-0.2-0.8l30.5-17.8l16.2,65.4L280,407.9L264,343.5z"/>
<path class="st12" d="M256.1,341.6c1.2,0.8,2,1.9,2.3,3.3l17.3,70c0.2,0.4,0.2,0.8,0.1,1.2c-0.1,0.4-0.2,0.8-0.5,1.1
	c-0.3,0.2-0.6,0.3-1,0.3c-0.4,0-0.7-0.1-1-0.3l-30.9-17.9c-0.7-0.5-1.3-1.1-1.7-1.8c-0.4-0.7-0.7-1.6-0.7-2.4c0-1.6,1.1-2.2,2.5-1.4
	l27.4,15.9l-16.3-65.6c-0.4-1.8,0.3-3,1.6-2.7C255.6,341.3,255.9,341.4,256.1,341.6z"/>
<path class="st13" d="M113.6,494.7l-14.3,8.3l2.7,4.6l14.3-8.3L113.6,494.7z"/>
<path class="st14" d="M48,473.3l55.3,31.8c0,2.5-1.7,3.5-3.8,2.2L51.9,480c-1.1-0.7-2.1-1.7-2.7-2.9C48.5,476,48.1,474.7,48,473.3
	L48,473.3z"/>
<path class="st15" d="M173.7,464l-55.1-31.6l-70.8,40.9l55.3,31.8L173.7,464z"/>
<path class="st10" d="M96.2,492.1l3.1,1.8l-3.9,2.2l-3.1-1.8L96.2,492.1z"/>
<path class="st10" d="M108.6,488.6l-3.9,2.2l-3.1-1.8l3.9-2.2L108.6,488.6z"/>
<path class="st10" d="M110.1,484.1l3.1,1.8l-3.8,2.2l-3.2-1.8L110.1,484.1z"/>
<path class="st10" d="M114.8,481.4l3.1,1.8l-3.9,2.2l-3.1-1.8L114.8,481.4z"/>
<path class="st10" d="M119.4,478.6l3.1,1.9l-3.8,2.2l-3.2-1.8L119.4,478.6z"/>
<path class="st10" d="M131.8,475.1l-3.9,2.2l-3.2-1.9l3.9-2.2L131.8,475.1z"/>
<path class="st10" d="M133.3,470.6l3.2,1.8l-3.9,2.2l-3.1-1.8L133.3,470.6z"/>
<path class="st10" d="M138,467.9l3.1,1.8l-3.8,2.2l-3.2-1.8L138,467.9z"/>
<path class="st10" d="M125.2,454.3l-3.2-1.8l3.9-2.2l3.2,1.8L125.2,454.3z"/>
<path class="st10" d="M129.9,451.6l-3.1-1.8l3.9-2.2l3.1,1.8L129.9,451.6z"/>
<path class="st10" d="M131.4,447.1l3.9-2.2l3.2,1.8l-3.9,2.2L131.4,447.1z"/>
<path class="st10" d="M75.7,484.1l-3.2-1.8l3.9-2.2l3.1,1.8L75.7,484.1z"/>
<path class="st10" d="M80.4,481.4l-3.1-1.8l3.8-2.2l3.2,1.8L80.4,481.4z"/>
<path class="st10" d="M107.5,465.7l-7.1,4.1l-1.5,0.8l-0.8,0.4l-1.9,1.1l-2.7,1.6l-3.9,2.2l-4.6,2.7l-3.2-1.8l12.7-7.4l0.5-0.3
	l9.3-5.4L107.5,465.7z"/>
<path class="st10" d="M108.3,465.2l-3.2-1.8l3.9-2.2l3.2,1.8L108.3,465.2z"/>
<path class="st10" d="M112.9,462.6l-3.1-1.8l3.9-2.2l3.1,1.8L112.9,462.6z"/>
<path class="st10" d="M114.4,458.1l3.9-2.2l3.2,1.8l-3.9,2.2L114.4,458.1z"/>
<path class="st10" d="M126,454.7l3.8-2.2l3.2,1.8l-3.9,2.3L126,454.7z"/>
<path class="st10" d="M130.7,452l3.9-2.2l3.1,1.8l-3.8,2.2L130.7,452z"/>
<path class="st10" d="M135.3,449.3l3.9-2.2l3.2,1.8l-3.9,2.2L135.3,449.3z"/>
<path class="st10" d="M76.5,484.5l3.9-2.2l3.2,1.8l-3.9,2.2L76.5,484.5z"/>
<path class="st10" d="M88.2,481.4l-3.9,2.2l-3.1-1.8l3.9-2.2L88.2,481.4z"/>
<path class="st10" d="M92.8,478.7l-3.8,2.2l-3.2-1.8l3.9-2.2L92.8,478.7z"/>
<path class="st10" d="M97.5,476l-3.9,2.2l-3.1-1.8l3.8-2.2L97.5,476z"/>
<path class="st10" d="M102.1,473.3l-3.8,2.2l-3.2-1.8l3.9-2.2L102.1,473.3z"/>
<path class="st10" d="M106.8,470.7l-3.9,2.2l-3.1-1.9l3.9-2.2L106.8,470.7z"/>
<path class="st10" d="M111.4,468l-3.8,2.2l-3.2-1.9l3.9-2.2L111.4,468z"/>
<path class="st10" d="M116.1,465.2l-3.9,2.3l-3.1-1.9l3.8-2.2L116.1,465.2z"/>
<path class="st10" d="M120.7,462.6l-3.8,2.2l-3.2-1.8l3.9-2.2L120.7,462.6z"/>
<path class="st10" d="M129.9,457l3.9-2.2l3.1,1.8l-3.9,2.2L129.9,457z"/>
<path class="st10" d="M141.6,453.9l-3.9,2.2l-3.2-1.9l3.9-2.2L141.6,453.9z"/>
<path class="st10" d="M139.2,451.6l3.9-2.2l3.1,1.8l-3.9,2.3L139.2,451.6z"/>
<path class="st10" d="M80.4,486.8l3.9-2.3l3.2,1.9l-3.9,2.2L80.4,486.8z"/>
<path class="st10" d="M92.1,483.7l-3.9,2.2l-3.1-1.9l3.9-2.2L92.1,483.7z"/>
<path class="st10" d="M89.7,481.4l3.9-2.2l3.2,1.8l-3.9,2.3L89.7,481.4z"/>
<path class="st10" d="M94.3,478.7l3.9-2.2l3.1,1.8l-3.9,2.2L94.3,478.7z"/>
<path class="st10" d="M99,476l3.9-2.2l3.2,1.8l-3.9,2.2L99,476z"/>
<path class="st10" d="M103.7,473.3l3.9-2.2l3.1,1.8l-3.9,2.2L103.7,473.3z"/>
<path class="st10" d="M115.4,470.2l-3.9,2.2l-3.2-1.8l3.9-2.2L115.4,470.2z"/>
<path class="st10" d="M113,468l3.9-2.3l3.1,1.9l-3.9,2.2L113,468z"/>
<path class="st10" d="M125.4,464.4l-4.6,2.7l-3.2-1.9l4.7-2.7l-3.9-2.2l3.8-2.2l3.9,2.2l1.3,0.7l1.9,1.1l-2.6,1.5L125.4,464.4z"/>
<path class="st10" d="M137,461l-3.2-1.8l3.9-2.2l3.1,1.8L137,461z"/>
<path class="st10" d="M142.3,454.3l3.2,1.8l-3.9,2.2l-3.2-1.8L142.3,454.3z"/>
<path class="st10" d="M143.1,453.9l3.9-2.2l3.1,1.8l-3.8,2.2L143.1,453.9z"/>
<path class="st10" d="M84.3,489l3.8-2.2l3.2,1.8l-3.9,2.2L84.3,489z"/>
<path class="st10" d="M92.1,488.2l-3.2-1.8l3.9-2.2l3.1,1.8L92.1,488.2z"/>
<path class="st10" d="M93.6,483.7l3.8-2.3l3.2,1.9l-3.9,2.2L93.6,483.7z"/>
<path class="st10" d="M102.1,478.7l3.1,1.9l-3.8,2.2l-3.2-1.9L102.1,478.7z"/>
<path class="st10" d="M102.9,478.3l3.8-2.2l3.2,1.8l-3.9,2.3L102.9,478.3z"/>
<path class="st10" d="M107.6,475.6l3.9-2.2l3.1,1.8l-3.9,2.2L107.6,475.6z"/>
<path class="st10" d="M115.4,474.7l-3.2-1.8l3.9-2.2l3.2,1.8L115.4,474.7z"/>
<path class="st10" d="M116.9,470.2l3.9-2.2l3.1,1.8L120,472L116.9,470.2z"/>
<path class="st10" d="M126.2,464.8l1.4-0.8l2.5-1.4l3.1,1.8l-2.4,1.4l-1.4,0.8l-4.7,2.7l-3.2-1.8L126.2,464.8z"/>
<path class="st10" d="M148.7,463.3l-3.9,2.2l-3.2-1.8l3.9-2.2L148.7,463.3z"/>
<path class="st10" d="M150.2,458.8l3.1,1.9l-3.9,2.2l-3.1-1.9L150.2,458.8z"/>
<path class="st10" d="M154.8,456.1l3.2,1.8l-3.9,2.3l-3.2-1.9L154.8,456.1z"/>
<path class="st10" d="M81.5,458.7l9.3,5.4c0.2,0.1,0.5,0.2,0.8,0.2s0.5-0.1,0.8-0.2l14.1-8.1c0.1,0,0.2-0.1,0.2-0.2
	c0-0.1,0.1-0.2,0.1-0.3c0-0.1,0-0.2-0.1-0.3c0-0.1-0.1-0.1-0.2-0.2l-9.4-5.4c-0.2-0.1-0.5-0.2-0.8-0.2c-0.3,0-0.5,0.1-0.8,0.2
	l-14.1,8.1C81,458,81,458.4,81.5,458.7z"/>
<path class="st15" d="M173.9,465l15.4-55.8c1,0.9,1.8,2,2.3,3.2c0.5,1.2,0.6,2.6,0.5,3.9l-13.2,48.3c-0.6,2-2.7,2.2-4.9,0.3
	L173.9,465z"/>
<path class="st15" d="M118.4,450.1l-11.5,56.8l70.7-40.9l11.5-56.8L118.4,450.1z"/>
<path class="st14" d="M103.1,505.8l15.3-55.7c1,0.9,1.8,2,2.2,3.2c0.5,1.2,0.6,2.6,0.5,3.9l-13.2,48.3
	C107.4,507.4,105.2,507.6,103.1,505.8L103.1,505.8z"/>
<path class="st10" d="M148.2,460.2c-0.4,2.4,1.1,3.4,3.3,2.2c1.2-0.7,2.3-1.6,3.1-2.8c0.8-1.1,1.4-2.4,1.8-3.8
	c0.4-2.4-1.1-3.4-3.3-2.2c-1.2,0.7-2.3,1.6-3.1,2.8C149.1,457.5,148.5,458.8,148.2,460.2z"/>
<g>
	<defs>
		<polygon id="SVGID_1_" points="271.4,347.3 290.3,337.4 302.3,383 283.3,392.9 		"/>
	</defs>
	<clipPath id="SVGID_2_">
		<use xlink:href="#SVGID_1_"  style="overflow:visible;"/>
	</clipPath>
	<g class="st16">
		<path class="st10" d="M292.9,358l-2.8-10.8l2.3-1.2l8.5,32.6l-2.3,1.2l0,0l0,0L292.9,358L292.9,358z"/>
		<path class="st10" d="M289.6,359.7l-2.8-10.8l2.3-1.2l2.8,10.8l5.7,21.8l-2.3,1.2L289.6,359.7L289.6,359.7z"/>
		<path class="st10" d="M285.9,349.4l2.8,10.8l5.7,21.8l-2.3,1.2l-5.7-21.8l-2.8-10.8L285.9,349.4z"/>
		<path class="st10" d="M279.4,343.6c1.2-0.6,1.7,1.4,1.7,1.4l4.4,16.9l6.2,23.8c0,0,0.5,2-0.6,2.6c-1.2,0.6-1.7-1.4-1.7-1.4
			l-5.5-20.9l-5.2-19.8C278.7,346.2,278.2,344.2,279.4,343.6z"/>
		<path class="st10" d="M277.2,349.3c1.2-0.6,1.7,1.4,1.7,1.4l4.4,16.9l4.6,17.7c0,0,0.5,2-0.6,2.6c-1.2,0.6-1.7-1.4-1.7-1.4
			l-3.9-14.8l-5.2-19.8C276.6,352,276,349.9,277.2,349.3z"/>
		<path class="st10" d="M275,355.1c1.2-0.6,1.7,1.4,1.7,1.4s2.7,10.3,4.4,16.9c1.2,4.5,3,11.6,3,11.6s0.5,2-0.6,2.6
			c-1.2,0.6-1.7-1.4-1.7-1.4l-2.3-8.7l-5.2-19.8C274.4,357.7,273.9,355.7,275,355.1z"/>
	</g>
</g>
</svg>
