<svg id="visual" viewBox="0 0 900 600" width="900" height="600" xmlns="http://www.w3.org/2000/svg" xmlns:xlink="http://www.w3.org/1999/xlink" version="1.1"><path d="M0 397L21.5 401C43 405 86 413 128.8 418.3C171.7 423.7 214.3 426.3 257.2 417.2C300 408 343 387 385.8 388C428.7 389 471.3 412 514.2 412.3C557 412.7 600 390.3 642.8 391.3C685.7 392.3 728.3 416.7 771.2 425.8C814 435 857 429 878.5 426L900 423L900 601L878.5 601C857 601 814 601 771.2 601C728.3 601 685.7 601 642.8 601C600 601 557 601 514.2 601C471.3 601 428.7 601 385.8 601C343 601 300 601 257.2 601C214.3 601 171.7 601 128.8 601C86 601 43 601 21.5 601L0 601Z" fill="#fff3eb"></path><path d="M0 478L21.5 482.2C43 486.3 86 494.7 128.8 496.3C171.7 498 214.3 493 257.2 493C300 493 343 498 385.8 492.2C428.7 486.3 471.3 469.7 514.2 473.8C557 478 600 503 642.8 512.3C685.7 521.7 728.3 515.3 771.2 515C814 514.7 857 520.3 878.5 523.2L900 526L900 601L878.5 601C857 601 814 601 771.2 601C728.3 601 685.7 601 642.8 601C600 601 557 601 514.2 601C471.3 601 428.7 601 385.8 601C343 601 300 601 257.2 601C214.3 601 171.7 601 128.8 601C86 601 43 601 21.5 601L0 601Z" fill="#fafafa"></path></svg>