<svg xmlns="http://www.w3.org/2000/svg" xmlns:xlink="http://www.w3.org/1999/xlink" width="800" height="340" viewBox="0 0 800 340">
  <defs>
    <radialGradient id="radial-gradient" cx="0.5" cy="0.5" r="0.5" gradientUnits="objectBoundingBox">
      <stop offset="0" stop-color="#fd0"/>
      <stop offset="0.003" stop-color="#fd0"/>
      <stop offset="0.129" stop-color="#ffd601"/>
      <stop offset="0.31" stop-color="#ffc303"/>
      <stop offset="0.523" stop-color="#ffa407"/>
      <stop offset="0.761" stop-color="#ff790d"/>
      <stop offset="1" stop-color="#ff4713"/>
    </radialGradient>
    <clipPath id="clip-_2xper.logo">
      <rect width="800" height="340"/>
    </clipPath>
  </defs>
  <g id="_2xper.logo" data-name="2xper.logo" clip-path="url(#clip-_2xper.logo)">
    <g id="Per_Per_logotyp_RGB" data-name="Per &amp; Per logotyp RGB" transform="translate(100 50.375)">
      <g id="Text" transform="translate(199.531 70.891)">
        <g id="Lower">
          <path id="Path_9953" data-name="Path 9953" d="M87.08,44.645c0,3.046-.75,5.2-2.249,6.514s-3.8,1.921-6.982,1.921H50.013V70.043H42.75V26.51h35.1c3.14,0,5.483.656,6.982,1.921,1.5,1.312,2.249,3.468,2.249,6.514Zm-7.357-1.874V36.679c0-1.734-.375-2.952-1.078-3.561a5.334,5.334,0,0,0-3.655-.984H50.013V47.316H74.99a5.334,5.334,0,0,0,3.655-.984C79.348,45.723,79.723,44.5,79.723,42.771Z" transform="translate(-41.953 27.052)" fill="#185a7d"/>
          <path id="Path_9954" data-name="Path 9954" d="M98.008,70.043H55.74V26.51H97.68v5.811H63V44.458H84.184v5.717H63V64h35Z" transform="translate(5.928 27.052)" fill="#185a7d"/>
          <path id="Path_9955" data-name="Path 9955" d="M116.824,70.043H106.046L88.333,53.08H75.493V70.043H68.23V26.51h35.1c3.14,0,5.483.656,6.982,1.921,1.5,1.312,2.249,3.468,2.249,6.514v9.7c0,4.311-1.687,6.982-5.061,7.919-1.078.328-4.592.515-10.544.515ZM105.2,42.958V36.632a4.7,4.7,0,0,0-1.078-3.515,5.334,5.334,0,0,0-3.655-.984H75.493V47.41H100.47a5.617,5.617,0,0,0,3.655-.937C104.828,45.863,105.2,44.692,105.2,42.958Z" transform="translate(51.967 27.052)" fill="#185a7d"/>
          <path id="Path_9956" data-name="Path 9956" d="M120.778,60.5h-6.514L107.8,55.2l-3.515,3.374a6.155,6.155,0,0,1-2.577,1.593,10.762,10.762,0,0,1-3,.328H88.4q-5.061,0-6.467-2.39c-.609-1.078-.89-3.421-.89-7.123a6.287,6.287,0,0,1,.843-3.515,10.414,10.414,0,0,1,2.812-2.3l6.045-3.843a7.4,7.4,0,0,1-2.2-2.905,11.988,11.988,0,0,1-.375-3.608c0-2.3.7-3.843,2.062-4.686,1.031-.7,2.812-1.031,5.3-1.031h5.9c3.187,0,5.2.562,6.092,1.687.8.984,1.218,3.046,1.218,6.279l-4.124.8v-4.92h-12v4.545L107.844,50l7.31-6.888,2.671,2.577-7.076,6.7Zm-15.933-7.826-11.293-9-8.013,5.717v7.076h15.23Z" transform="translate(99.185 36.599)" fill="#185a7d"/>
          <path id="Path_9957" data-name="Path 9957" d="M136.473,44.645c0,3.046-.75,5.2-2.249,6.514s-3.8,1.921-6.935,1.921H99.453V70.043H92.19V26.51h35.1c3.14,0,5.483.656,6.935,1.921,1.5,1.312,2.249,3.468,2.249,6.514v9.7Zm-7.31-1.874V36.679c0-1.734-.375-2.952-1.031-3.561a5.335,5.335,0,0,0-3.655-.984H99.5V47.316h24.977a5.335,5.335,0,0,0,3.655-.984C128.788,45.723,129.163,44.5,129.163,42.771Z" transform="translate(140.284 27.052)" fill="#185a7d"/>
          <path id="Path_9958" data-name="Path 9958" d="M147.438,70.043H105.17V26.51h41.94v5.811H112.433V44.458h21.181v5.717H112.433V64h35v6.045Z" transform="translate(188.129 27.052)" fill="#185a7d"/>
          <path id="Path_9959" data-name="Path 9959" d="M166.264,70.043H155.486L137.773,53.08h-12.84V70.043H117.67V26.51h35.1c3.14,0,5.483.656,6.982,1.921C161.25,29.743,162,31.9,162,34.945v9.7c0,4.311-1.687,6.982-5.061,7.919-1.078.328-4.592.515-10.544.515ZM154.643,42.958V36.632a4.7,4.7,0,0,0-1.078-3.515,5.334,5.334,0,0,0-3.655-.984H124.933V47.41H149.91a5.617,5.617,0,0,0,3.655-.937C154.268,45.863,154.643,44.692,154.643,42.958Z" transform="translate(234.204 27.052)" fill="#185a7d"/>
        </g>
        <g id="Upper">
          <path id="Path_9943" data-name="Path 9943" d="M47.828,46.533H42.58V15.09h5.248Z" transform="translate(-42.58 -15.043)" fill="#ff4713"/>
          <path id="Path_9944" data-name="Path 9944" d="M80.378,19.354H65.945V46.533H60.7V19.354H46.31V15.09H80.378Z" transform="translate(-28.831 -15.043)" fill="#ff4713"/>
          <path id="Path_9945" data-name="Path 9945" d="M67.391,22.312H54.13V17.86H67.391Z" transform="translate(-0.006 -4.832)" fill="#de491f"/>
          <path id="Path_9946" data-name="Path 9946" d="M92.006,40.385c0,4.124-2.905,6.139-8.716,6.139H59.86V15.08H85.211c2.3,0,3.936.469,5.014,1.406s1.593,2.484,1.593,4.686v3.655c0,3.187-1.734,4.967-5.248,5.342,3.608.469,5.436,2.484,5.436,6.139Zm-5.53-15.136V22.062c0-1.125-.234-1.874-.75-2.2a4.672,4.672,0,0,0-2.484-.515H65.108V28.06H83.243C85.4,28.013,86.477,27.123,86.477,25.249Zm.234,13.261V35.886a4.325,4.325,0,0,0-.75-2.905,3.488,3.488,0,0,0-2.718-.843H65.108V42.259H83.243a3.421,3.421,0,0,0,2.718-.843A4.243,4.243,0,0,0,86.711,38.51Z" transform="translate(21.115 -15.079)" fill="#ff4713"/>
          <path id="Path_9947" data-name="Path 9947" d="M106.291,39.083c0,2.905-.515,4.827-1.546,5.858s-2.952,1.546-5.764,1.546H77.237c-2.858,0-4.78-.515-5.811-1.546s-1.546-3-1.546-5.858V22.494c0-2.905.515-4.827,1.546-5.858s2.952-1.546,5.811-1.546H98.98q4.288,0,5.764,1.546c.984,1.031,1.546,3,1.546,5.858Zm-5.155,3.046V19.354H75.128V42.128Z" transform="translate(58.049 -15.043)" fill="#ff4713"/>
          <path id="Path_9948" data-name="Path 9948" d="M110.063,46.533H81.01V15.09h5.248V42.128h23.805v4.4Z" transform="translate(99.074 -15.043)" fill="#ff4713"/>
          <path id="Path_9949" data-name="Path 9949" d="M129.65,46.533h-5.764l-4.03-7.732H98.582l-4.03,7.732h-5.2l17.2-31.443h5.623Zm-11.9-11.762L109.266,18.7l-8.482,16.073Z" transform="translate(129.816 -15.043)" fill="#ff4713"/>
          <path id="Path_9950" data-name="Path 9950" d="M135.542,39.083c0,2.905-.515,4.827-1.546,5.858s-3,1.546-5.811,1.546H107.847c-2.858,0-4.78-.515-5.811-1.546s-1.546-3-1.546-5.858V22.494c0-2.905.515-4.827,1.546-5.858s2.952-1.546,5.811-1.546h20.337c3,0,4.967.562,5.951,1.64.937,1.078,1.453,3.187,1.453,6.232l-5.248,1.031V19.354h-24.6V42.128h24.6V32.944H117.594v-4.03h17.948V39.083Z" transform="translate(170.878 -15.043)" fill="#ff4713"/>
          <path id="Path_9951" data-name="Path 9951" d="M141.746,46.533H111.24V15.09h30.272v4.217H116.488V28.07h15.276v4.124H116.488v9.981h25.258Z" transform="translate(210.503 -15.043)" fill="#ff4713"/>
          <path id="Path_9952" data-name="Path 9952" d="M153.978,19.354H139.545V46.533H134.3V19.354H119.91V15.09h34.067v4.264Z" transform="translate(242.461 -15.043)" fill="#ff4713"/>
        </g>
      </g>
      <g id="Icon" transform="translate(-0.002)">
        <path id="Path_14811" data-name="Path 14811" d="M165.6,30.6,82.8,78.45,0,30.6l82.8,95.565h0Z" transform="translate(0 112.951)" fill="#002b49"/>
        <path id="Path_14812" data-name="Path 14812" d="M17.65,78.45v47.714L100.45,30.6Z" transform="translate(65.15 112.951)" fill="#185a7d"/>
        <path id="Path_14813" data-name="Path 14813" d="M0,68.25,82.8,20.4l82.8,47.85L82.8,116.1Z" transform="translate(0 75.301)" fill="url(#radial-gradient)"/>
        <path id="Path_14814" data-name="Path 14814" d="M82.8,0,0,95.7l82.8,47.85L165.6,95.7Z" fill="#ff4713"/>
        <path id="Path_14815" data-name="Path 14815" d="M82.8,0,0,95.7l82.8,47.85Z" fill="#ce0e2d"/>
      </g>
    </g>
  </g>
</svg>
