<svg id="Layer_1" data-name="Layer 1" xmlns="http://www.w3.org/2000/svg" viewBox="0 0 399.24 100.5"><defs><style>.cls-1{fill:#dd0332;}.cls-2{fill:#fff;}</style></defs><g id="wide_black_on_white" data-name="wide black on white"><g id="logo"><g id="ICON"><circle id="molecule" class="cls-1" cx="49.04" cy="49.97" r="33.48"/><path id="atom_path" data-name="atom path" class="cls-2" d="M50.25,100.5a50.25,50.25,0,0,0,50-44.91,5.4,5.4,0,0,0,0-10.68,50.25,50.25,0,1,0-50,55.59ZM50.25,2a48.27,48.27,0,0,1,48,43,5.41,5.41,0,0,0,0,10.56A48.27,48.27,0,1,1,50.25,2Z"/><path id="helmet_shadow" data-name="helmet shadow" d="M85.22,67.83H49.68A9.47,9.47,0,0,1,41.54,64c-1.88-2.57-2.82-6.17-2.82-11.67s.94-9.1,2.82-11.68a9.49,9.49,0,0,1,8.14-3.86H85.22c.35,0,.67,0,1,0A39,39,0,0,0,50.46,13.57,11.24,11.24,0,0,0,39.17,23.91Q38,35.22,30.94,36.79c-1.29.35-5.06.88-11.31.88s-8.2,10.55-8.2,14.63,1.82,14.63,8.2,14.63,10,.53,11.31.88Q38,69.38,39.17,80.69A11.24,11.24,0,0,0,50.46,91,39.06,39.06,0,0,0,86.21,67.87C85.89,67.85,85.57,67.83,85.22,67.83Z"/><path id="white_helmet" data-name="white helmet" class="cls-2" d="M85.22,65.86H49.68A9.49,9.49,0,0,1,41.54,62c-1.88-2.57-2.82-6.17-2.82-11.68s.94-9.1,2.82-11.68a9.49,9.49,0,0,1,8.14-3.86H85.22l1,0A39,39,0,0,0,50.46,11.6,11.24,11.24,0,0,0,39.17,21.94Q38,33.24,30.94,34.82c-1.29.35-5.06.87-11.31.87s-8.2,10.56-8.2,14.64S13.25,65,19.63,65s10,.52,11.31.88Q38,67.41,39.17,78.71A11.23,11.23,0,0,0,50.46,89.05,39.06,39.06,0,0,0,86.21,65.89C85.89,65.87,85.57,65.86,85.22,65.86Z"/></g><g id="CONSID"><path class="cls-2" d="M225.38,31.21q-6.39-6.57-18.09-6.56-12.19,0-19.08,7t-6.88,19.08q0,11.55,6.4,18.33t18.06,6.78q12.28,0,19.14-7.34t6.85-19.38Q231.77,37.78,225.38,31.21ZM220,67.57q-4.17,5.49-12.91,5.5T193.56,67Q189,61,189,49.58q0-11.16,4.06-16.66t13-5.49q9.22,0,13.64,5.93t4.43,17Q224.11,62.08,220,67.57Z"/><path class="cls-2" d="M393.11,31.11q-6.14-5.57-18.32-5.56c-2.28,0-4.49.06-6.66.19s-4.39.19-6.72.19q-4.25,0-8.74-.13l.07,1.5,4.32,1.36a1.19,1.19,0,0,1,.83,1.19c0,.76,0,1.62.06,2.57s0,2,0,3.21V63.88c0,1.4,0,2.67,0,3.82s0,2.19-.06,3.11a1.15,1.15,0,0,1-.94,1.08l-4.28,1.29.14,1.5q4.43-.14,8.64-.13c2.13,0,4.09,0,5.85.1s3.77.09,6,.09q12.29,0,19.1-7.12t6.81-20Q399.24,36.67,393.11,31.11Zm-6.34,35.37q-4.8,5.43-14,5.42c-1.33,0-2.65,0-4-.08s-2.65-.19-4-.37V28.85c1.61-.12,3-.2,4.3-.25s2.42-.07,3.47-.07q9.9,0,14.45,5.24t4.57,16.11Q391.58,61.07,386.77,66.48Z"/><path class="cls-2" d="M252.25,74.68l-.07-1.56L248,71.9a1.12,1.12,0,0,1-.87-1.19q-.07-2.71-.07-6.83V35.73l31.32,39.08,2.92-.28V35.63c0-2.33,0-4.25.07-5.78a1.18,1.18,0,0,1,.84-1.19l4.39-1.35-.14-1.5c-2.91.08-5.29.13-7.15.13s-4.23-.05-7.21-.13l.07,1.6,4.11,1.18a1.14,1.14,0,0,1,.9,1.09c0,1.62.07,3.56.07,5.81V62.32L248,25.81c-1.07.08-2.12.13-3.17.13-1.74,0-4.11-.05-7.1-.13l.07,1.5,4.31,1.35a1.2,1.2,0,0,1,.84,1.19c.05,1.53.07,3.46.07,5.78V63.89c0,2.73,0,5-.07,6.93A1.17,1.17,0,0,1,242,71.9l-4.28,1.29.14,1.5q4.48-.14,7.21-.14C247,74.55,249.35,74.6,252.25,74.68Z"/><path class="cls-2" d="M340.57,32.34c0-1,0-1.85.05-2.66a1.08,1.08,0,0,1,.9-1.08l4.32-1.29-.14-1.5c-3,.08-5.85.13-8.64.13s-5.65-.05-8.64-.13l.07,1.5,4.32,1.35a1.2,1.2,0,0,1,.83,1.19q0,1.16.06,2.58c0,1,0,2,0,3.2V63.89c0,1.39,0,2.66,0,3.81s0,2.19-.06,3.11a1.14,1.14,0,0,1-.94,1.08l-4.28,1.3.14,1.49c2.95-.08,5.83-.13,8.64-.13s5.65,0,8.64.13l-.07-1.49L341.83,72c-.79-.21-1.19-.61-1.22-1.19,0-.93,0-2-.05-3.1s0-2.4,0-3.8V35.49C340.55,34.36,340.55,33.31,340.57,32.34Z"/><path class="cls-2" d="M313.15,70.31c-1.94,1.54-4.64,2.3-8.1,2.3a20.49,20.49,0,0,1-7.56-1.46l-2.44-9.89-1.56.24-1.71,11.85.21.28a45.69,45.69,0,0,0,12.26,1.9c5.73,0,10.23-1.22,13.47-3.66s4.85-6,4.85-10.6a11.32,11.32,0,0,0-1.09-5.12,11.87,11.87,0,0,0-2.93-3.76,21.32,21.32,0,0,0-4.09-2.74c-1.51-.78-3.07-1.51-4.67-2.21s-2.88-1.32-4.25-2a19.66,19.66,0,0,1-3.68-2.3,9.9,9.9,0,0,1-2.57-3,7.94,7.94,0,0,1-1-4,7.56,7.56,0,0,1,2.73-6.2,11.29,11.29,0,0,1,7.33-2.23A21.5,21.5,0,0,1,315.12,29l2.26,8.67,1.4-.24,2.05-10.89-.24-.24A54.52,54.52,0,0,0,309.06,25q-7.8,0-12.52,3.46a11.37,11.37,0,0,0-4.72,9.76,12.75,12.75,0,0,0,1.11,5.49,11.93,11.93,0,0,0,3,4,22,22,0,0,0,4.16,2.84c1.53.81,3.11,1.56,4.74,2.27,1.43.65,2.83,1.31,4.18,2a21.72,21.72,0,0,1,3.6,2.21,9.37,9.37,0,0,1,2.53,2.91,8,8,0,0,1,.94,3.92A7.85,7.85,0,0,1,313.15,70.31Z"/><path class="cls-2" d="M175.42,71,175,69.45a35.53,35.53,0,0,1-11.66,2.13q-9.87,0-15.44-6.06T142.36,49.3c0-6.35,1.62-11.49,4.88-15.47s7.72-5.95,13.41-5.95A32.5,32.5,0,0,1,168.48,29L171,38.12l1.39-.21,2.16-11.24-.24-.28A53.42,53.42,0,0,0,162.29,25q-12.27,0-19.86,7t-7.59,18.91q0,11.22,6.89,18.08t18.15,6.86A26.59,26.59,0,0,0,175.42,71Z"/></g></g></g></svg>