<svg id="LOGO" xmlns="http://www.w3.org/2000/svg" viewBox="0 0 566.93 396.85"><defs><style>.cls-1{fill-rule:evenodd;}</style></defs><path id="SVGID" class="cls-1" d="M468.52,91.09a12.2,12.2,0,1,0,12.2,12.2,12.2,12.2,0,0,0-12.2-12.2ZM340.16,166.74a24.4,24.4,0,1,0-24.4,24.4,24.43,24.43,0,0,0,24.4-24.4Zm7.32-36.6h7.32v36.6a39.1,39.1,0,1,1-14-29.92l6.68-6.68Zm-97.4,36.6a24.4,24.4,0,0,1-48.8,0v-18.3a56.93,56.93,0,0,0-11.95-35l-10.49,10.48a42.38,42.38,0,0,1,7.8,24.56v18.3a38.85,38.85,0,0,0,5,19,39.38,39.38,0,0,0,15,15,38.83,38.83,0,0,0,43.44-3.63v6.18a24.4,24.4,0,0,1-41.65,17.25L198.08,231a39,39,0,0,0,66.64-27.6V130.14H250.08v36.6ZM461.2,203.35h14.64V130.14H461.2v73.21ZM408,127.7a38.1,38.1,0,0,0-24.64,9l-6.6-6.6h-7.32v36.59h0v36.61h14.64V166.74a23.92,23.92,0,1,1,47.84,0v36.61h14.64V166.74c0-21.53-17.3-39-38.56-39ZM315.76,227.75a24.24,24.24,0,0,1-17.25-7.15L288.16,231a39,39,0,0,0,66.64-27.6H340.16a24.43,24.43,0,0,1-24.4,24.4ZM168.53,183.38,179,193.82a57.35,57.35,0,1,1,0-90.76L168.5,113.53A42.69,42.69,0,1,0,144,191.14a42.25,42.25,0,0,0,24.58-7.76Z"/><path d="M86.49,271.2H96.72a19.64,19.64,0,0,1,4.87.58,11.15,11.15,0,0,1,4,1.87,9.3,9.3,0,0,1,2.72,3.29,10.64,10.64,0,0,1,1,4.83v.2a10.92,10.92,0,0,1-1,4.9,9.2,9.2,0,0,1-2.72,3.31,11,11,0,0,1-4,1.87,19.64,19.64,0,0,1-4.87.58H90.87v14.63H86.49ZM97,289.1a8.48,8.48,0,0,0,5.9-1.84,6.84,6.84,0,0,0,2-5.32v-.2q0-3.83-2.11-5.42a9.49,9.49,0,0,0-5.8-1.59H90.87V289.1Z"/><path d="M121.18,307.71a12.74,12.74,0,0,1-3.43-.45,7.7,7.7,0,0,1-2.8-1.41,6.68,6.68,0,0,1-1.86-2.42,8.12,8.12,0,0,1-.68-3.48,6.47,6.47,0,0,1,1.11-3.84,8.17,8.17,0,0,1,3-2.52,14.5,14.5,0,0,1,4.23-1.38,27.53,27.53,0,0,1,4.92-.43h3.78v-1.91c0-2.1-.43-3.61-1.31-4.53s-2.32-1.38-4.33-1.38c-3.64,0-5.65,1.56-6.06,4.69h-4.18a8.9,8.9,0,0,1,1.13-3.83,8.05,8.05,0,0,1,2.37-2.55,9.48,9.48,0,0,1,3.23-1.41,15.63,15.63,0,0,1,3.71-.43,15.15,15.15,0,0,1,3.63.43,7.54,7.54,0,0,1,3.08,1.51,7.71,7.71,0,0,1,2.11,2.9,11.3,11.3,0,0,1,.81,4.59v17.4H129.4v-3.33a9.9,9.9,0,0,1-3.37,2.83A11,11,0,0,1,121.18,307.71Zm.41-3.32a11,11,0,0,0,3.1-.43,7.45,7.45,0,0,0,2.47-1.24,6,6,0,0,0,1.64-2,5.89,5.89,0,0,0,.6-2.7v-3.28h-3.63a23,23,0,0,0-3.65.28,10.43,10.43,0,0,0-2.93.88,5.07,5.07,0,0,0-1.92,1.59,4.24,4.24,0,0,0-.68,2.45,4.56,4.56,0,0,0,1.11,3.25C118.44,304,119.74,304.39,121.59,304.39Z"/><path d="M141.15,280.88h4.19v4.74a12.64,12.64,0,0,1,1.39-2,8.35,8.35,0,0,1,4.16-2.7,12.09,12.09,0,0,1,3.13-.45v3.93a18.92,18.92,0,0,0-3.59.51,6.67,6.67,0,0,0-2.74,1.36,6,6,0,0,0-1.74,2.55,11.17,11.17,0,0,0-.61,4v14.47h-4.19Z"/><path d="M167.73,307.61c-2.42,0-4.21-.63-5.37-1.91a7.23,7.23,0,0,1-1.74-5.05V284.41h-3.78v-3.53h3.78v-6h4.19v6H171v3.53h-6.15v15.84c0,2.56,1.09,3.83,3.27,3.83a9.13,9.13,0,0,0,1.77-.15,10.14,10.14,0,0,0,1.46-.4v3.53a8.14,8.14,0,0,1-1.46.4A12,12,0,0,1,167.73,307.61Z"/><path d="M200,307.71a13.21,13.21,0,0,1-5.2-1,12.32,12.32,0,0,1-4.08-2.8,12.57,12.57,0,0,1-2.67-4.27,14.56,14.56,0,0,1-1-5.34v-.4a14.72,14.72,0,0,1,1-5.45,13.13,13.13,0,0,1,2.7-4.26,11.84,11.84,0,0,1,4.08-2.78,14.21,14.21,0,0,1,10.37,0,12,12,0,0,1,4.11,2.75,12.93,12.93,0,0,1,2.7,4.24,14.71,14.71,0,0,1,1,5.44v.41a14.9,14.9,0,0,1-1,5.47,12.57,12.57,0,0,1-2.73,4.26,12.37,12.37,0,0,1-4.11,2.75A13.33,13.33,0,0,1,200,307.71Zm.05-3.53a8.86,8.86,0,0,0,3.58-.7,7.46,7.46,0,0,0,2.72-2,9.37,9.37,0,0,0,1.72-3.13,12.93,12.93,0,0,0,.6-4V294a13.35,13.35,0,0,0-.6-4.12,9.19,9.19,0,0,0-1.74-3.16,7.76,7.76,0,0,0-2.73-2,8.62,8.62,0,0,0-3.55-.7,8.83,8.83,0,0,0-3.58.7,7.41,7.41,0,0,0-2.73,2,9.22,9.22,0,0,0-1.71,3.14,13.06,13.06,0,0,0-.61,4.09v.4a10.71,10.71,0,0,0,2.3,7.2A7.88,7.88,0,0,0,200.06,304.18Z"/><path d="M219.78,284.41H216v-3.53h3.78V276.6a9.09,9.09,0,0,1,2-6.26c1.31-1.48,3.27-2.22,5.9-2.22a9.38,9.38,0,0,1,1.66.13,13.83,13.83,0,0,1,1.46.38v3.58a5.83,5.83,0,0,0-1.33-.4,7.93,7.93,0,0,0-1.64-.16,3.35,3.35,0,0,0-3,1.26,5.51,5.51,0,0,0-.89,3.26v4.71h6.46v3.53H224v22.85h-4.18Z"/><path d="M256.44,271.2h10.64l11.71,36.06h-8.53l-2.47-8H254.73l-2.47,8h-7.67Zm.05,22.24H266l-4.74-15.58Z"/><path d="M292.35,307.81a15.92,15.92,0,0,1-5.37-.88,11.71,11.71,0,0,1-7.16-6.81,14.81,14.81,0,0,1-1-5.72V294a14.93,14.93,0,0,1,1.06-5.73,12.88,12.88,0,0,1,2.93-4.36,12.71,12.71,0,0,1,4.34-2.7,14.86,14.86,0,0,1,5.29-.93,17.93,17.93,0,0,1,4.41.53,11.2,11.2,0,0,1,3.86,1.74,9.75,9.75,0,0,1,2.78,3.17,11.88,11.88,0,0,1,1.36,4.8H297.9a5.26,5.26,0,0,0-1.69-3.38,5.55,5.55,0,0,0-3.66-1.11,5.73,5.73,0,0,0-4.59,2,8.81,8.81,0,0,0-1.71,5.81v.4q0,4,1.69,6a5.86,5.86,0,0,0,4.76,2,6,6,0,0,0,3.81-1.25,5.23,5.23,0,0,0,1.84-3.8H305a11.83,11.83,0,0,1-1.06,4.32,9.63,9.63,0,0,1-2.52,3.3A11.56,11.56,0,0,1,297.5,307,15.83,15.83,0,0,1,292.35,307.81Z"/><path d="M319.59,307.81a16,16,0,0,1-5.38-.88,11.71,11.71,0,0,1-7.16-6.81,14.81,14.81,0,0,1-1-5.72V294a14.74,14.74,0,0,1,1.06-5.73,12.3,12.3,0,0,1,7.26-7.06,14.92,14.92,0,0,1,5.3-.93,18,18,0,0,1,4.41.53,11.28,11.28,0,0,1,3.86,1.74,9.73,9.73,0,0,1,2.77,3.17,11.88,11.88,0,0,1,1.36,4.8h-6.91a5.21,5.21,0,0,0-1.69-3.38,5.54,5.54,0,0,0-3.65-1.11,5.7,5.7,0,0,0-4.59,2,8.76,8.76,0,0,0-1.72,5.81v.4c0,2.65.57,4.65,1.69,6a5.9,5.9,0,0,0,4.77,2,6,6,0,0,0,3.81-1.25,5.27,5.27,0,0,0,1.84-3.8h6.6a12,12,0,0,1-1.05,4.32,9.65,9.65,0,0,1-2.53,3.3,11.47,11.47,0,0,1-3.88,2.19A15.77,15.77,0,0,1,319.59,307.81Z"/><path d="M347,307.81a16.31,16.31,0,0,1-5.5-.9,11.94,11.94,0,0,1-4.33-2.68,11.63,11.63,0,0,1-2.9-4.18,14.52,14.52,0,0,1-1-5.65V294a14.74,14.74,0,0,1,1-5.65,12.63,12.63,0,0,1,2.9-4.34,13,13,0,0,1,4.28-2.75,14.46,14.46,0,0,1,5.35-1,15.27,15.27,0,0,1,4.89.78,11.31,11.31,0,0,1,4.09,2.4,11.59,11.59,0,0,1,2.82,4.16,15.66,15.66,0,0,1,1.06,6.07v2h-19a7.68,7.68,0,0,0,1.84,5.12,7.41,7.41,0,0,0,8.57.78,4.46,4.46,0,0,0,1.64-2.67h6.91a9.41,9.41,0,0,1-3.91,6.58Q352.47,307.82,347,307.81Zm5.55-16.59a6.69,6.69,0,0,0-1.67-4.46,6.3,6.3,0,0,0-8.14.1,7.31,7.31,0,0,0-2,4.36Z"/><path d="M362.55,280.88h7.32v4.19a9,9,0,0,1,3.13-3.38,9.62,9.62,0,0,1,5.44-1.41,10.19,10.19,0,0,1,3.58.6,7.91,7.91,0,0,1,2.83,1.82,8.79,8.79,0,0,1,1.81,3.2,14.26,14.26,0,0,1,.66,4.57v16.79H380V291.52a6.07,6.07,0,0,0-1.1-4,4.42,4.42,0,0,0-3.53-1.29,5.58,5.58,0,0,0-3.94,1.44,5.65,5.65,0,0,0-1.56,4.36v15.23h-7.32Z"/><path d="M401.29,307.76c-2.79,0-4.91-.69-6.36-2.09s-2.17-3.47-2.17-6.23V286.08h-3.37v-5.2h3.37v-5.7H400v5.7h5.54v5.2H400v12.71a3.3,3.3,0,0,0,.73,2.34,2.85,2.85,0,0,0,2.19.78,8.65,8.65,0,0,0,1.49-.12,6.86,6.86,0,0,0,1.29-.38v5.65a16.13,16.13,0,0,1-1.87.48A13.1,13.1,0,0,1,401.29,307.76Z"/><path d="M417.53,307.81a10.51,10.51,0,0,1-3.56-.58,7.46,7.46,0,0,1-2.85-1.79,8.12,8.12,0,0,1-1.89-3.1,13.28,13.28,0,0,1-.68-4.46v-17h7.26v16a5.9,5.9,0,0,0,1.16,4,4.3,4.3,0,0,0,3.43,1.34,5.24,5.24,0,0,0,5.5-5.8V280.88h7.26v26.38H425.9v-4.14a8.52,8.52,0,0,1-3,3.36A9.58,9.58,0,0,1,417.53,307.81Z"/><path d="M437.7,280.88H445v5.05a9.72,9.72,0,0,1,3.28-4,9.44,9.44,0,0,1,5.25-1.41v6.81a10.91,10.91,0,0,0-6.31,1.46c-1.48,1-2.22,2.77-2.22,5.3v13.21H437.7Z"/><path d="M468.06,307.81a16.27,16.27,0,0,1-5.5-.9,11.94,11.94,0,0,1-4.33-2.68,11.63,11.63,0,0,1-2.9-4.18,14.52,14.52,0,0,1-1-5.65V294a14.74,14.74,0,0,1,1-5.65,12.63,12.63,0,0,1,2.9-4.34,13,13,0,0,1,4.28-2.75,14.46,14.46,0,0,1,5.35-1,15.27,15.27,0,0,1,4.89.78,11.31,11.31,0,0,1,4.09,2.4,11.59,11.59,0,0,1,2.82,4.16,15.66,15.66,0,0,1,1.06,6.07v2h-19a7.68,7.68,0,0,0,1.84,5.12,7.41,7.41,0,0,0,8.57.78,4.46,4.46,0,0,0,1.64-2.67h6.91a9.41,9.41,0,0,1-3.91,6.58Q473.51,307.82,468.06,307.81Zm5.55-16.59a6.69,6.69,0,0,0-1.67-4.46,6.3,6.3,0,0,0-8.14.1,7.31,7.31,0,0,0-2,4.36Z"/></svg>