<?xml version="1.0" encoding="UTF-8" standalone="no"?>
<!-- Created with Inkscape (http://www.inkscape.org/) -->

<svg
   version="1.1"
   id="svg2"
   xml:space="preserve"
   width="816"
   height="1056"
   viewBox="0 0 816 1056"
   sodipodi:docname="devant_logotype_bw.ai"
   xmlns:inkscape="http://www.inkscape.org/namespaces/inkscape"
   xmlns:sodipodi="http://sodipodi.sourceforge.net/DTD/sodipodi-0.dtd"
   xmlns="http://www.w3.org/2000/svg"
   xmlns:svg="http://www.w3.org/2000/svg"><defs
     id="defs6"><clipPath
       clipPathUnits="userSpaceOnUse"
       id="clipPath16"><path
         d="M 0,792 H 612 V 0 H 0 Z"
         id="path14" /></clipPath></defs><sodipodi:namedview
     id="namedview4"
     pagecolor="#ffffff"
     bordercolor="#666666"
     borderopacity="1.0"
     inkscape:pageshadow="2"
     inkscape:pageopacity="0.0"
     inkscape:pagecheckerboard="0" /><g
     id="g8"
     inkscape:groupmode="layer"
     inkscape:label="devant_logotype_bw"
     transform="matrix(1.3333333,0,0,-1.3333333,0,1056)"><g
       id="g10"><g
         id="g12"
         clip-path="url(#clipPath16)"><g
           id="g18"
           transform="translate(170.416,433.8088)"><path
             d="m 0,0 v -33.62 h 41.914 l -2.608,5.144 H 5.144 v 23.332 h 30.409 l 40.692,-80.249 c 1.165,-2.298 3.523,-3.746 6.099,-3.746 h 1.568 L 38.712,0 Z"
             style="fill:#000000;fill-opacity:1;fill-rule:nonzero;stroke:none"
             id="path20" /></g><g
           id="g22"
           transform="translate(219.1867,386.6672)"><path
             d="m 0,0 -2.608,5.144 h -46.163 v -33.62 h 63.21 l -2.608,5.144 H -43.627 V 0 Z"
             style="fill:#000000;fill-opacity:1;fill-rule:nonzero;stroke:none"
             id="path24" /></g><g
           id="g26"
           transform="translate(306.3834,447.3304)"><path
             d="m 0,0 h -1.57 c -2.575,0 -4.931,-1.447 -6.095,-3.744 l -36.764,-72.503 2.882,-5.69 z"
             style="fill:#000000;fill-opacity:1;fill-rule:nonzero;stroke:none"
             id="path28" /></g><g
           id="g30"
           transform="translate(296.0981,379.2468)"><path
             d="M 0,0 44.837,-0.057 22.437,44.119 19.553,38.432 36.462,5.087 H 2.58 Z"
             style="fill:#000000;fill-opacity:1;fill-rule:nonzero;stroke:none"
             id="path32" /></g><g
           id="g34"
           transform="translate(291.8499,370.8688)"><path
             d="m 0,0 -2.637,-5.2 h 52.811 l 8.756,-17.267 c 1.161,-2.29 3.51,-3.732 6.076,-3.732 h 1.657 l -13.33,26.143 z"
             style="fill:#000000;fill-opacity:1;fill-rule:nonzero;stroke:none"
             id="path36" /></g><g
           id="g38"
           transform="translate(382.5064,349.8136)"><path
             d="m 0,0 h -11.528 l -49.434,97.517 h -5.768 l -49.231,-97.092 -47.217,93.344 c -1.163,2.299 -3.52,3.748 -6.096,3.748 h -56.338 V -5.144 h 83.588 L -144.354,0 h -76.114 v 92.373 h 50.139 c 1.285,0 2.462,-0.723 3.042,-1.871 l 48.377,-95.646 h 5.892 L -64.121,92.373 -14.6,-5.144 H 5.144 V 69.643 L 0,79.787 Z"
             style="fill:#000000;fill-opacity:1;fill-rule:nonzero;stroke:none"
             id="path40" /></g><g
           id="g42"
           transform="translate(388.831,447.3304)"><path
             d="m 0,0 52.055,-102.661 h -1.846 c -2.582,0 -4.945,1.452 -6.113,3.756 L -3.41,-5.144 h -11.292 v -79.829 l -5.144,10.145 V 0 Z"
             style="fill:#000000;fill-opacity:1;fill-rule:nonzero;stroke:none"
             id="path44" /></g><g
           id="g46"
           transform="translate(450.8696,447.3304)"><path
             d="M 0,0 V -5.144 -74.822 L 5.144,-84.973 V -5.144 H 99.895 V 0 Z"
             style="fill:#000000;fill-opacity:1;fill-rule:nonzero;stroke:none"
             id="path48" /></g><g
           id="g50"
           transform="translate(512.9561,349.8136)"><path
             d="M 0,0 H -8.378 V 83.995 H -48.565 V 0 h -11.431 l -47.364,93.768 c -1.161,2.299 -3.518,3.749 -6.093,3.749 h -1.583 l 52.36,-102.661 h 19.255 v 83.995 h 29.899 V -5.144 H 5.144 v 83.995 h 32.665 v 5.144 H 0 Z"
             style="fill:#000000;fill-opacity:1;fill-rule:nonzero;stroke:none"
             id="path52" /></g><g
           id="g54"
           transform="translate(105.3744,447.3304)"><path
             d="m 0,0 c 25.772,0 46.664,-22.981 46.664,-51.33 0,-28.349 -20.892,-51.331 -46.664,-51.331 h -38.995 c -2.841,0 -5.144,2.303 -5.144,5.144 H -38.995 0 c 22.894,0 41.52,20.719 41.52,46.187 0,25.467 -18.626,46.186 -41.52,46.186 h -38.995 v -78.851 h 37.439 c 16.401,0 29.696,14.624 29.696,32.665 0,18.04 -13.295,32.664 -29.696,32.664 h -23.918 v -60.185 h -5.143 v 65.329 h 29.062 c 19.21,0 34.839,-16.96 34.839,-37.808 0,-20.848 -15.629,-37.809 -34.839,-37.809 h -42.584 v 5.144 65.329 V 0 Z"
             style="fill:#000000;fill-opacity:1;fill-rule:nonzero;stroke:none"
             id="path56" /></g></g></g></g></svg>
