<?xml version="1.0" encoding="UTF-8" standalone="no"?>
<!-- Created with Inkscape (http://www.inkscape.org/) -->

<svg
   version="1.1"
   id="svg2"
   xml:space="preserve"
   width="2560"
   height="2000"
   viewBox="0 0 2560 2000"
   sodipodi:docname="dd_logo_set_2017_RED (1).ai"
   xmlns:inkscape="http://www.inkscape.org/namespaces/inkscape"
   xmlns:sodipodi="http://sodipodi.sourceforge.net/DTD/sodipodi-0.dtd"
   xmlns="http://www.w3.org/2000/svg"
   xmlns:svg="http://www.w3.org/2000/svg"><defs
     id="defs6"><clipPath
       clipPathUnits="userSpaceOnUse"
       id="clipPath20"><path
         d="M 0,1500 H 1920 V 0 H 0 Z"
         id="path18" /></clipPath><clipPath
       clipPathUnits="userSpaceOnUse"
       id="clipPath62"><path
         d="M 0,1500 H 1920 V 0 H 0 Z"
         id="path60" /></clipPath><clipPath
       clipPathUnits="userSpaceOnUse"
       id="clipPath102"><path
         d="M 0,1500 H 1920 V 0 H 0 Z"
         id="path100" /></clipPath></defs><sodipodi:namedview
     id="namedview4"
     pagecolor="#ffffff"
     bordercolor="#666666"
     borderopacity="1.0"
     inkscape:pageshadow="2"
     inkscape:pageopacity="0.0"
     inkscape:pagecheckerboard="0" /><g
     id="g8"
     inkscape:groupmode="layer"
     inkscape:label="dd_logo_set_2017_RED (1)"
     transform="matrix(1.3333333,0,0,-1.3333333,0,2000)"><path
       d="m 960,0 h 959.999 V 1499.999 H 960 Z"
       style="fill:#000000;fill-opacity:1;fill-rule:nonzero;stroke:none"
       id="path10" /><path
       d="m 0.575,0 h 960 v 1499.999 h -960 z"
       style="fill:#ffffff;fill-opacity:1;fill-rule:nonzero;stroke:none"
       id="path12" /><g
       id="g14"><g
         id="g16"
         clip-path="url(#clipPath20)"><g
           id="g22"
           transform="translate(0.2876,1124.9999)"><path
             d="M 0,0 H 1919.424"
             style="fill:none;stroke:#999999;stroke-width:1;stroke-linecap:butt;stroke-linejoin:miter;stroke-miterlimit:10;stroke-dasharray:none;stroke-opacity:1"
             id="path24" /></g><g
           id="g26"
           transform="translate(0.2876,749.9999)"><path
             d="M 0,0 H 1919.424"
             style="fill:none;stroke:#999999;stroke-width:1;stroke-linecap:butt;stroke-linejoin:miter;stroke-miterlimit:10;stroke-dasharray:none;stroke-opacity:1"
             id="path28" /></g><g
           id="g30"
           transform="translate(0.2876,374.9999)"><path
             d="M 0,0 H 1919.424"
             style="fill:none;stroke:#999999;stroke-width:1;stroke-linecap:butt;stroke-linejoin:miter;stroke-miterlimit:10;stroke-dasharray:none;stroke-opacity:1"
             id="path32" /></g></g></g><text
       transform="matrix(1,0,0,-1,425.8267,1435.0967)"
       style="font-variant:normal;font-weight:normal;font-stretch:normal;font-size:12px;font-family:Verdana;-inkscape-font-specification:Verdana;writing-mode:lr-tb;fill:#ffffff;fill-opacity:1;fill-rule:nonzero;stroke:none"
       id="text54"><tspan
         x="0 7.836 13.56 17.448 29.724001 37.535999 43.259998 50.964001 55.782001 64.589996 69.917999 77.730003 84.582001 92.167198 99.919197"
         y="0"
         sodipodi:role="line"
         id="tspan34">Primary Stacked</tspan><tspan
         x="-7.428 0.40799999 6.132 10.02 22.296 30.108 35.832001 43.535999 48.354 57.966 65.849998 71.573997 75.461998 82.295998 90.18 98.375999 103.704 111.516"
         y="374.59201"
         sodipodi:role="line"
         id="tspan36">Primary Horizontal</tspan><tspan
         x="-16.344 -7.5359998 0.21600001 7.0679998 14.952 23.148001 31.224001 39.035999 44.759998 52.464001 57.287998 66.900002 74.783997 80.508003 84.396004 91.230003 99.113998 107.31 112.638 120.45"
         y="750.38397"
         sodipodi:role="line"
         id="tspan38">Secondary Horizontal</tspan><tspan
         x="-216.168 -208.884 -201 -192.924 -185.03999 -179.76961 -172.0656 -163.98959 -156.23759 -151.4136 -145.7616 -138.90961 -131.0256 -127.1376 -119.3256 -113.9976 -106.2456"
         y="1124.7841"
         sodipodi:role="line"
         id="tspan40">Logotype Isolated</tspan><tspan
         x="960.19202 968.02802 973.75201 977.64001 989.91602 997.72803 1003.452 1011.156 1015.974 1024.782 1030.11 1037.922 1044.774 1052.3593 1060.1112"
         y="0.012"
         sodipodi:role="line"
         id="tspan42">Primary Stacked</tspan><tspan
         x="952.76398 960.59998 966.32397 970.21198 982.48798 990.29999 996.02399 1003.728 1008.546 1018.158 1026.042 1031.766 1035.6541 1042.488 1050.3719 1058.568 1063.896 1071.708"
         y="374.604"
         sodipodi:role="line"
         id="tspan44">Primary Horizontal</tspan><tspan
         x="943.84802 952.65601 960.40802 967.26001 975.14398 983.34003 991.41602 999.22803 1004.952 1012.656 1017.48 1027.092 1034.976 1040.7 1044.588 1051.422 1059.306 1067.502 1072.83 1080.642"
         y="750.396"
         sodipodi:role="line"
         id="tspan46">Secondary Horizontal</tspan><tspan
         x="744.02399 751.30798 759.19202 767.26801 775.15198 780.42242 788.1264 796.20239 803.95441 808.77838 814.43042 821.28241 829.16638 833.05438 840.86639 846.1944 853.94641"
         y="1124.796"
         sodipodi:role="line"
         id="tspan48">Logotype Isolated</tspan><tspan
         x="223.116 233.832 241.644 247.368 255.07201 259.896 265.548 272.39999 280.284 284.172 291.98401 297.31201 305.064"
         y="1124.796"
         sodipodi:role="line"
         id="tspan50">Mark Isolated</tspan><tspan
         x="1183.308 1194.024 1201.8361 1207.5601 1215.264 1220.088 1225.74 1232.592 1240.476 1244.364 1252.176 1257.504 1265.256"
         y="1124.796"
         sodipodi:role="line"
         id="tspan52">Mark Isolated</tspan></text><g
       id="g56"><g
         id="g58"
         clip-path="url(#clipPath62)"><g
           id="g64"
           transform="translate(1441.2598,1330.826)"><path
             d="m 0,0 c 4.456,0 8.047,3.711 7.848,8.212 -0.182,4.133 -3.957,7.501 -8.095,7.501 h -23.58 c -0.222,0 -0.401,-0.179 -0.401,-0.4 V 0.4 c 0,-0.221 0.179,-0.4 0.401,-0.4 z m -0.624,47.139 h -37.551 c -0.221,0 -0.4,-0.18 -0.4,-0.401 V 31.826 c 0,-0.221 0.179,-0.4 0.4,-0.4 H -0.466 C 12.441,31.426 23.306,21.245 23.563,8.34 23.829,-4.898 13.178,-15.713 0,-15.713 h -38.175 c -0.221,0 -0.4,-0.179 -0.4,-0.4 v -14.912 c 0,-0.221 0.179,-0.401 0.4,-0.401 H 0 c 21.855,0 39.542,17.85 39.278,39.766 -0.259,21.609 -18.292,38.799 -39.902,38.799"
             style="fill:#ab192d;fill-opacity:1;fill-rule:nonzero;stroke:none"
             id="path66" /></g><g
           id="g68"
           transform="translate(1390.0635,1268.2743)"><path
             d="m 0,0 c -1.692,0 -3.458,-0.104 -4.432,-2.162 l -9.312,-19.901 c -0.041,-0.088 0.022,-0.189 0.12,-0.189 h 4.303 c 0.05,0 0.097,0.03 0.119,0.076 l 8.391,17.88 c 0.193,0.381 0.433,0.397 0.811,0.397 0.38,0 0.618,-0.016 0.812,-0.397 l 4.635,-9.831 C 5.46,-14.154 5.44,-14.185 5.411,-14.185 H 0.022 c -0.032,0 -0.06,-0.018 -0.074,-0.047 l -1.654,-3.543 c -0.024,-0.054 0.015,-0.116 0.074,-0.116 h 8.727 c 0.051,0 0.098,-0.029 0.12,-0.075 l 1.988,-4.21 c 0.022,-0.046 0.068,-0.076 0.12,-0.076 h 4.302 c 0.097,0 0.161,0.101 0.12,0.189 L 4.434,-2.162 C 3.459,-0.104 1.693,0 0,0 m 97.231,-18.886 h -2.937 c -6.618,0 -7.194,3.678 -7.194,7.76 0,4.082 0.576,7.761 7.194,7.761 h 2.937 c 6.619,0 7.196,-3.679 7.196,-7.761 0,-4.082 -0.577,-7.76 -7.196,-7.76 m 0,19.272 h -2.937 c -9.821,0 -11.587,-6 -11.587,-11.512 0,-5.513 1.766,-11.512 11.587,-11.512 h 2.937 c 9.822,0 11.587,5.999 11.587,11.512 0,5.512 -1.765,11.512 -11.587,11.512 M 65.019,-18.469 h -7.283 c -0.073,0 -0.132,0.059 -0.132,0.133 v 14.421 c 0,0.073 0.059,0.132 0.132,0.132 h 7.283 c 7.32,0 8.34,-2.075 8.34,-7.343 0,-5.346 -1.096,-7.343 -8.34,-7.343 M 65.019,0 H 53.488 c -0.073,0 -0.133,-0.06 -0.133,-0.133 v -21.986 c 0,-0.073 0.06,-0.133 0.133,-0.133 h 11.531 c 9.054,0 12.719,2.421 12.719,11.126 C 77.738,-3.546 75.346,0 65.019,0 m 76.986,0 h -1.93 c -1.779,0 -2.831,-1.411 -3.725,-3.449 l -6.222,-14.018 c -0.256,-0.562 -0.322,-0.594 -0.486,-0.594 h -0.39 c -0.163,0 -0.231,0.032 -0.486,0.594 l -6.221,14.018 C 121.649,-1.411 120.598,0 118.818,0 h -1.928 c -1.691,0 -3.099,-0.854 -3.1,-3.527 v -18.592 c 0,-0.073 0.059,-0.133 0.132,-0.133 h 3.983 c 0.074,0 0.133,0.06 0.133,0.133 v 16.077 c 0,0.508 0.132,0.667 0.363,0.667 h 0.436 c 0.38,0 0.684,-0.647 1.195,-1.841 l 5.447,-12.208 c 0.888,-1.974 1.727,-2.532 3.497,-2.532 h 0.942 c 1.769,0 2.609,0.558 3.498,2.532 l 5.446,12.208 c 0.51,1.194 0.815,1.841 1.196,1.841 h 0.434 c 0.233,0 0.363,-0.159 0.363,-0.667 v -16.077 c 0,-0.073 0.06,-0.133 0.133,-0.133 h 3.984 c 0.073,0 0.132,0.06 0.132,0.133 v 18.592 c 0,2.673 -1.41,3.527 -3.099,3.527 m 74.436,0 h -3.983 c -0.073,0 -0.133,-0.06 -0.133,-0.133 V -16.21 c 0,-0.507 -0.138,-0.666 -0.428,-0.666 h -0.307 c -0.334,0 -0.842,0.671 -1.8,1.784 l -9.679,12.037 C 198.238,-0.829 197.399,0 195.947,0 h -1.142 c -1.939,0 -3.099,-1.145 -3.1,-3.528 v -18.591 c 0,-0.073 0.06,-0.133 0.133,-0.133 h 3.982 c 0.074,0 0.133,0.06 0.133,0.133 v 16.077 c 0.001,0.508 0.138,0.667 0.429,0.667 h 0.306 c 0.334,0 0.842,-0.671 1.801,-1.785 l 9.679,-12.037 c 1.873,-2.225 2.712,-3.055 4.164,-3.055 h 1.143 c 1.795,0 3.097,0.98 3.099,3.529 v 18.59 c 0,0.073 -0.059,0.133 -0.133,0.133 m -53.044,0 c -1.693,0 -3.458,-0.104 -4.432,-2.162 l -9.313,-19.901 c -0.041,-0.088 0.024,-0.189 0.12,-0.189 h 4.303 c 0.052,0 0.098,0.03 0.12,0.076 l 8.392,17.88 c 0.192,0.381 0.432,0.397 0.81,0.397 0.379,0 0.619,-0.016 0.811,-0.397 l 4.636,-9.831 c 0.012,-0.027 -0.007,-0.058 -0.036,-0.058 h -5.389 c -0.031,0 -0.061,-0.018 -0.073,-0.047 l -1.655,-3.543 c -0.025,-0.054 0.014,-0.116 0.074,-0.116 h 8.727 c 0.051,0 0.098,-0.029 0.119,-0.075 l 1.99,-4.21 c 0.021,-0.046 0.068,-0.076 0.119,-0.076 h 4.301 c 0.098,0 0.163,0.101 0.121,0.189 L 167.83,-2.162 C 166.855,-0.104 165.091,0 163.397,0 m 22.376,0 h -3.983 c -0.073,0 -0.133,-0.06 -0.133,-0.133 v -21.986 c 0,-0.073 0.06,-0.133 0.133,-0.133 h 3.983 c 0.074,0 0.133,0.06 0.133,0.133 V -0.133 C 185.906,-0.06 185.847,0 185.773,0 M -12.702,-3.65 v 3.517 c 0,0.073 -0.06,0.133 -0.133,0.133 h -24.569 c -0.074,0 -0.133,-0.06 -0.133,-0.133 V -3.65 c 0,-0.073 0.059,-0.133 0.133,-0.133 h 9.984 c 0.073,0 0.133,-0.059 0.133,-0.132 v -18.204 c 0,-0.073 0.059,-0.133 0.133,-0.133 h 3.982 c 0.073,0 0.133,0.06 0.133,0.133 v 18.204 c 0,0.073 0.06,0.132 0.133,0.132 h 10.071 c 0.073,0 0.133,0.06 0.133,0.133 M -52.62,-9.458 h -12.62 c -0.074,0 -0.133,-0.059 -0.133,-0.132 v -3.444 c 0,-0.073 0.059,-0.133 0.133,-0.133 h 8.393 c 0.074,0 0.133,-0.059 0.133,-0.132 v -3.132 c 0,-0.04 -0.016,-0.079 -0.048,-0.105 -1.777,-1.5 -4.86,-2.35 -8.204,-2.35 -7.326,0 -8.82,2.435 -8.82,7.768 0,4.607 0.882,7.753 8.415,7.753 5.07,0 7.258,-1.069 8.179,-3.327 0.02,-0.049 0.066,-0.081 0.119,-0.081 h 4.246 c 0.089,0 0.154,0.088 0.131,0.174 -1.674,6.004 -7.942,6.985 -12.675,6.985 -8.661,0 -12.817,-4.012 -12.817,-11.509 0,-7.349 3.7,-11.515 13.262,-11.515 5.082,0 9.655,1.348 12.405,4.516 0.021,0.025 0.034,0.058 0.034,0.091 v 8.441 c 0,0.073 -0.06,0.132 -0.133,0.132 M -83.256,0 h -3.983 c -0.074,0 -0.133,-0.06 -0.133,-0.133 v -21.986 c 0,-0.073 0.059,-0.133 0.133,-0.133 h 3.983 c 0.073,0 0.132,0.06 0.132,0.133 v 21.986 c 0,0.073 -0.059,0.133 -0.132,0.133 m -21.782,-18.469 h -7.282 c -0.074,0 -0.133,0.059 -0.133,0.133 v 14.421 c 0,0.073 0.059,0.132 0.133,0.132 h 7.282 c 7.319,0 8.342,-2.075 8.342,-7.343 0,-5.346 -1.097,-7.343 -8.342,-7.343 m 0,18.469 h -11.53 c -0.074,0 -0.133,-0.06 -0.133,-0.133 v -21.986 c 0,-0.073 0.059,-0.133 0.133,-0.133 h 11.53 c 9.055,0 12.72,2.421 12.72,11.126 0,7.58 -2.394,11.126 -12.72,11.126 m 62.547,0 h -3.984 c -0.073,0 -0.131,-0.06 -0.131,-0.133 v -21.986 c 0,-0.073 0.058,-0.133 0.131,-0.133 h 3.984 c 0.073,0 0.133,0.06 0.133,0.133 v 21.986 c 0,0.073 -0.06,0.133 -0.133,0.133 M 36.862,-18.469 H 24.247 c -1.722,0.002 -2.197,0.253 -2.197,2.059 V -0.133 C 22.05,-0.06 21.99,0 21.917,0 H 17.934 C 17.86,0 17.801,-0.06 17.801,-0.133 v -16.755 c 0,-3.757 1.428,-5.364 5.389,-5.364 h 13.672 c 0.074,0 0.133,0.06 0.133,0.133 v 3.517 c 0,0.074 -0.059,0.133 -0.133,0.133"
             style="fill:#ab192d;fill-opacity:1;fill-rule:nonzero;stroke:none"
             id="path70" /></g><g
           id="g72"
           transform="translate(1348.3486,930.8437)"><path
             d="m 0,0 c 3.665,0 6.617,3.052 6.454,6.752 -0.15,3.399 -3.255,6.168 -6.657,6.168 h -19.39 c -0.181,0 -0.329,-0.148 -0.329,-0.329 V 0.329 C -19.922,0.147 -19.774,0 -19.593,0 Z M -0.513,38.761 H -31.39 c -0.181,0 -0.329,-0.148 -0.329,-0.329 V 26.17 c 0,-0.183 0.148,-0.329 0.329,-0.329 H -0.383 C 10.23,25.841 19.164,17.469 19.376,6.857 19.595,-4.027 10.836,-12.921 0,-12.921 h -31.39 c -0.181,0 -0.329,-0.146 -0.329,-0.329 v -12.262 c 0,-0.181 0.148,-0.329 0.329,-0.329 H 0 c 17.972,0 32.515,14.677 32.298,32.698 -0.214,17.769 -15.041,31.904 -32.811,31.904"
             style="fill:#ab192d;fill-opacity:1;fill-rule:nonzero;stroke:none"
             id="path74" /></g><g
           id="g76"
           transform="translate(1516.8125,963.3701)"><path
             d="m 0,0 c -1.693,0 -3.458,-0.104 -4.433,-2.162 l -9.312,-19.9 c -0.041,-0.088 0.023,-0.19 0.12,-0.19 h 4.303 c 0.051,0 0.097,0.03 0.12,0.076 l 8.391,17.879 c 0.193,0.382 0.432,0.398 0.811,0.398 0.379,0 0.618,-0.016 0.811,-0.398 l 4.635,-9.831 C 5.459,-14.154 5.439,-14.185 5.41,-14.185 H 0.021 c -0.031,0 -0.06,-0.018 -0.073,-0.046 l -1.654,-3.544 c -0.025,-0.054 0.014,-0.116 0.073,-0.116 h 8.728 c 0.051,0 0.097,-0.029 0.119,-0.076 l 1.988,-4.209 c 0.023,-0.046 0.069,-0.076 0.12,-0.076 h 4.302 c 0.098,0 0.161,0.102 0.12,0.19 l -9.311,19.9 C 3.458,-0.104 1.693,0 0,0 m -72.785,-48.768 h -2.937 c -6.618,0 -7.195,3.679 -7.195,7.761 0,4.081 0.577,7.761 7.195,7.761 h 2.937 c 6.618,0 7.195,-3.68 7.195,-7.761 0,-4.082 -0.577,-7.761 -7.195,-7.761 m 0,19.273 h -2.937 c -9.821,0 -11.588,-6 -11.588,-11.512 0,-5.513 1.767,-11.512 11.588,-11.512 h 2.937 c 9.821,0 11.588,5.999 11.588,11.512 0,5.512 -1.767,11.512 -11.588,11.512 m -32.213,-18.856 h -7.281 c -0.074,0 -0.133,0.06 -0.133,0.133 v 14.421 c 0,0.073 0.059,0.133 0.133,0.133 h 7.281 c 7.32,0 8.342,-2.075 8.342,-7.343 0,-5.346 -1.097,-7.344 -8.342,-7.344 m 0,18.47 h -11.53 c -0.074,0 -0.133,-0.059 -0.133,-0.133 V -52 c 0,-0.073 0.059,-0.133 0.133,-0.133 h 11.53 c 9.055,0 12.72,2.421 12.72,11.126 0,7.579 -2.393,11.126 -12.72,11.126 m 76.987,0 h -1.93 c -1.779,0 -2.831,-1.411 -3.726,-3.449 l -6.222,-14.018 c -0.255,-0.563 -0.322,-0.593 -0.486,-0.593 h -0.39 c -0.163,0 -0.23,0.03 -0.486,0.593 l -6.221,14.018 c -0.895,2.038 -1.947,3.449 -3.726,3.449 h -1.929 c -1.69,0 -3.099,-0.854 -3.1,-3.527 V -52 c 0,-0.073 0.06,-0.133 0.133,-0.133 h 3.983 c 0.073,0 0.132,0.06 0.132,0.133 v 16.077 c 0,0.507 0.132,0.667 0.364,0.667 h 0.435 c 0.381,0 0.686,-0.647 1.196,-1.842 l 5.446,-12.208 c 0.89,-1.973 1.728,-2.531 3.497,-2.531 h 0.942 c 1.771,0 2.61,0.558 3.498,2.531 l 5.447,12.208 c 0.509,1.195 0.814,1.842 1.195,1.842 h 0.435 c 0.232,0 0.364,-0.16 0.364,-0.667 V -52 c 0,-0.073 0.058,-0.133 0.132,-0.133 h 3.983 c 0.073,0 0.133,0.06 0.133,0.133 v 18.592 c -0.001,2.673 -1.409,3.527 -3.099,3.527 m 74.436,0 h -3.984 c -0.073,0 -0.132,-0.059 -0.132,-0.133 v -16.078 c 0,-0.507 -0.138,-0.666 -0.428,-0.666 h -0.307 c -0.335,0 -0.843,0.671 -1.801,1.785 l -9.678,12.036 c -1.873,2.226 -2.712,3.056 -4.164,3.056 h -1.143 c -1.938,0 -3.099,-1.145 -3.1,-3.529 V -52 c 0,-0.073 0.06,-0.133 0.133,-0.133 h 3.984 c 0.073,0 0.132,0.06 0.132,0.133 v 16.077 c 0,0.507 0.137,0.666 0.428,0.666 h 0.307 c 0.334,0 0.843,-0.671 1.801,-1.784 l 9.678,-12.037 c 1.873,-2.226 2.712,-3.055 4.164,-3.055 h 1.143 c 1.795,0 3.099,0.979 3.1,3.529 v 18.59 c 0,0.074 -0.06,0.133 -0.133,0.133 m -53.044,0 c -1.694,0 -3.458,-0.104 -4.433,-2.162 l -9.312,-19.901 c -0.041,-0.088 0.023,-0.189 0.121,-0.189 h 4.302 c 0.051,0 0.098,0.029 0.12,0.076 l 8.391,17.879 c 0.193,0.382 0.432,0.398 0.811,0.398 0.379,0 0.618,-0.016 0.81,-0.398 l 4.637,-9.831 c 0.012,-0.026 -0.008,-0.057 -0.037,-0.057 h -5.389 c -0.031,0 -0.059,-0.018 -0.073,-0.047 l -1.654,-3.543 c -0.026,-0.054 0.013,-0.115 0.073,-0.115 h 8.728 c 0.05,0 0.097,-0.03 0.12,-0.077 l 1.988,-4.209 c 0.021,-0.047 0.068,-0.076 0.12,-0.076 h 4.302 c 0.097,0 0.161,0.101 0.12,0.189 l -9.313,19.901 c -0.973,2.058 -2.739,2.162 -4.432,2.162 m 22.376,0 h -3.984 c -0.073,0 -0.132,-0.059 -0.132,-0.133 V -52 c 0,-0.073 0.059,-0.133 0.132,-0.133 h 3.984 c 0.073,0 0.133,0.06 0.133,0.133 v 21.986 c 0,0.074 -0.06,0.133 -0.133,0.133 m -28.46,26.231 v 3.517 c 0,0.073 -0.06,0.133 -0.133,0.133 h -24.569 c -0.074,0 -0.133,-0.06 -0.133,-0.133 V -3.65 c 0,-0.074 0.059,-0.132 0.133,-0.132 h 9.984 c 0.073,0 0.133,-0.06 0.133,-0.133 v -18.204 c 0,-0.073 0.059,-0.133 0.133,-0.133 h 3.983 c 0.073,0 0.133,0.06 0.133,0.133 v 18.204 c 0,0.073 0.059,0.133 0.132,0.133 h 10.071 c 0.073,0 0.133,0.058 0.133,0.132 m -39.918,-5.808 h -12.62 c -0.073,0 -0.133,-0.06 -0.133,-0.133 v -3.443 c 0,-0.073 0.06,-0.133 0.133,-0.133 h 8.394 c 0.074,0 0.132,-0.059 0.132,-0.132 v -3.132 c 0,-0.041 -0.016,-0.079 -0.048,-0.105 -1.776,-1.5 -4.86,-2.351 -8.204,-2.351 -7.326,0 -8.82,2.436 -8.82,7.769 0,4.606 0.883,7.753 8.415,7.753 5.07,0 7.259,-1.069 8.18,-3.326 0.019,-0.049 0.066,-0.082 0.119,-0.082 h 4.245 c 0.089,0 0.155,0.088 0.131,0.173 -1.673,6.005 -7.942,6.986 -12.675,6.986 -8.661,0 -12.816,-4.012 -12.816,-11.509 0,-7.349 3.699,-11.515 13.262,-11.515 5.081,0 9.655,1.348 12.405,4.516 0.021,0.025 0.033,0.058 0.033,0.091 v 8.44 c 0,0.073 -0.06,0.133 -0.133,0.133 M -83.257,0 h -3.983 c -0.073,0 -0.133,-0.06 -0.133,-0.133 v -21.986 c 0,-0.073 0.06,-0.133 0.133,-0.133 h 3.983 c 0.073,0 0.133,0.06 0.133,0.133 v 21.986 c 0,0.073 -0.06,0.133 -0.133,0.133 m -21.782,-18.469 h -7.281 c -0.074,0 -0.133,0.059 -0.133,0.132 v 14.422 c 0,0.073 0.059,0.133 0.133,0.133 h 7.281 c 7.32,0 8.342,-2.076 8.342,-7.344 0,-5.346 -1.097,-7.343 -8.342,-7.343 m 0,18.469 h -11.53 c -0.074,0 -0.133,-0.06 -0.133,-0.133 v -21.986 c 0,-0.073 0.059,-0.133 0.133,-0.133 h 11.53 c 9.055,0 12.721,2.421 12.721,11.126 0,7.58 -2.394,11.126 -12.721,11.126 m 62.548,0 h -3.984 c -0.073,0 -0.132,-0.06 -0.132,-0.133 v -21.986 c 0,-0.073 0.059,-0.133 0.132,-0.133 h 3.984 c 0.073,0 0.133,0.06 0.133,0.133 v 21.986 c 0,0.073 -0.06,0.133 -0.133,0.133 M 36.862,-18.469 H 24.246 c -1.722,0.001 -2.197,0.253 -2.197,2.059 V -0.133 C 22.049,-0.06 21.989,0 21.916,0 h -3.983 c -0.074,0 -0.132,-0.06 -0.132,-0.133 v -16.755 c 0,-3.758 1.427,-5.364 5.388,-5.364 h 13.673 c 0.074,0 0.133,0.06 0.133,0.133 v 3.517 c 0,0.074 -0.059,0.133 -0.133,0.133"
             style="fill:#ab192d;fill-opacity:1;fill-rule:nonzero;stroke:none"
             id="path78" /></g><g
           id="g80"
           transform="translate(1264.9141,557.08)"><path
             d="m 0,0 c 2.878,0 5.196,2.397 5.068,5.304 -0.117,2.67 -2.555,4.844 -5.227,4.844 H -15.39 c -0.142,0 -0.257,-0.115 -0.257,-0.258 V 0.259 C -15.647,0.116 -15.532,0 -15.39,0 Z m -0.403,30.445 h -24.252 c -0.143,0 -0.259,-0.116 -0.259,-0.258 v -9.631 c 0,-0.144 0.116,-0.259 0.259,-0.259 h 24.354 c 8.336,0 15.353,-6.575 15.52,-14.91 C 15.391,-3.163 8.511,-10.147 0,-10.147 h -24.655 c -0.143,0 -0.259,-0.117 -0.259,-0.259 v -9.631 c 0,-0.144 0.116,-0.259 0.259,-0.259 H 0 c 14.115,0 25.539,11.527 25.368,25.683 C 25.2,19.343 13.554,30.445 -0.403,30.445"
             style="fill:#ab192d;fill-opacity:1;fill-rule:nonzero;stroke:none"
             id="path82" /></g><g
           id="g84"
           transform="translate(1423.4258,573.2802)"><path
             d="m 0,0 c -1.692,0 -3.457,-0.104 -4.432,-2.162 l -9.312,-19.9 c -0.041,-0.088 0.022,-0.19 0.12,-0.19 h 4.303 c 0.05,0 0.097,0.03 0.12,0.076 l 8.39,17.879 c 0.193,0.382 0.433,0.398 0.811,0.398 0.38,0 0.618,-0.016 0.812,-0.398 l 4.635,-9.83 C 5.46,-14.154 5.44,-14.185 5.411,-14.185 H 0.022 c -0.032,0 -0.06,-0.018 -0.074,-0.046 l -1.654,-3.544 c -0.024,-0.054 0.015,-0.116 0.074,-0.116 h 8.727 c 0.051,0 0.098,-0.029 0.12,-0.076 l 1.988,-4.209 c 0.023,-0.046 0.068,-0.076 0.12,-0.076 h 4.302 c 0.097,0 0.161,0.102 0.12,0.19 l -9.311,19.9 C 3.459,-0.104 1.693,0 0,0 m 97.231,-18.887 h -2.936 c -6.619,0 -7.195,3.679 -7.195,7.761 0,4.082 0.576,7.761 7.195,7.761 h 2.936 c 6.619,0 7.196,-3.679 7.196,-7.761 0,-4.082 -0.577,-7.761 -7.196,-7.761 m 0,19.273 h -2.936 c -9.822,0 -11.588,-5.999 -11.588,-11.512 0,-5.513 1.766,-11.512 11.588,-11.512 h 2.936 c 9.822,0 11.587,5.999 11.587,11.512 0,5.513 -1.765,11.512 -11.587,11.512 M 65.019,-18.469 h -7.282 c -0.073,0 -0.133,0.059 -0.133,0.132 v 14.422 c 0,0.073 0.06,0.133 0.133,0.133 h 7.282 c 7.32,0 8.341,-2.076 8.341,-7.344 0,-5.346 -1.096,-7.343 -8.341,-7.343 M 65.019,0 H 53.488 c -0.073,0 -0.133,-0.06 -0.133,-0.133 v -21.986 c 0,-0.073 0.06,-0.133 0.133,-0.133 h 11.531 c 9.054,0 12.719,2.421 12.719,11.126 C 77.738,-3.546 75.346,0 65.019,0 m 76.986,0 h -1.93 c -1.779,0 -2.831,-1.41 -3.725,-3.448 l -6.222,-14.019 c -0.255,-0.562 -0.322,-0.594 -0.486,-0.594 h -0.39 c -0.163,0 -0.231,0.032 -0.486,0.594 l -6.221,14.019 C 121.649,-1.41 120.598,0 118.818,0 h -1.928 c -1.691,0 -3.099,-0.854 -3.1,-3.527 v -18.592 c 0,-0.073 0.06,-0.133 0.133,-0.133 h 3.982 c 0.074,0 0.133,0.06 0.133,0.133 v 16.078 c 0,0.507 0.132,0.666 0.363,0.666 h 0.436 c 0.381,0 0.685,-0.646 1.195,-1.841 l 5.447,-12.208 c 0.888,-1.973 1.728,-2.532 3.497,-2.532 h 0.942 c 1.77,0 2.609,0.559 3.498,2.532 l 5.446,12.208 c 0.51,1.195 0.815,1.841 1.196,1.841 h 0.434 c 0.233,0 0.363,-0.159 0.363,-0.666 v -16.078 c 0,-0.073 0.06,-0.133 0.133,-0.133 h 3.984 c 0.073,0 0.132,0.06 0.132,0.133 v 18.592 c 0,2.673 -1.409,3.527 -3.099,3.527 m 74.436,0 h -3.983 c -0.073,0 -0.133,-0.06 -0.133,-0.133 V -16.21 c 0,-0.508 -0.138,-0.667 -0.428,-0.667 h -0.306 c -0.335,0 -0.843,0.672 -1.801,1.785 l -9.679,12.037 C 198.238,-0.829 197.399,0 195.947,0 h -1.142 c -1.939,0 -3.099,-1.145 -3.1,-3.528 v -18.591 c 0,-0.073 0.06,-0.133 0.133,-0.133 h 3.982 c 0.074,0 0.133,0.06 0.133,0.133 v 16.078 c 0.001,0.507 0.138,0.666 0.429,0.666 h 0.306 c 0.334,0 0.842,-0.672 1.801,-1.785 l 9.679,-12.036 c 1.873,-2.227 2.712,-3.056 4.164,-3.056 h 1.143 c 1.795,0 3.098,0.98 3.099,3.528 v 18.591 c 0,0.073 -0.059,0.133 -0.133,0.133 m -53.044,0 c -1.693,0 -3.458,-0.104 -4.432,-2.162 l -9.313,-19.9 c -0.041,-0.088 0.024,-0.19 0.12,-0.19 h 4.303 c 0.052,0 0.099,0.03 0.12,0.076 l 8.392,17.879 c 0.192,0.382 0.432,0.398 0.81,0.398 0.379,0 0.619,-0.016 0.811,-0.398 l 4.636,-9.83 c 0.012,-0.027 -0.007,-0.058 -0.036,-0.058 h -5.389 c -0.031,0 -0.06,-0.018 -0.073,-0.046 l -1.655,-3.544 c -0.025,-0.054 0.014,-0.116 0.074,-0.116 h 8.727 c 0.051,0 0.098,-0.029 0.12,-0.076 l 1.989,-4.209 c 0.021,-0.046 0.068,-0.076 0.119,-0.076 h 4.301 c 0.098,0 0.163,0.102 0.122,0.19 l -9.313,19.9 C 166.856,-0.104 165.091,0 163.397,0 m 22.376,0 h -3.983 c -0.073,0 -0.133,-0.06 -0.133,-0.133 v -21.986 c 0,-0.073 0.06,-0.133 0.133,-0.133 h 3.983 c 0.074,0 0.133,0.06 0.133,0.133 V -0.133 C 185.906,-0.06 185.847,0 185.773,0 M -12.702,-3.65 v 3.517 c 0,0.073 -0.06,0.133 -0.133,0.133 h -24.569 c -0.074,0 -0.133,-0.06 -0.133,-0.133 V -3.65 c 0,-0.074 0.059,-0.132 0.133,-0.132 h 9.984 c 0.073,0 0.133,-0.06 0.133,-0.133 v -18.204 c 0,-0.073 0.059,-0.133 0.133,-0.133 h 3.982 c 0.073,0 0.133,0.06 0.133,0.133 v 18.204 c 0,0.073 0.06,0.133 0.133,0.133 h 10.071 c 0.073,0 0.133,0.058 0.133,0.132 M -52.62,-9.458 h -12.62 c -0.073,0 -0.133,-0.06 -0.133,-0.133 v -3.443 c 0,-0.073 0.06,-0.132 0.133,-0.132 h 8.393 c 0.074,0 0.133,-0.06 0.133,-0.133 v -3.132 c 0,-0.04 -0.016,-0.079 -0.048,-0.105 -1.777,-1.5 -4.86,-2.351 -8.204,-2.351 -7.326,0 -8.82,2.436 -8.82,7.769 0,4.607 0.882,7.753 8.415,7.753 5.07,0 7.258,-1.069 8.179,-3.326 0.02,-0.049 0.066,-0.082 0.119,-0.082 h 4.246 c 0.089,0 0.154,0.088 0.131,0.173 -1.673,6.005 -7.942,6.986 -12.675,6.986 -8.661,0 -12.817,-4.012 -12.817,-11.509 0,-7.349 3.7,-11.515 13.262,-11.515 5.082,0 9.655,1.348 12.405,4.516 0.022,0.025 0.034,0.058 0.034,0.091 v 8.44 c 0,0.073 -0.06,0.133 -0.133,0.133 M -83.256,0 h -3.983 c -0.074,0 -0.133,-0.06 -0.133,-0.133 v -21.986 c 0,-0.073 0.059,-0.133 0.133,-0.133 h 3.983 c 0.073,0 0.133,0.06 0.133,0.133 v 21.986 c 0,0.073 -0.06,0.133 -0.133,0.133 m -21.782,-18.469 h -7.282 c -0.074,0 -0.132,0.059 -0.132,0.132 v 14.422 c 0,0.073 0.058,0.133 0.132,0.133 h 7.282 c 7.319,0 8.342,-2.076 8.342,-7.344 0,-5.346 -1.097,-7.343 -8.342,-7.343 m 0,18.469 h -11.53 c -0.074,0 -0.133,-0.06 -0.133,-0.133 v -21.986 c 0,-0.073 0.059,-0.133 0.133,-0.133 h 11.53 c 9.055,0 12.72,2.421 12.72,11.126 0,7.58 -2.393,11.126 -12.72,11.126 m 62.548,0 h -3.984 c -0.073,0 -0.132,-0.06 -0.132,-0.133 v -21.986 c 0,-0.073 0.059,-0.133 0.132,-0.133 h 3.984 c 0.073,0 0.132,0.06 0.132,0.133 V -0.133 C -42.358,-0.06 -42.417,0 -42.49,0 M 36.863,-18.469 H 24.247 c -1.722,0.001 -2.197,0.253 -2.197,2.059 V -0.133 C 22.05,-0.06 21.99,0 21.917,0 H 17.934 C 17.86,0 17.801,-0.06 17.801,-0.133 v -16.755 c 0,-3.758 1.428,-5.364 5.389,-5.364 h 13.673 c 0.074,0 0.132,0.06 0.132,0.133 v 3.517 c 0,0.074 -0.058,0.133 -0.132,0.133"
             style="fill:#ab192d;fill-opacity:1;fill-rule:nonzero;stroke:none"
             id="path86" /></g><g
           id="g88"
           transform="translate(1178.8955,198.6122)"><path
             d="m 0,0 c -1.693,0 -3.458,-0.104 -4.433,-2.162 l -9.312,-19.9 c -0.041,-0.088 0.023,-0.19 0.12,-0.19 h 4.303 c 0.051,0 0.097,0.03 0.12,0.076 l 8.39,17.879 c 0.193,0.382 0.433,0.398 0.812,0.398 0.379,0 0.618,-0.016 0.811,-0.398 l 4.635,-9.83 C 5.459,-14.154 5.439,-14.185 5.41,-14.185 H 0.021 c -0.032,0 -0.06,-0.018 -0.073,-0.046 l -1.655,-3.544 c -0.024,-0.054 0.015,-0.116 0.074,-0.116 h 8.727 c 0.052,0 0.098,-0.029 0.12,-0.076 l 1.988,-4.209 c 0.023,-0.046 0.069,-0.076 0.12,-0.076 h 4.302 c 0.097,0 0.161,0.102 0.12,0.19 l -9.311,19.9 C 3.458,-0.104 1.692,0 0,0 m 97.23,-18.887 h -2.936 c -6.619,0 -7.195,3.679 -7.195,7.761 0,4.082 0.576,7.761 7.195,7.761 h 2.936 c 6.619,0 7.196,-3.679 7.196,-7.761 0,-4.082 -0.577,-7.761 -7.196,-7.761 m 0,19.273 h -2.936 c -9.822,0 -11.588,-5.999 -11.588,-11.512 0,-5.513 1.766,-11.512 11.588,-11.512 h 2.936 c 9.822,0 11.588,5.999 11.588,11.512 0,5.513 -1.766,11.512 -11.588,11.512 M 65.018,-18.469 h -7.282 c -0.073,0 -0.132,0.059 -0.132,0.133 v 14.421 c 0,0.073 0.059,0.133 0.132,0.133 h 7.282 c 7.32,0 8.341,-2.075 8.341,-7.344 0,-5.346 -1.096,-7.343 -8.341,-7.343 M 65.018,0 H 53.487 c -0.073,0 -0.133,-0.06 -0.133,-0.133 v -21.986 c 0,-0.073 0.06,-0.133 0.133,-0.133 h 11.531 c 9.054,0 12.719,2.421 12.719,11.126 C 77.737,-3.546 75.345,0 65.018,0 m 76.987,0 h -1.931 c -1.779,0 -2.831,-1.41 -3.725,-3.448 l -6.222,-14.019 c -0.255,-0.562 -0.322,-0.594 -0.486,-0.594 h -0.39 c -0.163,0 -0.23,0.032 -0.486,0.594 l -6.221,14.019 C 121.648,-1.41 120.597,0 118.817,0 h -1.928 c -1.691,0 -3.099,-0.854 -3.1,-3.527 v -18.592 c 0,-0.073 0.06,-0.133 0.133,-0.133 h 3.982 c 0.074,0 0.133,0.06 0.133,0.133 v 16.078 c 0,0.507 0.132,0.666 0.363,0.666 h 0.436 c 0.381,0 0.685,-0.646 1.195,-1.841 l 5.447,-12.208 c 0.889,-1.973 1.728,-2.532 3.497,-2.532 h 0.942 c 1.77,0 2.609,0.559 3.498,2.532 l 5.446,12.208 c 0.51,1.195 0.815,1.841 1.196,1.841 h 0.434 c 0.233,0 0.363,-0.159 0.363,-0.666 v -16.078 c 0,-0.073 0.06,-0.133 0.133,-0.133 h 3.984 c 0.073,0 0.133,0.06 0.133,0.133 V -3.527 C 145.103,-0.854 143.694,0 142.005,0 m 74.435,0 h -3.983 c -0.073,0 -0.133,-0.06 -0.133,-0.133 V -16.21 c 0,-0.508 -0.137,-0.667 -0.428,-0.667 h -0.306 c -0.335,0 -0.843,0.672 -1.801,1.785 L 200.11,-3.055 C 198.237,-0.829 197.398,0 195.946,0 h -1.142 c -1.939,0 -3.099,-1.145 -3.1,-3.528 v -18.591 c 0,-0.073 0.06,-0.133 0.133,-0.133 h 3.983 c 0.074,0 0.132,0.06 0.132,0.133 v 16.078 c 0.001,0.507 0.138,0.666 0.429,0.666 h 0.306 c 0.334,0 0.843,-0.672 1.801,-1.785 l 9.679,-12.036 c 1.873,-2.227 2.712,-3.056 4.164,-3.056 h 1.143 c 1.795,0 3.098,0.98 3.099,3.528 V -0.133 C 216.573,-0.06 216.514,0 216.44,0 m -53.044,0 c -1.693,0 -3.458,-0.104 -4.432,-2.162 l -9.313,-19.9 c -0.041,-0.088 0.024,-0.19 0.12,-0.19 h 4.303 c 0.052,0 0.099,0.03 0.12,0.076 l 8.392,17.879 c 0.192,0.382 0.432,0.398 0.81,0.398 0.379,0 0.619,-0.016 0.811,-0.398 l 4.636,-9.83 c 0.012,-0.027 -0.007,-0.058 -0.036,-0.058 h -5.389 c -0.031,0 -0.06,-0.018 -0.073,-0.046 l -1.655,-3.544 c -0.025,-0.054 0.014,-0.116 0.074,-0.116 h 8.727 c 0.051,0 0.098,-0.029 0.12,-0.076 l 1.989,-4.209 c 0.021,-0.046 0.068,-0.076 0.119,-0.076 h 4.302 c 0.097,0 0.162,0.102 0.121,0.19 l -9.313,19.9 C 166.855,-0.104 165.09,0 163.396,0 m 22.376,0 h -3.983 c -0.073,0 -0.133,-0.06 -0.133,-0.133 v -21.986 c 0,-0.073 0.06,-0.133 0.133,-0.133 h 3.983 c 0.074,0 0.133,0.06 0.133,0.133 V -0.133 C 185.905,-0.06 185.846,0 185.772,0 M -12.703,-3.649 v 3.516 c 0,0.073 -0.06,0.133 -0.133,0.133 h -24.569 c -0.074,0 -0.133,-0.06 -0.133,-0.133 v -3.516 c 0,-0.075 0.059,-0.133 0.133,-0.133 h 9.984 c 0.073,0 0.133,-0.06 0.133,-0.133 v -18.204 c 0,-0.073 0.059,-0.133 0.133,-0.133 h 3.982 c 0.073,0 0.133,0.06 0.133,0.133 v 18.204 c 0,0.073 0.06,0.133 0.133,0.133 h 10.071 c 0.073,0 0.133,0.058 0.133,0.133 m -39.918,-5.809 h -12.62 c -0.073,0 -0.133,-0.06 -0.133,-0.133 v -3.443 c 0,-0.073 0.06,-0.132 0.133,-0.132 h 8.393 c 0.074,0 0.133,-0.06 0.133,-0.133 v -3.132 c 0,-0.04 -0.016,-0.079 -0.048,-0.105 -1.777,-1.5 -4.86,-2.351 -8.204,-2.351 -7.326,0 -8.82,2.436 -8.82,7.769 0,4.607 0.882,7.753 8.415,7.753 5.07,0 7.258,-1.069 8.179,-3.326 0.02,-0.049 0.066,-0.082 0.119,-0.082 h 4.246 c 0.089,0 0.154,0.088 0.131,0.173 -1.673,6.005 -7.942,6.986 -12.675,6.986 -8.661,0 -12.816,-4.012 -12.816,-11.509 0,-7.349 3.699,-11.515 13.261,-11.515 5.082,0 9.656,1.348 12.405,4.516 0.022,0.025 0.034,0.058 0.034,0.091 v 8.44 c 0,0.073 -0.06,0.133 -0.133,0.133 M -83.257,0 h -3.983 c -0.073,0 -0.133,-0.06 -0.133,-0.133 v -21.986 c 0,-0.073 0.06,-0.133 0.133,-0.133 h 3.983 c 0.073,0 0.133,0.06 0.133,0.133 v 21.986 c 0,0.073 -0.06,0.133 -0.133,0.133 m -21.782,-18.469 h -7.282 c -0.074,0 -0.132,0.059 -0.132,0.133 v 14.421 c 0,0.073 0.058,0.133 0.132,0.133 h 7.282 c 7.319,0 8.342,-2.075 8.342,-7.344 0,-5.346 -1.097,-7.343 -8.342,-7.343 m 0,18.469 h -11.53 c -0.074,0 -0.133,-0.06 -0.133,-0.133 v -21.986 c 0,-0.073 0.059,-0.133 0.133,-0.133 h 11.53 c 9.055,0 12.721,2.421 12.721,11.126 0,7.58 -2.394,11.126 -12.721,11.126 m 62.548,0 h -3.984 c -0.073,0 -0.132,-0.06 -0.132,-0.133 v -21.986 c 0,-0.073 0.059,-0.133 0.132,-0.133 h 3.984 c 0.073,0 0.132,0.06 0.132,0.133 V -0.133 C -42.359,-0.06 -42.418,0 -42.491,0 M 36.862,-18.469 H 24.246 c -1.722,0.001 -2.197,0.253 -2.197,2.059 V -0.133 C 22.049,-0.06 21.989,0 21.916,0 H 17.933 C 17.859,0 17.8,-0.06 17.8,-0.133 v -16.755 c 0,-3.758 1.428,-5.364 5.389,-5.364 h 13.673 c 0.074,0 0.132,0.06 0.132,0.133 v 3.517 c 0,0.074 -0.058,0.133 -0.132,0.133"
             style="fill:#ab192d;fill-opacity:1;fill-rule:nonzero;stroke:none"
             id="path90" /></g><g
           id="g92"
           transform="translate(1653.4678,179.6298)"><path
             d="m 0,0 c 4.457,0 8.047,3.712 7.849,8.212 -0.183,4.134 -3.958,7.501 -8.095,7.501 h -23.581 c -0.221,0 -0.401,-0.179 -0.401,-0.4 V 0.4 c 0,-0.22 0.18,-0.4 0.401,-0.4 z m -0.624,47.139 h -37.55 c -0.222,0 -0.4,-0.179 -0.4,-0.401 V 31.826 c 0,-0.221 0.178,-0.4 0.4,-0.4 h 37.708 c 12.907,0 23.772,-10.181 24.03,-23.085 C 23.829,-4.897 13.178,-15.713 0,-15.713 h -38.174 c -0.222,0 -0.4,-0.179 -0.4,-0.4 v -14.912 c 0,-0.221 0.178,-0.4 0.4,-0.4 H 0 c 21.855,0 39.543,17.849 39.279,39.766 -0.26,21.608 -18.293,38.798 -39.903,38.798"
             style="fill:#ab192d;fill-opacity:1;fill-rule:nonzero;stroke:none"
             id="path94" /></g></g></g><g
       id="g96"><g
         id="g98"
         clip-path="url(#clipPath102)"><g
           id="g104"
           transform="translate(481.0718,1330.826)"><path
             d="m 0,0 c 4.457,0 8.047,3.711 7.849,8.212 -0.183,4.133 -3.958,7.501 -8.096,7.501 h -23.58 c -0.221,0 -0.401,-0.179 -0.401,-0.4 V 0.4 c 0,-0.221 0.18,-0.4 0.401,-0.4 z m -0.624,47.139 h -37.55 c -0.221,0 -0.4,-0.18 -0.4,-0.401 V 31.826 c 0,-0.221 0.179,-0.4 0.4,-0.4 H -0.465 C 12.441,31.426 23.306,21.245 23.564,8.34 23.83,-4.898 13.178,-15.713 0,-15.713 h -38.174 c -0.221,0 -0.4,-0.179 -0.4,-0.4 v -14.912 c 0,-0.221 0.179,-0.401 0.4,-0.401 H 0 c 21.855,0 39.543,17.85 39.279,39.766 -0.26,21.609 -18.293,38.799 -39.903,38.799"
             style="fill:#ab192d;fill-opacity:1;fill-rule:nonzero;stroke:none"
             id="path106" /></g><g
           id="g108"
           transform="translate(429.876,1268.2743)"><path
             d="m 0,0 c -1.693,0 -3.458,-0.104 -4.432,-2.162 l -9.313,-19.901 c -0.041,-0.088 0.023,-0.189 0.12,-0.189 h 4.303 c 0.051,0 0.098,0.03 0.12,0.076 l 8.391,17.88 c 0.193,0.381 0.433,0.397 0.811,0.397 0.379,0 0.618,-0.016 0.811,-0.397 l 4.636,-9.831 C 5.459,-14.154 5.44,-14.185 5.411,-14.185 H 0.022 c -0.032,0 -0.06,-0.018 -0.074,-0.047 l -1.654,-3.543 c -0.025,-0.054 0.014,-0.116 0.074,-0.116 h 8.727 c 0.051,0 0.098,-0.029 0.12,-0.075 l 1.988,-4.21 c 0.022,-0.046 0.068,-0.076 0.12,-0.076 h 4.302 c 0.097,0 0.161,0.101 0.12,0.189 L 4.433,-2.162 C 3.459,-0.104 1.693,0 0,0 m 97.231,-18.886 h -2.937 c -6.618,0 -7.195,3.678 -7.195,7.76 0,4.082 0.577,7.761 7.195,7.761 h 2.937 c 6.618,0 7.195,-3.679 7.195,-7.761 0,-4.082 -0.577,-7.76 -7.195,-7.76 m 0,19.272 h -2.937 c -9.821,0 -11.587,-6 -11.587,-11.512 0,-5.513 1.766,-11.512 11.587,-11.512 h 2.937 c 9.821,0 11.587,5.999 11.587,11.512 0,5.512 -1.766,11.512 -11.587,11.512 M 65.019,-18.469 h -7.282 c -0.073,0 -0.133,0.059 -0.133,0.133 v 14.421 c 0,0.073 0.06,0.132 0.133,0.132 h 7.282 c 7.319,0 8.341,-2.075 8.341,-7.343 0,-5.346 -1.097,-7.343 -8.341,-7.343 M 65.019,0 H 53.488 c -0.073,0 -0.133,-0.06 -0.133,-0.133 v -21.986 c 0,-0.073 0.06,-0.133 0.133,-0.133 h 11.531 c 9.054,0 12.719,2.421 12.719,11.126 C 77.738,-3.546 75.345,0 65.019,0 m 76.986,0 h -1.93 c -1.779,0 -2.831,-1.411 -3.725,-3.449 l -6.222,-14.018 c -0.255,-0.562 -0.323,-0.594 -0.486,-0.594 h -0.39 c -0.164,0 -0.231,0.032 -0.486,0.594 l -6.221,14.018 C 121.649,-1.411 120.598,0 118.818,0 h -1.929 c -1.69,0 -3.098,-0.854 -3.099,-3.527 v -18.592 c 0,-0.073 0.059,-0.133 0.132,-0.133 h 3.983 c 0.074,0 0.133,0.06 0.133,0.133 v 16.077 c 0,0.508 0.131,0.667 0.363,0.667 h 0.435 c 0.381,0 0.686,-0.647 1.196,-1.841 l 5.447,-12.208 c 0.888,-1.974 1.728,-2.532 3.497,-2.532 h 0.942 c 1.77,0 2.609,0.558 3.498,2.532 l 5.446,12.208 c 0.51,1.194 0.814,1.841 1.195,1.841 h 0.435 c 0.233,0 0.363,-0.159 0.363,-0.667 v -16.077 c 0,-0.073 0.06,-0.133 0.133,-0.133 h 3.983 c 0.073,0 0.133,0.06 0.133,0.133 V -3.527 C 145.103,-0.854 143.695,0 142.005,0 m 74.436,0 h -3.983 c -0.074,0 -0.133,-0.06 -0.133,-0.133 V -16.21 c 0,-0.507 -0.138,-0.666 -0.428,-0.666 h -0.307 c -0.334,0 -0.842,0.671 -1.8,1.784 l -9.679,12.037 C 198.238,-0.829 197.399,0 195.947,0 h -1.143 c -1.938,0 -3.098,-1.145 -3.099,-3.528 v -18.591 c 0,-0.073 0.059,-0.133 0.132,-0.133 h 3.983 c 0.074,0 0.133,0.06 0.133,0.133 v 16.077 c 0.001,0.508 0.138,0.667 0.429,0.667 h 0.306 c 0.334,0 0.842,-0.671 1.801,-1.785 l 9.678,-12.037 c 1.874,-2.225 2.712,-3.055 4.165,-3.055 h 1.143 c 1.795,0 3.098,0.98 3.099,3.529 v 18.59 c 0,0.073 -0.059,0.133 -0.133,0.133 m -53.044,0 c -1.693,0 -3.458,-0.104 -4.432,-2.162 l -9.313,-19.901 c -0.041,-0.088 0.023,-0.189 0.12,-0.189 h 4.303 c 0.051,0 0.098,0.03 0.12,0.076 l 8.391,17.88 c 0.193,0.381 0.433,0.397 0.811,0.397 0.379,0 0.618,-0.016 0.811,-0.397 l 4.636,-9.831 c 0.012,-0.027 -0.007,-0.058 -0.036,-0.058 h -5.389 c -0.032,0 -0.06,-0.018 -0.074,-0.047 l -1.654,-3.543 c -0.025,-0.054 0.014,-0.116 0.074,-0.116 h 8.727 c 0.051,0 0.098,-0.029 0.12,-0.075 l 1.988,-4.21 c 0.022,-0.046 0.068,-0.076 0.12,-0.076 h 4.301 c 0.098,0 0.162,0.101 0.121,0.189 L 167.83,-2.162 C 166.856,-0.104 165.09,0 163.397,0 m 22.376,0 h -3.983 c -0.073,0 -0.133,-0.06 -0.133,-0.133 v -21.986 c 0,-0.073 0.06,-0.133 0.133,-0.133 h 3.983 c 0.073,0 0.133,0.06 0.133,0.133 v 21.986 c 0,0.073 -0.06,0.133 -0.133,0.133 M -12.703,-3.65 v 3.517 c 0,0.073 -0.059,0.133 -0.132,0.133 h -24.57 c -0.073,0 -0.133,-0.06 -0.133,-0.133 V -3.65 c 0,-0.073 0.06,-0.133 0.133,-0.133 h 9.985 c 0.073,0 0.132,-0.059 0.132,-0.132 v -18.204 c 0,-0.073 0.06,-0.133 0.133,-0.133 h 3.983 c 0.073,0 0.133,0.06 0.133,0.133 v 18.204 c 0,0.073 0.06,0.132 0.133,0.132 h 10.071 c 0.073,0 0.132,0.06 0.132,0.133 M -52.62,-9.458 h -12.621 c -0.073,0 -0.133,-0.059 -0.133,-0.132 v -3.444 c 0,-0.073 0.06,-0.133 0.133,-0.133 h 8.394 c 0.074,0 0.133,-0.059 0.133,-0.132 v -3.132 c 0,-0.04 -0.017,-0.079 -0.048,-0.105 -1.777,-1.5 -4.861,-2.35 -8.204,-2.35 -7.326,0 -8.82,2.435 -8.82,7.768 0,4.607 0.882,7.753 8.414,7.753 5.071,0 7.259,-1.069 8.18,-3.327 0.02,-0.049 0.066,-0.081 0.119,-0.081 h 4.246 c 0.088,0 0.154,0.088 0.13,0.174 -1.673,6.004 -7.941,6.985 -12.675,6.985 -8.661,0 -12.816,-4.012 -12.816,-11.509 0,-7.349 3.7,-11.515 13.262,-11.515 5.082,0 9.655,1.348 12.405,4.516 0.021,0.025 0.033,0.058 0.033,0.091 v 8.441 c 0,0.073 -0.059,0.132 -0.132,0.132 M -83.256,0 h -3.984 c -0.073,0 -0.133,-0.06 -0.133,-0.133 v -21.986 c 0,-0.073 0.06,-0.133 0.133,-0.133 h 3.984 c 0.073,0 0.132,0.06 0.132,0.133 v 21.986 c 0,0.073 -0.059,0.133 -0.132,0.133 m -21.782,-18.469 h -7.282 c -0.074,0 -0.133,0.059 -0.133,0.133 v 14.421 c 0,0.073 0.059,0.132 0.133,0.132 h 7.282 c 7.319,0 8.341,-2.075 8.341,-7.343 0,-5.346 -1.096,-7.343 -8.341,-7.343 m 0,18.469 h -11.53 c -0.074,0 -0.133,-0.06 -0.133,-0.133 v -21.986 c 0,-0.073 0.059,-0.133 0.133,-0.133 h 11.53 c 9.054,0 12.72,2.421 12.72,11.126 0,7.58 -2.393,11.126 -12.72,11.126 m 62.547,0 h -3.983 c -0.073,0 -0.133,-0.06 -0.133,-0.133 v -21.986 c 0,-0.073 0.06,-0.133 0.133,-0.133 h 3.983 c 0.074,0 0.133,0.06 0.133,0.133 V -0.133 C -42.358,-0.06 -42.417,0 -42.491,0 M 36.863,-18.469 H 24.247 c -1.722,0.002 -2.197,0.253 -2.197,2.059 V -0.133 C 22.05,-0.06 21.99,0 21.917,0 H 17.934 C 17.86,0 17.801,-0.06 17.801,-0.133 v -16.755 c 0,-3.757 1.428,-5.364 5.389,-5.364 h 13.673 c 0.073,0 0.132,0.06 0.132,0.133 v 3.517 c 0,0.074 -0.059,0.133 -0.132,0.133"
             style="fill:#ab192d;fill-opacity:1;fill-rule:nonzero;stroke:none"
             id="path110" /></g><g
           id="g112"
           transform="translate(388.1611,930.8437)"><path
             d="m 0,0 c 3.665,0 6.617,3.052 6.454,6.752 -0.15,3.399 -3.255,6.168 -6.657,6.168 h -19.39 c -0.181,0 -0.329,-0.148 -0.329,-0.329 V 0.329 C -19.922,0.147 -19.774,0 -19.593,0 Z M -0.513,38.761 H -31.39 c -0.182,0 -0.329,-0.148 -0.329,-0.329 V 26.17 c 0,-0.183 0.147,-0.329 0.329,-0.329 H -0.383 C 10.23,25.841 19.164,17.469 19.376,6.857 19.594,-4.027 10.835,-12.921 0,-12.921 h -31.39 c -0.182,0 -0.329,-0.146 -0.329,-0.329 v -12.262 c 0,-0.181 0.147,-0.329 0.329,-0.329 H 0 c 17.971,0 32.515,14.677 32.298,32.698 -0.214,17.769 -15.042,31.904 -32.811,31.904"
             style="fill:#ab192d;fill-opacity:1;fill-rule:nonzero;stroke:none"
             id="path114" /></g><g
           id="g116"
           transform="translate(556.6245,963.3701)"><path
             d="m 0,0 c -1.693,0 -3.458,-0.104 -4.432,-2.162 l -9.313,-19.9 c -0.041,-0.088 0.023,-0.19 0.12,-0.19 h 4.303 c 0.051,0 0.098,0.03 0.12,0.076 l 8.391,17.879 c 0.193,0.382 0.433,0.398 0.811,0.398 0.379,0 0.618,-0.016 0.811,-0.398 l 4.636,-9.831 C 5.459,-14.154 5.44,-14.185 5.411,-14.185 H 0.022 c -0.032,0 -0.06,-0.018 -0.074,-0.046 l -1.654,-3.544 c -0.025,-0.054 0.014,-0.116 0.074,-0.116 h 8.727 c 0.051,0 0.098,-0.029 0.12,-0.076 l 1.988,-4.209 c 0.022,-0.046 0.068,-0.076 0.12,-0.076 h 4.302 c 0.097,0 0.161,0.102 0.12,0.19 l -9.312,19.9 C 3.458,-0.104 1.693,0 0,0 m -72.785,-48.768 h -2.937 c -6.618,0 -7.195,3.679 -7.195,7.761 0,4.081 0.577,7.761 7.195,7.761 h 2.937 c 6.618,0 7.195,-3.68 7.195,-7.761 0,-4.082 -0.577,-7.761 -7.195,-7.761 m 0,19.273 h -2.937 c -9.821,0 -11.588,-6 -11.588,-11.512 0,-5.513 1.767,-11.512 11.588,-11.512 h 2.937 c 9.822,0 11.588,5.999 11.588,11.512 0,5.512 -1.766,11.512 -11.588,11.512 m -32.213,-18.856 h -7.281 c -0.074,0 -0.133,0.06 -0.133,0.133 v 14.421 c 0,0.073 0.059,0.133 0.133,0.133 h 7.281 c 7.32,0 8.342,-2.075 8.342,-7.343 0,-5.346 -1.097,-7.344 -8.342,-7.344 m 0,18.47 h -11.53 c -0.073,0 -0.132,-0.059 -0.132,-0.133 V -52 c 0,-0.073 0.059,-0.133 0.132,-0.133 h 11.53 c 9.055,0 12.72,2.421 12.72,11.126 0,7.579 -2.393,11.126 -12.72,11.126 m 76.987,0 h -1.929 c -1.78,0 -2.831,-1.411 -3.727,-3.449 l -6.221,-14.018 c -0.256,-0.563 -0.323,-0.593 -0.487,-0.593 h -0.389 c -0.163,0 -0.231,0.03 -0.486,0.593 l -6.221,14.018 c -0.896,2.038 -1.947,3.449 -3.727,3.449 h -1.929 c -1.69,0 -3.098,-0.854 -3.1,-3.527 V -52 c 0,-0.073 0.06,-0.133 0.133,-0.133 h 3.983 c 0.073,0 0.133,0.06 0.133,0.133 v 16.077 c 0,0.507 0.132,0.667 0.363,0.667 h 0.435 c 0.381,0 0.686,-0.647 1.196,-1.842 l 5.446,-12.208 c 0.89,-1.973 1.728,-2.531 3.497,-2.531 h 0.943 c 1.77,0 2.609,0.558 3.498,2.531 l 5.446,12.208 c 0.51,1.195 0.815,1.842 1.196,1.842 h 0.435 c 0.231,0 0.363,-0.16 0.363,-0.667 V -52 c 0,-0.073 0.059,-0.133 0.132,-0.133 h 3.984 c 0.073,0 0.132,0.06 0.132,0.133 v 18.592 c -0.001,2.673 -1.409,3.527 -3.099,3.527 m 74.436,0 h -3.983 c -0.074,0 -0.133,-0.059 -0.133,-0.133 v -16.078 c 0,-0.507 -0.138,-0.666 -0.428,-0.666 h -0.307 c -0.334,0 -0.842,0.671 -1.8,1.785 l -9.679,12.036 c -1.873,2.226 -2.711,3.056 -4.164,3.056 h -1.142 c -1.939,0 -3.1,-1.145 -3.1,-3.529 V -52 c 0,-0.073 0.06,-0.133 0.133,-0.133 h 3.983 c 0.073,0 0.132,0.06 0.132,0.133 v 16.077 c 10e-4,0.507 0.138,0.666 0.429,0.666 h 0.306 c 0.334,0 0.843,-0.671 1.801,-1.784 l 9.679,-12.037 c 1.873,-2.226 2.711,-3.055 4.164,-3.055 h 1.142 c 1.796,0 3.099,0.979 3.1,3.529 v 18.59 c 0,0.074 -0.059,0.133 -0.133,0.133 m -53.044,0 c -1.693,0 -3.458,-0.104 -4.432,-2.162 l -9.312,-19.901 c -0.042,-0.088 0.023,-0.189 0.12,-0.189 h 4.302 c 0.051,0 0.098,0.029 0.12,0.076 l 8.391,17.879 c 0.193,0.382 0.432,0.398 0.811,0.398 0.38,0 0.619,-0.016 0.811,-0.398 l 4.636,-9.831 c 0.013,-0.026 -0.007,-0.057 -0.036,-0.057 h -5.389 c -0.031,0 -0.06,-0.018 -0.073,-0.047 l -1.655,-3.543 c -0.025,-0.054 0.014,-0.115 0.074,-0.115 h 8.727 c 0.051,0 0.098,-0.03 0.12,-0.077 l 1.988,-4.209 c 0.022,-0.047 0.069,-0.076 0.12,-0.076 h 4.302 c 0.097,0 0.161,0.101 0.12,0.189 l -9.312,19.901 c -0.974,2.058 -2.74,2.162 -4.433,2.162 m 22.376,0 h -3.983 c -0.073,0 -0.132,-0.059 -0.132,-0.133 V -52 c 0,-0.073 0.059,-0.133 0.132,-0.133 h 3.983 c 0.074,0 0.133,0.06 0.133,0.133 v 21.986 c 0,0.074 -0.059,0.133 -0.133,0.133 m -28.46,26.231 v 3.517 c 0,0.073 -0.059,0.133 -0.132,0.133 h -24.57 c -0.073,0 -0.133,-0.06 -0.133,-0.133 V -3.65 c 0,-0.074 0.06,-0.132 0.133,-0.132 h 9.985 c 0.073,0 0.132,-0.06 0.132,-0.133 v -18.204 c 0,-0.073 0.06,-0.133 0.133,-0.133 h 3.983 c 0.073,0 0.133,0.06 0.133,0.133 v 18.204 c 0,0.073 0.059,0.133 0.132,0.133 h 10.072 c 0.073,0 0.132,0.058 0.132,0.132 m -39.918,-5.808 h -12.62 c -0.073,0 -0.133,-0.06 -0.133,-0.133 v -3.443 c 0,-0.073 0.06,-0.133 0.133,-0.133 h 8.394 c 0.074,0 0.133,-0.059 0.133,-0.132 v -3.132 c 0,-0.041 -0.017,-0.079 -0.048,-0.105 -1.777,-1.5 -4.861,-2.351 -8.204,-2.351 -7.326,0 -8.821,2.436 -8.821,7.769 0,4.606 0.883,7.753 8.415,7.753 5.071,0 7.259,-1.069 8.18,-3.326 0.02,-0.049 0.066,-0.082 0.119,-0.082 h 4.245 c 0.089,0 0.155,0.088 0.131,0.173 -1.673,6.005 -7.941,6.986 -12.675,6.986 -8.661,0 -12.816,-4.012 -12.816,-11.509 0,-7.349 3.699,-11.515 13.262,-11.515 5.082,0 9.655,1.348 12.405,4.516 0.021,0.025 0.033,0.058 0.033,0.091 v 8.44 c 0,0.073 -0.059,0.133 -0.133,0.133 M -83.256,0 h -3.984 c -0.073,0 -0.133,-0.06 -0.133,-0.133 v -21.986 c 0,-0.073 0.06,-0.133 0.133,-0.133 h 3.984 c 0.073,0 0.132,0.06 0.132,0.133 v 21.986 c 0,0.073 -0.059,0.133 -0.132,0.133 m -21.783,-18.469 h -7.281 c -0.074,0 -0.133,0.059 -0.133,0.132 v 14.422 c 0,0.073 0.059,0.133 0.133,0.133 h 7.281 c 7.32,0 8.342,-2.076 8.342,-7.344 0,-5.346 -1.096,-7.343 -8.342,-7.343 m 0,18.469 h -11.53 c -0.073,0 -0.132,-0.06 -0.132,-0.133 v -21.986 c 0,-0.073 0.059,-0.133 0.132,-0.133 h 11.53 c 9.055,0 12.721,2.421 12.721,11.126 0,7.58 -2.394,11.126 -12.721,11.126 m 62.548,0 h -3.984 c -0.073,0 -0.132,-0.06 -0.132,-0.133 v -21.986 c 0,-0.073 0.059,-0.133 0.132,-0.133 h 3.984 c 0.073,0 0.133,0.06 0.133,0.133 v 21.986 c 0,0.073 -0.06,0.133 -0.133,0.133 M 36.862,-18.469 H 24.247 c -1.722,0.001 -2.198,0.253 -2.198,2.059 V -0.133 C 22.049,-0.06 21.99,0 21.917,0 H 17.934 C 17.86,0 17.801,-0.06 17.801,-0.133 v -16.755 c 0,-3.758 1.427,-5.364 5.389,-5.364 h 13.672 c 0.074,0 0.133,0.06 0.133,0.133 v 3.517 c 0,0.074 -0.059,0.133 -0.133,0.133"
             style="fill:#ab192d;fill-opacity:1;fill-rule:nonzero;stroke:none"
             id="path118" /></g><g
           id="g120"
           transform="translate(304.7261,557.08)"><path
             d="m 0,0 c 2.878,0 5.197,2.397 5.069,5.304 -0.118,2.67 -2.556,4.844 -5.228,4.844 h -15.23 c -0.143,0 -0.258,-0.115 -0.258,-0.258 V 0.259 C -15.647,0.116 -15.532,0 -15.389,0 Z m -0.403,30.445 h -24.252 c -0.143,0 -0.259,-0.116 -0.259,-0.258 v -9.631 c 0,-0.144 0.116,-0.259 0.259,-0.259 h 24.354 c 8.337,0 15.353,-6.575 15.52,-14.91 C 15.391,-3.163 8.511,-10.147 0,-10.147 h -24.655 c -0.143,0 -0.259,-0.117 -0.259,-0.259 v -9.631 c 0,-0.144 0.116,-0.259 0.259,-0.259 H 0 c 14.116,0 25.539,11.527 25.369,25.683 -0.168,13.956 -11.815,25.058 -25.772,25.058"
             style="fill:#ab192d;fill-opacity:1;fill-rule:nonzero;stroke:none"
             id="path122" /></g><g
           id="g124"
           transform="translate(463.2388,573.2802)"><path
             d="m 0,0 c -1.693,0 -3.458,-0.104 -4.433,-2.162 l -9.312,-19.9 c -0.041,-0.088 0.023,-0.19 0.12,-0.19 h 4.303 c 0.051,0 0.098,0.03 0.12,0.076 l 8.391,17.879 c 0.193,0.382 0.432,0.398 0.811,0.398 0.379,0 0.618,-0.016 0.811,-0.398 l 4.636,-9.83 C 5.459,-14.154 5.44,-14.185 5.41,-14.185 H 0.021 c -0.031,0 -0.06,-0.018 -0.073,-0.046 l -1.655,-3.544 c -0.024,-0.054 0.015,-0.116 0.074,-0.116 h 8.727 c 0.052,0 0.098,-0.029 0.12,-0.076 l 1.989,-4.209 c 0.022,-0.046 0.068,-0.076 0.12,-0.076 h 4.302 c 0.097,0 0.161,0.102 0.12,0.19 l -9.312,19.9 C 3.458,-0.104 1.693,0 0,0 m 97.23,-18.887 h -2.936 c -6.619,0 -7.195,3.679 -7.195,7.761 0,4.082 0.576,7.761 7.195,7.761 h 2.936 c 6.619,0 7.196,-3.679 7.196,-7.761 0,-4.082 -0.577,-7.761 -7.196,-7.761 m 0,19.273 h -2.936 c -9.822,0 -11.588,-5.999 -11.588,-11.512 0,-5.513 1.766,-11.512 11.588,-11.512 h 2.936 c 9.822,0 11.588,5.999 11.588,11.512 0,5.513 -1.766,11.512 -11.588,11.512 M 65.018,-18.469 h -7.282 c -0.073,0 -0.132,0.059 -0.132,0.132 v 14.422 c 0,0.073 0.059,0.133 0.132,0.133 h 7.282 c 7.32,0 8.341,-2.076 8.341,-7.344 0,-5.346 -1.096,-7.343 -8.341,-7.343 m 0,18.469 h -11.53 c -0.073,0 -0.133,-0.06 -0.133,-0.133 v -21.986 c 0,-0.073 0.06,-0.133 0.133,-0.133 h 11.53 c 9.054,0 12.72,2.421 12.72,11.126 C 77.738,-3.546 75.345,0 65.018,0 m 76.987,0 h -1.93 c -1.78,0 -2.831,-1.41 -3.726,-3.448 l -6.222,-14.019 c -0.255,-0.562 -0.322,-0.594 -0.486,-0.594 h -0.39 c -0.163,0 -0.23,0.032 -0.486,0.594 l -6.221,14.019 C 121.649,-1.41 120.597,0 118.818,0 h -1.929 c -1.691,0 -3.098,-0.854 -3.1,-3.527 v -18.592 c 0,-0.073 0.06,-0.133 0.133,-0.133 h 3.983 c 0.073,0 0.133,0.06 0.133,0.133 v 16.078 c 0,0.507 0.131,0.666 0.363,0.666 h 0.435 c 0.381,0 0.685,-0.646 1.196,-1.841 l 5.446,-12.208 c 0.889,-1.973 1.728,-2.532 3.497,-2.532 h 0.942 c 1.77,0 2.609,0.559 3.499,2.532 l 5.446,12.208 c 0.509,1.195 0.814,1.841 1.195,1.841 h 0.435 c 0.232,0 0.363,-0.159 0.363,-0.666 v -16.078 c 0,-0.073 0.06,-0.133 0.133,-0.133 h 3.983 c 0.073,0 0.133,0.06 0.133,0.133 V -3.527 C 145.103,-0.854 143.694,0 142.005,0 m 74.436,0 h -3.984 c -0.073,0 -0.132,-0.06 -0.132,-0.133 V -16.21 c 0,-0.508 -0.138,-0.667 -0.429,-0.667 h -0.306 c -0.335,0 -0.843,0.672 -1.8,1.785 l -9.679,12.037 C 198.237,-0.829 197.399,0 195.946,0 h -1.142 c -1.938,0 -3.099,-1.145 -3.099,-3.528 v -18.591 c 0,-0.073 0.059,-0.133 0.132,-0.133 h 3.983 c 0.074,0 0.133,0.06 0.133,0.133 v 16.078 c 0.001,0.507 0.137,0.666 0.428,0.666 h 0.306 c 0.335,0 0.843,-0.672 1.801,-1.785 l 9.679,-12.036 c 1.874,-2.227 2.712,-3.056 4.165,-3.056 h 1.142 c 1.795,0 3.098,0.98 3.1,3.528 v 18.591 c 0,0.073 -0.06,0.133 -0.133,0.133 m -53.045,0 c -1.692,0 -3.457,-0.104 -4.432,-2.162 l -9.312,-19.9 c -0.041,-0.088 0.023,-0.19 0.12,-0.19 h 4.303 c 0.051,0 0.098,0.03 0.12,0.076 l 8.391,17.879 c 0.192,0.382 0.432,0.398 0.81,0.398 0.38,0 0.619,-0.016 0.812,-0.398 l 4.635,-9.83 c 0.013,-0.027 -0.007,-0.058 -0.036,-0.058 h -5.389 c -0.031,0 -0.06,-0.018 -0.073,-0.046 l -1.655,-3.544 c -0.024,-0.054 0.015,-0.116 0.074,-0.116 h 8.727 c 0.051,0 0.098,-0.029 0.12,-0.076 l 1.989,-4.209 c 0.022,-0.046 0.068,-0.076 0.12,-0.076 h 4.301 c 0.097,0 0.162,0.102 0.121,0.19 l -9.312,19.9 C 166.855,-0.104 165.09,0 163.396,0 m 22.376,0 h -3.982 c -0.074,0 -0.133,-0.06 -0.133,-0.133 v -21.986 c 0,-0.073 0.059,-0.133 0.133,-0.133 h 3.982 c 0.074,0 0.133,0.06 0.133,0.133 V -0.133 C 185.905,-0.06 185.846,0 185.772,0 M -12.703,-3.65 v 3.517 c 0,0.073 -0.06,0.133 -0.133,0.133 h -24.569 c -0.074,0 -0.133,-0.06 -0.133,-0.133 V -3.65 c 0,-0.074 0.059,-0.132 0.133,-0.132 h 9.985 c 0.073,0 0.132,-0.06 0.132,-0.133 v -18.204 c 0,-0.073 0.059,-0.133 0.133,-0.133 h 3.983 c 0.073,0 0.132,0.06 0.132,0.133 v 18.204 c 0,0.073 0.06,0.133 0.133,0.133 h 10.071 c 0.073,0 0.133,0.058 0.133,0.132 m -39.918,-5.808 h -12.62 c -0.073,0 -0.133,-0.06 -0.133,-0.133 v -3.443 c 0,-0.073 0.06,-0.132 0.133,-0.132 h 8.394 c 0.073,0 0.133,-0.06 0.133,-0.133 v -3.132 c 0,-0.04 -0.017,-0.079 -0.048,-0.105 -1.778,-1.5 -4.861,-2.351 -8.204,-2.351 -7.326,0 -8.821,2.436 -8.821,7.769 0,4.607 0.882,7.753 8.415,7.753 5.07,0 7.258,-1.069 8.179,-3.326 0.02,-0.049 0.067,-0.082 0.119,-0.082 h 4.246 c 0.089,0 0.155,0.088 0.131,0.173 -1.673,6.005 -7.942,6.986 -12.675,6.986 -8.661,0 -12.816,-4.012 -12.816,-11.509 0,-7.349 3.699,-11.515 13.262,-11.515 5.081,0 9.655,1.348 12.404,4.516 0.022,0.025 0.034,0.058 0.034,0.091 v 8.44 c 0,0.073 -0.059,0.133 -0.133,0.133 M -83.257,0 h -3.983 c -0.073,0 -0.133,-0.06 -0.133,-0.133 v -21.986 c 0,-0.073 0.06,-0.133 0.133,-0.133 h 3.983 c 0.073,0 0.133,0.06 0.133,0.133 v 21.986 c 0,0.073 -0.06,0.133 -0.133,0.133 m -21.782,-18.469 h -7.282 c -0.073,0 -0.132,0.059 -0.132,0.132 v 14.422 c 0,0.073 0.059,0.133 0.132,0.133 h 7.282 c 7.32,0 8.342,-2.076 8.342,-7.344 0,-5.346 -1.097,-7.343 -8.342,-7.343 m 0,18.469 h -11.53 c -0.073,0 -0.133,-0.06 -0.133,-0.133 v -21.986 c 0,-0.073 0.06,-0.133 0.133,-0.133 h 11.53 c 9.055,0 12.721,2.421 12.721,11.126 0,7.58 -2.394,11.126 -12.721,11.126 m 62.548,0 h -3.984 c -0.073,0 -0.132,-0.06 -0.132,-0.133 v -21.986 c 0,-0.073 0.059,-0.133 0.132,-0.133 h 3.984 c 0.073,0 0.132,0.06 0.132,0.133 V -0.133 C -42.359,-0.06 -42.418,0 -42.491,0 M 36.862,-18.469 H 24.246 c -1.721,0.001 -2.197,0.253 -2.197,2.059 V -0.133 C 22.049,-0.06 21.99,0 21.917,0 H 17.933 C 17.86,0 17.8,-0.06 17.8,-0.133 v -16.755 c 0,-3.758 1.428,-5.364 5.389,-5.364 h 13.673 c 0.074,0 0.133,0.06 0.133,0.133 v 3.517 c 0,0.074 -0.059,0.133 -0.133,0.133"
             style="fill:#ab192d;fill-opacity:1;fill-rule:nonzero;stroke:none"
             id="path126" /></g><g
           id="g128"
           transform="translate(218.7075,198.6122)"><path
             d="m 0,0 c -1.693,0 -3.458,-0.104 -4.433,-2.162 l -9.312,-19.9 c -0.041,-0.088 0.023,-0.19 0.12,-0.19 h 4.303 c 0.051,0 0.098,0.03 0.12,0.076 l 8.391,17.879 c 0.193,0.382 0.432,0.398 0.811,0.398 0.379,0 0.618,-0.016 0.811,-0.398 l 4.636,-9.83 C 5.459,-14.154 5.44,-14.185 5.41,-14.185 H 0.021 c -0.031,0 -0.06,-0.018 -0.073,-0.046 l -1.654,-3.544 c -0.025,-0.054 0.014,-0.116 0.073,-0.116 h 8.727 c 0.052,0 0.098,-0.029 0.12,-0.076 l 1.989,-4.209 c 0.022,-0.046 0.068,-0.076 0.12,-0.076 h 4.302 c 0.097,0 0.161,0.102 0.12,0.19 l -9.312,19.9 C 3.458,-0.104 1.693,0 0,0 m 97.23,-18.887 h -2.936 c -6.618,0 -7.195,3.679 -7.195,7.761 0,4.082 0.577,7.761 7.195,7.761 h 2.936 c 6.619,0 7.196,-3.679 7.196,-7.761 0,-4.082 -0.577,-7.761 -7.196,-7.761 m 0,19.273 h -2.936 c -9.821,0 -11.588,-5.999 -11.588,-11.512 0,-5.513 1.767,-11.512 11.588,-11.512 h 2.936 c 9.822,0 11.588,5.999 11.588,11.512 0,5.513 -1.766,11.512 -11.588,11.512 M 65.018,-18.469 h -7.282 c -0.073,0 -0.132,0.059 -0.132,0.133 v 14.421 c 0,0.073 0.059,0.133 0.132,0.133 h 7.282 c 7.32,0 8.341,-2.075 8.341,-7.344 0,-5.346 -1.096,-7.343 -8.341,-7.343 m 0,18.469 h -11.53 c -0.073,0 -0.133,-0.06 -0.133,-0.133 v -21.986 c 0,-0.073 0.06,-0.133 0.133,-0.133 h 11.53 c 9.054,0 12.72,2.421 12.72,11.126 C 77.738,-3.546 75.345,0 65.018,0 m 76.987,0 h -1.93 c -1.779,0 -2.831,-1.41 -3.726,-3.448 l -6.222,-14.019 c -0.255,-0.562 -0.322,-0.594 -0.486,-0.594 h -0.39 c -0.163,0 -0.23,0.032 -0.486,0.594 l -6.221,14.019 C 121.649,-1.41 120.597,0 118.818,0 h -1.929 c -1.69,0 -3.098,-0.854 -3.1,-3.527 v -18.592 c 0,-0.073 0.06,-0.133 0.133,-0.133 h 3.983 c 0.073,0 0.133,0.06 0.133,0.133 v 16.078 c 0,0.507 0.131,0.666 0.363,0.666 h 0.435 c 0.381,0 0.685,-0.646 1.196,-1.841 l 5.446,-12.208 c 0.889,-1.973 1.728,-2.532 3.497,-2.532 h 0.942 c 1.77,0 2.609,0.559 3.499,2.532 l 5.446,12.208 c 0.509,1.195 0.814,1.841 1.195,1.841 h 0.435 c 0.232,0 0.363,-0.159 0.363,-0.666 v -16.078 c 0,-0.073 0.06,-0.133 0.133,-0.133 h 3.983 c 0.073,0 0.133,0.06 0.133,0.133 V -3.527 C 145.103,-0.854 143.694,0 142.005,0 m 74.436,0 h -3.984 c -0.073,0 -0.132,-0.06 -0.132,-0.133 V -16.21 c 0,-0.508 -0.138,-0.667 -0.428,-0.667 h -0.307 c -0.335,0 -0.843,0.672 -1.8,1.785 l -9.679,12.037 C 198.237,-0.829 197.399,0 195.946,0 h -1.142 c -1.938,0 -3.099,-1.145 -3.099,-3.528 v -18.591 c 0,-0.073 0.059,-0.133 0.132,-0.133 h 3.983 c 0.074,0 0.133,0.06 0.133,0.133 v 16.078 c 0.001,0.507 0.137,0.666 0.428,0.666 h 0.306 c 0.335,0 0.843,-0.672 1.802,-1.785 l 9.678,-12.036 c 1.874,-2.227 2.712,-3.056 4.165,-3.056 h 1.142 c 1.795,0 3.098,0.98 3.1,3.528 v 18.591 c 0,0.073 -0.06,0.133 -0.133,0.133 m -53.044,0 c -1.693,0 -3.458,-0.104 -4.433,-2.162 l -9.312,-19.9 c -0.041,-0.088 0.023,-0.19 0.12,-0.19 h 4.303 c 0.051,0 0.098,0.03 0.12,0.076 l 8.391,17.879 c 0.193,0.382 0.432,0.398 0.811,0.398 0.379,0 0.618,-0.016 0.811,-0.398 l 4.636,-9.83 c 0.012,-0.027 -0.007,-0.058 -0.037,-0.058 h -5.389 c -0.031,0 -0.06,-0.018 -0.073,-0.046 l -1.655,-3.544 c -0.024,-0.054 0.015,-0.116 0.074,-0.116 h 8.727 c 0.051,0 0.098,-0.029 0.12,-0.076 l 1.989,-4.209 c 0.022,-0.046 0.068,-0.076 0.12,-0.076 h 4.301 c 0.098,0 0.162,0.102 0.121,0.19 l -9.312,19.9 C 166.855,-0.104 165.09,0 163.397,0 m 22.376,0 h -3.983 c -0.074,0 -0.133,-0.06 -0.133,-0.133 v -21.986 c 0,-0.073 0.059,-0.133 0.133,-0.133 h 3.983 c 0.073,0 0.132,0.06 0.132,0.133 V -0.133 C 185.905,-0.06 185.846,0 185.773,0 M -12.703,-3.649 v 3.516 c 0,0.073 -0.059,0.133 -0.132,0.133 h -24.57 c -0.074,0 -0.133,-0.06 -0.133,-0.133 v -3.516 c 0,-0.075 0.059,-0.133 0.133,-0.133 h 9.985 c 0.073,0 0.132,-0.06 0.132,-0.133 v -18.204 c 0,-0.073 0.059,-0.133 0.133,-0.133 h 3.983 c 0.073,0 0.132,0.06 0.132,0.133 v 18.204 c 0,0.073 0.06,0.133 0.133,0.133 h 10.072 c 0.073,0 0.132,0.058 0.132,0.133 m -39.918,-5.809 h -12.62 c -0.073,0 -0.133,-0.06 -0.133,-0.133 v -3.443 c 0,-0.073 0.06,-0.132 0.133,-0.132 h 8.394 c 0.074,0 0.133,-0.06 0.133,-0.133 v -3.132 c 0,-0.04 -0.017,-0.079 -0.048,-0.105 -1.777,-1.5 -4.861,-2.351 -8.204,-2.351 -7.326,0 -8.821,2.436 -8.821,7.769 0,4.607 0.882,7.753 8.415,7.753 5.07,0 7.258,-1.069 8.18,-3.326 0.019,-0.049 0.066,-0.082 0.118,-0.082 h 4.246 c 0.089,0 0.155,0.088 0.131,0.173 -1.673,6.005 -7.942,6.986 -12.675,6.986 -8.661,0 -12.816,-4.012 -12.816,-11.509 0,-7.349 3.699,-11.515 13.262,-11.515 5.081,0 9.655,1.348 12.404,4.516 0.022,0.025 0.034,0.058 0.034,0.091 v 8.44 c 0,0.073 -0.059,0.133 -0.133,0.133 M -83.257,0 h -3.983 c -0.073,0 -0.133,-0.06 -0.133,-0.133 v -21.986 c 0,-0.073 0.06,-0.133 0.133,-0.133 h 3.983 c 0.073,0 0.133,0.06 0.133,0.133 v 21.986 c 0,0.073 -0.06,0.133 -0.133,0.133 m -21.782,-18.469 h -7.281 c -0.074,0 -0.133,0.059 -0.133,0.133 v 14.421 c 0,0.073 0.059,0.133 0.133,0.133 h 7.281 c 7.32,0 8.342,-2.075 8.342,-7.344 0,-5.346 -1.097,-7.343 -8.342,-7.343 m 0,18.469 h -11.53 c -0.073,0 -0.133,-0.06 -0.133,-0.133 v -21.986 c 0,-0.073 0.06,-0.133 0.133,-0.133 h 11.53 c 9.055,0 12.721,2.421 12.721,11.126 0,7.58 -2.394,11.126 -12.721,11.126 m 62.548,0 h -3.984 c -0.073,0 -0.132,-0.06 -0.132,-0.133 v -21.986 c 0,-0.073 0.059,-0.133 0.132,-0.133 h 3.984 c 0.073,0 0.133,0.06 0.133,0.133 v 21.986 c 0,0.073 -0.06,0.133 -0.133,0.133 M 36.862,-18.469 H 24.246 c -1.721,0.001 -2.197,0.253 -2.197,2.059 V -0.133 C 22.049,-0.06 21.99,0 21.917,0 H 17.933 C 17.86,0 17.8,-0.06 17.8,-0.133 v -16.755 c 0,-3.758 1.428,-5.364 5.389,-5.364 h 13.673 c 0.074,0 0.133,0.06 0.133,0.133 v 3.517 c 0,0.074 -0.059,0.133 -0.133,0.133"
             style="fill:#ab192d;fill-opacity:1;fill-rule:nonzero;stroke:none"
             id="path130" /></g><g
           id="g132"
           transform="translate(697.2866,179.6298)"><path
             d="m 0,0 c 4.457,0 8.047,3.712 7.849,8.212 -0.182,4.134 -3.958,7.501 -8.095,7.501 h -23.581 c -0.221,0 -0.4,-0.179 -0.4,-0.4 V 0.4 c 0,-0.22 0.179,-0.4 0.4,-0.4 z m -0.624,47.139 h -37.55 c -0.221,0 -0.4,-0.179 -0.4,-0.401 V 31.826 c 0,-0.221 0.179,-0.4 0.4,-0.4 H -0.465 C 12.442,31.426 23.306,21.245 23.564,8.341 23.83,-4.897 13.178,-15.713 0,-15.713 h -38.174 c -0.221,0 -0.4,-0.179 -0.4,-0.4 v -14.912 c 0,-0.221 0.179,-0.4 0.4,-0.4 H 0 c 21.856,0 39.543,17.849 39.279,39.766 -0.26,21.608 -18.293,38.798 -39.903,38.798"
             style="fill:#ab192d;fill-opacity:1;fill-rule:nonzero;stroke:none"
             id="path134" /></g></g></g></g></svg>
