<?xml version="1.0" encoding="UTF-8"?><svg id="Layer_2" xmlns="http://www.w3.org/2000/svg" viewBox="0 0 333.28 132.33"><g id="black"><g id="primary_stacked"><path id="D_mark" d="M167.27,0h-37.55c-.22,0-.4,.18-.4,.4V15.31c0,.22,.18,.4,.4,.4h37.71c12.91,0,23.77,10.18,24.03,23.09,.27,13.24-10.39,24.05-23.56,24.05h-38.17c-.22,0-.4,.18-.4,.4v14.91c0,.22,.18,.4,.4,.4h38.17c21.86,0,39.54-17.85,39.28-39.77-.26-21.61-18.29-38.8-39.9-38.8Zm.62,47.14c4.46,0,8.05-3.71,7.85-8.21-.18-4.13-3.96-7.5-8.09-7.5h-23.58c-.22,0-.4,.18-.4,.4v14.91c0,.22,.18,.4,.4,.4h23.83Z" fill="#aa182c"/><path id="logotype" d="M153.56,128.16h-12.62c-1.72,0-2.2-.25-2.2-2.06v-16.28c0-.07-.06-.13-.13-.13h-3.98c-.07,0-.13,.06-.13,.13v16.75c0,3.76,1.43,5.36,5.39,5.36h13.67c.07,0,.13-.06,.13-.13v-3.52c0-.07-.06-.13-.13-.13Zm-79.35-18.47h-3.98c-.07,0-.13,.06-.13,.13v21.99c0,.07,.06,.13,.13,.13h3.98c.07,0,.13-.06,.13-.13v-21.99c0-.07-.06-.13-.13-.13Zm-62.55,0H.13c-.07,0-.13,.06-.13,.13v21.99c0,.07,.06,.13,.13,.13H11.66c9.05,0,12.72-2.42,12.72-11.13,0-7.58-2.39-11.13-12.72-11.13Zm0,18.47H4.38c-.07,0-.13-.06-.13-.13v-14.42c0-.07,.06-.13,.13-.13h7.28c7.32,0,8.34,2.08,8.34,7.34s-1.1,7.34-8.34,7.34Zm21.78-18.47h-3.98c-.07,0-.13,.06-.13,.13v21.99c0,.07,.06,.13,.13,.13h3.98c.07,0,.13-.06,.13-.13v-21.99c0-.07-.06-.13-.13-.13Zm30.64,9.46h-12.62c-.07,0-.13,.06-.13,.13v3.44c0,.07,.06,.13,.13,.13h8.39c.07,0,.13,.06,.13,.13v3.13s-.02,.08-.05,.11c-1.78,1.5-4.86,2.35-8.2,2.35-7.33,0-8.82-2.44-8.82-7.77,0-4.61,.88-7.75,8.41-7.75,5.07,0,7.26,1.07,8.18,3.33,.02,.05,.07,.08,.12,.08h4.25c.09,0,.15-.09,.13-.17-1.67-6-7.94-6.99-12.68-6.99-8.66,0-12.82,4.01-12.82,11.51s3.7,11.51,13.26,11.51c5.08,0,9.66-1.35,12.4-4.52,.02-.03,.03-.06,.03-.09v-8.44c0-.07-.06-.13-.13-.13Zm39.92-5.81v-3.52c0-.07-.06-.13-.13-.13h-24.57c-.07,0-.13,.06-.13,.13v3.52c0,.07,.06,.13,.13,.13h9.98c.07,0,.13,.06,.13,.13v18.2c0,.07,.06,.13,.13,.13h3.98c.07,0,.13-.06,.13-.13v-18.2c0-.07,.06-.13,.13-.13h10.07c.07,0,.13-.06,.13-.13Zm198.48-3.65h-3.98c-.07,0-.13,.06-.13,.13v21.99c0,.07,.06,.13,.13,.13h3.98c.07,0,.13-.06,.13-.13v-21.99c0-.07-.06-.13-.13-.13Zm-22.38,0c-1.69,0-3.46,.1-4.43,2.16l-9.31,19.9c-.04,.09,.02,.19,.12,.19h4.3c.05,0,.1-.03,.12-.08l8.39-17.88c.19-.38,.43-.4,.81-.4s.62,.02,.81,.4l4.64,9.83s0,.06-.04,.06h-5.39s-.06,.02-.07,.05l-1.65,3.54c-.03,.05,.01,.12,.07,.12h8.73c.05,0,.1,.03,.12,.08l1.99,4.21s.07,.08,.12,.08h4.3c.1,0,.16-.1,.12-.19l-9.31-19.9c-.97-2.06-2.74-2.16-4.43-2.16Zm53.04,0h-3.98c-.07,0-.13,.06-.13,.13v16.08c0,.51-.14,.67-.43,.67h-.31c-.33,0-.84-.67-1.8-1.79l-9.68-12.04c-1.87-2.23-2.71-3.06-4.16-3.06h-1.14c-1.94,0-3.1,1.14-3.1,3.53v18.59c0,.07,.06,.13,.13,.13h3.98c.07,0,.13-.06,.13-.13v-16.08c0-.51,.14-.67,.43-.67h.31c.33,0,.84,.67,1.8,1.79l9.68,12.04c1.87,2.23,2.71,3.06,4.16,3.06h1.14c1.8,0,3.1-.98,3.1-3.53v-18.59c0-.07-.06-.13-.13-.13Zm-74.44,0h-1.93c-1.78,0-2.83,1.41-3.73,3.45l-6.22,14.02c-.26,.56-.32,.59-.49,.59h-.39c-.16,0-.23-.03-.49-.59l-6.22-14.02c-.9-2.04-1.95-3.45-3.73-3.45h-1.93c-1.69,0-3.1,.85-3.1,3.53v18.59c0,.07,.06,.13,.13,.13h3.98c.07,0,.13-.06,.13-.13v-16.08c0-.51,.13-.67,.36-.67h.44c.38,0,.69,.65,1.2,1.84l5.45,12.21c.89,1.97,1.73,2.53,3.5,2.53h.94c1.77,0,2.61-.56,3.5-2.53l5.45-12.21c.51-1.19,.81-1.84,1.2-1.84h.44c.23,0,.36,.16,.36,.67v16.08c0,.07,.06,.13,.13,.13h3.98c.07,0,.13-.06,.13-.13v-18.59c0-2.67-1.41-3.53-3.1-3.53Zm-76.99,0h-11.53c-.07,0-.13,.06-.13,.13v21.99c0,.07,.06,.13,.13,.13h11.53c9.05,0,12.72-2.42,12.72-11.13,0-7.58-2.39-11.13-12.72-11.13Zm0,18.47h-7.28c-.07,0-.13-.06-.13-.13v-14.42c0-.07,.06-.13,.13-.13h7.28c7.32,0,8.34,2.08,8.34,7.34s-1.1,7.34-8.34,7.34Zm32.21-18.85h-2.94c-9.82,0-11.59,6-11.59,11.51s1.77,11.51,11.59,11.51h2.94c9.82,0,11.59-6,11.59-11.51s-1.77-11.51-11.59-11.51Zm0,19.27h-2.94c-6.62,0-7.2-3.68-7.2-7.76s.58-7.76,7.2-7.76h2.94c6.62,0,7.2,3.68,7.2,7.76s-.58,7.76-7.2,7.76Zm-97.23-18.89c-1.69,0-3.46,.1-4.43,2.16l-9.31,19.9c-.04,.09,.02,.19,.12,.19h4.3c.05,0,.1-.03,.12-.08l8.39-17.88c.19-.38,.43-.4,.81-.4s.62,.02,.81,.4l4.64,9.83s0,.06-.04,.06h-5.39s-.06,.02-.07,.05l-1.65,3.54c-.03,.05,.01,.12,.07,.12h8.73c.05,0,.1,.03,.12,.08l1.99,4.21s.07,.08,.12,.08h4.3c.1,0,.16-.1,.12-.19l-9.31-19.9c-.97-2.06-2.74-2.16-4.43-2.16Z" fill="#aa182c"/></g></g></svg>