<?xml version="1.0" encoding="utf-8"?>
<!-- Generator: Adobe Illustrator 24.1.2, SVG Export Plug-In . SVG Version: 6.00 Build 0)  -->
<svg version="1.1" id="Layer_1" xmlns="http://www.w3.org/2000/svg" xmlns:xlink="http://www.w3.org/1999/xlink" x="0px" y="0px"
	 viewBox="0 0 1187.2 630.7" style="enable-background:new 0 0 1187.2 630.7;" xml:space="preserve">
<style type="text/css">
	.st0{fill:#E6007E;}
</style>
<path class="st0" d="M335.2,399.3H206.7c-41.2,0-63.5-28.5-54.3-61.1c5.5,3.5,11.4,6.5,17.5,9.2c20.7,9.9,44,15.6,68.8,15.6
	c84.5,0,152.9-64.9,152.9-144.9c0-30.6-10.1-59-27.2-82.4H377L412.3,84H296.2c-17.8-6.9-37.2-10.7-57.6-10.7
	c-84.4,0-153,64.9-153,144.9c0,28.7,8.9,55.4,24.1,77.9c-23.7,27-22.5,58.1-22.5,64.4c0,56.4,44.6,112.9,116.4,112.9h131.5
	c18.3,0,33.3,11.9,33.3,29.3s-15,31.7-33.3,31.7l-51.4,0.1l46.8,70.6h4.5c57.4,0,104-46,104-102.4
	C439.2,446.3,397.7,399.3,335.2,399.3z M238.6,134.3c47.8,0,86.5,37.5,86.5,83.9c0,46.3-38.7,83.9-86.5,83.9s-86.5-37.6-86.5-83.9
	C152.1,171.8,190.8,134.3,238.6,134.3z"/>
<g>
	<polygon class="st0" points="821.7,195 821.7,362.5 756.5,362.5 756.5,208 	"/>
	<path class="st0" d="M827.4,111.8c0,21.2-17.1,38.4-38.4,38.4c-21.2,0-38.3-17.2-38.3-38.4s17.1-38.4,38.3-38.4
		C810.3,73.5,827.4,90.7,827.4,111.8z"/>
</g>
<path class="st0" d="M651.2,93.7c-22.4-12.4-47.7-19.7-73.4-20.2c-49-1.1-94.6,18.8-125.3,57c-19.8,24.6-31.3,56.1-31.3,87.8
	c0,31.6,11.1,62.4,30.8,87.1c28.8,36,66.9,57.1,112.3,57.1c50.1,0,77.3-19.6,86.9-26.5v26.9h65.5v-92.2c0-33.1,0-66.2,0-99.4V84
	h-65.4C651.3,84,651.3,93.7,651.2,93.7z M574.2,301.8c-24.3,0-48.3-10.1-64.7-28.2c-36.6-40.4-24.2-104.2,23.4-129.6
	c12.3-6.4,26.3-10.1,41.3-10.1c27.3,0,53.4,13.6,69.7,35.5c16.4,22.1,21.3,51.3,11.5,77.2c-11.9,31.7-43.2,53.2-76.7,55
	C577.2,301.7,575.7,301.8,574.2,301.8z"/>
<path class="st0" d="M1090,93.7c-22.4-12.4-47.7-19.7-73.4-20.2c-49-1.1-94.6,18.8-125.3,57c-19.8,24.6-31.3,56.1-31.3,87.8
	c0,31.6,11.1,62.4,30.8,87.1c28.8,36,66.9,57.1,112.3,57.1c50.1,0,77.3-19.6,86.9-26.5v26.9h65.5v-92.2c0-33.1,0-66.2,0-99.4V84
	h-65.4C1090.1,84,1090.1,93.7,1090,93.7z M1012.9,301.8c-24.3,0-48.3-10.1-64.7-28.2C911.6,233.2,924,169.4,971.6,144
	c12.3-6.4,26.3-10.1,41.3-10.1c27.3,0,53.4,13.6,69.7,35.5c16.4,22.1,21.3,51.3,11.5,77.2c-11.9,31.7-43.2,53.2-76.7,55
	C1016,301.7,1014.5,301.8,1012.9,301.8z"/>
</svg>
