<?xml version="1.0" encoding="utf-8"?>
<!-- Generator: Adobe Illustrator 21.1.0, SVG Export Plug-In . SVG Version: 6.00 Build 0)  -->
<svg version="1.1"
	 id="svg2" xmlns:cc="http://creativecommons.org/ns#" xmlns:dc="http://purl.org/dc/elements/1.1/" xmlns:rdf="http://www.w3.org/1999/02/22-rdf-syntax-ns#" xmlns:svg="http://www.w3.org/2000/svg"
	 xmlns="http://www.w3.org/2000/svg" xmlns:xlink="http://www.w3.org/1999/xlink" x="0px" y="0px" viewBox="0 0 1426.5 709.1"
	 style="enable-background:new 0 0 1426.5 709.1;" xml:space="preserve">
<style type="text/css">
	.st0{fill:#D533A2;}
</style>
<g id="g10" transform="matrix(1.3333333,0,0,-1.3333333,0,1157.4133)">
	<g id="g12" transform="scale(0.1)">
		<path id="path14" class="st0" d="M1529.6,8070.8c477.9,0,865.3-375.3,865.3-839.2c0-462.9-387.4-839.2-865.3-839.2
			c-478,0-865.4,376.3-865.4,839.2C664.2,7695.5,1051.5,8070.8,1529.6,8070.8L1529.6,8070.8z M2495.4,5420.1h-1285
			c-411.9,0-635.2,284.7-543,610.7c54.8-34.8,113.7-64.5,174.6-92.1c206.9-99,440-156.1,687.6-156.1c845.2,0,1529.5,649,1529.5,1449
			c0,306.1-100.8,589.7-271.8,823.7h126.6l352.7,518.1H2105.7c-177.9,68.6-372.2,107.2-576.1,107.2C685.3,8680.6,0,8031.6,0,7231.6
			c0-286.9,89.3-553.7,241.3-778.8c-237.4-269.9-225-581.1-225-644.4c0-564.5,446.3-1128.9,1163.9-1128.9h1315.2
			c183.1,0,333.1-118.7,333.1-292.8s-150-317-333.1-317l-513.6-1l468.3-706.4h45.3c573.6,0,1040.5,459.8,1040.5,1024.4
			C3535.9,4950.2,3120.3,5420.1,2495.4,5420.1"/>
		<path id="path16" class="st0" d="M7360.8,7463.8V5788.7H6709v1545L7360.8,7463.8"/>
		<path id="path18" class="st0" d="M7418,8295.2c0-211.6-171-383.6-383.6-383.6c-211.6,0-382.5,172-382.5,383.6
			s170.9,383.6,382.5,383.6C7247,8678.7,7418,8506.8,7418,8295.2"/>
		<path id="path20" class="st0" d="M4885.1,6395.6c-243,0-482.8,100.8-646.5,281.7c-365.6,404.1-241.7,1042,233.9,1296.1
			c122.8,64.4,262.6,100.6,412.6,100.6c273.2,0,534.3-136.3,696.7-354.9c164.4-221.3,212.9-512.8,115.5-772.4
			c-118.8-316.6-431.7-532.3-766.8-550C4915.4,6396,4900.2,6395.6,4885.1,6395.6L4885.1,6395.6z M5655.9,8476.1
			c-223.8,124.5-477.4,196.5-734.4,202.2c-489.6,10.8-946-188.5-1253.1-570.1c-198.3-246.4-312.8-561.1-312.8-877.9
			c0-316,111.3-624.2,308.2-870.8c287.5-360,669.3-571,1123.4-571c501.1,0,773.4,196.2,868.7,264.7v-268.9H6311v921.7
			c0,331.2,0.4,662.4,0,993.6v873.7h-654C5657,8573.5,5656.2,8476.8,5655.9,8476.1"/>
		<path id="path22" class="st0" d="M9273.1,6395.6c-243.1,0-482.9,100.8-646.5,281.7c-365.7,404.1-241.7,1042,233.9,1296.1
			c122.8,64.4,262.6,100.6,412.6,100.6c273.1,0,534.3-136.3,696.7-354.9c164.4-221.3,212.9-512.8,115.4-772.4
			c-118.8-316.6-431.6-532.3-766.8-550C9303.3,6396,9288.2,6395.6,9273.1,6395.6L9273.1,6395.6z M10043.9,8476.1
			c-223.8,124.5-477.4,196.5-734.5,202.2c-489.6,10.8-945.9-188.5-1253.1-570.1c-198.3-246.4-312.8-561.1-312.8-877.9
			c0-316,111.4-624.2,308.3-870.8c287.5-360,669.2-571,1123.4-571c501.1,0,773.4,196.2,868.7,264.7v-268.9h655v921.7
			c0,331.2,0.5,662.4,0,993.6v873.7H10045C10045,8573.5,10044.2,8476.8,10043.9,8476.1"/>
	</g>
</g>
</svg>
