<?xml version="1.0" encoding="UTF-8" standalone="no"?>
<svg
   xmlns:dc="http://purl.org/dc/elements/1.1/"
   xmlns:cc="http://creativecommons.org/ns#"
   xmlns:rdf="http://www.w3.org/1999/02/22-rdf-syntax-ns#"
   xmlns:svg="http://www.w3.org/2000/svg"
   xmlns="http://www.w3.org/2000/svg"
   viewBox="0 0 2143.4668 1082.8"
   height="1082.8"
   width="2143.4668"
   xml:space="preserve"
   id="svg2"
   version="1.1"><metadata
     id="metadata8"><rdf:RDF><cc:Work
         rdf:about=""><dc:format>image/svg+xml</dc:format><dc:type
           rdf:resource="http://purl.org/dc/dcmitype/StillImage" /></cc:Work></rdf:RDF></metadata><defs
     id="defs6" /><g
     transform="matrix(1.3333333,0,0,-1.3333333,0,1082.8)"
     id="g10"><g
       transform="scale(0.1)"
       id="g12"><path
         id="path14"
         style="fill:#28292a;fill-opacity:1;fill-rule:nonzero;stroke:none"
         d="m 9963.49,3199.29 -8,9 c -9,0 -18,-1 -27,-3 -174,-48 -349,-95 -523,-145 -225,-64 -449,-130 -673,-197 -202,-61 -402,-125 -603,-188 -35,-11 -41,-18 -39,-53 8,-118 25,-234 78,-342 66,-137 171,-221 323,-241 150,-20 289,21 422,84 99,47 192,108 275,180 86,75 175,148 256,228 68,67 128,143 190,215 34,40 68,80 99,123 56,76 109,154 163,232 24,31 45,65 67,98 z m -1740,414 11,-7 c 23,8 46,17 70,23 125,33 251,66 377,99 136,35 272,70 409,105 82,21 164,43 247,63 92,22 184,40 276,62 87,20 174,43 262,63 184.01,41 369.01,80 554.01,119 37,8 63,20 72,60 4,21 16,40 24,60 75,182 154,362 224,545 58,152 108,306 155,462 35,115 59,234 85,351 37,163 60,329 68,496 9,175 4,350 -38,521 -24,97 -61,189 -123,268 -61,81 -151,137 -251,155 -75,14 -152,12 -226,-6 -196,-44 -358,-152 -509.01,-276 -81,-66 -154,-144 -226,-220 -120,-128 -229,-265 -327,-410 -94,-136 -179,-279 -265,-420 -48,-79 -96,-159 -137,-242 -91,-184 -179,-370 -265,-557 -52,-112 -100,-226 -144,-342 -67,-176 -129,-354 -192,-532.01 -22,-62.99 -40,-127 -61,-190 -7,-22 -19,-42 -25,-62.99 -9,-34.01 -15,-69.01 -23,-104.01 -8,-27.99 -15,-55.99 -22,-82.99 z m -5196,-698 c -50,-17 -91,-30 -131,-45 -228,-85 -456,-169 -682,-257 -124,-48 -246,-102 -369,-152 -35,-14.01 -53,-40 -65,-74.01 -31,-90.99 -62,-182 -94,-272 -49,-139 -98,-277 -148,-415 -52,-146 -104,-291 -156,-437 -48,-132 -97,-263.999 -146,-395.999 -22,-59 -54,-110 -112,-142 -99,-54 -226.002,-39 -302.002,44 -89,97.008 -174,197.008 -261,294.999 -71,79.01 -78,169.01 -46,265 45,137.01 92,273 139,409.01 12,34 26,65.99 38,100 3,13 6,27 8,40 -10,-2 -20,-5 -30,-9.01 -64,-37.99 -132,-52 -205,-32 -52,14.01 -102,36 -148,65 -100,62 -181,144.01 -259.9997,229.01 -73,82 -77,205 -9,290.99 13,15 29,28 45,39.01 153.9997,115 312.9997,222 477.9997,320 97,57 193,118 290,175 75,44 152.002,84 228.002,124 22,11 39,30 46,54 66,202 133,403 199,604 48,147 95,295 145,441 59,174 122,348 183,522 44,125 87,251 132,376 59,166 119,332 179,498 34,93 68,186 105,278 37,96 101,179 185,239 98,70 209,105 324,129 80,16 160,23 240,8 35,-8 68,-20 100,-36 42,-21 61,-61 73,-104 14,-50 13,-102 -3,-151 -38,-119 -79,-238 -120,-357 -34,-99 -71,-198 -106,-297 -45,-130 -90,-260 -135,-390 -44,-126 -88,-251 -132,-377 -55,-159 -110,-319 -165,-478 -47,-136 -95,-272 -142,-408 -2,-11 -4,-23 -4,-34 17,2 34,5 50,10 143,59 289,109 436,158 125,40.99 249,85 375,124 94,30 190,55 285,82 80,23 79,23 107,104 60,176 122,351 182,526 57,165 113,331 170,496 48,138 96,275 144,412 41,117 81,234 122,351 41,117 85,236 127,354 44,124 86,248 130,372 49,139 99,277 150,415 19,56 42,110 68,162 51,97 126,169 220,227 97,60 203,89 312,114 68,16 137,24 207,26 96,3 189,-13 268,-72 63,-47 97,-128 71,-210 -45,-143 -87,-287 -133,-430 -68,-209 -138,-417 -208,-625 -59,-176 -120,-351 -181,-527 -41,-120 -83,-240 -124,-359 -56,-159 -111,-319 -167,-478 -62,-175 -123,-350 -185,-525 -6,-18 -12,-37 -20,-59 53,-7 98,6 143,11 138,15 277,33 415,47 88,9 176,11 264,21 73,8 142,-7 210,-28 148,-47 295,-95 442,-142 28,-9 56,-16 84,-26 126,-43 178,-165 145,-284 -29,-101 -67,-199 -102,-298 -35,-96 -70,-192 -105,-288 -41,-115 -83,-230 -123,-345 -6,-16 -20,-32 -7,-59 18,6 37,10 55,18 213,85 428,164 645,238 73,25 145,52 219,77 100,33 200,65 300,98 79,25 81,25 93,106 30,193 71,383 120,572 56,222 126,440 208,654 62,161 135,319 207,477 68,149 137,298 212,444 80,157 163,313 251,466 82,142 168,281 258,418 77,117 163,229 246,342 42,57 85,115 130,169 68,80 137,160 209,237 79,84 161,167 245,247 48,46 100,88 152,129 70,56 140,112 214,163 70,48 144,90 216,135 94.01,56 193.01,105 296.01,145 113,48 231,82 351,103 70,13 141,21 212,27 107,6 214,-4 318,-32 237,-64 419,-205 565,-400 156,-209 243,-447 301,-698 39,-174 63,-351 70,-529 8,-170 9,-340 -11,-510 -9,-74 -13,-148 -21,-222 -7,-61 -14,-123 -25,-184 -16,-94 -33,-189 -55,-282 -32,-137 -63,-274 -103,-409 -42,-144 -93,-285 -141,-427 -5,-14 -8,-29 -14,-47 11,-3 23,-4 35,-4 76,11 153,24 229,35 92,14 184,27 275,40 46,7 92,14 138,20 160,20 320,39 479,60 109,14 217,34 326,46 140,15 279,39 420,46 123,6 246,26 370,38 178,17.99 357,35 536,50 199,17 398,31 597,46 60,4 120,7 181,9 42,2 63,-18 66,-60 5,-62.01 -24,-96 -86,-102.01 -188,-16 -376,-31 -564,-50 -254,-26 -508,-53.99 -761,-86 -147,-19 -293,-49 -439,-76 -27,-5 -54,-13 -80,-25 -11,-5 -26,-20 -25,-29 3,-15 12,-27 26,-34 23,-7.99 48,-11 72,-8.99 157,18.99 313,41 470,60 224,26 449,52 674,75 159,16 318,27 477,37.99 85,6 170,5 255,9 51,2 102,7 152,11 l 5,1 c 109,1.01 219,7.01 328,0 89,-6 160,-56 210,-130 10,-15 12,-35 18,-52 10,-24 -2,-52 -26,-63 -23,-12 -47,-26 -72,-30 -115,-15 -230,-28.99 -346,-40 -129,-12.99 -259,-21 -388,-35 -225,-23.99 -449,-50 -674,-73.99 -74,-8 -148,-13 -222,-22.01 -124,-15 -249,-33 -373,-49.99 -110,-15 -221,-29.01 -331,-45 -101,-15 -202,-32 -303,-48 -101,-16 -202,-29 -303,-45 -153,-25 -305,-52 -458,-78 -93,-16 -186,-30 -279,-47 -113,-20 -225,-43 -337,-64 -112,-21.01 -225,-44.01 -337,-67.01 -96,-19 -191,-40 -286,-60 -20,-4 -37,-15.99 -46,-34 -58,-102 -120,-202 -177,-305 -74,-133 -163,-255 -252,-378 -93,-129 -190,-255 -291,-378 -111,-135 -226,-267 -352,-389 -53,-52 -103,-106 -158,-157 -40,-38 -84.01,-73 -127.01,-108 -103,-82 -204,-166 -310,-244 -80,-59 -164,-111 -248,-163 -74,-45 -149,-88 -227,-125 -110,-53 -224,-99 -340,-136 -122,-39 -247,-55 -373,-69 -12,-2 -25,-3 -37,-3 -182,-2 -359,23 -526,97 -109,48 -208,118 -289,206 -123,133 -208,287 -264,459 -51,153 -82,311 -95,472 -2,21 -7,42 -11,68 -15,-2 -29,-6 -44,-10 -240,-91 -481,-181 -721,-273 -137,-53 -274,-108 -409,-165 -151,-64 -300,-133 -451,-196 -64,-27 -125,-59 -196,-68 -97,-12 -170,28 -229,96 -99,115 -195,232 -293,348 -38,45 -50,98 -48,156 1,65 26,124 47,184 41,117 83,233 126,349 52,142.01 103,285.01 155,428.01 27,74 53,147.99 82,230 -37,-3 -69,-5 -100,-10 -99,-15 -198,-32.01 -297,-49.01 -79,-14 -158,-28 -238,-43 -93,-17.99 -185,-37.99 -277,-57 -14,-3 -27,-7 -41,-8 -28,-2.99 -42,-19 -52,-45.99 -44,-127 -90,-254.01 -135,-380.01 -57,-157 -115,-314 -171,-470.99 -68,-190 -134,-380 -201,-569.01 -41,-117 -85,-232 -126,-349 -54,-147 -105,-294 -158,-441 -38,-107.999 -78,-214.999 -116,-322.999 -58,-165 -116,-330 -174,-495 -25,-70.992 -64,-129.9997 -134,-164.9997 -93,-47.0001 -248,-22.99224 -306,48 -86,105.9997 -176,207.9997 -264,311.9997 -28,33 -54,68 -84,99.008 -89,88 -100,194 -63,305 85,257.001 173,513.001 261,769.001 75,217 150,433 227,648 79,223 160,446 239,669 -2,13 2,27 4,41" /><path
         id="path16"
         style="fill:#28292a;fill-opacity:1;fill-rule:nonzero;stroke:none"
         d="m 6377.49,4655.29 c -89,-1 -156,40 -211,106 -55,66 -117,132 -172,201 -34,43 -68,90 -90,140 -28,66 -15,137 8,204 58,173 116,346 177,519 48,137 97,274 153,408 35,85 96,155 170,211 133,102 285,153 451,163 62,4 124,3 183,-22 81,-34 131,-93 143,-180 7,-52 -10,-101 -28,-149 -48,-128 -96,-255 -144,-382 -62,-165 -124,-330 -186,-495 -55,-145 -110,-289 -165,-433 -19,-50 -41,-100 -60,-151 -35,-95 -108,-134 -204,-141 -9,1 -17,1 -25,1" /><path
         id="path18"
         style="fill:#28292a;fill-opacity:1;fill-rule:nonzero;stroke:none"
         d="m 5349.49,1380.29 c 0,5 -1,10 -1,15 l 3,1 c 1,-5 3,-10 4,-15 l -6,-1" /></g></g></svg>