<svg height="257" viewBox="0 0 551 257" width="551" xmlns="http://www.w3.org/2000/svg" xmlns:xlink="http://www.w3.org/1999/xlink"><mask id="a" fill="#fff"><path d="m.4811.862h43.2239v49.724h-43.2239z" fill="#fff" fill-rule="evenodd"/></mask><mask id="b" fill="#fff"><path d="m0 .879h4.8998v19.407h-4.8998z" fill="#fff" fill-rule="evenodd"/></mask><mask id="c" fill="#fff"><path d="m0 .1792h4.8998v19.407h-4.8998z" fill="#fff" fill-rule="evenodd"/></mask><g fill="#fdc504" fill-rule="evenodd"><path d="m43.7051 36.923c0-7.543-6.115-13.659-13.659-13.659-.012 0-.023.002-.034.002v.008h-15.995v.001c-4.783-.067-8.64-3.959-8.64-8.757 0-4.808 3.873-8.708 8.67-8.76v.008h24.775v-4.9h-24.746v-.004c-7.514.035-13.595 6.134-13.595 13.656 0 7.502 6.05 13.585 13.536 13.653v.003h16.074v-.013c4.819.025 8.719 3.937 8.719 8.762 0 4.832-3.91 8.749-8.739 8.763h-.051c-.003 0-.005 0-.008 0h-24.622v4.9h24.715v-.007c7.517-.032 13.6-6.132 13.6-13.656" mask="url(#a)" transform="translate(507 58.654)"/><path d="m446.8292 84.3817c0 13.729 11.13 24.858 24.858 24.858 13.729 0 24.859-11.129 24.859-24.858 0-.051-.002-.102-.004-.153h.002v-24.703h-4.901v24.617h-.009c.005.079.011.158.011.239 0 11.023-8.935 19.958-19.958 19.958-11.022 0-19.958-8.935-19.958-19.958 0-.081.007-.16.012-.239h-.011v-24.613h-4.899v24.735h.001c-.001.039-.003.077-.003.117"/><path d="m411.0352 104.3402c-11.023 0-19.959-8.936-19.959-19.958 0-11.023 8.936-19.959 19.959-19.959 11.022 0 19.958 8.936 19.958 19.959 0 11.022-8.936 19.958-19.958 19.958m0-44.817c-13.729 0-24.858 11.129-24.858 24.859 0 13.729 11.129 24.858 24.858 24.858s24.858-11.129 24.858-24.858c0-13.73-11.129-24.859-24.858-24.859"/><path d="m372.7892 78.411c.874 0 1.701.192 2.45.529v-19.407h-4.9v19.407c.748-.337 1.576-.529 2.45-.529"/><path d="m372.7892 90.3622c-.874 0-1.702-.192-2.45-.529v19.407h4.9v-19.407c-.749.337-1.576.529-2.45.529"/><path d="m375.2042 84.3866c0 1.334-1.081 2.415-2.415 2.415s-2.415-1.081-2.415-2.415 1.081-2.415 2.415-2.415 2.415 1.081 2.415 2.415"/><path d="m359.4015 84.3837c0-13.729-11.13-24.858-24.858-24.858-13.73 0-24.859 11.129-24.859 24.858 0 .051.002.102.004.153h-.002v24.703h4.901v-24.617h.009c-.005-.079-.012-.158-.012-.239 0-11.023 8.936-19.958 19.959-19.958 11.022 0 19.958 8.935 19.958 19.958 0 .081-.007.16-.012.239h.01v24.613h4.9v-24.735h-.001c.001-.039.003-.078.003-.117"/><path d="m276.3048 84.3817c0 1.334-1.082 2.415-2.416 2.415-1.333 0-2.415-1.081-2.415-2.415s1.082-2.415 2.415-2.415c1.334 0 2.416 1.081 2.416 2.415"/><path d="m290.464 95.4652c-3.576 5.348-9.657 8.875-16.575 8.875-10.191 0-18.582-7.644-19.792-17.508h14.346c-.337-.749-.529-1.576-.529-2.45 0-.875.192-1.702.529-2.451h-14.346c1.21-9.864 9.601-17.508 19.792-17.508 10.192 0 18.584 7.644 19.794 17.508h-14.347c.337.749.529 1.576.529 2.451 0 .874-.192 1.701-.529 2.45h11.888 2.459 4.943c.079-.807.122-1.624.122-2.45 0-13.729-11.13-24.859-24.859-24.859s-24.858 11.13-24.858 24.859 11.129 24.858 24.858 24.858c8.532 0 16.058-4.3 20.535-10.85z"/><path d="m210.3062 135.3969c-3.383 3.557-13.863 15.954-15.895 18.464-1.603 1.979-3.144 4.021-4.203 6.205-.751 1.548-1.593 3.506-1.832 5.866-.318 3.131.013 9.725-.12 13.057-.2 5.042-1.345 7.081-2.709 9.839-1.115 2.255-3.933 5.267-6.413 7.171-1.285.986-5.936 3.425-9.591 3.496-1.225.023-7.002.169-7.779-.429-.882-.679-1.653-1.364-1.638215-3.585v-128.232c.792215-1.261 2.453215-1.97 3.591215-1.9562035 3.396.0442035 3.889 2.9302035 3.892 2.9462035.189-.073 3.027-1.005 4.842.829 1.015 1.025 1.346 2.478 1.18 3.795-.115.394-.325.839-.732 1.314-1.589 1.852-2.908 2.192-4.282 1.992-1.088-.158-1.835-.853-2.279-1.571-.248-.401-.801-1.268-1.303-1.199-.657.089-.699 1.194-.49 1.598.42.81 1.007 1.738 2.192 2.393 1.693.936 2.878.8 3.911.571 1.713-.378 2.5-1.264 3.107-1.951.266-.301.741-.84 1.218-1.381.707.32 1.47.943 1.959 2.147 1.166 2.869-.928 4.84-.928 4.84s3.202 1.106 3.139 4.273c-.038 1.935-.728 3.15-1.506 3.912-.121.04-1.446.477-2.109.43-1.923-.135-6.055-1.016-7.987-2.271-.734-.476-1.425-1.717-1.039-2.969.295-.96.769-1.726 2.004-1.965.665-.129 1.932.438 2.191-.418.241-.797-1.118-1.151-1.613-1.227-1.295-.199-1.989.293-2.658.883-1.674 1.474-1.591 2.569-1.674 3.546-.139 1.653.834 2.791 1.562 3.398.521.434 2.415 1.282 2.415 1.282s-1.963.194-2.562 1.379c-.332.657-.484 1.724-.311 2.365.339 1.255 1.168 2.429 1.729 1.915.956-.877-.631-1.405-.261-2.883.44-1.761 3.233-1.616 3.755-1.643 1.099-.058 1.499.051 2.495.205.633.098 1.585.323 2.173.794.134.107.207.439.283.739.047.935-.152 2.039-.98 3.105-2.124 2.734-5.021 1.997-5.021 1.997 0 1.112-1.629 3.833-3.932 4.235-.365.064-.718.091-1.062.095v32.233c21.89-2.875 39.608-18.956 44.882-39.998h-19.362v-21.146h42.247c.224 2.38.351 4.788.351 7.227 0 21.201-9.305 40.051-22.847 54.288m-53.322-135.396c-44.795 0-81.108 36.313-81.108 81.108 0 23.087 9.658 43.904 25.141 58.669l10.807 12.466c1.912 2.31 7.639 9.272 8.475 11.981 1.225 3.965.439 11.513.677 15.118.198 2.982.802 6.517 1.933 9.183 1.613 3.804 4.12 7.099 6.035 9.043 1.799 1.826 4.82 3.983 8.565 5.577 2.907 1.237 6.109 1.468 8.281 1.428l-.003-.011.548.017c.003 0 .005-.001.008-.001 1.042 0 1.887.844 1.887 1.887 0 1.039-.841 1.882-1.881 1.886v.001h-.006-.001l-5.024.018.001.002h-.918-5.538c-.004 0-.007-.001-.011-.001-3.75 0-6.79 3.04-6.79 6.79s3.04 6.789 6.79 6.789c.02 0 .04-.003.061-.003h21.497v.001h16.242v.001h6.46c.003 0 .005-.001.007-.001 1.042 0 1.888.844 1.888 1.886 0 1.041-.842 1.883-1.881 1.887v.001h-.006-.001-6.467s0 .001.001.002h-15.044v-.001h-22.747c-.004 0-.008-.001-.012-.001-3.75 0-6.79 3.04-6.79 6.79s3.04 6.79 6.79 6.79c.021 0 .041-.003.061-.003h22.7v-.001h10.016v.001h6.46c.003 0 .005-.001.008-.001 1.042 0 1.887.845 1.887 1.887 0 1.04-.842 1.883-1.881 1.887v.001h-.006-.001-6.467s0 .001.001.002h-5.053-22.748c-.003 0-.007-.001-.011-.001-3.75 0-6.79 3.04-6.79 6.79s3.04 6.789 6.79 6.789c.02 0 .04-.003.061-.003h28.668c.002 0 .004.003.006.003s.004-.003.006-.003h.003c1.349-.005 2.441-1.1 2.441-2.449 0-1.351-1.092-2.445-2.441-2.45v-.001h-22.226-6.46c-.002 0-.005 0-.007 0-1.042 0-1.887-.844-1.887-1.886 0-1.04.841-1.883 1.88-1.887v-.001h.006.001.001 6.466s0-.001-.001-.002h5.054 22.747c.004 0 .007.001.011.001 3.75 0 6.79-3.04 6.79-6.79s-3.04-6.789-6.79-6.789c-.02 0-.04.003-.061.003h-22.699-10.017.001-6.46-.008c-1.042 0-1.887-.845-1.887-1.887 0-1.04.841-1.883 1.88-1.886v-.001h.007.001 6.466v-.001h15.043v.001h22.748.011c3.75 0 6.79-3.041 6.79-6.791s-3.04-6.789-6.79-6.789c-.02 0-.04.003-.061.003h-21.496v-.001h-16.243v-.001h-6.46c-.002 0-.004.001-.007.001-1.042 0-1.887-.844-1.887-1.886 0-1.04.841-1.883 1.88-1.887v-.001h.006.001 6.467v-.001l5.012-.018h.012c3.75 0 6.789-3.04 6.789-6.789 0-3.75-3.039-6.79-6.789-6.79-.018 0-2.674-.169-3.11-.186-3.507-.139-6.926-2.214-8.205-3.197-2.481-1.903-5.299-4.916-6.414-7.169-1.364-2.759-2.508-4.798-2.709-9.84-.132-3.332.198-9.926-.119-13.057-.239-2.36-1.081-4.318-1.833-5.866-1.059-2.183-2.6-4.225-4.203-6.205 0 0-11.333-13.63-15.362-17.873-13.89-14.626-23.623-33.412-23.623-55.174 0-42.067 34.101-76.169 76.168-76.169 15.854 0 30.573 4.848 42.765 13.136l-16.991 16.423c-7.405-3.869-15.82-6.069-24.752-6.069-29.57 0-53.541 23.971-53.541 53.541 0 26.956 19.93 49.227 45.853 52.959v-31.963c-.208-.014-.415-.025-.631-.063-1.669-.291-2.948-1.555-3.563-2.805.482-.241 1.929-1.194 3.064-3.546 1.203-2.494.645-4.96.106-5.903-.371-.649-1.555-2.738-4.183-3.107-1.807-.254-2.893-.208-2.65.919.119.553.582.67 1.444.784 1.115.147 1.401-.059 2.491.792 1.134.885 2.266 2.876 1.136 5.333-.778 1.688-1.848 2.462-2.57 2.913-.628.393-.502.434-.389.426-.02.004-.028.005-.058.012-.103.023-.218.03-.337.032-1.176-.129-2.784-.634-3.939-2.282-1.936-2.76-.696-5.563-.696-5.563s-3.233-.227-3.46-5.048c-.144-3.065 3.119-4.368 3.119-4.368s-2.155-2.155-.85-4.934c.537-1.144 1.409-1.696 2.165-1.964.143.13.557.538.846 1.166.433.941 1.763 2.27 3.152 3.062.732.417 1.974.911 3.408 1.405.597.205 1.428 1.088 1.838 1.553 1.287 1.463.721 2.239 1.554 2.241.697.002.851-.627.836-1.255-.015-.633-.277-1.073-.613-1.688-.538-.986-2.285-2.271-2.285-2.271s.642-.344 1.643-1.24c1.638-1.466 1.748-2.475 1.32-2.853-.315-.278-.936-.365-1.863.697-1.235 1.414-2.051 1.872-3.007 2.111-.957.239-1.651.189-3.324-1.404-1.272-1.211-2.058-3.365-2.364-4.33.077-.825.382-1.69 1.175-2.491 2.028-2.049 4.765-1.021 4.765-1.021s.567-3.006 4.311-2.949c1.358.02 2.614.589 3.317 1.807v128.346c.045 2.794.703 4.541 1.614 5.722.74.959 2.449 2.434 3.884 2.853 2.104.613 5.74.543 7.932.492 2.056-.047 5.14-.461 8.047-1.697 3.745-1.594 6.766-3.751 8.565-5.577 1.915-1.944 4.422-5.239 6.036-9.043 1.13-2.667 1.734-6.201 1.932-9.183.239-3.605-.548-11.153.677-15.118.837-2.709 6.563-9.671 8.476-11.981 2.653-3.206 12.05-13.627 12.05-13.627 14.608-14.668 23.653-34.877 23.653-57.213 0-44.795-36.313-81.108-81.108-81.108"/><path d="m65.5528 84.3837c0-13.729-11.129-24.858-24.858-24.858s-24.859 11.129-24.859 24.858c0 .051.002.102.004.153h-.001v24.703h4.9v-24.617h.009c-.005-.079-.012-.158-.012-.239 0-11.023 8.936-19.958 19.959-19.958s19.958 8.935 19.958 19.958c0 .081-.007.16-.012.239h.01v24.613h4.9v-24.735h-.001c.002-.039.003-.078.003-.117"/><path d="m2.4498 19.757c.874 0 1.702.192 2.45.529v-19.407h-4.9v19.407c.748-.337 1.576-.529 2.45-.529" mask="url(#b)" transform="translate(0 58.654)"/><path d="m2.4498.7082c-.874 0-1.702-.192-2.45-.529v19.407h4.9v-19.407c-.748.337-1.576.529-2.45.529" mask="url(#c)" transform="translate(0 89.654)"/><path d="m4.8653 84.3866c0 1.334-1.082 2.415-2.416 2.415-1.333 0-2.415-1.081-2.415-2.415s1.082-2.415 2.415-2.415c1.334 0 2.416 1.081 2.416 2.415"/></g></svg>