<?xml version="1.0" encoding="utf-8"?>
<!-- Generator: Adobe Illustrator 25.4.1, SVG Export Plug-In . SVG Version: 6.00 Build 0)  -->
<svg version="1.1" id="图层_1" xmlns="http://www.w3.org/2000/svg" xmlns:xlink="http://www.w3.org/1999/xlink" x="0px" y="0px"
	 viewBox="0 0 110.4 33.7" style="enable-background:new 0 0 110.4 33.7;" xml:space="preserve">
<style type="text/css">
	.st0{fill:#000000;}
</style>
<path class="st0" d="M4.1,0.6H0v21.8h4.8V0.6H4.1z"/>
<path class="st0" d="M25,2.9c-0.6-0.9-1.5-1.6-2.4-2.1c-1-0.5-2-0.7-3.1-0.7c-1.5,0-3,0.6-4.1,1.6V0.6h-4.8v21.8h4.8V11.2
	c0-4.5,1.1-6.5,3.7-6.5c2,0,2.8,1.6,2.8,5.4v12.3h4.8V10.9c0-4.3,1.1-6.2,3.6-6.2s2.9,1.8,2.9,5.2v12.5H38V9.3c0-7.7-3.8-9.2-7-9.2
	C28.7,0,26.5,1,25,2.9z"/>
<path class="st0" d="M58.3,0.6v1.9c-1.7-1.6-3.9-2.4-6.2-2.5c-5.9,0-10.2,4.8-10.2,11.5c0,6.5,4.4,11.4,10.2,11.4
	c2.3,0,4.5-0.8,6.2-2.4v1.8h4.8V0.6H58.3z M52.5,18.3c-4,0-5.8-3.6-5.8-7c0-3.2,2-6.6,5.7-6.6c4.1,0,6,3.3,6,6.6
	C58.5,14.8,56.6,18.3,52.5,18.3z"/>
<path class="st0" d="M76.7,33.7h0.2c3.2,0.1,6.2-1.4,8.2-3.9c2.2-2.9,2.2-6,2.2-9.2V0.6h-4.8v1.9C80.8,0.9,78.6,0,76.3,0
	c-5.9,0-10.3,5-10.3,11.6s4.4,11.4,10.1,11.4c2.3,0,4.5-0.9,6.2-2.4v0.7c0,5.5-1.7,7.8-5.7,7.8h-0.1L76.7,33.7z M76.7,18.3
	c-4,0-5.8-3.6-5.8-7c0-3.2,2-6.6,5.7-6.6c4.1,0,6,3.3,6,6.6C82.6,14.8,80.8,18.3,76.7,18.3L76.7,18.3z"/>
<path class="st0" d="M106.4,14l-0.3,0.6c-1.4,2.6-3.1,3.8-5.4,3.8c-3,0-5.5-2.3-5.7-5.3h15.5v-0.7c0-0.3,0-0.6,0-0.9
	c0.1-3.1-1-6-3-8.4c-3.9-3.9-10.3-4-14.3,0c-0.1,0.1-0.3,0.3-0.4,0.5C90.8,6,89.9,8.9,90,11.9c0,6.5,4.4,11.2,10.4,11.2
	c4.2,0,8-2.3,9.8-6.1l0.3-0.6L106.4,14z M100.4,4.9c2.3,0.1,4.3,1.7,4.9,3.9h-10C96,6.5,98,4.9,100.4,4.9L100.4,4.9z"/>
<path class="st0" d="M2.9,29.8c-0.2-0.2-0.5-0.3-0.8-0.3c-0.2,0-0.5,0.1-0.5,0.4s0.3,0.4,0.6,0.5l0.3,0.1c0.7,0.2,1.2,0.6,1.2,1.4
	c0,0.5-0.2,1-0.5,1.3c-0.4,0.3-0.9,0.5-1.4,0.5c-0.6,0-1.2-0.2-1.7-0.6l0.5-1c0.3,0.3,0.7,0.5,1.1,0.5c0.3,0,0.6-0.2,0.6-0.5
	c0,0,0,0,0,0c0-0.4-0.5-0.5-0.8-0.6c-0.8-0.2-1.3-0.5-1.3-1.4c0-0.9,0.6-1.6,1.5-1.7c0.1,0,0.1,0,0.2,0c0.5,0,1.1,0.2,1.5,0.4
	L2.9,29.8z"/>
<path class="st0" d="M10.2,28.7h1.5l0.9,1.3l1-1.3h1.5l-1.8,2.6v2.4H12v-2.4L10.2,28.7z"/>
<path class="st0" d="M24.6,29.8c-0.2-0.2-0.5-0.3-0.8-0.3c-0.2,0-0.5,0.1-0.5,0.4s0.3,0.4,0.6,0.5l0.3,0.1c0.7,0.2,1.2,0.6,1.2,1.4
	c0,0.5-0.2,1-0.5,1.4c-0.4,0.3-0.9,0.5-1.4,0.5c-0.6,0-1.2-0.2-1.7-0.6l0.5-1c0.3,0.3,0.7,0.5,1.1,0.5c0.3,0,0.6-0.2,0.6-0.5
	s-0.5-0.5-0.8-0.6c-0.8-0.2-1.3-0.5-1.3-1.4c0-0.9,0.6-1.6,1.5-1.7c0.1,0,0.1,0,0.2,0c0.5,0,1.1,0.2,1.5,0.4L24.6,29.8z"/>
<path class="st0" d="M34.5,33.7h-1.3v-3.9h-1v-1.1h3.4v1.1h-1L34.5,33.7z"/>
<path class="st0" d="M43.8,29.8v0.8h1.4v1.1h-1.4v0.9h1.5v1.1h-2.8v-5h2.8v1.1L43.8,29.8z"/>
<path class="st0" d="M53.2,28.7h1.3l1,2.7l1-2.7h1.3l0.7,5h-1.2l-0.3-2.9l0,0l-1.2,2.9h-0.5L54,30.8l0,0l-0.4,2.9h-1.3L53.2,28.7z"
	/>
<path class="st0" d="M68.3,29.8c-0.2-0.2-0.5-0.3-0.8-0.3c-0.2,0-0.5,0.1-0.5,0.4s0.3,0.4,0.6,0.5l0.3,0.1c0.7,0.2,1.2,0.6,1.2,1.4
	c0,0.5-0.1,1-0.5,1.3c-0.4,0.3-0.9,0.5-1.4,0.5c-0.6,0-1.2-0.2-1.7-0.6l0.6-1c0.3,0.3,0.7,0.5,1.1,0.5c0.3,0,0.6-0.2,0.6-0.5
	c0,0,0,0,0,0c0-0.4-0.5-0.5-0.8-0.6c-0.8-0.2-1.3-0.5-1.3-1.4c0-0.9,0.6-1.6,1.5-1.7c0.1,0,0.1,0,0.2,0c0.5,0,1.1,0.2,1.5,0.4
	L68.3,29.8z"/>
</svg>
