<?xml version="1.0" encoding="utf-8"?>
<!-- Generator: Adobe Illustrator 18.1.1, SVG Export Plug-In . SVG Version: 6.00 Build 0)  -->
<svg version="1.1" xmlns="http://www.w3.org/2000/svg" xmlns:xlink="http://www.w3.org/1999/xlink" x="0px" y="0px"
	 viewBox="0 0 2232 640.5" enable-background="new 0 0 2232 640.5" xml:space="preserve">
<g id="Original">
	<g>
		<path fill="#A5A5A4" d="M392.6,388.2c0,1-0.3,1.9-0.8,2.8c-0.5,0.8-1.4,1.5-2.7,2c-1.3,0.5-2.9,0.9-4.8,1.3
			c-1.9,0.3-4.4,0.5-7.5,0.5c-2.7,0-5.1-0.2-7.1-0.5c-2-0.3-3.6-0.8-4.8-1.3c-1.2-0.5-2-1.2-2.5-2c-0.5-0.8-0.8-1.8-0.8-2.8V92.4
			h-0.5L232.1,390c-0.3,0.7-0.8,1.3-1.5,1.9c-0.7,0.6-1.6,1.1-2.8,1.5c-1.2,0.4-2.6,0.8-4.2,1c-1.6,0.3-3.5,0.4-5.7,0.4
			c-2.4,0-4.4-0.1-6.1-0.4c-1.7-0.3-3.1-0.6-4.2-1c-1.1-0.4-2-0.9-2.7-1.5c-0.7-0.6-1.1-1.2-1.3-1.9L80.9,92.4h-0.3v295.8
			c0,1-0.3,1.9-0.8,2.8c-0.5,0.8-1.4,1.5-2.7,2c-1.3,0.5-2.9,0.9-4.8,1.3c-1.9,0.3-4.5,0.5-7.7,0.5c-2.9,0-5.3-0.2-7.2-0.5
			c-1.9-0.3-3.5-0.8-4.7-1.3c-1.2-0.5-2-1.2-2.4-2c-0.4-0.8-0.6-1.8-0.6-2.8V81.3c0-6.1,1.6-10.3,4.8-12.5c3.2-2.3,6.3-3.4,9.4-3.4
			h16.7c4.2,0,7.9,0.5,11.2,1.4c3.2,0.9,6,2.3,8.5,4.1c2.4,1.8,4.5,3.9,6.2,6.5c1.7,2.5,3.2,5.4,4.6,8.6l108.3,260.6h1.3L333.5,86.8
			c1.7-4.1,3.5-7.5,5.5-10.3c1.9-2.8,4-5,6.1-6.7c2.1-1.7,4.4-2.9,6.8-3.5c2.4-0.7,5.1-1,8-1h18.5c1.5,0,3.1,0.3,4.8,0.8
			c1.7,0.5,3.2,1.4,4.6,2.7c1.4,1.3,2.5,2.9,3.4,4.9c0.9,2,1.4,4.6,1.4,7.6V388.2z"/>
		<path fill="#A5A5A4" d="M517.6,81.5c0,8.1-1.4,13.6-4.3,16.5c-2.9,2.9-8.1,4.3-15.7,4.3c-7.4,0-12.6-1.4-15.3-4.2
			c-2.8-2.8-4.2-8.2-4.2-16.3s1.4-13.6,4.3-16.5c2.9-2.9,8.1-4.3,15.7-4.3c7.4,0,12.6,1.4,15.3,4.2
			C516.2,67.9,517.6,73.4,517.6,81.5z M513.1,388.2c0,1-0.3,1.9-0.8,2.8c-0.5,0.8-1.3,1.5-2.4,2c-1.1,0.5-2.6,0.9-4.6,1.3
			c-1.9,0.3-4.4,0.5-7.5,0.5c-2.9,0-5.3-0.2-7.2-0.5c-1.9-0.3-3.5-0.8-4.7-1.3c-1.2-0.5-2-1.2-2.4-2c-0.4-0.8-0.6-1.8-0.6-2.8V158.8
			c0-1,0.2-1.9,0.6-2.8c0.4-0.8,1.2-1.6,2.4-2.2c1.2-0.6,2.7-1,4.7-1.3c1.9-0.3,4.4-0.4,7.2-0.4c3,0,5.5,0.1,7.5,0.4
			c1.9,0.3,3.5,0.7,4.6,1.3c1.1,0.6,1.9,1.3,2.4,2.2c0.5,0.8,0.8,1.8,0.8,2.8V388.2z"/>
		<path fill="#A5A5A4" d="M783.7,388.2c0,1-0.3,1.9-0.8,2.8c-0.5,0.8-1.3,1.5-2.4,2c-1.1,0.5-2.6,0.9-4.6,1.3
			c-1.9,0.3-4.4,0.5-7.2,0.5c-3,0-5.5-0.2-7.5-0.5c-1.9-0.3-3.5-0.8-4.6-1.3c-1.1-0.5-1.9-1.2-2.4-2c-0.5-0.8-0.8-1.8-0.8-2.8V252.1
			c0-14.2-1.1-25.7-3.3-34.6c-2.2-8.9-5.5-16.5-9.9-22.8c-4.4-6.3-10-11.2-16.9-14.7c-6.8-3.5-14.8-5.2-24-5.2
			c-11.7,0-23.3,4.1-35,12.4c-11.7,8.3-23.9,20.4-36.8,36.5v164.5c0,1-0.3,1.9-0.8,2.8c-0.5,0.8-1.3,1.5-2.4,2
			c-1.1,0.5-2.6,0.9-4.6,1.3c-1.9,0.3-4.4,0.5-7.5,0.5c-2.9,0-5.3-0.2-7.2-0.5c-1.9-0.3-3.5-0.8-4.7-1.3c-1.2-0.5-2-1.2-2.4-2
			c-0.4-0.8-0.6-1.8-0.6-2.8V158.8c0-1,0.2-1.9,0.6-2.8c0.4-0.8,1.2-1.6,2.4-2.2c1.2-0.6,2.7-1,4.4-1.3c1.8-0.3,4.1-0.4,7-0.4
			c2.9,0,5.2,0.1,7.1,0.4c1.9,0.3,3.3,0.7,4.3,1.3c1,0.6,1.7,1.3,2.2,2.2c0.4,0.8,0.6,1.8,0.6,2.8v32.4
			c13.2-14.7,26.1-25.3,38.8-31.9c12.7-6.6,25.3-9.9,37.8-9.9c15,0,27.7,2.5,38,7.6c10.3,5.1,18.6,11.9,25,20.5s10.9,18.7,13.7,30.2
			c2.8,11.5,4.2,25.3,4.2,41.6V388.2z"/>
		<path fill="#A5A5A4" d="M1052.5,388.2c0,1.2-0.2,2.2-0.6,3c-0.4,0.8-1.2,1.5-2.3,2c-1.1,0.5-2.5,0.9-4.2,1.1
			c-1.7,0.3-3.8,0.4-6.3,0.4c-2.7,0-4.9-0.1-6.7-0.4c-1.8-0.3-3.2-0.6-4.3-1.1c-1.1-0.5-1.9-1.2-2.5-2c-0.6-0.8-0.9-1.9-0.9-3v-32.9
			c-12.2,13.2-24.8,23.5-37.8,31c-13,7.5-27.2,11.3-42.6,11.3c-16.6,0-30.7-3.2-42.4-9.6c-11.7-6.4-21.2-15.1-28.5-26.1
			c-7.4-11-12.7-23.9-16.1-38.7c-3.4-14.8-5.1-30.5-5.1-47c0-19.4,2.1-37,6.3-52.6c4.2-15.6,10.5-28.9,18.8-39.9
			c8.3-11,18.5-19.4,30.7-25.3c12.2-5.9,26.3-8.9,42.4-8.9c13.9,0,26.5,3.1,38,9.3c11.5,6.2,22.8,15.3,34,27.2V47.8
			c0-1,0.2-1.9,0.6-2.8c0.4-0.8,1.2-1.5,2.4-2c1.2-0.5,2.7-0.9,4.7-1.3c1.9-0.3,4.4-0.5,7.2-0.5c3,0,5.5,0.2,7.5,0.5
			c1.9,0.3,3.5,0.8,4.6,1.3c1.1,0.5,1.9,1.2,2.4,2c0.5,0.8,0.8,1.8,0.8,2.8V388.2z M1022.3,222.7c-12.7-15.4-24.9-27.1-36.6-35.2
			c-11.8-8.1-24.1-12.2-36.9-12.2c-11.7,0-21.6,2.8-29.9,8.4c-8.3,5.6-15,12.9-20.3,22.1c-5.2,9.1-9,19.4-11.4,30.9
			c-2.4,11.5-3.6,23.2-3.6,35c0,12.7,1,25,3,37c2,12,5.5,22.7,10.4,32.1c4.9,9.4,11.4,16.9,19.5,22.6c8.1,5.7,18.3,8.5,30.4,8.5
			c6.1,0,12-0.8,17.8-2.5c5.7-1.7,11.7-4.5,17.8-8.4c6.1-3.9,12.4-8.9,18.9-15.1c6.5-6.2,13.5-13.8,20.9-22.9V222.7z"/>
		<path fill="#A5A5A4" d="M1348.2,387.7c0,1.2-0.2,2.2-0.6,3c-0.4,0.8-1.2,1.6-2.4,2.2c-1.2,0.6-2.8,1.1-4.9,1.4
			c-2.1,0.3-4.8,0.5-8,0.5c-2.9,0-5.3-0.1-7.2-0.4c-1.9-0.3-3.6-0.8-4.9-1.5c-1.4-0.8-2.5-1.8-3.3-3c-0.8-1.3-1.6-2.9-2.3-4.9
			l-30.7-79.6c-3.6-9-7.4-17.4-11.4-25.3c-4.1-7.9-9-14.8-14.7-20.7c-5.8-5.8-12.7-10.4-20.8-13.8c-8.1-3.4-17.8-5.1-29.2-5.1h-34
			v147.8c0,1-0.3,1.9-0.8,2.8c-0.5,0.8-1.4,1.5-2.5,2c-1.2,0.5-2.7,0.9-4.7,1.3c-1.9,0.3-4.4,0.5-7.5,0.5c-2.9,0-5.3-0.2-7.4-0.5
			c-2-0.3-3.6-0.8-4.8-1.3c-1.2-0.5-2-1.2-2.5-2c-0.5-0.8-0.8-1.8-0.8-2.8V81.3c0-6.1,1.6-10.3,4.8-12.5c3.2-2.3,6.3-3.4,9.4-3.4
			h61.6c8.1,0,14.8,0.2,20.2,0.6c5.3,0.4,10.2,1,14.6,1.6c12.5,2.2,23.4,5.7,32.7,10.6c9.3,4.9,17,10.9,23.1,18.1
			c6.1,7.2,10.6,15.3,13.6,24.3c3,9,4.4,18.8,4.4,29.3c0,10.8-1.5,20.5-4.6,29c-3,8.5-7.4,16.1-12.9,22.6
			c-5.6,6.5-12.3,12.1-20,16.9c-7.8,4.7-16.3,8.7-25.6,11.9c5.6,2.5,10.6,5.7,15.1,9.4c4.5,3.7,8.6,8.2,12.4,13.4
			c3.8,5.2,7.4,11.3,10.8,18.1c3.4,6.8,6.8,14.5,10.1,22.9l30.7,76.5c2.2,5.9,3.6,10,4.2,12.2
			C1347.9,385.1,1348.2,386.7,1348.2,387.7z M1293.7,153.2c0-14-3.1-25.9-9.4-35.6c-6.3-9.7-16.7-16.7-31.4-20.9
			c-4.9-1.4-10.2-2.3-16-2.9c-5.8-0.6-13.3-0.9-22.6-0.9h-40.6v120.4h47.2c12.7,0,23.6-1.6,32.7-4.7c9.1-3.1,16.7-7.4,22.7-12.8
			c6-5.4,10.4-11.7,13.2-19C1292.3,169.5,1293.7,161.7,1293.7,153.2z"/>
		<path fill="#A5A5A4" d="M1605.4,271.1c0,18.2-2.4,35.1-7.1,50.4c-4.7,15.4-11.8,28.7-21.2,40c-9.4,11.3-21.1,20.1-35.1,26.5
			c-14,6.3-30.3,9.5-48.9,9.5c-17.9,0-33.6-2.8-47-8.5c-13.4-5.7-24.7-13.8-33.7-24.3c-9-10.6-15.8-23.4-20.3-38.4
			c-4.5-15-6.7-32-6.7-50.9c0-18.2,2.3-35.1,7-50.4c4.6-15.4,11.7-28.7,21-39.9c9.4-11.2,21.1-20,35.1-26.2
			c14-6.2,30.4-9.4,49.2-9.4c17.9,0,33.6,2.8,47,8.4s24.6,13.6,33.6,24.2c9,10.6,15.7,23.4,20.3,38.4
			C1603.1,235.4,1605.4,252.3,1605.4,271.1z M1573.4,273.9c0-13-1.3-25.4-3.8-37.3c-2.5-11.8-6.8-22.3-12.7-31.3
			c-5.9-9-13.9-16.2-23.8-21.5c-10-5.3-22.4-8-37.3-8c-13.7,0-25.5,2.5-35.5,7.3c-10,4.9-18.1,11.7-24.5,20.4
			c-6.3,8.7-11,19-14.1,30.8c-3,11.8-4.6,24.6-4.6,38.3c0,13.2,1.3,25.7,3.8,37.6c2.5,11.9,6.8,22.3,12.7,31.3
			c5.9,9,13.9,16.1,23.8,21.3c10,5.2,22.4,7.9,37.3,7.9c13.7,0,25.5-2.4,35.5-7.4c10-4.9,18.1-11.7,24.5-20.3
			c6.3-8.6,11-18.8,14.1-30.7C1571.9,300.6,1573.4,287.7,1573.4,273.9z"/>
		<path fill="#A5A5A4" d="M1833.9,388.2c0,1.7-0.6,3-1.6,3.9c-1.1,0.9-2.5,1.6-4.3,2c-1.8,0.4-4.2,0.6-7.2,0.6
			c-2.9,0-5.3-0.2-7.4-0.6c-2-0.4-3.6-1.1-4.7-2c-1.1-0.9-1.6-2.2-1.6-3.9v-25.6c-10.3,11.2-21.7,19.8-34.1,25.9
			c-12.4,6.1-25.3,9.1-38.7,9.1c-12,0-22.8-1.6-32.3-4.7c-9.6-3.1-17.6-7.6-24.2-13.4c-6.6-5.8-11.7-12.9-15.2-21.2
			c-3.6-8.3-5.3-17.6-5.3-27.9c0-12.7,2.6-23.7,7.9-33.1c5.2-9.4,12.7-17.2,22.3-23.4c9.6-6.2,21.2-10.9,34.7-14.1
			c13.5-3.1,28.6-4.7,45.1-4.7h36.5v-19.8c0-9.8-1-18.5-3-26c-2-7.5-5.3-13.8-9.9-18.9s-10.5-8.9-17.8-11.4
			c-7.3-2.5-16.1-3.8-26.6-3.8c-10.1,0-19.3,1.2-27.4,3.7c-8.1,2.5-15.2,5.2-21.3,8.2c-6.1,3-11.1,5.8-15.1,8.2
			c-4,2.5-6.8,3.7-8.5,3.7c-1,0-1.9-0.2-2.8-0.5c-0.8-0.3-1.6-1-2.2-1.9c-0.6-0.9-1-2.1-1.3-3.5c-0.3-1.4-0.4-3.2-0.4-5.2
			c0-3.5,0.3-6.4,0.8-8.5c0.5-2.1,1.8-4.2,3.9-6.3c2.1-2.1,5.9-4.6,11.3-7.5c5.4-2.9,11.6-5.5,18.6-8c7-2.4,14.6-4.4,22.7-6
			c8.1-1.5,16.2-2.3,24.3-2.3c15.7,0,29,1.9,39.8,5.7c10.8,3.8,19.6,9.3,26.2,16.3c6.7,7.1,11.5,15.8,14.3,26.2
			c2.9,10.4,4.3,22.2,4.3,35.4V388.2z M1803.7,280h-41.8c-12.2,0-22.8,1.1-32,3.3c-9.1,2.2-16.7,5.4-22.8,9.6
			c-6.1,4.2-10.6,9.3-13.6,15.2c-3,5.9-4.4,12.7-4.4,20.3c0,13.2,4.2,23.7,12.6,31.6c8.4,7.9,20.2,11.8,35.4,11.8
			c12,0,23.2-3.1,33.6-9.3c10.4-6.2,21.4-15.7,33.1-28.5V280z"/>
		<path fill="#A5A5A4" d="M2102.7,388.2c0,1.2-0.2,2.2-0.6,3c-0.4,0.8-1.2,1.5-2.3,2c-1.1,0.5-2.5,0.9-4.2,1.1
			c-1.7,0.3-3.8,0.4-6.3,0.4c-2.7,0-4.9-0.1-6.7-0.4c-1.8-0.3-3.2-0.6-4.3-1.1c-1.1-0.5-1.9-1.2-2.5-2c-0.6-0.8-0.9-1.9-0.9-3v-32.9
			c-12.2,13.2-24.8,23.5-37.8,31c-13,7.5-27.2,11.3-42.6,11.3c-16.6,0-30.7-3.2-42.4-9.6c-11.7-6.4-21.2-15.1-28.5-26.1
			c-7.4-11-12.7-23.9-16.1-38.7c-3.4-14.8-5.1-30.5-5.1-47c0-19.4,2.1-37,6.3-52.6c4.2-15.6,10.5-28.9,18.8-39.9
			c8.3-11,18.5-19.4,30.7-25.3c12.2-5.9,26.3-8.9,42.4-8.9c13.9,0,26.5,3.1,38,9.3c11.5,6.2,22.8,15.3,34,27.2V47.8
			c0-1,0.2-1.9,0.6-2.8c0.4-0.8,1.2-1.5,2.4-2c1.2-0.5,2.7-0.9,4.7-1.3c1.9-0.3,4.4-0.5,7.2-0.5c3,0,5.5,0.2,7.5,0.5
			c1.9,0.3,3.5,0.8,4.6,1.3c1.1,0.5,1.9,1.2,2.4,2c0.5,0.8,0.8,1.8,0.8,2.8V388.2z M2072.5,222.7c-12.7-15.4-24.9-27.1-36.6-35.2
			c-11.8-8.1-24.1-12.2-36.9-12.2c-11.7,0-21.6,2.8-29.9,8.4c-8.3,5.6-15.1,12.9-20.3,22.1c-5.2,9.1-9,19.4-11.4,30.9
			c-2.4,11.5-3.6,23.2-3.6,35c0,12.7,1,25,3,37c2,12,5.5,22.7,10.4,32.1c4.9,9.4,11.4,16.9,19.5,22.6c8.1,5.7,18.3,8.5,30.4,8.5
			c6.1,0,12-0.8,17.8-2.5c5.7-1.7,11.7-4.5,17.8-8.4c6.1-3.9,12.4-8.9,18.9-15.1c6.5-6.2,13.5-13.8,20.9-22.9V222.7z"/>
	</g>
	<path fill="#EE7E32" d="M541.5,81.5c0,24.3-19.7,44.1-44.1,44.1s-44.1-19.7-44.1-44.1s19.7-44.1,44.1-44.1S541.5,57.2,541.5,81.5z
		 M497,52c-16.6,0-30.1,13-30.1,29.1s13.5,29.1,30.1,29.1s30.1-13,30.1-29.1S513.7,52,497,52z"/>
	<ellipse fill="#EE7E32" cx="496.9" cy="81.2" rx="24.5" ry="23.7"/>
</g>
<g id="Academy" display="none">
	<g display="inline">
		<path fill="#A5A5A4" d="M393.1,383c0,1-0.3,1.9-0.8,2.8c-0.5,0.8-1.4,1.5-2.7,2c-1.3,0.5-2.9,0.9-4.8,1.3
			c-1.9,0.3-4.4,0.5-7.5,0.5c-2.7,0-5.1-0.2-7.1-0.5c-2-0.3-3.6-0.8-4.8-1.3c-1.2-0.5-2-1.2-2.5-2c-0.5-0.8-0.8-1.8-0.8-2.8v-296
			h-0.5L232.5,384.7c-0.3,0.7-0.8,1.3-1.5,1.9c-0.7,0.6-1.6,1.1-2.8,1.5c-1.2,0.4-2.6,0.8-4.2,1c-1.6,0.3-3.5,0.4-5.7,0.4
			c-2.4,0-4.4-0.1-6.1-0.4c-1.7-0.3-3.1-0.6-4.2-1c-1.1-0.4-2-0.9-2.7-1.5c-0.7-0.6-1.1-1.2-1.3-1.9L81.2,86.9H81v296
			c0,1-0.3,1.9-0.8,2.8c-0.5,0.8-1.4,1.5-2.7,2c-1.3,0.5-2.9,0.9-4.8,1.3c-1.9,0.3-4.5,0.5-7.7,0.5c-2.9,0-5.3-0.2-7.2-0.5
			c-1.9-0.3-3.5-0.8-4.7-1.3c-1.2-0.5-2-1.2-2.4-2c-0.4-0.8-0.6-1.8-0.6-2.8V75.8c0-6.1,1.6-10.3,4.8-12.6c3.2-2.3,6.3-3.4,9.4-3.4
			H81c4.2,0,8,0.5,11.2,1.4c3.2,0.9,6,2.3,8.5,4.1c2.5,1.8,4.5,3.9,6.2,6.5c1.7,2.5,3.2,5.4,4.6,8.6l108.4,260.8h1.3L334,81.4
			c1.7-4.1,3.5-7.5,5.5-10.3c1.9-2.8,4-5,6.1-6.7c2.1-1.7,4.4-2.9,6.9-3.6c2.5-0.7,5.1-1,8-1h18.5c1.5,0,3.1,0.3,4.8,0.8
			c1.7,0.5,3.2,1.4,4.6,2.7c1.4,1.3,2.5,2.9,3.4,4.9c0.9,2,1.4,4.6,1.4,7.6V383z"/>
		<path fill="#A5A5A4" d="M518.3,76c0,8.1-1.4,13.6-4.3,16.5c-2.9,2.9-8.1,4.3-15.7,4.3c-7.4,0-12.6-1.4-15.4-4.2
			c-2.8-2.8-4.2-8.2-4.2-16.4s1.4-13.6,4.3-16.5c2.9-2.9,8.1-4.3,15.7-4.3c7.4,0,12.6,1.4,15.4,4.2C516.9,62.5,518.3,67.9,518.3,76z
			 M513.7,383c0,1-0.3,1.9-0.8,2.8c-0.5,0.8-1.3,1.5-2.4,2c-1.1,0.5-2.6,0.9-4.6,1.3c-1.9,0.3-4.4,0.5-7.5,0.5
			c-2.9,0-5.3-0.2-7.2-0.5c-1.9-0.3-3.5-0.8-4.7-1.3c-1.2-0.5-2-1.2-2.4-2c-0.4-0.8-0.6-1.8-0.6-2.8V153.4c0-1,0.2-1.9,0.6-2.8
			c0.4-0.8,1.2-1.6,2.4-2.2c1.2-0.6,2.7-1,4.7-1.3c1.9-0.3,4.4-0.4,7.2-0.4c3,0,5.5,0.1,7.5,0.4c1.9,0.3,3.5,0.7,4.6,1.3
			c1.1,0.6,1.9,1.3,2.4,2.2c0.5,0.8,0.8,1.8,0.8,2.8V383z"/>
		<path fill="#A5A5A4" d="M784.5,383c0,1-0.3,1.9-0.8,2.8c-0.5,0.8-1.3,1.5-2.4,2c-1.1,0.5-2.6,0.9-4.6,1.3
			c-1.9,0.3-4.4,0.5-7.2,0.5c-3,0-5.5-0.2-7.5-0.5c-1.9-0.3-3.5-0.8-4.6-1.3c-1.1-0.5-1.9-1.2-2.4-2c-0.5-0.8-0.8-1.8-0.8-2.8V246.8
			c0-14.2-1.1-25.7-3.3-34.6c-2.2-8.9-5.5-16.5-9.9-22.8c-4.4-6.3-10-11.2-16.9-14.7c-6.9-3.5-14.8-5.2-24-5.2
			c-11.7,0-23.4,4.1-35,12.4c-11.7,8.3-23.9,20.5-36.8,36.5V383c0,1-0.3,1.9-0.8,2.8c-0.5,0.8-1.3,1.5-2.4,2
			c-1.1,0.5-2.6,0.9-4.6,1.3c-1.9,0.3-4.4,0.5-7.5,0.5c-2.9,0-5.3-0.2-7.2-0.5c-1.9-0.3-3.5-0.8-4.7-1.3c-1.2-0.5-2-1.2-2.4-2
			c-0.4-0.8-0.6-1.8-0.6-2.8V153.4c0-1,0.2-1.9,0.6-2.8c0.4-0.8,1.2-1.6,2.4-2.2c1.2-0.6,2.7-1,4.4-1.3s4.1-0.4,7-0.4
			c2.9,0,5.2,0.1,7.1,0.4c1.9,0.3,3.3,0.7,4.3,1.3c1,0.6,1.7,1.3,2.2,2.2c0.4,0.8,0.6,1.8,0.6,2.8v32.5c13.2-14.7,26.1-25.4,38.8-32
			c12.7-6.6,25.3-9.9,37.8-9.9c15.1,0,27.7,2.5,38.1,7.6c10.3,5.1,18.7,11.9,25,20.5c6.3,8.6,10.9,18.7,13.7,30.2
			c2.8,11.5,4.2,25.4,4.2,41.6V383z"/>
		<path fill="#A5A5A4" d="M1053.5,383c0,1.2-0.2,2.2-0.6,3c-0.4,0.8-1.2,1.5-2.3,2c-1.1,0.5-2.5,0.9-4.2,1.1
			c-1.7,0.3-3.8,0.4-6.3,0.4c-2.7,0-4.9-0.1-6.7-0.4s-3.2-0.6-4.3-1.1c-1.1-0.5-1.9-1.2-2.5-2c-0.6-0.8-0.9-1.9-0.9-3v-33
			c-12.2,13.2-24.8,23.5-37.8,31.1c-13,7.5-27.2,11.3-42.6,11.3c-16.6,0-30.7-3.2-42.4-9.6c-11.7-6.4-21.2-15.1-28.6-26.1
			c-7.4-11-12.7-23.9-16.1-38.7c-3.4-14.8-5.1-30.5-5.1-47.1c0-19.4,2.1-37,6.3-52.6c4.2-15.6,10.5-29,18.8-40
			c8.3-11,18.5-19.4,30.7-25.4c12.2-5.9,26.3-8.9,42.4-8.9c13.9,0,26.6,3.1,38.1,9.3c11.5,6.2,22.8,15.3,34,27.3V42.3
			c0-1,0.2-1.9,0.6-2.8c0.4-0.8,1.2-1.5,2.4-2c1.2-0.5,2.7-0.9,4.7-1.3c1.9-0.3,4.4-0.5,7.2-0.5c3,0,5.5,0.2,7.5,0.5
			c1.9,0.3,3.5,0.8,4.6,1.3c1.1,0.5,1.9,1.2,2.4,2c0.5,0.8,0.8,1.8,0.8,2.8V383z M1023.3,217.3c-12.7-15.4-24.9-27.1-36.7-35.3
			c-11.8-8.1-24.1-12.2-36.9-12.2c-11.7,0-21.7,2.8-29.9,8.4c-8.3,5.6-15.1,12.9-20.3,22.1c-5.2,9.1-9.1,19.4-11.4,30.9
			c-2.4,11.5-3.6,23.2-3.6,35c0,12.7,1,25,3,37c2,12,5.5,22.7,10.4,32.1c4.9,9.4,11.4,16.9,19.5,22.6c8.1,5.7,18.3,8.5,30.5,8.5
			c6.1,0,12-0.8,17.8-2.5c5.8-1.7,11.7-4.5,17.8-8.4c6.1-3.9,12.4-8.9,18.9-15.1c6.5-6.2,13.5-13.8,20.9-23V217.3z"/>
		<path fill="#A5A5A4" d="M1349.5,382.5c0,1.2-0.2,2.2-0.6,3c-0.4,0.8-1.2,1.6-2.4,2.2c-1.2,0.6-2.8,1.1-4.9,1.4
			c-2.1,0.3-4.8,0.5-8,0.5c-2.9,0-5.3-0.1-7.2-0.4c-1.9-0.3-3.6-0.8-4.9-1.5c-1.4-0.8-2.5-1.8-3.3-3c-0.8-1.3-1.6-2.9-2.3-4.9
			L1285,300c-3.6-9-7.4-17.4-11.4-25.4c-4.1-7.9-9-14.8-14.7-20.7c-5.8-5.8-12.7-10.4-20.8-13.8c-8.1-3.4-17.9-5.1-29.2-5.1h-34V383
			c0,1-0.3,1.9-0.8,2.8c-0.5,0.8-1.4,1.5-2.5,2c-1.2,0.5-2.8,0.9-4.7,1.3c-1.9,0.3-4.4,0.5-7.5,0.5c-2.9,0-5.3-0.2-7.4-0.5
			c-2-0.3-3.6-0.8-4.8-1.3c-1.2-0.5-2-1.2-2.5-2c-0.5-0.8-0.8-1.8-0.8-2.8V75.8c0-6.1,1.6-10.3,4.8-12.6c3.2-2.3,6.3-3.4,9.4-3.4
			h61.7c8.1,0,14.8,0.2,20.2,0.6c5.3,0.4,10.2,1,14.6,1.6c12.5,2.2,23.4,5.8,32.7,10.7c9.3,4.9,17,11,23.1,18.1
			c6.1,7.2,10.6,15.3,13.6,24.4c3,9,4.4,18.8,4.4,29.3c0,10.8-1.5,20.5-4.6,29c-3,8.5-7.4,16.1-12.9,22.6
			c-5.6,6.5-12.3,12.1-20.1,16.9c-7.8,4.7-16.3,8.7-25.6,11.9c5.6,2.5,10.6,5.7,15.1,9.4c4.5,3.7,8.6,8.2,12.4,13.4
			c3.8,5.2,7.4,11.3,10.8,18.1c3.4,6.8,6.8,14.5,10.2,23l30.7,76.6c2.2,5.9,3.6,10,4.2,12.2C1349.2,379.8,1349.5,381.4,1349.5,382.5
			z M1294.9,147.8c0-14-3.1-25.9-9.4-35.6c-6.3-9.7-16.8-16.7-31.5-20.9c-4.9-1.4-10.2-2.3-16-2.9c-5.8-0.6-13.3-0.9-22.6-0.9h-40.6
			v120.5h47.2c12.7,0,23.6-1.6,32.7-4.7c9.1-3.1,16.7-7.4,22.7-12.8c6-5.4,10.4-11.8,13.2-19
			C1293.5,164.1,1294.9,156.3,1294.9,147.8z"/>
		<path fill="#A5A5A4" d="M1606.8,265.8c0,18.3-2.4,35.1-7.1,50.5c-4.7,15.4-11.8,28.8-21.2,40.1c-9.4,11.3-21.1,20.2-35.2,26.5
			c-14,6.3-30.4,9.5-49,9.5c-17.9,0-33.6-2.8-47.1-8.5c-13.5-5.7-24.7-13.8-33.8-24.4c-9.1-10.6-15.8-23.4-20.3-38.4
			c-4.5-15-6.7-32-6.7-51c0-18.3,2.3-35.1,7-50.5c4.7-15.4,11.7-28.7,21.1-40c9.4-11.2,21.1-20,35.2-26.3c14-6.3,30.5-9.4,49.2-9.4
			c17.9,0,33.6,2.8,47.1,8.4c13.5,5.6,24.7,13.7,33.6,24.2c9,10.6,15.7,23.4,20.3,38.4C1604.6,230.1,1606.8,247,1606.8,265.8z
			 M1574.9,268.6c0-13-1.3-25.4-3.8-37.3c-2.5-11.8-6.8-22.3-12.7-31.3c-5.9-9-13.9-16.2-23.9-21.6c-10-5.3-22.4-8-37.3-8
			c-13.7,0-25.6,2.5-35.5,7.4c-10,4.9-18.1,11.7-24.5,20.4c-6.3,8.7-11,19-14.1,30.8c-3,11.8-4.6,24.6-4.6,38.3
			c0,13.2,1.3,25.7,3.8,37.7c2.5,11.9,6.8,22.4,12.7,31.3c5.9,9,13.9,16.1,23.9,21.3c10,5.2,22.4,7.9,37.3,7.9
			c13.7,0,25.5-2.4,35.5-7.4c10-4.9,18.1-11.7,24.5-20.3c6.3-8.6,11-18.9,14.1-30.7C1573.3,295.3,1574.9,282.4,1574.9,268.6z"/>
		<path fill="#A5A5A4" d="M1835.5,383c0,1.7-0.6,3-1.6,3.9c-1.1,0.9-2.5,1.6-4.3,2c-1.8,0.4-4.2,0.6-7.2,0.6c-2.9,0-5.3-0.2-7.4-0.6
			c-2-0.4-3.6-1.1-4.7-2c-1.1-0.9-1.6-2.2-1.6-3.9v-25.6c-10.3,11.2-21.7,19.8-34.1,25.9c-12.4,6.1-25.3,9.1-38.7,9.1
			c-12,0-22.8-1.6-32.4-4.7c-9.6-3.1-17.6-7.6-24.2-13.4c-6.6-5.8-11.7-12.9-15.2-21.2c-3.6-8.3-5.3-17.6-5.3-27.9
			c0-12.7,2.6-23.7,7.9-33.1c5.2-9.4,12.7-17.2,22.3-23.5c9.6-6.3,21.2-10.9,34.8-14.1c13.5-3.1,28.6-4.7,45.2-4.7h36.5V230
			c0-9.8-1-18.5-3-26c-2-7.5-5.3-13.8-9.9-18.9c-4.6-5.1-10.5-8.9-17.8-11.4c-7.3-2.5-16.2-3.8-26.7-3.8c-10.2,0-19.3,1.2-27.4,3.7
			c-8.1,2.5-15.2,5.2-21.3,8.2c-6.1,3-11.1,5.8-15.1,8.2c-4,2.5-6.8,3.7-8.5,3.7c-1,0-1.9-0.2-2.8-0.5c-0.8-0.3-1.6-1-2.2-1.9
			c-0.6-0.9-1-2.1-1.3-3.6c-0.3-1.4-0.4-3.2-0.4-5.2c0-3.6,0.3-6.4,0.8-8.5c0.5-2.1,1.8-4.2,3.9-6.3c2.1-2.1,5.9-4.6,11.3-7.5
			c5.4-2.9,11.6-5.5,18.7-8c7-2.4,14.6-4.4,22.7-6c8.1-1.5,16.2-2.3,24.4-2.3c15.7,0,29,1.9,39.8,5.7c10.8,3.8,19.6,9.3,26.3,16.4
			c6.7,7.1,11.5,15.9,14.3,26.3c2.9,10.4,4.3,22.2,4.3,35.4V383z M1805.3,274.7h-41.9c-12.2,0-22.8,1.1-32,3.3
			c-9.1,2.2-16.8,5.4-22.8,9.6c-6.1,4.2-10.6,9.3-13.6,15.2c-3,5.9-4.4,12.7-4.4,20.3c0,13.2,4.2,23.7,12.6,31.6
			c8.4,7.9,20.2,11.8,35.4,11.8c12,0,23.2-3.1,33.6-9.3c10.4-6.2,21.4-15.7,33.1-28.5V274.7z"/>
		<path fill="#A5A5A4" d="M2104.6,383c0,1.2-0.2,2.2-0.6,3c-0.4,0.8-1.2,1.5-2.3,2c-1.1,0.5-2.5,0.9-4.2,1.1
			c-1.7,0.3-3.8,0.4-6.3,0.4c-2.7,0-4.9-0.1-6.7-0.4s-3.2-0.6-4.3-1.1c-1.1-0.5-1.9-1.2-2.5-2c-0.6-0.8-0.9-1.9-0.9-3v-33
			c-12.2,13.2-24.8,23.5-37.8,31.1c-13,7.5-27.2,11.3-42.6,11.3c-16.6,0-30.7-3.2-42.4-9.6c-11.7-6.4-21.2-15.1-28.6-26.1
			c-7.4-11-12.7-23.9-16.1-38.7c-3.4-14.8-5.1-30.5-5.1-47.1c0-19.4,2.1-37,6.3-52.6c4.2-15.6,10.5-29,18.8-40
			c8.3-11,18.5-19.4,30.7-25.4c12.2-5.9,26.3-8.9,42.4-8.9c13.9,0,26.6,3.1,38.1,9.3c11.5,6.2,22.8,15.3,34,27.3V42.3
			c0-1,0.2-1.9,0.6-2.8c0.4-0.8,1.2-1.5,2.4-2c1.2-0.5,2.7-0.9,4.7-1.3c1.9-0.3,4.4-0.5,7.2-0.5c3,0,5.5,0.2,7.5,0.5
			c1.9,0.3,3.5,0.8,4.6,1.3c1.1,0.5,1.9,1.2,2.4,2c0.5,0.8,0.8,1.8,0.8,2.8V383z M2074.3,217.3c-12.7-15.4-24.9-27.1-36.7-35.3
			c-11.8-8.1-24.1-12.2-36.9-12.2c-11.7,0-21.7,2.8-29.9,8.4c-8.3,5.6-15.1,12.9-20.3,22.1c-5.2,9.1-9.1,19.4-11.4,30.9
			c-2.4,11.5-3.6,23.2-3.6,35c0,12.7,1,25,3,37c2,12,5.5,22.7,10.4,32.1c4.9,9.4,11.4,16.9,19.5,22.6c8.1,5.7,18.3,8.5,30.5,8.5
			c6.1,0,12-0.8,17.8-2.5c5.8-1.7,11.7-4.5,17.8-8.4c6.1-3.9,12.4-8.9,18.9-15.1c6.5-6.2,13.5-13.8,20.9-23V217.3z"/>
	</g>
	<path display="inline" fill="#72AD47" d="M542.1,76c0,24.4-19.7,44.1-44.1,44.1c-24.4,0-44.1-19.7-44.1-44.1S473.7,32,498,32
		C522.4,32,542.1,51.7,542.1,76z M497.7,46.5c-16.6,0-30.1,13-30.1,29.1s13.5,29.1,30.1,29.1s30.1-13,30.1-29.1
		S514.3,46.5,497.7,46.5z"/>
	<ellipse display="inline" fill="#72AD47" cx="497.5" cy="75.7" rx="24.6" ry="23.7"/>
	<g display="inline">
		<rect x="1292.4" y="432.5" fill="none" width="1280.5" height="387.5"/>
		<text transform="matrix(1.0001 0 0 1 1292.3984 582.4287)" fill="#72AD47" font-family="'Calibri'" font-size="221.1676">Academy</text>
	</g>
</g>
<g id="Application" display="none">
	<rect x="1105.4" y="439.5" display="inline" fill="none" width="1282.4" height="400.9"/>
	
		<text transform="matrix(0.9999 0 0 1 1105.4271 589.3573)" display="inline" fill="#FCC00D" font-family="'Calibri'" font-size="220.9898">Application</text>
	<rect x="1.6" y="37.9" display="inline" fill="none" width="2217.1" height="356.6"/>
	
		<text transform="matrix(1.0001 0 0 1 1.5599 390.8114)" display="inline" fill="#A5A5A4" font-family="'Calibri-Light'" font-size="520.5424">MindRoad</text>
	<path display="inline" fill="#FCC00D" d="M541.9,78.9c0,24.3-19.7,44-44,44c-24.3,0-44-19.7-44-44s19.7-44,44-44
		C522.3,34.9,541.9,54.6,541.9,78.9z M497.6,49.4c-16.6,0-30,13-30,29s13.5,29,30,29s30-13,30-29S514.2,49.4,497.6,49.4z"/>
	<ellipse display="inline" fill="#FCC00D" cx="497.5" cy="78.6" rx="24.5" ry="23.7"/>
</g>
<g id="Sourcing" display="none">
	<rect x="1343.9" y="439" display="inline" fill="none" width="1285.7" height="401.9"/>
	
		<text transform="matrix(0.9998 0 0 1 1343.8955 589.2596)" display="inline" fill="#E6371E" font-family="'Calibri'" font-size="221.5691">Sourcing</text>
	<rect y="39.4" display="inline" fill="none" width="2214.5" height="356.1"/>
	
		<text transform="matrix(1.0001 0 0 1 4.882500e-003 391.9022)" display="inline" fill="#A5A5A4" font-family="'Calibri-Light'" font-size="519.9247">MindRoad</text>
	<path display="inline" fill="#E6371E" d="M539.7,80.3c0,24.3-19.7,43.9-43.9,43.9c-24.3,0-43.9-19.7-43.9-43.9s19.7-43.9,43.9-43.9
		C520.1,36.4,539.7,56.1,539.7,80.3z M495.4,50.9c-16.6,0-30,13-30,29s13.4,29,30,29c16.6,0,30-13,30-29S512,50.9,495.4,50.9z"/>
	<ellipse display="inline" fill="#E6371E" cx="495.3" cy="80" rx="24.5" ry="23.6"/>
</g>
<g id="Embedded_1_" display="none">
	<rect x="1.3" y="41.2" display="inline" fill="none" width="2215.8" height="356.4"/>
	
		<text transform="matrix(1.0001 0 0 1 1.2866 393.9185)" display="inline" fill="#A5A5A4" font-family="'Calibri-Light'" font-size="520.228">MindRoad</text>
	<rect x="1152.8" y="440" display="inline" fill="none" width="1283.4" height="401.1"/>
	
		<text transform="matrix(1.0001 0 0 1 1152.8027 589.8955)" display="inline" fill="#5C9BD4" font-family="'Calibri'" font-size="221.097">Embedded</text>
	<path display="inline" fill="#5C9BD4" d="M541.3,82.2c0,24.3-19.7,44-44,44s-44-19.7-44-44s19.7-44,44-44S541.3,57.9,541.3,82.2z
		 M497,52.7c-16.6,0-30,13-30,29s13.4,29,30,29c16.6,0,30-13,30-29S513.6,52.7,497,52.7z"/>
	<ellipse display="inline" fill="#5C9BD4" cx="496.9" cy="81.8" rx="24.5" ry="23.7"/>
</g>
</svg>
