<?xml version="1.0" encoding="UTF-8"?> <svg xmlns="http://www.w3.org/2000/svg" width="216" height="45" id="nosp-logo" viewBox="0 0 216.25 45"><defs><style>.cls-1{fill:#949397;}.cls-2{fill:#C02C37;}</style></defs><path class="cls-1" d="M56.18,5.39h2L69.22,18.91h0V5.39H70.9V21.22H69L57.87,7.7h0V21.22H56.18Z"></path><path class="cls-1" d="M81.81,5c4.5,0,8.6,2.73,8.6,8.32s-4.1,8.31-8.6,8.31-8.6-2.73-8.6-8.31S77.31,5,81.81,5Zm0,15.12c3.48,0,6.83-2,6.83-6.8S85.29,6.5,81.81,6.5,75,8.54,75,13.31,78.33,20.11,81.81,20.11Z"></path><path class="cls-1" d="M93,5.39h8.62c2.69,0,5.15,1,5.15,4.28a3.85,3.85,0,0,1-3.1,3.83v.05c2.24.35,2.7,1.8,2.81,4.39.05,1,.18,2.92.56,3.28h-1.78c-.29-.33-.4-1.51-.42-3.24,0-2.79-1.11-3.72-3.83-3.72H94.62v7H93Zm1.64,7.36h6.94c1.8,0,3.42-.66,3.42-3.08s-1.76-2.77-3.26-2.77h-7.1Z"></path><path class="cls-1" d="M109.41,5.39H118c2.69,0,5.15,1,5.15,4.28a3.86,3.86,0,0,1-3.11,3.83v.05c2.24.35,2.71,1.8,2.82,4.39,0,1,.18,2.92.55,3.28h-1.77c-.29-.33-.4-1.51-.42-3.24,0-2.79-1.11-3.72-3.84-3.72h-6.36v7h-1.64Zm1.64,7.36H118c1.79,0,3.42-.66,3.42-3.08s-1.76-2.77-3.26-2.77h-7.1Z"></path><path class="cls-1" d="M125.84,5.39h1.64V14L137.7,5.39h2.37l-7.85,6.54,8.38,9.29h-2.33L130.94,13l-3.46,2.84v5.34h-1.64Z"></path><path class="cls-1" d="M150,5c4.5,0,8.6,2.73,8.6,8.32s-4.1,8.31-8.6,8.31-8.6-2.73-8.6-8.31S145.48,5,150,5Zm0,15.12c3.48,0,6.83-2,6.83-6.8S153.46,6.5,150,6.5s-6.83,2-6.83,6.81S146.5,20.11,150,20.11ZM146.65,2h1.65V4.42h-1.65Zm5,0h1.65V4.42h-1.65Z"></path><path class="cls-1" d="M161.16,5.39h8.53c2.44,0,4.77,1.22,4.77,4.57,0,3-2,4.61-5.5,4.61H162.8v6.65h-1.64Zm1.64,7.67h6.34c2.75,0,3.54-1.26,3.54-3.1,0-2.37-1.33-3.06-3.21-3.06H162.8Z"></path><path class="cls-1" d="M176.68,5.39h1.64V21.22h-1.64Z"></path><path class="cls-1" d="M181.42,5.39h2l11.07,13.52h0V5.39h1.64V21.22h-1.91L183.1,7.7h0V21.22h-1.64Z"></path><path class="cls-1" d="M213.87,18.23h0a7.18,7.18,0,0,1-6.59,3.39c-5.36,0-8.29-3.37-8.29-8.31S202.17,5,207.42,5c4.41,0,7.23,2.48,7.65,5.41h-1.78c-.64-2.68-3-3.9-5.87-3.9-4.32,0-6.7,2.64-6.7,6.81s2.18,6.8,6.39,6.8c4.75,0,6.25-2.7,6.74-5.54H208V13.06h7.32v8.16h-1.27Z"></path><path class="cls-1" d="M60.05,34.59c.08,1.74,1.16,2.3,2.8,2.3,1.17,0,2.37-.41,2.37-1.52,0-1.3-2.12-1.56-4.26-2.16s-4.34-1.56-4.34-4.28c0-3.24,3.26-4.51,6-4.51,3,0,5.93,1.43,6,4.78H64.74c.07-1.35-1.2-1.79-2.39-1.79-.83,0-1.87.29-1.87,1.27,0,1.15,2.14,1.35,4.31,2s4.3,1.6,4.3,4.28c0,3.76-3.2,5-6.47,5s-6.42-1.5-6.44-5.3Z"></path><path class="cls-1" d="M80.75,30a2.7,2.7,0,0,0-3-2.29c-2.5,0-3.46,2.21-3.46,4.41s1,4.41,3.46,4.41a2.76,2.76,0,0,0,3-2.75h3.87c-.21,3.83-3,6.08-6.78,6.08-4.49,0-7.4-3.43-7.4-7.74s2.91-7.73,7.4-7.73c3.2,0,6.67,2,6.78,5.61Z"></path><path class="cls-1" d="M86.67,24.73h3.87V39.57H86.67Z"></path><path class="cls-1" d="M93.22,24.73h11.83v3.1h-8v2.6h7.28v3H97.08v2.83h8.17v3.32h-12Z"></path><path class="cls-1" d="M107.42,24.73h4l5.15,9.15h0V24.73h3.64V39.57h-4l-5.16-9.25h0v9.25h-3.63Z"></path><path class="cls-1" d="M132.71,30a2.7,2.7,0,0,0-3-2.29c-2.49,0-3.45,2.21-3.45,4.41s1,4.41,3.45,4.41a2.75,2.75,0,0,0,3-2.75h3.87c-.21,3.83-3,6.08-6.78,6.08-4.49,0-7.4-3.43-7.4-7.74s2.91-7.73,7.4-7.73c3.2,0,6.68,2,6.78,5.61Z"></path><path class="cls-1" d="M138.63,24.73h11.83v3.1h-8v2.6h7.28v3H142.5v2.83h8.17v3.32h-12Z"></path><path class="cls-1" d="M159.42,24.73h7.05c2.76,0,5.36,1.27,5.36,4.78,0,3.68-2.1,5.12-5.36,5.12h-3.18v4.94h-3.87Zm3.87,6.91h2.59c1.21,0,2.08-.51,2.08-1.86a1.82,1.82,0,0,0-2.08-2h-2.59Z"></path><path class="cls-1" d="M176.15,24.73h3.93l5.55,14.84h-4l-.92-2.66h-5.17l-.94,2.66h-4ZM176.4,34h3.37l-1.64-5.19h0Z"></path><path class="cls-1" d="M186.75,24.73h7.57c2.62,0,5.19,1.19,5.19,4.18a3.81,3.81,0,0,1-2.32,3.72v0c1.58.38,2,2.14,2.16,3.55,0,.63.1,2.81.62,3.35h-3.82a7.15,7.15,0,0,1-.44-2.37c-.1-1.49-.35-3-2.16-3h-2.93v5.4h-3.87Zm3.87,6.44h3.24a1.59,1.59,0,0,0,1.79-1.74c0-1.1-.87-1.6-2-1.6h-3.07Z"></path><path class="cls-1" d="M201.76,24.73h3.87v5.7l4.88-5.7h4.8l-5.49,5.84,6.18,9h-4.81l-4-6.23L205.63,35v4.57h-3.87Z"></path><path class="cls-2" d="M3.56,29.38,5,28.63A35.48,35.48,0,0,1,.25,27.48v3.65H.6C1.84,30.36,2.88,29.74,3.56,29.38Z"></path><path class="cls-2" d="M28.49,23.36a62.52,62.52,0,0,0-8,4.29c3.14-.29,6.24-.71,9.25-1.12s5.68-.77,8.37-1c2.28-.22,4.49-.37,6.62-.48V23.36A72.08,72.08,0,0,0,28.49,23.36Z"></path><path class="cls-2" d="M.93,32.4l-.68.44v5.59A73.31,73.31,0,0,0,8,37.21c1.39-1.58,2.69-3,3.67-4C8.21,32.81,4.62,32.5.93,32.4Z"></path><path class="cls-2" d="M32.18,21.75a80,80,0,0,1,12.54.36v-3.9a59.3,59.3,0,0,0-12.51,3.53Z"></path><path class="cls-2" d="M10,36.75c2.74-.63,5.45-1.34,8.09-2l1.38-.36c-2-.33-4.11-.65-6.3-.93C12.37,34.21,11.25,35.39,10,36.75Z"></path><path class="cls-2" d="M18,27.85A52.56,52.56,0,0,1,24.36,24,64.93,64.93,0,0,0,9.62,27.89,62.6,62.6,0,0,0,18,27.85Z"></path><path class="cls-2" d="M44.72,37V33.41c-.88-.13-1.78-.23-2.69-.31a58.29,58.29,0,0,0-16.49,1.08l1.4.28A115.54,115.54,0,0,0,44.72,37Z"></path><path class="cls-2" d="M7.23,28.94c-1,.48-2,1-3.08,1.54-.37.2-.81.45-1.3.74,3.43.16,6.75.48,9.91.88,1.14-1.05,2.25-2,3.38-2.9A55.16,55.16,0,0,1,7.23,28.94Z"></path><path class="cls-2" d="M27.68,22.2l.47-.06c1.12-.51,2.31-1,3.58-1.55a60,60,0,0,1,13-3.65V.26H.25v25.9A36,36,0,0,0,7,27.65C13,24.93,18.68,23.46,27.68,22.2Z"></path><path class="cls-2" d="M29.9,27.77c-3.74.51-7.6,1-11.51,1.31-1.36,1-2.67,2.05-4,3.23,2,.27,3.85.56,5.65.86l2.39.42a61.46,61.46,0,0,1,19.71-1.74c.87.07,1.74.18,2.58.29V26.29c-2.1.1-4.26.26-6.5.47C35.56,27,32.81,27.38,29.9,27.77Z"></path><path class="cls-2" d="M.25,39.66v5.08H1.78c1.34-1.83,3.1-4,4.84-6C4.51,39.13,2.38,39.45.25,39.66Z"></path><path class="cls-2" d="M22.47,34.88l-.69.16-3.35.88c-3.11.83-6.42,1.7-9.81,2.41-1.85,2.11-3.78,4.44-5.28,6.41H44.72v-6.5a116.72,116.72,0,0,1-18-2.55C25.24,35.4,23.84,35.13,22.47,34.88Z"></path></svg> 