<?xml version="1.0" encoding="UTF-8" standalone="no"?>
<!-- Created with Inkscape (http://www.inkscape.org/) -->

<svg
   version="1.1"
   id="svg2"
   xml:space="preserve"
   width="377.94666"
   height="77.919998"
   viewBox="0 0 377.94666 77.919998"
   sodipodi:docname="nosp.eps"
   xmlns:inkscape="http://www.inkscape.org/namespaces/inkscape"
   xmlns:sodipodi="http://sodipodi.sourceforge.net/DTD/sodipodi-0.dtd"
   xmlns="http://www.w3.org/2000/svg"
   xmlns:svg="http://www.w3.org/2000/svg"><defs
     id="defs6" /><sodipodi:namedview
     id="namedview4"
     pagecolor="#ffffff"
     bordercolor="#666666"
     borderopacity="1.0"
     inkscape:pageshadow="2"
     inkscape:pageopacity="0.0"
     inkscape:pagecheckerboard="0" /><g
     id="g8"
     inkscape:groupmode="layer"
     inkscape:label="ink_ext_XXXXXX"
     transform="matrix(1.3333333,0,0,-1.3333333,0,77.92)"><g
       id="g10"
       transform="scale(0.1)"><path
         d="m 734.859,516.992 h 25.926 L 906.148,339.309 h 0.586 v 177.683 h 21.582 V 308.984 h -25.05 L 757.027,486.672 h -0.586 V 308.984 h -21.582 v 208.008"
         style="fill:#231f20;fill-opacity:1;fill-rule:nonzero;stroke:none"
         id="path12" /><path
         d="m 1071.63,323.586 c 45.69,0 89.69,26.805 89.69,89.402 0,62.649 -44,89.453 -89.69,89.453 -45.76,0 -89.751,-26.804 -89.751,-89.453 0,-62.597 43.991,-89.402 89.751,-89.402 z m 0,198.633 c 59.07,0 112.98,-35.84 112.98,-109.231 0,-73.386 -53.91,-109.226 -112.98,-109.226 -59.18,0 -113.04,35.84 -113.04,109.226 0,73.391 53.86,109.231 113.04,109.231"
         style="fill:#231f20;fill-opacity:1;fill-rule:nonzero;stroke:none"
         id="path14" /><path
         d="m 1239.93,420.266 h 91.21 c 23.59,0 44.83,8.738 44.83,40.476 0,30.617 -23,36.426 -42.83,36.426 h -93.21 z m -21.53,96.726 h 113.28 c 35.25,0 67.63,-12.547 67.63,-56.25 0,-22.121 -13.72,-44.238 -40.77,-50.344 v -0.585 c 29.39,-4.684 35.49,-23.629 36.96,-57.711 0.58,-13.086 2.34,-38.43 7.27,-43.118 h -23.29 c -3.81,4.395 -5.22,19.825 -5.52,42.532 -0.58,36.714 -14.59,48.972 -50.39,48.972 h -83.64 v -91.504 h -21.53 v 208.008"
         style="fill:#231f20;fill-opacity:1;fill-rule:nonzero;stroke:none"
         id="path16" /><path
         d="m 1455.8,420.266 h 91.17 c 23.57,0 44.86,8.738 44.86,40.476 0,30.617 -23.05,36.426 -42.81,36.426 h -93.22 z m -21.53,96.726 h 113.28 c 35.26,0 67.58,-12.547 67.58,-56.25 0,-22.121 -13.73,-44.238 -40.78,-50.344 v -0.585 c 29.4,-4.684 35.51,-23.629 36.97,-57.711 0.59,-13.086 2.35,-38.43 7.27,-43.118 h -23.28 c -3.77,4.395 -5.24,19.825 -5.53,42.532 -0.59,36.714 -14.55,48.972 -50.39,48.972 h -83.59 v -91.504 h -21.53 v 208.008"
         style="fill:#231f20;fill-opacity:1;fill-rule:nonzero;stroke:none"
         id="path18" /><path
         d="m 1650.09,516.992 h 21.53 V 404.543 l 134.27,112.449 h 31.16 l -103.07,-85.937 110.1,-122.071 h -30.62 l -96.38,107.52 -45.46,-37.305 v -70.215 h -21.53 v 208.008"
         style="fill:#231f20;fill-opacity:1;fill-rule:nonzero;stroke:none"
         id="path20" /><path
         d="m 1989.39,561.816 h 21.58 v -32.031 h -21.58 z m -65.82,0 h 21.58 v -32.031 h -21.58 z m 43.7,-238.23 c 45.75,0 89.75,26.805 89.75,89.402 0,62.649 -44,89.453 -89.75,89.453 -45.7,0 -89.7,-26.804 -89.7,-89.453 0,-62.597 44,-89.402 89.7,-89.402 z m 0,198.633 c 59.13,0 113.04,-35.84 113.04,-109.231 0,-73.386 -53.91,-109.226 -113.04,-109.226 -59.13,0 -113.04,35.84 -113.04,109.226 0,73.391 53.91,109.231 113.04,109.231"
         style="fill:#231f20;fill-opacity:1;fill-rule:nonzero;stroke:none"
         id="path22" /><path
         d="m 2135.63,416.211 h 83.3 c 36.13,0 46.58,16.602 46.58,40.769 0,31.157 -17.43,40.188 -42.18,40.188 h -87.7 z m -21.53,100.781 h 112.11 c 32.03,0 62.64,-16.015 62.64,-60.012 0,-39.304 -25.93,-60.593 -72.26,-60.593 h -80.96 v -87.403 h -21.53 v 208.008"
         style="fill:#231f20;fill-opacity:1;fill-rule:nonzero;stroke:none"
         id="path24" /><path
         d="m 2318,516.992 h 21.54 V 308.984 H 2318 v 208.008"
         style="fill:#231f20;fill-opacity:1;fill-rule:nonzero;stroke:none"
         id="path26" /><path
         d="m 2380.31,516.992 h 25.93 L 2551.6,339.309 h 0.52 v 177.683 h 21.59 V 308.984 h -25.04 l -146.24,177.688 h -0.59 V 308.984 h -21.53 v 208.008"
         style="fill:#231f20;fill-opacity:1;fill-rule:nonzero;stroke:none"
         id="path28" /><path
         d="m 2806.67,348.34 h -0.58 c -21.25,-30.567 -45.7,-44.578 -86.52,-44.578 -70.47,0 -108.95,44.285 -108.95,109.226 0,62.942 42.29,109.231 111.29,109.231 57.95,0 94.96,-32.617 100.49,-71.047 h -23.3 c -8.44,35.207 -39.89,51.269 -77.19,51.269 -56.8,0 -87.95,-34.668 -87.95,-89.453 0,-55.91 28.52,-89.402 83.89,-89.402 62.36,0 82.13,35.496 88.53,72.801 h -76.27 v 19.824 h 96.1 V 308.984 h -16.61 l -2.93,39.356"
         style="fill:#231f20;fill-opacity:1;fill-rule:nonzero;stroke:none"
         id="path30" /><path
         d="m 785.688,133.398 c 1.074,-22.949 15.285,-30.273 36.867,-30.273 15.281,0 31.101,5.422 31.101,19.922 0,17.187 -27.832,20.508 -55.957,28.418 -27.879,7.91 -57.078,20.461 -57.078,56.25 0,42.578 42.871,59.226 79.442,59.226 38.82,0 77.832,-18.796 78.125,-62.793 h -50.782 c 0.832,17.778 -15.867,23.489 -31.394,23.489 -10.938,0 -24.61,-3.809 -24.61,-16.653 0,-15.039 28.125,-17.769 56.543,-25.679 28.125,-7.91 56.543,-21.047 56.543,-56.25 0,-49.4144 -42.09,-65.2855 -84.961,-65.2855 -44.777,0 -84.375,19.6758 -84.668,69.6285 h 50.829"
         style="fill:#231f20;fill-opacity:1;fill-rule:nonzero;stroke:none"
         id="path32" /><path
         d="m 1057.66,193.215 c -2.73,19.676 -18.02,30.078 -39.31,30.078 -32.76,0 -45.358,-28.957 -45.358,-57.91 0,-28.957 12.598,-57.91 45.358,-57.91 23.73,0 37.41,13.672 39.31,36.082 h 50.83 c -2.74,-50.2933 -39.6,-79.7855 -89.06,-79.7855 -58.985,0 -97.219,45.0705 -97.219,101.6135 0,56.543 38.234,101.558 97.219,101.558 42.04,0 87.69,-26.753 89.06,-73.726 h -50.83"
         style="fill:#231f20;fill-opacity:1;fill-rule:nonzero;stroke:none"
         id="path34" /><path
         d="m 1135.49,262.891 h 50.78 V 67.8711 h -50.78 V 262.891"
         style="fill:#231f20;fill-opacity:1;fill-rule:nonzero;stroke:none"
         id="path36" /><path
         d="m 1221.52,262.891 h 155.37 V 222.168 H 1272.3 v -34.133 h 95.61 V 148.73 h -95.61 v -37.16 h 107.33 V 67.8711 H 1221.52 V 262.891"
         style="fill:#231f20;fill-opacity:1;fill-rule:nonzero;stroke:none"
         id="path38" /><path
         d="m 1408.05,262.891 h 52.14 l 67.73,-120.164 h 0.53 v 120.164 h 47.81 V 67.8711 h -52.2 l -67.72,121.5309 h -0.54 V 67.8711 h -47.75 V 262.891"
         style="fill:#231f20;fill-opacity:1;fill-rule:nonzero;stroke:none"
         id="path40" /><path
         d="m 1740.37,193.215 c -2.74,19.676 -18.01,30.078 -39.3,30.078 -32.77,0 -45.37,-28.957 -45.37,-57.91 0,-28.957 12.6,-57.91 45.37,-57.91 23.73,0 37.4,13.672 39.3,36.082 h 50.78 c -2.74,-50.2933 -39.59,-79.7855 -89.01,-79.7855 -58.98,0 -97.22,45.0705 -97.22,101.6135 0,56.543 38.24,101.558 97.22,101.558 42.03,0 87.69,-26.753 89.01,-73.726 h -50.78"
         style="fill:#231f20;fill-opacity:1;fill-rule:nonzero;stroke:none"
         id="path42" /><path
         d="m 1818.2,262.891 h 155.37 v -40.723 h -104.59 v -34.133 h 95.6 V 148.73 h -95.6 v -37.16 h 107.37 V 67.8711 H 1818.2 V 262.891"
         style="fill:#231f20;fill-opacity:1;fill-rule:nonzero;stroke:none"
         id="path44" /><path
         d="m 2142.08,172.168 h 34.13 c 15.87,0 27.34,6.594 27.34,24.316 0,18.313 -11.77,25.684 -27.34,25.684 h -34.13 z m -50.79,90.723 h 92.58 c 36.33,0 70.46,-16.7 70.46,-62.84 0,-48.34 -27.59,-67.192 -70.46,-67.192 h -41.79 V 67.8711 h -50.79 V 262.891"
         style="fill:#231f20;fill-opacity:1;fill-rule:nonzero;stroke:none"
         id="path46" /><path
         d="m 2314.39,140.527 h 44.24 l -21.54,68.262 h -0.58 z m -3.27,122.364 h 51.61 l 72.9,-195.0199 h -52.98 l -12.01,34.9609 h -67.97 l -12.3,-34.9609 h -52.15 l 72.9,195.0199"
         style="fill:#231f20;fill-opacity:1;fill-rule:nonzero;stroke:none"
         id="path48" /><path
         d="m 2501.21,178.223 h 42.57 c 15.28,0 23.48,8.203 23.48,22.898 0,14.504 -11.46,21.047 -25.68,21.047 h -40.37 z m -50.83,84.668 h 99.4 c 34.43,0 68.26,-15.578 68.26,-54.93 0,-20.996 -10.06,-40.969 -30.56,-48.879 v -0.535 c 20.76,-4.934 26.75,-28.125 28.41,-46.684 0.55,-8.203 1.37,-36.863 8.21,-43.9919 h -50.3 c -4.33,6.543 -5.17,25.6836 -5.7,31.1523 -1.37,19.6286 -4.65,39.8436 -28.42,39.8436 h -38.47 V 67.8711 h -50.83 V 262.891"
         style="fill:#231f20;fill-opacity:1;fill-rule:nonzero;stroke:none"
         id="path50" /><path
         d="m 2647.53,262.891 h 50.84 v -74.856 l 64.16,74.856 h 63.09 l -72.13,-76.758 81.15,-118.2619 h -63.12 l -52.4,81.9339 -20.75,-21.825 V 67.8711 h -50.84 V 262.891"
         style="fill:#231f20;fill-opacity:1;fill-rule:nonzero;stroke:none"
         id="path52" /><path
         d="m 43.5547,201.809 c 6.4453,3.418 12.793,6.687 19.0937,9.863 C 41.5039,215.332 20.6055,220.215 0,226.711 v -47.856 c 1.5625,-0.046 3.125,-0.093 4.6875,-0.144 16.3086,10.254 29.9297,18.359 38.8672,23.098"
         style="fill:#231f20;fill-opacity:1;fill-rule:nonzero;stroke:none"
         id="path54" /><path
         d="m 371.137,280.859 c -41.059,-18.703 -74.75,-36.621 -105.27,-56.296 41.164,3.804 81.938,9.324 121.481,14.695 38.429,5.222 74.707,10.156 110.011,13.43 29.981,2.781 58.934,4.832 87.012,6.199 v 21.972 c -65.187,6.297 -136.379,9.817 -213.234,0"
         style="fill:#231f20;fill-opacity:1;fill-rule:nonzero;stroke:none"
         id="path56" /><path
         d="M 8.98438,162.109 C 6.05469,160.254 3.07422,158.352 0,156.395 V 82.8594 c 33.6445,3.2734 67.5313,9.0351 101.223,16.1172 18.211,20.6524 35.3,39.1604 48.191,52.3904 -44.773,5.321 -91.9452,9.375 -140.42962,10.742"
         style="fill:#231f20;fill-opacity:1;fill-rule:nonzero;stroke:none"
         id="path58" /><path
         d="m 419.625,302.004 c 58.641,3.516 113.523,0.293 164.746,-4.641 v 51.172 c -52.148,-9.375 -107.57,-22.656 -164.355,-46.387 -0.149,-0.046 -0.293,-0.097 -0.391,-0.144"
         style="fill:#231f20;fill-opacity:1;fill-rule:nonzero;stroke:none"
         id="path60" /><path
         d="m 128.469,104.98 c 35.984,8.25 71.582,17.625 106.199,26.805 l 18.113,4.738 c -26.316,4.297 -53.953,8.497 -82.715,12.254 -10.836,-10.449 -25.488,-25.925 -41.597,-43.797"
         style="fill:#231f20;fill-opacity:1;fill-rule:nonzero;stroke:none"
         id="path62" /><path
         d="m 232.664,221.926 c 25.59,18.262 52.734,34.715 84.184,50.972 -78.567,-12.839 -137.063,-28.269 -193.703,-51.558 36.281,-2.445 72.949,-1.809 109.519,0.586"
         style="fill:#231f20;fill-opacity:1;fill-rule:nonzero;stroke:none"
         id="path64" /><path
         d="m 584.371,101.855 v 47.024 c -11.574,1.656 -23.391,3.023 -35.351,4.051 -68.165,5.859 -140.872,1.023 -216.696,-14.258 6.055,-1.172 12.156,-2.344 18.36,-3.567 75.14,-14.746 155.609,-30.515 233.687,-33.25"
         style="fill:#231f20;fill-opacity:1;fill-rule:nonzero;stroke:none"
         id="path66" /><path
         d="m 91.7461,207.52 c -13.3281,-6.25 -26.707,-12.942 -40.4258,-20.215 -4.8867,-2.586 -10.6484,-5.86 -17.043,-9.668 45.0196,-2.102 88.6717,-6.297 130.1757,-11.524 14.942,13.723 29.539,26.27 44.434,37.989 -39.207,-1.707 -78.465,-1.075 -117.1409,3.418"
         style="fill:#231f20;fill-opacity:1;fill-rule:nonzero;stroke:none"
         id="path68" /><path
         d="m 360.395,296.145 c 2.101,0.242 4.152,0.488 6.203,0.73 14.695,6.688 30.32,13.477 47.07,20.461 59.324,24.805 116.844,38.379 170.703,47.898 V 584.375 H 0 V 244.141 c 29.1016,-9.571 58.9844,-15.821 89.3047,-19.578 77.5433,35.64 152.8363,55.027 271.0903,71.582"
         style="fill:#231f20;fill-opacity:1;fill-rule:nonzero;stroke:none"
         id="path70" /><path
         d="m 389.594,222.949 c -49.067,-6.64 -99.899,-13.574 -151.164,-17.187 -17.922,-12.989 -35.11,-26.953 -52.539,-42.481 25.679,-3.515 50.488,-7.375 74.168,-11.277 10.351,-1.711 20.8,-3.613 31.394,-5.566 90.965,22.117 178.024,29.832 258.934,22.898 11.523,-0.977 22.851,-2.293 33.984,-3.856 v 76.903 c -27.59,-1.367 -56.055,-3.367 -85.5,-6.106 -34.961,-3.218 -71.043,-8.152 -109.277,-13.328"
         style="fill:#231f20;fill-opacity:1;fill-rule:nonzero;stroke:none"
         id="path72" /><path
         d="M 0,66.7969 V 0 H 20.1172 C 37.7422,24.0234 60.8398,52.3047 83.7383,78.9063 56.0078,73.6914 28.0273,69.4336 0,66.7969"
         style="fill:#231f20;fill-opacity:1;fill-rule:nonzero;stroke:none"
         id="path74" /><path
         d="m 291.941,129.59 c -2.976,-0.735 -6.003,-1.414 -9.031,-2.195 L 238.867,115.867 C 197.996,105.027 154.539,93.5547 109.961,84.1797 85.7422,56.4453 60.3008,25.8398 40.625,0 h 543.746 v 85.3516 c -79.445,2.7343 -160.84,18.6524 -236.859,33.5934 -19.145,3.758 -37.551,7.325 -55.571,10.645"
         style="fill:#231f20;fill-opacity:1;fill-rule:nonzero;stroke:none"
         id="path76" /></g></g></svg>
