<?xml version="1.0" encoding="UTF-8" standalone="no"?>
<!-- Created with Inkscape (http://www.inkscape.org/) -->

<svg
   version="1.1"
   id="svg2"
   xml:space="preserve"
   width="143.66667"
   height="58.720001"
   viewBox="0 0 143.66667 58.720001"
   sodipodi:docname="Kopia av SICK_Logo_Claim_sw.eps"
   xmlns:inkscape="http://www.inkscape.org/namespaces/inkscape"
   xmlns:sodipodi="http://sodipodi.sourceforge.net/DTD/sodipodi-0.dtd"
   xmlns="http://www.w3.org/2000/svg"
   xmlns:svg="http://www.w3.org/2000/svg"><defs
     id="defs6" /><sodipodi:namedview
     id="namedview4"
     pagecolor="#ffffff"
     bordercolor="#666666"
     borderopacity="1.0"
     inkscape:pageshadow="2"
     inkscape:pageopacity="0.0"
     inkscape:pagecheckerboard="0" /><g
     id="g8"
     inkscape:groupmode="layer"
     inkscape:label="ink_ext_XXXXXX"
     transform="matrix(1.3333333,0,0,-1.3333333,0,58.72)"><g
       id="g10"
       transform="scale(0.1)"><path
         d="m 1.60156,252.156 c 0,-40.824 35.87894,-58.406 68.44924,-58.406 35.7302,0 48.1402,0 76.5352,0 40.914,0 73.004,37.992 73.004,75.809 0,41.046 -32.469,73.464 -73.203,74.55 H 72.1641 c -19.9297,3.266 -18.7422,31.989 0.0039,34.668 15.3203,0 139.379,0 139.379,0 0,31.969 -24.047,57.18 -57.715,57.18 -31.684,0 -81.6679,0 -81.6679,0 -41.9961,0 -70.97269,-36.269 -70.97269,-75.019 0,-40.286 31.35159,-74.106 70.97269,-74.106 h 74.4219 c 18.848,-3.707 21.211,-30.445 0,-34.676 -19.898,0 -144.98444,0 -144.98444,0 v 0 0"
         style="fill:#231f20;fill-opacity:1;fill-rule:nonzero;stroke:none"
         id="path12" /><path
         d="m 241.074,435.969 h 57.203 V 193.75 h -57.203 v 242.219 0 0"
         style="fill:#231f20;fill-opacity:1;fill-rule:nonzero;stroke:none"
         id="path14" /><path
         d="m 558.438,254.988 c -21.024,-39.82 -62.7,-66.922 -110.512,-66.922 -69.035,0 -124.992,56.5 -124.992,126.196 0,69.691 55.957,126.187 124.992,126.187 47.344,0 88.539,-26.57 109.75,-65.758 l -51.215,-27.636 c -11.457,21.121 -33.602,35.191 -58.535,35.191 -36.363,0 -66.789,-29.91 -66.789,-67.984 0,-38.074 30.426,-67.989 66.789,-67.989 25.449,0 48.121,14.645 59.359,36.497 l 51.153,-27.782 v 0 0"
         style="fill:#231f20;fill-opacity:1;fill-rule:nonzero;stroke:none"
         id="path16" /><path
         d="M 580,435.969 V 193.75 h 57.852 v 93.848 h 20.332 l 60.879,-93.848 h 71.152 l -80.762,119.578 81.953,122.641 h -71.133 l -60.136,-97.145 h -22.285 v 97.145 H 580 v 0 0"
         style="fill:#231f20;fill-opacity:1;fill-rule:nonzero;stroke:none"
         id="path18" /><path
         d="m 0,43.125 c 0.742188,-2.5977 1.36719,-4.707 2.72656,-7.1875 1.73828,-2.8516 3.96875,-5.4492 6.56641,-7.5586 4.71483,-3.8476 12.26563,-7.9297 26.26953,-7.9297 16.7227,0 26.1484,6.9336 30.1055,12.6367 1.6133,2.2266 4.4609,7.4414 4.4609,14.8633 0,7.4414 -2.9766,14.6289 -9.043,19.2188 -3.8437,2.832 -8.4257,4.3359 -13.1367,5.5664 -3.2187,0.9961 -6.4414,1.7383 -9.664,2.5976 -7.3086,1.7383 -10.4024,1.9922 -13.6289,4.4727 -3.4688,2.5976 -4.0821,5.9375 -4.211,7.4219 0,0.9961 0.2539,3.2226 1.8594,5.4492 0.7461,1.1133 1.7344,1.9922 2.8516,2.7344 3.8359,2.3437 9.7851,2.4804 10.6562,2.4804 5.6953,0 11.2734,-1.6015 14.3672,-6.8164 0.25,-0.3711 0.9961,-1.6211 1.4922,-2.9687 2.2226,0.4883 4.5781,0.9765 6.6875,1.6015 2.7265,0.7422 5.3281,1.4844 7.9336,2.3633 -0.125,0.6055 -0.8711,2.9688 -2.1094,5.0781 -1.7383,2.9686 -4.457,5.3126 -5.332,6.0746 -8.793,7.558 -19.4493,7.675 -23.2891,7.675 -15.7383,0 -24.0391,-7.304 -27.51172,-12.773 C 4.58594,92.5586 4.33594,86.4844 4.33594,84.1406 c 0,-2.9883 0.37109,-9.2968 5.82426,-15.3711 4.0937,-4.4531 8.0546,-5.8203 10.2851,-6.5625 1.3633,-0.3711 2.7227,-0.7617 4.211,-1.25 2.7304,-0.8593 5.5781,-1.6015 8.4257,-2.3437 4.7149,-1.1133 12.1446,-2.3633 16.1055,-4.961 3.7188,-2.3437 4.3359,-6.4453 4.3359,-7.9296 0,-1.3672 -0.2421,-3.8477 -2.2304,-6.4454 -1.1133,-1.2304 -2.3477,-2.3437 -3.7149,-3.0859 -4.2148,-2.3633 -10.6523,-2.3633 -11.6406,-2.3633 -10.9023,0 -16.2344,3.5938 -18.8359,7.8125 -0.9922,1.4844 -1.4922,2.7149 -1.9844,4.3164 L 0,43.125 v 0"
         style="fill:#231f20;fill-opacity:1;fill-rule:nonzero;stroke:none"
         id="path20" /><path
         d="m 136.754,52.4219 c 0,4.9609 -0.121,10.2734 -1.363,14.9804 -0.493,1.6211 -1.481,5.0782 -4.086,8.7891 -7.313,10.6641 -18.215,11.7774 -22.797,11.7774 -13.258,0 -23.5471,-8.0469 -27.5119,-20.4493 -1.7344,-5.6836 -1.8555,-11.2695 -1.8555,-13.3593 0,-17.9688 7.1914,-25.5469 14,-29.5118 6.1992,-3.5742 12.1404,-3.9453 14.8714,-3.9453 9.414,0 18.457,4.0821 23.789,11.7578 2.109,3.1055 3.84,7.3243 4.215,8.1836 l -13.258,2.1094 c -0.5,-1.4844 -0.996,-2.7344 -1.86,-4.082 -2.73,-3.9649 -7.312,-6.4453 -12.019,-6.4453 -1.863,0 -4.957,0.2343 -8.305,3.2031 -5.324,4.7266 -5.6951,11.0351 -5.9412,13.2812 -0.1289,1.2305 -0.2539,2.461 -0.2539,3.5743 l 42.3751,0.1367 z m -42.7462,9.2773 c 0.3711,3.3594 0.625,4.3555 1.3633,6.0742 1.9844,5.3321 5.8279,7.6954 7.8089,8.6719 0.742,0.3906 2.722,1.25 5.078,1.25 1.484,0 4.336,-0.2539 7.558,-2.7344 4.707,-3.457 5.575,-7.7929 6.442,-13.2617 H 94.0078 v 0"
         style="fill:#231f20;fill-opacity:1;fill-rule:evenodd;stroke:none"
         id="path22" /><path
         d="M 149.41,86.6016 V 22.4219 l 14.5,-0.4883 v 34.1992 c 0.367,6.6992 0.863,12.7735 6.563,17.0899 2.972,2.4804 5.949,2.8515 7.308,2.8515 3.352,0 5.461,-1.4844 6.442,-2.3437 3.843,-3.3594 3.843,-7.9297 3.968,-12.8907 V 21.9336 h 13.879 v 43.7305 c -0.129,0.7422 -0.129,4.3359 -0.871,7.207 -0.734,3.0859 -1.859,5.1953 -2.351,6.1719 -1.243,2.1093 -2.848,4.1015 -4.707,5.4687 -1.739,1.2305 -5.578,3.4571 -11.524,3.5938 -10.156,0 -14.867,-6.3282 -16.847,-9.5508 -1.122,-1.7188 -2.356,-4.082 -3.102,-5.8203 V 86.6016 H 149.41 v 0"
         style="fill:#231f20;fill-opacity:1;fill-rule:evenodd;stroke:none"
         id="path24" /><path
         d="m 246.445,46.3477 c 2.973,-0.625 5.825,-1.3672 7.188,-3.711 0.625,-1.25 0.746,-2.3633 0.746,-2.9883 0,-3.5937 -2.977,-5.5664 -3.969,-6.0742 -1.238,-0.7422 -4.586,-1.8554 -8.922,-1.8554 -0.988,0 -7.429,0.1367 -11.144,3.3398 -1.121,0.9961 -1.864,1.875 -3.223,4.7266 l -13.508,-2.8516 c 2.477,-4.9609 3.844,-7.1875 5.575,-9.043 5.082,-4.9609 14.496,-6.9531 21.558,-6.9531 2.356,0 13.387,0.2539 20.817,5.7031 6.816,5.0782 7.687,12.1485 7.687,15.3516 0,6.3281 -3.102,12.5195 -8.676,15.7422 -1.734,0.9961 -3.226,1.6211 -7.191,2.8515 l -14.617,2.7344 c -3.473,0.8594 -6.692,1.4844 -8.297,4.5899 -0.625,1.1132 -0.746,2.207 -0.746,2.5976 0,1.3672 0.496,2.5977 0.746,2.9688 1.851,3.2226 6.195,3.7109 7.304,3.8476 1.489,0.2539 2.852,0.2539 3.352,0.2539 7.801,0 10.277,-4.3554 12.012,-7.0703 l 12.761,2.7149 c -2.23,4.5898 -3.089,6.0742 -4.828,7.9296 -4.707,5.0977 -13.136,7.2071 -19.824,7.2071 -6.441,0 -13.758,-1.6211 -18.59,-5.7227 -4.086,-3.5937 -6.687,-9.6484 -6.687,-15.3515 0,-8.8086 5.449,-13.125 8.176,-14.7461 2.476,-1.6211 4.832,-2.2266 7.558,-3.086 l 14.742,-3.1054 v 0"
         style="fill:#231f20;fill-opacity:1;fill-rule:nonzero;stroke:none"
         id="path26" /><path
         d="m 276.508,56.0156 c -0.996,-17.4804 7.93,-27.5195 14,-31.2304 6.07,-3.8477 12.758,-4.0821 15.238,-4.0821 4.586,0 15.363,0.8594 23.172,11.0157 4.953,6.5625 7.062,14.6289 7.062,22.6757 0,17.3438 -10.16,33.5743 -28.75,33.5743 -3.714,0 -13.75,-0.8594 -21.554,-9.043 -8.18,-8.6719 -9.039,-19.3164 -9.168,-22.9102 z m 15.117,-1.6211 c 0.25,5.586 1.359,13.5157 5.695,17.8321 3.348,3.3593 7.93,3.7304 9.543,3.7304 4.336,0 7.184,-2.1093 8.297,-3.2226 5.332,-5.0781 5.453,-12.8906 5.578,-15 0.125,-1.3477 0.125,-2.7149 0.125,-4.1992 0,-2.3633 0.371,-12.8907 -6.816,-18.4766 -1.359,-0.9766 -3.84,-2.7148 -8.051,-2.7148 -10.281,0 -13.258,10.1562 -13.754,12.7539 -0.992,3.9648 -0.742,8.0664 -0.617,9.2968 v 0"
         style="fill:#231f20;fill-opacity:1;fill-rule:evenodd;stroke:none"
         id="path28" /><path
         d="m 349.758,86.6016 v -64.668 l 5.199,0.3711 c 2.973,0.1172 6.074,0 9.047,-0.1172 v 26.6406 c 0.121,2.7149 -0.496,12.7539 6.191,19.336 3.598,3.5742 6.938,3.8281 9.047,3.9453 1.113,0.1172 2.227,0.1172 3.348,0.1172 l 0.121,15.7422 c -1.734,-0.1172 -5.699,0 -9.785,-2.461 -5.578,-3.3594 -7.805,-8.9258 -10.156,-14.8828 v 15.9766 h -13.012 v 0"
         style="fill:#231f20;fill-opacity:1;fill-rule:evenodd;stroke:none"
         id="path30" /><path
         d="m 427.527,29.1211 v -6.6992 h 16.11 v 86.2501 h -15.985 v -9.0431 l -0.125,-70.5078 v 0"
         style="fill:#231f20;fill-opacity:1;fill-rule:nonzero;stroke:none"
         id="path32" /><path
         d="M 461.715,86.6016 V 22.4219 l 14.5,-0.4883 v 34.1992 c 0.367,6.6992 0.867,12.7735 6.562,17.0899 2.977,2.4804 5.95,2.8515 7.313,2.8515 3.348,0 5.453,-1.4844 6.441,-2.3437 3.84,-3.3594 3.84,-7.9297 3.969,-12.8907 V 21.9336 h 13.875 v 43.7305 c -0.125,0.7422 -0.125,4.3359 -0.867,7.207 -0.738,3.0859 -1.863,5.1953 -2.356,6.1719 -1.238,2.1093 -2.847,4.1015 -4.703,5.4687 -1.742,1.2305 -5.578,3.4571 -11.527,3.5938 -10.156,0 -14.867,-6.3282 -16.848,-9.5508 -1.121,-1.7188 -2.355,-4.082 -3.101,-5.8203 v 13.8672 h -13.258 v 0"
         style="fill:#231f20;fill-opacity:1;fill-rule:evenodd;stroke:none"
         id="path34" /><path
         d="M 524.309,86.6016 V 74.5898 h 7.804 V 38.9063 c 0.621,-5.0782 1.114,-9.1602 4.828,-12.8711 3.602,-3.8477 8.434,-4.4727 13.879,-4.4727 2.969,0 5.957,0.2539 8.926,0.3711 l 0.117,11.8945 c -3.965,-0.3711 -8.925,-0.8593 -11.644,2.3633 -1.114,1.3477 -1.614,2.7149 -1.856,6.1914 v 32.3438 h 12.758 v 12.0117 h -12.887 v 18.0857 l -11.644,-0.859 -1.61,-17.3634 h -8.671 v 0"
         style="fill:#231f20;fill-opacity:1;fill-rule:nonzero;stroke:none"
         id="path36" /><path
         d="m 623.301,52.4219 c 0,4.9609 -0.117,10.2734 -1.367,14.9804 -0.489,1.6211 -1.485,5.0782 -4.082,8.7891 -7.305,10.6641 -18.223,11.7774 -22.793,11.7774 -13.262,0 -23.555,-8.0469 -27.52,-20.4493 -1.738,-5.6836 -1.855,-11.2695 -1.855,-13.3593 0,-17.9688 7.187,-25.5469 14.004,-29.5118 6.191,-3.5742 12.128,-3.9453 14.863,-3.9453 9.414,0 18.457,4.0821 23.789,11.7578 2.109,3.1055 3.848,7.3243 4.219,8.1836 l -13.262,2.1094 c -0.488,-1.4844 -0.996,-2.7344 -1.856,-4.082 -2.734,-3.9649 -7.304,-6.4453 -12.011,-6.4453 -1.875,0 -4.961,0.2343 -8.301,3.2031 -5.332,4.7266 -5.723,11.0351 -5.957,13.2812 -0.137,1.2305 -0.254,2.461 -0.254,3.5743 l 42.383,0.1367 z m -42.754,9.2773 c 0.371,3.3594 0.625,4.3555 1.367,6.0742 1.992,5.3321 5.82,7.6954 7.813,8.6719 0.742,0.3906 2.714,1.25 5.078,1.25 1.484,0 4.336,-0.2539 7.558,-2.7344 4.707,-3.457 5.567,-7.7929 6.446,-13.2617 h -28.262 v 0"
         style="fill:#231f20;fill-opacity:1;fill-rule:evenodd;stroke:none"
         id="path38" /><path
         d="M 635.703,109.16 V 22.0508 h 15 V 109.16 h -15 v 0"
         style="fill:#231f20;fill-opacity:1;fill-rule:nonzero;stroke:none"
         id="path40" /><path
         d="M 666.23,109.16 V 22.0508 h 15 V 109.16 h -15 v 0"
         style="fill:#231f20;fill-opacity:1;fill-rule:nonzero;stroke:none"
         id="path42" /><path
         d="M 696.504,86.6016 V 22.1875 h 14.746 v 64.4141 h -14.746 z m 0.391,22.4214 V 93.6719 h 14.238 v 15.3511 h -14.238 v 0"
         style="fill:#231f20;fill-opacity:1;fill-rule:evenodd;stroke:none"
         id="path44" /><path
         d="M 786.758,99.1211 C 778.34,99.375 774.98,98.75 771.777,96.4063 c -3.476,-2.7344 -4.472,-5.8399 -5.703,-9.9219 -4.59,0.9961 -7.441,1.6211 -12.285,1.6211 -6.797,0 -14.101,-0.9961 -19.57,-4.961 -4.59,-3.4765 -7.188,-8.6718 -7.188,-14.375 0,-9.0429 6.446,-13.2617 8.809,-15 -3.477,-2.0898 -6.817,-4.1992 -8.809,-7.6757 -0.488,-0.7422 -1.484,-2.5977 -1.484,-5.0782 0,-4.707 2.617,-7.5586 5.586,-10.8984 -4.961,-3.1055 -6.445,-4.707 -7.813,-7.6953 -1.113,-2.3438 -1.113,-4.1992 -1.113,-5.3125 0,-7.81252 5.957,-11.91409 8.047,-13.00784 2.48,-1.36718 4.473,-1.99218 5.586,-2.22656 C 738.926,1.13281 745.254,0 753.301,0 c 12.031,0 18.594,2.10938 23.418,4.84375 8.554,4.82422 9.922,11.52345 9.922,15.74215 0,6.6797 -4.219,12.2461 -10.293,14.9805 -4.336,1.8555 -10.782,2.3633 -21.309,2.5977 -6.68,0 -9.043,-0.1172 -12.383,1.1132 -3.73,1.3672 -4.59,4.1016 -4.59,5.8204 0,2.6171 1.856,4.2187 2.481,4.707 0.371,0.3711 0.859,0.7422 1.367,1.25 6.445,-1.6016 8.789,-1.8555 12.5,-1.8555 9.922,0 16.738,3.9649 19.707,6.3086 5.703,4.707 6.328,10.7813 6.328,13.5156 0,5.4493 -2.246,9.043 -3.594,10.5274 -1.367,1.4844 -2.363,2.2265 -3.984,3.457 0.625,1.25 1.25,2.2461 2.246,3.1055 2.715,2.2461 7.93,2.1094 11.641,1.9922 v 11.0156 z m -49.18,-72.7344 c 10.039,-1.8554 13.496,-1.6015 23.789,-1.7383 5.567,-0.1171 8.047,-0.9765 10.02,-2.832 1.621,-1.6211 1.738,-3.1055 1.738,-3.9844 0,-3.457 -2.969,-5.9375 -6.074,-7.0507 -3.828,-1.36724 -9.649,-1.36724 -10.528,-1.36724 -10.898,0 -17.226,2.24614 -20.078,6.32814 -0.488,0.625 -1.601,2.4805 -1.601,4.9609 0,2.5977 0.996,3.8282 2.734,5.6836 z m 4.453,43.4961 c 0.489,3.1055 2.715,9.4141 11.641,9.4141 4.707,0 7.324,-1.6016 8.555,-2.7149 3.105,-2.6172 3.339,-6.582 3.339,-8.0664 0,-4.082 -2.089,-10.7812 -11.777,-10.7812 -5.312,0 -9.902,2.4804 -11.387,7.3242 -0.625,2.1094 -0.488,3.8477 -0.371,4.8242 v 0"
         style="fill:#231f20;fill-opacity:1;fill-rule:evenodd;stroke:none"
         id="path46" /><path
         d="m 850.84,52.4219 c 0,4.9609 -0.137,10.2734 -1.367,14.9804 -0.489,1.6211 -1.485,5.0782 -4.082,8.7891 -7.305,10.6641 -18.223,11.7774 -22.813,11.7774 -13.242,0 -23.535,-8.0469 -27.5,-20.4493 -1.738,-5.6836 -1.855,-11.2695 -1.855,-13.3593 0,-17.9688 7.187,-25.5469 14.004,-29.5118 6.191,-3.5742 12.148,-3.9453 14.863,-3.9453 9.414,0 18.457,4.0821 23.789,11.7578 2.109,3.1055 3.848,7.3243 4.219,8.1836 l -13.262,2.1094 c -0.488,-1.4844 -0.996,-2.7344 -1.856,-4.082 -2.734,-3.9649 -7.304,-6.4453 -12.011,-6.4453 -1.875,0 -4.961,0.2343 -8.301,3.2031 -5.332,4.7266 -5.703,11.0351 -5.957,13.2812 -0.117,1.2305 -0.254,2.461 -0.254,3.5743 l 42.383,0.1367 z m -42.754,9.2773 c 0.371,3.3594 0.625,4.3555 1.367,6.0742 1.973,5.3321 5.82,7.6954 7.813,8.6719 0.742,0.3906 2.714,1.25 5.078,1.25 1.484,0 4.336,-0.2539 7.558,-2.7344 4.707,-3.457 5.567,-7.7929 6.446,-13.2617 h -28.262 v 0"
         style="fill:#231f20;fill-opacity:1;fill-rule:evenodd;stroke:none"
         id="path48" /><path
         d="M 863.496,86.6016 V 22.4219 l 14.492,-0.4883 v 34.1992 c 0.371,6.6992 0.879,12.7735 6.563,17.0899 2.988,2.4804 5.957,2.8515 7.324,2.8515 3.34,0 5.449,-1.4844 6.445,-2.3437 3.828,-3.3594 3.828,-7.9297 3.946,-12.8907 V 21.9336 h 13.886 v 43.7305 c -0.117,0.7422 -0.117,4.3359 -0.879,7.207 -0.722,3.0859 -1.855,5.1953 -2.343,6.1719 -1.231,2.1093 -2.852,4.1015 -4.707,5.4687 -1.739,1.2305 -5.567,3.4571 -11.524,3.5938 -10.156,0 -14.863,-6.3282 -16.855,-9.5508 -1.114,-1.7188 -2.344,-4.082 -3.086,-5.8203 v 13.8672 h -13.262 v 0"
         style="fill:#231f20;fill-opacity:1;fill-rule:evenodd;stroke:none"
         id="path50" /><path
         d="m 983.086,65.293 c -0.254,1.25 -1.133,5.4687 -2.969,9.1797 -5.957,12.2656 -18.105,13.3789 -22.676,13.3789 -12.519,0 -19.218,-7.4414 -21.816,-11.1524 -6.191,-8.5351 -6.445,-18.8281 -6.445,-22.3047 0,-11.7578 3.965,-19.3359 6.699,-23.164 1.738,-2.4805 3.34,-3.9649 4.199,-4.7266 6.328,-5.1758 14.141,-5.6836 16.856,-5.6836 7.558,0 12.519,2.7149 14.863,4.2188 0.879,0.6054 2.851,2.1093 4.961,4.5703 4.707,5.8203 5.703,11.6601 6.191,14.375 l -11.523,1.1133 c -1.719,-4.0821 -3.34,-7.6758 -7.051,-10.1563 -2.48,-1.6211 -4.844,-1.7383 -6.211,-1.7383 -4.082,0 -6.68,1.7383 -7.793,2.7344 -4.707,3.8477 -5.937,11.2695 -5.937,17.2266 0,8.6718 1.484,13.3789 3.457,16.6015 3.339,5.0782 7.675,5.8203 10.156,5.8203 2.363,0 7.695,-0.7421 10.664,-6.5625 0.859,-1.7382 1.367,-3.6132 1.738,-5.5859 l 12.637,1.8555 v 0"
         style="fill:#231f20;fill-opacity:1;fill-rule:nonzero;stroke:none"
         id="path52" /><path
         d="m 1048.32,52.4219 c 0,4.9609 -0.12,10.2734 -1.35,14.9804 -0.51,1.6211 -1.5,5.0782 -4.1,8.7891 -7.3,10.6641 -18.2,11.7774 -22.79,11.7774 -13.26,0 -23.537,-8.0469 -27.502,-20.4493 -1.738,-5.6836 -1.855,-11.2695 -1.855,-13.3593 0,-17.9688 7.168,-25.5469 13.987,-29.5118 6.19,-3.5742 12.15,-3.9453 14.86,-3.9453 9.43,0 18.48,4.0821 23.79,11.7578 2.11,3.1055 3.85,7.3243 4.22,8.1836 l -13.26,2.1094 c -0.49,-1.4844 -0.98,-2.7344 -1.86,-4.082 -2.71,-3.9649 -7.3,-6.4453 -12.01,-6.4453 -1.86,0 -4.96,0.2343 -8.3,3.2031 -5.33,4.7266 -5.7,11.0351 -5.96,13.2812 -0.12,1.2305 -0.23,2.461 -0.23,3.5743 l 42.36,0.1367 z m -42.73,9.2773 c 0.37,3.3594 0.6,4.3555 1.36,6.0742 1.98,5.3321 5.82,7.6954 7.8,8.6719 0.74,0.3906 2.73,1.25 5.07,1.25 1.49,0 4.34,-0.2539 7.56,-2.7344 4.71,-3.457 5.59,-7.7929 6.45,-13.2617 h -28.24 v 0"
         style="fill:#231f20;fill-opacity:1;fill-rule:evenodd;stroke:none"
         id="path54" /><path
         d="M 1077.46,22.1875 V 38.7891 H 1061.6 V 22.1875 h 15.86 v 0"
         style="fill:#231f20;fill-opacity:1;fill-rule:nonzero;stroke:none"
         id="path56" /></g></g></svg>
