<?xml version="1.0" encoding="utf-8"?>
<!-- Generator: Adobe Illustrator 24.1.2, SVG Export Plug-In . SVG Version: 6.00 Build 0)  -->
<svg version="1.1" id="Layer_1" xmlns="http://www.w3.org/2000/svg" xmlns:xlink="http://www.w3.org/1999/xlink" x="0px" y="0px"
	 viewBox="0 0 800 300" style="enable-background:new 0 0 800 300;" xml:space="preserve">
<style type="text/css">
	.st0{fill:#85878A;}
	.st1{fill:#36BA98;}
</style>
<g>
	<g>
		<path class="st0" d="M79.6,113.7c5,0,8.9-4,8.9-8.9c0-5-4-8.9-8.9-8.9c-5,0-8.9,4-8.9,8.9C70.5,109.7,74.6,113.7,79.6,113.7"/>
		<path class="st0" d="M153.5,105.4c-2.9-1.2-6,0.2-7.3,3.1c-0.2,0.4-22.7,49.9-67.8,49.9c-45.4,0-65.5-45.8-67.6-51
			c-1.2-2.9-4.4-4.2-7.3-3.1c-2.9,1.2-4.2,4.4-3.1,7.3c2.5,5.8,25.2,57.8,78,57.8c53.1,0,77.8-56.4,78-56.8
			C157.6,109.7,156.2,106.6,153.5,105.4"/>
		<path class="st0" d="M330.1,77.3c-25.6,0-40.4,19.1-40.4,52.6c0,24.1,11,52.4,42,52.4c15,0,26.2-7.3,32.9-21.2
			c5.6-12.1,6.2-25.8,6.2-31C370.9,86.4,348.6,77.3,330.1,77.3 M331.6,171.1c-7.3,0-31-2.9-31-41.2c0-27.5,9.8-41.6,29.3-41.6
			c7.3,0,29.7,0,29.7,41.6C359.9,168.2,338.2,171.1,331.6,171.1"/>
		<path class="st0" d="M608.7,77.5c-3.1,0-5.6,2.5-5.6,5.6v72.8c-1,2.9-11,15.4-30.2,15.4c-20.8,0-23.1-18.5-23.1-26.4V87.5
			c0-3.1-2.5-5.6-5.6-5.6h-59.9V53.1c0-3.1-2.5-5.6-5.6-5.6c-3.1,0-5.6,2.5-5.6,5.6v28.9h-59.5V62.5c0-2.9,0.6-10.2,6.4-14.8
			c6.7-5.2,18.7-5.8,35-1.7c2.9,0.8,6-1,6.7-4c0.8-2.9-1-6-4-6.7c-20-5.2-35-4-44.5,3.5c-9.8,7.5-10.8,18.9-10.8,23.5v19.3h-30.2
			c-3.1,0-5.6,2.5-5.6,5.6s2.5,5.6,5.6,5.6h30.2v83.6c0,3.1,2.5,5.6,5.6,5.6c3.1,0,5.6-2.5,5.6-5.6V92.9h59.7v54.5
			c0,10.8,3.3,19.6,9.8,25.2c5.6,5,13.5,7.5,23.3,7.5c2.7,0,5.6-0.2,8.5-0.6c3.1-0.4,5.2-3.1,4.8-6.2s-3.1-5.2-6.2-4.8
			c-10.6,1.2-18.5,0-23.1-4.2c-4-3.5-6-9.2-6-16.9V92.9h54.5v51.6c0,17.3,8.9,37.7,34.1,37.7c12.5,0,22.9-4.4,30.2-10v4.4
			c0,3.1,2.5,5.6,5.6,5.6s5.6-2.5,5.6-5.6V82.9C614.3,79.8,611.8,77.5,608.7,77.5"/>
		<path class="st0" d="M799,129.9c0-19.6-5.2-52.6-40.8-52.6c-25.6,0-40.4,19.1-40.4,52.6c0,21,11.2,52.4,42,52.4
			c15.8,0,27.7-7.1,36.2-21.8c1.5-2.7,0.6-6-2.1-7.5c-2.7-1.5-6-0.6-7.5,2.1c-6.7,11.2-14.8,16.4-26.6,16.4
			c-21.6,0-29.1-21-30.6-35.8h64.3C796.5,135.5,799,133,799,129.9 M729.1,124.5c1.2-23.9,11-36,29.1-36c18.7,0,28.3,11.9,29.5,36
			H729.1z"/>
		<path class="st0" d="M628.6,132.2c0,31.4,7.1,52.4,42,52.4c14.8,0,26.2-7.3,32.9-21.2c5.6-12.1,6.2-25.8,6.2-31
			c0-43.5-22.3-52.6-40.8-52.6c-12.3,0-22.1,4.4-28.9,12.7c0.2-27.5,0.6-58.3,0.6-58.9c0-3.1-2.5-5.6-5.4-5.6l0,0
			c-3.1,0-5.6,2.5-5.6,5.4C629.7,34.2,628.6,117.2,628.6,132.2 M670.7,173.4c-23.9,0-31-9.4-31-41.2c0-27.5,9.8-41.6,29.3-41.6
			c7.3,0,29.7,0,29.7,41.6C698.8,170.5,677.1,173.4,670.7,173.4"/>
		<path class="st0" d="M229.8,94.1c-17.7-5.8-29.1-15.8-31.2-27c-1.2-6.9,1.2-13.5,7.1-18.3c4.4-3.5,21.4-14.4,55.5-0.6
			c2.9,1,6-0.2,7.3-3.1c1-2.9-0.2-6-3.1-7.3c-26.8-10.8-51.8-9.8-66.6,2.3c-8.9,7.5-13.1,17.9-11,28.9c2.9,15.4,16.9,28.3,38.7,35.6
			c21.2,7.1,35.6,20.2,38.3,35.4c1.9,9.4-1.5,18.3-8.7,24.3c-13.9,11.7-38.7,11.7-68.2,0.4c-2.9-1-6,0.4-7.1,3.1
			c-1,2.9,0.4,6,3.1,7.1c15.6,6,30.4,8.9,43.3,8.9c14.6,0,26.8-3.7,35.8-11.2c10.4-8.7,15-21.4,12.5-35
			C272.1,118.9,255,102.4,229.8,94.1"/>
	</g>
	<g>
		<path class="st1" d="M12.3,259H7.4v11.3H1v-32.7H14c6,0,10.9,4.9,10.9,10.8c0,4.1-2.6,7.8-6.3,9.5l7.2,12.3h-7L12.3,259z
			 M7.4,253.3H14c2.4,0,4.4-2.1,4.4-4.9c0-2.7-2-4.8-4.4-4.8H7.4V253.3z"/>
		<path class="st1" d="M39.9,254c0-9.6,7.5-17,16.9-17s17,7.4,17,17c0,9.5-7.6,17-17,17S39.9,263.5,39.9,254z M67.4,254
			c0-6.3-4.6-10.7-10.6-10.7s-10.6,4.4-10.6,10.7c0,6.3,4.6,10.7,10.6,10.7S67.4,260.2,67.4,254z"/>
		<path class="st1" d="M89.1,254c0-9.6,7.1-17,17-17c6,0,11.3,3,14.1,7.7l-5.6,3.2c-1.6-2.9-4.8-4.7-8.5-4.7
			c-6.4,0-10.6,4.4-10.6,10.7c0,6.3,4.2,10.7,10.6,10.7c3.7,0,7-1.8,8.5-4.6l5.6,3.2c-2.8,4.7-8,7.7-14.1,7.7
			C96.2,271,89.1,263.5,89.1,254z"/>
		<path class="st1" d="M154.3,270.3L142.7,255v15.3h-6.4v-32.7h6.4V252l11.2-14.4h7.4l-12.1,15.9l12.6,16.8H154.3z"/>
		<path class="st1" d="M223.1,271.4l-3-3.2c-2.3,1.7-5.2,2.8-8.8,2.8c-6.6,0-11.4-3.7-11.4-9.7c0-3.8,1.9-7.3,5.5-9.4
			c-0.9-1.5-1.6-3.2-1.6-5.5c0-5.6,4.3-9.4,10.2-9.4c4.6,0,8.5,2.4,10.4,7l-5.5,3.2c-0.8-2.4-2.5-3.9-4.8-3.9
			c-2.2,0-3.9,1.4-3.9,3.5c0,2,1.2,3.3,2.7,4.9l7,7.7c0.7-1.5,1.2-3.4,1.6-5.4l5.4,3.1c-0.6,2.3-1.5,4.7-2.9,6.9l4.2,4.6
			L223.1,271.4z M216.1,263.9l-7-7.7c0,0-0.1-0.1-0.1-0.1c-1.9,1.2-2.6,2.9-2.6,4.5c0,2.6,1.8,4.4,5.4,4.4
			C213.5,265,214.9,264.6,216.1,263.9z"/>
		<path class="st1" d="M279.6,259h-4.9v11.3h-6.4v-32.7h13.1c6,0,10.9,4.9,10.9,10.8c0,4.1-2.6,7.8-6.3,9.5l7.2,12.3h-7L279.6,259z
			 M274.7,253.3h6.6c2.4,0,4.4-2.1,4.4-4.9c0-2.7-2-4.8-4.4-4.8h-6.6V253.3z"/>
		<path class="st1" d="M307.2,254c0-9.6,7.5-17,16.9-17s17,7.4,17,17c0,9.5-7.6,17-17,17S307.2,263.5,307.2,254z M334.7,254
			c0-6.3-4.6-10.7-10.6-10.7c-5.9,0-10.6,4.4-10.6,10.7c0,6.3,4.6,10.7,10.6,10.7C330.1,264.7,334.7,260.2,334.7,254z"/>
		<path class="st1" d="M376.7,264.1v6.2h-18.9v-32.7h6.4v26.5H376.7z"/>
		<path class="st1" d="M411.5,264.1v6.2h-18.9v-32.7h6.4v26.5H411.5z"/>
		<path class="st1" d="M449.4,262.9l5.5-3.2c1.2,3,3.5,5,7.5,5c3.9,0,5.2-1.6,5.2-3.5c0-2.4-2.2-3.4-7.1-4.8c-5-1.4-9.8-3.5-9.8-9.8
			c0-6.2,5.1-9.7,10.7-9.7c5.4,0,9.5,2.8,11.7,7.3l-5.4,3.1c-1.2-2.5-2.9-4.2-6.3-4.2c-2.7,0-4.3,1.4-4.3,3.3c0,2,1.3,3.1,6.2,4.6
			c5.2,1.6,10.7,3.4,10.7,10c0,6.1-4.9,9.9-11.9,9.9C455.5,271,451.1,267.7,449.4,262.9z"/>
		<path class="st1" d="M488.6,254c0-9.6,7.1-17,17-17c6,0,11.3,3,14.1,7.7l-5.6,3.2c-1.6-2.9-4.8-4.7-8.5-4.7
			c-6.4,0-10.6,4.4-10.6,10.7c0,6.3,4.2,10.7,10.6,10.7c3.7,0,7-1.8,8.5-4.6l5.6,3.2c-2.8,4.7-8,7.7-14.1,7.7
			C495.7,271,488.6,263.5,488.6,254z"/>
		<path class="st1" d="M542.2,237.6v32.7h-6.4v-32.7H542.2z"/>
		<path class="st1" d="M580.7,264.1v6.2h-20.2v-32.7h20v6.2h-13.5v7h12.4v6.1h-12.4v7.3H580.7z"/>
		<path class="st1" d="M622.7,237.6v32.7h-4.9l-14-20v20h-6.4v-32.7h4.9l14,19.9v-19.9H622.7z"/>
		<path class="st1" d="M662.5,243.8h-8.8v26.5h-6.4v-26.5h-8.8v-6.2h24V243.8z"/>
		<path class="st1" d="M684.7,237.6v32.7h-6.4v-32.7H684.7z"/>
		<path class="st1" d="M700.7,262.9l5.5-3.2c1.2,3,3.5,5,7.5,5c3.9,0,5.2-1.6,5.2-3.5c0-2.4-2.2-3.4-7.1-4.8c-5-1.4-9.8-3.5-9.8-9.8
			c0-6.2,5.1-9.7,10.7-9.7c5.4,0,9.5,2.8,11.7,7.3l-5.4,3.1c-1.2-2.5-2.9-4.2-6.3-4.2c-2.7,0-4.3,1.4-4.3,3.3c0,2,1.3,3.1,6.2,4.6
			c5.2,1.6,10.7,3.4,10.7,10c0,6.1-4.9,9.9-11.9,9.9C706.9,271,702.5,267.7,700.7,262.9z"/>
		<path class="st1" d="M762.2,243.8h-8.8v26.5h-6.4v-26.5h-8.8v-6.2h24V243.8z"/>
		<path class="st1" d="M775.3,262.9l5.5-3.2c1.2,3,3.5,5,7.5,5c3.9,0,5.2-1.6,5.2-3.5c0-2.4-2.2-3.4-7.1-4.8c-5-1.4-9.8-3.5-9.8-9.8
			c0-6.2,5.1-9.7,10.7-9.7c5.4,0,9.5,2.8,11.7,7.3l-5.4,3.1c-1.2-2.5-2.9-4.2-6.3-4.2c-2.7,0-4.3,1.4-4.3,3.3c0,2,1.3,3.1,6.2,4.6
			c5.2,1.6,10.7,3.4,10.7,10c0,6.1-4.9,9.9-11.9,9.9C781.5,271,777.1,267.7,775.3,262.9z"/>
	</g>
</g>
</svg>
