<?xml version="1.0" encoding="utf-8"?>
<!-- Generator: Adobe Illustrator 26.5.0, SVG Export Plug-In . SVG Version: 6.00 Build 0)  -->
<svg version="1.1" id="Layer_1" xmlns="http://www.w3.org/2000/svg" xmlns:xlink="http://www.w3.org/1999/xlink" x="0px" y="0px"
	 viewBox="0 0 1366 768" style="enable-background:new 0 0 1366 768;" xml:space="preserve">
<style type="text/css">
	.st0{fill:#1D1D1B;}
	.st1{fill:#FF6800;}
	.st2{fill:#EE8C00;}
	.st3{fill:#FFFFFF;}
</style>
<g>
	<path class="st0" d="M117.54,674.37c-1.4-0.42-1.81-1.4-1.12-2.51c3.63-6.42,6.28-14.09,6.7-19.4c0-4.47-2.09-7.4-5.3-7.4
		c-8.23,0-7.82,39.21-38.23,39.21c-18.7,0-31.12-14.09-31.12-35.3c0-9.91,4.05-22.46,10.05-31.26c0.7-1.12,1.81-1.54,2.51-1.12
		l19.68,8.79c1.4,0.42,1.81,1.4,1.12,2.51c-3.91,6.84-6.84,14.79-7.26,19.67c0,4.32,1.95,7.12,5.02,7.12
		c8.23,0,7.67-39.49,38.37-39.49c18.56,0,30.98,14.37,30.98,35.86c0,11.72-3.63,24-9.21,30.98c-0.84,1.12-1.81,1.53-2.51,1.12
		L117.54,674.37z"/>
	<path class="st0" d="M50.56,528.94c0-1.26,0.98-2.09,1.95-1.95l21.21,2.09c1.12,0.14,1.95,1.26,1.95,2.23v20.79h69.21
		c0.98,0,1.95,0.84,1.95,1.95v24.7c0,1.12-0.98,2.09-1.95,2.09H75.68v23.16c0,0.98-0.84,1.95-1.95,1.95H52.65
		c-1.12,0-2.09-0.98-2.09-1.95V528.94z"/>
	<path class="st0" d="M50.56,443.07c0-1.4,1.12-2.37,2.37-2.37h58.19c24.7,0,37.68,13.26,37.68,38.51
		c0,24.98-12.98,38.23-37.68,38.51H52.93c-1.26,0-2.37-1.12-2.37-2.37v-24c0-1.4,1.12-2.37,2.37-2.37h60.7
		c6.42,0,10.19-3.63,10.19-9.77c0-6.14-3.77-9.77-10.05-9.77H52.93c-1.26,0-2.37-1.12-2.37-2.37V443.07z"/>
	<path class="st0" d="M50.56,397.13c0-29.58,19.12-49.26,48.14-49.26c28.74,0,48.14,19.67,48.14,49.26v32.37
		c0,0.97-0.98,1.95-2.09,1.95h-92.1c-1.12,0-2.09-0.98-2.09-1.95V397.13z M121.73,395.46c0-10.75-9.21-18-23.02-18
		c-13.81,0-23.03,7.25-23.03,18v7.26h46.05V395.46z"/>
	<path class="st0" d="M121.73,271.52c0-1.12,0.84-2.09,1.81-2.09h21.35c0.98,0,1.95,0.98,1.95,2.09v64.89
		c0,0.97-1.12,1.95-2.09,2.23H52.51c-1.26,0-1.95-0.7-1.95-1.95v-63.49c0-1.26,0.98-2.23,1.95-2.23h21.07
		c1.26,0,2.09,0.98,2.09,2.23v36.42H86.7v-29.58c0-1.26,0.98-1.95,1.81-1.81l19.53,1.95c0.84,0.14,1.81,1.12,1.81,2.37v27.07h11.86
		V271.52z"/>
	<path class="st0" d="M50.56,180.08c0-1.26,0.98-2.09,2.09-2.09h92.24c0.98,0,1.95,0.84,1.95,2.09v24.14c0,0.98-0.7,2.23-1.81,2.93
		l-43.4,24.28h43.26c0.98,0,1.95,0.84,1.95,2.09v24.7c0,1.11-0.98,1.95-1.95,1.95H52.65c-1.12,0-2.09-0.84-2.09-1.95v-24.14
		c0-1.26,0.7-2.65,1.81-3.21l43.4-24.14H52.65c-1.12,0-2.09-0.98-2.09-1.95V180.08z"/>
	<path class="st0" d="M50.56,91.72c0-1.26,0.98-2.09,1.95-1.95l21.21,2.09c1.12,0.14,1.95,1.26,1.95,2.23v20.79h69.21
		c0.98,0,1.95,0.84,1.95,1.95v24.7c0,1.12-0.98,2.09-1.95,2.09H75.68v23.16c0,0.98-0.84,1.95-1.95,1.95H52.65
		c-1.12,0-2.09-0.98-2.09-1.95V91.72z"/>
</g>
<path class="st0" d="M360.16,503.26c2.09,0,3.39,1.83,2.61,3.65l-59.74,172.69c-0.52,1.83-2.61,3.65-4.69,3.65h-57.39
	c-2.08,0-4.17-1.82-4.69-3.65l-59.74-172.69c-0.78-1.82,0.52-3.65,2.61-3.65h58.17c2.34,0,4.43,1.83,4.96,3.65l27.39,107.22
	l27.39-107.22c0.52-1.82,2.61-3.65,4.96-3.65H360.16z"/>
<path class="st0" d="M512.4,679.87c0.78,1.57-0.26,3.39-2.35,3.39H458.4c-2.34,0-4.43-1.3-5.48-3.39l-7.83-27.39h-49.04l-7.83,27.39
	c-1.04,2.09-3.13,3.39-5.48,3.39H331.1c-2.09,0-3.13-1.82-2.35-3.39l58.96-173.21c0.78-1.56,3.65-3.39,6.26-3.39h53.21
	c2.61,0,5.48,1.83,6.26,3.39L512.4,679.87z M420.57,565.61l-14.08,49.57h28.17L420.57,565.61z"/>
<path class="st0" d="M628.72,503.26c2.35,0,3.91,1.83,3.65,3.65l-3.91,39.65c-0.26,2.09-2.34,3.65-4.17,3.65h-38.87v129.39
	c0,1.83-1.56,3.65-3.65,3.65h-46.17c-2.08,0-3.91-1.82-3.91-3.65V550.22h-43.3c-1.83,0-3.65-1.56-3.65-3.65v-39.39
	c0-2.08,1.82-3.91,3.65-3.91H628.72z"/>
<path class="st0" d="M701.47,503.26c2.35,0,3.91,1.83,3.91,3.91v172.43c0,1.83-1.56,3.65-3.91,3.65h-46.17
	c-1.82,0-3.65-1.82-3.65-3.65V507.17c0-2.08,1.83-3.91,3.65-3.91H701.47z"/>
<path class="st0" d="M814.16,686.06c-55.56,0-92.61-37.56-92.61-93.65c0-56.61,37.04-94.18,92.61-94.18
	c55.56,0,92.61,37.56,92.61,94.18C906.76,648.5,869.72,686.06,814.16,686.06z M814.16,550.94c-21.39,0-35.74,16.7-35.74,41.48
	s14.35,41.48,35.74,41.48c21.39,0,35.74-16.7,35.74-41.48S835.55,550.94,814.16,550.94z"/>
<path class="st0" d="M1069.6,503.26c2.35,0,3.91,1.83,3.91,3.91v172.43c0,1.83-1.56,3.65-3.91,3.65h-45.13
	c-1.82,0-4.17-1.3-5.48-3.39l-45.39-81.13v80.87c0,1.83-1.56,3.65-3.91,3.65h-46.17c-2.08,0-3.65-1.82-3.65-3.65V507.17
	c0-2.08,1.57-3.91,3.65-3.91h45.13c2.34,0,4.96,1.3,6,3.39l45.13,81.13v-80.61c0-2.08,1.83-3.91,3.65-3.91H1069.6z"/>
<path class="st1" d="M1140.67,503.26c15.6,0,25.96,9.29,25.96,23.22c0,8.57-4.17,14.88-10.6,16.79c7.5,1.91,12.38,9.05,12.38,18.93
	c0,13.93-10.36,23.22-25.83,23.22h-37.74c-0.95,0-1.67-0.83-1.67-1.67v-78.7c0-0.83,0.71-1.79,1.67-1.79H1140.67z M1135.2,535.53
	c3.57,0,5.95-2.14,5.95-5.48s-2.38-5.48-5.95-5.48h-7.5v10.95H1135.2z M1137.34,564.1c3.45,0,5.83-2.26,5.83-5.72
	c0-3.45-2.38-5.71-5.83-5.71h-9.64v11.43H1137.34z"/>
<path class="st1" d="M1245.1,503.26c1.07,0,1.91,0.83,1.31,1.9l-26.31,47.38v31.19c0,0.83-0.83,1.67-1.79,1.67h-20.95
	c-0.95,0-1.79-0.83-1.79-1.67v-31.19l-26.31-47.38c-0.6-1.07,0.24-1.9,1.31-1.9h24.77c1.19,0,2.26,0.83,2.74,1.9l9.76,21.43
	l9.76-21.43c0.48-1.07,1.55-1.9,2.74-1.9H1245.1z"/>
<path class="st1" d="M1149.96,661.83c0.83,0,1.55,0.71,1.55,1.67l-1.67,18.1c-0.12,0.83-0.95,1.67-1.9,1.67h-42.98
	c-0.95,0-1.79-0.83-1.79-1.67v-78.7c0-0.95,0.83-1.79,1.79-1.79h21.07c0.95,0,1.79,0.83,1.79,1.79v58.93H1149.96z"/>
<path class="st1" d="M1185.22,601.11c1.07,0,1.79,0.83,1.79,1.79v78.7c0,0.83-0.71,1.67-1.79,1.67h-21.07
	c-0.83,0-1.67-0.83-1.67-1.67v-78.7c0-0.95,0.83-1.79,1.67-1.79H1185.22z"/>
<path class="st1" d="M1262.13,601.11c1.19,0,2.03,0.95,2.03,2.02v49.65c0,21.07-11.31,32.14-32.86,32.14
	c-21.31,0-32.62-11.07-32.86-32.14v-49.65c0-1.07,0.95-2.02,2.03-2.02h20.48c1.19,0,2.02,0.95,2.02,2.02v51.79
	c0,5.48,3.1,8.69,8.33,8.69s8.33-3.22,8.33-8.57v-51.91c0-1.07,0.95-2.02,2.02-2.02H1262.13z"/>
<path class="st0" d="M283.83,89.75h-99.66c-3.94,0-7.88,3.95-7.88,8.45v372.19c0,3.95,3.95,7.88,7.88,7.88h99.66
	c5.07,0,8.45-3.94,8.45-7.88V98.2C292.27,93.7,288.9,89.75,283.83,89.75z"/>
<path class="st0" d="M634.48,89.75h-99.66c-3.94,0-7.88,3.95-7.88,8.45v173.99L429.52,97.08c-2.25-4.51-7.87-7.32-12.95-7.32h-97.41
	c-4.5,0-7.88,3.95-7.88,8.45v372.19c0,3.95,3.39,7.88,7.88,7.88h99.66c5.07,0,8.45-3.94,8.45-7.88V295.84l97.98,175.11
	c2.81,4.51,7.88,7.32,11.82,7.32h97.41c5.07,0,8.45-3.94,8.45-7.88V98.2C642.93,93.7,639.55,89.75,634.48,89.75z"/>
<path class="st0" d="M985.14,89.75h-99.66c-3.94,0-7.88,3.95-7.88,8.45v173.99L780.17,97.08c-2.25-4.51-7.87-7.32-12.95-7.32h-97.41
	c-4.5,0-7.88,3.95-7.88,8.45v372.19c0,3.95,3.39,7.88,7.88,7.88h99.66c5.07,0,8.45-3.94,8.45-7.88V295.84l97.98,175.11
	c2.81,4.51,7.88,7.32,11.82,7.32h97.41c5.07,0,8.45-3.94,8.45-7.88V98.2C993.58,93.7,990.21,89.75,985.14,89.75z"/>
<path class="st2" d="M1123.94,283.97"/>
<path class="st0" d="M1129.32,481.14c-118.01,0-196.68-79.78-196.68-198.89c0-120.23,78.67-200.01,196.68-200.01
	S1326,162.01,1326,282.25C1326,401.36,1247.33,481.14,1129.32,481.14z M1129.32,370.34"/>
<g>
	<path class="st3" d="M1280.9,267.33c-1.33,0-2.62,0.17-3.84,0.5l-31.68-80.57h0.01c3.28-2.74,5.38-6.87,5.38-11.48
		c0-8.27-6.73-15.01-15-15.01c-4.98,0-9.38,2.43-12.11,6.16l-0.01,0.01l0.01-0.04l-81.85-34.39c-1.29-6.96-7.41-12.26-14.74-12.26
		c-8.19,0-14.88,6.61-15,14.76l-75.97,31.41c-2.74-3.44-6.98-5.66-11.72-5.66c-8.27,0-15.01,6.73-15.01,15.01
		c0,4.56,2.04,8.64,5.26,11.39l-33.63,80.53c-1.05-0.25-2.14-0.36-3.25-0.36c-8.27,0-15,6.73-15,15c0,8.27,6.73,15.01,15,15.01
		c0.8,0,1.59-0.06,2.34-0.18h0.01l32.99,82.48c-0.82,1.85-1.28,3.88-1.28,6.03c0,8.27,6.73,15.01,15.01,15.01
		c3.28,0,6.33-1.07,8.8-2.88l81.54,35.07c1.99,5.96,7.61,10.26,14.22,10.26c7.53,0,13.77-5.57,14.84-12.8l78.1-32.07h0.01v0.01
		c2.76,3.25,6.86,5.31,11.45,5.31c8.27,0,15-6.73,15-15c0-4.86-2.31-9.17-5.9-11.91l34.18-79.45h0.01c0.6,0.08,1.21,0.12,1.84,0.12
		c8.27,0,15-6.73,15-15.01C1295.9,274.06,1289.17,267.33,1280.9,267.33z M1271.36,270.76c-1.49,1.22-2.72,2.71-3.65,4.4
		l-66.83-16.32v-0.14c0-4.45-1.94-8.44-5.01-11.2l-0.01-0.01l34.15-57.88h0.01c1.77,0.75,3.72,1.16,5.75,1.16
		c1.37,0,2.68-0.18,3.94-0.53L1271.36,270.76z M1212.59,293.99c-1.27,0-2.48,0.15-3.65,0.46h-0.01l-13.71-24.01
		c1.8-1.43,3.26-3.27,4.26-5.38l66.46,16.24c-0.03,0.34-0.04,0.68-0.04,1.03c0,1.14,0.13,2.25,0.37,3.32v0.01l-41.62,14.43
		C1221.92,296.4,1217.53,293.99,1212.59,293.99z M1221.21,308.99c0,4.76-3.87,8.62-8.62,8.62c-4.76,0-8.63-3.86-8.63-8.62
		c0-4.76,3.87-8.62,8.63-8.62C1217.33,300.37,1221.21,304.23,1221.21,308.99z M1197.66,310.51l-93.88,38.03
		c-0.15-0.3-0.33-0.59-0.52-0.88l72.77-77.65l0.01,0.01c2.63,2.3,6.08,3.69,9.84,3.69c1.24,0,2.45-0.15,3.61-0.45l13.71,24.04
		c-3.43,2.75-5.62,6.96-5.62,11.69C1197.58,309.5,1197.61,310.01,1197.66,310.51z M1037.03,302.51l41.68-56.94
		c0.65,0.23,1.3,0.42,1.98,0.56l4.67,95.63c-1.9,0.73-3.64,1.83-5.08,3.22l-40.3-24.32v-0.01c1.16-2.12,1.82-4.57,1.82-7.16
		C1041.81,309.16,1039.97,305.26,1037.03,302.51z M1031.52,299.24c-1.48-0.5-3.06-0.77-4.71-0.77c-4.54,0-8.6,2.02-11.35,5.2
		l-23.47-16.67c0.49-1.48,0.76-3.05,0.76-4.68c0-0.8-0.06-1.59-0.18-2.34v-0.01l79.64-39h0.01v0.01c0.35,0.41,0.7,0.81,1.08,1.18
		L1031.52,299.24z M1035.43,313.48c0,4.76-3.87,8.62-8.62,8.62c-4.76,0-8.63-3.86-8.63-8.62c0-4.76,3.87-8.62,8.63-8.62
		C1031.56,304.85,1035.43,308.72,1035.43,313.48z M1075.17,231.44c0-4.75,3.87-8.62,8.62-8.62c4.76,0,8.63,3.87,8.63,8.62
		c0,4.76-3.87,8.63-8.63,8.63C1079.04,240.07,1075.17,236.2,1075.17,231.44z M1090.66,347.16c4.76,0,8.62,3.86,8.62,8.62
		c0,4.76-3.86,8.63-8.62,8.63s-8.62-3.87-8.62-8.63C1082.04,351.03,1085.9,347.16,1090.66,347.16z M1098.74,343.16
		c-2.06-1.33-4.46-2.16-7.04-2.33h-0.01l-4.63-94.75h0.01c4.31-0.96,7.93-3.79,9.96-7.59l73.86,19.44
		c-0.01,0.26-0.02,0.52-0.02,0.78c0,2.17,0.46,4.23,1.3,6.09v0.01L1098.74,343.16z M1092.68,219.37l31.13-69.47h0.01
		c1.05,0.25,2.13,0.36,3.24,0.36c1.98,0,3.85-0.38,5.59-1.08l43.17,98.41c-1.31,1.19-2.42,2.62-3.24,4.19l-73.81-19.43
		c0.02-0.3,0.03-0.6,0.03-0.9C1098.8,226.5,1096.39,222.1,1092.68,219.37z M1177.26,258.71c0-4.76,3.87-8.63,8.63-8.63
		c4.75,0,8.62,3.87,8.62,8.63c0,4.75-3.87,8.62-8.62,8.62C1181.13,267.33,1177.26,263.46,1177.26,258.71z M1235.77,167.14
		c4.75,0,8.62,3.87,8.62,8.63c0,4.76-3.87,8.62-8.62,8.62c-4.76,0-8.63-3.86-8.63-8.62
		C1227.14,171.02,1231.01,167.14,1235.77,167.14z M1138.01,145.49c1.62-1.73,2.84-3.85,3.5-6.2l79.57,33.43
		c-0.21,0.98-0.32,2-0.32,3.04c0,3.94,1.52,7.51,4,10.19l-34.44,58.4h-0.01c-1.4-0.43-2.88-0.67-4.43-0.67
		c-1.57,0-3.08,0.25-4.5,0.69h-0.01L1138.01,145.49L1138.01,145.49z M1127.06,126.63c4.76,0,8.62,3.87,8.62,8.62
		c0,4.76-3.86,8.63-8.62,8.63c-4.76,0-8.63-3.87-8.63-8.63C1118.44,130.5,1122.31,126.63,1127.06,126.63z M1038.93,172.16
		l74.45-30.79v0.01c1.03,2.32,2.64,4.33,4.65,5.85l-31.17,69.54h-0.01c-0.99-0.21-2.01-0.32-3.06-0.32c-3.33,0-6.41,1.09-8.89,2.93
		h-0.01l-38.26-34.97c1.73-2.44,2.74-5.41,2.74-8.63C1039.37,174.53,1039.22,173.31,1038.93,172.16z M1024.37,167.14
		c4.76,0,8.62,3.87,8.62,8.63c0,4.76-3.86,8.62-8.62,8.62c-4.76,0-8.63-3.86-8.63-8.62
		C1015.74,171.02,1019.62,167.14,1024.37,167.14z M1020.27,190.2c1.3,0.37,2.68,0.57,4.1,0.57c2.74,0,5.32-0.74,7.54-2.04
		l38.77,35.44c-1.2,2.15-1.89,4.63-1.89,7.27c0,1.34,0.17,2.63,0.51,3.86l-79.08,38.72c-0.94-1.41-2.1-2.64-3.44-3.65L1020.27,190.2
		z M977.74,290.96c-4.76,0-8.62-3.87-8.62-8.63c0-4.75,3.86-8.62,8.62-8.62c4.76,0,8.63,3.87,8.63,8.62
		C986.37,287.08,982.49,290.96,977.74,290.96z M1017.62,373.82l-31.59-78.99c0.99-0.67,1.9-1.43,2.7-2.3l23.66,16.79
		c-0.38,1.31-0.58,2.71-0.58,4.15c0,6.46,4.1,11.96,9.82,14.08l-0.53,44.25C1019.85,372.32,1018.68,372.99,1017.62,373.82
		L1017.62,373.82z M1026.81,394.3c-4.76,0-8.63-3.87-8.63-8.63c0-4.75,3.87-8.62,8.63-8.62c4.75,0,8.62,3.87,8.62,8.62
		C1035.43,390.42,1031.56,394.3,1026.81,394.3z M1027.48,370.68l0.51-42.26h0.01c2.88-0.23,5.53-1.28,7.73-2.91l40.99,24.74
		c-0.68,1.7-1.06,3.57-1.06,5.52c0,1.39,0.19,2.72,0.55,3.99l-37.33,16.99C1036.27,373.25,1032.15,370.89,1027.48,370.68z
		 M1116.58,425.67l-76.56-32.92v-0.01c1.14-2.11,1.79-4.52,1.79-7.08c0-1.06-0.11-2.08-0.32-3.07v-0.01l37.68-17.16h0.01v0.01
		c2.75,3.27,6.88,5.36,11.48,5.36c1.31,0,2.58-0.17,3.79-0.48l23.88,50.41C1117.47,422.23,1116.87,423.89,1116.58,425.67z
		 M1131.38,436.74c-4.76,0-8.62-3.87-8.62-8.63c0-4.75,3.86-8.62,8.62-8.62s8.62,3.87,8.62,8.62
		C1140,432.87,1136.13,436.74,1131.38,436.74z M1137.74,414.53L1137.74,414.53c-1.94-0.91-4.1-1.42-6.37-1.42
		c-3.1,0-5.99,0.95-8.37,2.56l-22.86-48.27c3.37-2.74,5.52-6.93,5.52-11.62c0-0.37-0.01-0.73-0.05-1.09v-0.01l94.03-38.1
		c0.69,1.18,1.54,2.25,2.52,3.2L1137.74,414.53z M1220.77,388.57c0,1.39,0.19,2.73,0.56,4.02l-75.63,31.05
		c-0.6-1.93-1.59-3.7-2.88-5.21l64.79-95.29c1.56,0.56,3.24,0.86,4.98,0.86c0.17,0,0.34,0,0.51-0.01l15.76,51.29
		C1224.06,377.76,1220.77,382.79,1220.77,388.57z M1244.39,388.57c0,4.76-3.86,8.62-8.62,8.62c-4.76,0-8.62-3.86-8.62-8.62
		c0-4.76,3.86-8.62,8.62-8.62C1240.53,379.95,1244.39,383.82,1244.39,388.57z M1239.1,373.96c-1.08-0.26-2.18-0.38-3.33-0.38
		c-0.25,0-0.5,0.01-0.75,0.02l-15.74-51.19h0.01c4.91-2.46,8.29-7.55,8.29-13.41c0-1.05-0.11-2.06-0.32-3.05v-0.01l41.74-14.48
		c1.1,1.45,2.47,2.69,4.03,3.65L1239.1,373.96z M1280.9,290.96c-4.76,0-8.63-3.87-8.63-8.63c0-4.75,3.87-8.62,8.63-8.62
		c4.76,0,8.62,3.87,8.62,8.62C1289.53,287.08,1285.66,290.96,1280.9,290.96z"/>
</g>
</svg>
