<?xml version="1.0" encoding="UTF-8" standalone="no"?>
<svg
   xmlns:dc="http://purl.org/dc/elements/1.1/"
   xmlns:cc="http://creativecommons.org/ns#"
   xmlns:rdf="http://www.w3.org/1999/02/22-rdf-syntax-ns#"
   xmlns:svg="http://www.w3.org/2000/svg"
   xmlns="http://www.w3.org/2000/svg"
   viewBox="0 0 960 960"
   height="960"
   width="960"
   xml:space="preserve"
   id="svg2"
   version="1.1"><metadata
     id="metadata8"><rdf:RDF><cc:Work
         rdf:about=""><dc:format>image/svg+xml</dc:format><dc:type
           rdf:resource="http://purl.org/dc/dcmitype/StillImage" /></cc:Work></rdf:RDF></metadata><defs
     id="defs6" /><g
     transform="matrix(1.3333333,0,0,-1.3333333,0,960)"
     id="g10"><g
       transform="scale(0.1)"
       id="g12"><path
         id="path14"
         style="fill:#fbd82c;fill-opacity:1;fill-rule:evenodd;stroke:none"
         d="m 2146.81,3325.62 c 0,-45.54 -36.97,-82.53 -82.54,-82.53 h -548.7 c -45.57,0 -82.54,36.99 -82.54,82.53 v 548.75 c 0,45.61 36.97,82.54 82.54,82.54 h 548.7 c 45.57,0 82.54,-36.93 82.54,-82.54 v -548.75" /><path
         id="path16"
         style="fill:#231f20;fill-opacity:1;fill-rule:evenodd;stroke:none"
         d="m 1789.73,3554.86 c 6.76,0 13.62,0 20.43,0 16.15,0 32.32,0 48.52,0.08 1.85,0.02 3.87,0.26 5.64,0.9 3.35,1.27 5.43,4.69 5.15,7.77 -0.36,3.44 -2.98,6.57 -6.49,7.39 -1.33,0.29 -2.71,0.41 -4.07,0.45 -5.14,0.07 -10.3,0.01 -15.45,0.01 -40.62,0 -81.25,0.02 -121.91,-0.01 -1.53,0 -3.13,-0.1 -4.63,-0.45 -3.56,-0.86 -6.16,-4.03 -6.41,-7.46 -0.23,-3.19 1.76,-6.37 5.19,-7.72 1.57,-0.62 3.39,-0.86 5.08,-0.88 22.98,-0.08 45.97,-0.08 68.95,-0.08 z m 0.46,-33.77 c 10.27,0 20.57,0 30.87,0 12.7,0 25.38,0 38.04,0.04 1.75,0.02 3.52,0.28 5.14,0.84 3.31,1.14 5.67,4.59 5.54,7.56 -0.18,3.54 -3.16,7.01 -6.73,7.77 -1.36,0.28 -2.75,0.41 -4.11,0.41 -45.9,0 -91.74,0 -137.62,0 -1.3,0 -2.6,-0.13 -3.84,-0.39 -3.71,-0.78 -6.59,-4.14 -6.81,-7.77 -0.16,-3.09 2.23,-6.5 5.7,-7.69 1.5,-0.51 3.24,-0.73 4.86,-0.73 22.99,-0.04 45.97,-0.04 68.96,-0.04 z m -151.8,-10.17 c 18.95,-0.08 34.6,15.33 34.6,34.2 0,18.42 -14.39,34.49 -34.68,34.43 -20.06,-0.06 -34.37,-15.88 -34.42,-34.37 -0.12,-18.83 15.52,-34.26 34.5,-34.26 z m 270.65,35.23 c 0.28,-18.36 14.3,-34.28 34.53,-34.29 20.53,-0.06 34.51,16.21 34.67,34.16 0.16,18.86 -15.61,34.57 -34.66,34.49 -18.31,-0.06 -34.22,-14.47 -34.54,-34.36 z m -119.15,105.61 c 0,-0.06 0,-0.1 0,-0.1 32.19,0 64.36,0 96.57,0 5.42,-0.06 10.86,-0.08 16.25,-0.18 2.91,-0.03 4.74,1.37 5.66,3.99 0.46,1.31 0.71,2.83 0.52,4.32 -1.57,15.62 -4.36,31.05 -7.06,46.52 -1.7,9.74 -4.83,19.1 -10.36,27.42 -7.93,11.82 -18.76,18.07 -33.21,17.46 -5.83,-0.21 -11.6,-0.21 -17.39,-0.21 -40.48,0.11 -80.94,0.19 -121.4,0.27 -10.19,0.06 -18.86,-3.61 -25.92,-10.94 -5.68,-5.84 -9.37,-12.85 -12.09,-20.47 -2.4,-6.79 -3.72,-13.8 -4.78,-20.91 -1.36,-9.18 -3.01,-18.32 -4.42,-27.5 -0.65,-4.07 -1.12,-8.15 -1.5,-12.29 -0.39,-4.82 2.33,-7.62 7.11,-7.66 0.29,0 0.56,0 0.83,0 14.82,0.1 29.64,0.22 44.43,0.26 22.25,0.04 44.51,0.02 66.76,0.02 z m -160.72,-5.8 c 0.38,3.65 0.67,6.97 1.12,10.35 1.19,9.02 2.45,18.01 3.65,27.03 0.73,5.51 1.15,10.98 1.98,16.43 3.17,20.37 9.1,39.74 20.33,57.26 5.49,8.5 12.09,15.98 20.26,21.99 10.57,7.74 22.38,11.76 35.47,11.94 7.91,0.11 15.83,0.21 23.72,0.33 0.73,0 1.43,0.14 2.35,0.21 0.12,2.25 0.33,4.32 0.35,6.39 0.13,3.69 0.15,7.36 0.13,11.06 -0.09,6.36 4.41,13.02 13.01,13 12.49,-0.09 25.02,0.24 37.53,0.24 12.87,0 25.77,-0.33 38.62,-0.22 7.34,0.04 13.49,-4.43 13.62,-13.65 0.07,-5 0.11,-9.92 0.16,-14.9 0,-0.51 0.08,-1.06 0.17,-1.99 2.26,-0.14 4.53,-0.36 6.78,-0.36 7.47,-0.11 14.89,0.08 22.37,-0.29 11.67,-0.53 22.24,-4.47 31.76,-11.29 11.79,-8.47 20.14,-19.74 26.68,-32.54 7.31,-14.27 11.77,-29.49 14.23,-45.29 1.39,-8.69 2.37,-17.52 3.46,-26.23 1.16,-9.32 2.22,-18.61 3.35,-27.91 0.07,-0.53 0.29,-1.04 0.41,-1.41 4.88,-0.9 9.58,-1.56 14.2,-2.59 12.9,-2.99 24.41,-8.62 33.65,-18.4 7.33,-7.74 11.86,-16.96 14.54,-27.17 1.87,-7.23 2.63,-14.67 2.63,-22.13 0.04,-29.53 0.07,-59.08 0,-88.55 -0.06,-16.96 -7.2,-30.32 -20.66,-40.4 -5.59,-4.19 -11.75,-7.16 -18.99,-8.43 0,-1.08 0,-2.09 0,-3.05 0.06,-6.66 0.13,-13.26 0.16,-19.88 0.14,-14.65 -6.53,-25.57 -19.2,-32.37 -12.78,-6.81 -26.15,-7.2 -39.16,-0.43 -10.67,5.55 -16.51,14.87 -18.61,26.59 -0.46,2.56 -0.37,5.27 -0.37,7.95 0.04,6.05 0.14,12.12 0.2,18.18 0,0.55 -0.06,1.07 -0.09,1.48 -0.13,0.22 -0.2,0.3 -0.25,0.34 -0.09,0.05 -0.15,0.13 -0.24,0.13 -0.64,0.06 -1.28,0.18 -1.94,0.18 -71.54,-0.33 -143.1,-0.39 -214.67,-0.08 -0.29,0 -0.5,-0.12 -1.02,-0.25 -0.06,-0.98 -0.15,-1.94 -0.12,-2.93 0.04,-6.64 0.12,-13.28 0.12,-19.89 0.02,-15.72 -10.14,-29.82 -25.3,-34.41 -13.93,-4.18 -27.07,-2.17 -38.55,6.91 -8.99,7.04 -13.63,16.45 -13.57,28.01 0.07,6.8 0.21,13.62 0.29,20.43 0.04,0.9 0,1.82 0,2.83 -0.77,0.26 -1.35,0.47 -1.93,0.59 -16.45,3.5 -37.8,20.9 -37.71,47.62 0.03,30.35 -0.03,60.72 0.02,91.07 0.01,10.96 1.96,21.58 6.45,31.64 6.46,14.38 17.24,24.28 31.66,30.37 8.03,3.42 16.45,5.26 25.08,6.21 0.51,0.04 1.06,0.16 1.87,0.28" /><path
         id="path18"
         style="fill:#231f20;fill-opacity:1;fill-rule:nonzero;stroke:none"
         d="m 2721.74,3875.39 v -88.57 h -157.85 v -462 h -102.01 v 462 h -157.87 v 88.57 h 417.73" /><path
         id="path20"
         style="fill:#231f20;fill-opacity:1;fill-rule:nonzero;stroke:none"
         d="m 2868.42,3501.93 c -49.03,0 -73.54,-16.68 -73.54,-50.04 0,-35.95 20.53,-53.9 61.62,-53.9 33.85,0 65.32,10.53 94.3,31.56 v 64.67 c -25.66,5.14 -53.12,7.71 -82.38,7.71 z m -175.57,-51.21 c 0,80.33 58.54,120.51 175.57,120.51 27.44,0 54.94,-2.58 82.38,-7.69 v 30.41 c 0,36.19 -26.05,54.27 -78.14,54.27 -44.14,0 -93.17,-6.42 -147.07,-19.24 v 80.86 c 53.9,12.82 102.93,19.24 147.07,19.24 120.11,0 180.19,-44.41 180.19,-133.2 v -271.06 h -59.3 l -36.21,36.22 c -35.15,-24.15 -73.9,-36.22 -116.27,-36.22 -98.8,0 -148.22,41.98 -148.22,125.9" /><path
         id="path22"
         style="fill:#231f20;fill-opacity:1;fill-rule:nonzero;stroke:none"
         d="m 3252.24,3526.95 -151.28,202.13 h 113.54 l 94.34,-126.27 94.32,126.27 h 113.58 l -150.91,-202.13 150.91,-202.13 h -113.58 l -94.32,126.29 -94.34,-126.29 h -113.54 l 151.28,202.13" /><path
         id="path24"
         style="fill:#231f20;fill-opacity:1;fill-rule:nonzero;stroke:none"
         d="m 3666.88,3729.08 v -404.26 h -102.03 v 404.26 z m 0,146.31 v -80.84 h -102.03 v 80.84 h 102.03" /><path
         id="path26"
         style="fill:#231f20;fill-opacity:1;fill-rule:nonzero;stroke:none"
         d="m 4211.64,3347.93 c -47.48,-17.97 -101.39,-26.95 -161.7,-26.95 -197.64,0 -296.44,95.62 -296.44,286.83 0,180.96 98.8,271.43 296.44,271.43 60.31,0 114.22,-8.99 161.7,-26.95 v -92.41 c -47.48,20.53 -98.81,30.82 -154,30.82 -132.17,0 -198.26,-60.97 -198.26,-182.89 0,-132.19 66.09,-198.28 198.26,-198.28 55.19,0 106.52,10.27 154,30.78 v -92.38" /><path
         id="path28"
         style="fill:#231f20;fill-opacity:1;fill-rule:nonzero;stroke:none"
         d="m 4454.56,3501.93 c -49.03,0 -73.52,-16.68 -73.52,-50.04 0,-35.95 20.52,-53.9 61.59,-53.9 33.86,0 65.31,10.53 94.31,31.56 v 64.67 c -25.66,5.14 -53.12,7.71 -82.38,7.71 z M 4279,3450.72 c 0,80.33 58.52,120.51 175.56,120.51 27.46,0 54.92,-2.58 82.38,-7.69 v 30.41 c 0,36.19 -26.05,54.27 -78.14,54.27 -44.15,0 -93.17,-6.42 -147.08,-19.24 v 80.86 c 53.91,12.82 102.93,19.24 147.08,19.24 120.1,0 180.17,-44.41 180.17,-133.2 v -271.06 h -59.29 l -36.19,36.22 c -35.18,-24.15 -73.91,-36.22 -116.26,-36.22 -98.81,0 -148.23,41.98 -148.23,125.9" /><path
         id="path30"
         style="fill:#231f20;fill-opacity:1;fill-rule:nonzero;stroke:none"
         d="m 4837.24,3875.39 v -550.57 h -102.03 v 550.57 h 102.03" /><path
         id="path32"
         style="fill:#231f20;fill-opacity:1;fill-rule:nonzero;stroke:none"
         d="m 5035.5,3875.39 v -550.57 h -102.01 v 550.57 h 102.01" /><path
         id="path34"
         style="fill:#231f20;fill-opacity:1;fill-rule:nonzero;stroke:none"
         d="M 5214.5,3561.99 H 5387 v 3.09 c 0,55.96 -28.24,83.92 -84.72,83.92 -53.87,0 -83.15,-29 -87.78,-87.01 z m 87.78,167.09 c 122.69,0 184.06,-62.63 184.06,-187.89 0,-16.68 -1.17,-33.36 -3.48,-50.04 H 5214.5 c 0,-56.99 41.86,-85.47 125.53,-85.47 40.8,0 81.62,3.85 122.42,11.55 v -80.84 c -35.66,-7.7 -79.04,-11.57 -130.1,-11.57 -146.58,0 -219.86,68.93 -219.86,206.76 0,131.66 63.3,197.5 189.79,197.5" /><path
         id="path36"
         style="fill:#231f20;fill-opacity:1;fill-rule:nonzero;stroke:none"
         d="m 5562.94,3324.82 v 404.26 h 78.94 l 12.68,-51.58 c 35.43,34.37 72.89,51.58 112.42,51.58 v -82.38 c -37.97,0 -72.01,-15.8 -102.01,-47.36 v -274.52 h -102.03" /></g></g></svg>