<svg xmlns="http://www.w3.org/2000/svg" viewBox="0 0 283.46 68.96"><g id="Layer_2" data-name="Layer 2"><g id="Layer_1-2" data-name="Layer 1"><path d="M266.73,55.79c8.91,0,16.73-4.64,16.73-13,0-7.5-6.36-10.81-14.75-12.28-3.44-.76-9.74-1.65-9.74-5.47s3.57-5.28,7.45-5.28a10.77,10.77,0,0,1,9.41,4.9l7.06-4c-3.81-5.28-9.35-7.69-16.47-7.69-8.72,0-15.91,5-15.91,12.27,0,7.7,6.49,10.5,14.32,12.09,3.69.76,10.36,1.46,10.36,5.47s-3.75,5.79-8.07,5.79a12.33,12.33,0,0,1-11.07-6.11l-7.38,4.27C252.48,53.12,258.21,55.79,266.73,55.79Zm-55-18.38c-1.65-8.66,4.33-16.29,12.79-16.29a13.11,13.11,0,0,1,9.09,3.69Zm12.79,18.38A21.1,21.1,0,0,0,245,40.2h-8.46a13,13,0,0,1-12,8,13.84,13.84,0,0,1-9.93-4.45l29.65-17.18c-3.56-7.82-10.63-13.17-19.72-13.17a21.19,21.19,0,1,0,0,42.37ZM188,55h8.21V0H188Zm-30.66-6.55A13.49,13.49,0,0,1,144,34.61c0-8,5.79-13.68,13.36-13.68,8.27,0,13.36,6.93,13.36,13.68C170.68,43.07,163.62,48.6,157.32,48.41Zm-1,7.38a17.78,17.78,0,0,0,14-6.68V55h7.95V14.19H170.3V20.1a17.63,17.63,0,0,0-13.94-6.55c-11.57,0-20.54,8.71-20.54,21.12C135.82,47.77,145.61,55.79,156.3,55.79Zm-42.43,0c8.91,0,16.73-4.64,16.73-13,0-7.5-6.36-10.81-14.76-12.28-3.43-.76-9.73-1.65-9.73-5.47s3.56-5.28,7.44-5.28a10.77,10.77,0,0,1,9.42,4.9l7.06-4c-3.82-5.28-9.35-7.69-16.48-7.69-8.71,0-15.9,5-15.9,12.27,0,7.7,6.49,10.5,14.31,12.09,3.69.76,10.37,1.46,10.37,5.47s-3.75,5.79-8.08,5.79a12.34,12.34,0,0,1-11.07-6.11L95.8,46.76C99.62,53.12,105.35,55.79,113.87,55.79Zm-43-7.38a13.71,13.71,0,0,1,0-27.42c8.27,0,13.29,6.43,13.29,13.68C84.16,42.56,78.44,48.09,70.87,48.41ZM21.25,55.79c12.66,0,21.24-8.52,21.24-21.5V14.19H34.16V34.86c0,6.68-5.22,13.23-12.91,13.23-8.27,0-13-6.55-13-13.23V14.19H0V34.42C0,47.27,8.4,55.79,21.25,55.79ZM50.26,69H58V49.56c3,4.19,8,6.23,13.42,6.23,11.13,0,20.86-8.21,20.86-21.18C92.3,23.09,84,13.55,72,13.55a17.51,17.51,0,0,0-13.93,6.87V14.19H50.26Z"/></g></g></svg>