<svg xmlns="http://www.w3.org/2000/svg" xmlns:xlink="http://www.w3.org/1999/xlink" viewBox="0 0 1124.56 200.54"><defs><style>.cls-1{fill:url(#linear-gradient);}.cls-2{fill:url(#linear-gradient-2);}.cls-3{fill:url(#linear-gradient-3);}.cls-4{fill:url(#linear-gradient-4);}.cls-5{fill:url(#linear-gradient-5);}.cls-6{fill:url(#linear-gradient-6);}.cls-7{fill:url(#linear-gradient-7);}.cls-8{fill:url(#linear-gradient-8);}</style><linearGradient id="linear-gradient" x1="-20.08" y1="80.8" x2="1048.03" y2="271.04" gradientUnits="userSpaceOnUse"><stop offset="0" stop-color="#ff4efe"/><stop offset="1" stop-color="#5509ff"/></linearGradient><linearGradient id="linear-gradient-2" x1="-10.39" y1="26.42" x2="1057.71" y2="216.66" xlink:href="#linear-gradient"/><linearGradient id="linear-gradient-3" x1="-2.24" y1="-19.38" x2="1065.87" y2="170.86" xlink:href="#linear-gradient"/><linearGradient id="linear-gradient-4" x1="-13.51" y1="43.91" x2="1054.6" y2="234.15" xlink:href="#linear-gradient"/><linearGradient id="linear-gradient-5" x1="-8.53" y1="15.94" x2="1059.58" y2="206.18" xlink:href="#linear-gradient"/><linearGradient id="linear-gradient-6" x1="-3.54" y1="-12.05" x2="1064.57" y2="178.19" xlink:href="#linear-gradient"/><linearGradient id="linear-gradient-7" x1="3.54" y1="-51.81" x2="1071.65" y2="138.43" xlink:href="#linear-gradient"/><linearGradient id="linear-gradient-8" x1="10.21" y1="-89.25" x2="1078.32" y2="100.99" xlink:href="#linear-gradient"/></defs><g id="Layer_2" data-name="Layer 2"><g id="Layer_1-2" data-name="Layer 1"><path class="cls-1" d="M140.55,143.05,58.07,4.93H0L13.09,25.64l95.42,159.78a23,23,0,0,0,39.47,0l19.23-32.2a22.93,22.93,0,0,1-26.66-10.17"/><path class="cls-2" d="M191,57.92,159.34,4.86H102l57,95.44a23,23,0,0,0,39.47,0l19.23-32.21A22.91,22.91,0,0,1,191,57.92"/><path class="cls-3" d="M228.46,4.93a16.78,16.78,0,1,0,16.78,16.78A16.78,16.78,0,0,0,228.46,4.93"/><rect class="cls-4" x="281.74" y="4.64" width="42.35" height="191.25"/><path class="cls-5" d="M464.92,200.54c-61.2,0-103.27-38-103.27-100.27S403.72,0,464.92,0,568.19,38,568.19,100.27,526.12,200.54,464.92,200.54m0-162.29c-36.34,0-61.47,27.32-61.47,62,0,35.79,25.13,61.74,61.47,61.74,37.16,0,61.47-26.23,61.47-61.74,0-35-24.31-62-61.47-62"/><polygon class="cls-6" points="648.37 4.64 648.37 156.82 743.99 156.82 743.99 195.89 605.75 195.89 605.75 4.64 648.37 4.64"/><polygon class="cls-7" points="932.09 195.89 786.47 195.89 786.47 4.64 928.26 4.64 928.26 43.72 828.27 43.72 828.27 80.6 922.53 80.6 922.53 118.03 828.27 118.03 828.27 156.55 932.09 156.55 932.09 195.89"/><polygon class="cls-8" points="1024.02 42.62 965.82 42.62 965.82 4.64 1124.56 4.64 1124.56 42.62 1066.36 42.62 1066.36 195.89 1024.02 195.89 1024.02 42.62"/></g></g></svg>