<?xml version="1.0" encoding="UTF-8" standalone="no"?>
<!-- Created with Inkscape (http://www.inkscape.org/) -->

<svg
   version="1.1"
   id="svg2"
   xml:space="preserve"
   width="662.74664"
   height="201.94667"
   viewBox="0 0 662.74664 201.94667"
   sodipodi:docname="visualsweden.eps"
   xmlns:inkscape="http://www.inkscape.org/namespaces/inkscape"
   xmlns:sodipodi="http://sodipodi.sourceforge.net/DTD/sodipodi-0.dtd"
   xmlns="http://www.w3.org/2000/svg"
   xmlns:svg="http://www.w3.org/2000/svg"><defs
     id="defs6" /><sodipodi:namedview
     id="namedview4"
     pagecolor="#ffffff"
     bordercolor="#666666"
     borderopacity="1.0"
     inkscape:pageshadow="2"
     inkscape:pageopacity="0.0"
     inkscape:pagecheckerboard="0" /><g
     id="g8"
     inkscape:groupmode="layer"
     inkscape:label="ink_ext_XXXXXX"
     transform="matrix(1.3333333,0,0,-1.3333333,0,201.94667)"><g
       id="g10"
       transform="scale(0.1)"><path
         d="M 1532.12,0 H 0 V 1514.63 H 1532.12 V 0"
         style="fill:#f4f01f;fill-opacity:1;fill-rule:nonzero;stroke:none"
         id="path12" /><path
         d="m 629.023,430.23 c 5.547,-4.609 10.817,-8.261 15.145,-12.8 4.445,-4.66 7.965,-10.211 12.191,-15.77 6.864,13.512 17.196,23.012 32.051,29.762 -14.191,6.527 -23.976,15.808 -30.961,29.418 -6.683,-13.969 -15.941,-23.692 -28.426,-30.61 z m -86.269,82.79 c 4.434,5.722 8.152,11.503 12.859,16.328 4.633,4.746 10.266,8.523 15.137,12.468 -5.324,4.629 -10.949,8.645 -15.465,13.664 -4.457,4.969 -7.785,10.946 -12.078,17.149 -6.621,-14.551 -17.336,-24.668 -32.5,-31.27 14.559,-6.171 25.039,-15.324 32.047,-28.339 z m 114.687,-2.5 c 7.77,14.89 18.579,24.324 33.68,30.515 -16.484,6.692 -27.461,17.512 -34.562,33.586 -6.086,-14.766 -15.344,-25.09 -28.938,-32.812 13.777,-7.356 23.164,-17.305 29.82,-31.289 z m 28.618,-190.391 c -13.653,6.691 -23.219,16.051 -30.258,29.672 -7.395,-14.981 -18.223,-24.973 -33.457,-31.781 15.125,-7.219 24.996,-17.75 31.449,-33.391 6.379,16.543 16.832,27.859 32.266,35.5 z M 543.336,459.238 c -9.227,-16.668 -22.41,-26.789 -39.863,-31.937 17.609,-5.879 29.84,-16.992 37.355,-35.43 5.863,17.207 15.68,29.289 31.055,37.93 -13.024,7.121 -22.059,16.437 -28.547,29.437 z M 433.23,583.254 c -7.953,-24.688 -24.32,-38.496 -50.89,-42.109 24.988,-3.418 41.594,-15.872 50.633,-39.946 6.394,19.25 18.211,32.219 36.961,40.207 -19.621,8.496 -31.082,22.59 -36.704,41.848 z m -56.621,-42.063 c -35.625,4.961 -49.886,30.93 -50.664,52.422 -0.906,25.09 16.11,47.754 40.493,53.977 14.679,3.75 28.566,1.531 41.515,-6.25 12.871,-7.735 20.582,-19.453 25.18,-35.371 8.238,27.195 24.453,43.789 51.652,46.394 26.93,2.578 46.024,-10.234 59.043,-34.668 10.024,21.582 26.453,33.918 50.184,37.91 -31.391,8.625 -46.926,29.68 -43.371,57.383 3.074,23.985 24.308,42.571 48.843,42.746 25.231,0.184 46.391,-18.019 50.086,-43.097 3.875,-26.289 -12.062,-47.84 -43.238,-57.071 11.816,-2.246 21.848,-5.878 30.504,-12.664 8.543,-6.691 14.805,-15.117 19.5,-26.23 12.164,23.719 30.379,37.226 56.914,35.898 26.484,-1.32 43.25,-16.34 52.977,-41.379 11.214,27.356 30.628,42.004 59.722,39.309 24.809,-2.305 40.449,-17.422 48.492,-41.574 12.168,31.535 33.86,48.164 67.829,41.797 26.011,-4.883 40.148,-22.938 45.418,-50.157 3.117,16.184 9.691,28.782 22.102,37.696 12.56,9.015 26.55,12.129 41.62,9.043 25.61,-5.235 43.64,-28.028 42.71,-53.387 -0.97,-26.016 -19.73,-46.992 -45.61,-50.938 -14.79,-2.265 -28.09,1.493 -39.9,10.438 -11.844,8.957 -18.141,21.34 -20.844,37.004 -6.391,-29.512 -23.411,-47.492 -47.707,-51.145 -14.524,-2.175 -28.18,0.352 -40.614,8.477 -12.316,8.047 -20.027,19.57 -24.64,34.746 -9.602,-27.215 -27.258,-42.09 -55.032,-42.637 -18.945,-0.379 -42.101,9.641 -53.199,39.414 -2.847,-5.457 -4.969,-10.839 -8.23,-15.398 -3.528,-4.934 -7.731,-9.57 -12.364,-13.469 -4.406,-3.711 -9.742,-6.308 -15.07,-9.648 23.133,-10.43 37.067,-27.891 37.766,-53.461 0.691,-25.563 -12.113,-43.813 -35.617,-55.821 23.195,-11.75 36.863,-29.421 37.261,-55.21 0.403,-25.629 -12.304,-43.758 -34.754,-56 27.039,-16.149 40.118,-38.942 32.153,-70.149 -6.235,-24.449 -23.164,-39.68 -48.035,-43.211 -30.973,-4.39 -52.586,10.02 -65.911,38.469 -13.609,-27.649 -35.097,-40.699 -65.433,-35.367 -23.141,4.058 -40.945,23.297 -44.426,45.879 -3.141,20.398 2.774,45.738 32.559,61.871 -5.184,3.429 -10.473,6.277 -14.957,10.09 -4.442,3.777 -8.563,8.168 -11.926,12.929 -3.469,4.899 -5.86,10.59 -9.113,16.66 -6.434,-14.992 -16.461,-25.972 -31.524,-31.691 -10.441,-3.949 -21.152,-4.449 -31.98,-1.711 -20.684,5.242 -36.711,23.352 -39.192,44.563 -1.531,13.117 1.293,25.328 8.735,36.339 7.375,10.911 17.746,17.84 30.351,22.239 -10.219,3.742 -19.601,8.25 -27.332,15.672 -7.605,7.308 -12.793,16.148 -16.308,26.73 -15.879,-31.344 -39.301,-44.23 -66.536,-37.301 -24.851,6.321 -42.41,28.758 -41.906,53.867 0.438,22.043 13.844,48.95 51.824,55.043"
         style="fill:#231f20;fill-opacity:1;fill-rule:nonzero;stroke:none"
         id="path14" /><path
         d="m 270.516,1310.73 c 29.941,-0.12 54.511,-24.98 54.144,-54.77 -0.363,-29.57 -24.93,-53.86 -54.484,-53.88 -29.824,-0.02 -54.617,24.83 -54.453,54.58 0.16,30.04 24.648,54.2 54.793,54.07"
         style="fill:#231f20;fill-opacity:1;fill-rule:nonzero;stroke:none"
         id="path16" /><path
         d="m 325.371,1256.77 c 0.203,29.92 24.867,54.14 54.953,53.96 29.723,-0.17 53.891,-24.43 53.946,-54.17 0.066,-29.85 -24.684,-54.58 -54.516,-54.48 -29.859,0.11 -54.582,24.97 -54.383,54.69"
         style="fill:#231f20;fill-opacity:1;fill-rule:nonzero;stroke:none"
         id="path18" /><path
         d="m 159.617,1202.55 c -29.976,0.06 -53.894,24.1 -53.812,54.08 0.086,29.91 24.222,53.97 54.082,53.92 29.742,-0.05 53.965,-24.4 53.918,-54.19 -0.047,-29.81 -24.274,-53.86 -54.188,-53.81"
         style="fill:#231f20;fill-opacity:1;fill-rule:nonzero;stroke:none"
         id="path20" /><path
         d="m 1207.46,485.551 c -0.04,30.015 23.86,53.863 53.89,53.765 29.55,-0.097 53.54,-24.05 53.62,-53.535 0.08,-29.57 -24.55,-54.152 -54.1,-53.972 -29.49,0.16 -53.37,24.191 -53.41,53.742"
         style="fill:#231f20;fill-opacity:1;fill-rule:nonzero;stroke:none"
         id="path22" /><path
         d="m 106.098,1145.98 c -0.024,29.88 24.222,54.15 53.91,53.95 29.383,-0.2 53.527,-24.41 53.597,-53.76 0.075,-29.72 -24.199,-53.83 -54.113,-53.75 -29.652,0.08 -53.363,23.87 -53.394,53.56"
         style="fill:#231f20;fill-opacity:1;fill-rule:nonzero;stroke:none"
         id="path24" /><path
         d="m 489.871,1203.04 c -29.242,0.14 -52.973,24 -53.066,53.34 -0.09,29.52 24.015,53.63 53.57,53.59 29.586,-0.05 53.469,-24.09 53.367,-53.74 -0.097,-29.55 -24.187,-53.34 -53.871,-53.19"
         style="fill:#231f20;fill-opacity:1;fill-rule:nonzero;stroke:none"
         id="path26" /><path
         d="m 599.676,872.871 c -29.367,0.156 -53.008,23.918 -52.93,53.215 0.074,29.129 24.106,53.105 53.219,53.113 29.582,0 53.324,-24.031 53.09,-53.758 -0.231,-29.464 -23.84,-52.714 -53.379,-52.57"
         style="fill:#231f20;fill-opacity:1;fill-rule:nonzero;stroke:none"
         id="path28" /><path
         d="m 271.215,538.184 c 29.144,-0.606 52.058,-24.395 51.586,-53.563 -0.469,-28.851 -24.61,-52.051 -53.672,-51.59 -28.941,0.457 -52.09,24.61 -51.469,53.668 0.625,29.258 24.375,52.09 53.555,51.485"
         style="fill:#231f20;fill-opacity:1;fill-rule:nonzero;stroke:none"
         id="path30" /><path
         d="m 218.145,1146.39 c 0.101,28.45 23.277,51.57 51.804,51.71 28.785,0.13 52.207,-23.19 52.246,-52.01 0.035,-28.77 -23.367,-52.11 -52.187,-52.05 -28.789,0.06 -51.973,23.46 -51.863,52.35"
         style="fill:#231f20;fill-opacity:1;fill-rule:nonzero;stroke:none"
         id="path32" /><path
         d="m 1371.76,323.48 c -28.73,-0.539 -52.11,21.93 -52.72,50.668 -0.6,28.633 22.1,52.461 50.5,53.024 28.64,0.566 52.53,-22.094 53.2,-50.442 0.68,-28.98 -22.03,-52.71 -50.98,-53.25"
         style="fill:#231f20;fill-opacity:1;fill-rule:nonzero;stroke:none"
         id="path34" /><path
         d="m 541.332,926.145 c 0.113,-28.411 -22.711,-51.418 -51.008,-51.407 -28.238,0 -51.273,23.075 -51.234,51.317 0.047,28.019 22.676,50.703 50.797,50.918 28.511,0.215 51.34,-22.332 51.445,-50.828"
         style="fill:#231f20;fill-opacity:1;fill-rule:nonzero;stroke:none"
         id="path36" /><path
         d="m 108.711,486.68 c 0.516,28.449 23.699,50.656 52.234,50.019 28.344,-0.613 50.66,-24.019 49.989,-52.41 -0.661,-27.82 -24.028,-50.199 -52.024,-49.82 -28.242,0.39 -50.715,23.761 -50.199,52.211"
         style="fill:#231f20;fill-opacity:1;fill-rule:nonzero;stroke:none"
         id="path38" /><path
         d="m 1532.12,265.469 c -0.03,-28.289 -22.5,-50.77 -50.79,-50.809 -28.17,-0.031 -51.02,22.559 -51.18,50.61 -0.17,28.171 23.16,51.511 51.33,51.371 28.05,-0.141 50.66,-23 50.64,-51.172"
         style="fill:#231f20;fill-opacity:1;fill-rule:nonzero;stroke:none"
         id="path40" /><path
         d="m 1150.95,536.438 c 28.05,-0.098 50.91,-23.11 50.7,-51.028 -0.2,-27.93 -23.39,-50.898 -51.22,-50.711 -28.02,0.18 -50.59,23.071 -50.51,51.231 0.09,28.16 22.76,50.613 51.03,50.508"
         style="fill:#231f20;fill-opacity:1;fill-rule:nonzero;stroke:none"
         id="path42" /><path
         d="m 269.578,544.719 c -28.027,0.215 -50.355,23.144 -50.082,51.426 0.27,27.625 23.242,50.203 50.891,50.007 28.008,-0.195 50.89,-23.367 50.547,-51.172 -0.348,-28.132 -23.18,-50.476 -51.356,-50.261"
         style="fill:#231f20;fill-opacity:1;fill-rule:nonzero;stroke:none"
         id="path44" /><path
         d="m 1091.64,485.75 c 0.04,-28.07 -22.81,-50.949 -50.76,-50.852 -28,0.114 -50.896,23.192 -50.677,51.051 0.215,27.801 22.777,50.301 50.517,50.391 28.19,0.086 50.89,-22.461 50.92,-50.59"
         style="fill:#231f20;fill-opacity:1;fill-rule:nonzero;stroke:none"
         id="path46" /><path
         d="m 599.707,1306.99 c 27.926,0.17 50.465,-22.04 50.797,-50.04 0.324,-27.82 -22.098,-50.77 -49.863,-51.03 -28.172,-0.27 -51.164,22.39 -51.203,50.44 -0.04,27.91 22.359,50.45 50.269,50.63"
         style="fill:#231f20;fill-opacity:1;fill-rule:nonzero;stroke:none"
         id="path48" /><path
         d="m 378.988,765.02 c -28.015,0.578 -50.09,23.371 -49.605,51.222 0.488,28.27 23.418,50.352 51.75,49.832 27.605,-0.496 49.765,-23.699 49.305,-51.621 -0.458,-27.723 -23.657,-50.008 -51.45,-49.433"
         style="fill:#231f20;fill-opacity:1;fill-rule:nonzero;stroke:none"
         id="path50" /><path
         d="m 1370.47,435.379 c -28.01,0.172 -50.1,22.59 -49.94,50.66 0.16,27.891 22.8,50.281 50.66,50.094 27.69,-0.176 50.25,-23.055 50.09,-50.813 -0.15,-27.789 -22.85,-50.09 -50.81,-49.941"
         style="fill:#231f20;fill-opacity:1;fill-rule:nonzero;stroke:none"
         id="path52" /><path
         d="m 210.031,595.137 c -0.109,-27.91 -22.699,-50.352 -50.535,-50.223 -27.715,0.137 -50.308,22.938 -50.219,50.691 0.09,27.805 22.735,50.168 50.688,50.071 28.012,-0.11 50.176,-22.481 50.066,-50.539"
         style="fill:#231f20;fill-opacity:1;fill-rule:nonzero;stroke:none"
         id="path54" /><path
         d="m 489.98,765.227 c -28.023,0.175 -50.136,22.578 -49.976,50.625 0.16,27.91 22.762,50.293 50.625,50.136 27.691,-0.156 50.258,-23.027 50.129,-50.793 -0.133,-27.793 -22.832,-50.136 -50.778,-49.968"
         style="fill:#231f20;fill-opacity:1;fill-rule:nonzero;stroke:none"
         id="path56" /><path
         d="m 1481.03,325.23 c -27.9,0.071 -50.02,22.54 -49.82,50.59 0.19,27.418 22.84,49.809 50.24,49.641 27.37,-0.16 49.89,-22.699 50,-50.063 0.11,-27.699 -22.55,-50.25 -50.42,-50.168"
         style="fill:#231f20;fill-opacity:1;fill-rule:nonzero;stroke:none"
         id="path58" /><path
         d="m 50.0781,1196.09 c 27.543,-0.01 49.9102,-22.18 50.1599,-49.71 0.25,-27.51 -22.6911,-50.58 -50.2497,-50.52 -27.7578,0.05 -50.14455,22.71 -49.9883,50.6 0.15625,27.59 22.4102,49.65 50.0781,49.63"
         style="fill:#231f20;fill-opacity:1;fill-rule:nonzero;stroke:none"
         id="path60" /><path
         d="m 930.527,435.738 c -27.613,0 -49.914,22.332 -49.898,49.942 0.016,27.59 22.387,49.984 49.941,49.984 27.508,0 49.981,-22.484 49.977,-50.016 -0.004,-27.527 -22.434,-49.918 -50.02,-49.91"
         style="fill:#231f20;fill-opacity:1;fill-rule:nonzero;stroke:none"
         id="path62" /><path
         d="m 869.855,485.922 c 0.161,-27.613 -22.101,-50.063 -49.656,-50.082 -27.449,-0.02 -50.062,22.551 -50.015,49.922 0.043,27.16 22.187,49.355 49.507,49.629 27.692,0.273 50.008,-21.743 50.164,-49.469"
         style="fill:#231f20;fill-opacity:1;fill-rule:nonzero;stroke:none"
         id="path64" /><path
         d="m 49.6797,1206.96 c -27.375,0.14 -49.480481,22.39 -49.375012,49.7 0.105468,27.22 22.496112,49.54 49.703112,49.55 27.5899,0.02 49.7695,-22.48 49.5469,-50.23 -0.2188,-27.51 -22.2578,-49.16 -49.875,-49.02"
         style="fill:#231f20;fill-opacity:1;fill-rule:nonzero;stroke:none"
         id="path66" /><path
         d="m 550.48,1365.9 c -0.14,27.59 21.571,49.63 49.071,49.82 27.758,0.21 50.238,-22.02 50.179,-49.59 -0.058,-27.22 -22.406,-49.59 -49.605,-49.66 -27.328,-0.06 -49.508,22.02 -49.645,49.43"
         style="fill:#231f20;fill-opacity:1;fill-rule:nonzero;stroke:none"
         id="path68" /><path
         d="m 490.512,656.281 c -27.457,-0.097 -49.739,21.817 -49.946,49.129 -0.207,27.481 22.36,50.176 49.844,50.117 27.313,-0.047 49.367,-22.226 49.406,-49.668 0.036,-27.546 -21.781,-49.492 -49.304,-49.578"
         style="fill:#231f20;fill-opacity:1;fill-rule:nonzero;stroke:none"
         id="path70" /><path
         d="m 660.902,925.605 c -0.152,27.61 21.52,49.641 49.032,49.856 27.754,0.223 50.25,-21.984 50.214,-49.57 -0.031,-27.207 -22.375,-49.602 -49.574,-49.68 -27.324,-0.078 -49.523,21.992 -49.672,49.394"
         style="fill:#231f20;fill-opacity:1;fill-rule:nonzero;stroke:none"
         id="path72" /><path
         d="m 550.609,815.313 c -0.089,27.519 21.746,49.531 49.204,49.601 27.425,0.059 49.664,-21.906 49.812,-49.211 0.141,-27.058 -22.277,-49.656 -49.414,-49.805 -27.234,-0.144 -49.516,22.043 -49.602,49.415"
         style="fill:#231f20;fill-opacity:1;fill-rule:nonzero;stroke:none"
         id="path74" /><path
         d="m 429.059,706.066 c 0.101,-27.14 -21.707,-49.257 -48.739,-49.445 -27.433,-0.183 -49.695,21.906 -49.625,49.258 0.071,27.148 21.969,49.043 49.094,49.101 27.094,0.059 49.164,-21.855 49.27,-48.914"
         style="fill:#231f20;fill-opacity:1;fill-rule:nonzero;stroke:none"
         id="path76" /><path
         d="m 930.332,877.004 c -27.246,0.117 -48.848,21.934 -48.711,49.18 0.141,27.148 22.09,48.945 49.184,48.836 26.949,-0.106 48.933,-22.313 48.832,-49.305 -0.102,-27.051 -22.145,-48.828 -49.305,-48.711"
         style="fill:#231f20;fill-opacity:1;fill-rule:nonzero;stroke:none"
         id="path78" /><path
         d="m 1150.7,644.141 c 27.28,-0.008 48.83,-21.649 48.75,-48.965 -0.09,-27.09 -22.16,-48.992 -49.15,-48.77 -26.61,0.227 -48.49,22.219 -48.59,48.821 -0.09,26.992 21.87,48.925 48.99,48.914"
         style="fill:#231f20;fill-opacity:1;fill-rule:nonzero;stroke:none"
         id="path80" /><path
         d="M 759.063,154.922 C 759,128.109 737.137,106.25 710.398,106.281 c -26.632,0.028 -48.691,22.02 -48.816,48.68 -0.129,26.988 22,48.93 49.215,48.801 26.902,-0.133 48.328,-21.813 48.266,-48.84"
         style="fill:#231f20;fill-opacity:1;fill-rule:nonzero;stroke:none"
         id="path82" /><path
         d="m 379.965,326.609 c -26.996,-0.039 -48.637,21.461 -48.731,48.379 -0.089,27.203 21.938,49.321 48.907,49.102 26.679,-0.199 48.64,-22.328 48.574,-48.918 -0.074,-26.781 -21.899,-48.524 -48.75,-48.563"
         style="fill:#231f20;fill-opacity:1;fill-rule:nonzero;stroke:none"
         id="path84" /><path
         d="m 771.547,265.352 c -0.078,26.839 21.594,48.66 48.398,48.718 26.864,0.078 48.653,-21.492 48.821,-48.34 0.164,-26.652 -21.676,-48.66 -48.446,-48.82 -26.668,-0.16 -48.695,21.711 -48.773,48.442"
         style="fill:#231f20;fill-opacity:1;fill-rule:nonzero;stroke:none"
         id="path86" /><path
         d="m 221.809,705.5 c -0.204,26.621 21.168,48.465 47.687,48.738 26.91,0.274 48.969,-21.336 49.098,-48.113 0.121,-26.953 -21.531,-48.703 -48.457,-48.672 -26.719,0.027 -48.117,21.309 -48.328,48.047"
         style="fill:#231f20;fill-opacity:1;fill-rule:nonzero;stroke:none"
         id="path88" /><path
         d="m 490.266,1414.34 c 26.797,0 48.082,-21.2 48.16,-47.96 0.086,-26.99 -21.598,-48.67 -48.485,-48.51 -26.414,0.17 -48.05,22.03 -47.972,48.49 0.082,26.57 21.625,47.97 48.297,47.98"
         style="fill:#231f20;fill-opacity:1;fill-rule:nonzero;stroke:none"
         id="path90" /><path
         d="m 269.867,863.508 c 26.676,0.105 48.289,-21.145 48.516,-47.695 0.215,-26.282 -21.524,-48.301 -47.91,-48.516 -26.45,-0.215 -48.18,21.328 -48.305,47.91 -0.129,26.797 21.004,48.191 47.699,48.301"
         style="fill:#231f20;fill-opacity:1;fill-rule:nonzero;stroke:none"
         id="path92" /><path
         d="m 820.609,973.82 c 26.629,-0.175 47.727,-21.847 47.407,-48.711 -0.305,-26.183 -22.25,-47.609 -48.356,-47.218 -26.277,0.39 -47.676,22.05 -47.566,48.156 0.105,26.562 21.82,47.949 48.515,47.773"
         style="fill:#231f20;fill-opacity:1;fill-rule:nonzero;stroke:none"
         id="path94" /><path
         d="m 160.309,423.141 c 26.238,-0.219 47.648,-21.911 47.472,-48.102 -0.179,-26.469 -22.355,-48.301 -48.601,-47.82 -26.688,0.48 -47.657,22.179 -47.321,48.953 0.336,26.269 21.914,47.187 48.45,46.969"
         style="fill:#231f20;fill-opacity:1;fill-rule:nonzero;stroke:none"
         id="path96" /><path
         d="m 930.41,107.238 c -26.312,0.063 -47.711,21.364 -47.902,47.672 -0.184,26.34 21.836,48.379 48.195,48.262 26.57,-0.133 47.926,-21.852 47.735,-48.551 -0.192,-26.351 -21.575,-47.441 -48.028,-47.383"
         style="fill:#231f20;fill-opacity:1;fill-rule:nonzero;stroke:none"
         id="path98" /><path
         d="m 159.641,657.922 c -26.692,0.027 -47.95,21.531 -47.782,48.34 0.164,26.238 21.778,47.676 47.985,47.586 26.191,-0.086 47.722,-21.563 47.937,-47.782 0.215,-26.457 -21.504,-48.175 -48.14,-48.144"
         style="fill:#231f20;fill-opacity:1;fill-rule:nonzero;stroke:none"
         id="path100" /><path
         d="m 599.699,107.352 c -26.277,0.109 -47.508,21.527 -47.469,47.886 0.036,26.293 21.364,47.602 47.715,47.672 26.559,0.059 48.203,-21.781 47.848,-48.269 -0.352,-26.411 -21.719,-47.422 -48.094,-47.289"
         style="fill:#231f20;fill-opacity:1;fill-rule:nonzero;stroke:none"
         id="path102" /><path
         d="m 427.648,1146.05 c -0.007,-26.32 -21.296,-47.69 -47.593,-47.76 -26.617,-0.08 -48.254,21.63 -47.969,48.13 0.285,26.41 21.707,47.59 47.977,47.44 26.375,-0.17 47.593,-21.48 47.585,-47.81"
         style="fill:#231f20;fill-opacity:1;fill-rule:nonzero;stroke:none"
         id="path104" /><path
         d="m 442.766,265.289 c -0.118,26.57 20.918,47.742 47.476,47.781 26.442,0.032 47.766,-21.261 47.723,-47.648 -0.047,-25.992 -21.285,-47.352 -47.246,-47.551 -26.414,-0.191 -47.828,20.988 -47.953,47.418"
         style="fill:#231f20;fill-opacity:1;fill-rule:nonzero;stroke:none"
         id="path106" /><path
         d="m 820.141,202.352 c 26.113,-0.012 47.277,-21.012 47.418,-47.063 0.14,-26.027 -21.778,-47.879 -47.774,-47.59 -26.086,0.281 -46.93,21.449 -46.871,47.59 0.059,26.172 21.031,47.063 47.227,47.063"
         style="fill:#231f20;fill-opacity:1;fill-rule:nonzero;stroke:none"
         id="path108" /><path
         d="m 426.785,925.539 c -0.25,-26.172 -21.476,-46.945 -47.66,-46.613 -25.676,0.324 -46.402,21.554 -46.262,47.383 0.145,26.007 21.657,46.972 47.739,46.535 25.98,-0.449 46.429,-21.387 46.183,-47.305"
         style="fill:#231f20;fill-opacity:1;fill-rule:nonzero;stroke:none"
         id="path110" /><path
         d="m 159.723,1082.92 c 25.886,0 46.902,-20.99 46.8,-46.72 -0.101,-25.62 -21.558,-46.864 -47.101,-46.63 -25.539,0.235 -46.16,21.01 -46.242,46.57 -0.086,26.04 20.55,46.78 46.543,46.78"
         style="fill:#231f20;fill-opacity:1;fill-rule:nonzero;stroke:none"
         id="path112" /><path
         d="M 49.9531,532.238 C 75.9648,532.277 96.6484,511.57 96.5938,485.559 96.543,459.691 75.4492,438.68 49.7383,438.891 24.3477,439.102 3.42969,460.039 3.25,485.422 c -0.18359,25.707 20.8359,46.777 46.7031,46.816"
         style="fill:#231f20;fill-opacity:1;fill-rule:nonzero;stroke:none"
         id="path114" /><path
         d="m 96.3711,595.195 c -0.0586,-25.515 -20.9336,-46.23 -46.5156,-46.152 -25.5782,0.078 -46.25784,20.93 -46.12503,46.516 0.125,25.664 20.89063,46.269 46.48833,46.132 25.6523,-0.136 46.2148,-20.851 46.1523,-46.496"
         style="fill:#231f20;fill-opacity:1;fill-rule:nonzero;stroke:none"
         id="path116" /><path
         d="m 756.488,705.949 c 0.063,-25.676 -20.515,-46.386 -46.093,-46.379 -25.446,0.012 -46.297,20.957 -46.204,46.418 0.094,25.282 20.524,45.711 45.891,45.879 25.777,0.176 46.34,-20.176 46.406,-45.918"
         style="fill:#231f20;fill-opacity:1;fill-rule:nonzero;stroke:none"
         id="path118" /><path
         d="m 444.516,154.871 c -0.086,25.488 20.14,45.93 45.539,46.027 25.347,0.09 46,-20.257 46.183,-45.539 0.188,-25.058 -20.511,-45.98 -45.695,-46.199 -25.145,-0.199 -45.941,20.449 -46.027,45.711"
         style="fill:#231f20;fill-opacity:1;fill-rule:nonzero;stroke:none"
         id="path120" /><path
         d="m 424.969,1365.96 c -0.09,-24.81 -20.207,-44.96 -44.981,-45.05 -24.824,-0.1 -45.593,20.73 -45.41,45.52 0.192,25.07 20.649,45.09 45.887,44.87 24.832,-0.22 44.598,-20.35 44.504,-45.34"
         style="fill:#231f20;fill-opacity:1;fill-rule:nonzero;stroke:none"
         id="path122" /><path
         d="m 754.84,1366.28 c 0.023,-24.76 -19.617,-44.46 -44.348,-44.49 -24.617,-0.04 -44.64,19.82 -44.691,44.34 -0.055,24.33 20.176,44.63 44.539,44.69 24.492,0.06 44.473,-19.94 44.5,-44.54"
         style="fill:#231f20;fill-opacity:1;fill-rule:nonzero;stroke:none"
         id="path124" /><path
         d="m 710.102,859.621 c 24.351,0.195 44.289,-19.336 44.507,-43.605 0.215,-24.325 -19.312,-44.383 -43.488,-44.676 -24.691,-0.305 -44.699,19.355 -44.789,44.012 -0.094,24.433 19.316,44.062 43.77,44.269"
         style="fill:#231f20;fill-opacity:1;fill-rule:nonzero;stroke:none"
         id="path126" /><path
         d="m 226.078,376.262 c 0.625,24.488 20.563,43.597 44.934,43.09 24.707,-0.532 43.937,-20.731 43.324,-45.473 -0.602,-24.098 -20.977,-43.328 -45.352,-42.801 -24.191,0.512 -43.519,20.871 -42.906,45.184"
         style="fill:#231f20;fill-opacity:1;fill-rule:nonzero;stroke:none"
         id="path128" /><path
         d="m 863.859,375.641 c 0.129,-24.45 -19.453,-44.313 -43.695,-44.321 -23.844,-0.019 -43.672,19.621 -43.965,43.532 -0.297,24.168 19.531,44.109 43.895,44.128 24.226,0.02 43.64,-19.199 43.765,-43.339"
         style="fill:#231f20;fill-opacity:1;fill-rule:nonzero;stroke:none"
         id="path130" /><path
         d="M 599.926,0.980469 C 575.727,1 556.371,20.2695 556.277,44.4297 c -0.093,24.4219 19.602,44.2891 43.821,44.2109 23.875,-0.0703 43.632,-19.75 43.84,-43.6601 C 644.16,20.7891 624.309,0.960938 599.926,0.980469"
         style="fill:#231f20;fill-opacity:1;fill-rule:nonzero;stroke:none"
         id="path132" /><path
         d="m 50.2461,1079.95 c 24.1367,-0.07 43.4727,-19.61 43.3867,-43.82 -0.0898,-24.07 -19.8203,-43.657 -43.8203,-43.501 -23.9922,0.156 -43.69531,20.061 -43.51172,43.941 0.19141,24.11 19.80082,43.47 43.94532,43.38"
         style="fill:#231f20;fill-opacity:1;fill-rule:nonzero;stroke:none"
         id="path134" /><path
         d="m 1481.22,198.539 c 24.13,0.02 43.56,-19.449 43.51,-43.578 -0.06,-23.723 -19.41,-43.172 -43.1,-43.332 -24.15,-0.149 -43.68,19.133 -43.81,43.269 -0.14,24.153 19.22,43.622 43.4,43.641"
         style="fill:#231f20;fill-opacity:1;fill-rule:nonzero;stroke:none"
         id="path136" /><path
         d="m 49.7539,332.082 c -24.0195,0.117 -42.96874,19.238 -42.89843,43.289 0.0625,23.957 19.28123,43.231 43.11723,43.25 23.9921,0.02 43.6718,-19.84 43.4257,-43.82 -0.2461,-23.84 -19.6601,-42.852 -43.6445,-42.719"
         style="fill:#231f20;fill-opacity:1;fill-rule:nonzero;stroke:none"
         id="path138" /><path
         d="m 313.34,1366.21 c 0.019,-24.04 -18.985,-43.12 -43.016,-43.19 -23.976,-0.06 -43.344,18.99 -43.535,42.84 -0.187,23.98 19.555,43.8 43.535,43.71 23.84,-0.09 42.996,-19.39 43.016,-43.36"
         style="fill:#231f20;fill-opacity:1;fill-rule:nonzero;stroke:none"
         id="path140" /><path
         d="m 336.699,266.289 c 0.317,23.949 19.66,42.699 43.766,42.422 23.89,-0.262 42.996,-19.731 42.777,-43.582 -0.222,-23.969 -20.324,-43.469 -44.293,-42.957 -23.824,0.508 -42.566,20.078 -42.25,44.117"
         style="fill:#231f20;fill-opacity:1;fill-rule:nonzero;stroke:none"
         id="path142" /><path
         d="m 1040.61,882.766 c -24.01,0.156 -42.907,19.297 -42.813,43.379 0.094,23.925 19.353,43.164 43.203,43.164 23.98,-0.012 43.63,-19.922 43.34,-43.907 -0.28,-23.828 -19.73,-42.793 -43.73,-42.636"
         style="fill:#231f20;fill-opacity:1;fill-rule:nonzero;stroke:none"
         id="path144" /><path
         d="M 710.672,87.7305 C 734.609,87.6289 753.555,68.4688 753.449,44.4414 753.348,20.6289 733.852,1.26172 710.164,1.46094 686.527,1.66016 667.016,21.4102 667.184,44.9492 c 0.164,23.7813 19.578,42.8711 43.488,42.7813"
         style="fill:#231f20;fill-opacity:1;fill-rule:nonzero;stroke:none"
         id="path146" /><path
         d="m 313.188,1036.62 c 0.085,-24.04 -18.829,-43.19 -42.77,-43.288 -23.914,-0.098 -43.305,18.968 -43.496,42.778 -0.192,23.52 19.332,43.28 42.973,43.49 23.695,0.2 43.21,-19.17 43.293,-42.98"
         style="fill:#231f20;fill-opacity:1;fill-rule:nonzero;stroke:none"
         id="path148" /><path
         d="m 1304.01,595.559 c 0.07,-23.879 -19.38,-43.371 -43.09,-43.204 -23.48,0.157 -42.7,19.383 -42.84,42.86 -0.15,23.723 19.33,43.137 43.21,43.066 23.62,-0.058 42.65,-19.09 42.72,-42.722"
         style="fill:#231f20;fill-opacity:1;fill-rule:nonzero;stroke:none"
         id="path150" /><path
         d="m 820.043,1.98047 c -23.668,0.05859 -42.727,19.16793 -42.691,42.82033 0.039,23.5781 19.253,42.7109 42.859,42.6797 23.617,-0.0313 42.703,-19.211 42.644,-42.8594 C 862.801,20.8984 843.758,1.92969 820.043,1.98047"
         style="fill:#231f20;fill-opacity:1;fill-rule:nonzero;stroke:none"
         id="path152" /><path
         d="m 491.18,1188.84 c 23.496,-0.37 42.359,-20.07 41.808,-43.66 -0.554,-23.78 -19.972,-42.41 -43.597,-41.83 -23.746,0.59 -42.27,19.88 -41.875,43.62 0.382,23.48 19.961,42.25 43.664,41.87"
         style="fill:#231f20;fill-opacity:1;fill-rule:nonzero;stroke:none"
         id="path154" /><path
         d="m 227.688,925.617 c -0.133,23.836 18.57,42.735 42.359,42.793 23.683,0.059 42.816,-18.965 42.777,-42.539 -0.039,-23.183 -19.008,-42.344 -42.172,-42.598 -23.582,-0.265 -42.832,18.711 -42.964,42.344"
         style="fill:#231f20;fill-opacity:1;fill-rule:nonzero;stroke:none"
         id="path156" /><path
         d="M 49.9219,223.352 C 26.5898,223.398 7.625,242.41 7.71484,265.648 7.80078,288.859 26.9922,307.941 50.1406,307.859 73.4375,307.77 92.2578,288.789 92.2188,265.43 92.1875,242.059 73.3203,223.289 49.9219,223.352"
         style="fill:#231f20;fill-opacity:1;fill-rule:nonzero;stroke:none"
         id="path158" /><path
         d="m 1218.91,375.211 c -0.02,23.391 18.77,42.219 42.15,42.23 23.35,0.02 42.33,-18.851 42.36,-42.14 0.04,-23.172 -19.07,-42.321 -42.27,-42.371 -23.25,-0.039 -42.21,18.941 -42.24,42.281"
         style="fill:#231f20;fill-opacity:1;fill-rule:nonzero;stroke:none"
         id="path160" /><path
         d="M 532.363,44.5391 C 532.301,21.5195 513.535,2.71094 490.516,2.62891 467.098,2.53906 448.227,21.4219 448.301,44.8398 c 0.07,23.1993 18.59,41.7422 41.793,41.8594 23.402,0.1211 42.328,-18.7578 42.269,-42.1601"
         style="fill:#231f20;fill-opacity:1;fill-rule:nonzero;stroke:none"
         id="path162" /><path
         d="m 201.738,815.605 c 0.059,-23.183 -18.351,-41.824 -41.574,-42.089 -23.383,-0.254 -42.453,18.566 -42.492,41.933 -0.035,23.047 18.637,41.953 41.625,42.141 23.437,0.183 42.379,-18.555 42.441,-41.985"
         style="fill:#231f20;fill-opacity:1;fill-rule:nonzero;stroke:none"
         id="path164" /><path
         d="m 778.383,705.645 c -0.082,23.339 18.316,41.875 41.617,41.914 23.227,0.039 42.008,-18.536 42.086,-41.621 0.074,-22.977 -18.82,-42 -41.793,-42.079 -23.082,-0.089 -41.832,18.614 -41.91,41.786"
         style="fill:#231f20;fill-opacity:1;fill-rule:nonzero;stroke:none"
         id="path166" /><path
         d="m 888.805,705.754 c -0.039,23.32 18.402,41.805 41.715,41.805 23.214,0 41.96,-18.633 41.984,-41.719 0.023,-22.977 -18.93,-41.973 -41.895,-41.992 -23.089,-0.008 -41.773,18.703 -41.804,41.906"
         style="fill:#231f20;fill-opacity:1;fill-rule:nonzero;stroke:none"
         id="path168" /><path
         d="M 930.965,86.1719 C 953.758,86.0195 972.344,67.1992 972.141,44.4609 971.945,21.6719 953.227,3.08984 930.496,3.12109 907.41,3.16016 888.859,22.0391 889.086,45.2891 c 0.223,22.8125 18.906,41.039 41.879,40.8828"
         style="fill:#231f20;fill-opacity:1;fill-rule:nonzero;stroke:none"
         id="path170" /><path
         d="M 91.293,154.969 C 91.1953,132.02 72.7969,113.77 49.8555,113.859 26.9648,113.949 8.60156,132.43 8.67969,155.289 8.75781,178.051 27.4023,196.551 50.1836,196.48 73.0156,196.398 91.3945,177.84 91.293,154.969"
         style="fill:#231f20;fill-opacity:1;fill-rule:nonzero;stroke:none"
         id="path172" /><path
         d="m 971.82,815.703 c 0.125,-22.871 -18.261,-41.465 -41.074,-41.543 -22.805,-0.078 -41.449,18.391 -41.543,41.145 -0.094,22.871 18.238,41.347 41.145,41.472 22.925,0.129 41.34,-18.113 41.472,-41.074"
         style="fill:#231f20;fill-opacity:1;fill-rule:nonzero;stroke:none"
         id="path174" /><path
         d="m 1522.49,485.391 c -0.17,-22.922 -18.65,-41.192 -41.53,-41.071 -22.74,0.11 -41.2,18.821 -41.07,41.621 0.11,22.809 18.73,41.149 41.61,40.993 22.95,-0.164 41.17,-18.625 40.99,-41.543"
         style="fill:#231f20;fill-opacity:1;fill-rule:nonzero;stroke:none"
         id="path176" /><path
         d="m 420.902,155.27 c 0.047,-23.11 -18.144,-41.258 -41.254,-41.18 -22.648,0.101 -40.945,18.351 -40.996,40.898 -0.058,22.731 18.711,41.473 41.426,41.364 22.555,-0.114 40.774,-18.442 40.824,-41.082"
         style="fill:#231f20;fill-opacity:1;fill-rule:nonzero;stroke:none"
         id="path178" /><path
         d="m 1081.84,154.219 c -0.34,-22.617 -18.86,-40.328 -41.78,-39.969 -22.2,0.352 -40.314,18.879 -40.165,41.07 0.155,22.442 18.945,41.051 41.275,40.879 22.84,-0.16 41.02,-18.918 40.67,-41.98"
         style="fill:#231f20;fill-opacity:1;fill-rule:nonzero;stroke:none"
         id="path180" /><path
         d="m 118.992,1365.93 c -0.117,22.67 18.024,40.98 40.645,41.02 22.601,0.03 40.996,-18.32 40.937,-40.82 -0.058,-22.25 -18.054,-40.41 -40.386,-40.77 -22.415,-0.35 -41.075,18.02 -41.196,40.57"
         style="fill:#231f20;fill-opacity:1;fill-rule:nonzero;stroke:none"
         id="path182" /><path
         d="m 820.176,1325.69 c -22.477,-0.03 -40.453,17.84 -40.547,40.31 -0.094,22.43 17.816,40.65 40.137,40.82 22.597,0.17 41.058,-18.18 40.992,-40.76 -0.067,-22.35 -18.149,-40.34 -40.582,-40.37"
         style="fill:#231f20;fill-opacity:1;fill-rule:nonzero;stroke:none"
         id="path184" /><path
         d="m 710.547,1296.99 c 22.48,-0.05 40.355,-17.97 40.375,-40.47 0.023,-22.43 -17.953,-40.57 -40.289,-40.65 -22.586,-0.09 -40.985,18.34 -40.828,40.92 0.148,22.34 18.308,40.26 40.742,40.2"
         style="fill:#231f20;fill-opacity:1;fill-rule:nonzero;stroke:none"
         id="path186" /><path
         d="m 1330.31,265.578 c 0.03,22.5 17.91,40.41 40.39,40.473 22.7,0.051 40.93,-18.25 40.74,-40.922 -0.19,-22.25 -18.53,-40.297 -40.84,-40.207 -22.32,0.09 -40.31,18.25 -40.29,40.656"
         style="fill:#231f20;fill-opacity:1;fill-rule:nonzero;stroke:none"
         id="path188" /><path
         d="m 1190.97,815.461 c -0.02,-22.578 -17.9,-40.324 -40.54,-40.227 -22.15,0.09 -40.08,17.922 -40.24,40.012 -0.15,22.195 18.17,40.692 40.38,40.762 22.35,0.066 40.43,-18.078 40.4,-40.547"
         style="fill:#231f20;fill-opacity:1;fill-rule:nonzero;stroke:none"
         id="path190" /><path
         d="m 1440.95,44.5117 c -0.07,22.6289 17.69,40.4688 40.3,40.4688 22.46,0 40.59,-18.1211 40.48,-40.4688 C 1521.62,22.5703 1503.55,4.42969 1481.6,4.21094 1459.27,4 1441.02,22.0781 1440.95,44.5117"
         style="fill:#231f20;fill-opacity:1;fill-rule:nonzero;stroke:none"
         id="path192" /><path
         d="m 1041.15,775.227 c -22.62,-0.071 -40.47,17.714 -40.46,40.32 0.02,22.461 18.14,40.586 40.49,40.461 21.94,-0.117 40.08,-18.195 40.29,-40.149 0.21,-22.332 -17.88,-40.554 -40.32,-40.632"
         style="fill:#231f20;fill-opacity:1;fill-rule:nonzero;stroke:none"
         id="path194" /><path
         d="m 1301.12,815.527 c -0.01,-22.148 -17.84,-40 -39.99,-40.027 -22.08,-0.02 -40.08,17.93 -40.08,39.988 -0.01,22.082 17.98,40.078 40.04,40.09 22.08,0 40.03,-17.961 40.03,-40.051"
         style="fill:#231f20;fill-opacity:1;fill-rule:nonzero;stroke:none"
         id="path196" /><path
         d="m 640.02,1036.63 c 0.089,-22.2 -17.633,-40.165 -39.727,-40.282 -22.145,-0.125 -40.121,17.582 -40.344,39.722 -0.219,22.01 17.637,40.11 39.778,40.35 21.992,0.22 40.199,-17.76 40.293,-39.79"
         style="fill:#231f20;fill-opacity:1;fill-rule:nonzero;stroke:none"
         id="path198" /><path
         d="m 970.293,1366.35 c 0.086,-21.92 -17.434,-39.8 -39.234,-40.03 -22.094,-0.25 -40.293,17.64 -40.387,39.7 -0.098,22.12 17.867,40.02 40.062,39.92 22.051,-0.11 39.469,-17.54 39.559,-39.59"
         style="fill:#231f20;fill-opacity:1;fill-rule:nonzero;stroke:none"
         id="path200" /><path
         d="m 859.871,815.469 c -0.016,-21.914 -17.621,-39.707 -39.422,-39.844 -22.101,-0.137 -40.187,17.824 -40.199,39.902 -0.016,22.102 18.047,39.922 40.258,39.727 22.031,-0.195 39.383,-17.734 39.363,-39.785"
         style="fill:#231f20;fill-opacity:1;fill-rule:nonzero;stroke:none"
         id="path202" /><path
         d="m 159.73,965.461 c 21.883,0.019 39.653,-17.559 39.766,-39.336 0.113,-21.887 -18.219,-40.148 -40.078,-39.941 -21.793,0.203 -39.258,17.988 -39.203,39.902 0.051,22.012 17.465,39.363 39.515,39.375"
         style="fill:#231f20;fill-opacity:1;fill-rule:nonzero;stroke:none"
         id="path204" /><path
         d="m 159.754,226.012 c -22.043,0.008 -39.461,17.34 -39.539,39.359 -0.082,22.18 17.887,40.168 39.887,39.918 21.664,-0.23 39.492,-18.301 39.394,-39.918 -0.098,-21.769 -17.859,-39.359 -39.742,-39.359"
         style="fill:#231f20;fill-opacity:1;fill-rule:nonzero;stroke:none"
         id="path206" /><path
         d="m 1481.1,634.336 c 21.68,0.07 39.2,-17.254 39.27,-38.809 0.08,-21.453 -17.53,-39.207 -38.97,-39.285 -21.57,-0.078 -39.03,17.324 -39.12,38.973 -0.09,21.777 17.06,39.062 38.82,39.121"
         style="fill:#231f20;fill-opacity:1;fill-rule:nonzero;stroke:none"
         id="path208" /><path
         d="m 341.094,1036.88 c 0.187,21.25 17.75,38.6 38.949,38.47 21.406,-0.12 39.195,-18.22 38.828,-39.5 -0.371,-21.33 -17.777,-38.35 -39.148,-38.272 -21.766,0.07 -38.821,17.422 -38.629,39.302"
         style="fill:#231f20;fill-opacity:1;fill-rule:nonzero;stroke:none"
         id="path210" /><path
         d="m 490.57,1074.77 c 21.52,-0.17 38.5,-17.57 38.129,-39.07 -0.363,-21.19 -17.554,-38.005 -38.711,-37.856 -21.308,0.144 -38.492,17.746 -38.207,39.146 0.289,21.06 17.617,37.94 38.789,37.78"
         style="fill:#231f20;fill-opacity:1;fill-rule:nonzero;stroke:none"
         id="path212" /><path
         d="m 599.891,1107.9 c -21.274,0.05 -38.036,16.85 -38.055,38.13 -0.016,21.18 16.883,38.29 37.949,38.42 21.164,0.12 38.77,-17.52 38.598,-38.68 -0.176,-21.07 -17.293,-37.92 -38.492,-37.87"
         style="fill:#231f20;fill-opacity:1;fill-rule:nonzero;stroke:none"
         id="path214" /><path
         d="m 930.723,1514.63 c 21.199,-0.05 37.988,-17.07 37.843,-38.36 -0.14,-20.82 -17.019,-37.7 -37.836,-37.86 -20.82,-0.15 -38.39,17.34 -38.378,38.2 0.011,21.05 17.195,38.07 38.371,38.02"
         style="fill:#231f20;fill-opacity:1;fill-rule:nonzero;stroke:none"
         id="path216" /><path
         d="m 49.8672,667.793 c -21.1172,0.07 -38.3125,17.402 -38.043,38.352 0.2696,20.703 17.336,37.703 38.0078,37.859 20.9883,0.156 38.1993,-17.039 38.2071,-38.184 0.0117,-21.238 -16.9063,-38.093 -38.1719,-38.027"
         style="fill:#231f20;fill-opacity:1;fill-rule:nonzero;stroke:none"
         id="path218" /><path
         d="m 1370.92,667.922 c -20.88,-0.031 -37.8,16.707 -38.02,37.605 -0.21,21.028 17.15,38.399 38.18,38.196 20.9,-0.215 37.64,-17.129 37.62,-38.008 -0.02,-20.852 -16.93,-37.766 -37.78,-37.793"
         style="fill:#231f20;fill-opacity:1;fill-rule:nonzero;stroke:none"
         id="path220" /><path
         d="m 1370.92,632.766 c 20.61,-0.039 37.34,-16.602 37.51,-37.129 0.17,-20.586 -17.09,-37.91 -37.7,-37.864 -20.78,0.059 -37.47,17.09 -37.29,38.047 0.18,20.696 16.71,36.985 37.48,36.946"
         style="fill:#231f20;fill-opacity:1;fill-rule:nonzero;stroke:none"
         id="path222" /><path
         d="m 1041.25,743.184 c 20.58,-0.098 37.28,-16.797 37.33,-37.305 0.05,-20.606 -17.29,-37.859 -37.87,-37.684 -20.81,0.184 -37.35,17.215 -37.11,38.223 0.24,20.645 16.85,36.863 37.65,36.766"
         style="fill:#231f20;fill-opacity:1;fill-rule:nonzero;stroke:none"
         id="path224" /><path
         d="m 159.457,118.359 c -20.523,0.11 -36.605,16.461 -36.469,37.063 0.129,20.398 16.762,36.848 37.059,36.668 20.211,-0.18 36.828,-17.07 36.66,-37.238 -0.164,-20.332 -16.777,-36.602 -37.25,-36.493"
         style="fill:#231f20;fill-opacity:1;fill-rule:nonzero;stroke:none"
         id="path226" /><path
         d="m 1151.34,962.531 c 20.01,-0.246 36.34,-16.926 36.13,-36.894 -0.22,-20.227 -17.42,-36.992 -37.42,-36.477 -20.47,0.528 -36.34,17.199 -35.95,37.766 0.37,20.066 16.89,35.847 37.24,35.605"
         style="fill:#231f20;fill-opacity:1;fill-rule:nonzero;stroke:none"
         id="path228" /><path
         d="m 673.969,1036.28 c -0.039,20.15 16.25,36.51 36.367,36.53 20.176,0.03 36.488,-16.2 36.57,-36.36 0.078,-20.08 -16.293,-36.528 -36.41,-36.575 -20.141,-0.039 -36.492,16.255 -36.527,36.405"
         style="fill:#231f20;fill-opacity:1;fill-rule:nonzero;stroke:none"
         id="path230" /><path
         d="m 930.184,1000.21 c -20.25,0.16 -36.071,16.41 -35.77,36.72 0.293,19.89 16.371,35.77 36.188,35.75 19.988,-0.03 36.378,-16.54 36.273,-36.53 -0.109,-20.1 -16.457,-36.11 -36.691,-35.94"
         style="fill:#231f20;fill-opacity:1;fill-rule:nonzero;stroke:none"
         id="path232" /><path
         d="m 894.406,265.379 c -0.09,20.301 15.903,36.34 36.196,36.312 19.918,-0.031 36.007,-15.851 36.273,-35.66 0.262,-19.98 -16.016,-36.633 -35.988,-36.812 -20.098,-0.18 -36.391,15.98 -36.481,36.16"
         style="fill:#231f20;fill-opacity:1;fill-rule:nonzero;stroke:none"
         id="path234" /><path
         d="m 1297.05,705.578 c -0.07,-19.824 -16.25,-35.976 -35.99,-35.937 -19.63,0.039 -36.01,16.375 -36.12,36.023 -0.11,19.992 16.35,36.25 36.56,36.086 19.95,-0.156 35.64,-16.113 35.55,-36.172"
         style="fill:#231f20;fill-opacity:1;fill-rule:nonzero;stroke:none"
         id="path236" /><path
         d="m 1040.67,1330.39 c -19.89,0.14 -35.69,16.28 -35.5,36.29 0.19,19.49 16.24,35.4 35.76,35.43 19.73,0.02 36.03,-16.32 35.95,-36.04 -0.07,-19.79 -16.33,-35.81 -36.21,-35.68"
         style="fill:#231f20;fill-opacity:1;fill-rule:nonzero;stroke:none"
         id="path238" /><path
         d="m 855.668,1036.01 c -0.172,-19.67 -16.09,-35.41 -35.703,-35.31 -19.828,0.09 -35.805,16.46 -35.488,36.33 0.316,19.55 16.472,35.13 36.164,34.86 19.754,-0.28 35.203,-16.1 35.027,-35.88"
         style="fill:#231f20;fill-opacity:1;fill-rule:nonzero;stroke:none"
         id="path240" /><path
         d="m 85.5664,926.047 c 0.0586,-19.68 -15.6914,-35.664 -35.25,-35.774 -19.8672,-0.117 -36.0391,16.028 -35.9492,35.879 0.0898,19.582 16.0312,35.344 35.7109,35.313 19.7539,-0.02 35.4297,-15.664 35.4883,-35.418"
         style="fill:#231f20;fill-opacity:1;fill-rule:nonzero;stroke:none"
         id="path242" /><path
         d="m 124.207,44.6719 c -0.019,19.6797 15.746,35.6094 35.328,35.6875 19.856,0.0898 36,-16.0977 35.867,-35.9492 C 195.273,24.8398 179.289,9.08984 159.617,9.16016 139.852,9.23828 124.23,24.8984 124.207,44.6719"
         style="fill:#231f20;fill-opacity:1;fill-rule:nonzero;stroke:none"
         id="path244" /><path
         d="m 1040.75,1441.69 c -19.48,0.12 -34.98,15.91 -34.7,35.35 0.27,19.47 16.08,34.85 35.53,34.57 19.02,-0.27 34.42,-15.95 34.39,-35.05 -0.02,-19.38 -15.79,-34.99 -35.22,-34.87"
         style="fill:#231f20;fill-opacity:1;fill-rule:nonzero;stroke:none"
         id="path246" /><path
         d="M 15.3906,44.7109 C 15.3945,64.0508 30.5508,79.2813 49.875,79.3516 69.3633,79.4219 85.1016,63.6719 84.8828,44.3281 84.668,25.3516 68.8008,9.75 49.8516,9.85156 30.7539,9.96094 15.3828,25.5117 15.3906,44.7109"
         style="fill:#231f20;fill-opacity:1;fill-rule:nonzero;stroke:none"
         id="path248" /><path
         d="m 1370.81,780.871 c -19.34,0.008 -34.57,15.176 -34.64,34.492 -0.06,19.492 15.67,35.215 35.03,35.008 18.96,-0.215 34.59,-16.101 34.47,-35.039 -0.13,-19.109 -15.66,-34.461 -34.86,-34.461"
         style="fill:#231f20;fill-opacity:1;fill-rule:nonzero;stroke:none"
         id="path250" /><path
         d="m 50.0898,1331.73 c -19.3046,-0.01 -34.5703,15.28 -34.5351,34.6 0.0351,19.13 15.7812,34.76 34.7812,34.53 18.7344,-0.23 34.1641,-15.69 34.3594,-34.43 0.1953,-18.99 -15.4648,-34.7 -34.6055,-34.7"
         style="fill:#231f20;fill-opacity:1;fill-rule:nonzero;stroke:none"
         id="path252" /><path
         d="m 1481.54,740.273 c 19.12,-0.105 34.73,-15.996 34.35,-34.949 -0.37,-18.789 -15.87,-34.113 -34.59,-34.179 -19.03,-0.079 -34.59,15.593 -34.53,34.773 0.06,19.27 15.44,34.465 34.77,34.355"
         style="fill:#231f20;fill-opacity:1;fill-rule:nonzero;stroke:none"
         id="path254" /><path
         d="m 1041.01,300.012 c 19.16,0 34.79,-15.66 34.63,-34.684 -0.17,-18.719 -15.59,-34.199 -34.33,-34.449 -18.99,-0.258 -34.76,15.371 -34.81,34.5 -0.05,19.332 15.21,34.641 34.51,34.633"
         style="fill:#231f20;fill-opacity:1;fill-rule:nonzero;stroke:none"
         id="path256" /><path
         d="m 304.484,265.359 c -0.062,-18.859 -15.433,-34.16 -34.32,-34.148 -18.906,0.019 -34.191,15.23 -34.328,34.168 -0.141,19.121 15.48,34.652 34.691,34.48 18.848,-0.16 34.024,-15.57 33.957,-34.5"
         style="fill:#231f20;fill-opacity:1;fill-rule:nonzero;stroke:none"
         id="path258" /><path
         d="m 600.219,1442.3 c -18.926,-0.1 -34.285,14.99 -34.535,33.93 -0.25,19.13 15.312,34.8 34.476,34.72 18.91,-0.1 34.164,-15.41 34.168,-34.31 0,-18.89 -15.246,-34.25 -34.109,-34.34"
         style="fill:#231f20;fill-opacity:1;fill-rule:nonzero;stroke:none"
         id="path260" /><path
         d="m 854.129,1476.93 c 0.164,-19 -14.965,-34.41 -33.852,-34.49 -18.789,-0.08 -34.32,15.4 -34.316,34.19 0,18.62 14.984,33.74 33.652,33.97 19.18,0.24 34.356,-14.56 34.516,-33.67"
         style="fill:#231f20;fill-opacity:1;fill-rule:nonzero;stroke:none"
         id="path262" /><path
         d="m 853.777,1256.7 c 0.098,-18.64 -14.843,-33.77 -33.418,-33.86 -18.629,-0.09 -33.746,14.81 -33.925,33.43 -0.176,18.46 14.941,33.77 33.492,33.91 18.547,0.14 33.754,-14.91 33.851,-33.48"
         style="fill:#231f20;fill-opacity:1;fill-rule:nonzero;stroke:none"
         id="path264" /><path
         d="m 1041.11,342.141 c -18.54,-0.059 -33.2,14.5 -33.25,33.007 -0.05,18.422 14.7,33.364 33,33.43 18.11,0.063 33.34,-15.047 33.45,-33.199 0.09,-18.25 -14.83,-33.188 -33.2,-33.238"
         style="fill:#231f20;fill-opacity:1;fill-rule:nonzero;stroke:none"
         id="path266" /><path
         d="m 743.539,1476.85 c 0.082,-18.56 -14.426,-33.26 -32.906,-33.35 -18.434,-0.08 -33.387,14.59 -33.535,32.91 -0.153,18.07 14.937,33.36 33.097,33.54 18.239,0.18 33.254,-14.74 33.344,-33.1"
         style="fill:#231f20;fill-opacity:1;fill-rule:nonzero;stroke:none"
         id="path268" /><path
         d="m 1294.06,1476.83 c 0.07,-18.24 -14.4,-32.98 -32.55,-33.16 -18.45,-0.19 -33.57,14.76 -33.44,33.08 0.13,18.13 14.89,32.85 33,32.9 18.05,0.06 32.92,-14.73 32.99,-32.82"
         style="fill:#231f20;fill-opacity:1;fill-rule:nonzero;stroke:none"
         id="path270" /><path
         d="m 49.9336,782.559 c -18.1875,0.05 -32.8125,14.668 -32.8594,32.863 -0.0429,18.144 14.5547,32.937 32.6914,33.125 C 68.0547,848.73 83.25,833.535 83.0586,815.246 82.875,797.109 68.0859,782.52 49.9336,782.559"
         style="fill:#231f20;fill-opacity:1;fill-rule:nonzero;stroke:none"
         id="path272" /><path
         d="M 412.52,44.5508 C 412.426,26.1992 397.895,11.8906 379.52,12.0586 361.328,12.2305 346.797,27.0781 347.074,45.2383 347.348,63 362.063,77.4883 379.848,77.5 397.98,77.5195 412.609,62.7695 412.52,44.5508"
         style="fill:#231f20;fill-opacity:1;fill-rule:nonzero;stroke:none"
         id="path274" /><path
         d="m 1150.45,1398.84 c 18.22,0.14 33,-14.45 33.04,-32.58 0.03,-18.06 -14.82,-32.91 -32.9,-32.87 -17.85,0.06 -32.36,14.48 -32.55,32.37 -0.19,18.4 14.07,32.95 32.41,33.08"
         style="fill:#231f20;fill-opacity:1;fill-rule:nonzero;stroke:none"
         id="path276" /><path
         d="m 1150.77,673.391 c -18.07,-0.051 -32.41,14.16 -32.5,32.175 -0.09,18.254 14.67,33.086 32.71,32.872 17.71,-0.204 32.42,-15.098 32.34,-32.735 -0.07,-17.84 -14.62,-32.265 -32.55,-32.312"
         style="fill:#231f20;fill-opacity:1;fill-rule:nonzero;stroke:none"
         id="path278" /><path
         d="m 1150.82,1508.88 c 17.9,-0.08 32.43,-14.77 32.21,-32.58 -0.22,-17.58 -14.56,-31.87 -32.13,-32.02 -17.82,-0.16 -32.43,14.37 -32.47,32.3 -0.03,17.92 14.44,32.36 32.39,32.3"
         style="fill:#231f20;fill-opacity:1;fill-rule:nonzero;stroke:none"
         id="path280" /><path
         d="m 1293.06,925.82 c -0.05,-17.781 -14.12,-31.816 -31.91,-31.836 -17.72,-0.007 -32.03,14.114 -32.14,31.731 -0.12,17.832 14.56,32.48 32.38,32.312 17.62,-0.156 31.71,-14.48 31.67,-32.207"
         style="fill:#231f20;fill-opacity:1;fill-rule:nonzero;stroke:none"
         id="path282" /><path
         d="m 1040.86,1067.58 c 17.59,0.05 31.37,-13.72 31.35,-31.32 -0.03,-17.44 -14.12,-31.44 -31.5,-31.29 -17.01,0.15 -30.97,14.1 -31.12,31.1 -0.15,17.4 13.82,31.47 31.27,31.51"
         style="fill:#231f20;fill-opacity:1;fill-rule:nonzero;stroke:none"
         id="path284" /><path
         d="m 930.707,1225.25 c -17.465,-0.08 -31.559,13.89 -31.539,31.26 0.02,17.29 14.289,31.46 31.562,31.36 17.106,-0.09 30.899,-13.89 31.051,-31.03 0.157,-17.59 -13.519,-31.5 -31.074,-31.59"
         style="fill:#231f20;fill-opacity:1;fill-rule:nonzero;stroke:none"
         id="path286" /><path
         d="m 1370.75,1507.84 c 17.59,0.02 31.35,-13.76 31.29,-31.36 -0.04,-17.44 -14.14,-31.41 -31.53,-31.25 -17,0.17 -30.94,14.14 -31.07,31.15 -0.14,17.38 13.85,31.44 31.31,31.46"
         style="fill:#231f20;fill-opacity:1;fill-rule:nonzero;stroke:none"
         id="path288" /><path
         d="m 1230.11,1366.53 c 0.13,17.22 13.88,30.74 31.17,30.67 17.13,-0.08 31.02,-13.96 31.04,-31 0.01,-17.12 -14.71,-31.6 -31.73,-31.21 -17.14,0.4 -30.61,14.34 -30.48,31.54"
         style="fill:#231f20;fill-opacity:1;fill-rule:nonzero;stroke:none"
         id="path290" /><path
         d="m 490.188,1446.13 c -17.075,0.03 -30.458,13.52 -30.383,30.62 0.066,16.97 13.73,30.59 30.621,30.53 16.781,-0.07 30.586,-13.98 30.523,-30.76 -0.062,-16.9 -13.75,-30.42 -30.761,-30.39"
         style="fill:#231f20;fill-opacity:1;fill-rule:nonzero;stroke:none"
         id="path292" /><path
         d="m 300.426,155.41 c 0.121,-16.98 -13.524,-30.82 -30.332,-30.762 -16.43,0.063 -30.184,13.711 -30.403,30.184 -0.23,16.758 13.575,30.578 30.528,30.547 16.777,-0.027 30.082,-13.231 30.207,-29.969"
         style="fill:#231f20;fill-opacity:1;fill-rule:nonzero;stroke:none"
         id="path294" /><path
         d="m 710.121,1116.33 c -16.801,0.15 -29.726,13.51 -29.43,30.42 0.293,16.32 13.778,29.44 30.067,29.24 16.226,-0.2 29.551,-13.65 29.59,-29.88 0.043,-16.56 -13.524,-29.92 -30.227,-29.78"
         style="fill:#231f20;fill-opacity:1;fill-rule:nonzero;stroke:none"
         id="path296" /><path
         d="m 269.988,14.9688 c -16.824,0.0898 -29.804,13.3828 -29.558,30.2929 0.238,16.3281 13.644,29.4883 29.929,29.3594 16.52,-0.1328 30.02,-13.9609 29.723,-30.4414 -0.297,-16.3203 -13.668,-29.3008 -30.094,-29.2109"
         style="fill:#231f20;fill-opacity:1;fill-rule:nonzero;stroke:none"
         id="path298" /><path
         d="m 1150.63,404.602 c 16.17,0.019 29.2,-12.903 29.35,-29.114 0.16,-16.168 -12.7,-29.297 -28.9,-29.527 -16.45,-0.242 -29.8,12.98 -29.74,29.43 0.06,16.089 13.19,29.191 29.29,29.211"
         style="fill:#231f20;fill-opacity:1;fill-rule:nonzero;stroke:none"
         id="path300" /><path
         d="m 1341.86,44.8711 c 0.06,16.3086 12.94,28.9492 29.33,28.7891 15.89,-0.1602 28.7,-12.9688 28.8,-28.8008 0.11,-15.9297 -13.21,-29.3203 -29.16,-29.3203 -16.1,-0.0078 -29.03,13.082 -28.97,29.332"
         style="fill:#231f20;fill-opacity:1;fill-rule:nonzero;stroke:none"
         id="path302" /><path
         d="m 1012.21,44.5586 c -0.07,16.0195 12.64,28.8516 28.62,28.9102 15.94,0.0625 28.95,-12.7696 29.05,-28.6172 0.1,-15.7305 -12.97,-28.9297 -28.76,-29.0625 -15.76,-0.1289 -28.85,12.8828 -28.91,28.7695"
         style="fill:#231f20;fill-opacity:1;fill-rule:nonzero;stroke:none"
         id="path304" /><path
         d="m 1371.06,1337.43 c -16.05,-0.09 -28.91,12.56 -29.01,28.53 -0.09,15.95 12.65,28.97 28.53,29.15 15.69,0.18 28.94,-12.86 29.15,-28.67 0.21,-15.75 -12.8,-28.91 -28.67,-29.01"
         style="fill:#231f20;fill-opacity:1;fill-rule:nonzero;stroke:none"
         id="path306" /><path
         d="m 930.785,403.43 c 15.774,-0.078 28.059,-12.578 27.945,-28.43 -0.109,-15.66 -12.882,-28.309 -28.421,-28.148 -15.418,0.16 -28.332,13.296 -28.161,28.628 0.18,15.622 12.899,28.04 28.637,27.95"
         style="fill:#231f20;fill-opacity:1;fill-rule:nonzero;stroke:none"
         id="path308" /><path
         d="m 1481.07,1338.57 c -15.59,0.07 -27.63,12.36 -27.46,27.99 0.17,15.16 12.38,27.36 27.46,27.45 15.26,0.09 27.99,-12.55 27.98,-27.8 0,-15.37 -12.5,-27.72 -27.98,-27.64"
         style="fill:#231f20;fill-opacity:1;fill-rule:nonzero;stroke:none"
         id="path310" /><path
         d="m 1453.84,1476.79 c 0.06,15.1 12.36,27.41 27.38,27.42 14.93,0 27.44,-12.42 27.61,-27.39 0.17,-15.25 -12.46,-27.73 -27.92,-27.6 -15.18,0.14 -27.13,12.3 -27.07,27.57"
         style="fill:#231f20;fill-opacity:1;fill-rule:nonzero;stroke:none"
         id="path312" /><path
         d="m 1040.6,1229.35 c -15.21,0.2 -27.2,12.64 -26.83,27.86 0.35,14.79 12.67,26.65 27.55,26.49 15.15,-0.16 27.18,-12.7 26.78,-27.91 -0.41,-15.01 -12.5,-26.64 -27.5,-26.44"
         style="fill:#231f20;fill-opacity:1;fill-rule:nonzero;stroke:none"
         id="path314" /><path
         d="m 1397.96,155.398 c 0.14,-15.25 -11.97,-27.457 -27.24,-27.418 -14.92,0.04 -27,12.008 -27.12,26.879 -0.11,15.153 12.15,27.5 27.29,27.481 14.89,-0.031 26.92,-12.008 27.07,-26.942"
         style="fill:#231f20;fill-opacity:1;fill-rule:nonzero;stroke:none"
         id="path316" /><path
         d="m 847.277,1146.01 c -0.05,-15.28 -12.328,-27.33 -27.586,-27.07 -14.945,0.24 -26.816,12.31 -26.765,27.21 0.047,15.13 12.469,27.32 27.625,27.13 14.867,-0.2 26.777,-12.35 26.726,-27.27"
         style="fill:#231f20;fill-opacity:1;fill-rule:nonzero;stroke:none"
         id="path318" /><path
         d="m 957.699,1146.16 c 0.039,-15.26 -12.168,-27.39 -27.433,-27.23 -14.926,0.14 -26.899,12.18 -26.922,27.07 -0.031,15.13 12.324,27.4 27.476,27.28 14.871,-0.12 26.84,-12.19 26.879,-27.12"
         style="fill:#231f20;fill-opacity:1;fill-rule:nonzero;stroke:none"
         id="path320" /><path
         d="m 1344.59,926.445 c 0.25,14.688 12.31,26.301 26.91,25.899 14.24,-0.391 25.8,-12.324 25.73,-26.543 -0.07,-14.617 -11.97,-26.238 -26.72,-26.102 -14.79,0.137 -26.17,11.883 -25.92,26.746"
         style="fill:#231f20;fill-opacity:1;fill-rule:nonzero;stroke:none"
         id="path322" /><path
         d="m 1150.48,1062.06 c 14.19,0.14 25.81,-11.19 25.99,-25.33 0.18,-14.43 -11.48,-26.21 -25.91,-26.16 -14.14,0.05 -25.57,11.54 -25.58,25.73 -0.01,14.3 11.22,25.63 25.5,25.76"
         style="fill:#231f20;fill-opacity:1;fill-rule:nonzero;stroke:none"
         id="path324" /><path
         d="m 1065.13,1145.96 c -0.06,-13.58 -10.7,-24.1 -24.29,-24.05 -13.48,0.06 -24.24,10.88 -24.18,24.29 0.07,13.29 11.12,24.23 24.42,24.17 13.41,-0.05 24.1,-10.91 24.05,-24.41"
         style="fill:#231f20;fill-opacity:1;fill-rule:nonzero;stroke:none"
         id="path326" /><path
         d="m 1481.55,839.668 c 13.57,-0.156 24,-10.867 23.83,-24.492 -0.15,-13.457 -11.08,-24.16 -24.48,-23.973 -13.29,0.184 -24.14,11.328 -23.97,24.629 0.17,13.398 11.12,23.992 24.62,23.836"
         style="fill:#231f20;fill-opacity:1;fill-rule:nonzero;stroke:none"
         id="path328" /><path
         d="m 379.895,1453.07 c -13.004,-0.04 -23.399,10.19 -23.567,23.2 -0.176,13.27 10.36,24 23.551,24 12.859,0 23.457,-10.43 23.641,-23.27 0.195,-13.21 -10.352,-23.89 -23.625,-23.93"
         style="fill:#231f20;fill-opacity:1;fill-rule:nonzero;stroke:none"
         id="path330" /><path
         d="m 1284.32,1036.46 c 0.03,-13.05 -10.12,-23.28 -23.13,-23.32 -12.94,-0.02 -23.46,10.33 -23.5,23.13 -0.05,12.65 10.64,23.42 23.32,23.51 12.77,0.08 23.26,-10.41 23.31,-23.32"
         style="fill:#231f20;fill-opacity:1;fill-rule:nonzero;stroke:none"
         id="path332" /><path
         d="m 247.633,1476.96 c 0.144,12.52 9.976,22.2 22.547,22.19 12.683,-0.01 22.976,-10.38 22.734,-22.9 -0.242,-12.2 -10.59,-22.39 -22.75,-22.39 -12.578,0 -22.68,10.36 -22.531,23.1"
         style="fill:#231f20;fill-opacity:1;fill-rule:nonzero;stroke:none"
         id="path334" /><path
         d="m 1238.81,265.82 c 0.13,12.379 10.38,22.309 22.76,22.032 12.11,-0.274 21.83,-10.161 21.84,-22.25 0.02,-12.422 -10.02,-22.422 -22.42,-22.364 -12.38,0.063 -22.32,10.184 -22.18,22.582"
         style="fill:#231f20;fill-opacity:1;fill-rule:nonzero;stroke:none"
         id="path336" /><path
         d="m 1150.59,1278.33 c 12.34,0.05 21.92,-9.47 21.94,-21.78 0.03,-12.2 -9.7,-22.09 -21.78,-22.12 -11.94,-0.04 -22.06,10.01 -22.13,21.96 -0.06,12.06 9.8,21.9 21.97,21.94"
         style="fill:#231f20;fill-opacity:1;fill-rule:nonzero;stroke:none"
         id="path338" /><path
         d="m 1260.77,1276.91 c 11.66,0.15 20.7,-8.69 20.76,-20.29 0.06,-11.51 -9.11,-20.81 -20.46,-20.77 -10.96,0.03 -20.26,9.11 -20.6,20.12 -0.34,11.3 8.86,20.8 20.3,20.94"
         style="fill:#231f20;fill-opacity:1;fill-rule:nonzero;stroke:none"
         id="path340" /><path
         d="m 159.934,1456.45 c -11.157,-0.09 -20.246,8.82 -20.356,19.97 -0.105,11.15 8.824,20.24 19.992,20.37 11.11,0.12 20.254,-8.87 20.34,-20 0.09,-11.13 -8.855,-20.25 -19.976,-20.34"
         style="fill:#231f20;fill-opacity:1;fill-rule:nonzero;stroke:none"
         id="path342" /><path
         d="m 1260.87,24.5313 c -11.17,0.1601 -20.07,9.2773 -19.93,20.4296 0.14,11.1407 9.26,20.0274 20.42,19.9102 11.1,-0.1211 20.04,-9.2695 19.92,-20.4102 -0.12,-11.1211 -9.3,-20.082 -20.41,-19.9296"
         style="fill:#231f20;fill-opacity:1;fill-rule:nonzero;stroke:none"
         id="path344" /><path
         d="m 1371.42,1056.04 c 11.03,-0.27 19.36,-9.13 19.08,-20.31 -0.28,-10.87 -9.56,-19.68 -20.31,-19.27 -10.77,0.41 -19.67,9.87 -19.26,20.49 0.42,10.93 9.45,19.34 20.49,19.09"
         style="fill:#231f20;fill-opacity:1;fill-rule:nonzero;stroke:none"
         id="path346" /><path
         d="m 1481.01,944.082 c 10.29,0.098 18.43,-7.988 18.37,-18.281 -0.05,-9.903 -8.05,-18.016 -17.92,-18.164 -9.98,-0.157 -18.6,8.429 -18.52,18.418 0.09,9.855 8.17,17.922 18.07,18.027"
         style="fill:#231f20;fill-opacity:1;fill-rule:nonzero;stroke:none"
         id="path348" /><path
         d="m 1150.53,247.391 c -10.26,0.078 -18.23,8.347 -17.99,18.668 0.23,9.863 8.49,17.882 18.31,17.769 9.77,-0.109 18,-8.316 18.12,-18.09 0.13,-10.097 -8.23,-18.418 -18.44,-18.347"
         style="fill:#231f20;fill-opacity:1;fill-rule:nonzero;stroke:none"
         id="path350" /><path
         d="m 1168.34,1146.11 c 0.01,-10.04 -8.1,-18.11 -17.97,-17.91 -9.55,0.21 -17.5,8.26 -17.55,17.8 -0.05,9.89 8.11,17.86 18.16,17.72 9.86,-0.13 17.36,-7.74 17.36,-17.61"
         style="fill:#231f20;fill-opacity:1;fill-rule:nonzero;stroke:none"
         id="path352" /><path
         d="m 1150.49,138.301 c -9.54,0.097 -16.8,7.621 -16.62,17.219 0.16,9.082 7.64,16.531 16.69,16.628 9.13,0.09 17.16,-7.886 17.15,-17.046 -0.02,-9.313 -7.8,-16.903 -17.22,-16.801"
         style="fill:#231f20;fill-opacity:1;fill-rule:nonzero;stroke:none"
         id="path354" /><path
         d="m 1387.64,1256.68 c 0.08,-9.58 -7.27,-17 -16.83,-17.02 -9.4,0 -17.13,7.72 -17.01,17.01 0.12,8.94 7.69,16.59 16.65,16.83 9.26,0.25 17.11,-7.43 17.19,-16.82"
         style="fill:#231f20;fill-opacity:1;fill-rule:nonzero;stroke:none"
         id="path356" /><path
         d="m 50.1445,1460.27 c -9.3398,-0.06 -16.5117,7.11 -16.4609,16.44 0.0547,8.97 7.0391,16.17 15.9102,16.41 9.0234,0.25 16.7656,-7.16 16.9414,-16.21 0.1836,-9.12 -7.1563,-16.57 -16.3907,-16.64"
         style="fill:#231f20;fill-opacity:1;fill-rule:nonzero;stroke:none"
         id="path358" /><path
         d="m 1277.45,1146.19 c 0.04,-9.26 -7.25,-16.66 -16.39,-16.63 -9.04,0.03 -16.57,7.67 -16.46,16.7 0.11,8.87 7.23,15.99 16.17,16.15 9.37,0.17 16.63,-6.89 16.68,-16.22"
         style="fill:#231f20;fill-opacity:1;fill-rule:nonzero;stroke:none"
         id="path360" /><path
         d="m 1466.34,1256.54 c 0.02,8.35 6.32,14.72 14.64,14.84 8.54,0.12 15.4,-6.58 15.34,-14.99 -0.06,-8.02 -6.75,-14.81 -14.79,-14.98 -8.38,-0.18 -15.21,6.63 -15.19,15.13"
         style="fill:#231f20;fill-opacity:1;fill-rule:nonzero;stroke:none"
         id="path362" /><path
         d="m 1371,1132.16 c -7.63,-0.1 -14,5.97 -14.24,13.55 -0.25,7.65 6.54,14.54 14.22,14.43 7.55,-0.12 13.75,-6.45 13.75,-14.05 0,-7.76 -5.99,-13.83 -13.73,-13.93"
         style="fill:#231f20;fill-opacity:1;fill-rule:nonzero;stroke:none"
         id="path364" /><path
         d="m 1261.16,169.18 c 7.45,-0.02 13.92,-6.45 14,-13.91 0.09,-7.821 -6.54,-14.25 -14.44,-14.059 -7.72,0.211 -13.62,6.367 -13.52,14.129 0.1,7.601 6.42,13.859 13.96,13.84"
         style="fill:#231f20;fill-opacity:1;fill-rule:nonzero;stroke:none"
         id="path366" /><path
         d="m 1495.15,1036.32 c -0.01,-7.62 -6.21,-13.93 -13.78,-14.02 -7.44,-0.11 -13.97,6.23 -14.18,13.73 -0.22,7.79 6.34,14.33 14.25,14.24 7.73,-0.11 13.72,-6.2 13.71,-13.95"
         style="fill:#231f20;fill-opacity:1;fill-rule:nonzero;stroke:none"
         id="path368" /><path
         d="m 1150.59,56.8516 c 6.84,0.039 12.12,-5.1016 12.23,-11.9297 0.1,-6.7813 -5.04,-12.2617 -11.73,-12.4922 -6.85,-0.2305 -12.73,5.4922 -12.68,12.3594 0.05,6.6914 5.43,12.0117 12.18,12.0625"
         style="fill:#231f20;fill-opacity:1;fill-rule:nonzero;stroke:none"
         id="path370" /><path
         d="m 1481.4,1156.29 c 5.71,-0.1 10.21,-4.83 10.03,-10.57 -0.18,-5.45 -4.57,-9.76 -10.02,-9.84 -5.73,-0.09 -10.4,4.49 -10.4,10.19 0.01,5.66 4.74,10.32 10.39,10.22"
         style="fill:#231f20;fill-opacity:1;fill-rule:nonzero;stroke:none"
         id="path372" /><path
         d="m 2145.25,1490.93 -132.87,-417.12 -133.75,417.12 h -121.46 l 206.81,-626.563 h 96.79 l 205.93,626.563 h -121.45"
         style="fill:#231f20;fill-opacity:1;fill-rule:nonzero;stroke:none"
         id="path374" /><path
         d="m 2312.8,1490.93 v -93.28 h 111.76 V 957.656 H 2312.8 v -93.289 h 339.69 v 93.289 h -110.88 v 439.994 h 110.88 v 93.28 H 2312.8"
         style="fill:#231f20;fill-opacity:1;fill-rule:nonzero;stroke:none"
         id="path376" /><path
         d="m 3006.4,1274.45 c -7.91,78.32 -39.61,114.39 -89.77,114.39 -40.47,0 -81.83,-22.87 -81.83,-67.76 0,-44.88 41.36,-61.6 75.67,-74.78 l 87.13,-34.33 c 73.05,-29.04 134.65,-68.63 134.65,-166.33 0,-121.421 -94.16,-186.546 -211.21,-186.546 -129.37,0 -221.75,80.066 -221.75,212.076 l 105.59,22.87 c 8.8,-80.06 44.87,-127.595 114.4,-127.595 44.88,0 94.15,19.368 94.15,72.165 0,47.5 -41.35,63.35 -90.63,82.72 l -81.84,32.56 c -75.69,29.93 -124.08,73.92 -124.08,158.4 0,116.16 90.63,183.91 201.52,183.91 116.15,0 193.61,-73.92 193.61,-198.87 l -105.61,-22.88"
         style="fill:#231f20;fill-opacity:1;fill-rule:nonzero;stroke:none"
         id="path378" /><path
         d="m 3530.81,1490.92 h 117.06 v -428.56 c 0,-130.239 -85.36,-203.266 -218.26,-203.266 -131.99,0 -218.24,73.027 -218.24,203.266 v 428.56 h 117.04 v -422.4 c 0,-64.23 32.57,-102.075 101.2,-102.075 68.65,0 101.2,37.845 101.2,102.075 v 422.4"
         style="fill:#231f20;fill-opacity:1;fill-rule:nonzero;stroke:none"
         id="path380" /><path
         d="M 3904.8,1490.93 3697.98,864.367 h 121.46 l 49.28,151.353 h 184.79 l 49.29,-151.353 h 122.31 L 4018.3,1490.93 Z m 56.31,-189.19 58.95,-178.65 h -117.02 z"
         style="fill:#231f20;fill-opacity:1;fill-rule:nonzero;stroke:none"
         id="path382" /><path
         d="M 4289.97,1490.93 V 864.367 h 341.45 v 106.485 h -224.4 v 520.078 h -117.05"
         style="fill:#231f20;fill-opacity:1;fill-rule:nonzero;stroke:none"
         id="path384" /><path
         d="m 2081.81,420.199 c -7.91,78.321 -39.61,114.403 -89.76,114.403 -40.48,0 -81.84,-22.883 -81.84,-67.762 0,-44.891 41.36,-61.61 75.68,-74.801 l 87.12,-34.32 c 73.05,-29.039 134.65,-68.641 134.65,-166.328 0,-121.4301 -94.16,-186.55116 -211.22,-186.55116 -129.36,0 -221.74,80.07036 -221.74,212.09016 l 105.58,22.879 c 8.82,-80.079 44.88,-127.61 114.41,-127.61 44.88,0 94.15,19.36 94.15,72.16 0,47.52 -41.35,63.36 -90.63,82.723 l -81.84,32.547 c -75.69,29.93 -124.08,73.941 -124.08,158.422 0,116.14 90.63,183.902 201.53,183.902 116.14,0 193.59,-73.926 193.59,-198.875 l -105.6,-22.879"
         style="fill:#231f20;fill-opacity:1;fill-rule:nonzero;stroke:none"
         id="path386" /><path
         d="m 2805.1,636.672 -89.76,-408.32 -80.95,325.605 h -109.12 l -81.85,-325.605 -88.88,408.32 h -118.8 L 2386.22,10.1094 h 99.46 l 94.15,337.9296 94.16,-337.9296 h 99.44 L 2924.79,636.672 H 2805.1"
         style="fill:#231f20;fill-opacity:1;fill-rule:nonzero;stroke:none"
         id="path388" /><path
         d="M 2989.64,636.672 V 10.1094 h 402.17 V 116.602 h -285.13 v 155.757 h 175.99 v 106.469 h -175.99 v 151.36 h 285.13 v 106.484 h -402.17"
         style="fill:#231f20;fill-opacity:1;fill-rule:nonzero;stroke:none"
         id="path390" /><path
         d="M 3470.95,10.1211 V 636.672 h 199.78 c 120.54,0 249.91,-83.606 249.91,-314.16 0,-227.0315 -124.96,-312.3909 -241.12,-312.3909 z M 3670.73,116.59 c 58.94,0 131.1,36.969 131.1,204.16 0,172.488 -77.43,209.445 -139.03,209.445 h -74.81 V 116.59 h 82.74"
         style="fill:#231f20;fill-opacity:1;fill-rule:nonzero;stroke:none"
         id="path392" /><path
         d="M 4007.02,636.672 V 10.1094 h 402.17 V 116.602 h -285.13 v 155.757 h 175.98 v 106.469 h -175.98 v 151.36 h 285.13 v 106.484 h -402.17"
         style="fill:#231f20;fill-opacity:1;fill-rule:nonzero;stroke:none"
         id="path394" /><path
         d="M 4853.53,636.672 V 230.988 L 4601.86,636.672 H 4488.32 V 10.1094 h 117.06 V 417.551 L 4857.93,10.1094 h 112.64 V 636.672 h -117.04"
         style="fill:#231f20;fill-opacity:1;fill-rule:nonzero;stroke:none"
         id="path396" /></g></g></svg>
