<svg id="Lager_1" data-name="Lager 1" xmlns="http://www.w3.org/2000/svg" viewBox="0 0 469.63 102.9"><defs><style>.cls-1{fill:#1d1d1b;}</style></defs><path class="cls-1" d="M71.73,44.92h11a4.1,4.1,0,0,1,2.62.82,4.68,4.68,0,0,1,1.5,1.95l22,55.66L141.53,47a3.42,3.42,0,0,1,3-2.06h1.34l-30.39,76H102.7Z" transform="translate(-71.73 -43.72)"/><path class="cls-1" d="M275.76,143.32a7,7,0,0,1-1.68,2.4,4.61,4.61,0,0,1-3.12.9H257.52l16-30.15L242.17,44.92h11.55a4,4,0,0,1,2.7.86,5.45,5.45,0,0,1,1.43,1.91l23.3,55.07L312.38,47a3.3,3.3,0,0,1,3-2.06h1.34Z" transform="translate(-71.73 -43.72)"/><path class="cls-1" d="M433.4,143.32a7.06,7.06,0,0,1-1.69,2.4,4.58,4.58,0,0,1-3.11.9H415.15l16-30.15L399.8,44.92h11.55a4,4,0,0,1,2.7.86,5.45,5.45,0,0,1,1.43,1.91l23.3,55.07L470,47a3.32,3.32,0,0,1,3-2.06h1.33Z" transform="translate(-71.73 -43.72)"/><path class="cls-1" d="M370.38,56.06A32.55,32.55,0,0,0,359,53.69a19.79,19.79,0,0,0-6.08.87,14.42,14.42,0,0,0-4.61,2.36,10.43,10.43,0,0,0-2.93,3.49,9.4,9.4,0,0,0-1,4.31A7.15,7.15,0,0,0,346,69.59,14.6,14.6,0,0,0,350.5,73a38.45,38.45,0,0,0,6.3,2.51c2.35.73,4.76,1.5,7.24,2.33s4.88,1.73,7.24,2.73a26.26,26.26,0,0,1,6.3,3.75A17.32,17.32,0,0,1,382,89.81a16.89,16.89,0,0,1,1.69,7.83,24.88,24.88,0,0,1-1.88,9.72,21.18,21.18,0,0,1-5.55,7.72,26.68,26.68,0,0,1-9,5.14,37,37,0,0,1-12.3,1.87,38.47,38.47,0,0,1-14.4-2.58,36.59,36.59,0,0,1-11-6.64l3.15-5.1a4.49,4.49,0,0,1,1.43-1.5,4,4,0,0,1,2.17-.53,5.63,5.63,0,0,1,2.85,1.05c6.45,4,9.84,5.37,16.43,5.37,11.9,0,15.52-6.9,15.52-12.19a7.92,7.92,0,0,0-1.69-5.21,14.18,14.18,0,0,0-4.46-3.53,37,37,0,0,0-6.34-2.55c-2.37-.72-4.8-1.49-7.27-2.29s-4.9-1.71-7.28-2.73a25.61,25.61,0,0,1-6.33-3.87,17.61,17.61,0,0,1-4.47-5.73,18.65,18.65,0,0,1-1.68-8.29,20.18,20.18,0,0,1,1.8-8.36,20.41,20.41,0,0,1,5.25-7,25.75,25.75,0,0,1,8.47-4.84,34,34,0,0,1,11.48-1.8,34.79,34.79,0,0,1,19.89,5.75l-2.52,4.8C374.58,57,372.1,56.66,370.38,56.06Z" transform="translate(-71.73 -43.72)"/><path class="cls-1" d="M528,56.06a32.5,32.5,0,0,0-11.4-2.37,19.79,19.79,0,0,0-6.08.87,14.52,14.52,0,0,0-4.61,2.36A10.39,10.39,0,0,0,503,60.41a9.28,9.28,0,0,0-1,4.31,7.2,7.2,0,0,0,1.69,4.87A14.72,14.72,0,0,0,508.13,73a38.45,38.45,0,0,0,6.3,2.51c2.35.73,4.77,1.5,7.24,2.33s4.89,1.73,7.24,2.73a26.26,26.26,0,0,1,6.3,3.75,17.05,17.05,0,0,1,4.46,5.52,16.76,16.76,0,0,1,1.69,7.83,24.88,24.88,0,0,1-1.88,9.72,21.18,21.18,0,0,1-5.55,7.72,26.68,26.68,0,0,1-9,5.14,37,37,0,0,1-12.3,1.87,38.47,38.47,0,0,1-14.4-2.58,36.59,36.59,0,0,1-11-6.64l3.15-5.1a4.59,4.59,0,0,1,1.43-1.5,4,4,0,0,1,2.17-.53,5.63,5.63,0,0,1,2.85,1.05c6.46,4,9.84,5.37,16.43,5.37,11.9,0,15.52-6.9,15.52-12.19a8,8,0,0,0-1.68-5.21,14.34,14.34,0,0,0-4.47-3.53,37.24,37.24,0,0,0-6.33-2.55c-2.38-.72-4.8-1.49-7.28-2.29s-4.9-1.71-7.27-2.73a25.67,25.67,0,0,1-6.34-3.87A17.45,17.45,0,0,1,491,74.06a18.51,18.51,0,0,1-1.69-8.29,20.18,20.18,0,0,1,1.8-8.36,20.41,20.41,0,0,1,5.25-7,25.75,25.75,0,0,1,8.47-4.84,34,34,0,0,1,11.48-1.8,34.76,34.76,0,0,1,19.89,5.75l-2.52,4.8C532.21,57,529.73,56.66,528,56.06Z" transform="translate(-71.73 -43.72)"/><path class="cls-1" d="M194.23,43.79a39.12,39.12,0,1,0,39.11,39.12A39.11,39.11,0,0,0,194.23,43.79Zm0,66.5a27.38,27.38,0,1,1,27.38-27.38A27.38,27.38,0,0,1,194.23,110.29Z" transform="translate(-71.73 -43.72)"/></svg>