<svg width="394" height="60" viewBox="0 0 394 60" fill="none" xmlns="http://www.w3.org/2000/svg">
<g clip-path="url(#clip0_639_2)">
<path fill-rule="evenodd" clip-rule="evenodd" d="M41.8999 0.3L0.79994 28.4C-5.99623e-05 29 -0.20006 30.1 0.29994 30.9C0.39994 31.1 0.59994 31.2 0.79994 31.4L41.8999 59.5C42.6999 60.1 43.8999 59.9 44.3999 59C44.5999 58.7 44.6999 58.3 44.6999 58V51C44.6999 50.4 44.3999 49.8 43.8999 49.5L17.4999 31.4C16.6999 30.8 16.4999 29.7 16.9999 28.9C17.0999 28.7 17.2999 28.6 17.4999 28.4L43.9999 10.3C44.4999 10 44.7999 9.4 44.7999 8.8V1.8C44.7999 0.8 43.9999 0 42.9999 0C42.4999 0 42.1999 0.1 41.8999 0.3Z" fill="black"/>
<path fill-rule="evenodd" clip-rule="evenodd" d="M50.8996 49.5C50.3996 49.8 50.0996 50.4 50.0996 51V57.9C50.0996 58.9 50.8996 59.7 51.8996 59.7C52.2996 59.7 52.6996 59.6 52.9996 59.4L63.0996 52.5L61.0996 42.5L50.8996 49.5ZM94.0996 28.4L52.9996 0.299999C52.1996 -0.300001 50.9996 -0.100001 50.4996 0.799999C50.2996 1.1 50.1996 1.5 50.1996 1.8V8.7C50.1996 9.3 50.4996 9.9 50.9996 10.2L77.3996 28.3C78.1996 28.9 78.3996 30 77.8996 30.8C77.7996 31 77.5996 31.1 77.3996 31.3L73.0996 34.2L81.6996 39.7L93.9996 31.3C94.7996 30.7 94.9996 29.6 94.4996 28.8C94.3996 28.7 94.1996 28.5 94.0996 28.4Z" fill="black"/>
<path fill-rule="evenodd" clip-rule="evenodd" d="M63.9004 33.7L67.2004 49.7999L70.9004 43.9L77.8004 42.5L63.9004 33.7Z" fill="black"/>
<path d="M117.9 20.7001H122.4C122.8 20.7001 123.2 20.8001 123.6 21.1001C123.9 21.3001 124.1 21.6001 124.2 21.9001L130.4 42.9001C130.6 43.7001 130.7 44.4001 130.9 45.1001C131.1 45.8001 131.2 46.5001 131.3 47.3001C131.5 46.6001 131.7 45.8001 131.9 45.1001C132.1 44.4001 132.3 43.6001 132.6 42.9001L139.5 21.8001C139.6 21.5001 139.8 21.2001 140.1 20.9001C140.4 20.7001 140.7 20.6001 141.1 20.6001H143.6C144.3 20.6001 145 21.0001 145.2 21.7001L151.9 42.8001C152.1 43.6001 152.4 44.3001 152.5 45.0001C152.7 45.7001 152.9 46.5001 153 47.2001C153.1 46.5001 153.3 45.8001 153.4 45.0001C153.5 44.2001 153.8 43.5001 153.9 42.8001L160.3 21.8001C160.4 21.5001 160.6 21.2001 160.9 20.9001C161.2 20.7001 161.6 20.5001 162 20.6001H166.3L155.8 53.2001H151.3C150.7 53.2001 150.4 52.8001 150.2 52.1001L143 30.0001C142.8 29.5001 142.7 29.0001 142.6 28.5001C142.5 28.0001 142.4 27.5001 142.3 27.0001C142.2 27.5001 142.1 28.0001 142 28.5001C141.9 29.0001 141.7 29.5001 141.6 30.0001L134.3 52.0001C134.2 52.6001 133.6 53.1001 133 53.1001H128.7L117.9 20.7001Z" fill="black"/>
<path d="M184.3 20.2C186.1 20.2 188 20.5 189.7 21.2C191.3 21.8 192.8 22.7 194 24C195.2 25.3 196.2 26.9 196.8 28.6C197.5 30.6 197.8 32.6999 197.8 34.7999C197.9 35.3999 197.8 35.9999 197.5 36.5999C197.2 36.8999 196.8 37.0999 196.4 37.0999H174.7C174.7 38.8999 175 40.7 175.5 42.5C175.9 43.9 176.7 45.1999 177.6 46.2999C178.5 47.2999 179.6 48.0999 180.8 48.5999C182.1 49.0999 183.5 49.4 185 49.4C186.3 49.4 187.5 49.3 188.7 48.9C189.6 48.6 190.5 48.2999 191.4 47.7999C192 47.4999 192.7 47.1 193.3 46.7C193.7 46.4 194.1 46.2 194.6 46.2C195 46.2 195.4 46.4 195.7 46.7L197.3 48.7999C196.6 49.6999 195.7 50.4999 194.8 51.0999C193.8 51.6999 192.7 52.3 191.6 52.7C190.5 53.1 189.3 53.3999 188.1 53.5999C186.9 53.7999 185.7 53.9 184.5 53.9C182.4 53.9 180.3 53.4999 178.3 52.7999C176.4 52.0999 174.8 50.9 173.4 49.5C172 47.9 170.9 46.1 170.2 44C169.4 41.6 169 39.1 169 36.5C169 34.3 169.3 32.2 170 30.1C170.6 28.2 171.7 26.5 173 25C174.3 23.5 176 22.4 177.8 21.6C179.9 20.6 182.1 20.2 184.3 20.2ZM184.4 24.4C182 24.3 179.6 25.0999 177.9 26.7999C176.2 28.5999 175.1 31 174.9 33.4H192.6C192.6 32.2 192.4 30.8999 192.1 29.7999C191.8 28.7999 191.2 27.8 190.5 27C189.8 26.2 188.9 25.6 187.9 25.1C186.8 24.7 185.6 24.4 184.4 24.4Z" fill="black"/>
<path d="M211 6V33.8H212.5C212.9 33.8 213.2 33.8 213.6 33.6C214 33.4 214.3 33.2 214.5 32.9L224.8 21.9C225.1 21.6 225.4 21.3 225.8 21.1C226.2 20.9 226.6 20.8 227.1 20.8H232.3L220.3 33.6C220 34 219.7 34.3 219.4 34.6C219.1 34.9 218.8 35.1 218.4 35.3C218.8 35.6 219.1 35.9 219.4 36.2C219.7 36.6 220 36.9 220.3 37.3L233 53.3H227.9C227.5 53.3 227.1 53.2 226.8 53C226.4 52.8 226.1 52.5 225.9 52.2L215.2 38.9C215 38.5 214.6 38.2 214.2 38C213.7 37.8 213.2 37.8 212.8 37.8H211V53.4H205.2V6H211Z" fill="black"/>
<path d="M238.801 53.3001V20.7001H242.201C242.901 20.6001 243.601 21.2001 243.801 21.9001L244.201 25.4001C245.601 23.9001 247.201 22.6001 248.901 21.6001C250.801 20.6001 252.901 20.1001 255.001 20.2001C256.601 20.2001 258.201 20.5001 259.701 21.1001C261.001 21.7001 262.201 22.5001 263.101 23.6001C264.001 24.7001 264.801 26.1001 265.201 27.5001C265.701 29.1001 265.901 30.8001 265.901 32.6001V53.3001H260.201V32.6001C260.301 30.5001 259.701 28.5001 258.501 26.9001C257.201 25.5001 255.301 24.7001 253.301 24.9001C251.601 24.9001 250.001 25.3001 248.501 26.1001C247.001 27.0001 245.601 28.1001 244.401 29.4001V53.4001L238.801 53.3001Z" fill="black"/>
<path d="M287.701 20.2C289.901 20.2 292.101 20.6 294.101 21.4C296.001 22.1 297.601 23.2999 299.001 24.7999C300.401 26.2999 301.401 28.1 302.101 30.1C302.901 32.3 303.201 34.7 303.201 37C303.201 39.4 302.901 41.7 302.101 43.9C301.401 45.9 300.401 47.6 299.001 49.2C297.601 50.7 296.001 51.7999 294.101 52.5999C289.901 54.1999 285.401 54.1999 281.201 52.5999C279.301 51.8999 277.701 50.7 276.301 49.2C274.901 47.7 273.801 45.9 273.201 43.9C272.401 41.7 272.101 39.3 272.101 37C272.101 34.6 272.401 32.3 273.201 30.1C273.901 28.1 274.901 26.2999 276.301 24.7999C277.701 23.2999 279.301 22.2 281.201 21.4C283.301 20.6 285.501 20.2 287.701 20.2ZM287.701 49.2999C290.901 49.2999 293.301 48.1999 294.901 46.0999C296.501 43.8999 297.301 40.8999 297.301 37.0999C297.301 33.2999 296.501 30.2 294.901 28C293.301 25.8 290.901 24.7999 287.701 24.7999C286.201 24.7999 284.801 25 283.501 25.6C282.301 26.1 281.301 27 280.501 28C279.601 29.2 279.001 30.5 278.701 31.9C278.301 33.6 278.101 35.3 278.101 37C278.101 38.7 278.301 40.5 278.701 42.2C279.001 43.6 279.601 44.9 280.501 46C281.301 47 282.301 47.8 283.501 48.4C284.701 49 286.201 49.2999 287.701 49.2999Z" fill="black"/>
<path d="M306 20.7H310.5C310.9 20.7 311.3 20.8 311.6 21.1C311.9 21.3 312.1 21.6 312.2 21.9L318.4 42.9C318.6 43.7 318.7 44.3999 318.9 45.0999C319.1 45.7999 319.2 46.4999 319.3 47.2999C319.5 46.5999 319.7 45.7999 319.9 45.0999C320.1 44.3999 320.3 43.6 320.6 42.9L327.5 21.7999C327.6 21.4999 327.8 21.2 328.1 21C328.4 20.8 328.7 20.7 329.1 20.7H331.6C332 20.7 332.4 20.8 332.7 21C333 21.2 333.2 21.4999 333.3 21.7999L340 42.9C340.2 43.7 340.4 44.3999 340.6 45.0999C340.8 45.7999 341 46.5999 341.1 47.2999C341.2 46.5999 341.3 45.8999 341.5 45.0999C341.7 44.2999 341.9 43.6 342 42.9L348.4 21.9C348.5 21.6 348.7 21.3 349 21C349.3 20.8 349.7 20.7 350.1 20.7H354.4L343.9 53.2999H339.4C338.8 53.2999 338.5 52.9 338.2 52.2L331 30.1C330.8 29.6 330.7 29.1 330.6 28.6L330.3 27.1C330.2 27.6 330.1 28.1 330 28.6C329.9 29.1 329.8 29.6 329.6 30.1L322.3 52.0999C322.2 52.6999 321.6 53.2 321 53.2H316.7L306 20.7Z" fill="black"/>
<path d="M367.1 10.4999C367.1 10.9999 367 11.5999 366.8 12.0999C366.6 12.5999 366.3 12.9999 365.9 13.3999C365.5 13.7999 365.1 14.0999 364.6 14.2999C364.1 14.4999 363.6 14.5999 363 14.5999C362.5 14.5999 361.9 14.4999 361.5 14.2999C361 14.0999 360.6 13.7999 360.2 13.3999C359.8 12.9999 359.5 12.5999 359.3 12.0999C359.1 11.5999 359 11.0999 359 10.4999C359 9.9999 359.1 9.3999 359.3 8.8999C359.7 7.8999 360.5 7.0999 361.5 6.6999C362 6.4999 362.5 6.3999 363 6.3999C363.5 6.3999 364.1 6.4999 364.6 6.6999C365.1 6.8999 365.5 7.1999 365.9 7.5999C366.3 7.9999 366.6 8.3999 366.8 8.8999C367 9.3999 367.1 9.9999 367.1 10.4999ZM365.8 20.6999V53.1999H360.1V20.6999H365.8Z" fill="black"/>
<path d="M385.801 53.8001C383.601 53.9001 381.501 53.2001 379.901 51.6001C378.401 49.9001 377.701 47.7001 377.801 45.4001V25.5001H373.901C373.601 25.5001 373.301 25.4001 373.001 25.2001C372.701 25.0001 372.601 24.6001 372.601 24.3001V22.0001L377.901 21.3001L379.201 11.2001C379.201 10.9001 379.401 10.6001 379.601 10.4001C379.901 10.2001 380.201 10.1001 380.501 10.1001H383.401V21.3001H392.701V25.4001H383.401V44.9001C383.301 46.0001 383.701 47.1001 384.401 47.9001C385.101 48.6001 386.001 48.9001 387.001 48.9001C387.501 48.9001 388.101 48.8001 388.601 48.7001C389.001 48.6001 389.401 48.4001 389.701 48.2001C390.001 48.0001 390.301 47.8001 390.501 47.7001C390.701 47.6001 390.901 47.5001 391.101 47.4001C391.401 47.4001 391.701 47.6001 391.901 47.9001L393.601 50.6001C392.601 51.6001 391.301 52.3001 390.001 52.8001C388.701 53.5001 387.301 53.8001 385.801 53.8001Z" fill="black"/>
</g>
<defs>
<clipPath id="clip0_639_2">
<rect width="393.7" height="59.8" fill="white"/>
</clipPath>
</defs>
</svg>
