<svg width="494" height="122" viewBox="0 0 494 122" fill="none" xmlns="http://www.w3.org/2000/svg">
<path d="M159.1 28.5L164.9 41.8C166.4 45.4 167.6 49 169 52.7H169.3C170.7 48.7 172.1 45.1 173.4 41.8L179 28.5H189L174.3 59.1L188.9 90.5H178.1L172.2 76.5C170.8 73.2 169.6 70 168.1 65.9H167.8C166.5 69.6 165.1 72.9 163.7 76.5L157.9 90.5H147.9L162.6 59.4L148.3 28.5C148.3 28.5 159.1 28.5 159.1 28.5Z" fill="black"/>
<path d="M194.2 44.5C194.2 37.2 193.8 33.5 193.7 28.5H202.3L202.8 36.2H203.1C205.8 31.2 210.5 27.5 217.1 27.5C222.9 27.5 227.7 30.3 230 37H230.3C232 33.9 234.1 31.5 236.4 30C238.8 28.3 241.8 27.6 245 27.6C253.3 27.6 259.9 33.7 259.9 49.5V90.6H250V51.7C250 43.6 248.8 35.8 241.3 35.8C237.2 35.8 233.6 39.3 232.2 45C231.9 46.7 231.8 48.6 231.8 50.6V90.4H222.1V49.9C222.1 43 220.8 35.8 213.5 35.8C209.5 35.8 205.4 39.3 204.3 45.8C204 47.5 203.9 49.3 203.9 51.2V90.5H194.2V44.5Z" fill="black"/>
<path d="M270.5 44.5004C270.5 39.2004 270.1 33.1004 270 28.5004H278.8L279.3 38.2004H279.6C281.6 32.3004 286.9 27.4004 292.7 27.4004C293.5 27.4004 294.1 27.5004 294.7 27.5004V37.6004C294.1 37.5004 293.4 37.5004 292.7 37.5004C286.4 37.5004 281.8 43.3004 280.8 50.4004C280.5 52.1004 280.4 54.0004 280.4 56.0004V90.3004H270.5V44.5004Z" fill="black"/>
<path d="M304.6 60.4C304.7 79.4 312.2 83.5 319.3 83.5C323.5 83.5 327.1 82.5 329.5 81.1L331 88.4C327.5 90.3 322.3 91.3 317.4 91.3C302.5 91.3 294.9 79.1 294.9 60.2C294.9 40.1 303.4 27.5 315.8 27.5C328.5 27.5 333.5 40.8 333.5 54.9C333.5 57.2 333.5 58.9 333.4 60.4H304.6ZM324.1 53.1C324.4 40.7 319.6 35.2 314.9 35.2C308.5 35.2 305.2 44.7 304.8 53.1H324.1Z" fill="black"/>
<path d="M374 76.4001C374 81.1001 374 86.5001 374.6 90.5001H365.6L365 84.0001H364.6C361.9 88.7001 357.6 91.6001 352.3 91.6001C344 91.6001 337.6 84.6001 337.6 73.9001C337.6 58.4001 350 51.5001 364 51.4001V49.5001C364 41.2001 361.9 35.4001 354.1 35.4001C350.3 35.4001 346.8 36.7001 343.9 38.6001L341.7 31.7001C344.3 29.8001 350 27.6001 356.2 27.6001C368.6 27.6001 374 35.8001 374 49.8001V76.4001ZM364.3 58.5001C359.2 58.5001 347.3 59.4001 347.3 72.8001C347.3 80.9001 351.4 83.8001 354.9 83.8001C359.3 83.8001 363 80.6001 364.1 74.4001C364.4 73.2001 364.4 72.0001 364.4 70.9001L364.3 58.5001Z" fill="black"/>
<path d="M394.8 1.90039H384.9V90.5004H394.8V1.90039Z" fill="black"/>
<path d="M417 12.5001C417.1 16.3001 414.7 18.9001 411 18.9001C407.8 18.9001 405.4 16.3001 405.4 12.5001C405.4 8.7001 408 6.1001 411.2 6.1001C414.7 6.1001 417 8.7001 417 12.5001ZM406.4 28.5001H416.3V90.5001H406.4V28.5001Z" fill="black"/>
<path d="M439.1 14V28.5H451V36.1H439.1V72.9C439.1 81 442 83.1 445.6 83.1C447.1 83.1 448.4 83 449.6 82.7L450 90.3C448.2 90.9 445.9 91.3 442.7 91.3C438.9 91.3 435.4 90.3 433 87.6C430.6 84.8 429.3 80.6 429.3 72V36.1H421.7V28.5H429.3V18L439.1 14Z" fill="black"/>
<path d="M463.2 28.5004L471.4 64.1004C472.6 69.0004 473.2 73.1004 474 76.9004H474.3C474.9 73.4004 476 68.7004 477 64.2004L484.3 28.5004H494L483.9 68.3004C480.1 83.9004 475.8 98.9004 468.5 108.3C464.1 113.8 459.5 116.8 457.4 117.8L453.8 109.3C456.6 107.8 459.7 105.1 462.5 101.5C465.1 98.3004 467.1 94.1004 468.1 91.1004C468.6 89.6004 468.7 88.9004 468.7 88.0004C468.7 87.2004 468.7 86.5004 468.4 85.7004L452.8 28.4004H463.2V28.5004Z" fill="black"/>
<path d="M60.6998 35.4L73.5998 12.9L60.6998 0L47.7998 12.9L60.6998 35.4Z" fill="#8BA8D3"/>
<path d="M92.0002 31.3003L75.2002 60.7003L92.0002 90.2003L121.4 60.7003L92.0002 31.3003Z" fill="#1C5BA3"/>
<path d="M60.6998 86L47.7998 108.6L60.6998 121.4L73.5998 108.6L60.6998 86Z" fill="#8BA8D3"/>
<path d="M46.3 60.7003L29.5 31.3003L0 60.7003L29.5 90.2003L46.3 60.7003Z" fill="#0C69B0"/>
</svg>
