<svg width="660" height="125" viewBox="0 0 660 125" fill="none" xmlns="http://www.w3.org/2000/svg">
<path d="M342 124.9H361.1V17.1001H342V124.9Z" fill="#C9362B"/>
<path d="M497.67 124.77H559.98L578.06 102.17V85.4101H559.72V95.51L550.56 107.99H507.33L498.33 95.2701V76.5301H578.33V46.4401L560.03 17.0601H497.93L479.71 46.4401V99.8301L497.71 124.77H497.67ZM498.28 60.1901V50.1901L507.36 33.8901H550.36L559.76 50.1601V60.1601L498.28 60.1901Z" fill="#C9362B"/>
<path d="M259.43 124.91H278.53V61.8501L303.03 34.0801H325.14V17.8401H298.04L277.58 40.0501V17.0801H259.43V124.91Z" fill="#C9362B"/>
<path d="M593.74 124.86H612.84V61.8003L637.34 34.0403H659.44V17.7903H632.34L611.89 40.0003V17.0303H593.74V124.86Z" fill="#C9362B"/>
<path d="M178.04 124.91H197.13V61.8501L221.63 34.0801H243.74V17.8401H216.64L196.18 40.0501V17.0801H178.04V124.91Z" fill="#C9362B"/>
<path d="M379.27 17.1001V124.91H418.67L482.85 17.1001H462.37L399.24 123.09H398.15V17.1001H379.27Z" fill="#C9362B"/>
<path d="M5.76 60.1899L0 76.5699H57.28L62.88 60.1899H5.76Z" fill="#C9362B"/>
<path d="M77.57 76.5703L60.83 124.91H40.53L57.27 76.5703H77.57Z" fill="#C9362B"/>
<path d="M167.24 124.91L124.43 0H83.54L62.87 60.19H83.17L103.36 1.67H104.69L146.92 124.91H167.24Z" fill="#C9362B"/>
</svg>
