<svg id="Layer_1" data-name="Layer 1" xmlns="http://www.w3.org/2000/svg" xmlns:xlink="http://www.w3.org/1999/xlink" viewBox="0 0 615.38 105"><defs><style>.cls-1{fill:#000b39;}.cls-2{fill:#1e4382;}.cls-3{fill:url(#linear-gradient);}.cls-4{fill:url(#linear-gradient-2);}</style><linearGradient id="linear-gradient" x1="57.48" y1="47.37" x2="122.48" y2="47.37" gradientUnits="userSpaceOnUse"><stop offset="0" stop-color="#ee3129"/><stop offset="1" stop-color="#f15a29"/></linearGradient><linearGradient id="linear-gradient-2" x1="97.48" y1="127.37" x2="162.48" y2="127.37" xlink:href="#linear-gradient"/></defs><path class="cls-1" d="M232.78,87.12q10.2,4.8,10.2,16.5,0,9.5-6.35,14.45t-16.55,5h-25.2a1.2,1.2,0,0,1-1.2-1.2V54.22a1.2,1.2,0,0,1,1.2-1.2h24.4q10.91,0,16.8,4.7t5.9,14.2q0,10.5-9.2,14.6Q232.18,86.82,232.78,87.12Zm-27.5-23.6V82a.44.44,0,0,0,.5.5h13.5q5.31,0,8.35-2.55a8.67,8.67,0,0,0,3.05-7,9.07,9.07,0,0,0-3.05-7.25q-3-2.66-8.35-2.65h-13.5A.44.44,0,0,0,205.28,63.52Zm23.05,46.6a9.79,9.79,0,0,0,3-7.6,9.67,9.67,0,0,0-3.1-7.65c-2.06-1.84-4.86-2.75-8.4-2.75h-14.1a.44.44,0,0,0-.5.5v19.8a.44.44,0,0,0,.5.5h14.3A11.75,11.75,0,0,0,228.33,110.12Z" transform="translate(-57.48 -34.87)"/><path class="cls-1" d="M253.78,62.92a7.1,7.1,0,0,1,5.1-12.2,7.1,7.1,0,1,1,0,14.2A6.94,6.94,0,0,1,253.78,62.92Zm-.55,59.75a1.19,1.19,0,0,1-.35-.85V73a1.2,1.2,0,0,1,1.2-1.2h9.2a1.2,1.2,0,0,1,1.2,1.2v48.8a1.2,1.2,0,0,1-1.2,1.2h-9.2A1.19,1.19,0,0,1,253.23,122.67Z" transform="translate(-57.48 -34.87)"/><path class="cls-1" d="M302,81a1.17,1.17,0,0,1-.85.35H291a.44.44,0,0,0-.5.5v24.1q0,3.8,1.65,5.5t5.25,1.7h3a1.13,1.13,0,0,1,.85.35,1.15,1.15,0,0,1,.35.85v7.5a1.24,1.24,0,0,1-1.2,1.3l-5.2.1q-7.9,0-11.8-2.7t-4-10.2V81.82a.44.44,0,0,0-.5-.5h-5.7a1.2,1.2,0,0,1-1.2-1.2v-7a1.2,1.2,0,0,1,1.2-1.2h5.7a.44.44,0,0,0,.5-.5V59.72a1.15,1.15,0,0,1,.35-.85,1.13,1.13,0,0,1,.85-.35h8.7a1.2,1.2,0,0,1,1.2,1.2v11.7a.44.44,0,0,0,.5.5h10.2a1.13,1.13,0,0,1,.85.35,1.15,1.15,0,0,1,.35.85v7A1.19,1.19,0,0,1,302,81Z" transform="translate(-57.48 -34.87)"/><path class="cls-1" d="M320.28,121.32a20.5,20.5,0,0,1-8.95-7,18,18,0,0,1-3.15-10.6v-2.5a1.15,1.15,0,0,1,.35-.85,1.13,1.13,0,0,1,.85-.35h8.9a1.13,1.13,0,0,1,.85.35,1.15,1.15,0,0,1,.35.85v1.9a9.23,9.23,0,0,0,4.1,7.65q4.1,3,11.2,3c4.07,0,7.13-.87,9.2-2.6a8.35,8.35,0,0,0,3.1-6.7,7,7,0,0,0-1.7-4.75,15.75,15.75,0,0,0-4.85-3.55q-3.15-1.6-9.45-4a100.65,100.65,0,0,1-11.5-4.9,21.64,21.64,0,0,1-7.35-6.25,16,16,0,0,1-3-9.85q0-8.81,6.4-13.9t17.1-5.1A31.74,31.74,0,0,1,346,54.82a21.1,21.1,0,0,1,9,7.25,18.52,18.52,0,0,1,3.2,10.75v1.7a1.19,1.19,0,0,1-.35.85,1.17,1.17,0,0,1-.85.35h-9a1.17,1.17,0,0,1-.85-.35,1.19,1.19,0,0,1-.35-.85v-1.1a10,10,0,0,0-3.85-8q-3.85-3.26-10.65-3.25c-3.67,0-6.52.76-8.55,2.3a7.67,7.67,0,0,0-3.05,6.5,7.34,7.34,0,0,0,1.6,4.9,14.63,14.63,0,0,0,4.8,3.45q3.19,1.55,9.9,3.95a111.8,111.8,0,0,1,11.35,4.9,21.68,21.68,0,0,1,7.3,6.15,15.64,15.64,0,0,1,3.05,9.85,17.35,17.35,0,0,1-6.65,14.3q-6.64,5.3-18.15,5.3A34.28,34.28,0,0,1,320.28,121.32Z" transform="translate(-57.48 -34.87)"/><path class="cls-1" d="M368.28,62.92a7.5,7.5,0,0,1,0-10.2,7.1,7.1,0,0,1,12.2,5.1,7.21,7.21,0,0,1-12.2,5.1Zm-.55,59.75a1.19,1.19,0,0,1-.35-.85V73a1.15,1.15,0,0,1,.35-.85,1.13,1.13,0,0,1,.85-.35h9.2a1.13,1.13,0,0,1,.85.35A1.15,1.15,0,0,1,379,73v48.8a1.19,1.19,0,0,1-.35.85,1.17,1.17,0,0,1-.85.35h-9.2A1.17,1.17,0,0,1,367.73,122.67Z" transform="translate(-57.48 -34.87)"/><path class="cls-1" d="M456.53,75.77q4.35,4.65,4.35,13v33.1a1.2,1.2,0,0,1-1.2,1.2h-9.1a1.2,1.2,0,0,1-1.2-1.2V91.12a10.46,10.46,0,0,0-2.45-7.3,8.43,8.43,0,0,0-6.55-2.7,8.87,8.87,0,0,0-6.7,2.7,10,10,0,0,0-2.6,7.2v30.8a1.2,1.2,0,0,1-1.2,1.2h-9.1a1.17,1.17,0,0,1-.85-.35,1.19,1.19,0,0,1-.35-.85V91.12a10.35,10.35,0,0,0-2.5-7.3,8.58,8.58,0,0,0-6.6-2.7,8.63,8.63,0,0,0-9.1,8.2v32.5a1.2,1.2,0,0,1-1.2,1.2H391a1.2,1.2,0,0,1-1.2-1.2V73.12a1.2,1.2,0,0,1,1.2-1.2h9.2a1.2,1.2,0,0,1,1.2,1.2v3.3a.41.41,0,0,0,.2.4c.13.06.26,0,.4-.2a13.3,13.3,0,0,1,5.45-4.15,18.7,18.7,0,0,1,7.25-1.35,17.73,17.73,0,0,1,8.6,2,13.69,13.69,0,0,1,5.7,5.8c.2.26.43.26.7,0a13.63,13.63,0,0,1,6.1-5.9,19.56,19.56,0,0,1,8.7-1.9Q452.18,71.12,456.53,75.77Z" transform="translate(-57.48 -34.87)"/><path class="cls-1" d="M513.16,53.37A1.13,1.13,0,0,1,514,53h9.2a1.13,1.13,0,0,1,.85.35,1.15,1.15,0,0,1,.35.85v67.6a1.19,1.19,0,0,1-.35.85,1.17,1.17,0,0,1-.85.35h-8.9a1.44,1.44,0,0,1-1.4-.8L484.11,75c-.13-.2-.27-.29-.4-.25s-.2.18-.2.45l.2,46.6a1.19,1.19,0,0,1-.35.85,1.17,1.17,0,0,1-.85.35h-9.2a1.17,1.17,0,0,1-.85-.35,1.19,1.19,0,0,1-.35-.85V54.22a1.15,1.15,0,0,1,.35-.85,1.13,1.13,0,0,1,.85-.35h8.9a1.42,1.42,0,0,1,1.4.8l28.7,47.2c.13.2.27.28.4.25s.2-.19.2-.45l-.1-46.6A1.15,1.15,0,0,1,513.16,53.37Z" transform="translate(-57.48 -34.87)"/><path class="cls-1" d="M546.91,121a21.58,21.58,0,0,1-8.95-8.65,25.9,25.9,0,0,1-3.15-12.9V76.62A25.1,25.1,0,0,1,538,63.87a22,22,0,0,1,9-8.6,30.52,30.52,0,0,1,26.6,0,22,22,0,0,1,9,8.6,25.1,25.1,0,0,1,3.2,12.75v22.8a25.61,25.61,0,0,1-3.2,12.9,22,22,0,0,1-9,8.65,30.63,30.63,0,0,1-26.65,0Zm23.4-10.85a14.15,14.15,0,0,0,3.8-10.3V76.52q0-6.51-3.8-10.4a14.9,14.9,0,0,0-20.1,0q-3.8,3.9-3.8,10.4v23.3a14.15,14.15,0,0,0,3.8,10.3,14.9,14.9,0,0,0,20.1,0Z" transform="translate(-57.48 -34.87)"/><path class="cls-1" d="M608.41,122l-18.2-67.7-.1-.4c0-.6.36-.9,1.1-.9H601a1.32,1.32,0,0,1,1.4,1l11.4,45.6c.07.2.16.3.3.3s.23-.1.3-.3L625.31,54a1.25,1.25,0,0,1,1.3-1h9.6a1.32,1.32,0,0,1,1.4,1l11.6,45.7q.1.3.3.3t.3-.3L661,54a1.31,1.31,0,0,1,1.4-1h9.3c.93,0,1.3.43,1.1,1.3L655.51,122a1.33,1.33,0,0,1-1.4,1h-9.3a1.33,1.33,0,0,1-1.4-1l-11.7-47.7c-.07-.2-.17-.32-.3-.35s-.24.08-.3.35L619.91,122a1.26,1.26,0,0,1-1.3,1h-8.8A1.33,1.33,0,0,1,608.41,122Z" transform="translate(-57.48 -34.87)"/><circle class="cls-2" cx="92.5" cy="12.5" r="12.5"/><circle class="cls-2" cx="12.5" cy="92.5" r="12.5"/><circle class="cls-2" cx="12.5" cy="52.5" r="12.5"/><circle class="cls-2" cx="52.5" cy="52.5" r="12.5"/><circle class="cls-2" cx="92.5" cy="52.5" r="12.5"/><path class="cls-3" d="M110,59.87a12.5,12.5,0,1,0-8-22.14,19.87,19.87,0,0,1-24.07,0,12.51,12.51,0,1,0,0,19.27A19.88,19.88,0,0,1,102,57,12.43,12.43,0,0,0,110,59.87Z" transform="translate(-57.48 -34.87)"/><path class="cls-4" d="M150,114.87a12.44,12.44,0,0,0-8,2.86,19.87,19.87,0,0,1-24.07,0,12.51,12.51,0,1,0,0,19.27A19.88,19.88,0,0,1,142,137a12.5,12.5,0,1,0,8-22.13Z" transform="translate(-57.48 -34.87)"/></svg>