<svg id="Layer_1" data-name="Layer 1" xmlns="http://www.w3.org/2000/svg" viewBox="0 0 752.14 82.6"><defs><style>.cls-1{fill:#004182;}</style></defs><path class="cls-1" d="M205.75,300c-4,11-15.58,18.69-27.68,18.69-15,0-20.87-7.67-20.92-18.69H132.66c-1.95,22.81,12.15,38.52,41.81,38.52,26.81,0,49.46-15.71,55.77-38.52Z" transform="translate(-45.86 -255.87)"/><path class="cls-1" d="M158.81,291.79c4-8.82,15.25-16.09,27-16.09,14.65,0,20.41,7.27,21.21,16.09h24.63c1.39-21.3-15.35-35.92-42.25-35.92-24,0-48.94,14.62-55.27,35.92Z" transform="translate(-45.86 -255.87)"/><path class="cls-1" d="M324.09,257.16h20l-14,80H307.12l8.75-49.95-29.23,25.09h-3.51l-20.44-25.09-8.75,49.95H231l14-80h20l24.37,29.67Z" transform="translate(-45.86 -255.87)"/><path class="cls-1" d="M448.42,337.13H425.47l14-80h22.94Z" transform="translate(-45.86 -255.87)"/><path class="cls-1" d="M540.06,271.82H516.77l-11.5,65.31h-23l11.49-65.31H468.2l2.58-14.66h71.87Z" transform="translate(-45.86 -255.87)"/><path class="cls-1" d="M604.88,337.13H537l14-80h67.89l-2.57,14.66H571.36l-2.93,16.77h40.72l-2.56,14.66H565.86l-3.36,19.22h45Z" transform="translate(-45.86 -255.87)"/><path class="cls-1" d="M46.37,297.16c-1.72,10.6,1,20.5,7.54,27.88,7.63,8.55,19.85,13.06,35.34,13.06,11.28,0,20-1.83,31.14-6.52l.78-.33,3.88-20.65-2.74,1.15c-10.9,4.54-18.22,7.3-27.95,7.3-8.63,0-15.71-2.61-19.93-7.34-3.42-3.84-4.75-8.82-3.84-14.41,2.1-13,15.19-22,31.84-22,8.56,0,16.72,2.35,25.66,7.41l2,1.13,3.77-20.07-.9-.55c-7.42-4.56-17.57-7-29.36-7C70.37,256.24,49.67,276.83,46.37,297.16Z" transform="translate(-45.86 -255.87)"/><path class="cls-1" d="M615.65,297.16c-1.71,10.6,1,20.5,7.55,27.88,7.62,8.55,19.84,13.06,35.33,13.06,11.28,0,20-1.83,31.15-6.52l.77-.33,3.88-20.65-2.74,1.15c-10.9,4.54-18.21,7.3-28,7.3-8.63,0-15.7-2.61-19.93-7.34-3.42-3.84-4.74-8.82-3.83-14.41,2.09-13,15.18-22,31.83-22,8.57,0,16.72,2.35,25.67,7.41l2,1.13,3.76-20.07-.9-.55c-7.42-4.56-17.57-7-29.36-7C639.66,256.24,619,276.83,615.65,297.16Z" transform="translate(-45.86 -255.87)"/><path class="cls-1" d="M784,337.13l-22.87,0,6-33.92H728.18l-6,33.92h-22.8l14-80h22.8l-5.46,31.39h38.94l5.46-31.39,22.87,0Z" transform="translate(-45.86 -255.87)"/><path class="cls-1" d="M375.1,271.83h12c8.36,0,11,4.34,10.26,8.44S392.49,289,384.12,289h-12Zm-20.38-14.66-14,80h44.81c26.87,0,35-14.31,36.64-23.46,1.64-9.37-3.4-17.58-16-20.51,8.27-3.28,14.18-9.26,15.35-15.95,1.56-8.91-5.27-20.05-27-20.05Zm14.83,46.43h16.06c8.1,0,13.48,3.17,12.46,9-1.21,6.92-6.18,9.85-18.87,9.85h-13Z" transform="translate(-45.86 -255.87)"/></svg>
