<svg id="Lager_1" data-name="Lager 1" xmlns="http://www.w3.org/2000/svg" xmlns:xlink="http://www.w3.org/1999/xlink" viewBox="0 0 1701.52 908.11"><defs><style>.cls-1{fill:none;}.cls-2{clip-path:url(#clip-path);}.cls-3{fill:#fdc500;}.cls-4{fill:#312783;}</style><clipPath id="clip-path" transform="translate(-35.41 -26.92)"><rect class="cls-1" width="1995.05" height="961.95"/></clipPath></defs><g class="cls-2"><path class="cls-3" d="M599.26,26.92c-40.62,0-60.76,30.21-60.76,67.7,0,30.9,8,51,38.54,63.54l25.34,10.41c17.36,7,20.49,11.11,20.49,37.5,0,22.57-1.74,36.8-25.7,36.8-18,0-25-12.5-25-25.34V206.42h-35.4v13.19c0,33.33,26,58.67,60.4,58.67,45.83,0,61.11-30.9,61.11-72.56,0-36.11-5.9-55.9-37.15-67.7l-27.08-10.76c-18.4-7.29-20.14-13.89-20.14-33,0-16.31,4.52-31.94,24-31.94,18,0,25,13.55,25,29.86v8h35.41V82.82C658.28,55.39,634.67,26.92,599.26,26.92Z" transform="translate(-35.41 -26.92)"/><polygon class="cls-3" points="636.73 35.41 677.7 35.41 677.7 249.28 713.11 249.28 713.11 35.41 754.08 35.41 754.08 2.08 636.73 2.08 636.73 35.41"/><path class="cls-3" d="M913.67,26.92c-40.62,0-60.76,30.21-60.76,67.7,0,30.9,8,51,38.54,63.54l25.35,10.41c17.36,7,20.48,11.11,20.48,37.5,0,22.57-1.73,36.8-25.69,36.8-18.06,0-25-12.5-25-25.34V206.42H851.18v13.19c0,33.33,26,58.67,60.41,58.67,45.83,0,61.11-30.9,61.11-72.56,0-36.11-5.91-55.9-37.15-67.7l-27.08-10.76c-18.41-7.29-20.14-13.89-20.14-33,0-16.31,4.51-31.94,23.95-31.94,18.06,0,25,13.55,25,29.86v8H972.7V82.82C972.7,55.39,949.08,26.92,913.67,26.92Z" transform="translate(-35.41 -26.92)"/><path class="cls-3" d="M1393,29h-52.42V276.2h49.3c41.66,0,65.27-21.87,65.27-67.7V92.89C1455.11,53,1432.89,29,1393,29Zm26.73,183c0,21.18-7.63,30.9-27.42,30.9h-16.33V62.33h16.33c20.83,0,27.42,11.11,27.42,30.56Z" transform="translate(-35.41 -26.92)"/><path class="cls-3" d="M317.08,26.92c-28.82,0-62.14,20.14-62.14,60.41V217.87c0,40.27,33.32,60.41,62.14,60.41S382,258.14,382,217.87v-33H346.58v33c0,17-15.27,25-28.11,25s-28.12-8-28.12-25V165.1H382V87.33C382,47.06,345.89,26.92,317.08,26.92Zm29.5,106.93H290.35V87.33c0-17,15.27-25,28.12-25s28.11,8,28.11,25Z" transform="translate(-35.41 -26.92)"/><path class="cls-3" d="M1261.76,26.92c-28.82,0-62.14,20.14-62.14,60.41V217.87c0,40.27,33.32,60.41,62.14,60.41s64.91-20.14,64.91-60.41v-33h-35.41v33c0,17-15.27,25-28.11,25s-28.12-8-28.12-25V165.1h91.64V87.33C1326.67,47.06,1290.58,26.92,1261.76,26.92Zm29.5,106.93H1235V87.33c0-17,15.27-25,28.12-25s28.11,8,28.11,25Z" transform="translate(-35.41 -26.92)"/><path class="cls-3" d="M1531.11,26.92c-28.82,0-62.14,20.14-62.14,60.41V217.87c0,40.27,33.32,60.41,62.14,60.41S1596,258.14,1596,217.87v-33h-35.41v33c0,17-15.27,25-28.12,25s-28.11-8-28.11-25V165.1H1596V87.33C1596,47.06,1559.92,26.92,1531.11,26.92Zm29.5,106.93h-56.23V87.33c0-17,15.27-25,28.11-25s28.12,8,28.12,25Z" transform="translate(-35.41 -26.92)"/><path class="cls-3" d="M1672,26.92c-28.82,0-62.14,20.14-62.14,60.41V276.2h35.41V87.33c0-17,15.27-25,28.12-25s28.11,8,28.11,25V276.2h35.41V87.33C1736.93,47.06,1700.84,26.92,1672,26.92Z" transform="translate(-35.41 -26.92)"/><path class="cls-3" d="M1150.35,217.88c0,17-10.38,25-23.23,25s-23.22-8-23.22-25V29h-35.48V217.88c0,17-10.38,25-23.23,25s-23.22-8-23.22-25V29H986.56V217.88c0,40.27,31.2,60.41,60,60.41,14.79,0,29.45-5.35,40.24-16a62,62,0,0,0,41.69,16c28.82,0,57.25-20.14,57.25-60.41V29h-35.41Z" transform="translate(-35.41 -26.92)"/><path class="cls-3" d="M460.76,26.92c-28.81,0-64.91,20.14-64.91,60.41v33h35.42V87.33c0-17,15.26-25,28.11-25s28.11,8,28.11,25V140.1H461.92a66.08,66.08,0,0,0-66.07,66.07v11.7c0,40.28,36.1,60.41,64.91,60.41s62.14-20.13,62.14-60.41V87.33C522.9,47.06,489.58,26.92,460.76,26.92Zm-1.38,216c-12.85,0-28.11-8-28.11-25v-14a32.52,32.52,0,0,1,32.52-32.52h23.7v46.52C487.49,234.89,472.22,242.87,459.38,242.87Z" transform="translate(-35.41 -26.92)"/><path class="cls-4" d="M1736.93,665.33V480c0-96-86-143.94-154.67-143.94s-148.07,48-148.07,143.94V791.08c0,96,79.39,143.95,148.07,143.95s154.67-48,154.67-143.95V712.56h-84.38v78.52c0,40.54-36.38,59.57-67,59.57s-67-19-67-59.57V665.33ZM1585.56,420.46c30.61,0,67,19,67,59.56V590.88h-134V480C1518.56,439.48,1555,420.46,1585.56,420.46Z" transform="translate(-35.41 -26.92)"/><path class="cls-4" d="M1258.13,336.08c-35.22,0-70.18,12.66-95.9,37.9-27.41-25.24-64.1-37.9-99.32-37.9-68.68,0-136.42,48-136.42,143.94V930.07h84.37V480c0-40.54,24.74-59.56,55.35-59.56s55.33,19,55.33,59.56V930.07h84.55V480c0-40.54,24.74-59.56,55.35-59.56s55.33,19,55.33,59.56V930.07h84.39V480C1401.16,384.06,1326.8,336.08,1258.13,336.08Z" transform="translate(-35.41 -26.92)"/><path class="cls-4" d="M745.39,336.08c-68.66,0-154.68,48-154.68,144v78.52H675.1V480c0-40.54,36.38-59.57,67-59.57s67,19,67,59.57V605.78H748.15A157.43,157.43,0,0,0,590.71,763.21v27.88c0,96,86,143.94,154.68,143.94s148.07-48,148.07-143.94V480C893.46,384.06,814.06,336.08,745.39,336.08Zm-3.31,514.57c-30.6,0-67-19-67-59.56V757.73a77.49,77.49,0,0,1,77.49-77.5h56.49V791.09C809.08,831.63,772.69,850.65,742.08,850.65Z" transform="translate(-35.41 -26.92)"/><path class="cls-4" d="M403,336.08c-68.68,0-148.07,48-148.07,144V614H142.21a15.42,15.42,0,0,1,0-30.84h12a73.68,73.68,0,0,0,0-147.36H35.41V494.1H154.22a15.42,15.42,0,0,1,0,30.84h-12a73.68,73.68,0,0,0,0,147.36H254.94V791.09c0,96,79.39,143.94,148.07,143.94s154.67-48,154.67-143.94V612.77H362.62v60.47H473.3V791.09c0,40.54-36.38,59.56-67,59.56s-67-19-67-59.56V480c0-40.54,36.39-59.57,67-59.57s67,19,67,59.57v78.52h84.38V480C557.68,384.06,471.67,336.08,403,336.08Z" transform="translate(-35.41 -26.92)"/><path class="cls-4" d="M441,513.2a17.52,17.52,0,1,0-17.52-17.52A17.51,17.51,0,0,0,441,513.2Z" transform="translate(-35.41 -26.92)"/><path class="cls-4" d="M388.86,495.68a17.52,17.52,0,1,0-17.51,17.52A17.52,17.52,0,0,0,388.86,495.68Z" transform="translate(-35.41 -26.92)"/><path class="cls-4" d="M406.19,548a17.52,17.52,0,1,0-17.52-17.52A17.52,17.52,0,0,0,406.19,548Z" transform="translate(-35.41 -26.92)"/><path class="cls-4" d="M406.19,478.36a17.52,17.52,0,1,0-17.52-17.52A17.53,17.53,0,0,0,406.19,478.36Z" transform="translate(-35.41 -26.92)"/><polygon class="cls-4" points="356.49 694.29 356.49 726.18 324.61 726.18 324.61 755.1 356.49 755.1 356.49 786.99 385.42 786.99 385.42 755.1 417.3 755.1 417.3 726.18 385.42 726.18 385.42 694.29 356.49 694.29"/></g></svg>