<svg xmlns="http://www.w3.org/2000/svg" viewBox="0 0 1130.23 248.27"><title>Resurs 7</title><g id="Lager_2" data-name="Lager 2"><g id="Lager_1-2" data-name="Lager 1"><path d="M194.3,89.07c0,54.7-41,88.72-106.6,88.72H56.81v67.67H0V0H87.7c65.57,0,106.6,34,106.6,89.07m-57.51,0c0-27-17.54-42.78-52.25-42.78H56.81V131.5H84.54c34.71,0,52.25-15.78,52.25-42.43" style="fill:#55c0d2"/><path d="M331.06,54v50.5c-4.56-.35-8.07-.7-12.27-.7-30.16,0-50.15,16.48-50.15,52.59v89.07h-54.7V56.81h52.25v24.9C279.51,63.47,302,54,331.06,54" style="fill:#55c0d2"/><path d="M491.59,186.2l29.1,31.56c-17.53,20-43.83,30.51-77.84,30.51-65.23,0-107.65-41-107.65-97.13C335.2,94.68,378,54,436.18,54c53.31,0,97.14,35.07,97.49,95.38l-139.56,27c8.06,18.59,25.59,28.05,50.14,28.05,20,0,34.37-6,47.34-18.23M388.85,145.52l91.87-17.88c-5.26-19.29-21.74-32.26-44.54-32.26-27.35,0-46.28,18.24-47.33,50.14" style="fill:#55c0d2"/><polygon points="740.47 56.81 660.87 245.46 604.42 245.46 525.17 56.81 581.62 56.81 633.87 185.15 687.88 56.81 740.47 56.81" style="fill:#55c0d2"/><path d="M936.89,56.81V245.46H884.65V223.72C871,240.2,851,248.27,825.74,248.27c-53.3,0-94.33-37.87-94.33-97.13S772.44,54,825.74,54c23.14,0,42.78,7.36,56.45,22.79v-20Zm-53.65,94.33c0-32.62-21-52.26-48-52.26-27.35,0-48.39,19.64-48.39,52.26s21,52.24,48.39,52.24c27,0,48-19.64,48-52.24" style="fill:#55c0d2"/><path d="M1016.26,112.91c0-9.81,10.52-17.53,35.07-17.53a109.53,109.53,0,0,1,42.52,8.26L1117.12,67c-17.86-8.31-42.91-13-65.79-13-55,0-87.31,25.25-87.31,61,0,75.39,114,43.83,114,74.69,0,10.52-9.47,17.18-34.71,17.18-23.15,0-48.75-7.36-65.58-18.23l-18.23,39.27c17.53,11.57,49.79,20.34,81.7,20.34,56.46,0,89.07-24.9,89.07-60,0-74.34-114-43.13-114-75.39" style="fill:#55c0d2"/></g></g></svg>