<?xml version="1.0" encoding="utf-8"?>
<!-- Generator: Adobe Illustrator 24.2.1, SVG Export Plug-In . SVG Version: 6.00 Build 0)  -->
<svg version="1.1" id="Layer_1" xmlns="http://www.w3.org/2000/svg" xmlns:xlink="http://www.w3.org/1999/xlink" x="0px" y="0px"
	 viewBox="0 0 354.6 43" style="enable-background:new 0 0 354.6 43;" xml:space="preserve">
<style type="text/css">
	.st0{fill:#222222;}
	.st1{fill-rule:evenodd;clip-rule:evenodd;fill:#222222;}
</style>
<path class="st0" d="M53.5,6.8h11c6.8,0,10.4,3.8,10.4,9.4c0,4-2.1,6.4-5.6,7.8l6.7,12.2H70L63.4,24h-4.6v12.2h-5.3V6.8z M63.7,19.5
	c3.9,0,5.7-1.1,5.7-4.1c0-2.6-1.8-4.1-5.8-4.1h-4.9v8.3L63.7,19.5z"/>
<path class="st0" d="M98.2,24.8c0-6.7,4.1-11.4,10.5-11.4c5.4,0,9.1,3.1,9.5,7.9h-5c-0.3-2.2-2.2-3.8-4.4-3.7
	c-3.2,0-5.3,2.7-5.3,7.1s2.1,7.2,5.3,7.2c2.2,0.1,4.1-1.5,4.4-3.7h5c-0.4,4.7-3.9,8-9.4,8C102.1,36.2,98.2,31.5,98.2,24.8z"/>
<path class="st0" d="M119.5,24.8c0-6.8,4.1-11.4,10.6-11.4c6.5,0,10.6,4.6,10.6,11.4s-4.1,11.4-10.6,11.4S119.5,31.6,119.5,24.8z
	 M135.3,24.8c0-4-1.8-7.3-5.3-7.3s-5.3,3.2-5.3,7.3s1.7,7.2,5.3,7.2C133.6,32,135.3,28.9,135.3,24.8L135.3,24.8z"/>
<path class="st0" d="M142.1,14.1h5v3.7h0.2c0.7-2.4,2.9-4.1,5.4-4c0.6,0,1.2,0.1,1.9,0.1v4.8c-0.8-0.2-1.6-0.3-2.4-0.3
	c-2.6-0.2-4.8,1.8-5,4.4c0,0.1,0,0.2,0,0.4v13H142L142.1,14.1z"/>
<path class="st0" d="M155.1,25.2c0-7.4,4-11.3,9.1-11.3c2.7-0.1,5.2,1.4,6.3,3.9h0.2v-11h5.2v29.4h-5.1v-3.5h-0.3
	c-0.8,1.6-2.5,3.5-6.3,3.5C159.1,36.2,155.1,32.5,155.1,25.2z M170.9,25.2c0-4.3-1.8-7-5.2-7s-5.2,2.9-5.2,7s1.8,7.2,5.2,7.2
	S170.9,29.5,170.9,25.2L170.9,25.2z"/>
<path class="st0" d="M200.5,25.2c0-7.4,4-11.3,9.1-11.3c2.7-0.1,5.2,1.4,6.3,3.9h0.2v-11h5.2v29.4h-5.1v-3.5h-0.3
	c-0.8,1.6-2.5,3.5-6.3,3.5C204.4,36.2,200.5,32.5,200.5,25.2z M216.2,25.2c0-4.3-1.8-7-5.2-7s-5.2,2.9-5.2,7s1.8,7.2,5.2,7.2
	S216.2,29.5,216.2,25.2L216.2,25.2z"/>
<path class="st0" d="M233.1,6.8H252v4.5h-13.5v8.2h12.2V24h-12.3v12.2h-5.3V6.8z"/>
<path class="st0" d="M267.2,14.1h5.2v22h-5v-3.9h-0.2c-1,2.5-3.3,3.9-6.6,3.9c-4.3,0-7.4-2.7-7.4-8v-14h5.2v13.2
	c0,2.8,1.7,4.6,4.2,4.6c2.6,0,4.7-2.1,4.7-4.7c0-0.1,0-0.2,0-0.3L267.2,14.1z"/>
<path class="st0" d="M286.7,18.2h-4.4v11.4c0,2.1,1,2.6,2.4,2.6c0.5,0,1-0.1,1.5-0.2l0.9,4.1c-1,0.3-2,0.5-3.1,0.5
	c-3.9,0.1-6.9-1.9-6.9-6.1V18.2h-3.1v-4h3.1V8.9h5.2v5.3h4.4V18.2z"/>
<path class="st0" d="M303.1,14.1h5.2v22h-5v-3.9H303c-1,2.5-3.3,3.9-6.6,3.9c-4.3,0-7.3-2.7-7.3-8v-14h5.2v13.2
	c0,2.8,1.7,4.6,4.2,4.6c2.6,0,4.7-2.1,4.7-4.7c0-0.1,0-0.2,0-0.3L303.1,14.1z"/>
<path class="st0" d="M311.6,14.1h5v3.7h0.2c0.7-2.4,2.9-4.1,5.4-4c0.6,0,1.3,0.1,1.9,0.1v4.8c-0.8-0.2-1.6-0.3-2.4-0.3
	c-2.6-0.2-4.8,1.8-5,4.4c0,0.1,0,0.2,0,0.4v13h-5.2L311.6,14.1z"/>
<path class="st0" d="M344.9,11.3c0-2.7,2.2-4.9,4.9-4.9c2.7,0,4.9,2.2,4.9,4.9c0,2.7-2.2,4.9-4.9,4.9C347,16.2,344.9,14,344.9,11.3
	C344.9,11.3,344.9,11.3,344.9,11.3z M353.7,11.3c0-2.2-1.8-4-4-4s-4,1.8-4,4s1.8,4,4,4S353.7,13.5,353.7,11.3z M348.1,9h2.2
	c0.8,0,1.4,0.6,1.4,1.4c0,0,0,0,0,0c0,0.5-0.3,1.1-0.8,1.3l1,1.8H351l-0.8-1.6h-1.2v1.6h-0.8L348.1,9z M350,11.2
	c0.4,0,0.8-0.4,0.8-0.8c0,0,0,0,0-0.1c0-0.4-0.3-0.8-0.7-0.8c0,0-0.1,0-0.1,0h-1.1v1.6H350z"/>
<path class="st0" d="M324.2,25.3c0-6.8,4.1-11.4,10.4-11.4c5.4,0,10.1,3.4,10.1,11.1v1.6h-15.4c0,3.8,2.3,5.6,5.6,5.6
	c2.2,0,4-0.5,4.7-2.4h5.1c-0.9,3.8-4.3,6.5-9.8,6.5C328.3,36.2,324.2,32.2,324.2,25.3z M339.7,23.1c0.1-2.7-1.9-5-4.6-5.2
	c-0.1,0-0.2,0-0.4,0c-2.9,0-5.3,2.3-5.3,5.2H339.7z"/>
<path class="st0" d="M178.2,25.3c0-6.8,4.1-11.4,10.4-11.4c5.4,0,10.1,3.4,10.1,11.1v1.6h-15.4c0,3.8,2.3,5.6,5.6,5.6
	c2.2,0,4-0.5,4.7-2.4h5.1c-0.9,3.8-4.3,6.5-9.8,6.5C182.3,36.2,178.2,32.2,178.2,25.3z M193.7,23.1c0.1-2.7-1.9-5-4.6-5.2
	c-0.1,0-0.2,0-0.4,0c-2.9,0-5.3,2.3-5.3,5.2H193.7z"/>
<path class="st0" d="M76.2,25.3c0-6.8,4.1-11.4,10.4-11.4c5.4,0,10.1,3.4,10.1,11.1v1.6H81.4c0,3.8,2.3,5.6,5.6,5.6
	c2.2,0,4-0.5,4.7-2.4h5.1c-0.9,3.8-4.3,6.5-9.8,6.5C80.3,36.2,76.2,32.2,76.2,25.3z M91.8,23.1c0.1-2.7-1.9-5-4.6-5.2
	c-0.1,0-0.2,0-0.4,0c-2.9,0-5.3,2.3-5.3,5.2H91.8z"/>
<path class="st1" d="M23,18.4c-1.8,0-3.3,1.5-3.3,3.3S21.2,25,23,25s3.3-1.5,3.3-3.3l0,0C26.3,19.9,24.8,18.4,23,18.4L23,18.4z"/>
<path class="st1" d="M42.5,18.4c-1.8,0-3.3,1.5-3.3,3.3c0,1.8,1.5,3.3,3.3,3.3c1.8,0,3.3-1.5,3.3-3.3l0,0
	C45.8,19.9,44.3,18.4,42.5,18.4C42.5,18.4,42.5,18.4,42.5,18.4z"/>
<path class="st1" d="M3.3,18.4c-1.8,0-3.3,1.5-3.3,3.3C0,23.5,1.5,25,3.3,25s3.3-1.5,3.3-3.3l0,0C6.6,19.9,5.1,18.4,3.3,18.4
	C3.3,18.4,3.3,18.4,3.3,18.4z"/>
<path class="st1" d="M20.2,40.2L20.2,40.2v-9.7l0,0c0-1.5,1.2-2.7,2.7-2.7c1.5,0,2.7,1.2,2.7,2.7l0,0v9.7l0,0v0
	c0,1.5-1.2,2.7-2.7,2.7C21.4,43,20.2,41.8,20.2,40.2L20.2,40.2z"/>
<path class="st1" d="M30,35.3L30,35.3V8.1l0,0c-0.1-1.5,1.1-2.8,2.6-2.9c1.5-0.1,2.8,1.1,2.9,2.6c0,0.1,0,0.2,0,0.3l0,0v27.1l0,0
	v0.1c-0.1,1.5-1.4,2.6-2.9,2.6C31.2,37.8,30.1,36.7,30,35.3L30,35.3z"/>
<path class="st1" d="M10.4,35.3L10.4,35.3V8.1c0-1.5,1.2-2.7,2.7-2.7s2.7,1.2,2.7,2.7v27.1l0,0v0.1c0,1.5-1.2,2.7-2.7,2.7
	S10.4,36.8,10.4,35.3L10.4,35.3z"/>
<path class="st1" d="M20.2,12.4L20.2,12.4V2.7l0,0c0-1.5,1.2-2.7,2.7-2.7c1.5,0,2.7,1.2,2.7,2.7l0,0v9.7l0,0v0.1
	c0,1.5-1.2,2.7-2.7,2.7C21.4,15.2,20.2,14,20.2,12.4L20.2,12.4z"/>
</svg>
