<svg width="1122" height="136" viewBox="0 0 1122 136" fill="none" xmlns="http://www.w3.org/2000/svg">
<g clip-path="url(#clip0_555_25)">
<path d="M169.281 21.5068H204.086C225.602 21.5068 236.993 33.5254 236.993 51.2371C236.993 63.8882 230.348 71.4789 219.274 75.9068L240.474 114.493H221.489L200.606 75.9068H186.051V114.493H169.281V21.5068ZM201.555 61.6743C213.895 61.6743 219.59 58.1952 219.59 48.7068C219.59 40.4836 213.895 35.7394 201.238 35.7394H185.734V61.9906L201.555 61.6743Z" fill="white"/>
<path d="M310.717 78.4372C310.717 57.2465 323.69 42.3813 343.941 42.3813C361.027 42.3813 372.734 52.186 374 67.3674H358.179C357.23 60.4093 351.218 55.3488 344.257 55.6651C334.132 55.6651 327.487 64.2046 327.487 78.1209C327.487 92.0372 334.132 100.893 344.257 100.893C351.218 101.209 357.23 96.1488 358.179 89.1907H374C372.734 104.056 361.66 114.493 344.257 114.493C323.057 114.493 310.717 99.6279 310.717 78.4372Z" fill="white"/>
<path d="M378.113 78.4372C378.113 56.9302 391.086 42.3813 411.653 42.3813C432.22 42.3813 445.193 56.9302 445.193 78.4372C445.193 99.9441 432.22 114.493 411.653 114.493C391.086 114.493 378.113 99.9441 378.113 78.4372ZM428.107 78.4372C428.107 65.786 422.411 55.3488 411.337 55.3488C400.262 55.3488 394.567 65.4697 394.567 78.4372C394.567 91.4046 399.946 101.209 411.337 101.209C422.728 101.209 428.107 91.4046 428.107 78.4372Z" fill="white"/>
<path d="M449.623 44.5954H465.443V56.2977H466.076C468.291 48.707 475.252 43.3303 483.162 43.6466C485.061 43.6466 486.959 43.9628 489.174 43.9628V59.1442C486.643 58.5117 484.112 58.1954 481.58 58.1954C473.354 57.5628 466.392 63.8884 465.76 72.1117C465.76 72.4279 465.76 72.7442 465.76 73.3768V114.493H449.306L449.623 44.5954Z" fill="white"/>
<path d="M490.756 79.7022C490.756 56.2975 503.413 43.9627 519.55 43.9627C528.093 43.6464 536.003 48.3906 539.484 56.2975H540.117V21.5068H556.57V114.493H540.433V103.423H539.484C536.953 108.484 531.574 114.493 519.55 114.493C503.413 114.493 490.756 102.791 490.756 79.7022ZM540.75 79.7022C540.75 66.1022 535.054 57.5627 524.296 57.5627C513.538 57.5627 507.843 66.7348 507.843 79.7022C507.843 92.6696 513.538 102.474 524.296 102.474C535.054 102.474 540.75 93.3022 540.75 79.7022Z" fill="white"/>
<path d="M634.408 79.7022C634.408 56.2975 647.064 43.9627 663.201 43.9627C671.744 43.6464 679.655 48.3906 683.135 56.2975H683.768V21.5068H700.222V114.493H684.084V103.423H683.135C680.604 108.484 675.225 114.493 663.201 114.493C646.748 114.493 634.408 102.791 634.408 79.7022ZM684.084 79.7022C684.084 66.1022 678.389 57.5627 667.631 57.5627C656.873 57.5627 651.178 66.7348 651.178 79.7022C651.178 92.6696 656.873 102.474 667.631 102.474C678.389 102.474 684.084 93.3022 684.084 79.7022Z" fill="white"/>
<path d="M737.558 21.5068H797.36V35.7394H754.645V61.6743H793.247V75.9068H754.328V114.493H737.558V21.5068V21.5068Z" fill="white"/>
<path d="M845.455 44.5952H861.909V114.177H846.088V101.842H845.455C842.291 109.749 835.013 114.177 824.572 114.177C810.966 114.177 801.157 105.637 801.157 88.8743V44.5952H817.611V86.344C817.611 95.1999 822.99 100.893 830.9 100.893C839.127 100.893 845.771 94.251 845.771 86.0278C845.771 85.7115 845.771 85.3952 845.771 85.0789L845.455 44.5952Z" fill="white"/>
<path d="M907.156 57.5629H893.233V93.6187C893.233 100.261 896.398 101.842 900.827 101.842C902.409 101.842 903.992 101.526 905.574 101.209L908.421 114.177C905.257 115.126 902.093 115.758 898.613 115.758C886.272 116.075 876.78 109.749 876.78 96.4652V57.5629H866.971V44.9117H876.78V28.1489H893.233V44.9117H907.156V57.5629V57.5629Z" fill="white"/>
<path d="M959.047 44.5952H975.501V114.177H959.68V101.842H958.731C955.567 109.749 948.289 114.177 937.848 114.177C924.242 114.177 914.75 105.637 914.75 88.8743V44.5952H931.203V86.344C931.203 95.1999 936.582 100.893 944.492 100.893C952.719 100.893 959.364 94.251 959.364 86.0278C959.364 85.7115 959.364 85.3952 959.364 85.0789L959.047 44.5952Z" fill="white"/>
<path d="M985.942 44.5954H1001.76V56.2977H1002.4C1004.61 48.707 1011.57 43.3303 1019.48 43.6466C1021.38 43.6466 1023.6 43.9628 1025.49 43.9628V59.1442C1022.96 58.5117 1020.43 58.1954 1017.9 58.1954C1009.67 57.5628 1002.71 63.8884 1002.08 72.1117C1002.08 72.4279 1002.08 72.7442 1002.08 73.3768V114.493H985.626L985.942 44.5954Z" fill="white"/>
<path d="M1091.31 35.7394C1091.31 27.1998 1098.27 20.2417 1106.81 20.2417C1115.36 20.2417 1122.32 27.1998 1122.32 35.7394C1122.32 44.2789 1115.36 51.2371 1106.81 51.2371C1097.95 51.2371 1091.31 44.2789 1091.31 35.7394ZM1119.15 35.7394C1119.15 28.7812 1113.46 23.0882 1106.5 23.0882C1099.53 23.0882 1093.84 28.7812 1093.84 35.7394C1093.84 42.6975 1099.53 48.3905 1106.5 48.3905C1113.46 48.3905 1119.15 42.6975 1119.15 35.7394ZM1101.43 28.465H1108.39C1110.93 28.465 1112.82 30.3626 1112.82 32.8929C1112.82 34.4743 1111.87 36.3719 1110.29 37.0045L1113.46 42.6975H1110.61L1108.08 37.637H1104.28V42.6975H1101.75L1101.43 28.465ZM1107.45 35.4231C1108.71 35.4231 1109.98 34.158 1109.98 32.8929C1109.98 32.8929 1109.98 32.8929 1109.98 32.5766C1109.98 31.3115 1109.03 30.0464 1107.76 30.0464H1107.45H1103.96V35.1068H1107.45V35.4231Z" fill="white"/>
<path d="M1025.81 80.0187C1025.81 58.5117 1038.78 43.9629 1058.72 43.9629C1075.8 43.9629 1090.68 54.7164 1090.68 79.0699V84.1303H1041.95C1041.95 96.1489 1049.23 101.842 1059.67 101.842C1066.63 101.842 1072.32 100.261 1074.54 94.2513H1090.68C1087.83 106.27 1077.07 114.809 1059.67 114.809C1038.78 114.493 1025.81 101.842 1025.81 80.0187ZM1074.85 73.0606C1075.17 64.521 1068.84 57.2466 1060.3 56.6141C1059.98 56.6141 1059.67 56.6141 1059.03 56.6141C1049.86 56.6141 1042.26 63.8885 1042.26 73.0606H1074.85Z" fill="white"/>
<path d="M563.848 80.0187C563.848 58.5117 576.821 43.9629 596.755 43.9629C613.841 43.9629 628.712 54.7164 628.712 79.0699V84.1303H579.985C579.985 96.1489 587.262 101.842 597.704 101.842C604.665 101.842 610.36 100.261 612.575 94.2513H628.712C625.865 106.27 615.107 114.809 597.704 114.809C576.821 114.493 563.848 101.842 563.848 80.0187ZM612.892 73.0606C613.208 64.521 606.88 57.2466 598.337 56.6141C598.02 56.6141 597.704 56.6141 597.071 56.6141C587.895 56.6141 580.301 63.8885 580.301 73.0606H612.892Z" fill="white"/>
<path d="M241.106 80.0187C241.106 58.5117 254.079 43.9629 274.013 43.9629C291.1 43.9629 305.971 54.7164 305.971 79.0699V84.1303H257.56C257.56 96.1489 264.837 101.842 275.279 101.842C282.24 101.842 287.936 100.261 290.15 94.2513H306.288C303.44 106.27 292.682 114.809 275.279 114.809C254.079 114.493 241.106 101.842 241.106 80.0187ZM290.467 73.0606C290.783 64.521 284.455 57.2466 275.912 56.6141C275.595 56.6141 275.279 56.6141 274.646 56.6141C265.47 56.6141 257.876 63.8885 257.876 73.0606H290.467Z" fill="white"/>
<path fill-rule="evenodd" clip-rule="evenodd" d="M72.7751 58.1953C67.0797 58.1953 62.3335 62.9395 62.3335 68.6325C62.3335 74.3255 67.0797 79.0697 72.7751 79.0697C78.4705 79.0697 83.2167 74.3255 83.2167 68.6325C83.2167 62.9395 78.4705 58.1953 72.7751 58.1953Z" fill="white"/>
<path fill-rule="evenodd" clip-rule="evenodd" d="M134.475 58.1953C128.78 58.1953 124.034 62.9395 124.034 68.6325C124.034 74.3255 128.78 79.0697 134.475 79.0697C140.171 79.0697 144.917 74.3255 144.917 68.6325C144.917 62.9395 140.171 58.1953 134.475 58.1953Z" fill="white"/>
<path fill-rule="evenodd" clip-rule="evenodd" d="M10.4416 58.1953C4.74619 58.1953 0 62.9395 0 68.6325C0 74.3255 4.74619 79.0697 10.4416 79.0697C16.1371 79.0697 20.8832 74.3255 20.8832 68.6325C20.8832 62.9395 16.1371 58.1953 10.4416 58.1953Z" fill="white"/>
<path fill-rule="evenodd" clip-rule="evenodd" d="M63.9155 127.144V96.4653C63.9155 91.7211 67.7125 87.9258 72.4587 87.9258C77.2049 87.9258 81.0018 91.7211 81.0018 96.4653V127.144C81.0018 131.889 77.2049 135.684 72.4587 135.684C67.7125 136 63.9155 132.205 63.9155 127.144Z" fill="white"/>
<path fill-rule="evenodd" clip-rule="evenodd" d="M94.9237 111.647V25.6187C94.6073 20.8746 98.4042 16.7629 103.15 16.4467C107.897 16.1304 112.01 19.9257 112.326 24.6699C112.326 24.9862 112.326 25.3025 112.326 25.6187V111.33V111.647C112.01 116.391 107.897 119.87 103.15 119.87C98.7207 119.554 95.2401 116.075 94.9237 111.647Z" fill="white"/>
<path fill-rule="evenodd" clip-rule="evenodd" d="M32.9067 111.647V25.6186C32.9067 20.8745 36.7037 17.0791 41.4499 17.0791C46.1961 17.0791 49.993 20.8745 49.993 25.6186V111.33V111.647C49.993 116.391 46.1961 120.186 41.4499 120.186C36.7037 120.186 32.9067 116.391 32.9067 111.647Z" fill="white"/>
<path fill-rule="evenodd" clip-rule="evenodd" d="M63.9155 39.2186V8.53953C63.9155 3.79535 67.7125 0 72.4587 0C77.2049 0 81.0018 3.79535 81.0018 8.53953V39.2186V39.5349C81.0018 44.2791 77.2049 48.0744 72.4587 48.0744C67.7125 48.0744 63.9155 44.2791 63.9155 39.2186Z" fill="white"/>
</g>
<defs>
<clipPath id="clip0_555_25">
<rect width="1122" height="136" fill="white"/>
</clipPath>
</defs>
</svg>
