<?xml version="1.0" encoding="utf-8"?>
<!-- Generator: Adobe Illustrator 24.1.2, SVG Export Plug-In . SVG Version: 6.00 Build 0)  -->
<svg version="1.1" id="Lager_1" xmlns="http://www.w3.org/2000/svg" xmlns:xlink="http://www.w3.org/1999/xlink" x="0px" y="0px"
	 viewBox="0 0 283.5 90.3" style="enable-background:new 0 0 283.5 90.3;" xml:space="preserve">
<style type="text/css">
	.st0{fill:#D6DDE0;}
	.st1{fill:#002659;}
	.st2{fill:#DBB052;}
	.st3{fill:#DA2032;}
</style>
<path class="st0" d="M45.1,90.3c24.9,0,45.1-20.2,45.1-45.1S70.1,0,45.1,0S0,20.2,0,45.1c0,0,0,0,0,0C0,70,20.2,90.3,45.1,90.3
	C45.1,90.3,45.1,90.3,45.1,90.3z"/>
<path class="st1" d="M45.1,1.9C21.2,1.9,1.9,21.2,1.9,45.1s19.4,43.3,43.3,43.3S88.4,69,88.4,45.1l0,0C88.4,21.2,69,1.9,45.1,1.9z"
	/>
<path class="st0" d="M69,13.4c-13.2-13.2-34.6-13.2-47.8,0c-6.4,6.4-9.9,15-9.9,24v16.3l0,0c0.5,18.7,16,33.4,34.7,33
	c18-0.5,32.5-15,33-33V37.3C78.9,28.3,75.4,19.7,69,13.4z M68.4,76.2c-12.9,12.8-33.7,12.8-46.5,0c-6-6-9.5-14.1-9.6-22.6
	c0.1-2.4,0.5-4.7,1.2-7c6.8,17.5,26.5,26.1,44,19.3c8.9-3.5,15.9-10.5,19.3-19.4c0.7,2.2,1.1,4.5,1.2,6.8
	C77.9,62,74.5,70.2,68.4,76.2z M13.9,45.2c1.7-5.1,4.7-9.8,8.6-13.4c6.2-5.7,14.3-8.9,22.7-8.9c8.4,0,16.4,3.2,22.4,9
	c3.9,3.7,6.9,8.2,8.7,13.3c-6,17.3-24.8,26.4-42.1,20.4C24.7,62.3,17.2,54.8,13.9,45.2L13.9,45.2z M78,47.9
	c-1.6-6.3-5-12.1-9.8-16.6c-6.2-5.9-14.5-9.2-23.1-9.2c-8.6,0-17,3.2-23.3,9.1c-4.7,4.4-8.1,10.1-9.6,16.4V37.3
	C11.9,19.2,26.4,4.2,44.6,3.9C62.7,3.6,77.7,18,78,36.2c0,0.4,0,0.8,0,1.1L78,47.9z"/>
<path class="st2" d="M37.5,10.5c1.4-0.3,2.8-0.5,4.3-0.7l3.3,6.8l3.3-6.8c1.4,0.1,2.9,0.4,4.3,0.7l3,8.9l0.7-7.9
	c2.4,0.7,4.6,1.6,6.8,2.8c2.2,1.2,2.6,2.5,2.4,3.9c0,0-0.2,1.4-1.8,0.8c0,0,2.9,1.5,2.2,4.4c-0.2,1-1.3,1.5-2.8,0.7
	c-1.5-0.9-3.1-1.7-4.7-2.3c-1.8-0.7-3.6-1.3-5.5-1.7l-0.7-1.9c-1.5-0.3-3-0.5-4.5-0.6l-0.8,1.7c-1.1,0-2.8,0-4,0l-0.8-1.7
	c-1.5,0.1-3,0.3-4.5,0.6l-0.6,1.9c-1.1,0.2-2.1,0.5-3.4,0.9l0.2-0.6c-1.2,0.9-2.5,1.7-3.8,2.4c-1.3,0.6-5,2.5-5.9,0.7
	c-0.2-0.4-0.3-0.8-0.3-1.3c1.1-0.7,2.6-1.5,3.8-2.1c0,0-0.6,2.3,1.7,1c0.9-0.4,1.6-1,2-1.8c0.5-1.5-1.1-1.2-1.7-1
	c-1,0.3-4.9,1.6-4.9-1c0-1.8,2.5-3.7,5.1-4.8c4-1.6,5.3-0.1,5.2,1.1c-1.6,0.4-2,0.6-3.3,1c0-0.5-0.3-1.1-2-0.5s-2.1,1.4-1.8,2.1
	c0.3,0.9,2.9-0.1,3.5-0.2c3.6-0.8,3.1,1.7,3.1,1.7S37.5,10.5,37.5,10.5z M38.5,16.5c1-0.2,2.1-0.4,3.1-0.5l-1.7-3.8L38.5,16.5z
	 M58.8,19.7c1.1,0.5,2.2,1,3.3,1.6c0,0,0.8,0.6,1.2,0.1s0.1-1.2-1.3-1.9c-1-0.5-2-1-3.1-1.5L58.8,19.7z M59.2,16c0,0,1.4,0.6,2.3,1
	c0.3,0.2,0.6,0.3,1,0.4c0.2,0,0.4-0.2,0.5-0.4c0-1-1-1.4-1.3-1.6c-1-0.5-1.3-0.6-2.3-1.1C59.3,14.4,59.2,16,59.2,16z M48.7,16
	c1,0.1,2.1,0.2,3.1,0.4l-1.4-4.2L48.7,16z"/>
<path class="st0" d="M28.6,44.4c0.9,0.5,1.9,0.8,2.9,0.7c2.2-0.3,2.8-1.2,4.8-0.6c0.6,0.2,1.2,0.5,1.6,1c-0.4-0.1-0.7-0.2-1.1-0.2
	c-2.1-0.1-3.8,1.5-5.9,1C29.9,46.1,29,45.4,28.6,44.4z"/>
<path class="st0" d="M40.5,44.7c-0.7,0.6-2.2,3.9-6.1,2c0,0.9,0.2,1.8,0.8,2.5c0.7,0.8,1.8,1.2,2.9,1.1l0,0
	c-1.2,1.1-0.4,2.8-0.3,5.3c0.4-0.8,1.1-1.5,1.9-2c-0.6,1.1-1,2.2-1.2,3.4c-0.1,1.9,1.9,3.5,3.5,6c0.5-2.9,0.4-4,0.9-5.7
	c0.6,2.6,0.9,5.3,0.8,7.9c2.9-2.3,6.3-2.4,4.8-8.6c1,1.4,1.6,3,2,4.6l0,0c1.4-2.2,4.6-3.7,2.1-9.6c1.3,1.1,1.8,3,2.4,3.7
	c0.4-2.8,2-7.2-1.5-10.4l0,0c1.1,0.4,2,1.1,2.6,2c0-2.5,1.6-4-2-8.4c0.7-1.1,1.1-2.4,1.3-3.7c-1.4,0.1-2.8,0.4-4.1,1
	c-0.2-0.4-0.6-0.6-1-0.7H40c-0.7,0-1.4,1-1.8,2.8c-0.2-0.2-0.5-0.3-0.8-0.5c-1.3-0.5-4.2-0.5-5.1,2.2c-0.3,1.1-0.3,2.3-0.1,3.5
	c0,0,3.2-2.4,4.8,0.4 M39.4,41c-0.5-0.3-0.9-1.3-0.3-1.8c0.4-0.3,1.7,0.3,0.8,1.3c0.4,0.3,1,0.2,1.3-0.3c0.1-0.1,0.1-0.2,0.1-0.3
	h0.3C41.5,40.6,40.7,41.9,39.4,41L39.4,41z"/>
<path class="st2" d="M50.3,34.8c0.2,0,0.4,0.1,0.6,0.2l4-8.8c-4.4,0-2.8,2.9-2.7,3.1s-0.2,0.1-0.2,0.1c-0.3-0.3-0.6-0.4-1-0.4
	c-0.8-0.1-1.6,0.5-1.7,1.3s0.5,1.6,1.3,1.7c0.1,0,0.2,0,0.3,0c0.1,0,0.3,0,0.4,0c-1.3,1.3-3.4,1.3-4.7,0c-0.3-0.3-0.5-0.6-0.6-0.9
	c-0.2-0.3,0.3,0.3,0.9,0.3c0.8,0.1,1.6-0.5,1.7-1.3c0.1-0.8-0.5-1.6-1.3-1.7c-0.1,0-0.2,0-0.3,0c-0.3,0-0.6,0.1-0.9,0.3l0,0
	c0.7-0.5,0.8-1.5,0.2-2.1c-0.3-0.4-0.7-0.6-1.2-0.6l0,0c-0.8,0-1.5,0.7-1.5,1.5c0,0.5,0.2,0.9,0.6,1.2l0,0c-0.2-0.2-0.6-0.3-0.9-0.3
	c-0.8-0.1-1.6,0.5-1.7,1.3c-0.1,0.8,0.5,1.6,1.3,1.7c0.1,0,0.2,0,0.3,0c0.7,0,1.1-0.6,0.9-0.3c-0.8,1.6-2.8,2.3-4.4,1.5
	c-0.3-0.2-0.6-0.4-0.9-0.7c0.1,0,0.3,0,0.4,0c0.8,0,1.5-0.6,1.5-1.5S40.2,29,39.4,29c-0.4,0-0.8,0.1-1.1,0.4c0,0-0.3,0.1-0.2-0.1
	s1.6-3.1-2.7-3.1l4,8.8c0.2-0.1,0.4-0.2,0.6-0.2L50.3,34.8z"/>
<path class="st3" d="M55.1,44.8c0.2-1,0.1-2.3-1.9-4.5c-0.7,0.7-1.4,1.4-2.1,2c0.3,2.7,0.4,6.8-1.9,9c-0.1-1.3-0.4-2.5-1-3.7
	c-0.1,2.5-1.3,4.9-3.3,6.3c0.3-1.5,0.3-3.1,0.1-4.6c-0.4,1.2-1.3,2.2-2.5,2.6l-0.5-3c0,0,1.1-0.8,1.1-0.8s0.3,1.7,0.3,1.7
	c1.2-1.1,0.2-2.8,1.3-3.2c0.6-0.2,0.9,0.3,1.1,0.6c0.4,1,0.6,2,0.5,3.1c0.6-1.6,0.8-3.3,0.5-5c-0.1-0.4,0.2-0.9,0.6-1
	c0.4-0.1,0.8,0.1,1,0.5c0.7,0.9,1.1,1.9,1.4,3c0.5-1.7,0.5-3.5,0-5.2c-0.1-0.3-0.2-0.6-0.2-0.6c1.7-1.3,3-3.1,3.8-5
	c-1.8,0.6-3.5,1.4-5.1,2.4l-0.6-0.6l2.3-1.8c0.2-0.1,0.2-0.3-0.2-0.3h-8.4c-0.8,0-1.6,0.3-1.6,1.6l1,0.9c0.9-0.3,1.8-0.1,2.5,0.4
	l-0.2,0.7c0,0-0.5-0.4-0.8-0.2c-0.7,1.8-1.8,2-2.8,1.7s-1.2-1.7-1.4-2.3c-1.8-1-4.6-1.2-4.8,2c1.6-0.7,3.5-0.2,4.4,1.3l5,1.5
	c-1.7,1.3-4,5.3-6.8,4c2,2.1,4.2-0.5,4.8,0.6s-2.6,1.5-2,4.5c0.5-0.5,1.5-1.5,2.1-0.9c0.3,0.3,0.3,0.7,0.1,1c-1.4,3-2,4.4,0.3,6.8
	c0.5-3.7,0.7-4.7,1.7-4.7c1.4,0,1.9,6.2,2,7.7c2.8-1.8,3.3-2.2,2.3-6.7c-0.2-0.8-0.1-1.3,0.5-1.5c0.5-0.2,1.1,0.1,1.3,0.6
	c0.7,1.1,1.3,2.2,1.8,3.4c0.7-1.2,2.6-2,0.5-7c-0.3-0.6-0.3-1.1,0.2-1.4c1-0.7,2.4,1,2.9,1.8c-0.1-1.8,0.8-4-2-6.8
	c-0.5-0.5-0.5-0.9-0.1-1.3C52.9,43.8,54.3,44.3,55.1,44.8z"/>
<path class="st0" d="M42.4,43c1.5-0.3,1.2,1,2.9,1.4C43.9,44.9,43.3,43.2,42.4,43L42.4,43"/>
<path class="st0" d="M51.5,38.5c-0.5,0.9-1.4,1.6-2.5,1.9C49.5,39.5,50.4,38.8,51.5,38.5z"/>
<path class="st0" d="M21.2,63.3c-0.3-0.3-0.6-0.5-0.9-0.8v-1.4c0.9,0.9,1.8,1.7,2.8,2.5v1.4c-0.3-0.3-0.7-0.5-1-0.8v8.4
	c-0.3-0.2-0.6-0.5-0.9-0.7L21.2,63.3z"/>
<path class="st0" d="M23.8,64.1c0.8,0.6,1.6,1.2,2.5,1.7v1.3c-0.6-0.3-1.1-0.6-1.6-1v2.6c0.6,0.4,1.1,0.7,1.5,0.9v1.1
	c-0.5-0.3-0.9-0.5-1.5-0.9v3.3c0.6,0.4,1,0.6,1.7,1.1v1.4c-1.3-0.8-1.5-0.9-2.7-1.8L23.8,64.1z"/>
<path class="st0" d="M30.3,77.1c-2.7,1.4-4.2-4.6-2.9-9.2c0.2-0.9,1-2,2.8,0v1.2c-1.4-2-2-1.4-2.1,1.7c-0.1,5.5,1.2,5.5,2.2,4.8
	L30.3,77.1z"/>
<path class="st0" d="M31.1,68.2c0.3,0.2,0.7,0.3,1.1,0.4v4.3c0.5,0.2,1,0.3,1.5,0.4v-4.2c0.3,0.1,0.7,0.2,1,0.3v9.8l-1-0.3v-4.4
	c-0.5-0.2-1-0.3-1.6-0.5v4.4c-0.4-0.1-0.7-0.3-1.1-0.5L31.1,68.2z"/>
<path class="st0" d="M36.3,69.9c0.4,0.1,0.6,0.2,0.9,0.2c0.6,1.9,1.3,4.6,1.9,6.5l0,0v-6.1c0.3,0.1,0.7,0.2,1,0.2v9.8l-0.8-0.1
	c-0.6-1.9-1.4-4.4-2-6.3l0,0v5.9l-1.1-0.2L36.3,69.9z"/>
<path class="st0" d="M47.4,70.9c0.4,0,0.7-0.1,1.1-0.1v8.5c0.8,0,1.6-0.1,2.3-0.3v1.3c-1.1,0.2-2.3,0.3-3.5,0.4L47.4,70.9z"/>
<path class="st0" d="M60.9,76.6c-2.1,2.6-4.5,1.4-4.3-3.4c0.1-3.2,1.6-6,4.2-5.4v1.3c-3.5-1.6-3.3,5.2-2.9,6.7s1.2,1.1,1.9,0.7v-2.9
	c-0.3,0.1-0.5,0.3-0.8,0.3v-1.2c0.6-0.2,1.2-0.5,1.8-0.8L60.9,76.6z"/>
<path class="st0" d="M62.1,66.6l1-0.5v9.8l-1,0.5V66.6z"/>
<path class="st0" d="M64.5,65.3c0.9-0.5,1.7-1.1,2.5-1.8v1.4c-0.5,0.4-1,0.7-1.6,1.1v2.7c0.5-0.3,1-0.6,1.5-1v1.1
	c-0.5,0.4-0.9,0.7-1.4,1v3.3c0.7-0.4,1.1-0.8,1.7-1.2v1.3c-0.8,0.7-1.7,1.4-2.7,1.9L64.5,65.3z"/>
<path class="st0" d="M67.8,71.1c0.6,0.4,1.6-0.7,1.3-2.1s-1.5-2.8-1.3-4.6c0,0,0.3-2.6,2-3.2v1.2c-1.1,0.2-1.2,1.5-1.2,1.6
	c0,0.3,0,0.6,0.1,0.9c0.3,0.7,0.7,1.5,1,2.2c1.2,2.9-0.4,5.4-1.8,5.4L67.8,71.1z"/>
<path class="st0" d="M46,75.8c0,2.8-0.5,5.1-2.3,5.1c-1.6,0-2.3-2.3-2.3-5.1s0.7-5.1,2.3-5.1S46,73,46,75.8z M43.7,72
	c-0.8,0-1.3,1.8-1.3,3.9s0.4,3.8,1.3,3.8s1.3-1.7,1.3-3.8S44.5,72,43.7,72z"/>
<path class="st0" d="M55.7,74.7c0,2.8-0.5,5-2.3,5c-1.6,0-2.3-2.3-2.3-5s0.7-5,2.3-5S55.7,71.9,55.7,74.7z M53.4,70.9
	c-0.8,0-1.3,1.8-1.3,3.8s0.4,3.7,1.3,3.7s1.3-1.7,1.3-3.7S54.2,70.9,53.4,70.9z"/>
<path class="st1" d="M276.5,43.6v-0.1c2.9-1.1,4.9-4.3,4.9-8.1s-1.7-9.9-11.4-9.9H237v34.9l-15-34.9h-16.4l-12.9,29.6L180,25.5
	h-16.3l-13.3,30.7c0.2-1,0.4-2.1,0.4-3.1c0-7.1-4.5-10.1-11.9-11.4c-3.9-0.7-14.2-2.2-17.5-2.8c-2-0.3-3-1.1-3-2.5
	c0-2.6,2.5-3.9,7-3.9c6.1,0,8.3,1.9,8.7,4.7h15.1c-0.8-9.5-9.6-12.9-24.1-12.9c-17.5,0-20.8,7.5-20.8,12.7c0,5.9,3.2,10.1,11.4,11.3
	l13.3,2c4.6,0.7,6.3,1.5,6.3,3.6c0,3.4-3.6,4.2-7,4.2c-7,0-8.6-1.9-9-4.9h-15.8c0.8,11.2,10.6,13.6,24.2,13.6c4.4,0,16.5-0.1,21.2-7
	l-2.5,5.8h14.3l2.4-6.5h17.5l2.5,6.5h19.6L205,59h17.5l2.4,6.5H269c12.3,0,14.5-7.2,14.5-11.9C283.5,48,280.7,44.5,276.5,43.6z
	 M166.2,50.8l5.6-15.1h0.1l5.6,15.1H166.2z M208.1,50.8l5.6-15.1h0.1l5.6,15.1H208.1z M250.3,34.2h13.3c2.9,0,4.1,1.6,4.1,3.4
	s-1.2,3.5-4.1,3.5h-13.3L250.3,34.2z M264.6,56.9h-14.3v-8.1h14.3c2.8,0,4.7,1.3,4.7,4S267.4,56.9,264.6,56.9z"/>
</svg>
