<svg width="719" height="136" viewBox="0 0 719 136" fill="none" xmlns="http://www.w3.org/2000/svg">
<g clip-path="url(#clip0_555_48)">
<path d="M90.0702 0H90.695C91.2574 0.5625 91.9447 0.28125 92.5695 0.28125C94.2254 0.5 95.8812 0.6875 97.5058 0.9375C102.661 1.8125 107.503 3.46875 111.627 6.78125C116.688 10.8438 119.125 16.3125 119.375 22.6875C119.594 28.25 119.406 33.8437 119.5 39.4062C119.531 40.625 119.219 40.9688 117.938 40.9688C101.286 40.9375 84.6029 40.9375 67.951 40.9688C66.7325 40.9688 66.3264 40.6562 66.3889 39.4062C66.5138 37.1562 66.2327 34.9375 64.9517 32.9688C63.4834 30.7188 60.6091 29.7812 57.6099 30.625C55.1418 31.3125 53.6734 33.4063 53.4235 36.0313C53.0798 39.9375 54.9856 42.375 58.3285 43.8438C63.7333 46.2188 69.1694 48.5937 74.6367 50.9062C84.7903 55.2187 94.9127 59.5313 105.066 63.7813C113.314 67.25 117.875 73.4687 118.781 82.3125C119.875 92.7812 119.906 103.313 118.938 113.813C118.063 123.031 113.314 129.875 104.379 133.313C100.193 134.938 95.7875 135.656 91.2886 135.969H89.4141C88.9455 135.938 88.4769 135.906 88.0082 135.906C72.0124 135.906 55.9853 135.906 39.9895 135.906C36.8653 135.906 33.7411 135.938 30.6482 135.969H28.7737C24.1811 135.719 19.6823 134.969 15.3709 133.375C9.12256 131.031 4.31131 127.094 1.81197 120.688C0.656017 117.719 0.468566 114.625 0.062422 111.531L0.124906 86.5938C0.343599 86.5625 0.53105 86.5312 0.749743 86.5312C17.9328 86.5312 35.1158 86.5312 52.2988 86.5C53.361 86.5 53.5797 86.9063 53.5797 87.875C53.5485 91.4063 53.4235 94.9688 53.7672 98.5C53.9859 100.625 54.3295 102.812 56.1728 104.219C60.078 107.188 65.3267 105.125 66.2327 100.188C66.8887 96.5 66.8575 92.6875 66.2014 89C65.7953 86.4687 64.2957 84.6875 62.0463 83.4688C60.5154 82.625 58.9221 81.8437 57.2663 81.1875C48.0812 77.5 38.9273 73.8125 29.8047 70.0313C23.2751 67.3438 16.5894 65 10.5909 61.125C4.84243 57.4375 1.37458 52.3125 0.593533 45.5312C-0.343722 37.5625 -0.249997 29.5 0.37484 21.5313C1.06216 13.75 4.99864 8 11.9656 4.3125C16.7768 1.78125 21.963 0.875 27.2428 0.28125L28.8049 0.25H87.5708C88.3831 0.15625 89.2891 0.65625 90.0702 0Z" fill="white"/>
<path d="M563.665 63.2812C566.977 64.25 570.008 65.3125 572.757 67.0625C579.536 71.375 582.567 78 583.973 85.5625C584.879 90.4687 585.285 95.4688 585.254 100.469C585.254 111.406 585.222 122.344 585.285 133.281C585.285 134.594 585.066 135.063 583.598 135.063C566.977 135 550.388 135 533.767 135.063C532.392 135.063 532.018 134.75 532.018 133.344C532.08 118.969 532.049 104.594 532.049 90.2188C532.08 88.4375 531.924 86.6875 531.58 84.9375C530.893 81.5625 529.018 79.9062 525.55 79.75C523.738 79.6562 521.895 79.7813 520.083 79.6875C518.927 79.625 518.584 79.9688 518.584 81.1563C518.646 87.7813 518.615 94.375 518.615 101C518.615 111.781 518.584 122.563 518.646 133.344C518.646 134.75 518.271 135.063 516.896 135.063C500.557 135 484.186 135 467.847 135.063C466.566 135.063 466.191 134.75 466.191 133.438C466.222 89.7813 466.222 46.1562 466.191 2.5C466.191 1.28125 466.503 0.9375 467.753 0.9375C496.027 0.96875 524.301 0.9375 552.575 1C558.854 1 565.009 1.84375 570.882 4.3125C577.693 7.1875 581.661 12.5 583.442 19.4687C585.66 28.0937 585.691 37.125 583.504 45.75C581.442 54.0312 575.85 59.125 567.977 61.875C566.633 62.3438 565.259 62.7812 563.665 63.2812ZM518.646 40.9062C518.646 43.6562 518.646 46.4063 518.646 49.1563C518.646 49.875 518.708 50.3438 519.614 50.3125C521.645 50.25 523.676 50.375 525.675 50.25C529.299 50 530.987 48.4375 531.674 44.875C532.205 42.0625 532.142 39.1563 531.518 36.375C531.018 33.8438 529.456 32.375 526.988 31.875C524.613 31.375 522.208 31.7188 519.833 31.5625C518.865 31.5 518.584 31.8438 518.584 32.8125C518.677 35.5 518.646 38.1875 518.646 40.9062Z" fill="white"/>
<path d="M692.007 135C683.509 135 675.043 135 666.545 135.031C665.42 135.031 664.952 134.875 664.827 133.562C664.014 124.812 663.015 116.062 662.202 107.312C662.077 106.187 661.702 105.969 660.671 105.969C656.704 106.031 652.767 106.062 648.799 105.937C647.3 105.875 646.956 106.531 646.831 107.75C646.425 112.094 645.988 116.437 645.55 120.781C645.113 125.031 644.644 129.25 644.238 133.5C644.113 134.719 643.582 134.969 642.426 134.969C625.462 134.937 608.466 134.937 591.502 134.969C590.065 134.969 590.065 134.437 590.252 133.375C591.877 124.406 593.47 115.469 595.032 106.5C596.907 95.8437 598.781 85.2188 600.687 74.5625C603.218 60.3438 605.717 46.0938 608.248 31.875C609.966 22.1563 611.653 12.4063 613.34 2.6875C613.559 1.34375 613.965 0.84375 615.464 0.84375C641.583 0.90625 667.732 0.90625 693.85 0.84375C695.131 0.84375 695.631 1.125 695.85 2.46875C698.724 19.0625 701.629 35.6563 704.566 52.2188C706.16 61.3438 707.847 70.4375 709.44 79.5625C711.971 93.8438 714.47 108.125 716.969 122.406C717.594 125.875 718.188 129.375 718.781 132.844C719.156 134.937 719.156 134.937 717.094 134.937L692.007 135ZM654.767 32.1563C654.298 32.4375 654.329 32.875 654.298 33.2813C653.954 36.2813 653.642 39.2812 653.267 42.25C651.892 53.2812 650.487 64.3125 649.081 75.3438C648.956 76.2813 649.174 76.5312 650.08 76.5312C652.673 76.5 655.267 76.5312 657.891 76.5312C660.078 76.5312 660.015 76.5313 659.765 74.4063C658.859 67.0313 657.953 59.6563 657.11 52.2813C656.329 45.5938 655.548 38.9063 654.767 32.1563Z" fill="white"/>
<path d="M315.949 0.28125H317.511C323.072 0.6875 328.571 1.40625 333.694 3.875C339.38 6.625 342.379 11.375 344.004 17.25C345.535 22.7813 345.879 28.4063 345.847 34.0938C345.816 38.8438 345.816 43.5625 345.879 48.3125C345.879 49.3438 345.691 49.75 344.535 49.75C327.665 49.7188 310.794 49.7188 293.923 49.75C292.767 49.75 292.549 49.3438 292.549 48.3125C292.611 45.4063 292.549 42.4688 292.549 39.5625C292.58 38.0938 292.424 36.6563 292.111 35.2188C291.424 32.0313 289.487 30.4688 286.144 30.375C282.864 30.2813 280.771 31.7813 279.958 34.9063C279.521 36.7813 279.302 38.7188 279.333 40.625C279.333 54.1563 279.333 67.7188 279.333 81.25C279.333 86.1875 279.333 91.1563 279.333 96.0938C279.333 97.9688 279.615 99.8125 280.146 101.594C280.896 104.094 282.739 105.5 285.301 105.625C288.425 105.781 290.424 104.688 291.518 102.188C292.236 100.5 292.58 98.6875 292.517 96.875C292.549 91.9375 292.58 86.9688 292.517 82.0313C292.486 80.7188 292.767 80.25 294.205 80.25C310.856 80.3125 327.54 80.3125 344.191 80.25C345.441 80.25 345.879 80.5313 345.879 81.875C345.816 90.625 345.91 99.375 345.816 108.125C345.754 113.344 344.941 118.469 342.629 123.25C339.849 129 335.069 132.219 329.164 134C325.259 135.125 321.26 135.813 317.199 135.969H315.324C312.512 135.969 309.701 135.938 306.92 135.906C290.299 135.906 273.647 135.906 257.027 135.906C256.558 135.906 256.089 135.938 255.621 135.969H253.746C248.529 135.563 243.437 134.688 238.688 132.313C233.127 129.563 229.69 125.063 227.878 119.25C226.722 115.469 226.191 111.5 226.222 107.563C226.253 82.0625 226.253 56.5313 226.222 31.0313C226.191 26.3438 226.785 21.6875 228.003 17.1563C230.409 8.09375 236.595 3.125 245.561 1.28125C248.279 0.75 250.997 0.40625 253.746 0.25L255.621 0.28125C262.213 0.28125 268.805 0.3125 275.428 0.3125C288.112 0.3125 300.797 0.3125 313.481 0.28125H315.949Z" fill="white"/>
<path d="M405.488 0.9375C422.577 0.9375 439.635 0.96875 456.725 0.90625C458.099 0.90625 458.443 1.25 458.443 2.625C458.381 11.75 458.381 20.8437 458.443 29.9688C458.443 31.2812 458.068 31.5937 456.787 31.5937C448.914 31.5312 441.073 31.5938 433.2 31.5312C431.7 31.5312 431.294 31.9375 431.294 33.4375C431.325 66.5625 431.356 99.6875 431.325 132.813C431.325 135.313 431.575 135 429.201 135C413.267 135 397.334 134.969 381.401 135.031C379.87 135.031 379.401 134.719 379.401 133.094C379.464 99.9063 379.464 66.75 379.432 33.5625C379.432 31.5625 379.432 31.5625 377.433 31.5625C369.622 31.5625 361.812 31.5312 354.002 31.5937C352.783 31.5937 352.439 31.2812 352.439 30.0312C352.502 20.875 352.502 11.6875 352.439 2.53125C352.439 1.21875 352.814 0.90625 354.095 0.90625C371.216 0.96875 388.336 0.96875 405.488 0.9375Z" fill="white"/>
<path d="M130.903 67.9688C130.903 46.25 130.903 24.5312 130.872 2.8125C130.872 1.3125 131.216 0.90625 132.747 0.90625C159.646 0.96875 186.576 0.96875 213.476 0.90625C214.975 0.90625 215.381 1.25 215.35 2.78125C215.288 11.8437 215.288 20.9062 215.35 29.9688C215.35 31.2812 214.975 31.625 213.694 31.5937C204.072 31.5312 194.418 31.5938 184.796 31.5312C183.546 31.5312 183.077 31.7812 183.108 33.125C183.202 36.9375 183.202 40.7188 183.108 44.5313C183.077 45.7188 183.452 46 184.608 46C194.293 45.9688 203.978 46 213.663 45.9375C215.131 45.9375 215.35 46.4063 215.35 47.7188C215.288 56.7188 215.288 65.75 215.35 74.75C215.35 76.2188 215.038 76.6875 213.476 76.6563C204.009 76.5938 194.512 76.6563 185.045 76.5625C183.39 76.5625 183.077 77.0625 183.108 78.5938C183.171 86.6563 183.171 94.75 183.108 102.813C183.108 104.094 183.483 104.375 184.702 104.344C194.387 104.281 204.072 104.344 213.757 104.281C214.944 104.281 215.35 104.531 215.35 105.813C215.288 115.031 215.288 124.25 215.35 133.469C215.35 134.594 215.131 135 213.913 135C186.733 134.969 159.552 134.969 132.372 135C130.872 135 130.872 134.312 130.872 133.219C130.903 111.5 130.903 89.7188 130.903 67.9688Z" fill="white"/>
</g>
<defs>
<clipPath id="clip0_555_48">
<rect width="719" height="136" fill="white"/>
</clipPath>
</defs>
</svg>
