<?xml version="1.0" encoding="utf-8"?>
<!-- Generator: Adobe Illustrator 24.1.2, SVG Export Plug-In . SVG Version: 6.00 Build 0)  -->
<svg version="1.1" id="Lager_1" xmlns="http://www.w3.org/2000/svg" xmlns:xlink="http://www.w3.org/1999/xlink" x="0px" y="0px"
	 viewBox="0 0 2301.4 435.2" style="enable-background:new 0 0 2301.4 435.2;" xml:space="preserve">
<style type="text/css">
	.st0{fill:#7F7F7F;}
</style>
<path class="st0" d="M288.3,0h2c1.8,1.8,4,0.9,6,0.9c5.3,0.7,10.6,1.3,15.8,2.1c16.5,2.8,32,8.1,45.2,18.7
	c16.2,13,24,30.5,24.8,50.9c0.7,17.8,0.1,35.7,0.4,53.5c0.1,3.9-0.9,5-5,5c-53.3-0.1-106.7-0.1-160,0c-3.9,0-5.2-1-5-5
	c0.4-7.2-0.5-14.3-4.6-20.6c-4.7-7.2-13.9-10.2-23.5-7.5c-7.9,2.2-12.6,8.9-13.4,17.3c-1.1,12.5,5,20.3,15.7,25
	c17.3,7.6,34.7,15.2,52.2,22.6c32.5,13.8,64.9,27.6,97.4,41.2c26.4,11.1,41,31,43.9,59.3c3.5,33.5,3.6,67.2,0.5,100.8
	c-2.8,29.5-18,51.4-46.6,62.4c-13.4,5.2-27.5,7.5-41.9,8.5h-6c-1.5-0.1-3-0.2-4.5-0.2c-51.2,0-102.5,0-153.7,0
	c-10,0-20,0.1-29.9,0.2h-6c-14.7-0.8-29.1-3.2-42.9-8.3c-20-7.5-35.4-20.1-43.4-40.6c-3.7-9.5-4.3-19.4-5.6-29.3l0.2-79.8
	c0.7-0.1,1.3-0.2,2-0.2c55,0,110,0,165-0.1c3.4,0,4.1,1.3,4.1,4.4c-0.1,11.3-0.5,22.7,0.6,34c0.7,6.8,1.8,13.8,7.7,18.3
	c12.5,9.5,29.3,2.9,32.2-12.9c2.1-11.8,2-24-0.1-35.8c-1.3-8.1-6.1-13.8-13.3-17.7c-4.9-2.7-10-5.2-15.3-7.3
	c-29.4-11.8-58.7-23.6-87.9-35.7c-20.9-8.6-42.3-16.1-61.5-28.5c-18.4-11.8-29.5-28.2-32-49.9c-3-25.5-2.7-51.3-0.7-76.8
	C3.4,44,16,25.6,38.3,13.8c15.4-8.1,32-11,48.9-12.9l5-0.1h188.1C282.9,0.5,285.8,2.1,288.3,0z"/>
<path class="st0" d="M1804.2,202.5c10.6,3.1,20.3,6.5,29.1,12.1c21.7,13.8,31.4,35,35.9,59.2c2.9,15.7,4.2,31.7,4.1,47.7
	c0,35-0.1,70,0.1,105c0,4.2-0.7,5.7-5.4,5.7c-53.2-0.2-106.3-0.2-159.5,0c-4.4,0-5.6-1-5.6-5.5c0.2-46,0.1-92,0.1-138
	c0.1-5.7-0.4-11.3-1.5-16.9c-2.2-10.8-8.2-16.1-19.3-16.6c-5.8-0.3-11.7,0.1-17.5-0.2c-3.7-0.2-4.8,0.9-4.8,4.7
	c0.2,21.2,0.1,42.3,0.1,63.5c0,34.5-0.1,69,0.1,103.5c0,4.5-1.2,5.5-5.6,5.5c-52.3-0.2-104.7-0.2-157,0c-4.1,0-5.3-1-5.3-5.2
	c0.1-139.7,0.1-279.3,0-419c0-3.9,1-5,5-5c90.5,0.1,181,0,271.5,0.2c20.1,0,39.8,2.7,58.6,10.6c21.8,9.2,34.5,26.2,40.2,48.5
	c7.1,27.6,7.2,56.5,0.2,84.1c-6.6,26.5-24.5,42.8-49.7,51.6C1813.7,199.5,1809.3,200.9,1804.2,202.5z M1660.1,130.9
	c0,8.8,0,17.6,0,26.4c0,2.3,0.2,3.8,3.1,3.7c6.5-0.2,13,0.2,19.4-0.2c11.6-0.8,17-5.8,19.2-17.2c1.7-9,1.5-18.3-0.5-27.2
	c-1.6-8.1-6.6-12.8-14.5-14.4c-7.6-1.6-15.3-0.5-22.9-1c-3.1-0.2-4,0.9-4,4C1660.2,113.6,1660.1,122.2,1660.1,130.9z"/>
<path class="st0" d="M2215,432c-27.2,0-54.3,0-81.5,0.1c-3.6,0-5.1-0.5-5.5-4.7c-2.6-28-5.8-56-8.4-84c-0.4-3.6-1.6-4.3-4.9-4.3
	c-12.7,0.2-25.3,0.3-38-0.1c-4.8-0.2-5.9,1.9-6.3,5.8c-1.3,13.9-2.7,27.8-4.1,41.7c-1.4,13.6-2.9,27.1-4.2,40.7
	c-0.4,3.9-2.1,4.7-5.8,4.7c-54.3-0.1-108.7-0.1-163,0c-4.6,0-4.6-1.7-4-5.1c5.2-28.7,10.3-57.3,15.3-86c6-34.1,12-68.1,18.1-102.2
	c8.1-45.5,16.1-91.1,24.2-136.6c5.5-31.1,10.9-62.3,16.3-93.4c0.7-4.3,2-5.9,6.8-5.9c83.6,0.2,167.3,0.2,250.9,0
	c4.1,0,5.7,0.9,6.4,5.2c9.2,53.1,18.5,106.2,27.9,159.2c5.1,29.2,10.5,58.3,15.6,87.5c8.1,45.7,16.1,91.4,24.1,137.1
	c2,11.1,3.9,22.3,5.8,33.4c1.2,6.7,1.2,6.7-5.4,6.7L2215,432z M2095.8,102.9c-1.5,0.9-1.4,2.3-1.5,3.6c-1.1,9.6-2.1,19.2-3.3,28.7
	c-4.4,35.3-8.9,70.6-13.4,105.9c-0.4,3,0.3,3.8,3.2,3.8c8.3-0.1,16.6,0,25,0c7,0,6.8,0,6-6.8c-2.9-23.6-5.8-47.2-8.5-70.8
	C2100.8,145.9,2098.3,124.5,2095.8,102.9z"/>
<path class="st0" d="M1011.3,0.9h5c17.8,1.3,35.4,3.6,51.8,11.5c18.2,8.8,27.8,24,33,42.8c4.9,17.7,6,35.7,5.9,53.9
	c-0.1,15.2-0.1,30.3,0.1,45.5c0,3.3-0.6,4.6-4.3,4.6c-54-0.1-108-0.1-162,0c-3.7,0-4.4-1.3-4.4-4.6c0.2-9.3,0-18.7,0-28
	c0.1-4.7-0.4-9.3-1.4-13.9c-2.2-10.2-8.4-15.2-19.1-15.5c-10.5-0.3-17.2,4.5-19.8,14.5c-1.4,6-2.1,12.2-2,18.3c0,43.3,0,86.7,0,130
	c0,15.8,0,31.7,0,47.5c0,6,0.9,11.9,2.6,17.6c2.4,8,8.3,12.5,16.5,12.9c10,0.5,16.4-3,19.9-11c2.3-5.4,3.4-11.2,3.2-17
	c0.1-15.8,0.2-31.7,0-47.5c-0.1-4.2,0.8-5.7,5.4-5.7c53.3,0.2,106.7,0.2,160,0c4,0,5.4,0.9,5.4,5.2c-0.2,28,0.1,56-0.2,84
	c-0.2,16.7-2.8,33.1-10.2,48.4c-8.9,18.4-24.2,28.7-43.1,34.4c-12.5,3.6-25.3,5.8-38.3,6.3h-6c-9,0-18-0.1-26.9-0.2
	c-53.2,0-106.5,0-159.7,0c-1.5,0-3,0.1-4.5,0.2h-6c-16.7-1.3-33-4.1-48.2-11.7c-17.8-8.8-28.8-23.2-34.6-41.8
	c-3.7-12.1-5.4-24.8-5.3-37.4c0.1-81.6,0.1-163.3,0-244.9c-0.1-15,1.8-29.9,5.7-44.4C737.5,25.9,757.3,10,786,4.1
	c8.7-1.7,17.4-2.8,26.2-3.3l6,0.1c21.1,0,42.2,0.1,63.4,0.1c40.6,0,81.2,0,121.8-0.1L1011.3,0.9z"/>
<path class="st0" d="M1297.9,3c54.7,0,109.3,0.1,164-0.1c4.4,0,5.5,1.1,5.5,5.5c-0.2,29.2-0.2,58.3,0,87.5c0,4.2-1.2,5.2-5.3,5.2
	c-25.2-0.2-50.3,0-75.5-0.2c-4.8,0-6.1,1.3-6.1,6.1c0.1,106,0.2,212,0.1,318c0,8,0.8,7-6.8,7c-51,0-102-0.1-153,0.1
	c-4.9,0-6.4-1-6.4-6.2c0.2-106.2,0.2-212.3,0.1-318.5c0-6.4,0-6.4-6.4-6.4c-25,0-50-0.1-75,0.1c-3.9,0-5-1-5-5
	c0.2-29.3,0.2-58.7,0-88c0-4.2,1.2-5.2,5.3-5.2C1188.2,3.1,1243,3.1,1297.9,3z"/>
<path class="st0" d="M419,217.5c0-69.5,0-139-0.1-208.5c0-4.8,1.1-6.1,6-6.1c86.1,0.2,172.3,0.2,258.4,0c4.8,0,6.1,1.1,6,6
	c-0.2,29-0.2,58,0,87c0,4.2-1.2,5.3-5.3,5.2c-30.8-0.2-61.7,0-92.5-0.2c-4,0-5.5,0.8-5.4,5.1c0.3,12.2,0.3,24.3,0,36.5
	c-0.1,3.8,1.1,4.7,4.8,4.7c31-0.1,62,0,93-0.2c4.7,0,5.4,1.5,5.4,5.7c-0.2,28.8-0.2,57.7,0,86.5c0,4.7-1,6.2-6,6.1
	c-30.3-0.2-60.7,0-91-0.3c-5.3,0-6.3,1.6-6.2,6.5c0.2,25.8,0.2,51.7,0,77.5c0,4.1,1.2,5,5.1,4.9c31-0.2,62,0,93-0.2
	c3.8,0,5.1,0.8,5.1,4.9c-0.2,29.5-0.2,59,0,88.5c0,3.6-0.7,4.9-4.6,4.9c-87-0.1-174-0.1-261,0c-4.8,0-4.8-2.2-4.8-5.7
	C419,356.8,419,287.1,419,217.5z"/>
</svg>
