<?xml version="1.0" encoding="utf-8"?>
<!-- Generator: Adobe Illustrator 24.1.2, SVG Export Plug-In . SVG Version: 6.00 Build 0)  -->
<svg version="1.1" id="Lager_1" xmlns="http://www.w3.org/2000/svg" xmlns:xlink="http://www.w3.org/1999/xlink" x="0px" y="0px"
	 viewBox="0 0 266.5 79.1" style="enable-background:new 0 0 266.5 79.1;" xml:space="preserve">
<style type="text/css">
	.st0{fill:#2CA3E8;}
	.st1{fill:#636463;}
</style>
<path class="st0" d="M65.6,78.7c-0.9-1.2,2.5-2.9,6.6-7.6c2.4-2.9,4.5-6,6.2-9.3c2.2-4.2,3.5-8.9,3.8-13.7c0.3-6.3-1-12.1-5.3-15.2
	c-5.6-4-16.7,4.1-23.8,9c-1.7,1.2-7.1,5-12.2,4.4c-4.4-0.4-8-3.9-8.5-8.3c-0.8-7.6,8.8-21.5,5.7-26.9c-1.2-2-4.8-2.1-9.1-0.9
	c-6.9,2.3-13,6.5-17.5,12.2C6.5,29,8.7,36.3,9.9,39.1c2.3,5.5,6.1,10.3,9.8,14.4c7.6,8.2,15,14,19.8,18.1s8.2,5.9,7.3,7.1
	s-3.7-0.9-9.4-4.1C29.3,70,21.8,64.5,14.9,58.2c-5-4.6-9.1-10-12.2-16C1.1,39-3.2,28.3,4.1,17.6c2.5-3.7,5.6-6.9,9.1-9.5
	c3.5-2.6,18.5-12.4,29-5.8c2.6,1.8,4.4,4.5,5,7.6c2.1,9.7-4.3,19.4-5.4,25.3c-0.3,1.3,0.5,2.3,2.5,1.3c4.3-2.3,10.4-6.3,13.9-8.3
	c11.3-6.4,19-6.7,25.3-0.1c1.3,1.3,6.7,8.4,5.1,20.7c-0.8,5.6-2.8,10.9-5.9,15.7c-2.2,3.5-5,6.6-8.2,9.3
	C69.4,78,66.3,79.6,65.6,78.7z"/>
<path class="st1" d="M99.6,24.5c-0.1-0.7,0.4-1.3,1-1.4c0.1,0,0.2,0,0.3,0h1.3c0.6-0.1,1.2,0.4,1.3,1c0,0.1,0,0.2,0,0.3v8.4
	c0,0.6,0,1.2-0.1,1.8h0.1c1.4-2.4,4-3.9,6.8-3.8c5.5,0,9,4.4,9,10.8c0,6.6-4,10.9-9.4,10.9c-2.8,0.1-5.3-1.5-6.6-3.9h-0.1
	c0.1,0.4,0.1,0.8,0.1,1.2v1c0,0.7-0.5,1.2-1.3,1.2h-1c-0.7,0.1-1.3-0.4-1.3-1c0-0.1,0-0.2,0-0.3L99.6,24.5z M109.2,49.1
	c3.3,0,6-2.7,6-7.4c0-4.5-2.4-7.4-5.8-7.4c-3.1,0-6,2.2-6,7.4C103.4,45.5,105.3,49.1,109.2,49.1"/>
<path class="st1" d="M132.6,30.9c6.2,0,11.2,4.5,11.2,10.8c0.2,6.2-4.6,11.3-10.8,11.5c-6.2,0.2-11.3-4.6-11.5-10.8
	s4.6-11.3,10.8-11.5C132.4,30.9,132.5,30.9,132.6,30.9 M132.6,49.1c3.9,0,7.1-3.2,7.1-7.2c0-0.1,0-0.2,0-0.3
	c0.1-3.9-2.9-7.2-6.8-7.4s-7.2,2.9-7.4,6.8c0,0.2,0,0.4,0,0.5c-0.1,4,2.9,7.3,6.9,7.4C132.5,49.1,132.5,49.1,132.6,49.1"/>
<path class="st1" d="M146.4,32.7c-0.1-0.7,0.4-1.3,1.1-1.3c0.1,0,0.2,0,0.3,0h1.1c0.7-0.1,1.3,0.4,1.3,1c0,0.1,0,0.2,0,0.3v1.8
	c0,0.4,0,0.8-0.1,1.2h0.1c1.5-3,4.5-4.9,7.9-4.9c4.9,0,7.1,2.7,7.1,7.9v11.9c0.1,0.7-0.4,1.3-1,1.3c-0.1,0-0.2,0-0.3,0h-1.3
	c-0.7,0.1-1.3-0.4-1.4-1.1c0-0.1,0-0.2,0-0.3v-11c0-2.9-0.6-5.2-3.9-5.2c-4,0-6.9,3.3-6.9,7.6v8.5c0.1,0.7-0.4,1.3-1,1.4
	c-0.1,0-0.2,0-0.4,0h-1.3c-0.7,0.1-1.3-0.4-1.4-1.1c0-0.1,0-0.2,0-0.3L146.4,32.7z"/>
<path class="st1" d="M169.8,34.8h-1.4c-0.7,0.1-1.2-0.4-1.3-1.1c0-0.1,0-0.2,0-0.3v-0.5c-0.1-0.7,0.4-1.3,1.1-1.4c0.1,0,0.2,0,0.3,0
	h1.5V27c-0.1-0.7,0.4-1.3,1.1-1.4c0.1,0,0.2,0,0.3,0h1.2c0.7-0.1,1.3,0.4,1.3,1c0,0.1,0,0.2,0,0.3v4.5h3.6c0.7-0.1,1.3,0.4,1.4,1.1
	c0,0.1,0,0.2,0,0.3v0.5c0.1,0.7-0.4,1.3-1,1.3c-0.1,0-0.2,0-0.3,0h-3.6V44c0,3.9,2.4,4.5,3.9,4.7c1.1,0.1,1.4,0.4,1.4,1.3v0.9
	c0,0.9-0.5,1.3-1.6,1.3c-4.1,0-7.7-2.4-7.7-7.6V34.8z"/>
<path class="st1" d="M191,30.9c6.2,0,11.2,4.5,11.2,10.8c0.2,6.2-4.6,11.3-10.8,11.5c-6.2,0.2-11.3-4.6-11.5-10.8
	s4.6-11.3,10.8-11.5C190.8,30.9,190.9,30.9,191,30.9 M191,49.1c3.9,0,7.1-3.2,7.1-7.2c0-0.1,0-0.2,0-0.3c0.1-3.9-2.9-7.2-6.8-7.4
	s-7.2,2.9-7.4,6.8c0,0.2,0,0.4,0,0.5c-0.1,4,2.9,7.3,6.9,7.4C190.9,49.1,190.9,49.1,191,49.1"/>
<path class="st1" d="M204.8,32.7c-0.1-0.7,0.4-1.3,1-1.3c0.1,0,0.2,0,0.3,0h1.3c0.6-0.1,1.2,0.4,1.3,1c0,0.1,0,0.2,0,0.3v11
	c0,2.9,0.6,5.2,3.9,5.2c4.3,0,6.8-3.7,6.8-7.8v-8.3c-0.1-0.7,0.4-1.3,1-1.3c0.1,0,0.2,0,0.3,0h1.3c0.7-0.1,1.3,0.4,1.3,1.1
	c0,0.1,0,0.2,0,0.3v18c0.1,0.7-0.4,1.3-1.1,1.4c-0.1,0-0.2,0-0.3,0h-1.1c-0.7,0.1-1.3-0.4-1.4-1c0-0.1,0-0.2,0-0.3v-1.8
	c0-0.4,0-0.8,0.1-1.2h-0.1c-1.4,2.9-4.4,4.8-7.7,4.9c-4.7,0-7-2.5-7-7.9L204.8,32.7z"/>
<path class="st1" d="M237.4,30.9c2.5-0.1,4.9,0.7,6.8,2.2c0.6,0.3,0.7,1,0.4,1.6c0,0.1-0.1,0.2-0.2,0.2l-0.4,0.6
	c-0.5,0.7-1.1,0.8-1.9,0.3c-1.3-1-3-1.5-4.6-1.6c-3.9-0.1-7.1,3-7.2,6.9c0,0.2,0,0.3,0,0.5c-0.2,4,2.9,7.3,6.9,7.4
	c0.1,0,0.3,0,0.4,0c1.9,0,3.8-0.7,5.3-1.9c0.5-0.4,1.2-0.4,1.6,0c0.1,0.1,0.2,0.2,0.2,0.3l0.3,0.6c0.4,0.5,0.3,1.3-0.3,1.7
	c0,0-0.1,0.1-0.1,0.1c-2.1,1.7-4.7,2.6-7.4,2.5c-6.5,0-11-4.6-11-10.8c-0.1-5.9,4.5-10.7,10.4-10.8C237,30.9,237.2,30.9,237.4,30.9"
	/>
<path class="st1" d="M247.8,24.5c-0.1-0.7,0.4-1.3,1-1.4c0.1,0,0.2,0,0.3,0h1.3c0.7-0.1,1.2,0.4,1.3,1.1c0,0.1,0,0.2,0,0.3v9.4
	c0,0.6,0,1.2-0.1,1.7h0.1c1.5-2.9,4.5-4.8,7.7-4.7c4.9,0,7.1,2.6,7.1,7.9v11.9c0.1,0.7-0.4,1.3-1.1,1.3c-0.1,0-0.2,0-0.3,0h-1.3
	c-0.7,0.1-1.3-0.4-1.4-1c0-0.1,0-0.2,0-0.3v-11c0-2.9-0.6-5.2-3.9-5.2c-4,0-6.9,3.3-6.9,7.7v8.5c0.1,0.7-0.4,1.3-1,1.3
	c-0.1,0-0.2,0-0.3,0h-1.3c-0.7,0.1-1.3-0.4-1.4-1c0-0.1,0-0.2,0-0.3L247.8,24.5z"/>
</svg>
