<?xml version="1.0" encoding="utf-8"?>
<!-- Generator: Adobe Illustrator 24.1.2, SVG Export Plug-In . SVG Version: 6.00 Build 0)  -->
<svg version="1.1" id="Lager_1" xmlns="http://www.w3.org/2000/svg" xmlns:xlink="http://www.w3.org/1999/xlink" x="0px" y="0px"
	 viewBox="0 0 272.5 137.5" style="enable-background:new 0 0 272.5 137.5;" xml:space="preserve">
<g>
	<path d="M17.4,86.5c0,0-0.7-2.7-2.7-7.2s-2.5-7.2-1.8-9c0.7-1.8,3.2-2.5,8.3-0.8c5.2,1.7,4.3,1.8,5.3,0.8s1.5-15.2,2.7-23.2
		s2.5-14.7,2.5-14.7s4.8,7.7,5.7,14c0.8,6.3,1.3,21,2.7,22s5.7,0.2,10.8,0.5c5.2,0.3,7.2,0.3,8-0.3c0.8-0.7,3.8-17,4.3-20.3
		c0.5-3.3,0.5-7,0.5-7s1.7-1.5,5.2,4.3c3.5,5.8,4.3,9.7,4.5,14.3c0.2,4.7,0.2,7.2,1.3,7.7s3.7,2,10.8,2.2c7.2,0.2,20.2,2.5,24,4
		s16,10.2,13.5,23.8c-2.5,13.7-5.6,16.2-8,16.2c-6-0.2-7-4.3-5.2-19.3c0,0,3.2-13.8-11.7-13.3c-16.3,0.5-23.3,1.6-26,3.8
		c-1.4,1.2-1.6,7.1-3.2,13c-2.2,8.5-6,17.6-9.2,18.7c-4.1,1.4-3.5-3.5-4-6.8c-0.5-3.3-0.7-14.7,0.3-18.5c1-3.8-0.2-6.3-4.5-5.5
		c-4.3,0.8-11,2.5-11.7,4.3c-0.7,1.8,1.5,18.3-1.7,20.2c-3.2,1.8-5,3.5-8.7-0.7c-3.7-4.2-4.7-13.2-4.7-16.3c0-3.2-1-6.3-4-6.3
		S17.4,86.5,17.4,86.5z"/>
	<path d="M248.4,108.7C234.6,99.9,199.9,94,199.9,94s7.4-15.7,7.7-31.7c0.2-10.9-2.7-18.8-4.5-21.7c-4.2-6.4-2.1-11.7-14-11.2
		c-3,0.1,2.7-14.1,0.3-13.8c-2.3,0.3-8.8,2.3-17.2,9.8c-7.1,6.4-17.7,15.8-20.5,19.2c0,0-7.3,8.3-12.8,26.3c-5.5,18-8,24.5-4.5,36.2
		c3.2,10.9,11.3,12.3,20.3,12c9-0.3,19.3-1.7,31.8-12.7c5.3-4.7,5.5-6.3,7.3-6.2c1.8,0.2,13.3,8.5,20.2,13.3
		c6.8,4.8,34.5,16.4,44,16.3C264.2,130,262.2,117.5,248.4,108.7z M145.7,106.9c-9.1-1.1-0.5-23.2-0.5-23.2s-0.3-1,18.5,4.2
		c13.3,3.7,18.4,8.5,18.4,8.5S170,109.9,145.7,106.9z M191.4,81.8c-1.8,4.3-2.7,7.5-4.8,7.8s-15.5-3.2-20.8-5.2
		c-9.2-3.4-17.8-6.7-16.2-11.8c1.7-5.2,9.8-21.8,20.8-25.2c11-3.3,21.6-6.4,25.5,2.7C199.5,58.6,193.2,77.5,191.4,81.8z"/>
	<path d="M114.7,62.5c0,0-2.1-6.6,0.2-13.2c2.3-6.7,4.7-11.1,5.8-10.4c1.9,1.1,0.7,4.3,3,8c1.7,2.8,0.3,12-1.3,13.7
		C120.7,62.2,117.8,63.3,114.7,62.5z"/>
</g>
</svg>
